<svg xmlns="http://www.w3.org/2000/svg" width="120" height="120" viewBox="0 0 120 120">
  <g id="Grupo_1117915" data-name="Grupo 1117915" transform="translate(-64 -6445)">
    <rect id="Rect치ngulo_402033" data-name="Rect치ngulo 402033" width="120" height="120" rx="8" transform="translate(64 6445)" fill="#0042db"/>
    <g id="Rect치ngulo_412110" data-name="Rect치ngulo 412110" transform="translate(69 6450)" fill="none" stroke="#fff" stroke-width="1">
      <rect width="110" height="110" rx="6" stroke="none"/>
      <rect x="0.5" y="0.5" width="109" height="109" rx="5.5" fill="none"/>
    </g>
    <g id="Grupo_1118847" data-name="Grupo 1118847" transform="translate(83.877 6465)">
      <path id="Trazado_969118" data-name="Trazado 969118" d="M423.875,406.531v7.031h-4.687L414.5,399.5Z" transform="translate(-349.734 -337.078)" fill="#ffc266"/>
      <path id="Trazado_969119" data-name="Trazado 969119" d="M37.5,343.25v7.031h63.594V324.5Z" transform="translate(-31.641 -273.797)" fill="#ffd966"/>
      <path id="Trazado_969120" data-name="Trazado 969120" d="M414.5,202.5h9.375v9.375H414.5Z" transform="translate(-349.734 -170.859)" fill="#ffc266"/>
      <path id="Trazado_969121" data-name="Trazado 969121" d="M37.5,202.5h63.594v9.375H37.5Z" transform="translate(-31.641 -170.859)" fill="#ffd966"/>
      <path id="Trazado_969122" data-name="Trazado 969122" d="M324.5,262.5l18.75,28.438h4.688V262.5Z" transform="translate(-273.797 -221.484)" fill="#ffab5c"/>
      <path id="Trazado_969123" data-name="Trazado 969123" d="M37.5,262.5v28.438h63.594V286.25l-2.344-2.344v-9.687h2.344V262.5Z" transform="translate(-31.641 -221.484)" fill="#ffc266"/>
      <path id="Trazado_969124" data-name="Trazado 969124" d="M67.5,324.844v12.031h4.688V324.844a2.344,2.344,0,0,0-4.687,0Z" transform="translate(-56.953 -272.109)" fill="#ad6549"/>
      <path id="Trazado_969125" data-name="Trazado 969125" d="M419.188,324.844v12.031H414.5V324.844a2.344,2.344,0,0,1,4.688,0Z" transform="translate(-349.734 -272.109)" fill="#ad6549"/>
      <path id="Trazado_969126" data-name="Trazado 969126" d="M157.5,277.5h30.781v33.125H157.5Z" transform="translate(-132.891 -234.141)" fill="#ffd966"/>
      <path id="Trazado_969127" data-name="Trazado 969127" d="M314.188,7.5H309.5l2.344,9.375h2.344a2.345,2.345,0,0,1,2.344,2.344V9.844A2.345,2.345,0,0,0,314.188,7.5Z" transform="translate(-261.141 -6.328)" fill="#ff5474"/>
      <path id="Trazado_969128" data-name="Trazado 969128" d="M264.359,7.5H256v9.375h10.7V9.844A2.345,2.345,0,0,0,264.359,7.5Z" transform="translate(-216 -6.328)" fill="#ff7a94"/>
      <path id="Trazado_969129" data-name="Trazado 969129" d="M314.188,67.5h-2.344L309.5,72.188h4.688a2.344,2.344,0,0,0,0-4.687Z" transform="translate(-261.141 -56.953)" fill="#f23a5d"/>
      <path id="Trazado_969130" data-name="Trazado 969130" d="M299.188,69.844V67.5H294.5v4.688h2.344A2.344,2.344,0,0,0,299.188,69.844Z" transform="translate(-248.484 -56.953)" fill="#ff5474"/>
      <path id="Trazado_969131" data-name="Trazado 969131" d="M239.188,337.5,234.5,349.219l9.375-4.687V337.5Z" transform="translate(-197.859 -284.766)" fill="#fff5d6"/>
      <path id="Trazado_969132" data-name="Trazado 969132" d="M224.844,337.5v11.719l-7.344-4.687V337.5Z" transform="translate(-183.516 -284.766)" fill="#fff"/>
      <path id="Trazado_969133" data-name="Trazado 969133" d="M229.531,382.5v16.719H217.5l7.344-16.719Z" transform="translate(-183.516 -322.734)" fill="#ad6549"/>
      <path id="Trazado_969134" data-name="Trazado 969134" d="M217.5,382.5h7.344v16.719H217.5Z" transform="translate(-183.516 -322.734)" fill="#c7785a"/>
      <path id="Trazado_969135" data-name="Trazado 969135" d="M449.188,187.5H444.5v4.688h4.688a2.344,2.344,0,0,0,0-4.687Z" transform="translate(-375.047 -158.203)" fill="#ffd966"/>
      <path id="Trazado_969136" data-name="Trazado 969136" d="M142.5,292.5h7.031v30.781H142.5Z" transform="translate(-120.234 -246.797)" fill="#ffe8a3"/>
      <path id="Trazado_969137" data-name="Trazado 969137" d="M127.5,292.5h4.688v30.781H127.5Z" transform="translate(-107.578 -246.797)" fill="#fff5d6"/>
      <path id="Trazado_969138" data-name="Trazado 969138" d="M157.5,262.5v7.031h4.688a4.687,4.687,0,0,0,4.688-4.687V262.5Z" transform="translate(-132.891 -221.484)" fill="#fff5d6"/>
      <path id="Trazado_969139" data-name="Trazado 969139" d="M111.563,264.844V262.5H97.5v2.344a4.687,4.687,0,0,0,4.688,4.688h4.688A4.687,4.687,0,0,0,111.563,264.844Z" transform="translate(-82.266 -221.484)" fill="#fff"/>
      <path id="Trazado_969140" data-name="Trazado 969140" d="M339.5,292.5h7.031v30.781H339.5Z" transform="translate(-286.453 -246.797)" fill="#ffe8a3"/>
      <path id="Trazado_969141" data-name="Trazado 969141" d="M324.5,292.5h4.688v30.781H324.5Z" transform="translate(-273.797 -246.797)" fill="#fff5d6"/>
      <path id="Trazado_969142" data-name="Trazado 969142" d="M354.5,262.5v7.031h4.688a4.687,4.687,0,0,0,4.688-4.687V262.5Z" transform="translate(-299.109 -221.484)" fill="#fff5d6"/>
      <path id="Trazado_969143" data-name="Trazado 969143" d="M308.563,264.844V262.5H294.5v2.344a4.687,4.687,0,0,0,4.688,4.688h4.688A4.687,4.687,0,0,0,308.563,264.844Z" transform="translate(-248.484 -221.484)" fill="#fff"/>
      <path id="Trazado_969144" data-name="Trazado 969144" d="M449.188,247.5H444.5v4.688h4.688a2.344,2.344,0,0,0,0-4.687Z" transform="translate(-375.047 -208.828)" fill="#ffd966"/>
      <g id="Grupo_1118846" data-name="Grupo 1118846" transform="translate(3.516 29.297)">
        <path id="Trazado_969145" data-name="Trazado 969145" d="M90.781,249.844a2.345,2.345,0,0,0-2.344-2.344H24.844a2.344,2.344,0,0,0,0,4.688H88.438A2.345,2.345,0,0,0,90.781,249.844Z" transform="translate(-22.5 -238.125)" fill="#ffe8a3"/>
        <path id="Trazado_969146" data-name="Trazado 969146" d="M88.438,187.5H24.844a2.344,2.344,0,0,0,0,4.688H88.438a2.344,2.344,0,0,0,0-4.687Z" transform="translate(-22.5 -187.5)" fill="#ffe8a3"/>
        <path id="Trazado_969147" data-name="Trazado 969147" d="M449.188,474.5H444.5l4.688,4.688h4.688A4.687,4.687,0,0,0,449.188,474.5Z" transform="translate(-378.563 -429.656)" fill="#ffe8a3"/>
      </g>
      <path id="Trazado_969148" data-name="Trazado 969148" d="M75.781,474.5H12.188A4.687,4.687,0,0,0,7.5,479.188H80.469A4.687,4.687,0,0,0,75.781,474.5Z" transform="translate(-6.328 -400.359)" fill="#fff5d6"/>
      <path id="Trazado_969149" data-name="Trazado 969149" d="M147.031,124.219l-24.766,7.031L97.5,124.219,122.266,112.5Z" transform="translate(-82.266 -94.922)" fill="#ffe8a3"/>
      <path id="Trazado_969150" data-name="Trazado 969150" d="M97.5,187.5h49.531v9.375H97.5Z" transform="translate(-82.266 -158.203)" fill="#fff5d6"/>
      <path id="Trazado_969151" data-name="Trazado 969151" d="M75.313,73.087V44.33a3.515,3.515,0,0,0,0-6.628V34.955a3.515,3.515,0,0,0-1.172-6.83H65.029L41.172,16.836V11.719h3.672v3.516a1.172,1.172,0,0,0,1.172,1.172h7.031a3.52,3.52,0,0,0,3.516-3.516V3.516A3.52,3.52,0,0,0,53.047,0H40a1.172,1.172,0,0,0-1.172,1.172V16.836L14.971,28.125H5.859a3.515,3.515,0,0,0-1.172,6.83V37.7a3.515,3.515,0,0,0,0,6.628V57.422a1.172,1.172,0,0,0,2.344,0V44.531H14.18a5.877,5.877,0,0,0,4.57,4.57v19.18H7.031V62.109a1.172,1.172,0,0,0-2.344,0V73.087A5.869,5.869,0,0,0,0,78.828,1.172,1.172,0,0,0,1.172,80H78.828A1.172,1.172,0,0,0,80,78.828,5.869,5.869,0,0,0,75.313,73.087ZM50.7,60.938a1.172,1.172,0,0,0-1.172,1.172V72.969H47.188V52.734a1.172,1.172,0,0,0-1.172-1.172H33.984a1.172,1.172,0,0,0-1.172,1.172V72.969H30.469V49.1a5.877,5.877,0,0,0,4.57-4.57h9.923a5.877,5.877,0,0,0,4.57,4.57v8.321a1.172,1.172,0,0,0,2.344,0v-8.2h7.031v23.75H51.875V62.109A1.172,1.172,0,0,0,50.7,60.938Zm-5.859-2.344H35.156V53.906h9.688Zm-9.687,2.344h9.688V72.969H35.156ZM28.125,49.219v23.75H21.094V49.219ZM72.969,68.281H61.25V49.1a5.877,5.877,0,0,0,4.57-4.57h7.149ZM60.078,46.875H50.7a3.521,3.521,0,0,1-3.314-2.344h16a3.521,3.521,0,0,1-3.314,2.344Zm1.172,23.75H72.969v2.344H61.25ZM14.063,35.156V37.5H7.031V35.156Zm2.344-4.687H63.594V37.5H16.406Zm49.531,4.688h7.031V37.5H65.938Zm9.375-3.516a1.173,1.173,0,0,1-1.172,1.172h-8.2V30.469h8.2A1.173,1.173,0,0,1,75.313,31.641ZM53.047,14.063H47.188V11.719h5.859a1.172,1.172,0,0,1,0,2.344Zm0-11.719a1.173,1.173,0,0,1,1.172,1.172V9.577a3.5,3.5,0,0,0-1.172-.2H41.172V2.344ZM40,18.875l19.549,9.25h-39.1ZM5.859,30.469h8.2v2.344h-8.2a1.172,1.172,0,0,1,0-2.344Zm0,9.375H74.141a1.172,1.172,0,0,1,0,2.344H5.859a1.172,1.172,0,0,1,0-2.344Zm10.748,4.688h16A3.521,3.521,0,0,1,29.3,46.875H19.922A3.521,3.521,0,0,1,16.608,44.531ZM18.75,70.625v2.344H7.031V70.625ZM2.545,77.656a3.522,3.522,0,0,1,3.315-2.344H74.141a3.522,3.522,0,0,1,3.315,2.344Z"/>
      <path id="Trazado_969152" data-name="Trazado 969152" d="M65.859,331.719a1.172,1.172,0,0,0,1.172-1.172V318.516a3.516,3.516,0,0,0-7.031,0v12.031a1.172,1.172,0,0,0,1.172,1.172Zm-3.516-13.2a1.172,1.172,0,0,1,2.344,0v10.859H62.344Z" transform="translate(-50.625 -265.781)"/>
      <path id="Trazado_969153" data-name="Trazado 969153" d="M407,318.516v12.031a1.172,1.172,0,0,0,1.172,1.172h4.688a1.172,1.172,0,0,0,1.172-1.172V318.516a3.516,3.516,0,0,0-7.031,0Zm4.688,0v10.859h-2.344V318.516a1.172,1.172,0,0,1,2.344,0Z" transform="translate(-343.406 -265.781)"/>
    </g>
  </g>
</svg>
