<svg xmlns="http://www.w3.org/2000/svg" width="120" height="120" viewBox="0 0 120 120">
  <g id="Grupo_1117876" data-name="Grupo 1117876" transform="translate(-64 -6445)">
    <rect id="Rect치ngulo_402033" data-name="Rect치ngulo 402033" width="120" height="120" rx="8" transform="translate(64 6445)" fill="#0042db"/>
    <g id="Rect치ngulo_412110" data-name="Rect치ngulo 412110" transform="translate(69 6450)" fill="none" stroke="#fff" stroke-width="1">
      <rect width="110" height="110" rx="6" stroke="none"/>
      <rect x="0.5" y="0.5" width="109" height="109" rx="5.5" fill="none"/>
    </g>
    <g id="Handshake-Project-Collaborate-Sign-Contract" transform="translate(82 6463.22)">
      <path id="Trazado_969077" data-name="Trazado 969077" d="M61.344,13.608v61a5.3,5.3,0,0,1-5.3,5.3H8.3A5.3,5.3,0,0,1,3,74.6V8.3A5.3,5.3,0,0,1,8.3,3H50.736v7.956a2.66,2.66,0,0,0,2.652,2.652Z" transform="translate(0.326 0.326)" fill="#e6e7e8"/>
      <path id="Trazado_969078" data-name="Trazado 969078" d="M54.973,30.178a5.3,5.3,0,0,1,7.492,7.492L60.6,39.553,53.09,32.047Z" transform="translate(16.656 8.738)" fill="#e6e7e8"/>
      <path id="Trazado_969079" data-name="Trazado 969079" d="M53.781,31.25l7.505,7.505-2.811,2.811-3.753-3.753L50.97,34.061Z" transform="translate(15.965 9.536)" fill="#ffa733"/>
      <path id="Trazado_969080" data-name="Trazado 969080" d="M50.775,41.35V56.334l-2.4,2.4-.928.941-4.694.941-2.811,2.811a2.654,2.654,0,0,1-3.753-3.753L39,56.864l.941-4.694.941-.928Z" transform="translate(10.895 12.828)" fill="#d8d7da"/>
      <path id="Trazado_969081" data-name="Trazado 969081" d="M40.753,54.8l-2.811,2.811a2.654,2.654,0,0,1-3.753-3.753L37,51.05Z" transform="translate(10.243 15.991)" fill="#787680"/>
      <path id="Trazado_969082" data-name="Trazado 969082" d="M55.348,33.37l-5.264,5.278L37.54,51.192l3.739,3.753h.013l8.791-8.8L59.1,37.123Z" transform="translate(11.586 10.227)" fill="#00ccb3"/>
      <path id="Trazado_969083" data-name="Trazado 969083" d="M45.495,54.3l-.928.941-4.694.941L36.12,52.432l.941-4.694L38,46.81l3.739,3.753h.013Z" transform="translate(11.123 14.608)" fill="#898890"/>
      <path id="Trazado_969084" data-name="Trazado 969084" d="M58.178,36.2l-9.017,9.017-8.791,8.8,3.739,3.739,5.052-5.039L61.931,39.953Z" transform="translate(12.509 11.149)" fill="#00b39d"/>
      <path id="Trazado_969085" data-name="Trazado 969085" d="M50.759,42.15a1.908,1.908,0,0,0-.544-.4L52.165,39.8,55.9,36.05,42.79,22.923l-3.753,3.753-3.129.623-4.376-4.376H25.91L22.157,19.17,9.03,32.3l3.753,3.753,6.564,6.564a2.645,2.645,0,0,0,1.87,4.522,2.681,2.681,0,0,0,1.883-.769,2.652,2.652,0,1,0,3.739,3.753,2.641,2.641,0,0,0,0,3.739,2.7,2.7,0,0,0,1.883.782,2.643,2.643,0,0,0,1.87-.782,2.653,2.653,0,0,0,3.753,3.753l.994-.995a2.591,2.591,0,0,0,.411.53l1.883,1.87a2.644,2.644,0,1,0,3.739-3.739,2.652,2.652,0,0,0,3.753,0,2.7,2.7,0,0,0,.782-1.883,2.643,2.643,0,0,0-.782-1.87,2.653,2.653,0,1,0,3.753-3.753,2.653,2.653,0,1,0,3.753-3.753Z" transform="translate(2.292 5.598)" fill="#d8d7da"/>
      <g id="Grupo_1118841" data-name="Grupo 1118841" transform="translate(34.62 44.312)">
        <path id="Trazado_969086" data-name="Trazado 969086" d="M38.651,39.393A2.653,2.653,0,1,1,34.9,43.145l-1.87-1.883a2.654,2.654,0,0,1,3.753-3.753Z" transform="translate(-24.755 -32.987)" fill="#ffb655"/>
        <path id="Trazado_969087" data-name="Trazado 969087" d="M41.485,36.562a2.653,2.653,0,1,1-3.753,3.753l-1.87-1.883a2.625,2.625,0,0,1,0-3.739,2.582,2.582,0,0,1,3.209-.4,1.908,1.908,0,0,1,.544.4Z" transform="translate(-23.835 -33.909)" fill="#ffb655"/>
        <path id="Trazado_969088" data-name="Trazado 969088" d="M35.823,42.224a2.643,2.643,0,0,1,.782,1.87,2.7,2.7,0,0,1-.782,1.883,2.652,2.652,0,0,1-3.753,0L30.2,44.094a2.653,2.653,0,0,1,3.753-3.753Z" transform="translate(-25.679 -32.066)" fill="#ffb655"/>
        <path id="Trazado_969089" data-name="Trazado 969089" d="M32.991,45.053a2.644,2.644,0,1,1-3.739,3.739l-1.883-1.87a2.591,2.591,0,0,1-.411-.53,2.655,2.655,0,0,1,4.164-3.222Z" transform="translate(-26.6 -31.142)" fill="#ffb655"/>
      </g>
      <path id="Trazado_969090" data-name="Trazado 969090" d="M26.246,50.013a2.643,2.643,0,0,1-1.87.782,2.7,2.7,0,0,1-1.883-.782,2.641,2.641,0,0,1,0-3.739,2.652,2.652,0,0,1-3.739-3.753,2.681,2.681,0,0,1-1.883.769A2.647,2.647,0,0,1,15,38.769l2.811-2.811.941-.941,5.5-5.516a5.284,5.284,0,0,0,4.336-1.512l5.622,5.622a2.653,2.653,0,1,0,3.753-3.753l-6.4-6.4,3.129-.623L47.82,35.957l-1.949,1.949a2.582,2.582,0,0,0-3.209.4,2.625,2.625,0,0,0,0,3.739A2.654,2.654,0,0,0,38.909,45.8a2.653,2.653,0,1,0-3.753,3.753,2.652,2.652,0,0,0-4.164,3.222L30,53.766a2.653,2.653,0,0,1-3.753-3.753Z" transform="translate(3.985 6.791)" fill="#ffc477"/>
      <path id="Trazado_969091" data-name="Trazado 969091" d="M0,0H5.3V18.56H0Z" transform="translate(38.664 29.594) rotate(-45)" fill="#3d9ae2"/>
      <path id="Trazado_969092" data-name="Trazado 969092" d="M0,0H18.565V5.307H0Z" transform="translate(8.667 35.241) rotate(-45)" fill="#3d9ae2"/>
      <path id="Trazado_969093" data-name="Trazado 969093" d="M25.679,30.422l-5.5,5.516-.941.941-2.811,2.811L9.86,33.127,22.987,20H28.61l4.376,4.376,6.4,6.4a2.653,2.653,0,1,1-3.753,3.753l-5.622-5.622a5.284,5.284,0,0,1-4.336,1.512Z" transform="translate(2.562 5.868)" fill="#ffb655"/>
      <path id="Trazado_969094" data-name="Trazado 969094" d="M49.608,13.608H41.652A2.66,2.66,0,0,1,39,10.956V3Z" transform="translate(12.062 0.326)" fill="#bcbec0"/>
      <path id="Trazado_969095" data-name="Trazado 969095" d="M60.344,74.93a3.978,3.978,0,0,1-3.978,3.978H8.63A3.978,3.978,0,0,1,4.652,74.93V8.63A3.978,3.978,0,0,1,8.63,4.652H49.736v6.63a3.978,3.978,0,0,0,3.978,3.978h6.63V43.106H63V13.934A1.326,1.326,0,0,0,62.608,13L52,2.389A1.326,1.326,0,0,0,51.062,2H8.63A6.638,6.638,0,0,0,2,8.63v66.3a6.638,6.638,0,0,0,6.63,6.63H56.366A6.638,6.638,0,0,0,63,74.93v-5.3H60.344ZM52.388,11.282V6.527l6.081,6.081H53.714A1.326,1.326,0,0,1,52.388,11.282Z"/>
      <path id="Trazado_969096" data-name="Trazado 969096" d="M8,8h2.652v2.652H8Z" transform="translate(1.956 1.956)"/>
      <path id="Trazado_969097" data-name="Trazado 969097" d="M12,8h7.956v2.652H12Z" transform="translate(3.26 1.956)"/>
      <path id="Trazado_969098" data-name="Trazado 969098" d="M8,12H21.26v2.652H8Z" transform="translate(1.956 3.26)"/>
      <path id="Trazado_969099" data-name="Trazado 969099" d="M70.147,29.607a6.638,6.638,0,0,0-9.376,0L37.33,53.048a1.326,1.326,0,0,0-.362.676l-.859,4.295L33.58,60.548A3.978,3.978,0,1,0,39.2,66.174l2.53-2.529,4.295-.859a1.326,1.326,0,0,0,.676-.363L70.147,38.981a6.638,6.638,0,0,0,0-9.375ZM38.77,58.238l.625-3.127,5.247,5.247-3.125.626Zm2.31-5.19,15.94-15.941L58.9,38.981,42.956,54.923Zm3.751,3.75,15.941-15.94,1.875,1.876L46.706,58.673ZM58.9,35.232l.937-.937,5.626,5.626-.939.939ZM37.328,64.3a1.356,1.356,0,0,1-1.874,0,1.326,1.326,0,0,1,0-1.876l1.875-1.875,1.876,1.876ZM68.272,37.108l-.937.937-5.626-5.626.937-.937a3.978,3.978,0,1,1,5.626,5.626Z" transform="translate(9.915 8.368)"/>
      <path id="Trazado_969100" data-name="Trazado 969100" d="M55.173,35.318a1.337,1.337,0,0,0,0-1.883L42.045,20.308a1.371,1.371,0,0,0-1.87,0L36.7,23.782l-2.029.4L30.8,20.308a1.37,1.37,0,0,0-.941-.385H24.781l-3.355-3.368a1.337,1.337,0,0,0-1.883,0L6.415,29.683a1.337,1.337,0,0,0,0,1.883l9.547,9.547a3.942,3.942,0,0,0,3.381,5.662,3.853,3.853,0,0,0,1.14,2.6,3.93,3.93,0,0,0,2.6,1.154,3.955,3.955,0,0,0,3.753,3.753,3.978,3.978,0,0,0,6.776,2.6l1.406,1.406a3.97,3.97,0,0,0,5.622,0,3.859,3.859,0,0,0,1.14-2.612,3.9,3.9,0,0,0,3.753-3.739,3.929,3.929,0,0,0,3.753-3.753A3.969,3.969,0,0,0,51.9,41.4L50.492,40ZM9.226,30.624,20.484,19.38l1.87,1.87L11.109,32.507Zm3.753,3.753,11.8-11.8h4.535L39.7,32.971a1.3,1.3,0,0,1,0,1.87,1.345,1.345,0,0,1-1.87,0l-5.622-5.622a1.375,1.375,0,0,0-1.883,0,4.066,4.066,0,0,1-5.622,0l-1.87,1.87a6.731,6.731,0,0,0,1.631,1.18l-6.789,6.8Zm20.155,16.4a3.989,3.989,0,0,0-1.008,3.832l-.4.385a1.289,1.289,0,0,1-.941.385A1.261,1.261,0,0,1,29.859,55a1.317,1.317,0,0,1-.013-1.856.013.013,0,0,0,.013-.013l3.753-3.739v-.013L31.729,47.5l-3.753,3.753c-.013,0-.013,0-.013.013a1.368,1.368,0,0,1-1.856-.013,1.345,1.345,0,0,1,0-1.883l3.753-3.753-1.87-1.87L24.237,47.5a1.331,1.331,0,1,1-1.883-1.883l3.753-3.739L24.237,40l-3.753,3.753a1.362,1.362,0,0,1-1.883,0,1.326,1.326,0,0,1,0-1.87l8.844-8.858c.027,0,.04.013.066.013a6.562,6.562,0,0,0,3.66-1.1l4.787,4.787a4.077,4.077,0,0,0,5.622,0,3.978,3.978,0,0,0,.08-5.543l6.962,6.948-.4.385a3.987,3.987,0,0,0-3.832,1.021,3.853,3.853,0,0,0-1.14,2.6A3.926,3.926,0,0,0,39.5,45.926a3.855,3.855,0,0,0-3.753,3.713,4.039,4.039,0,0,0-2.612,1.14Zm5.636,5.636a1.375,1.375,0,0,1-1.883,0l-1.87-1.883a1.326,1.326,0,1,1,1.87-1.87l1.883,1.87a1.337,1.337,0,0,1,0,1.883Zm3.753-3.753a1.337,1.337,0,0,1-1.883,0L38.77,50.78a1.322,1.322,0,1,1,1.87-1.87l1.883,1.87A1.345,1.345,0,0,1,42.523,52.663Zm3.739-3.753a1.345,1.345,0,0,1-1.87,0l-1.87-1.883a1.273,1.273,0,0,1-.4-.928,1.335,1.335,0,0,1,1.326-1.326,1.358,1.358,0,0,1,.941.385l1.87,1.883A1.326,1.326,0,0,1,46.262,48.91Zm3.753-3.753a1.326,1.326,0,0,1-1.87,0l-1.883-1.87a1.337,1.337,0,0,1,0-1.883,1.382,1.382,0,0,1,.941-.385,1.358,1.358,0,0,1,.941.385l1.87,1.883a1.3,1.3,0,0,1,0,1.87ZM39.234,25l1.883-1.883L52.362,34.377l-1.87,1.87Z" transform="translate(1.313 4.619)"/>
      <path id="Trazado_969101" data-name="Trazado 969101" d="M21,54H34.26v2.652H21Z" transform="translate(6.194 16.952)"/>
      <path id="Trazado_969102" data-name="Trazado 969102" d="M8,44H18.608v2.652H8Z" transform="translate(1.956 13.692)"/>
      <path id="Trazado_969103" data-name="Trazado 969103" d="M8,48H21.26v2.652H8Z" transform="translate(1.956 14.996)"/>
      <path id="Trazado_969104" data-name="Trazado 969104" d="M8,40h7.956v2.652H8Z" transform="translate(1.956 12.388)"/>
    </g>
  </g>
</svg>
