<svg xmlns="http://www.w3.org/2000/svg" width="50" height="43.548" viewBox="0 0 50 43.548">
  <path id="Trazado_968494" data-name="Trazado 968494" d="M46.435,38.977a4.84,4.84,0,0,0,1.056-1.719h1.089a2.413,2.413,0,0,0,.806-4.69V30a4.037,4.037,0,0,0-4.032-4.032H42.935V23.548a5.653,5.653,0,0,0-4.565-5.539,4.84,4.84,0,0,0,1.056-1.719h1.089a2.413,2.413,0,0,0,.806-4.69V9.032A4.037,4.037,0,0,0,37.29,5H32.452a4.037,4.037,0,0,0-4.032,4.032V11.6a2.413,2.413,0,0,0,.806,4.69h1.089a4.84,4.84,0,0,0,1.056,1.719,5.653,5.653,0,0,0-4.565,5.539v2.419H25.194V23.548a5.653,5.653,0,0,0-4.565-5.539,4.84,4.84,0,0,0,1.056-1.719h1.089a2.413,2.413,0,0,0,.806-4.69V9.032A4.037,4.037,0,0,0,19.548,5H14.71a4.037,4.037,0,0,0-4.032,4.032V11.6a2.413,2.413,0,0,0,.806,4.69h1.089a4.84,4.84,0,0,0,1.056,1.719,5.653,5.653,0,0,0-4.565,5.539v2.419H6.645A4.037,4.037,0,0,0,2.613,30v2.568a2.413,2.413,0,0,0,.806,4.69H4.508a4.84,4.84,0,0,0,1.056,1.719A5.653,5.653,0,0,0,1,44.516v3.226a.806.806,0,0,0,.806.806H16.323a.806.806,0,0,0,.806-.806V44.516a5.653,5.653,0,0,0-4.565-5.539,4.84,4.84,0,0,0,1.056-1.719H14.71a2.413,2.413,0,0,0,.806-4.69V30a4.018,4.018,0,0,0-1.638-3.226H13.9V22.742H12.29v3.307a4.029,4.029,0,0,0-.806-.081h-.806V23.548A4.038,4.038,0,0,1,13.911,19.6a3.219,3.219,0,0,0,6.435,0,4.038,4.038,0,0,1,3.234,3.952v2.419a3.992,3.992,0,0,0-1.613.342V22.742H20.355v4.839h.021A3.991,3.991,0,0,0,19.548,30v2.568a2.413,2.413,0,0,0,.806,4.69h1.089A4.84,4.84,0,0,0,22.5,38.977a5.653,5.653,0,0,0-4.565,5.539v3.226a.806.806,0,0,0,.806.806H33.258a.806.806,0,0,0,.806-.806V44.516A5.653,5.653,0,0,0,29.5,38.977a4.84,4.84,0,0,0,1.056-1.719h1.089a2.413,2.413,0,0,0,.806-4.69V30a3.991,3.991,0,0,0-.827-2.419h.021V22.742H30.032V26.31a3.992,3.992,0,0,0-1.613-.342V23.548A4.038,4.038,0,0,1,31.653,19.6a3.219,3.219,0,0,0,6.435,0,4.038,4.038,0,0,1,3.234,3.952v2.419h-.806a4.029,4.029,0,0,0-.806.081V22.742H38.1v4.032h.025A4.018,4.018,0,0,0,36.484,30v2.568a2.413,2.413,0,0,0,.806,4.69h1.089a4.84,4.84,0,0,0,1.056,1.719,5.653,5.653,0,0,0-4.565,5.539v3.226a.806.806,0,0,0,.806.806H50.194A.806.806,0,0,0,51,47.742V44.516a5.653,5.653,0,0,0-4.565-5.539ZM10.677,40.484a1.613,1.613,0,1,1-3.226,0ZM9.065,38.871a3.229,3.229,0,0,1-3.226-3.226V34.032h.806a7.543,7.543,0,0,0,4.635-1.915,4.067,4.067,0,0,0,1.01,1.106v2.422a3.229,3.229,0,0,1-3.226,3.226ZM3.419,35.645a.806.806,0,0,1,0-1.613h.806v1.613Zm12.1,8.871v2.419H13.9V43.71H12.29v3.226H5.839V43.71H4.226v3.226H2.613V44.516a4.038,4.038,0,0,1,3.234-3.952,3.219,3.219,0,0,0,6.435,0A4.038,4.038,0,0,1,15.516,44.516Zm-.806-8.871H13.9V34.032h.806a.806.806,0,1,1,0,1.613ZM13.9,30v2.281A2.424,2.424,0,0,1,12.29,30a.806.806,0,0,0-1.613,0c0,1.122-2.44,2.419-4.032,2.419H4.226V30a2.422,2.422,0,0,1,2.419-2.419h4.839A2.422,2.422,0,0,1,13.9,30Zm0-15.323V13.065h.806a7.543,7.543,0,0,0,4.635-1.915,4.052,4.052,0,0,0,1.01,1.1v2.423a3.226,3.226,0,1,1-6.452,0Zm8.871,0h-.806V13.065h.806a.806.806,0,0,1,0,1.613ZM12.29,9.032A2.422,2.422,0,0,1,14.71,6.613h4.839a2.422,2.422,0,0,1,2.419,2.419v2.281a2.424,2.424,0,0,1-1.613-2.281.806.806,0,0,0-1.613,0c0,1.122-2.44,2.419-4.032,2.419H12.29Zm-.806,5.645a.806.806,0,0,1,0-1.613h.806v1.613Zm5.645,6.452a1.615,1.615,0,0,1-1.613-1.613h3.226A1.615,1.615,0,0,1,17.129,21.129ZM27.613,40.484a1.613,1.613,0,0,1-3.226,0ZM26,38.871a3.229,3.229,0,0,1-3.226-3.226V34.032h.806a7.543,7.543,0,0,0,4.635-1.915,4.067,4.067,0,0,0,1.01,1.106v2.422A3.229,3.229,0,0,1,26,38.871Zm-5.645-3.226a.806.806,0,1,1,0-1.613h.806v1.613Zm12.1,8.871v2.419H30.839V43.71H29.226v3.226H22.774V43.71H21.161v3.226H19.548V44.516a4.038,4.038,0,0,1,3.234-3.952,3.219,3.219,0,0,0,6.435,0A4.038,4.038,0,0,1,32.452,44.516Zm-.806-8.871h-.806V34.032h.806a.806.806,0,1,1,0,1.613ZM30.839,30v2.281A2.424,2.424,0,0,1,29.226,30a.806.806,0,0,0-1.613,0c0,1.122-2.44,2.419-4.032,2.419H21.161V30a2.422,2.422,0,0,1,2.419-2.419h4.839A2.422,2.422,0,0,1,30.839,30Zm.806-15.323V13.065h.806a7.543,7.543,0,0,0,4.635-1.915,4.052,4.052,0,0,0,1.01,1.1v2.423a3.226,3.226,0,0,1-6.452,0Zm8.871,0H39.71V13.065h.806a.806.806,0,1,1,0,1.613ZM30.032,9.032a2.422,2.422,0,0,1,2.419-2.419H37.29A2.422,2.422,0,0,1,39.71,9.032v2.281A2.424,2.424,0,0,1,38.1,9.032a.806.806,0,1,0-1.613,0c0,1.122-2.44,2.419-4.032,2.419H30.032Zm-.806,5.645a.806.806,0,0,1,0-1.613h.806v1.613Zm5.645,6.452a1.615,1.615,0,0,1-1.613-1.613h3.226A1.615,1.615,0,0,1,34.871,21.129ZM39.71,35.645V34.032h.806a7.543,7.543,0,0,0,4.635-1.915,4.067,4.067,0,0,0,1.01,1.106v2.422a3.226,3.226,0,1,1-6.452,0Zm4.839,4.839a1.613,1.613,0,1,1-3.226,0Zm4.032-4.839h-.806V34.032h.806a.806.806,0,1,1,0,1.613ZM38.1,30a2.422,2.422,0,0,1,2.419-2.419h4.839A2.422,2.422,0,0,1,47.774,30v2.281A2.424,2.424,0,0,1,46.161,30a.806.806,0,0,0-1.613,0c0,1.122-2.44,2.419-4.032,2.419H38.1Zm-.806,5.645a.806.806,0,0,1,0-1.613H38.1v1.613Zm12.1,11.29H47.774V43.71H46.161v3.226H39.71V43.71H38.1v3.226H36.484V44.516a4.038,4.038,0,0,1,3.234-3.952,3.219,3.219,0,0,0,6.435,0,4.038,4.038,0,0,1,3.234,3.952Z" transform="translate(-1 -5)" fill="#001a58"/>
</svg>
