<svg xmlns="http://www.w3.org/2000/svg" width="40" height="39.98" viewBox="0 0 40 39.98">
  <g id="XMLID_1215_" transform="translate(0 -0.127)">
    <g id="XMLID_638_" transform="translate(0 0.127)">
      <path id="XMLID_665_" d="M204.252,290.809a3.308,3.308,0,0,0-3.412-.724,3.693,3.693,0,0,0-2.446,3.47v1.24a3.032,3.032,0,0,0,5.69,1.458l.789-1.438A3.329,3.329,0,0,0,204.252,290.809Zm-.749,3.255-.789,1.438a1.469,1.469,0,0,1-2.758-.707v-1.24a2.127,2.127,0,0,1,1.409-2,1.763,1.763,0,0,1,2.138,2.508Z" transform="translate(-182.894 -267.251)" fill="#29542a"/>
      <path id="XMLID_673_" d="M389.066,464.14l-2.182,2.182a.781.781,0,1,0,1.1,1.1l2.182-2.182a.781.781,0,0,0-1.1-1.1Z" transform="translate(-356.447 -427.678)" fill="#29542a"/>
      <path id="XMLID_682_" d="M39.048,19.57a2.671,2.671,0,0,0-4.391,2.044V23.15a16.18,16.18,0,0,0-3.967-5.325l1.387-1.76a4.58,4.58,0,0,0,2.141.529,4.631,4.631,0,0,0,4.555-3.911A3.719,3.719,0,1,0,33.521,7.43a4.605,4.605,0,0,0-2.683,7.684l-1.366,1.734A16.129,16.129,0,0,0,20.781,13.8V11.629a4.7,4.7,0,1,0,3.879-8.51,5.125,5.125,0,0,0-9.321,0,4.7,4.7,0,1,0,3.879,8.51V13.8a16.129,16.129,0,0,0-8.691,3.051L9.162,15.114A4.605,4.605,0,0,0,6.479,7.43a3.719,3.719,0,1,0-5.254,5.254,4.631,4.631,0,0,0,4.555,3.911,4.58,4.58,0,0,0,2.141-.529l1.387,1.76A16.18,16.18,0,0,0,5.342,23.15V21.614a2.671,2.671,0,1,0-5.342,0v4.442a12.858,12.858,0,0,0,3.791,9.152l4.668,4.668a.781.781,0,0,0,1.1-1.1L4.9,34.1a11.306,11.306,0,0,1-3.333-8.047V21.614a1.109,1.109,0,0,1,2.217,0v4.96A5.931,5.931,0,0,0,5.528,30.8l4.237,4.237.315.315a.781.781,0,1,0,1.1-1.1L6.753,29.81a1.333,1.333,0,1,1,1.885-1.885l3.552,3.552a.781.781,0,0,0,.552.229,5.63,5.63,0,0,1,4.007,1.66,8.374,8.374,0,0,1,2.469,5.96.781.781,0,1,0,1.563,0,8.374,8.374,0,0,1,2.469-5.96,5.629,5.629,0,0,1,4.007-1.66.781.781,0,0,0,.552-.229l3.552-3.552a1.333,1.333,0,0,1,1.885,1.885l-4.433,4.433a.781.781,0,1,0,1.1,1.1l.315-.315L34.472,30.8a5.931,5.931,0,0,0,1.748-4.221v-4.96a1.109,1.109,0,0,1,2.217,0v4.442a11.416,11.416,0,0,1-1.368,5.409.781.781,0,1,0,1.375.743A12.985,12.985,0,0,0,40,26.056V21.614a2.665,2.665,0,0,0-.952-2.044ZM33.982,8.949a.781.781,0,0,0,.566-.311,2.157,2.157,0,1,1,3.019,3.019.781.781,0,0,0-.311.566,3.046,3.046,0,1,1-3.274-3.274ZM13.741,7.558A3.127,3.127,0,0,1,16.11,4.519a.781.781,0,0,0,.544-.49,3.563,3.563,0,0,1,6.693,0,.781.781,0,0,0,.544.49,3.133,3.133,0,1,1-2.959,5.273l1.414-1.414a.781.781,0,1,0-1.1-1.1l-.46.46V5.1a.781.781,0,0,0-1.563,0V8.521L17.974,7.276a.781.781,0,1,0-1.1,1.1l1.767,1.767a3.134,3.134,0,0,1-4.9-2.591Zm-11,4.665a.781.781,0,0,0-.311-.566A2.157,2.157,0,1,1,5.452,8.637a.781.781,0,0,0,.566.311,3.046,3.046,0,1,1-3.274,3.274ZM5.777,26.7a14.45,14.45,0,0,1,2.56-5.513h2.255a1.928,1.928,0,0,1,1.148,3.478,4.626,4.626,0,0,0-1.692,2.46l-.305-.305a2.9,2.9,0,0,0-3.967-.12Zm21.15,3.451a7.177,7.177,0,0,0-4.781,2.11A9.979,9.979,0,0,0,20,35.44a9.979,9.979,0,0,0-2.145-3.179,7.177,7.177,0,0,0-4.781-2.11l-1.637-1.637v-.145A3.058,3.058,0,0,1,12.67,25.92a3.491,3.491,0,0,0-2.078-6.3H9.7a14.516,14.516,0,0,1,17.8-2.192,5.466,5.466,0,0,0-1.39,9.831l1.625,1.047a2.231,2.231,0,0,1,.539.49Zm3.331-3.331-.872.872a3.792,3.792,0,0,0-.8-.695L26.958,25.95a3.9,3.9,0,0,1,2.115-7.186h.291a14.557,14.557,0,0,1,4.86,7.936A2.9,2.9,0,0,0,30.257,26.82Z" transform="translate(0 -0.127)" fill="#29542a"/>
      <path id="XMLID_1075_" d="M447.188,432.1a.78.78,0,1,0,.552.228A.787.787,0,0,0,447.188,432.1Z" transform="translate(-411.531 -398.349)" fill="#29542a"/>
    </g>
  </g>
</svg>
