<svg xmlns="http://www.w3.org/2000/svg" width="40" height="40" viewBox="0 0 40 40">
  <g id="Grupo_1119326" data-name="Grupo 1119326" transform="translate(0.001)">
    <path id="Trazado_970161" data-name="Trazado 970161" d="M71.168,387.583a.781.781,0,0,0,0-1.562H61.793a.781.781,0,0,0,0,1.563Zm0,0" transform="translate(-56.246 -355.862)" fill="#29542a"/>
    <path id="Trazado_970162" data-name="Trazado 970162" d="M39.451,20.58l-8.731-2.726a.779.779,0,0,0-.251-.042h0a.786.786,0,0,0-.251.042l-1.161.363V7.656a.779.779,0,0,0-.229-.552L21.951.229A.778.778,0,0,0,21.4,0H2.343A2.346,2.346,0,0,0,0,2.344V14.922a.781.781,0,1,0,1.562,0V2.344a.782.782,0,0,1,.781-.781H20.618V6.2a2.239,2.239,0,0,0,2.236,2.236h4.639V18.7L21.485,20.58a.781.781,0,0,0-.548.746V21.4H5.547a.781.781,0,0,0,0,1.563h15.39v2.814H5.547a.781.781,0,1,0,0,1.562h15.39v1.289a11.528,11.528,0,0,0,2.131,6.68H2.343a.782.782,0,0,1-.781-.781V21.953a.781.781,0,1,0-1.562,0V34.531a2.346,2.346,0,0,0,2.344,2.344H24.4a11.525,11.525,0,0,0,5.924,3.111.778.778,0,0,0,.294,0A11.574,11.574,0,0,0,40,28.633V21.326a.781.781,0,0,0-.548-.746Zm-16.6-13.7A.674.674,0,0,1,22.18,6.2V2.667l4.207,4.208ZM38.437,28.633a10.01,10.01,0,0,1-7.969,9.789A10.01,10.01,0,0,1,22.5,28.633V21.9l7.969-2.488L38.437,21.9Zm0,0" fill="#29542a"/>
    <path id="Trazado_970163" data-name="Trazado 970163" d="M314.174,269.94l-5.625,1.756a.781.781,0,0,0-.548.746v5.009a8.455,8.455,0,0,0,6.2,8.133.784.784,0,0,0,.414,0,8.455,8.455,0,0,0,6.2-8.133v-5.009a.781.781,0,0,0-.548-.746l-5.625-1.756A.782.782,0,0,0,314.174,269.94Zm5.077,3.076v4.434a6.89,6.89,0,0,1-4.844,6.566,6.89,6.89,0,0,1-4.844-6.566v-4.434l4.844-1.512Zm0,0" transform="translate(-283.939 -248.819)" fill="#29542a"/>
    <path id="Trazado_970164" data-name="Trazado 970164" d="M349.333,339.128a.781.781,0,0,0-1.1,1.1l1.8,1.8a.781.781,0,0,0,1.1,0l3.2-3.2a.781.781,0,1,0-1.105-1.105l-2.647,2.648Zm0,0" transform="translate(-320.813 -311.132)" fill="#29542a"/>
    <path id="Trazado_970165" data-name="Trazado 970165" d="M124.668,97.988h-3.75a.781.781,0,0,0-.781.781v2.344h-2.344a.781.781,0,0,0-.781.781v3.75a.781.781,0,0,0,.781.781h2.344v2.344a.781.781,0,0,0,.781.781h3.75a.781.781,0,0,0,.781-.781v-2.344h2.344a.781.781,0,0,0,.781-.781v-3.75a.782.782,0,0,0-.781-.781h-2.344V98.77A.782.782,0,0,0,124.668,97.988Zm2.344,4.688v2.188h-2.344a.781.781,0,0,0-.781.781v2.344H121.7v-2.344a.782.782,0,0,0-.781-.781h-2.344v-2.187h2.344a.781.781,0,0,0,.781-.781V99.551h2.187v2.344a.781.781,0,0,0,.781.781Zm0,0" transform="translate(-107.871 -90.333)" fill="#29542a"/>
    <path id="Trazado_970166" data-name="Trazado 970166" d="M.781,227.563a.781.781,0,1,0-.552-1.334.781.781,0,0,0,.552,1.334Zm0,0" transform="translate(-0.001 -208.344)" fill="#29542a"/>
  </g>
</svg>
