<svg xmlns="http://www.w3.org/2000/svg" width="110" height="110" viewBox="0 0 110 110">
  <g id="Grupo_1116119" data-name="Grupo 1116119" transform="translate(-1265.711 -2096)">
    <rect id="Rectángulo_416077" data-name="Rectángulo 416077" width="110" height="110" rx="10" transform="translate(1265.711 2096)" fill="#e8f3db"/>
    <g id="Grupo_1116118" data-name="Grupo 1116118" transform="translate(1274.711 2105)">
      <g id="Grupo_1116117" data-name="Grupo 1116117" transform="translate(10.065 10.065)">
        <path id="Trazado_957250" data-name="Trazado 957250" d="M59.243,16h58.606a.762.762,0,0,1,.761.761V80.922H58.482V16.761A.762.762,0,0,1,59.243,16Z" transform="translate(-52.016 -16)" fill="#f4f6f8" fill-rule="evenodd"/>
        <path id="Trazado_957251" data-name="Trazado 957251" d="M36,439.132h66.972v-5.571a.762.762,0,0,0-.761-.761H36.761a.762.762,0,0,0-.761.761v5.571Z" transform="translate(-32.956 -369.359)" fill="#e4e8eb" fill-rule="evenodd"/>
        <path id="Trazado_957252" data-name="Trazado 957252" d="M16.761,469.21H88.3a.762.762,0,0,0,.761-.761v-3.288a.762.762,0,0,0-.761-.761H16.761a.762.762,0,0,0-.761.761v3.288A.762.762,0,0,0,16.761,469.21Z" transform="translate(-16 -396.149)" fill="#cad0d7" fill-rule="evenodd"/>
        <path id="Trazado_957253" data-name="Trazado 957253" d="M31.761,100.316H98.733a.762.762,0,0,0,.761-.761V96.267a.762.762,0,0,0-.761-.761H31.761a.762.762,0,0,0-.761.761v3.288A.762.762,0,0,0,31.761,100.316Z" transform="translate(-28.717 -83.404)" fill="#e4e8eb" fill-rule="evenodd"/>
        <ellipse id="Elipse_13511" data-name="Elipse 13511" cx="10.235" cy="10.235" rx="10.235" ry="10.235" transform="matrix(0.999, -0.036, 0.036, 0.999, 25.929, 4.631)" fill="#f76c82"/>
        <path id="Trazado_957254" data-name="Trazado 957254" d="M221.549,72.808h3.622a.458.458,0,0,1,.457.457V76.4h3.135a.458.458,0,0,1,.457.457v3.622a.458.458,0,0,1-.457.457h-3.135v3.136a.458.458,0,0,1-.457.457h-3.622a.458.458,0,0,1-.457-.457V80.936h-3.136a.458.458,0,0,1-.457-.457V76.857a.458.458,0,0,1,.457-.457h3.136V73.265a.458.458,0,0,1,.457-.457Z" transform="translate(-186.83 -64.161)" fill="#f4f6f8" fill-rule="evenodd"/>
        <path id="Trazado_957255" data-name="Trazado 957255" d="M191.205,249.857H210.93V217.773a.762.762,0,0,0-.761-.761h-18.2a.762.762,0,0,0-.761.761v32.084Z" transform="translate(-164.537 -186.416)" fill="#d5a889" fill-rule="evenodd"/>
        <g id="Grupo_1116116" data-name="Grupo 1116116" transform="translate(11.149 30.596)">
          <path id="Trazado_957256" data-name="Trazado 957256" d="M352.318,235.057h9.315a.762.762,0,0,0,.761-.761V217.773a.762.762,0,0,0-.761-.761h-9.315a.762.762,0,0,0-.761.761V234.3A.763.763,0,0,0,352.318,235.057Z" transform="translate(-311.631 -217.012)" fill="#a4d4ff" fill-rule="evenodd"/>
          <path id="Trazado_957257" data-name="Trazado 957257" d="M90.006,235.057h9.315a.762.762,0,0,0,.761-.761V217.773a.762.762,0,0,0-.761-.761H90.006a.762.762,0,0,0-.761.761V234.3A.762.762,0,0,0,90.006,235.057Z" transform="translate(-89.245 -217.012)" fill="#a4d4ff" fill-rule="evenodd"/>
        </g>
      </g>
      <path id="Trazado_957258" data-name="Trazado 957258" d="M52.079,57.084a1.23,1.23,0,1,1,1.23,1.228A1.232,1.232,0,0,1,52.079,57.084Zm-21.092.557H22.28V41.727h8.706ZM32.052,39.6H21.215a1.066,1.066,0,0,0-1.066,1.066V58.708a1.065,1.065,0,0,0,1.066,1.065H32.052a1.066,1.066,0,0,0,1.065-1.065V40.661A1.066,1.066,0,0,0,32.052,39.6Zm30.155,2.131h8.706V57.642H62.207ZM61.141,59.773H71.978a1.066,1.066,0,0,0,1.065-1.065V40.661A1.066,1.066,0,0,0,71.978,39.6H61.141a1.067,1.067,0,0,0-1.066,1.066V58.708A1.066,1.066,0,0,0,61.141,59.773Zm-9.751-34H48.864A1.066,1.066,0,0,0,47.8,26.84v2.526H45.394V26.84a1.065,1.065,0,0,0-1.066-1.066H41.8v-2.4h2.527A1.065,1.065,0,0,0,45.394,22.3V19.778H47.8V22.3a1.066,1.066,0,0,0,1.065,1.066H51.39Zm-1.461-4.536V18.712a1.065,1.065,0,0,0-1.066-1.065H44.328a1.066,1.066,0,0,0-1.065,1.065v2.527H40.736A1.066,1.066,0,0,0,39.67,22.3V26.84a1.067,1.067,0,0,0,1.066,1.066h2.527v2.526A1.066,1.066,0,0,0,44.328,31.5h4.536a1.066,1.066,0,0,0,1.066-1.066V27.906h2.526a1.066,1.066,0,0,0,1.066-1.066V22.3a1.065,1.065,0,0,0-1.066-1.066ZM82.061,82.061H11.131V79.382h70.93ZM14.175,74.572H79.017v2.679H14.175Zm41.218-2.131V41.727H37.8V72.441Zm-37.8-44.4v44.4H35.669V40.661A1.066,1.066,0,0,1,36.735,39.6H56.459a1.066,1.066,0,0,1,1.065,1.066v31.78H75.6v-44.4H57.349a11.3,11.3,0,0,1-21.505,0Zm-4.183-4.81H35.378a11.039,11.039,0,0,0,0,2.679H13.414Zm42.351,1.339A9.169,9.169,0,1,0,46.6,33.741,9.179,9.179,0,0,0,55.765,24.572ZM17.6,11.131V21.1H35.844a11.3,11.3,0,0,1,21.505,0H75.6V11.131ZM79.777,25.912H57.814a10.94,10.94,0,0,0,0-2.679H79.777Zm3.349,51.339H81.148V73.506a1.064,1.064,0,0,0-1.066-1.065H77.726v-44.4h3.117a1.064,1.064,0,0,0,1.065-1.066v-4.81A1.064,1.064,0,0,0,80.843,21.1H77.726V10.066A1.066,1.066,0,0,0,76.66,9H16.532a1.066,1.066,0,0,0-1.066,1.066V21.1H12.348a1.066,1.066,0,0,0-1.065,1.065v4.81a1.066,1.066,0,0,0,1.065,1.066h3.118v44.4H13.11a1.066,1.066,0,0,0-1.066,1.065v3.745H10.066A1.065,1.065,0,0,0,9,78.316v4.81a1.066,1.066,0,0,0,1.066,1.065H83.126a1.064,1.064,0,0,0,1.065-1.065v-4.81a1.064,1.064,0,0,0-1.065-1.065Z" fill-rule="evenodd"/>
    </g>
  </g>
</svg>
