<svg xmlns="http://www.w3.org/2000/svg" width="120" height="120" viewBox="0 0 120 120">
  <g id="Grupo_1117938" data-name="Grupo 1117938" transform="translate(-1081.711 -7215)">
    <rect id="Rectángulo_416006" data-name="Rectángulo 416006" width="120" height="120" transform="translate(1081.711 7215)" fill="#8bc34a"/>
    <g id="Grupo_1118940" data-name="Grupo 1118940" transform="translate(1065.261 7235)">
      <g id="Grupo_1118938" data-name="Grupo 1118938" transform="translate(44.627 1.177)">
        <g id="Grupo_1118937" data-name="Grupo 1118937" transform="translate(0)">
          <path id="Trazado_969314" data-name="Trazado 969314" d="M115.335,10.247V82.781l-55.22-5.415-9.166-.9V16.5a9.119,9.119,0,0,1,9.166-9h52.472a2.75,2.75,0,0,1,2.747,2.747Z" transform="translate(-50.95 -7.5)" fill="#b78b7a"/>
          <path id="Trazado_969315" data-name="Trazado 969315" d="M60.116,7.5V77.366l-9.166-.9V16.5a9.119,9.119,0,0,1,9.166-9Z" transform="translate(-50.95 -7.5)" fill="#aa7a63"/>
          <path id="Trazado_969316" data-name="Trazado 969316" d="M75.69,406.23h55.077v12.681H75.69Z" transform="translate(-71.806 -343.63)" fill="#f9f6f9"/>
          <path id="Trazado_969317" data-name="Trazado 969317" d="M75.69,406.23h55.077v6.4H75.69Z" transform="translate(-71.806 -343.63)" fill="#dddaec"/>
          <path id="Trazado_969318" data-name="Trazado 969318" d="M56.447,398.606a3.594,3.594,0,0,0,3.621,3.4h52.519a2.747,2.747,0,0,1,0,5.495h-52.6a9.032,9.032,0,0,1-9.034-9.06,9.119,9.119,0,0,1,9.166-9h52.472a2.747,2.747,0,0,1,0,5.495h-52.6A3.541,3.541,0,0,0,56.447,398.606Z" transform="translate(-50.95 -329.476)" fill="#aa7a63"/>
          <g id="Grupo_1118935" data-name="Grupo 1118935" transform="translate(0 8.146)">
            <path id="Trazado_969319" data-name="Trazado 969319" d="M60.116,286.271a9.119,9.119,0,0,0-9.166,9v8.036a9.119,9.119,0,0,1,9.166-9Z" transform="translate(-50.95 -250.65)" fill="#ffe07d"/>
            <path id="Trazado_969320" data-name="Trazado 969320" d="M60.116,59.384a9.119,9.119,0,0,0-9.166,9v8.036a9.119,9.119,0,0,1,9.166-9Z" transform="translate(-50.95 -59.384)" fill="#ffe07d"/>
            <path id="Trazado_969321" data-name="Trazado 969321" d="M250.072,80.265l1.249,2.531a1.377,1.377,0,0,0,1.037.753l2.793.406a1.377,1.377,0,0,1,.763,2.349l-2.021,1.97a1.378,1.378,0,0,0-.4,1.219l.477,2.782a1.377,1.377,0,0,1-2,1.452l-2.5-1.314a1.377,1.377,0,0,0-1.282,0l-2.5,1.314a1.377,1.377,0,0,1-2-1.452l.477-2.782a1.377,1.377,0,0,0-.4-1.219L241.76,86.3a1.377,1.377,0,0,1,.763-2.349l2.793-.406a1.377,1.377,0,0,0,1.037-.753l1.249-2.531a1.377,1.377,0,0,1,2.47,0Z" transform="translate(-211.451 -76.34)" fill="#ffe07d"/>
          </g>
          <g id="Grupo_1118936" data-name="Grupo 1118936" transform="translate(23.66 19.237)">
            <path id="Trazado_969322" data-name="Trazado 969322" d="M271.1,178.88v12.547l-15.356,18.562-2.335,1.948H235.72L247.085,198.3Z" transform="translate(-230.371 -171.211)" fill="#1254c5"/>
            <path id="Trazado_969323" data-name="Trazado 969323" d="M339.253,244.95v8.776l-13.909,13.909H316.57Z" transform="translate(-298.528 -226.908)" fill="#f22f40"/>
            <path id="Trazado_969324" data-name="Trazado 969324" d="M242.376,130.03v8.776l-31.949,31.951H201.65Z" transform="translate(-201.65 -130.03)" fill="#ffd710"/>
          </g>
        </g>
      </g>
      <g id="Grupo_1118939" data-name="Grupo 1118939" transform="translate(43.45 0)">
        <path id="Trazado_969325" data-name="Trazado 969325" d="M233.967,78.207a2.538,2.538,0,0,0,.647,2.619l2.021,1.97a.2.2,0,0,1,.057.177l-.477,2.782a2.551,2.551,0,0,0,3.707,2.693l2.5-1.314a.2.2,0,0,1,.186,0l2.5,1.314a2.555,2.555,0,0,0,3.707-2.693l-.477-2.782a.2.2,0,0,1,.057-.177l2.021-1.97A2.555,2.555,0,0,0,249,76.468l-2.793-.406a.2.2,0,0,1-.15-.109L244.8,73.422a2.555,2.555,0,0,0-4.582,0l-1.249,2.531a.2.2,0,0,1-.15.109l-2.793.406a2.539,2.539,0,0,0-2.062,1.739Zm2.24.728a.185.185,0,0,1,.161-.136l2.793-.406a2.555,2.555,0,0,0,1.924-1.4l1.249-2.531a.2.2,0,0,1,.358,0L243.942,77a2.554,2.554,0,0,0,1.923,1.4l2.793.406a.2.2,0,0,1,.111.34l-2.021,1.97a2.554,2.554,0,0,0-.735,2.261l.477,2.782a.2.2,0,0,1-.29.21l-2.5-1.313a2.554,2.554,0,0,0-2.378,0l-2.5,1.314a.2.2,0,0,1-.29-.21l.477-2.782a2.554,2.554,0,0,0-.735-2.261l-2.021-1.97A.185.185,0,0,1,236.207,78.935Z" transform="translate(-203.949 -60.694)"/>
        <path id="Trazado_969326" data-name="Trazado 969326" d="M110.19,3.925A3.927,3.927,0,0,0,106.265,0H53.793A10.3,10.3,0,0,0,43.45,10.181V32.075a1.177,1.177,0,0,0,2.355,0V26.367a7.916,7.916,0,0,1,6.811-7.745V43.835A10.38,10.38,0,0,0,45.8,47.5V36.785a1.177,1.177,0,1,0-2.355,0V70.148A10.21,10.21,0,0,0,53.661,80.384h52.6a3.929,3.929,0,0,0,3.925-3.925Zm-2.355,42.82L94.617,59.964H89.171L107.835,41.3Zm0,3.331V60.293a3.9,3.9,0,0,0-1.57-.329H97.947Zm0-12.107-22,22H79.9l22.882-22.882a1.177,1.177,0,0,0-1.665-1.665L76.574,59.964H71.129l36.707-36.707V28.7l-3.384,3.384a1.178,1.178,0,0,0,1.665,1.665l1.719-1.719Zm-6.28-11.762L92.112,35.65H66.951a1.177,1.177,0,0,0,0,2.355H89.757l-3.512,3.512H72.095a1.177,1.177,0,1,0,0,2.355h11.8l-9.812,9.812H63.571a2.322,2.322,0,0,1-2.32-2.319V10.954a2.322,2.322,0,0,1,2.32-2.319H99.237a2.322,2.322,0,0,1,2.319,2.319Zm5.819-23.391a1.559,1.559,0,0,1,.461,1.11v16l-3.925,3.925v-12.9A4.679,4.679,0,0,0,99.237,6.28H63.571A4.68,4.68,0,0,0,58.9,10.954V51.365a4.68,4.68,0,0,0,4.675,4.674h8.152L67.8,59.964H54.971V2.355h51.294a1.554,1.554,0,0,1,1.109.46ZM45.8,10.185a7.916,7.916,0,0,1,6.811-7.744V8.214A10.38,10.38,0,0,0,45.8,11.882Zm0,9.731V18.331a7.916,7.916,0,0,1,6.811-7.745v5.661A10.383,10.383,0,0,0,45.8,19.916Zm6.811,26.291v5.661A10.384,10.384,0,0,0,45.8,55.537V53.953A7.916,7.916,0,0,1,52.616,46.207ZM45.8,61.988a7.916,7.916,0,0,1,6.811-7.745v5.789A10.382,10.382,0,0,0,45.8,63.7Zm60.46,16.041h-52.6A7.855,7.855,0,0,1,45.8,70.15a7.936,7.936,0,0,1,7.989-7.831h52.472a1.57,1.57,0,0,1,0,3.14h-52.6a4.719,4.719,0,0,0-4.713,4.892,4.743,4.743,0,0,0,4.8,4.537h52.519a1.57,1.57,0,1,1,0,3.14ZM53.746,72.534a2.426,2.426,0,0,1-2.444-2.27,2.363,2.363,0,0,1,2.36-2.45H102.41v4.719Zm51.019-4.719h1.5a3.9,3.9,0,0,0,1.57-.329v5.377a3.9,3.9,0,0,0-1.57-.329h-1.5Z" transform="translate(-43.45 0)"/>
        <path id="Trazado_969327" data-name="Trazado 969327" d="M225.254,68.74a1.177,1.177,0,0,0,0,1.665,10.978,10.978,0,1,1-15.525,0,1.177,1.177,0,1,0-1.665-1.665,13.333,13.333,0,1,0,18.856,0,1.178,1.178,0,0,0-1.665,0Z" transform="translate(-178.927 -57.657)"/>
      </g>
    </g>
  </g>
</svg>
