<svg xmlns="http://www.w3.org/2000/svg" width="120" height="120" viewBox="0 0 120 120">
  <g id="Grupo_1118039" data-name="Grupo 1118039" transform="translate(-64 -6445)">
    <rect id="Rect치ngulo_402033" data-name="Rect치ngulo 402033" width="120" height="120" rx="8" transform="translate(64 6445)" fill="#0042db"/>
    <g id="Rect치ngulo_412110" data-name="Rect치ngulo 412110" transform="translate(69 6450)" fill="none" stroke="#fff" stroke-width="1">
      <rect width="110" height="110" rx="6" stroke="none"/>
      <rect x="0.5" y="0.5" width="109" height="109" rx="5.5" fill="none"/>
    </g>
    <g id="XMLID_1020_" transform="translate(90.081 6471.082)">
      <g id="XMLID_1910_" transform="translate(1.325 1.373)">
        <circle id="XMLID_1515_" cx="32.609" cy="32.609" r="32.609" transform="translate(0.048 0)" fill="#80b6ff"/>
        <g id="Grupo_1121409" data-name="Grupo 1121409" transform="translate(0 7.216)">
          <path id="XMLID_1106_" d="M22.634,103.621H17.005A32.454,32.454,0,0,0,10,123.81a32.869,32.869,0,0,0,.313,4.517h.106a11.742,11.742,0,0,0,11.209-8.246,11.742,11.742,0,0,1,4.221-5.939l.207-.154a5.748,5.748,0,0,0-3.421-10.368Z" transform="translate(-10 -98.48)" fill="#89df8f"/>
          <path id="XMLID_1674_" d="M326.255,74.764a9.941,9.941,0,0,0,4.556,8.356l3.447,2.221a6.392,6.392,0,0,1,.342,10.51,6.451,6.451,0,0,0-2.611,5.184,4.755,4.755,0,0,0,4.755,4.755h8.806a32.606,32.606,0,0,0-8.093-40.967H336.2A9.941,9.941,0,0,0,326.255,74.764Z" transform="translate(-284.353 -64.823)" fill="#89df8f"/>
        </g>
      </g>
      <path id="XMLID_1821_" d="M102.866,345.586h0A10.864,10.864,0,0,0,92,356.45v6.683H113.73V356.45a10.864,10.864,0,0,0-10.864-10.864Z" transform="translate(-79.811 -299.798)" fill="#c5d3de"/>
      <path id="XMLID_1820_" d="M143.7,266.579h0a4.628,4.628,0,0,0-4.628,4.628v1.1a4.628,4.628,0,0,0,4.628,4.628h0a4.628,4.628,0,0,0,4.628-4.628v-1.1A4.628,4.628,0,0,0,143.7,266.579Z" transform="translate(-120.646 -231.259)" fill="#f2b394"/>
      <path id="XMLID_1824_" d="M266.866,345.586h0a10.864,10.864,0,0,1,10.864,10.864v6.683H256V356.45A10.864,10.864,0,0,1,266.866,345.586Z" transform="translate(-222.083 -299.798)" fill="#ffcd69"/>
      <path id="XMLID_1823_" d="M307.7,266.579h0a4.628,4.628,0,0,1,4.628,4.628v1.1a4.628,4.628,0,0,1-4.628,4.628h0a4.628,4.628,0,0,1-4.628-4.628v-1.1A4.628,4.628,0,0,1,307.7,266.579Z" transform="translate(-262.919 -231.259)" fill="#f2b394"/>
      <path id="XMLID_1807_" d="M20.865,420h0A10.864,10.864,0,0,0,10,430.864H31.729A10.864,10.864,0,0,0,20.865,420Z" transform="translate(-8.675 -364.352)" fill="#ffcd69"/>
      <path id="XMLID_1806_" d="M61.7,340.993h0a4.628,4.628,0,0,0-4.628,4.628v1.1a4.628,4.628,0,0,0,4.628,4.628h0a4.628,4.628,0,0,0,4.628-4.628v-1.1A4.628,4.628,0,0,0,61.7,340.993Z" transform="translate(-49.51 -295.813)" fill="#f5c6af"/>
      <path id="XMLID_1812_" d="M184.865,420h0A10.864,10.864,0,0,0,174,430.864h21.729A10.864,10.864,0,0,0,184.865,420Z" transform="translate(-150.946 -364.352)" fill="#ff7d97"/>
      <path id="XMLID_1811_" d="M225.7,340.993h0a4.628,4.628,0,0,0-4.628,4.628v1.1a4.628,4.628,0,0,0,4.628,4.628h0a4.628,4.628,0,0,0,4.628-4.628v-1.1A4.628,4.628,0,0,0,225.7,340.993Z" transform="translate(-191.781 -295.813)" fill="#f2b394"/>
      <path id="XMLID_1816_" d="M348.865,420h0A10.864,10.864,0,0,0,338,430.864h21.729A10.864,10.864,0,0,0,348.865,420Z" transform="translate(-293.217 -364.352)" fill="#c5d3de"/>
      <path id="XMLID_1815_" d="M389.7,340.993h0a4.628,4.628,0,0,0-4.628,4.628v1.1a4.628,4.628,0,0,0,4.628,4.628h0a4.628,4.628,0,0,0,4.628-4.628v-1.1A4.628,4.628,0,0,0,389.7,340.993Z" transform="translate(-334.052 -295.813)" fill="#f5c6af"/>
      <path id="XMLID_1906_" d="M198.714,139.565a5.187,5.187,0,0,0,5.323,1.13,5.921,5.921,0,0,0,3.93-5.576V132.59a4.59,4.59,0,0,0-8.613-2.207l-1.609,2.933a5.187,5.187,0,0,0,.969,6.25Z" transform="translate(-170.989 -111.041)" fill="#89df8f"/>
      <g id="XMLID_4_" transform="translate(0 0)">
        <path id="XMLID_768_" d="M60.295,55.244a33.979,33.979,0,0,0,6.229-30.7,1.325,1.325,0,0,0-2.547.731,31.357,31.357,0,0,1-2.486,23.4,5.962,5.962,0,0,0-5.842-4.816h0a5.944,5.944,0,0,0-4.686,2.289c-.168-.1-.337-.2-.509-.286a3.42,3.42,0,0,1-.167-1.058,5.147,5.147,0,0,1,2.075-4.119,7.717,7.717,0,0,0-.413-12.688L48.5,25.771A8.616,8.616,0,0,1,53.168,9.913h.807a31.748,31.748,0,0,1,4.88,5.136,1.325,1.325,0,1,0,2.112-1.6,34.227,34.227,0,0,0-11.7-9.788A33.925,33.925,0,0,0,0,33.919,33.832,33.832,0,0,0,7.544,55.243,12.208,12.208,0,0,0,0,66.512a1.325,1.325,0,0,0,1.325,1.325H66.512a1.325,1.325,0,0,0,1.325-1.325,12.208,12.208,0,0,0-7.543-11.268Zm-44.8-5.437v1.1a3.3,3.3,0,0,1-6.606,0v-1.1a3.306,3.306,0,0,1,3.3-3.3h0A3.306,3.306,0,0,1,15.492,49.807Zm2.65,1.1v-1.1a5.95,5.95,0,0,0-.134-1.252,9.544,9.544,0,0,1,10.091,0,5.949,5.949,0,0,0-.134,1.252v1.1a5.932,5.932,0,0,0,1.712,4.172,12.259,12.259,0,0,0-6.624,5.9,12.259,12.259,0,0,0-6.624-5.9,5.932,5.932,0,0,0,1.712-4.172Zm8.215-9.859a3.3,3.3,0,0,1-6.606,0v-1.1a3.306,3.306,0,0,1,3.3-3.3h0a3.306,3.306,0,0,1,3.3,3.3Zm10.865,8.755v1.1a3.3,3.3,0,0,1-6.606,0v-1.1a3.306,3.306,0,0,1,3.3-3.3h0A3.306,3.306,0,0,1,37.221,49.807Zm2.65,1.1v-1.1a5.955,5.955,0,0,0-.133-1.251,9.546,9.546,0,0,1,10.091,0,5.95,5.95,0,0,0-.134,1.253v1.1a5.932,5.932,0,0,0,1.712,4.172,12.259,12.259,0,0,0-6.624,5.9,12.259,12.259,0,0,0-6.624-5.9,5.932,5.932,0,0,0,1.712-4.172Zm8.215-9.859a3.3,3.3,0,0,1-6.606,0v-1.1a3.306,3.306,0,0,1,3.3-3.3h0a3.306,3.306,0,0,1,3.3,3.3v1.1ZM55.648,46.5h0a3.306,3.306,0,0,1,3.3,3.3v1.1a3.3,3.3,0,0,1-6.606,0v-1.1A3.306,3.306,0,0,1,55.648,46.5ZM33.919,2.65A31.085,31.085,0,0,1,50.734,7.531,11.264,11.264,0,0,0,47.065,28l3.447,2.222a5.067,5.067,0,0,1,.271,8.331c-.062.046-.121.1-.181.143A5.962,5.962,0,0,0,44.784,34h0a5.959,5.959,0,0,0-5.952,5.953v1.1a5.932,5.932,0,0,0,1.709,4.169,12.028,12.028,0,0,0-1.936.921,5.944,5.944,0,0,0-4.685-2.288h0a5.944,5.944,0,0,0-4.685,2.288,12.045,12.045,0,0,0-1.935-.921,5.932,5.932,0,0,0,1.709-4.169v-1.1A5.959,5.959,0,0,0,23.055,34h0A5.959,5.959,0,0,0,17.1,39.948v1.1a5.932,5.932,0,0,0,1.709,4.169,12.034,12.034,0,0,0-1.935.921,5.944,5.944,0,0,0-4.685-2.288h0a5.962,5.962,0,0,0-5.843,4.818A31.15,31.15,0,0,1,3.182,39.68a12.965,12.965,0,0,0,6.3-2.461,12.98,12.98,0,0,0,4.731-6.635,10.351,10.351,0,0,1,3.745-5.269l.207-.153A7.073,7.073,0,0,0,13.96,12.4H11.249A31.184,31.184,0,0,1,33.919,2.65ZM9,15.054h4.961a4.423,4.423,0,0,1,2.632,7.978l-.207.153a12.982,12.982,0,0,0-4.7,6.61,10.364,10.364,0,0,1-8.88,7.26Q2.652,35.5,2.65,33.919A31.107,31.107,0,0,1,9,15.054ZM2.741,65.187a9.554,9.554,0,0,1,9.448-8.215h0a9.554,9.554,0,0,1,9.447,8.215Zm21.729,0a9.554,9.554,0,0,1,9.448-8.215h0a9.554,9.554,0,0,1,9.447,8.215Zm21.729,0a9.554,9.554,0,0,1,9.448-8.215h0A9.554,9.554,0,0,1,65.1,65.187Z" transform="translate(0 0)"/>
        <path id="XMLID_1169_" d="M189.135,131.849a6.484,6.484,0,0,0,6.683,1.418,7.262,7.262,0,0,0,4.809-6.824v-2.529a5.915,5.915,0,0,0-11.1-2.845L187.918,124A6.519,6.519,0,0,0,189.135,131.849Zm1.106-6.572,1.609-2.933a3.265,3.265,0,0,1,6.127,1.57v2.529a4.606,4.606,0,0,1-3.05,4.329,3.862,3.862,0,0,1-4.685-5.5Z" transform="translate(-162.324 -102.366)"/>
        <path id="XMLID_1178_" d="M467.445,138.7a1.325,1.325,0,1,0-.937-.388A1.335,1.335,0,0,0,467.445,138.7Z" transform="translate(-404.362 -118.024)"/>
      </g>
    </g>
  </g>
</svg>
