<svg xmlns="http://www.w3.org/2000/svg" width="120" height="120" viewBox="0 0 120 120">
  <g id="Grupo_1118032" data-name="Grupo 1118032" transform="translate(-64 -6445)">
    <rect id="Rect치ngulo_402033" data-name="Rect치ngulo 402033" width="120" height="120" rx="8" transform="translate(64 6445)" fill="#0042db"/>
    <g id="Rect치ngulo_412110" data-name="Rect치ngulo 412110" transform="translate(69 6450)" fill="none" stroke="#fff" stroke-width="1">
      <rect width="110" height="110" rx="6" stroke="none"/>
      <rect x="0.5" y="0.5" width="109" height="109" rx="5.5" fill="none"/>
    </g>
    <g id="Grupo_1121408" data-name="Grupo 1121408" transform="translate(82.587 6463.511)">
      <path id="Trazado_974417" data-name="Trazado 974417" d="M60.558,51.625a25.573,25.573,0,0,1-9.5-1.83l-.112-.045a10.511,10.511,0,0,0-3.9-.751H30.088a10.5,10.5,0,0,0-3.9.751l-.112.045a25.58,25.58,0,0,1-9.5,1.83H11v6.563h6.351a25.593,25.593,0,0,0,8.089-1.313v9.189H51.693V56.876a25.593,25.593,0,0,0,8.089,1.313h6.351V51.625Z" transform="translate(2.814 14.696)" fill="#eaeaea"/>
      <path id="Trazado_974418" data-name="Trazado 974418" d="M32.938,49,29,58.189l3.938,5.251,3.938-5.251Z" transform="translate(8.443 14.696)" fill="#999"/>
      <g id="Grupo_1121407" data-name="Grupo 1121407" transform="translate(7.251 40.068)">
        <path id="Trazado_974419" data-name="Trazado 974419" d="M58.423,52H53v3.938h3.143a3.936,3.936,0,0,0,3.276-1.754l.1-.143A1.312,1.312,0,0,0,58.423,52Z" transform="translate(8.696 -24.434)" fill="#ffd6a8"/>
        <path id="Trazado_974420" data-name="Trazado 974420" d="M6.223,54.041l.1.143A3.936,3.936,0,0,0,9.6,55.938h3.143V52H7.315A1.313,1.313,0,0,0,6.223,54.041Z" transform="translate(-6 -24.434)" fill="#ffd6a8"/>
        <ellipse id="Elipse_13704" data-name="Elipse 13704" cx="12" cy="11.5" rx="12" ry="11.5" transform="translate(22.129 0.312)" fill="#ffd6a8"/>
      </g>
      <path id="Trazado_974421" data-name="Trazado 974421" d="M45.814,39.939l.345.014a11.8,11.8,0,0,0-22.822-.308,19.612,19.612,0,0,1,22.477.294Z" transform="translate(6.672 9.068)" fill="#999"/>
      <circle id="Elipse_13705" data-name="Elipse 13705" cx="12" cy="12" r="12" transform="translate(29.381 3.381)" fill="#a7dbfc"/>
      <path id="Trazado_974422" data-name="Trazado 974422" d="M33.5,7.65H30.876L28.251,5.024l-.718-.1a11.749,11.749,0,0,0-3.846,13.229h.626l5.251-3.938h2.625l2.625-2.625Z" transform="translate(6.566 0.914)" fill="#63bc94"/>
      <path id="Trazado_974423" data-name="Trazado 974423" d="M36.625,8.586v3.938L34,16.462l7.876,2.625.084-.028A11.752,11.752,0,0,0,40.314,6.127Z" transform="translate(10.006 1.29)" fill="#63bc94"/>
      <path id="Trazado_974424" data-name="Trazado 974424" d="M33.819,22.563a12.046,12.046,0,0,0,1.294-.074l-1.294-5.177L31.193,16l-5.009,3.757A11.761,11.761,0,0,0,33.819,22.563Z" transform="translate(7.562 4.378)" fill="#63bc94"/>
      <ellipse id="Elipse_13706" data-name="Elipse 13706" cx="12" cy="11.5" rx="12" ry="11.5" transform="translate(55.381 23.381)" fill="#a7dbfc"/>
      <path id="Trazado_974425" data-name="Trazado 974425" d="M57.273,24.669a3.913,3.913,0,0,0-7.419,0,3.274,3.274,0,0,0,.428,6.52h6.563a3.274,3.274,0,0,0,.428-6.52Z" transform="translate(14.071 6.254)" fill="#63bc94"/>
      <ellipse id="Elipse_13707" data-name="Elipse 13707" cx="12" cy="11.5" rx="12" ry="11.5" transform="translate(3.381 23.381)" fill="#a7dbfc"/>
      <circle id="Elipse_13708" data-name="Elipse 13708" cx="4" cy="4" r="4" transform="translate(11.381 28.381)" fill="#ffd6a8"/>
      <path id="Trazado_974426" data-name="Trazado 974426" d="M14.876,28H12.251A5.251,5.251,0,0,0,7,33.251v3.258a11.806,11.806,0,0,0,13.127,0V33.251A5.251,5.251,0,0,0,14.876,28Z" transform="translate(1.563 8.13)" fill="#eaeaea"/>
      <path id="Trazado_974427" data-name="Trazado 974427" d="M32.876,39H30.251a1.313,1.313,0,0,1-2.625,0H25a3.938,3.938,0,0,0,7.876,0Z" transform="translate(7.192 11.569)"/>
      <path id="Trazado_974428" data-name="Trazado 974428" d="M36.938,42.938A3.943,3.943,0,0,0,40.876,39H38.251a1.313,1.313,0,1,1-2.625,0H33A3.943,3.943,0,0,0,36.938,42.938Z" transform="translate(9.693 11.569)"/>
      <path id="Trazado_974429" data-name="Trazado 974429" d="M28.628,72.006V62.817A1.313,1.313,0,0,0,26.9,61.571a24.224,24.224,0,0,1-7.674,1.246H14.189V58.879h4.262a26.94,26.94,0,0,0,10.1-1.968,9.137,9.137,0,0,1,3.414-.658h6.489L35.3,63.613a1.311,1.311,0,0,0,.156,1.3l3.938,5.251a1.313,1.313,0,0,0,2.1,0l3.938-5.251a1.311,1.311,0,0,0,.156-1.3l-3.154-7.359h6.489a9.306,9.306,0,0,1,3.526.7,26.78,26.78,0,0,0,9.987,1.923H66.7v3.938H61.658a24.224,24.224,0,0,1-7.674-1.246,1.313,1.313,0,0,0-1.727,1.246v9.189h2.625V64.575a26.84,26.84,0,0,0,6.776.868h6.351a1.312,1.312,0,0,0,1.313-1.313h1.831a5.242,5.242,0,0,0,4.367-2.335l.1-.147a2.625,2.625,0,0,0-2.184-4.081H69.322a1.312,1.312,0,0,0-1.313-1.313H62.434a24.337,24.337,0,0,1-9.124-1.78,11.781,11.781,0,0,0-4.388-.845h-.637A13.117,13.117,0,1,0,27.942,39.134c-.026.02-.055.035-.083.055l.042.059a13.092,13.092,0,0,0,4.7,14.38h-.637a11.946,11.946,0,0,0-4.5.89,24.177,24.177,0,0,1-9.013,1.735H12.876a1.312,1.312,0,0,0-1.313,1.313H7.628a2.625,2.625,0,0,0-2.187,4.077l.1.148A5.242,5.242,0,0,0,9.907,64.13h1.657a1.312,1.312,0,0,0,1.313,1.313h6.351A26.833,26.833,0,0,0,26,64.575v7.431ZM69.322,60.192h4.113l-.1.146A2.624,2.624,0,0,1,71.153,61.5H69.322ZM42.876,63.949l-2.434,3.244-2.434-3.244,2.434-5.675ZM40.442,32.625a10.5,10.5,0,0,1,8.75,4.709,20.991,20.991,0,0,0-17.149-.486A10.481,10.481,0,0,1,40.442,32.625Zm-10.5,10.5a10.472,10.472,0,0,1,.276-2.355,18.3,18.3,0,0,1,20.559.542,10.5,10.5,0,1,1-20.835,1.813ZM11.563,61.5H9.907A2.62,2.62,0,0,1,7.725,60.34l-.1-.148h3.935Z" transform="translate(0.938 8.755)"/>
      <path id="Trazado_974430" data-name="Trazado 974430" d="M35.127,28.254A13.127,13.127,0,1,0,22,15.127,13.142,13.142,0,0,0,35.127,28.254Zm-5.414-4.145,2.926-2.193,1.36.68.753,3.015A10.417,10.417,0,0,1,29.713,24.108Zm15.915-8.981a10.442,10.442,0,0,1-.666,3.645L39.8,17.051l1.671-2.509a1.32,1.32,0,0,0,.221-.729V10.578l2.087-1.391a10.43,10.43,0,0,1,1.851,5.94Zm-21,0a10.467,10.467,0,0,1,3.483-7.788l2.153,2.153a1.307,1.307,0,0,0,.928.385h1.679l.756,2.271-1.666,1.667H29.876a1.309,1.309,0,0,0-.788.263L24.843,17.26a10.574,10.574,0,0,1-.218-2.133Zm5.688,1.313H32.5a1.307,1.307,0,0,0,.928-.385l2.625-2.625a1.311,1.311,0,0,0,.316-1.343L35.059,8.149a1.31,1.31,0,0,0-1.244-.9H31.732L30.295,5.813a10.433,10.433,0,0,1,11.712,1.4L39.649,8.784a1.314,1.314,0,0,0-.584,1.092v3.54l-2.4,3.607A1.312,1.312,0,0,0,37.337,19l6.394,2.132A10.516,10.516,0,0,1,37.4,25.372l-1-4a1.314,1.314,0,0,0-.685-.856L33.09,19.2a1.314,1.314,0,0,0-1.374.125l-4.126,3.094a10.562,10.562,0,0,1-1.827-2.569Z" transform="translate(6.254)"/>
      <path id="Trazado_974431" data-name="Trazado 974431" d="M7.251,40.6v.025h.034a13.025,13.025,0,0,0,15.684,0H23V40.6a13.127,13.127,0,1,0-15.752,0Zm13.127-1.4a10.416,10.416,0,0,1-10.5,0V36.69a3.943,3.943,0,0,1,3.938-3.938H16.44a3.943,3.943,0,0,1,3.938,3.938ZM12.5,27.5a2.625,2.625,0,1,1,2.625,2.625A2.628,2.628,0,0,1,12.5,27.5Zm2.625-7.876A10.485,10.485,0,0,1,23,37.05v-.36a6.557,6.557,0,0,0-3.792-5.928,5.251,5.251,0,1,0-8.168,0A6.557,6.557,0,0,0,7.251,36.69v.36a10.485,10.485,0,0,1,7.876-17.425Z" transform="translate(0 4.69)"/>
      <path id="Trazado_974432" data-name="Trazado 974432" d="M55.127,43.254A13.127,13.127,0,1,0,42,30.127,13.142,13.142,0,0,0,55.127,43.254Zm0-23.628a10.5,10.5,0,1,1-10.5,10.5A10.514,10.514,0,0,1,55.127,19.625Z" transform="translate(12.507 4.69)"/>
      <path id="Trazado_974433" data-name="Trazado 974433" d="M50.594,32.814h1.969v3.938h2.625V32.814h1.969a4.586,4.586,0,0,0,1.37-8.966,5.223,5.223,0,0,0-9.3,0,4.586,4.586,0,0,0,1.37,8.966Zm-.256-6.532a1.31,1.31,0,0,0,1.07-.876,2.6,2.6,0,0,1,4.936,0,1.31,1.31,0,0,0,1.07.876,1.962,1.962,0,0,1-.256,3.908H50.594a1.961,1.961,0,0,1-.256-3.907Z" transform="translate(13.758 5.941)"/>
      <path id="Trazado_974434" data-name="Trazado 974434" d="M55,47h2.625v2.625H55Z" transform="translate(16.572 14.071)"/>
      <path id="Trazado_974435" data-name="Trazado 974435" d="M55,43h2.625v2.625H55Z" transform="translate(16.572 12.82)"/>
      <path id="Trazado_974436" data-name="Trazado 974436" d="M55,39h2.625v2.625H55Z" transform="translate(16.572 11.569)"/>
      <path id="Trazado_974437" data-name="Trazado 974437" d="M7,47H9.625v2.625H7Z" transform="translate(1.563 14.071)"/>
      <path id="Trazado_974438" data-name="Trazado 974438" d="M7,43H9.625v2.625H7Z" transform="translate(1.563 12.82)"/>
      <path id="Trazado_974439" data-name="Trazado 974439" d="M7,39H9.625v2.625H7Z" transform="translate(1.563 11.569)"/>
    </g>
  </g>
</svg>
