<svg xmlns="http://www.w3.org/2000/svg" width="85" height="85" viewBox="0 0 85 85">
  <g id="Grupo_1116002" data-name="Grupo 1116002" transform="translate(-704.668 -6155)">
    <rect id="Rectángulo_402033" data-name="Rectángulo 402033" width="85" height="85" rx="8" transform="translate(704.668 6155)" fill="#0042db"/>
    <g id="Grupo_1119466" data-name="Grupo 1119466" transform="translate(717.851 6168.183)">
      <g id="Grupo_1119465" data-name="Grupo 1119465" transform="translate(0.859 0.859)">
        <g id="Grupo_1119463" data-name="Grupo 1119463">
          <path id="Trazado_971168" data-name="Trazado 971168" d="M192.4,158.962a3.464,3.464,0,0,0-2.624-3.429l-3.424-1.052a3.4,3.4,0,1,1-6.8,0l-3.424,1.052a3.465,3.465,0,0,0-2.624,3.429v7.145h18.9Z" transform="translate(-154.49 -137.649)" fill="#acc5e3" fill-rule="evenodd"/>
          <path id="Trazado_971169" data-name="Trazado 971169" d="M229.714,136.833a3.4,3.4,0,0,0,3.4-3.4l-.753-2.722a6.264,6.264,0,0,1-5.294,0l-.753,2.722A3.4,3.4,0,0,0,229.714,136.833Z" transform="translate(-201.255 -116.601)" fill="#fbdfba" fill-rule="evenodd"/>
          <path id="Trazado_971170" data-name="Trazado 971170" d="M207.3,62.782a6.317,6.317,0,0,0,6.3-6.3,3.159,3.159,0,0,0-3.149-3.149h-6.3A3.159,3.159,0,0,0,201,56.483,6.317,6.317,0,0,0,207.3,62.782Z" transform="translate(-178.84 -48.085)" fill="#fbf2e1" fill-rule="evenodd"/>
          <path id="Trazado_971171" data-name="Trazado 971171" d="M204.149,12.75h6.3A3.159,3.159,0,0,1,213.6,15.9V13.8a6.3,6.3,0,0,0-12.6,0v2.1A3.159,3.159,0,0,1,204.149,12.75Z" transform="translate(-178.84 -7.501)" fill="#fdef8e" fill-rule="evenodd"/>
          <path id="Trazado_971172" data-name="Trazado 971172" d="M53.96,182.625a2.835,2.835,0,0,0-2.147-2.806l-2.8-.861a2.781,2.781,0,0,1-5.563,0l-2.8.861a2.835,2.835,0,0,0-2.147,2.806v5.156H53.96Z" transform="translate(-34.95 -159.324)" fill="#fdef8e" fill-rule="evenodd"/>
          <path id="Trazado_971173" data-name="Trazado 971173" d="M66.153,103.932a5.169,5.169,0,0,0,5.153-5.153A2.584,2.584,0,0,0,68.73,96.2H63.577A2.584,2.584,0,0,0,61,98.779,5.168,5.168,0,0,0,66.153,103.932Zm34.356,0a5.169,5.169,0,0,0,5.153-5.153,2.584,2.584,0,0,0-2.577-2.577H97.933a2.584,2.584,0,0,0-2.577,2.577A5.169,5.169,0,0,0,100.509,103.932Z" transform="translate(-54.873 -86.044)" fill="#f6d9ad" fill-rule="evenodd"/>
          <path id="Trazado_971174" data-name="Trazado 971174" d="M63.577,63H68.73a2.584,2.584,0,0,1,2.577,2.577V63.855a5.153,5.153,0,0,0-10.307,0v1.718A2.584,2.584,0,0,1,63.577,63Zm34.356,0h5.153a2.584,2.584,0,0,1,2.577,2.577V63.855a5.153,5.153,0,0,0-10.307,0v1.718A2.584,2.584,0,0,1,97.933,63Z" transform="translate(-54.873 -52.838)" fill="#acc5e3" fill-rule="evenodd"/>
          <path id="Trazado_971175" data-name="Trazado 971175" d="M59.217,259.436a2.585,2.585,0,0,0-2.577,2.577v8.277a4.294,4.294,0,1,1-8.589,0V265.32a2.584,2.584,0,0,0-2.577-2.577h-2.26a2.585,2.585,0,0,0-2.577,2.577v4.888a28.477,28.477,0,0,0,38.687,10.561,2.584,2.584,0,0,0-2.573-2.437,2.577,2.577,0,1,1,0-5.153h1.675a2.577,2.577,0,1,0,0-5.153H76.035a4.294,4.294,0,1,1,0-8.589h6.559a2.584,2.584,0,0,0,2.577-2.577V256H64.327c0,2.276-1.26,3.436-2.748,3.436Z" transform="translate(-36.843 -227.542)" fill="#acf3f9" fill-rule="evenodd"/>
          <path id="Trazado_971176" data-name="Trazado 971176" d="M46.692,259.436a4.294,4.294,0,1,0,0,8.589h2.393a2.577,2.577,0,1,1,0,5.153H47.409a2.577,2.577,0,1,0,0,5.153,2.584,2.584,0,0,1,2.573,2.437A28.449,28.449,0,0,0,64.416,256H55.827v.859a2.584,2.584,0,0,1-2.577,2.577ZM7.5,256a28.326,28.326,0,0,0,3.795,14.208V265.32a2.585,2.585,0,0,1,2.577-2.577h2.26a2.584,2.584,0,0,1,2.577,2.577v4.969a4.294,4.294,0,1,0,8.589,0v-8.277a2.585,2.585,0,0,1,2.577-2.577h2.362c1.489,0,2.748-1.159,2.748-3.436Z" transform="translate(-7.5 -227.542)" fill="#a9e899" fill-rule="evenodd"/>
          <path id="Trazado_971177" data-name="Trazado 971177" d="M7.5,256a28.326,28.326,0,0,0,3.795,14.208V265.32a2.554,2.554,0,0,1,.106-.728A28.422,28.422,0,0,1,10.077,256Z" transform="translate(-7.5 -227.542)" fill="#6bd24d" fill-rule="evenodd"/>
          <path id="Trazado_971178" data-name="Trazado 971178" d="M40.744,331.025a2.555,2.555,0,0,0-.106.728v4.888A28.447,28.447,0,0,0,65.3,350.891q.656,0,1.305-.03A28.46,28.46,0,0,1,40.744,331.025Z" transform="translate(-36.843 -293.975)" fill="#5ceaee" fill-rule="evenodd"/>
          <path id="Trazado_971179" data-name="Trazado 971179" d="M41.077,185.323l-.429.132a2.835,2.835,0,0,0-2.147,2.806v5.156h2.577Z" transform="translate(-34.95 -164.959)" fill="#fee026" fill-rule="evenodd"/>
          <path id="Trazado_971180" data-name="Trazado 971180" d="M353.96,182.625a2.835,2.835,0,0,0-2.147-2.806l-2.8-.861a2.781,2.781,0,0,1-5.563,0l-2.8.861a2.835,2.835,0,0,0-2.147,2.806v5.156h15.46Z" transform="translate(-300.594 -159.324)" fill="#fff" fill-rule="evenodd"/>
          <path id="Trazado_971181" data-name="Trazado 971181" d="M118.849,164.519a2.781,2.781,0,0,0,2.781-2.781l-.616-2.227a5.125,5.125,0,0,1-4.331,0l-.616,2.227A2.781,2.781,0,0,0,118.849,164.519Zm-34.356,0a2.781,2.781,0,0,0,2.781-2.781l-.616-2.227a5.125,5.125,0,0,1-4.331,0l-.616,2.227A2.781,2.781,0,0,0,84.493,164.519Z" transform="translate(-73.213 -142.102)" fill="#eeae7e" fill-rule="evenodd"/>
          <path id="Trazado_971182" data-name="Trazado 971182" d="M100.509,103.932a5.113,5.113,0,0,0,1.288-.165,5.172,5.172,0,0,1-3.865-4.989V97.061a5.133,5.133,0,0,1,.072-.859h-.072a2.584,2.584,0,0,0-2.577,2.577A5.169,5.169,0,0,0,100.509,103.932Zm-34.356,0a5.114,5.114,0,0,0,1.288-.165,5.172,5.172,0,0,1-3.865-4.989V97.061a5.133,5.133,0,0,1,.072-.859h-.072A2.584,2.584,0,0,0,61,98.779,5.168,5.168,0,0,0,66.153,103.932Z" transform="translate(-54.873 -86.044)" fill="#eeae7e" fill-rule="evenodd"/>
          <path id="Trazado_971183" data-name="Trazado 971183" d="M97.933,63h.072a5.185,5.185,0,0,1,3.793-4.13,5.152,5.152,0,0,0-6.442,4.989v1.718A2.584,2.584,0,0,1,97.933,63ZM63.577,63h.072a5.185,5.185,0,0,1,3.793-4.13A5.152,5.152,0,0,0,61,63.855v1.718A2.584,2.584,0,0,1,63.577,63Z" transform="translate(-54.873 -52.838)" fill="#6696c4" fill-rule="evenodd"/>
          <path id="Trazado_971184" data-name="Trazado 971184" d="M207.3,63.079a6.256,6.256,0,0,0,1.288-.134,6.321,6.321,0,0,1-5.01-6.165v-2.1a6.284,6.284,0,0,1,.082-1.011A3.161,3.161,0,0,0,201,56.781,6.317,6.317,0,0,0,207.3,63.079Z" transform="translate(-178.84 -48.383)" fill="#fbdfba" fill-rule="evenodd"/>
          <path id="Trazado_971185" data-name="Trazado 971185" d="M208.587,7.634A6.3,6.3,0,0,0,201,13.8v2.1a3.161,3.161,0,0,1,2.659-3.111A6.334,6.334,0,0,1,208.587,7.634Z" transform="translate(-178.84 -7.5)" fill="#fee026" fill-rule="evenodd"/>
          <path id="Trazado_971186" data-name="Trazado 971186" d="M176.566,162.483l-.442.136a3.465,3.465,0,0,0-2.624,3.429v7.145h2.577V164.33a3.55,3.55,0,0,1,.489-1.847Z" transform="translate(-154.49 -144.734)" fill="#6696c4" fill-rule="evenodd"/>
        </g>
        <g id="Grupo_1119464" data-name="Grupo 1119464" transform="translate(50.469 31.035)">
          <path id="Trazado_971187" data-name="Trazado 971187" d="M449.921,283.653H448.2v-1.718h1.718Zm1.718-3.435h-1.718V278.5h1.718Z" transform="translate(-448.203 -278.5)" fill="#fff"/>
        </g>
      </g>
      <path id="Trazado_971188" data-name="Trazado 971188" d="M55.084,28.458v-4.3a3.677,3.677,0,0,0-2.754-3.627l-2.351-.722L49.67,18.7a6.013,6.013,0,0,0,2.837-5.1V11.876a6.012,6.012,0,0,0-12.025,0v1.718a6.013,6.013,0,0,0,2.837,5.1l-.309,1.116-2.351.722a4.339,4.339,0,0,0-1.16.547,4.335,4.335,0,0,0-3.107-3.159l-2.974-.914-.443-1.6a7.16,7.16,0,0,0,3.5-6.149v-2.1a7.158,7.158,0,1,0-14.315,0v2.1a7.16,7.16,0,0,0,3.5,6.149l-.443,1.6-2.974.914a4.335,4.335,0,0,0-3.107,3.159,4.339,4.339,0,0,0-1.16-.547l-2.351-.722L15.314,18.7a6.013,6.013,0,0,0,2.837-5.1V11.876a6.012,6.012,0,0,0-12.025,0v1.718a6.012,6.012,0,0,0,2.837,5.1l-.309,1.116L6.3,20.534A3.677,3.677,0,0,0,3.55,24.161v4.3H0v.859A29.315,29.315,0,0,0,49.39,50.682l-1.176-1.252a27.724,27.724,0,0,1-4.334,3.334,3.436,3.436,0,0,0-3.111-1.975,1.718,1.718,0,0,1,0-3.436h1.675a3.436,3.436,0,0,0,0-6.871H40.051a3.436,3.436,0,1,1,0-6.871H46.61a3.44,3.44,0,0,0,3.436-3.436H56.9a27.484,27.484,0,0,1-7.472,18.037l1.252,1.176a29.2,29.2,0,0,0,7.952-20.073v-.859ZM46.5,7.581A4.3,4.3,0,0,1,50.562,10.5a3.414,3.414,0,0,0-1.49-.34H43.918a3.416,3.416,0,0,0-1.49.34A4.3,4.3,0,0,1,46.5,7.581ZM42.2,13.594a1.72,1.72,0,0,1,1.718-1.718h5.153a1.72,1.72,0,0,1,1.718,1.718,4.295,4.295,0,1,1-8.589,0ZM46.5,19.606a6,6,0,0,0,1.586-.214l.332,1.2a1.92,1.92,0,0,1-3.835,0l.332-1.2A6,6,0,0,0,46.5,19.606Zm-5.331,2.57,1.864-.573a3.64,3.64,0,0,0,6.934,0l1.864.573a1.984,1.984,0,0,1,1.541,1.985v4.3H39.624v-4.3a1.984,1.984,0,0,1,1.541-1.985ZM29.317,1.718A5.449,5.449,0,0,1,34.6,5.867a3.983,3.983,0,0,0-2.134-.618h-6.3a3.983,3.983,0,0,0-2.134.618A5.449,5.449,0,0,1,29.317,1.718Zm-5.44,7.539a2.293,2.293,0,0,1,2.29-2.291h6.3a2.293,2.293,0,0,1,2.29,2.291,5.44,5.44,0,1,1-10.879,0Zm5.44,7.158a7.13,7.13,0,0,0,2.071-.307l.467,1.69a2.54,2.54,0,0,1-5.076,0l.467-1.69a7.127,7.127,0,0,0,2.07.307Zm-8.589,5.758a2.6,2.6,0,0,1,2.018-2.608l2.462-.757a4.258,4.258,0,0,0,8.218,0l2.462.757a2.6,2.6,0,0,1,2.018,2.608v6.286H20.728ZM12.139,7.581A4.3,4.3,0,0,1,16.206,10.5a3.414,3.414,0,0,0-1.49-.34H9.562a3.416,3.416,0,0,0-1.49.34A4.3,4.3,0,0,1,12.139,7.581ZM7.845,13.594a1.72,1.72,0,0,1,1.718-1.718h5.153a1.72,1.72,0,0,1,1.718,1.718,4.295,4.295,0,1,1-8.589,0Zm4.295,6.012a6,6,0,0,0,1.586-.214l.332,1.2a1.92,1.92,0,0,1-3.835,0l.332-1.2A6,6,0,0,0,12.139,19.606Zm-.859,10.57V28.458H5.268v-4.3a1.984,1.984,0,0,1,1.541-1.985L8.672,21.6a3.64,3.64,0,0,0,6.934,0l1.864.573a1.984,1.984,0,0,1,1.541,1.985v4.3H13v1.718H27.4a1.858,1.858,0,0,1-1.808,1.718H23.233A3.44,3.44,0,0,0,19.8,35.329v8.277a3.436,3.436,0,0,1-6.871,0V38.637A3.44,3.44,0,0,0,9.491,35.2H7.231a3.44,3.44,0,0,0-3.436,3.436v1.219a27.506,27.506,0,0,1-2.064-9.68ZM46.61,31.894H40.051a5.153,5.153,0,1,0,0,10.307h2.393a1.718,1.718,0,1,1,0,3.436H40.768a3.436,3.436,0,0,0,0,6.871,1.718,1.718,0,0,1,1.613,1.127A27.651,27.651,0,0,1,5.513,43.3V38.637A1.72,1.72,0,0,1,7.23,36.919h2.26a1.72,1.72,0,0,1,1.718,1.718v4.969a5.153,5.153,0,0,0,10.307,0V35.329a1.72,1.72,0,0,1,1.718-1.718h2.362a3.591,3.591,0,0,0,3.551-3.436H48.327a1.72,1.72,0,0,1-1.718,1.718Z"/>
    </g>
  </g>
</svg>
