<svg xmlns="http://www.w3.org/2000/svg" xmlns:xlink="http://www.w3.org/1999/xlink" width="200" height="130" viewBox="0 0 200 130">
  <defs>
    <clipPath id="clip-path">
      <rect id="Rectángulo_417358" data-name="Rectángulo 417358" width="168.824" height="118.711" fill="none"/>
    </clipPath>
  </defs>
  <g id="Grupo_1120128" data-name="Grupo 1120128" transform="translate(-835.711 -8188)">
    <rect id="Rectángulo_416560" data-name="Rectángulo 416560" width="200" height="130" transform="translate(835.711 8188)" fill="#66d16a"/>
    <g id="Grupo_1120127" data-name="Grupo 1120127" transform="translate(851.711 8194)">
      <g id="Grupo_1120127-2" data-name="Grupo 1120127" transform="translate(0 0)" clip-path="url(#clip-path)">
        <path id="Trazado_972582" data-name="Trazado 972582" d="M85.694,111.006l-75.76.439C2.156,79.533,25.368,69.63,23.842,48.036c-3.63-51.4,73.951-51.4,87.929-21.279,10.669,22.99,5.024,21.2,23.444,34.878,25.44,18.89,9.831,41.517.421,49.982Z" transform="translate(4.158 3.141)" fill="#d6f2e7"/>
        <path id="Trazado_972583" data-name="Trazado 972583" d="M83.285,14.816s-3.806-7.571,2.728-11.2c0,0,2.223,7.611-2.728,11.2" transform="translate(40.998 1.803)" fill="#0a3c33"/>
        <path id="Trazado_972584" data-name="Trazado 972584" d="M69.8,54.909l-.516-.767C80.994,46.337,89.512,9.791,89.6,9.422l.9.211C90.15,11.15,81.807,46.9,69.8,54.909" transform="translate(34.563 4.7)" fill="#0a3c33"/>
        <path id="Trazado_972585" data-name="Trazado 972585" d="M80.677,20.675l-.027-.925c4.111-.108,7.718-7.281,7.755-7.353l.826.412c-.154.316-3.894,7.743-8.554,7.866" transform="translate(40.233 6.184)" fill="#0a3c33"/>
        <path id="Trazado_972586" data-name="Trazado 972586" d="M83.165,17.581c-.052-.024-.1-.046-.157-.076l.433-.82c2.184,1.118,6.316-1.454,6.361-1.478l.495.779c-.184.117-4.45,2.815-7.132,1.595" transform="translate(41.409 7.586)" fill="#0a3c33"/>
        <path id="Trazado_972587" data-name="Trazado 972587" d="M85.229,16.568s.454-8.463,7.927-8.367c0,0-1.85,7.709-7.927,8.367" transform="translate(42.517 4.091)" fill="#0a3c33"/>
        <path id="Trazado_972588" data-name="Trazado 972588" d="M86.514,16.89s5.627-6.336,11.414-1.6c0,0-6.253,4.88-11.414,1.6" transform="translate(43.158 6.751)" fill="#0a3c33"/>
        <path id="Trazado_972589" data-name="Trazado 972589" d="M78.621,25.527l.307-.869c3.876,1.358,9.8-4.057,9.863-4.113l.627.682c-.258.237-6.4,5.846-10.8,4.3" transform="translate(39.221 10.249)" fill="#0a3c33"/>
        <path id="Trazado_972590" data-name="Trazado 972590" d="M82.448,24.68a3.554,3.554,0,0,1-1.217-.875l.692-.609c1.637,1.862,6.421.89,6.468.881l.19.9c-.181.039-3.78.767-6.133-.3" transform="translate(40.523 11.571)" fill="#0a3c33"/>
        <path id="Trazado_972591" data-name="Trazado 972591" d="M84.356,23.487S87.8,15.741,94.749,18.5c0,0-4.48,6.543-10.393,4.991" transform="translate(42.082 8.931)" fill="#0a3c33"/>
        <path id="Trazado_972592" data-name="Trazado 972592" d="M84.848,24.334s7.518-3.911,11.235,2.577c0,0-7.58,2.326-11.235-2.577" transform="translate(42.327 11.556)" fill="#0a3c33"/>
        <path id="Trazado_972593" data-name="Trazado 972593" d="M78.233,29.842a5.086,5.086,0,0,1-1.539-1.054l.661-.651c2.875,2.939,10.586.706,10.661.685l.267.887c-.3.085-6.321,1.83-10.05.132" transform="translate(38.26 14.037)" fill="#0a3c33"/>
        <path id="Trazado_972594" data-name="Trazado 972594" d="M82.923,33.042c-1.529-.694-3.332-1.836-3.771-3.474l.89-.243c.648,2.4,5.366,3.647,5.412,3.656l-.231.9a15.119,15.119,0,0,1-2.3-.835" transform="translate(39.486 14.629)" fill="#0a3c33"/>
        <path id="Trazado_972595" data-name="Trazado 972595" d="M82.83,29.892s6.511-5.421,11.522.126c0,0-6.911,3.885-11.522-.126" transform="translate(41.321 13.728)" fill="#0a3c33"/>
        <path id="Trazado_972596" data-name="Trazado 972596" d="M82.244,31.4s8.469-.181,8.932,7.277c0,0-7.826-1.264-8.932-7.277" transform="translate(41.028 15.663)" fill="#0a3c33"/>
        <path id="Trazado_972597" data-name="Trazado 972597" d="M80.611,23.562c-3.226-3.366-.661-11.276-.552-11.613l.878.292c-.024.073-2.5,7.715.336,10.679Z" transform="translate(39.405 5.961)" fill="#0a3c33"/>
        <path id="Trazado_972598" data-name="Trazado 972598" d="M80.222,19.2c-2.608-1.186-3.686-5.855-3.729-6.06l.9-.205c.012.051,1.118,4.81,3.482,5.528l-.27.884a2.733,2.733,0,0,1-.381-.147" transform="translate(38.159 6.451)" fill="#0a3c33"/>
        <path id="Trazado_972599" data-name="Trazado 972599" d="M80.289,17.385s5.627-6.336.246-11.525c0,0-4.107,6.782-.246,11.525" transform="translate(39.227 2.923)" fill="#0a3c33"/>
        <path id="Trazado_972600" data-name="Trazado 972600" d="M79.751,17.113S80.2,8.65,72.76,7.944c0,0,1.016,7.866,6.991,9.169" transform="translate(36.297 3.963)" fill="#0a3c33"/>
        <path id="Trazado_972601" data-name="Trazado 972601" d="M80.107,28.534c-4.078-1.853-5.378-9.528-5.433-9.865l.913-.15c.012.076,1.347,7.984,5.243,9.309l-.292.875a4.415,4.415,0,0,1-.43-.169" transform="translate(37.252 9.238)" fill="#0a3c33"/>
        <path id="Trazado_972602" data-name="Trazado 972602" d="M76.354,24.482A13.556,13.556,0,0,1,72.346,21.3l.706-.6c.031.037,3.206,3.747,5.643,3.287l.174.907a4.239,4.239,0,0,1-2.515-.412" transform="translate(36.091 10.326)" fill="#0a3c33"/>
        <path id="Trazado_972603" data-name="Trazado 972603" d="M77.15,23.458s2.055-8.22-5.117-10.329c0,0-.495,7.914,5.117,10.329" transform="translate(35.929 6.549)" fill="#0a3c33"/>
        <path id="Trazado_972604" data-name="Trazado 972604" d="M77.1,23.375s-3.516-7.709-10.434-4.883c0,0,4.537,6.5,10.434,4.883" transform="translate(33.258 8.914)" fill="#0a3c33"/>
        <path id="Trazado_972605" data-name="Trazado 972605" d="M76.583,34.461c-3.867-1.757-6.078-8.326-6.177-8.63l.878-.289c.025.073,2.577,7.682,6.634,8.379l-.156.91a4.793,4.793,0,0,1-1.18-.369" transform="translate(35.123 12.741)" fill="#0a3c33"/>
        <path id="Trazado_972606" data-name="Trazado 972606" d="M71.7,30.838a14.987,14.987,0,0,1-3.212-2.058l.6-.7c.037.033,3.753,3.2,6.085,2.368l.313.869a5.212,5.212,0,0,1-3.791-.48" transform="translate(34.168 14.008)" fill="#0a3c33"/>
        <path id="Trazado_972607" data-name="Trazado 972607" d="M73.6,30.124s.746-8.437-6.665-9.4c0,0,.74,7.891,6.665,9.4" transform="translate(33.393 10.339)" fill="#0a3c33"/>
        <path id="Trazado_972608" data-name="Trazado 972608" d="M73.515,30.237s-4.675-7.067-11.072-3.2c0,0,5.5,5.712,11.072,3.2" transform="translate(31.15 12.91)" fill="#0a3c33"/>
        <path id="Trazado_972609" data-name="Trazado 972609" d="M74.488,70.822l-.162,1.646a58.677,58.677,0,0,0,18.225-2.211c13.036-3.668,22.738-11.463,28.053-22.571l-1.3-.716C106.947,72.754,74.81,70.843,74.488,70.822" transform="translate(37.078 23.431)" fill="#a6b900"/>
        <path id="Trazado_972610" data-name="Trazado 972610" d="M104.2,52.552s9.175-1.754,9.172-12.9c0,0-8.8,3.614-9.172,12.9" transform="translate(51.982 19.782)" fill="#a6b900"/>
        <path id="Trazado_972611" data-name="Trazado 972611" d="M100.781,54.834s9.4,7.322,17.767-3.9c0,0-4.951-4.1-17.767,3.9" transform="translate(50.276 24.884)" fill="#a6b900"/>
        <path id="Trazado_972612" data-name="Trazado 972612" d="M102.109,59.911s-7.977-9.125.893-19.86c0,0,4.426,4.76-.893,19.86" transform="translate(49.294 19.98)" fill="#a6b900"/>
        <path id="Trazado_972613" data-name="Trazado 972613" d="M95.088,59.395s8.633,8.391,17.956-1.868c0,0-4.507-4.666-17.956,1.868" transform="translate(47.436 27.892)" fill="#a6b900"/>
        <path id="Trazado_972614" data-name="Trazado 972614" d="M96.127,64.947S89.075,54.924,98.867,45.2c0,0,3.938,5.267-2.74,19.746" transform="translate(46.728 22.549)" fill="#a6b900"/>
        <path id="Trazado_972615" data-name="Trazado 972615" d="M87.469,62.2s7.138,9.963,17.842,1.545c0,0-3.683-5.495-17.842-1.545" transform="translate(43.635 30.317)" fill="#a6b900"/>
        <path id="Trazado_972616" data-name="Trazado 972616" d="M88.094,68.259s-5.331-11.294,5.729-19.1c0,0,3.04,5.98-5.729,19.1" transform="translate(43.306 24.526)" fill="#a6b900"/>
        <path id="Trazado_972617" data-name="Trazado 972617" d="M80.334,63.123s4.45,11.792,16.651,6.649c0,0-2.224-6.427-16.651-6.649" transform="translate(40.075 31.489)" fill="#a6b900"/>
        <path id="Trazado_972618" data-name="Trazado 972618" d="M80.539,69.015s-2.421-12.577,9.967-17.009c0,0,1.49,6.713-9.967,17.009" transform="translate(40.082 25.943)" fill="#a6b900"/>
        <path id="Trazado_972619" data-name="Trazado 972619" d="M83.789,76.578C107.9,48.656,106.33,19.707,106.306,19.41l-1.241.085c.021.283,1.545,28.754-22.219,56.272Z" transform="translate(41.329 9.683)" fill="#fca09f"/>
        <path id="Trazado_972620" data-name="Trazado 972620" d="M97.452,33.123l1.183-.393-2.716-8.223-1.181.387Z" transform="translate(47.261 12.226)" fill="#fca09f"/>
        <path id="Trazado_972621" data-name="Trazado 972621" d="M96.612,38.439l1.087-.63-4.362-7.473-1.087.618Z" transform="translate(46.02 15.133)" fill="#fca09f"/>
        <path id="Trazado_972622" data-name="Trazado 972622" d="M94.378,44.483l1.084-.63-4.371-7.482-1.075.624Z" transform="translate(44.905 18.144)" fill="#fca09f"/>
        <path id="Trazado_972623" data-name="Trazado 972623" d="M91.62,49.762l1.069-.624L88.33,41.651l-1.078.633Z" transform="translate(43.527 20.777)" fill="#fca09f"/>
        <path id="Trazado_972624" data-name="Trazado 972624" d="M88.55,55.042l1.075-.63-4.362-7.476-1.075.63Z" transform="translate(41.998 23.414)" fill="#fca09f"/>
        <path id="Trazado_972625" data-name="Trazado 972625" d="M97.9,31.544l5.083-7.024-1.01-.719-5.08,7.012Z" transform="translate(48.334 11.873)" fill="#fca09f"/>
        <rect id="Rectángulo_417355" data-name="Rectángulo 417355" width="8.666" height="1.247" transform="translate(143.321 51.305) rotate(-43.149)" fill="#fca09f"/>
        <rect id="Rectángulo_417356" data-name="Rectángulo 417356" width="8.662" height="1.247" transform="matrix(0.881, -0.474, 0.474, 0.881, 139.72, 61.063)" fill="#fca09f"/>
        <rect id="Rectángulo_417357" data-name="Rectángulo 417357" width="8.666" height="1.244" transform="matrix(0.904, -0.428, 0.428, 0.904, 134.808, 70.972)" fill="#fca09f"/>
        <path id="Trazado_972626" data-name="Trazado 972626" d="M85.862,55.895,94,52.921l-.427-1.175L85.438,54.73Z" transform="translate(42.622 25.814)" fill="#fca09f"/>
        <path id="Trazado_972627" data-name="Trazado 972627" d="M96.612,18.544a3.016,3.016,0,1,0,3.94-1.634,3.014,3.014,0,0,0-3.94,1.634" transform="translate(48.08 8.321)" fill="#fca09f"/>
        <path id="Trazado_972628" data-name="Trazado 972628" d="M92.54,23.722a3.016,3.016,0,1,0,3.828-1.9,3.016,3.016,0,0,0-3.828,1.9" transform="translate(46.085 10.807)" fill="#fca09f"/>
        <path id="Trazado_972629" data-name="Trazado 972629" d="M90.553,28.841a3.015,3.015,0,1,0,4.227-.547,3,3,0,0,0-4.227.547" transform="translate(44.857 13.8)" fill="#fca09f"/>
        <path id="Trazado_972630" data-name="Trazado 972630" d="M88.312,34.875a3.02,3.02,0,1,0,4.239-.541,3.028,3.028,0,0,0-4.239.541" transform="translate(43.743 16.814)" fill="#fca09f"/>
        <path id="Trazado_972631" data-name="Trazado 972631" d="M85.549,40.155a3.021,3.021,0,1,0,4.236-.541,3.023,3.023,0,0,0-4.236.541" transform="translate(42.364 19.448)" fill="#fca09f"/>
        <path id="Trazado_972632" data-name="Trazado 972632" d="M82.481,45.442a3.017,3.017,0,1,0,4.236-.544,3.018,3.018,0,0,0-4.236.544" transform="translate(40.833 22.083)" fill="#fca09f"/>
        <path id="Trazado_972633" data-name="Trazado 972633" d="M105.629,24.305a3.017,3.017,0,1,1-3.071-2.966,3.018,3.018,0,0,1,3.071,2.966" transform="translate(49.684 10.645)" fill="#fca09f"/>
        <path id="Trazado_972634" data-name="Trazado 972634" d="M105.2,31.615a3.018,3.018,0,1,1-2.454-3.489,3.017,3.017,0,0,1,2.454,3.489" transform="translate(49.494 14.007)" fill="#fca09f"/>
        <path id="Trazado_972635" data-name="Trazado 972635" d="M103.437,40.453a3.013,3.013,0,1,1-1.467-4,3.008,3.008,0,0,1,1.467,4" transform="translate(48.733 18.043)" fill="#fca09f"/>
        <path id="Trazado_972636" data-name="Trazado 972636" d="M100.223,47.534a3.017,3.017,0,1,1-1.268-4.069,3.022,3.022,0,0,1,1.268,4.069" transform="translate(47.157 21.508)" fill="#fca09f"/>
        <path id="Trazado_972637" data-name="Trazado 972637" d="M95.753,54.767a3.018,3.018,0,1,1-.893-4.168,3.032,3.032,0,0,1,.893,4.168" transform="translate(44.998 24.998)" fill="#fca09f"/>
        <path id="Trazado_972638" data-name="Trazado 972638" d="M48.824,74.8,48.6,73.33A48.8,48.8,0,0,1,9.786,62.436l-1.03,1.081A50.382,50.382,0,0,0,48.824,74.8" transform="translate(4.368 31.147)" fill="#bee4d7"/>
        <path id="Trazado_972639" data-name="Trazado 972639" d="M12.656,64.549s-5.331-6.564-8.34-2.942c-1.28,1.535.763,4.9,8.34,2.942" transform="translate(1.976 30.189)" fill="#bee4d7"/>
        <path id="Trazado_972640" data-name="Trazado 972640" d="M14.144,64.612S5.359,62.727,5.986,67.3c.271,1.95,4.294,3.317,8.158-2.69" transform="translate(2.97 32.04)" fill="#bee4d7"/>
        <path id="Trazado_972641" data-name="Trazado 972641" d="M12.856,67.624S6.087,62.176,10.54,60c1.892-.931,5.448,1.268,2.316,7.62" transform="translate(4.501 29.831)" fill="#bee4d7"/>
        <path id="Trazado_972642" data-name="Trazado 972642" d="M17.322,69.886s-7.055-5.164-2.728-7.535c1.838-1.007,5.5,1.039,2.728,7.535" transform="translate(6.58 30.983)" fill="#bee4d7"/>
        <path id="Trazado_972643" data-name="Trazado 972643" d="M21.025,71.5s-7.025-5.182-2.7-7.541c1.845-1.01,5.495,1.048,2.7,7.541" transform="translate(8.44 31.786)" fill="#bee4d7"/>
        <path id="Trazado_972644" data-name="Trazado 972644" d="M26.216,72.6s-7.909-4.03-4.156-7.049c1.6-1.288,5.576.175,4.156,7.049" transform="translate(10.5 32.491)" fill="#bee4d7"/>
        <path id="Trazado_972645" data-name="Trazado 972645" d="M30.167,73.086s-7.787-4.23-3.929-7.148c1.64-1.24,5.571.324,3.929,7.148" transform="translate(12.554 32.7)" fill="#bee4d7"/>
        <path id="Trazado_972646" data-name="Trazado 972646" d="M35.885,72.65s-8.71-2.221-5.968-6c1.165-1.61,5.388-1.051,5.968,6" transform="translate(14.658 32.875)" fill="#bee4d7"/>
        <path id="Trazado_972647" data-name="Trazado 972647" d="M17.534,66.849s-8.8-1.883-8.161,2.7c.268,1.944,4.285,3.308,8.161-2.7" transform="translate(4.659 33.157)" fill="#bee4d7"/>
        <path id="Trazado_972648" data-name="Trazado 972648" d="M21.351,68.557s-8.8-1.877-8.17,2.7c.274,1.947,4.3,3.308,8.17-2.7" transform="translate(6.559 34.01)" fill="#bee4d7"/>
        <path id="Trazado_972649" data-name="Trazado 972649" d="M25.023,69.547s-8.956-.079-7.166,4.288c.76,1.863,4.988,2.4,7.166-4.288" transform="translate(8.79 34.694)" fill="#bee4d7"/>
        <path id="Trazado_972650" data-name="Trazado 972650" d="M29.362,70.336s-8.876.746-6.584,4.954c.979,1.785,5.224,1.932,6.584-4.954" transform="translate(11.174 35.088)" fill="#bee4d7"/>
        <path id="Trazado_972651" data-name="Trazado 972651" d="M33.654,70.445S25.059,72.319,28,76.219c1.261,1.656,5.456,1.258,5.658-5.774" transform="translate(13.661 35.142)" fill="#bee4d7"/>
        <path id="Trazado_972652" data-name="Trazado 972652" d="M14.354,12.138s-9.218-2.58-7.28-10.8c0,0,8.05,3.932,7.28,10.8" transform="translate(3.395 0.669)" fill="#fa2d68"/>
        <path id="Trazado_972653" data-name="Trazado 972653" d="M33.342,58.686l-1.033-.156C34.688,42.807,10.634,7.9,10.391,7.546l.857-.6c1,1.446,24.535,35.607,22.093,51.735" transform="translate(5.184 3.467)" fill="#fa2d68"/>
        <path id="Trazado_972654" data-name="Trazado 972654" d="M16.188,19.992l-.793-.682c3.035-3.519-.214-11.988-.246-12.07l.971-.381c.147.372,3.507,9.146.067,13.133" transform="translate(7.557 3.421)" fill="#fa2d68"/>
        <path id="Trazado_972655" data-name="Trazado 972655" d="M16.94,15.164c-.061.027-.123.049-.184.073l-.357-.98c2.6-.979,3.588-6.388,3.6-6.441l1.028.175c-.042.243-1.028,5.861-4.087,7.172" transform="translate(8.181 3.899)" fill="#fa2d68"/>
        <path id="Trazado_972656" data-name="Trazado 972656" d="M16.951,12.986S10.224,6.171,15.99,0c0,0,5.036,7.409.961,12.986" transform="translate(6.812 0)" fill="#fa2d68"/>
        <path id="Trazado_972657" data-name="Trazado 972657" d="M18.507,12.683S17.494,3.162,25.851,1.93c0,0-.682,8.932-7.344,10.753" transform="translate(9.213 0.962)" fill="#fa2d68"/>
        <path id="Trazado_972658" data-name="Trazado 972658" d="M19.421,25.949l-.495-.922C23.012,22.823,23,13.75,22.992,13.66l1.048-.006c0,.4.018,9.792-4.619,12.3" transform="translate(9.441 6.811)" fill="#fa2d68"/>
        <path id="Trazado_972659" data-name="Trazado 972659" d="M22.675,21.041a3.977,3.977,0,0,1-1.659.354l.016-1.042c2.8.046,5.63-4.69,5.66-4.736l.9.529c-.1.181-2.233,3.747-4.915,4.9" transform="translate(10.484 7.79)" fill="#fa2d68"/>
        <path id="Trazado_972660" data-name="Trazado 972660" d="M22.072,19.512S18.217,10.749,25.8,7.035c0,0,2.064,8.717-3.732,12.477" transform="translate(10.522 3.509)" fill="#fa2d68"/>
        <path id="Trazado_972661" data-name="Trazado 972661" d="M24.057,19.263s2.451-9.254,10.694-7.43c0,0-3.818,8.1-10.694,7.43" transform="translate(12.001 5.784)" fill="#fa2d68"/>
        <path id="Trazado_972662" data-name="Trazado 972662" d="M23.784,29.7a5.752,5.752,0,0,1-2.052.483l-.039-1.045c4.64-.166,8.642-8.308,8.683-8.391l.94.454c-.151.31-3.278,6.671-7.532,8.5" transform="translate(10.822 10.35)" fill="#fa2d68"/>
        <path id="Trazado_972663" data-name="Trazado 972663" d="M30.125,26.068c-1.742.746-4.066,1.385-5.774.5l.478-.928c2.491,1.282,7.126-1.71,7.172-1.739l.571.872a17.118,17.118,0,0,1-2.448,1.291" transform="translate(12.148 11.925)" fill="#fa2d68"/>
        <path id="Trazado_972664" data-name="Trazado 972664" d="M26.828,25.493s.424-9.564,8.867-9.534c0,0-2.005,8.729-8.867,9.534" transform="translate(13.383 7.961)" fill="#fa2d68"/>
        <path id="Trazado_972665" data-name="Trazado 972665" d="M28.3,25.841s6.291-7.213,12.878-1.929c0,0-7.015,5.577-12.878,1.929" transform="translate(14.119 10.963)" fill="#fa2d68"/>
        <path id="Trazado_972666" data-name="Trazado 972666" d="M20.239,20.43c-5.267.135-9.924-8.025-10.12-8.373l.91-.513c.045.079,4.545,7.96,9.181,7.841Z" transform="translate(5.048 5.759)" fill="#fa2d68"/>
        <path id="Trazado_972667" data-name="Trazado 972667" d="M16.515,17.22c-2.974,1.277-7.7-1.376-7.9-1.5l.514-.908c.051.027,4.871,2.726,7.266,1.3l.535.895a3.685,3.685,0,0,1-.412.211" transform="translate(4.296 7.391)" fill="#fa2d68"/>
        <path id="Trazado_972668" data-name="Trazado 972668" d="M14.623,16.067S13.61,6.546,5.182,7.1c0,0,2.544,8.585,9.441,8.969" transform="translate(2.585 3.529)" fill="#fa2d68"/>
        <path id="Trazado_972669" data-name="Trazado 972669" d="M14.464,16.527S7.74,9.712,1.493,15.394c0,0,7.341,5.132,12.971,1.133" transform="translate(0.745 6.551)" fill="#fa2d68"/>
        <path id="Trazado_972670" data-name="Trazado 972670" d="M24.242,24.418c-4.649,2-12.052-2.755-12.375-2.966l.571-.875c.073.051,7.694,4.948,11.766,2.7l.508.914c-.154.081-.31.157-.471.228" transform="translate(5.92 10.264)" fill="#fa2d68"/>
        <path id="Trazado_972671" data-name="Trazado 972671" d="M17.877,25.149a15.265,15.265,0,0,1-5.709.928l.039-1.042c.055,0,5.568.169,7.037-2.217l.89.549a4.8,4.8,0,0,1-2.257,1.782" transform="translate(6.07 11.383)" fill="#fa2d68"/>
        <path id="Trazado_972672" data-name="Trazado 972672" d="M17.79,23.215s-5.307-7.971-12.521-3.581c0,0,6.234,6.435,12.521,3.581" transform="translate(2.628 9.136)" fill="#fa2d68"/>
        <path id="Trazado_972673" data-name="Trazado 972673" d="M17.517,24.433S8.4,21.509,5.5,29.44c0,0,8.885,1.147,12.021-5.006" transform="translate(2.742 11.926)" fill="#fa2d68"/>
        <path id="Trazado_972674" data-name="Trazado 972674" d="M26.475,31.861c-4.408,1.895-11.579-1.256-11.908-1.4l.424-.955c.085.037,8.382,3.689,12.046.83l.645.823a5.438,5.438,0,0,1-1.207.706" transform="translate(7.267 14.717)" fill="#fa2d68"/>
        <path id="Trazado_972675" data-name="Trazado 972675" d="M19.665,34.2A16.909,16.909,0,0,1,15.5,35.316l-.126-1.036c.055-.006,5.529-.7,6.607-3.288l.962.4a5.884,5.884,0,0,1-3.281,2.8" transform="translate(7.671 15.46)" fill="#fa2d68"/>
        <path id="Trazado_972676" data-name="Trazado 972676" d="M20.667,31.5s-6.481-7.046-12.925-1.584c0,0,7.16,5.384,12.925,1.584" transform="translate(3.862 13.889)" fill="#fa2d68"/>
        <path id="Trazado_972677" data-name="Trazado 972677" d="M20.37,32.974S10.91,31.507,9.278,39.793c0,0,8.954-.252,11.092-6.818" transform="translate(4.628 16.399)" fill="#fa2d68"/>
        <path id="Trazado_972678" data-name="Trazado 972678" d="M32.032,67.6s-16.643-7.16-9.666-11.426-1.455-8.984-7.482-8.794S1.019,39.215,8.139,36.325-4.42,23.413.937,23.266s12.605,2.672,14.319,10.17,7.719.878,6.4-3.214,10.249,5.14,4.81,13.15,5.867,7.655,6.889,3.5,6.088,2.722,2.684,8.926-1.88,9.78,1.607,11.648-5.612.153-5.612.153" transform="translate(0 11.603)" fill="#519d45"/>
        <path id="Trazado_972679" data-name="Trazado 972679" d="M38.375,72.134l-.147,1.25a45.366,45.366,0,0,1-13.293-4.649C15.766,63.854,9.771,56.454,7.6,47.317L8.69,47c5.056,21.216,29.439,25.1,29.685,25.136" transform="translate(3.789 23.445)" fill="#ffc001"/>
        <path id="Trazado_972680" data-name="Trazado 972680" d="M9.909,51.676s-6.589-2.816-4.772-11.1c0,0,6,4.14,4.772,11.1" transform="translate(2.404 20.239)" fill="#ffc001"/>
        <path id="Trazado_972681" data-name="Trazado 972681" d="M14.194,54.242S5.956,58.136,1.518,48.413c0,0,4.377-2.236,12.676,5.829" transform="translate(0.757 24.009)" fill="#ffc001"/>
        <path id="Trazado_972682" data-name="Trazado 972682" d="M9.9,57.22s7.46-5.468,2.565-14.915c0,0-4.093,2.807-2.565,14.915" transform="translate(4.767 21.104)" fill="#ffc001"/>
        <path id="Trazado_972683" data-name="Trazado 972683" d="M17.789,58.521S9.957,63.34,4.644,54.172c0,0,4.137-2.723,13.145,4.35" transform="translate(2.317 26.767)" fill="#ffc001"/>
        <path id="Trazado_972684" data-name="Trazado 972684" d="M13.537,62.009s6.917-6.291,1.168-15.138c0,0-3.809,3.268-1.168,15.138" transform="translate(6.288 23.382)" fill="#ffc001"/>
        <path id="Trazado_972685" data-name="Trazado 972685" d="M23.087,61.728s-6.97,6.229-13.616-1.794c0,0,3.654-3.479,13.616,1.794" transform="translate(4.725 29.337)" fill="#ffc001"/>
        <path id="Trazado_972686" data-name="Trazado 972686" d="M19.152,65.9A11.682,11.682,0,0,0,17.97,50.75S14.723,54.7,19.152,65.9" transform="translate(8.392 25.317)" fill="#ffc001"/>
        <path id="Trazado_972687" data-name="Trazado 972687" d="M28.183,63.178s-5.255,8.038-13.554,2.2c0,0,2.711-4.413,13.554-2.2" transform="translate(7.298 31.207)" fill="#ffc001"/>
        <path id="Trazado_972688" data-name="Trazado 972688" d="M25.2,67.879s3.861-8.956-4.7-14.295c0,0-2.206,4.748,4.7,14.295" transform="translate(10.062 26.731)" fill="#ffc001"/>
        <path id="Trazado_972689" data-name="Trazado 972689" d="M138.019,76.68c0,2.331-5.328,5.331-57.036,5.331S8.113,80.184,8.113,77.85s21.159-4.279,72.87-4.279,57.036.775,57.036,3.109" transform="translate(4.047 36.701)" fill="#bee4d7"/>
        <path id="Trazado_972690" data-name="Trazado 972690" d="M118.775,60.675A50.222,50.222,0,1,1,68.554,10.451a50.221,50.221,0,0,1,50.221,50.224" transform="translate(9.144 5.213)" fill="#9bc2e0"/>
        <path id="Trazado_972691" data-name="Trazado 972691" d="M58.74,37.484S40.4,22.032,47.718,16.638C62.119,6.026,102.81,30.119,89.59,45.986s-11.457,4.847-15.425,4.847-10.58,6.61-6.171,10.577S72.841,79.479,78.57,79.479s5.239,16.426-4.651,25.84c0,0-4.456,2.439-14.224,3.551,0,0-13.891-18.707-7.86-26.746,5.286-7.052,2.623-15.425,7.052-22.477s4.906-13.563-.147-22.164" transform="translate(22.945 6.996)" fill="#c7e0ef"/>
        <path id="Trazado_972692" data-name="Trazado 972692" d="M29.557,22.916s16.625,6.072,12.881,12.022-8.145,10.135-6.166,15.206,14.539,19.169,6.716,28.2c-6.063,7-5.586,13.613-2.957,17.384,0,0-19.556-13.407-21.614-37.413-.793-9.242-.474-22.717,11.14-35.4" transform="translate(9.057 11.432)" fill="#c7e0ef"/>
        <path id="Trazado_972693" data-name="Trazado 972693" d="M70.33,48.263c-5.024-2.773-17.409-11.648-6.68-19.8s3.345-9.172,2.125-16.669c-.841-5.185,3.29-10.369,11.5-10.369s13.748,10.369,10.056,16.3,5.283,5.129,7.884,5.841c4.384,1.2,8.056,8.02-.847,13.036-10.252,5.778,1.309,1.376,1.44,6.094.123,4.333-4.236,8.182-10.873,7.814s-9.912.346-14.608-2.242" transform="translate(29.634 0.71)" fill="#a6b900"/>
        <path id="Trazado_972694" data-name="Trazado 972694" d="M72.847,60.913s6.659-35.563-4.368-53.526c0,0,3.317,2.512,7.79,14.119,3.51,9.116,4.233,31.239,1.622,39.407Z" transform="translate(34.161 3.685)" fill="#0d5d42"/>
        <path id="Trazado_972695" data-name="Trazado 972695" d="M26.149,45.927c-4.279-2.359-14.831-9.921-5.688-16.865s2.848-7.814,1.809-14.2c-.716-4.414,2.8-8.834,9.8-8.834s11.711,8.834,8.566,13.885,4.5,4.371,6.716,4.976c3.735,1.022,6.862,6.832-.721,11.1-8.732,4.924,1.112,1.171,1.226,5.194.106,3.689-3.609,6.97-9.261,6.653s-8.443.294-12.445-1.911" transform="translate(8.401 3.006)" fill="#a6b900"/>
        <path id="Trazado_972696" data-name="Trazado 972696" d="M28.293,56.7s5.673-30.3-3.72-45.6c0,0,2.824,2.14,6.632,12.027C34.2,30.9,34.816,49.743,32.59,56.7Z" transform="translate(12.258 5.541)" fill="#0d5d42"/>
        <path id="Trazado_972697" data-name="Trazado 972697" d="M71.907,47.864a2.833,2.833,0,0,0-3.241,1.013c-1.25,1.877-1.68,6.45-4.47,7.827s-4.539.2-5.808-.436-1.476-1.487-2.263-1.77-1.078.655.71,2.163c.865.718,4.667,4.787,8.3,3.771,4.756-1.341,9.973-11.107,6.773-12.568" transform="translate(27.694 23.798)" fill="#e0623f"/>
        <path id="Trazado_972698" data-name="Trazado 972698" d="M57.164,69.558C51.2,68.628,35.778,64.312,43.449,52.4s.006-10.261-3.894-17.228c-2.7-4.819-.48-11.429,7.632-14.38s17.307,5.3,15.793,12.483,7.064,3.167,9.886,2.936c4.762-.393,10.84,5.026,3.849,13.182-8.047,9.393,1.788.887,3.615,5.5,1.68,4.236-1.241,9.608-7.933,11.628s-9.663,3.9-15.234,3.035" transform="translate(19.188 10.065)" fill="#a6b900"/>
        <path id="Trazado_972699" data-name="Trazado 972699" d="M67.168,78.805s-6.2-37.524-23.555-51.3c0,0,4.177,1.292,12.77,11.152,6.745,7.74,15.413,29.333,15.77,38.341Z" transform="translate(21.757 13.719)" fill="#0d5d42"/>
        <path id="Trazado_972700" data-name="Trazado 972700" d="M61.031,70.645c.7,3.471,2.541,8.013,2.635,10.4.012.378-.033.519-1.268.814S62.287,82.922,64.382,83s1.467-10.032.688-14.8c-.691-4.165-4.85-1.589-4.039,2.442" transform="translate(30.394 32.964)" fill="#f27851"/>
        <path id="Trazado_972701" data-name="Trazado 972701" d="M65.257,76.792s-1.88.682-2.942-.187c0,0-2.076.172-.817.8s3.716,1.25,3.759-.618" transform="translate(30.477 38.215)" fill="#6e86cc"/>
        <path id="Trazado_972702" data-name="Trazado 972702" d="M73.041,54.422S62.25,62,60.693,65.872c-1.394,3.486,1.841,17.523,1.841,17.523A5.282,5.282,0,0,0,66.9,83.02L66.624,72.1l9.107-8.329Z" transform="translate(30.103 27.149)" fill="#ed2051"/>
        <path id="Trazado_972703" data-name="Trazado 972703" d="M73.094,72.987c3,2.307,7.676,4.669,9.435,6.523.277.289.337.441-.448,1.548s.661.931,2.407-.478-5.879-9.11-9.864-12.4c-3.483-2.875-5.02,2.134-1.53,4.807" transform="translate(35.48 33.582)" fill="#f27851"/>
        <path id="Trazado_972704" data-name="Trazado 972704" d="M81.178,75.205s-1.036,1.865-2.506,1.917c0,0-1.545,1.6-.09,1.225s3.867-1.611,2.6-3.142" transform="translate(38.89 37.516)" fill="#6e86cc"/>
        <path id="Trazado_972705" data-name="Trazado 972705" d="M71.334,54.385s-5.6,12.755-4.125,16.967c1.329,3.792,13.812,12.823,13.812,12.823A5.644,5.644,0,0,0,84.274,80.8l-7.9-8.6s3.163-9.945,1.608-13.631c-.057-.126.216.878.216.878Z" transform="translate(33.405 27.13)" fill="#ff2e56"/>
        <path id="Trazado_972706" data-name="Trazado 972706" d="M79.7,61.936l.012-.012-.012.012c-.055-.085-.1-.157-.163-.249-2.011-3.345-3.443-5.412-3.329-9.374.169-5.673-4.014-5.179-6.567-4.936s-6.581,1.419-6.466,5.974a19.126,19.126,0,0,0,3.315,10.24c2.349,3.092,16.041,1.818,13.209-1.656" transform="translate(31.514 23.57)" fill="#6737c1"/>
        <path id="Trazado_972707" data-name="Trazado 972707" d="M78.084,61.588c.058.091.108.163.163.249l.012-.012-.012.012c2.19,2.687-5.5,4.054-10.185,3.109-.725-1.085,2.794-1.376,4.1-2.43,3-2.436-7.706-2.644-5.861-3.539,1.988-.958,4.955-.577,3.65-3.492A7.532,7.532,0,0,1,71,47.89c1.292-1.235,3.443.214,3.678,2.9a8.271,8.271,0,0,1,.075,1.422c-.114,3.961,1.318,6.028,3.329,9.374" transform="translate(32.966 23.668)" fill="#542eaf"/>
        <path id="Trazado_972708" data-name="Trazado 972708" d="M68.236,45.109s-.565,2.157,1.028,2.954c1.635.814-3.375,4.8-3.452,3.621-.1-1.529.495-2.556-.556-4.137Z" transform="translate(32.554 22.503)" fill="#e0623f"/>
        <path id="Trazado_972709" data-name="Trazado 972709" d="M64.976,43.3c-1.048,1.434-1.434,6.962.117,7.878.676.393,2.966-.624,4.051-3.224a4.487,4.487,0,0,0-.412-4.607c-.586-.731-2.533-1.718-3.756-.046" transform="translate(31.955 21.143)" fill="#f27851"/>
        <path id="Trazado_972710" data-name="Trazado 972710" d="M69.475,43.429a3.775,3.775,0,0,1,.67,3.683c-.357,1.112-1.262,2.152-1.536,1.833-.328-.387.916-.791.345-1.892s.156-1.5-.222-2.482-1.1-.65-3.405-.577c-.941.031-1.177-.289-1.144-.682a3.337,3.337,0,0,1,5.292.117" transform="translate(32.017 20.984)" fill="#062440"/>
        <path id="Trazado_972711" data-name="Trazado 972711" d="M64.738,44.858c-.562-1.335-2.562-1.016-1.923-1.959.427-.633.427-.154,5.2-1.127,2.226-.453,2.662.495,3.089,1.751a6.642,6.642,0,0,1-1.253,5.682c-1.523,1.676.046-1.112-.535-2.374s-.967-.725-1.806-.517-1.868.694-2.77-1.455" transform="translate(31.274 20.781)" fill="#39021f"/>
        <path id="Trazado_972712" data-name="Trazado 972712" d="M75.53,47.449c-.574-.184-1.9.252-2.678,1.772-1.048,2.025-1.425,6.294-4.075,7.992s-4.546.716-5.888.228-1.662-1.332-2.476-1.53-1.013.784.961,2.1c.946.627,5.234,4.288,8.77,2.848,4.628-1.883,8.768-12.307,5.387-13.4" transform="translate(29.845 23.65)" fill="#e67052"/>
      </g>
    </g>
  </g>
</svg>
