<svg xmlns="http://www.w3.org/2000/svg" width="40" height="32.939" viewBox="0 0 40 32.939">
  <g id="Grupo_1119458" data-name="Grupo 1119458" transform="translate(0 -45.184)">
    <path id="Trazado_971157" data-name="Trazado 971157" d="M37.627,47.7,24.9,45.238a2.928,2.928,0,0,0-3.433,2.32l-1,5.148a.586.586,0,0,0,1.151.223l1-5.148a1.757,1.757,0,0,1,2.06-1.392L37.4,48.853a1.756,1.756,0,0,1,1.392,2.06L35.437,68.258a1.76,1.76,0,0,1-2.06,1.392l-2.322-.45.9-4.625a2.928,2.928,0,0,0,3.445-2.317l.33-1.7a.586.586,0,0,0-1.151-.223l-.331,1.7a1.757,1.757,0,0,1-2.114,1.381A4.139,4.139,0,0,0,31.485,61a4.709,4.709,0,0,0,2.41-3.38,1.756,1.756,0,0,0-1.172-1.944,7.8,7.8,0,0,1-2.205-1.193,1.763,1.763,0,0,0-1.551-.3,7.779,7.779,0,0,1-2.491.283,1.761,1.761,0,0,0-1.817,1.384,4.666,4.666,0,0,0,.973,4.019,4.063,4.063,0,0,0-1.5,2,1.757,1.757,0,0,1-1.444-2.07l.784-4.052a5.885,5.885,0,0,1,11.607,1.929.586.586,0,0,0,1.161.162,7.057,7.057,0,0,0-13.919-2.314l-.784,4.052a2.928,2.928,0,0,0,2.33,3.435l-.9,4.625-2.321-.45a1.76,1.76,0,0,1-1.392-2.06L21.1,55.617a.586.586,0,0,0-1.151-.223l-.561,2.9-1.064-4.156a2.929,2.929,0,0,0-3.566-2.112L2.205,55.239A2.929,2.929,0,0,0,.093,58.805L4.475,75.92A2.933,2.933,0,0,0,8.04,78.031L20.6,74.816a2.928,2.928,0,0,0,2.112-3.565l-.667-2.6c11.65,2.256,11.235,2.206,11.671,2.206a2.935,2.935,0,0,0,2.876-2.373l3.359-17.345a2.928,2.928,0,0,0-2.32-3.433ZM25.8,56.1a.593.593,0,0,1,.612-.467,8.961,8.961,0,0,0,2.87-.326.587.587,0,0,1,.516.1,8.986,8.986,0,0,0,2.542,1.374.587.587,0,0,1,.4.647A3.532,3.532,0,1,1,25.8,56.1Zm-.672,6.557a2.917,2.917,0,0,1,1.381-1.966,4.7,4.7,0,0,0,3.849.742,2.957,2.957,0,0,1,.55,2.344l-1.007,5.2-5.78-1.119Zm-3.559,8.885A1.76,1.76,0,0,1,20.3,73.681l-2.29.586L17.536,72.4a.586.586,0,0,0-1.135.291l.478,1.865-5.7,1.46L9.862,70.888a2.914,2.914,0,0,1,.406-2.368,4.771,4.771,0,0,0,3.808-.97,2.917,2.917,0,0,1,1.489,1.877l.158.616a.586.586,0,0,0,1.135-.291l-.158-.616a4.078,4.078,0,0,0-1.79-2.459,4.709,4.709,0,0,0,.866-3.379l.484-.124a1.757,1.757,0,0,0,1.133-2.5A7.059,7.059,0,0,0,4.053,64.092a1.756,1.756,0,0,0,1.754,1.7,3.453,3.453,0,0,0,.923-.18,4.7,4.7,0,0,0,2.391,2.538,4.136,4.136,0,0,0-.394,3.026l1.314,5.131L7.749,76.9A1.76,1.76,0,0,1,5.61,75.629L1.228,58.514A1.757,1.757,0,0,1,2.5,56.375L15.051,53.16a1.758,1.758,0,0,1,2.14,1.267l1.679,6.554-.76,3.921a2.934,2.934,0,0,0,2.32,3.434l.339.066Zm-6.219-9.684a1.746,1.746,0,0,0-1.173-.947,7.883,7.883,0,0,0-3.8.13,7.884,7.884,0,0,0-3.4,1.713,1.743,1.743,0,0,0-.574,1.39c.006.113.017.224.031.335l-.485.125a.585.585,0,0,1-.731-.545A5.887,5.887,0,0,1,16.35,61.21a.585.585,0,0,1-.379.829l-.486.124c-.04-.1-.083-.2-.131-.3ZM7.581,64.08a.576.576,0,0,1,.191-.458,6.738,6.738,0,0,1,2.9-1.445,6.793,6.793,0,0,1,3.236-.125.579.579,0,0,1,.39.313,3.529,3.529,0,0,1-5.13,4.474A3.5,3.5,0,0,1,7.581,64.08Z" transform="translate(0)" fill="#0042db"/>
  </g>
</svg>
