<svg xmlns="http://www.w3.org/2000/svg" width="100" height="100" viewBox="0 0 100 100">
  <g id="Grupo_1118023" data-name="Grupo 1118023" transform="translate(-285.332 -8115.087)">
    <g id="Grupo_156312" data-name="Grupo 156312" transform="translate(285.332 8115.087)">
      <path id="Elipse_5845" data-name="Elipse 5845" d="M50,0A50,50,0,1,1,0,50,50,50,0,0,1,50,0Z" transform="translate(0 0)" fill="#66d16a"/>
    </g>
    <g id="Grupo_1120130" data-name="Grupo 1120130" transform="translate(303.394 8133.091)">
      <circle id="Elipse_13698" data-name="Elipse 13698" cx="1" cy="1" r="1" transform="translate(35 16)" fill="#001a58"/>
      <circle id="Elipse_13699" data-name="Elipse 13699" cx="1" cy="1" r="1" transform="translate(41 16)" fill="#001a58"/>
      <path id="Trazado_972713" data-name="Trazado 972713" d="M37.447,22.1a1,1,0,1,0-.894,1.79,4.867,4.867,0,0,0,4.862-.3l1.14-.76a1,1,0,1,0-1.11-1.664l-1.139.76a2.861,2.861,0,0,1-2.859.174Z" fill="#001a58"/>
      <path id="Trazado_972714" data-name="Trazado 972714" d="M12.743,31.7a.993.993,0,0,0,.783.489l.962,2.524.028-.011a.958.958,0,0,0,.035.174l2.381,5.941a1,1,0,0,0,.929.628.975.975,0,0,0,.371-.072,1,1,0,0,0,.557-1.3l-2.047-5.1,2.515-1.329,2.9,6.261a1,1,0,0,0,.769.57.985.985,0,0,0,.9-.338l4.264-4.948a7,7,0,0,1,4.3-2.36l1.922-.277,7.1,5.261a1,1,0,0,0,1.191,0l7-5.191,3.225.537A4.986,4.986,0,0,1,57,38.083V53a1,1,0,0,0,2,0V38.083a6.978,6.978,0,0,0-5.849-6.9l-3.644-.608A2.99,2.99,0,0,1,47,27.611v-.633A4.923,4.923,0,0,0,50,28a4.994,4.994,0,0,0,3.658-8.4A7.052,7.052,0,0,0,55,15a13.028,13.028,0,0,0-1.615-6.283,1,1,0,1,0-1.751.967A11.011,11.011,0,0,1,53,15a4.923,4.923,0,0,1-1.033,3.48A4.016,4.016,0,0,0,52,18a3.006,3.006,0,0,0-2.39-2.938L48.694,13.5a1,1,0,0,0-.863-.5,20.056,20.056,0,0,1-10.315-2.856,1,1,0,0,0-1.348.3l-.891,1.336A2.728,2.728,0,0,1,33,13a1,1,0,1,0,0,2,4.726,4.726,0,0,0,3.941-2.109l.373-.56a22.059,22.059,0,0,0,9.939,2.661l.884,1.513A1,1,0,0,0,49,17a1,1,0,0,1,1,1,1.994,1.994,0,0,1-1.364,1.883,1,1,0,0,0-.674.845A7,7,0,0,1,34,20V18a1,1,0,0,0-2,0v.44A4.944,4.944,0,0,1,31,15,11,11,0,0,1,49.351,6.813a1,1,0,1,0,1.338-1.486A13,13,0,0,0,29,15c0,2.939,1.007,4.879,3.05,5.943a9.012,9.012,0,0,0,4.9,7.085A3.014,3.014,0,0,1,34.428,30.5l-2.328.34a9.006,9.006,0,0,0-5.535,3.034l-3.25,3.772-2.686-5.808a.973.973,0,0,0-.2-.274l.017-.012A3.506,3.506,0,0,1,19.81,29.5l3.372-1.521a1,1,0,0,0,.455-1.412l-3.5-6.062a1,1,0,0,0-1.449-.312l-1.285.923a3.006,3.006,0,0,0-3.728-.591l-.865.5a3,3,0,0,0-1.1,4.1l.035.061-1.219.876a1,1,0,0,0-.282,1.311ZM50,26a2.936,2.936,0,0,1-1.785-.616,8.935,8.935,0,0,0,1.628-3.729,8.065,8.065,0,0,0,2.241-.783A2.962,2.962,0,0,1,53,23a3,3,0,0,1-3,3Zm-9,3a9,9,0,0,0,4.039-.955,4.956,4.956,0,0,0,2.275,3.77L42,35.755l-5.379-3.986a5.026,5.026,0,0,0,2.215-3.043A8.984,8.984,0,0,0,41,29ZM18.328,31.864l-2.317,1.224-.611-1.6,2.486-1.122a5.425,5.425,0,0,0,.442,1.5Zm.628-9.407,2.4,4.148-7.329,3.307-1.6-2.762.57-.41a2.016,2.016,0,0,0,.948.243,1.988,1.988,0,0,0,1-.267l2.6-1.5a2,2,0,0,0,.892-2.382Zm-5.148.3.865-.5a1,1,0,0,1,1.366.366l.5.865-2.6,1.5h0l-.5-.865a1,1,0,0,1,.369-1.366Z" fill="#001a58"/>
      <path id="Trazado_972715" data-name="Trazado 972715" d="M61,60H3a1,1,0,0,0,0,2H61a1,1,0,0,0,0-2Z" fill="#001a58"/>
      <path id="Trazado_972716" data-name="Trazado 972716" d="M3,58H61a1,1,0,0,0,0-2H53V42a1,1,0,0,0-2,0V56H31V41.021a1,1,0,0,0-1.707-.708l-4.214,4.214a3,3,0,0,1-4.906-1.005,1,1,0,0,0-1.857.745,5,5,0,0,0,8.177,1.674L29,43.435V56H14V47a3,3,0,0,0-1-2.225V42a1,1,0,0,0-1-1H7a1,1,0,0,0-1,1v2.775A3,3,0,0,0,5,47v6a1,1,0,0,0,2,0V47a.988.988,0,0,1,.5-.858,1,1,0,0,0,.5-.865V43h3v2.277a1,1,0,0,0,.5.865A.988.988,0,0,1,12,47v9H3a1,1,0,0,0,0,2Z" fill="#001a58"/>
    </g>
  </g>
</svg>
