<svg xmlns="http://www.w3.org/2000/svg" xmlns:xlink="http://www.w3.org/1999/xlink" width="184" height="149" viewBox="0 0 184 149">
  <defs>
    <clipPath id="clip-path">
      <rect id="Rect치ngulo_416730" data-name="Rect치ngulo 416730" width="157.411" height="104.043" fill="none"/>
    </clipPath>
  </defs>
  <g id="Grupo_1119342" data-name="Grupo 1119342" transform="translate(-1203.711 -2355)">
    <rect id="Rect치ngulo_416006" data-name="Rect치ngulo 416006" width="184" height="149" transform="translate(1203.711 2355)" fill="#8bc34a"/>
    <g id="Grupo_1119341" data-name="Grupo 1119341" transform="translate(1217.005 2378.492)">
      <g id="Grupo_1119340" data-name="Grupo 1119340" transform="translate(0 0)" clip-path="url(#clip-path)">
        <path id="Trazado_970189" data-name="Trazado 970189" d="M84.81,98.8l-69.481.4C-19.756,60.646,29.48,60.462,28.083,40.459,24.754-7.162,95.905-7.162,108.725,20.745c9.785,21.3,4.606,19.641,21.5,32.312,23.331,17.5,9.015,38.463.389,46.31Z" transform="translate(0.977 0.65)" fill="#d6f2e7"/>
        <path id="Trazado_970190" data-name="Trazado 970190" d="M94.778,74.291c-5.5-3.033-18.132-10.149-6.388-19.069s-.92-19.232-2.255-27.435c-.924-5.674,2.583-9.713,11.571-9.713s19.719,16.305,15.677,22.79,5.787,5.616,8.63,6.393c4.8,1.313,8.817,8.778-.924,14.269-11.221,6.323,1.43,1.5,1.576,6.666.134,4.74-4.635,8.958-11.9,8.553s-10.846.375-15.986-2.455" transform="translate(30.347 6.565)" fill="#bee4d7"/>
        <path id="Trazado_970191" data-name="Trazado 970191" d="M98.715,87.466s7.29-38.924-4.779-58.581c0,0,3.629,2.751,8.523,15.453,3.842,9.977,4.635,34.184,1.776,43.128Z" transform="translate(34.118 10.491)" fill="#9bc2e0"/>
        <path id="Trazado_970192" data-name="Trazado 970192" d="M39.427,62.135c4.609-17.685-23.971-7.654-9.737-18.467S35,23.7,33.385,13.758C32.265,6.88,37.75,0,48.645,0S66.881,13.758,61.981,21.619,69,28.424,72.44,29.368c5.82,1.592,10.69,10.64-1.118,17.3-13.6,7.665,1.733,1.821,1.908,8.084.162,5.743-5.618,10.858-14.425,10.366s-21.172,3.908-19.378-2.977" transform="translate(9.327 0)" fill="#bee4d7"/>
        <path id="Trazado_970193" data-name="Trazado 970193" d="M47.512,79.608S53,32.527,38.369,8.7c0,0,4.4,3.337,10.33,18.735,4.657,12.093,5.618,41.436,2.151,52.272Z" transform="translate(13.936 3.158)" fill="#9bc2e0"/>
        <path id="Trazado_970194" data-name="Trazado 970194" d="M71.217,58.465c3.776-14.484-19.63-6.271-7.975-15.126s4.351-16.35,3.028-24.494c-.919-5.634,3.573-11.268,12.5-11.268S93.7,18.844,89.687,25.284s-.432,10.752,2.391,11.52c4.766,1.3,7.386,6.707,7.529,11.835.134,4.7-5.306,12.666-12.518,12.263s-17.341,3.2-15.872-2.439" transform="translate(21.777 2.751)" fill="#bee4d7"/>
        <path id="Trazado_970195" data-name="Trazado 970195" d="M75.094,72.853S82.331,34.214,70.35,14.7c0,0,3.6,2.729,8.461,15.342,3.812,9.9,4.6,33.933,1.763,42.81Z" transform="translate(25.552 5.339)" fill="#9bc2e0"/>
        <path id="Trazado_970196" data-name="Trazado 970196" d="M11.958,74C6.457,70.963-7.094,61.247,4.65,52.328s3.657-10.04,2.324-18.242c-.924-5.674,3.6-11.351,12.588-11.351s15.043,11.351,11,17.836,5.785,5.616,8.629,6.393c4.8,1.313,8.817,8.778-.924,14.269-11.221,6.323,1.43,1.5,1.576,6.666.134,4.74-4.635,8.958-11.9,8.553S17.1,76.826,11.958,74" transform="translate(0 8.257)" fill="#bee4d7"/>
        <path id="Trazado_970197" data-name="Trazado 970197" d="M15.7,88.488S22.99,49.567,10.92,29.91c0,0,3.629,2.751,8.523,15.453,3.842,9.977,4.635,34.184,1.776,43.125Z" transform="translate(3.966 10.863)" fill="#9bc2e0"/>
        <path id="Trazado_970198" data-name="Trazado 970198" d="M51.224,18.945s-4.35,5.847-3.576,11.559S46.4,28.881,46.4,28.881a18.442,18.442,0,0,1,4.819-9.936" transform="translate(16.855 6.881)" fill="#9bc2e0"/>
        <path id="Trazado_970199" data-name="Trazado 970199" d="M56.125,27.859s-6.843,6.785-6.955,14.4S47.863,39.9,47.863,39.9s1.465-6.425,8.262-12.037" transform="translate(17.384 10.118)" fill="#9bc2e0"/>
        <path id="Trazado_970200" data-name="Trazado 970200" d="M39.182,24s7.708,5.78,8.864,13.308.969-2.522.969-2.522S46.685,28.629,39.182,24" transform="translate(14.231 8.718)" fill="#9bc2e0"/>
        <path id="Trazado_970201" data-name="Trazado 970201" d="M33.52,13.139s9.417,2.031,13.616,8.386-.173-2.694-.173-2.694-4.694-4.623-13.443-5.693" transform="translate(12.175 4.772)" fill="#9bc2e0"/>
        <path id="Trazado_970202" data-name="Trazado 970202" d="M68.5,34.9s8.129,5.168,9.864,12.585.773-2.587.773-2.587-2.8-5.964-10.637-10" transform="translate(24.879 12.677)" fill="#9bc2e0"/>
        <path id="Trazado_970203" data-name="Trazado 970203" d="M68.832,24.291s8.129,5.168,9.861,12.585.773-2.587.773-2.587-2.8-5.964-10.634-10" transform="translate(25 8.822)" fill="#9bc2e0"/>
        <path id="Trazado_970204" data-name="Trazado 970204" d="M68.082,18.361s8.129,5.171,9.861,12.588.773-2.587.773-2.587-2.8-5.964-10.634-10" transform="translate(24.728 6.668)" fill="#9bc2e0"/>
        <path id="Trazado_970205" data-name="Trazado 970205" d="M88.352,30.41S80.222,35.578,78.491,43s-.774-2.587-.774-2.587,2.8-5.964,10.636-10" transform="translate(28.131 11.045)" fill="#9bc2e0"/>
        <path id="Trazado_970206" data-name="Trazado 970206" d="M91.446,32.756s8.129,5.171,9.86,12.588.773-2.587.773-2.587-2.8-5.964-10.633-10" transform="translate(33.214 11.897)" fill="#9bc2e0"/>
        <path id="Trazado_970207" data-name="Trazado 970207" d="M92.965,43.588s8.129,5.171,9.864,12.588.773-2.587.773-2.587-2.8-5.964-10.637-10" transform="translate(33.766 15.831)" fill="#9bc2e0"/>
        <path id="Trazado_970208" data-name="Trazado 970208" d="M111.864,40.787S103.735,45.958,102,53.372s-.773-2.587-.773-2.587,2.8-5.964,10.637-10" transform="translate(36.67 14.814)" fill="#9bc2e0"/>
        <path id="Trazado_970209" data-name="Trazado 970209" d="M92.965,43.588s8.129,5.171,9.864,12.588.773-2.587.773-2.587-2.8-5.964-10.637-10" transform="translate(33.766 15.831)" fill="#9bc2e0"/>
        <path id="Trazado_970210" data-name="Trazado 970210" d="M8.231,36.029S16.363,41.2,18.1,48.614s.773-2.587.773-2.587-2.8-5.961-10.637-10" transform="translate(2.99 13.086)" fill="#9bc2e0"/>
        <path id="Trazado_970211" data-name="Trazado 970211" d="M23.379,39.986s-5.187,3.3-6.291,8.028-.493-1.651-.493-1.651a15.553,15.553,0,0,1,6.785-6.377" transform="translate(5.966 14.523)" fill="#9bc2e0"/>
        <path id="Trazado_970212" data-name="Trazado 970212" d="M143.553,73.185c0,2.375-5.439,5.428-58.249,5.428S10.885,76.75,10.885,74.378,32.5,70.014,85.3,70.014s58.249.791,58.249,3.171" transform="translate(3.954 25.429)" fill="#bee4d7"/>
        <path id="Trazado_970213" data-name="Trazado 970213" d="M14.031,79.164s15.644-27.845,58.861-28.4c36.252-.463,55.753,12.641,65.846,29.167,0,0-78.706,2.706-124.706-.769" transform="translate(5.096 18.434)" fill="#0a3c33"/>
        <path id="Trazado_970214" data-name="Trazado 970214" d="M12.459,74.873s10.336-6.906,16.633-4.662,13.361,4.86,20.174,2.3S65,61.878,74.544,63.646s17.056,8.925,27.68,8.866,8.895-.77,15.56-.868,17.2.639,21.77,3.887c0,0-63.487,5.626-127.095-.657" transform="translate(4.525 23.025)" fill="#9bc2e0"/>
        <path id="Trazado_970215" data-name="Trazado 970215" d="M116.783,75.125c-3.048-.258-6.081-.314-8.6-.277-6.663.1-4.939.812-15.56.868s-18.142-7.1-27.679-8.866-18.467,6.31-25.278,8.866c-.383.143-.765.266-1.148.378,32.837,1.262,62.151.019,78.265-.969" transform="translate(13.99 24.189)" fill="#b0d6ed"/>
        <path id="Trazado_970216" data-name="Trazado 970216" d="M25.692,67.409a48.862,48.862,0,0,1,21.49-11.95c13.591-3.4,32.922-4.649,47.824-.495,16.063,4.475,36.748,15.752,25.457,16.537-12.8.894-21.015-2.964-28.836-2.59-19.353.923-18-9.4-27.471-7.162s-15.682,11.127-22.984,11.2-18.666-.623-15.479-5.54" transform="translate(9.131 19.011)" fill="#072d26"/>
        <path id="Trazado_970217" data-name="Trazado 970217" d="M67.245,74.649S59.026,50.221,78.031,39.887C94.163,31.119,91.724,21.7,91.724,21.7s12.4,25.244-.528,40.236c-9.087,10.538-21.535,12.3-23.952,12.708" transform="translate(23.782 7.883)" fill="#519d45"/>
        <path id="Trazado_970218" data-name="Trazado 970218" d="M91.208,22.191S94.4,69.462,67.025,75.263l-1.455-.916s26.054-7.674,25.638-52.156" transform="translate(23.816 8.06)" fill="#0a3c33"/>
        <path id="Trazado_970219" data-name="Trazado 970219" d="M76.237,38.328S81.559,46.7,79.2,54.609s2.215-2.188,2.215-2.188.487-6.944-5.173-14.093" transform="translate(27.69 13.921)" fill="#0a3c33"/>
        <path id="Trazado_970220" data-name="Trazado 970220" d="M89.715,46.4s-8.179,2.556-11.388,8.523-.06-2.4-.06-2.4A21.659,21.659,0,0,1,89.715,46.4" transform="translate(27.926 16.854)" fill="#0a3c33"/>
        <path id="Trazado_970221" data-name="Trazado 970221" d="M87.306,54.865s-8.651-.165-13.951,4.422.864-2.271.864-2.271a23.237,23.237,0,0,1,13.087-2.151" transform="translate(25.862 19.871)" fill="#0a3c33"/>
        <path id="Trazado_970222" data-name="Trazado 970222" d="M70.789,44.068s5.327,8.374,2.961,16.284,2.215-2.191,2.215-2.191.487-6.941-5.176-14.093" transform="translate(25.711 16.005)" fill="#0a3c33"/>
        <path id="Trazado_970223" data-name="Trazado 970223" d="M90.544,34.843s-24.783,7.071-34.219-12.4C48.319,5.922,38.8,7.922,38.8,7.922s25.795-11.21,40.167,2.4c10.1,9.568,11.283,22.083,11.576,24.519" transform="translate(14.093 1.301)" fill="#519d45"/>
        <path id="Trazado_970224" data-name="Trazado 970224" d="M39.27,7.142s47.369-.986,51.888,26.633l-.986,1.408S83.723,8.8,39.27,7.142" transform="translate(14.263 2.592)" fill="#0a3c33"/>
        <path id="Trazado_970225" data-name="Trazado 970225" d="M55.01,17.239s8.61-4.928,16.4-2.2-2.084-2.315-2.084-2.315-6.911-.811-14.316,4.511" transform="translate(19.98 4.606)" fill="#0a3c33"/>
        <path id="Trazado_970226" data-name="Trazado 970226" d="M63.547,6.354s2.17,8.286,7.982,11.771-2.4-.05-2.4-.05A21.659,21.659,0,0,1,63.547,6.354" transform="translate(23.081 2.307)" fill="#0a3c33"/>
        <path id="Trazado_970227" data-name="Trazado 970227" d="M71.888,10.022s-.567,8.635,3.768,14.143-2.229-.969-2.229-.969a23.236,23.236,0,0,1-1.539-13.174" transform="translate(25.997 3.64)" fill="#0a3c33"/>
        <path id="Trazado_970228" data-name="Trazado 970228" d="M60.488,22.947s8.613-4.931,16.406-2.2-2.087-2.315-2.087-2.315-6.909-.811-14.319,4.511" transform="translate(21.97 6.68)" fill="#0a3c33"/>
        <path id="Trazado_970229" data-name="Trazado 970229" d="M39.323,17.594s22.245,13.015,14.71,33.292c-6.4,17.208,1.626,22.7,1.626,22.7S29.724,62.708,29.618,42.912C29.54,29,37.767,19.493,39.323,17.594" transform="translate(10.757 6.39)" fill="#519d45"/>
        <path id="Trazado_970230" data-name="Trazado 970230" d="M54.363,73.033S20.892,39.5,37.717,17.136l1.7-.263s-14.6,22.9,14.948,56.16" transform="translate(11.981 6.128)" fill="#0a3c33"/>
        <path id="Trazado_970231" data-name="Trazado 970231" d="M48.067,44.028S38.551,41.216,35.136,33.7s-.229,3.107-.229,3.107,4.193,5.554,13.16,7.224" transform="translate(12.188 11.262)" fill="#0a3c33"/>
        <path id="Trazado_970232" data-name="Trazado 970232" d="M31.311,45.461s4.484-7.3,2.98-13.906,1.626,1.771,1.626,1.771a21.682,21.682,0,0,1-4.606,12.135" transform="translate(11.372 10.539)" fill="#0a3c33"/>
        <path id="Trazado_970233" data-name="Trazado 970233" d="M28.25,36.6s6.627-5.562,7.612-12.5.838,2.279.838,2.279A23.231,23.231,0,0,1,28.25,36.6" transform="translate(10.261 7.812)" fill="#0a3c33"/>
        <path id="Trazado_970234" data-name="Trazado 970234" d="M48.4,36.121s-9.518-2.812-12.934-10.33-.224,3.107-.224,3.107,4.191,5.554,13.158,7.224" transform="translate(12.309 8.39)" fill="#0a3c33"/>
        <path id="Trazado_970235" data-name="Trazado 970235" d="M67.4,36.218s3.453-.274,2.71.562-1.408.86-3.118.413Z" transform="translate(24.333 13.139)" fill="#f27851"/>
        <path id="Trazado_970236" data-name="Trazado 970236" d="M59.444,28.962c-.484-.365-2.146-.871-2.358.461-.339,2.123,2.83,6.933,4.02,7.972s9.7,2.694,9.7,2.694a.936.936,0,0,0,.26-1.283l-7.747-4.362s-2.21-4.222-3.872-5.481" transform="translate(20.725 10.371)" fill="#4f29aa"/>
        <path id="Trazado_970237" data-name="Trazado 970237" d="M68.619,56.261c.451-.86.4-.964.173-1.148a6.459,6.459,0,0,0-.654-.447l1.163-1.16a6.9,6.9,0,0,1,.912,1.182c-.072.157-.62,1.408-1.594,1.573" transform="translate(24.748 19.433)" fill="#ee9d7f"/>
        <path id="Trazado_970238" data-name="Trazado 970238" d="M70.194,54.381a.076.076,0,0,1,.011-.029c1.048.968-.552,2.079-1.555,2.486s-.05-.885-.05-.885c.975-.165,1.523-1.416,1.595-1.573" transform="translate(24.767 19.741)" fill="#7585f8"/>
        <path id="Trazado_970239" data-name="Trazado 970239" d="M53.871,40.854A24.883,24.883,0,0,0,56.3,45.349c4.042,5.213,4.117,4.372,5.344,5.754,2.083,2.356,7.509,8.04,11.819,10.208.5.252,1.726-1.179,1.385-1.8-2.29-4.167-3.251-6.076-7.146-9.589a33.753,33.753,0,0,0-1.489-5.783c-.932-2.034-3.377-6.783-5.74-8.147Z" transform="translate(19.566 13.073)" fill="#ed2051"/>
        <path id="Trazado_970240" data-name="Trazado 970240" d="M55.141,61.282c.883-.419.9-.536.833-.818a5.5,5.5,0,0,0-.258-.75l1.629-.229a7.055,7.055,0,0,1,.016,1.49,2.634,2.634,0,0,1-2.221.307" transform="translate(20.028 21.605)" fill="#ee9d7f"/>
        <path id="Trazado_970241" data-name="Trazado 970241" d="M57.588,60.582l.027-.014c.263,1.411-1.689,1.332-2.735,1.055s.487-.735.487-.735a2.639,2.639,0,0,0,2.221-.307" transform="translate(19.801 21.998)" fill="#7585f8"/>
        <path id="Trazado_970242" data-name="Trazado 970242" d="M53.245,39.252a25.09,25.09,0,0,0-.757,5.051c.1,6.6.664,5.969.815,7.813.251,3.133,1.179,10.937,3.318,15.258.255.506,2.09.1,2.191-.609.673-4.706,1.047-6.808.045-11.955a33.632,33.632,0,0,0,2.282-5.517c.477-2.185,1.374-7.455.3-9.962Z" transform="translate(19.064 14.256)" fill="#ff2e56"/>
        <path id="Trazado_970243" data-name="Trazado 970243" d="M56.051,29.671c-1.581,1.276-2.878,4.308-3.285,14.149-.086,2.159,12.453,2.372,12.445.21-.03-5.766-1.067-8.115-2.846-13.267-.477-1.4-3.182-3.629-6.313-1.092" transform="translate(19.165 10.357)" fill="#6737c1"/>
        <path id="Trazado_970244" data-name="Trazado 970244" d="M49.4,21.159s.684-2.578.025-1.952-1.092.5-.789,2.237Z" transform="translate(17.628 6.94)" fill="#f27851"/>
        <path id="Trazado_970245" data-name="Trazado 970245" d="M58.308,34.072c.271.517,0,2.031-1.824,2.031-1.645,0-5.336-4.156-6.1-5.453s-1.843-9.9-1.843-9.9a.606.606,0,0,1,1-.091l3.176,8.177s4.665,3.438,5.595,5.235" transform="translate(17.629 7.418)" fill="#4f29aa"/>
        <path id="Trazado_970246" data-name="Trazado 970246" d="M57.576,22.747c-1.679.556-3.738,2.143-2.425,6.385.908,2.931,4.283.487,4.283.487s2.2-8.219-1.858-6.872" transform="translate(19.88 8.207)" fill="#f27851"/>
        <path id="Trazado_970247" data-name="Trazado 970247" d="M55.7,27.889a3.661,3.661,0,0,1,.195,2.173c-.32.964,2.392.972,3.029.548s-.687-1.326.153-3.5c.752-1.963-3.377.782-3.377.782" transform="translate(20.233 9.588)" fill="#f27851"/>
        <path id="Trazado_970248" data-name="Trazado 970248" d="M54.951,24.166s-.874,1.866,1.43,2.413c2.913.694-.288,4.781,3.626,4.92,1.515.053.514-.245,1.382-1.952,1.2-2.364.668-7.928-2.527-7.931-2.162,0-3.762,1.562-3.911,2.551" transform="translate(19.9 7.85)" fill="#39021f"/>
        <path id="Trazado_970249" data-name="Trazado 970249" d="M58.1,23.065a3.031,3.031,0,0,1,2.841-1.744c2.531.207,4.718,4.265,3.653,7.406-.387,1.145-.131,2.245,1.827,2.312,4.244.149,5.045,5.914,1.66,7.247-4.584,1.8-7.04-.26-8.562-3s.226-4.246-1.9-7.319c-1.408-2.045-.5-3.084.477-4.9" transform="translate(20.665 7.74)" fill="#39021f"/>
      </g>
    </g>
  </g>
</svg>
