<svg id="Layer_29" xmlns="http://www.w3.org/2000/svg" width="59.835" height="59.82" viewBox="0 0 59.835 59.82">
  <g id="Grupo_1116102" data-name="Grupo 1116102" transform="translate(0 0)">
    <g id="Grupo_1116097" data-name="Grupo 1116097" transform="translate(0 7.365)">
      <g id="Grupo_1116084" data-name="Grupo 1116084" transform="translate(5.227)">
        <g id="Grupo_1116077" data-name="Grupo 1116077">
          <circle id="Elipse_13509" data-name="Elipse 13509" cx="24.015" cy="24.015" r="24.015" transform="translate(0.702 0.685)" fill="#55bde3"/>
          <path id="Trazado_957194" data-name="Trazado 957194" d="M70.117,113.755a24.705,24.705,0,1,1,17.464-7.241,24.7,24.7,0,0,1-17.464,7.241Zm0-48.018A23.318,23.318,0,1,0,93.429,89.05,23.342,23.342,0,0,0,70.117,65.737Z" transform="translate(-45.4 -64.35)"/>
        </g>
        <g id="Grupo_1116083" data-name="Grupo 1116083" transform="translate(2.74 0.006)">
          <g id="Grupo_1116078" data-name="Grupo 1116078" transform="translate(28.999 11.535)">
            <path id="Trazado_957195" data-name="Trazado 957195" d="M344.556,183.133l-2.268,1.105L339.9,189.2l-7.621,1.876L328.6,186.3l4.006-5.56-.932-2.061,3.131-3.3h.092a5.132,5.132,0,0,0,1.439-.219l.576.092a4.956,4.956,0,0,0,.714.046,5.906,5.906,0,0,0,3.834-1.393A23.91,23.91,0,0,1,344.556,183.133Z" transform="translate(-327.737 -172.829)" fill="#2a8078"/>
            <path id="Trazado_957196" data-name="Trazado 957196" d="M325.383,183.63l-4.283-5.537,4.075-5.664-.956-2.118,3.661-3.868h.38a3.971,3.971,0,0,0,1.22-.184l.184-.058.184.035a3.582,3.582,0,0,0,.507.092,5.245,5.245,0,0,0,4.018-1.2l.633-.53.414.714a24.056,24.056,0,0,1,3.177,9.5l.058.5-2.487,1.22-2.418,5.042Zm-2.556-5.572,3.1,4.018,6.861-1.692,2.349-4.893,2.038-.99a23.14,23.14,0,0,0-2.567-7.817,6.608,6.608,0,0,1-3.615,1.071,6.308,6.308,0,0,1-.806-.046l-.449-.069a5.273,5.273,0,0,1-1.266.2l-2.613,2.751.909,2Z" transform="translate(-321.1 -164.6)"/>
          </g>
          <g id="Grupo_1116079" data-name="Grupo 1116079" transform="translate(2.924 0)">
            <path id="Trazado_957197" data-name="Trazado 957197" d="M119.837,77.7l2.774,6.205-.357,5.422-5.595,2.176-1.635-3.8-4.916.437-1.969-4.5a36.054,36.054,0,0,0-5.065-3.316,13.447,13.447,0,0,1-2.475-1.4h.012a24.046,24.046,0,0,1,22-8.254Z" transform="translate(-99.909 -69.704)" fill="#2a8078"/>
            <path id="Trazado_957198" data-name="Trazado 957198" d="M110.982,87.09l-1.7-3.949-4.916.426-2.1-4.789a34.992,34.992,0,0,0-4.789-3.131,12.746,12.746,0,0,1-2.6-1.485l-.276-.207v-.622l.184-.184A24.674,24.674,0,0,1,113.653,64.4a25.613,25.613,0,0,1,3.753.276l.852.138-2.982,7.575L118,78.479l-.4,6.032Zm-.829-5.411,1.577,3.638,4.547-1.773.322-4.812-2.82-6.309,2.556-6.493a23.421,23.421,0,0,0-20.008,7.552,13.7,13.7,0,0,0,1.727.909,37.8,37.8,0,0,1,5.2,3.4l.138.1,1.842,4.213Z" transform="translate(-94.6 -64.4)"/>
          </g>
          <g id="Grupo_1116080" data-name="Grupo 1116080" transform="translate(2.924)">
            <path id="Trazado_957199" data-name="Trazado 957199" d="M100.6,78.925a24.077,24.077,0,0,1,22.011-8.254L119.837,77.7l2.774,6.205-.357,5.422-5.595,2.176-1.635-3.8-4.916.437-1.969-4.5Z" transform="translate(-99.909 -69.704)" fill="#2a8078"/>
            <path id="Trazado_957200" data-name="Trazado 957200" d="M110.982,87.09l-1.7-3.949-4.916.426-2.072-4.755L94.6,74v-.668l.184-.184A24.674,24.674,0,0,1,113.653,64.4a25.614,25.614,0,0,1,3.753.276l.852.138-2.982,7.575L118,78.479l-.4,6.032Zm-.829-5.411,1.577,3.638,4.547-1.773.322-4.812-2.82-6.309,2.556-6.493A23.4,23.4,0,0,0,96.35,73.46l7.034,4.409,1.853,4.237Z" transform="translate(-94.6 -64.4)"/>
          </g>
          <g id="Grupo_1116081" data-name="Grupo 1116081" transform="translate(9.29 24.036)">
            <path id="Trazado_957201" data-name="Trazado 957201" d="M162.737,279.644s2.015-.207,2.786-.334c1.9-.334,5.653.53,5.653.53l1.531,4.916-1.75,1.635-1.75,4.179-.645,6.332-3.615,4.052s-.714-2.751-.863-3.96-.437-3.788-.437-3.788l-1.474-.829-1.462-3.868-3.811-1.232,1.347-6.032Z" transform="translate(-156.094 -278.537)" fill="#2a8078"/>
            <path id="Trazado_957202" data-name="Trazado 957202" d="M158.408,297.018l-.322-1.243c-.035-.115-.725-2.809-.875-4.041-.115-.932-.322-2.705-.4-3.454l-1.381-.771-1.439-3.8-4.087-1.324,1.566-7.022,4.916-1.75h.092c.012-.011,2-.219,2.74-.345,2.015-.345,5.756.507,5.917.541l.391.092,1.773,5.71-1.946,1.83-1.658,3.949-.656,6.447Zm-1.865-10.465,1.554.863.046.357c0,.023.288,2.6.437,3.788.081.633.322,1.738.53,2.6l2.6-2.9.622-6.217,1.853-4.409,1.531-1.439-1.278-4.121a17.342,17.342,0,0,0-5-.437c-.7.115-2.36.3-2.751.334l-4.052,1.439-1.117,5.042,3.523,1.14Z" transform="translate(-149.9 -273.186)"/>
          </g>
          <g id="Grupo_1116082" data-name="Grupo 1116082" transform="translate(0 19.962)">
            <path id="Trazado_957203" data-name="Trazado 957203" d="M77.8,247.641l2.038-2.441,2.625,1.22v3.9H81.3Z" transform="translate(-76.81 -244.348)" fill="#2a8078"/>
            <path id="Trazado_957204" data-name="Trazado 957204" d="M75.543,244.466h-2.1L69.2,241.208l2.844-3.408,3.5,1.635Zm-1.623-1.381h.242V240.31l-1.738-.806-1.243,1.485Z" transform="translate(-69.2 -237.8)"/>
          </g>
        </g>
      </g>
      <g id="Grupo_1116090" data-name="Grupo 1116090" transform="translate(30.568 24.803)">
        <g id="Grupo_1116085" data-name="Grupo 1116085" transform="translate(0 18.482)">
          <path id="Trazado_957205" data-name="Trazado 957205" d="M277.821,452.927l-2.348,1.163a2.312,2.312,0,0,1-2.774-1.255l-.967-2.153a2.8,2.8,0,0,1,1.243-3.615l1.278-.668" transform="translate(-270.801 -445.702)" fill="#ffc9a3"/>
          <path id="Trazado_957206" data-name="Trazado 957206" d="M269.515,449.51a2.987,2.987,0,0,1-2.728-1.75l-.967-2.164a3.506,3.506,0,0,1,1.554-4.5l1.278-.668a.672.672,0,0,1,.921.265.011.011,0,0,0,.011.012.683.683,0,0,1-.276.932.011.011,0,0,0-.012.012l-1.266.668a2.083,2.083,0,0,0-.944,2.717l.967,2.164a1.582,1.582,0,0,0,1.888.875l2.3-1.128a.69.69,0,0,1,.921.322.671.671,0,0,1-.3.909.011.011,0,0,0-.012.012l-2.406,1.174-.058.023A2.824,2.824,0,0,1,269.515,449.51Z" transform="translate(-265.523 -440.34)"/>
        </g>
        <g id="Grupo_1116086" data-name="Grupo 1116086" transform="translate(2.406 16.407)">
          <path id="Trazado_957207" data-name="Trazado 957207" d="M301.9,436.057l-2.763,1.784a2.921,2.921,0,0,1-3.776-1.2l-2.671-4.973a2.082,2.082,0,0,1,.771-2.774l.564-.345a2.089,2.089,0,0,1,2.867.737.011.011,0,0,0,.012.011l.622,1.094" transform="translate(-291.75 -427.575)" fill="#ffc9a3"/>
          <path id="Trazado_957208" data-name="Trazado 957208" d="M292.58,433.554a3.612,3.612,0,0,1-3.143-1.819h-.012l-2.671-4.985a2.77,2.77,0,0,1,1.025-3.7l.564-.334a2.77,2.77,0,0,1,3.8.932l.035.069.622,1.082a.691.691,0,1,1-1.2.691l-.622-1.094a1.376,1.376,0,0,0-.852-.645,1.349,1.349,0,0,0-1.071.15l-.564.334a1.383,1.383,0,0,0-.518,1.854l2.659,4.962a2.238,2.238,0,0,0,2.844.921l2.717-1.75a.691.691,0,1,1,.748,1.163l-2.8,1.8-.035.023A3.543,3.543,0,0,1,292.58,433.554Z" transform="translate(-286.424 -422.32)"/>
        </g>
        <g id="Grupo_1116087" data-name="Grupo 1116087" transform="translate(6.173 13.23)">
          <path id="Trazado_957209" data-name="Trazado 957209" d="M335.808,409.572l-3.108,2.015a3.294,3.294,0,0,1-4.271-1.347l-3-5.618a2.345,2.345,0,0,1,.863-3.131l.645-.391a2.369,2.369,0,0,1,3.223.817.042.042,0,0,1,.012.035l.714,1.232" transform="translate(-324.45 -400.077)" fill="#ffc9a3"/>
          <path id="Trazado_957210" data-name="Trazado 957210" d="M326,407.232a4.012,4.012,0,0,1-3.477-2v-.023l-3.016-5.618a3.044,3.044,0,0,1,1.117-4.052l.645-.38a3.024,3.024,0,0,1,4.156,1.036c.012.023.023.035.035.057l.714,1.232a.691.691,0,0,1-1.2.691l-.714-1.232a1.649,1.649,0,0,0-2.291-.6l-.633.38a1.658,1.658,0,0,0-.622,2.21l3.016,5.618a2.621,2.621,0,0,0,3.327,1.071l3.074-1.98a.691.691,0,1,1,.748,1.163l-3.154,2.026-.046.023A3.9,3.9,0,0,1,326,407.232Z" transform="translate(-319.142 -394.72)"/>
        </g>
        <g id="Grupo_1116088" data-name="Grupo 1116088" transform="translate(11.386 11.626)">
          <path id="Trazado_957211" data-name="Trazado 957211" d="M382.4,388.828l-1.5,5.8a3.635,3.635,0,0,1-3.154,2.717l-.253.023a3.618,3.618,0,0,1-3.35-1.52l-3.223-4.559a2.841,2.841,0,0,1,.541-3.845l.046-.035a2.834,2.834,0,0,1,3.983.437l.1.138,1.969,2.8" transform="translate(-369.717 -386.099)" fill="#ffc9a3"/>
          <path id="Trazado_957212" data-name="Trazado 957212" d="M371.84,392.774a4.349,4.349,0,0,1-3.546-1.83l-3.223-4.57a3.526,3.526,0,0,1,.679-4.778l.035-.034a3.527,3.527,0,0,1,5.088.725l1.969,2.786a.689.689,0,1,1-1.082.852c-.012-.023-.023-.035-.035-.058l-1.969-2.786a2.114,2.114,0,0,0-1.45-.886,2.168,2.168,0,0,0-1.646.449l-.035.035a2.141,2.141,0,0,0-.414,2.9l3.223,4.57a2.994,2.994,0,0,0,2.717,1.232l.253-.023a2.975,2.975,0,0,0,2.556-2.21l1.5-5.8a.685.685,0,0,1,.863-.449.694.694,0,0,1,.472.794l-1.5,5.8a4.365,4.365,0,0,1-3.753,3.235l-.242.023Z" transform="translate(-364.43 -380.789)"/>
        </g>
        <g id="Grupo_1116089" data-name="Grupo 1116089" transform="translate(17.39)">
          <path id="Trazado_957213" data-name="Trazado 957213" d="M427.845,294.5l4.329,4.973a4.836,4.836,0,0,1-1.117,6.735l-3.857,1.934a3.186,3.186,0,0,1-4.271-1.439c0-.012-.011-.012-.011-.023a3.086,3.086,0,0,1,1.094-3.9l2.5-2.164a16.358,16.358,0,0,0,.9-2.751A33.3,33.3,0,0,0,427.845,294.5Z" transform="translate(-421.925 -292.808)" fill="#ffc9a3"/>
          <path id="Trazado_957214" data-name="Trazado 957214" d="M420.436,296.159a3.945,3.945,0,0,1-1.266-.207,3.844,3.844,0,0,1-2.222-1.98,3.769,3.769,0,0,1,1.289-4.755l2.349-2.038a14.131,14.131,0,0,0,.806-2.475,30.381,30.381,0,0,0,.414-3.258l.127-1.646,5.457,6.263a5.2,5.2,0,0,1,.909,4.4,5.472,5.472,0,0,1-2.279,3.35l-3.857,1.934A3.779,3.779,0,0,1,420.436,296.159Zm2.59-13c-.081.622-.173,1.312-.288,1.842a18.147,18.147,0,0,1-.944,2.878l-.069.138-2.682,2.326a2.356,2.356,0,0,0-.84,3.028,2.4,2.4,0,0,0,1.416,1.266,2.481,2.481,0,0,0,1.923-.127l3.857-1.934a4.223,4.223,0,0,0,1.554-2.441,3.826,3.826,0,0,0-.668-3.246Z" transform="translate(-416.577 -279.8)"/>
        </g>
      </g>
      <g id="Grupo_1116096" data-name="Grupo 1116096" transform="translate(0 24.803)">
        <g id="Grupo_1116091" data-name="Grupo 1116091" transform="translate(21.542 18.484)">
          <path id="Trazado_957215" data-name="Trazado 957215" d="M193.2,452.927l2.36,1.163a2.3,2.3,0,0,0,2.763-1.255l.967-2.153a2.8,2.8,0,0,0-1.243-3.615l-1.278-.668" transform="translate(-192.5 -445.705)" fill="#ffc9a3"/>
          <path id="Trazado_957216" data-name="Trazado 957216" d="M190.846,449.532a2.825,2.825,0,0,1-.875-.127l-.058-.023-2.406-1.174a.7.7,0,0,1-.322-.921.707.707,0,0,1,.932-.322l2.3,1.128a1.6,1.6,0,0,0,1.9-.875l.956-2.164a2.082,2.082,0,0,0-.932-2.717l-1.278-.668a.71.71,0,0,1-.288-.944.686.686,0,0,1,.932-.276l1.278.668a3.506,3.506,0,0,1,1.554,4.5l-.967,2.164A2.969,2.969,0,0,1,190.846,449.532Z" transform="translate(-187.118 -440.364)"/>
        </g>
        <g id="Grupo_1116092" data-name="Grupo 1116092" transform="translate(16.019 16.398)">
          <path id="Trazado_957217" data-name="Trazado 957217" d="M145.1,436.057l2.763,1.784a2.917,2.917,0,0,0,3.776-1.2l2.671-4.973a2.071,2.071,0,0,0-.771-2.774l-.564-.345a2.089,2.089,0,0,0-2.867.737.011.011,0,0,1-.012.011l-.622,1.094" transform="translate(-144.414 -427.566)" fill="#ffc9a3"/>
          <path id="Trazado_957218" data-name="Trazado 957218" d="M143.82,433.485a3.543,3.543,0,0,1-1.531-.345l-.035-.023-2.8-1.8a.691.691,0,1,1,.748-1.163l2.717,1.75a2.238,2.238,0,0,0,2.844-.921l2.659-4.973a1.39,1.39,0,0,0-.507-1.853l-.576-.334a1.316,1.316,0,0,0-1.059-.15,1.43,1.43,0,0,0-.863.645l-.622,1.094a.671.671,0,0,1-.921.265c-.012,0-.012-.012-.023-.012a.684.684,0,0,1-.253-.944l.622-1.082a2.756,2.756,0,0,1,3.764-1.036l.069.034.564.334a2.77,2.77,0,0,1,1.025,3.7l-2.682,5A3.612,3.612,0,0,1,143.82,433.485Z" transform="translate(-139.139 -422.242)"/>
        </g>
        <g id="Grupo_1116093" data-name="Grupo 1116093" transform="translate(11.045 13.232)">
          <path id="Trazado_957219" data-name="Trazado 957219" d="M101.9,409.536l3.108,2.015a3.294,3.294,0,0,0,4.271-1.347l3.016-5.618a2.359,2.359,0,0,0-.875-3.131l-.633-.391a2.365,2.365,0,0,0-3.235.829c0,.012-.012.012-.012.023l-.7,1.232" transform="translate(-101.214 -400.043)" fill="#ffc9a3"/>
          <path id="Trazado_957220" data-name="Trazado 957220" d="M101.126,407.248a3.9,3.9,0,0,1-1.681-.38l-.046-.023-3.143-2.026a.691.691,0,1,1,.748-1.163l3.062,1.98a2.6,2.6,0,0,0,3.327-1.071l3.016-5.618a1.668,1.668,0,0,0-.61-2.21l-.645-.38a1.652,1.652,0,0,0-2.268.553.087.087,0,0,0-.023.046l-.7,1.232a.7.7,0,0,1-1.209-.691l.714-1.232a3.032,3.032,0,0,1,4.133-1.128c.023.012.035.023.058.034l.645.38a3.055,3.055,0,0,1,1.128,4.052l-3.028,5.641A4.012,4.012,0,0,1,101.126,407.248Z" transform="translate(-95.939 -394.739)"/>
        </g>
        <g id="Grupo_1116094" data-name="Grupo 1116094" transform="translate(4.504 11.631)">
          <path id="Trazado_957221" data-name="Trazado 957221" d="M45.1,388.828l1.5,5.8a3.635,3.635,0,0,0,3.154,2.717l.253.023a3.618,3.618,0,0,0,3.35-1.52l3.223-4.559a2.841,2.841,0,0,0-.541-3.845l-.046-.035a2.834,2.834,0,0,0-3.983.437l-.1.138-1.969,2.8" transform="translate(-44.411 -386.104)" fill="#ffc9a3"/>
          <path id="Trazado_957222" data-name="Trazado 957222" d="M45.079,392.815l-.437-.023-.253-.023a4.365,4.365,0,0,1-3.753-3.235l-1.5-5.8a.7.7,0,1,1,1.347-.345l1.485,5.8a2.975,2.975,0,0,0,2.556,2.21l.253.023A2.994,2.994,0,0,0,47.5,390.19l3.223-4.57a2.141,2.141,0,0,0-.414-2.9l-.035-.035a2.149,2.149,0,0,0-3.1.438l-1.969,2.786a.685.685,0,0,1-.956.173.7.7,0,0,1-.173-.967l1.969-2.786a3.55,3.55,0,0,1,4.927-.852.868.868,0,0,1,.161.127l.035.035a3.526,3.526,0,0,1,.679,4.778l-3.223,4.57a4.349,4.349,0,0,1-3.546,1.83Z" transform="translate(-39.117 -380.834)"/>
        </g>
        <g id="Grupo_1116095" data-name="Grupo 1116095">
          <path id="Trazado_957223" data-name="Trazado 957223" d="M11.293,294.5l-4.34,4.973a4.836,4.836,0,0,0,1.128,6.735l3.857,1.934A3.173,3.173,0,0,0,16.2,306.7a.04.04,0,0,1,.012-.023,3.07,3.07,0,0,0-1.082-3.9l-2.51-2.164a16.354,16.354,0,0,1-.9-2.751,32.017,32.017,0,0,1-.426-3.362Z" transform="translate(-5.329 -292.808)" fill="#ffc9a3"/>
          <path id="Trazado_957224" data-name="Trazado 957224" d="M8.007,296.159a3.7,3.7,0,0,1-1.715-.414L2.436,293.81a5.433,5.433,0,0,1-2.291-3.35,5.241,5.241,0,0,1,.909-4.4l.046-.046L6.511,279.8l.127,1.646c.012.023.173,2.118.414,3.258a17.252,17.252,0,0,0,.806,2.475l2.348,2.038a3.752,3.752,0,0,1,1.289,4.755,3.844,3.844,0,0,1-2.222,1.98,3.945,3.945,0,0,1-1.266.207Zm-5.848-9.267a3.826,3.826,0,0,0-.668,3.246,4.222,4.222,0,0,0,1.566,2.441L6.9,294.513a2.493,2.493,0,0,0,3.339-1.117.04.04,0,0,1,.012-.023,2.381,2.381,0,0,0-.84-3.028l-.081-.057L6.718,288.02l-.069-.138A18.151,18.151,0,0,1,5.705,285c-.115-.53-.207-1.22-.288-1.842Z" transform="translate(0.006 -279.8)"/>
        </g>
      </g>
    </g>
    <g id="Grupo_1116099" data-name="Grupo 1116099" transform="translate(15.277 0)">
      <g id="Grupo_1116098" data-name="Grupo 1116098">
        <path id="Trazado_957225" data-name="Trazado 957225" d="M146.118,6a5.988,5.988,0,0,0-5.48,3.58,4.674,4.674,0,0,0,2.751,8.45,4.62,4.62,0,0,0,1.428-.219,6.165,6.165,0,0,0,1.3.138,5.975,5.975,0,1,0,0-11.95Z" transform="translate(-138.025 -5.353)" fill="#719b29"/>
        <path id="Trazado_957226" data-name="Trazado 957226" d="M138.065,13.746a5.364,5.364,0,0,1-3.3-9.59,6.64,6.64,0,1,1,4.766,9.382A5.218,5.218,0,0,1,138.065,13.746Zm2.728-12.03a5.284,5.284,0,0,0-4.847,3.166.6.6,0,0,1-.23.276,4,4,0,0,0,3.569,7.022.631.631,0,0,1,.357-.023,5.511,5.511,0,0,0,1.151.127,5.284,5.284,0,1,0,0-10.568Z" transform="translate(-132.7 -0.377)"/>
      </g>
      <path id="Trazado_957227" data-name="Trazado 957227" d="M190.8,58.3h1.381V71.435H190.8Z" transform="translate(-184.111 -51.632)"/>
      <path id="Trazado_957228" data-name="Trazado 957228" d="M0,0H4.156V1.381H0Z" transform="translate(6.909 10.231) rotate(-40.782)"/>
      <path id="Trazado_957229" data-name="Trazado 957229" d="M0,0H1.381V2.429H0Z" transform="translate(4.917 8.172) rotate(-61.719)"/>
    </g>
    <g id="Grupo_1116101" data-name="Grupo 1116101" transform="translate(38.761 8.727)">
      <g id="Grupo_1116100" data-name="Grupo 1116100">
        <path id="Trazado_957230" data-name="Trazado 957230" d="M356.071,88.08a5.97,5.97,0,0,1-5.975,5.975,4.954,4.954,0,0,1-.714-.046l-.576-.092a5.132,5.132,0,0,1-1.439.219h-.092a4.673,4.673,0,0,1-2.659-8.45,5.975,5.975,0,0,1,11.455,2.395Z" transform="translate(-342.002 -81.412)" fill="#719b29"/>
        <path id="Trazado_957231" data-name="Trazado 957231" d="M342.057,89.6h-.115a5.364,5.364,0,0,1-3.189-9.59,6.669,6.669,0,1,1,6.044,9.509,6.3,6.3,0,0,1-.806-.046l-.449-.069A5.98,5.98,0,0,1,342.057,89.6Zm2.728-12.03a5.308,5.308,0,0,0-4.847,3.166.73.73,0,0,1-.219.276,3.984,3.984,0,0,0,2.256,7.207h.081a3.97,3.97,0,0,0,1.22-.184.665.665,0,0,1,.368-.023,3.58,3.58,0,0,0,.507.092,5.284,5.284,0,0,0,1.209-10.5A4.826,4.826,0,0,0,344.785,77.565Z" transform="translate(-336.691 -76.181)"/>
      </g>
      <path id="Trazado_957232" data-name="Trazado 957232" d="M394.8,134.5h1.381v13.135H394.8Z" transform="translate(-388.11 -127.786)"/>
      <path id="Trazado_957233" data-name="Trazado 957233" d="M0,0H4.156V1.381H0Z" transform="translate(6.908 10.276) rotate(-40.782)"/>
      <path id="Trazado_957234" data-name="Trazado 957234" d="M0,0H1.381V2.429H0Z" transform="translate(4.92 8.205) rotate(-61.719)"/>
    </g>
  </g>
</svg>
