<svg xmlns="http://www.w3.org/2000/svg" xmlns:xlink="http://www.w3.org/1999/xlink" width="84.057" height="65.563" viewBox="0 0 84.057 65.563">
  <defs>
    <clipPath id="clip-path">
      <rect id="Rectángulo_411905" data-name="Rectángulo 411905" width="65.563" height="84.057" fill="#0042db"/>
    </clipPath>
  </defs>
  <g id="Grupo_1115810" data-name="Grupo 1115810" transform="translate(84.057) rotate(90)">
    <g id="Grupo_1114375" data-name="Grupo 1114375" transform="translate(0 0)" clip-path="url(#clip-path)">
      <path id="Trazado_914290" data-name="Trazado 914290" d="M2,1A1,1,0,1,1,1,0,1,1,0,0,1,2,1" transform="translate(0 -0.001)" fill="#0042db"/>
      <path id="Trazado_914291" data-name="Trazado 914291" d="M2,1A1,1,0,1,1,1,0,1,1,0,0,1,2,1" transform="translate(10.594 -0.001)" fill="#0042db"/>
      <path id="Trazado_914292" data-name="Trazado 914292" d="M2,1A1,1,0,1,1,1,0,1,1,0,0,1,2,1" transform="translate(21.188 -0.001)" fill="#0042db"/>
      <path id="Trazado_914293" data-name="Trazado 914293" d="M2,1A1,1,0,1,1,1,0,1,1,0,0,1,2,1" transform="translate(31.781 -0.001)" fill="#0042db"/>
      <path id="Trazado_914294" data-name="Trazado 914294" d="M2,1A1,1,0,1,1,1,0,1,1,0,0,1,2,1" transform="translate(42.375 -0.001)" fill="#0042db"/>
      <path id="Trazado_914295" data-name="Trazado 914295" d="M2,1A1,1,0,1,1,1,0,1,1,0,0,1,2,1" transform="translate(52.969 -0.001)" fill="#0042db"/>
      <path id="Trazado_914296" data-name="Trazado 914296" d="M2,1A1,1,0,1,1,1,0,1,1,0,0,1,2,1" transform="translate(63.563 -0.001)" fill="#0042db"/>
      <path id="Trazado_914297" data-name="Trazado 914297" d="M2,1A1,1,0,1,1,1,0,1,1,0,0,1,2,1" transform="translate(0 11.722)" fill="#0042db"/>
      <path id="Trazado_914298" data-name="Trazado 914298" d="M2,1A1,1,0,1,1,1,0,1,1,0,0,1,2,1" transform="translate(10.594 11.722)" fill="#0042db"/>
      <path id="Trazado_914299" data-name="Trazado 914299" d="M2,1A1,1,0,1,1,1,0,1,1,0,0,1,2,1" transform="translate(21.188 11.722)" fill="#0042db"/>
      <path id="Trazado_914300" data-name="Trazado 914300" d="M2,1A1,1,0,1,1,1,0,1,1,0,0,1,2,1" transform="translate(31.781 11.722)" fill="#0042db"/>
      <path id="Trazado_914301" data-name="Trazado 914301" d="M2,1A1,1,0,1,1,1,0,1,1,0,0,1,2,1" transform="translate(42.375 11.722)" fill="#0042db"/>
      <path id="Trazado_914302" data-name="Trazado 914302" d="M2,1A1,1,0,1,1,1,0,1,1,0,0,1,2,1" transform="translate(52.969 11.722)" fill="#0042db"/>
      <path id="Trazado_914303" data-name="Trazado 914303" d="M2,1A1,1,0,1,1,1,0,1,1,0,0,1,2,1" transform="translate(63.563 11.722)" fill="#0042db"/>
      <path id="Trazado_914304" data-name="Trazado 914304" d="M2,1A1,1,0,1,1,1,0,1,1,0,0,1,2,1" transform="translate(0 23.445)" fill="#0042db"/>
      <path id="Trazado_914305" data-name="Trazado 914305" d="M2,1A1,1,0,1,1,1,0,1,1,0,0,1,2,1" transform="translate(10.594 23.445)" fill="#0042db"/>
      <path id="Trazado_914306" data-name="Trazado 914306" d="M2,1A1,1,0,1,1,1,0,1,1,0,0,1,2,1" transform="translate(21.188 23.445)" fill="#0042db"/>
      <path id="Trazado_914307" data-name="Trazado 914307" d="M2,1A1,1,0,1,1,1,0,1,1,0,0,1,2,1" transform="translate(31.781 23.445)" fill="#0042db"/>
      <path id="Trazado_914308" data-name="Trazado 914308" d="M2,1A1,1,0,1,1,1,0,1,1,0,0,1,2,1" transform="translate(42.375 23.445)" fill="#0042db"/>
      <path id="Trazado_914309" data-name="Trazado 914309" d="M2,1A1,1,0,1,1,1,0,1,1,0,0,1,2,1" transform="translate(52.969 23.445)" fill="#0042db"/>
      <path id="Trazado_914310" data-name="Trazado 914310" d="M2,1A1,1,0,1,1,1,0,1,1,0,0,1,2,1" transform="translate(63.563 23.445)" fill="#0042db"/>
      <path id="Trazado_914311" data-name="Trazado 914311" d="M2,1A1,1,0,1,1,1,0,1,1,0,0,1,2,1" transform="translate(0 35.167)" fill="#0042db"/>
      <path id="Trazado_914312" data-name="Trazado 914312" d="M2,1A1,1,0,1,1,1,0,1,1,0,0,1,2,1" transform="translate(10.594 35.167)" fill="#0042db"/>
      <path id="Trazado_914313" data-name="Trazado 914313" d="M2,1A1,1,0,1,1,1,0,1,1,0,0,1,2,1" transform="translate(21.188 35.167)" fill="#0042db"/>
      <path id="Trazado_914314" data-name="Trazado 914314" d="M2,1A1,1,0,1,1,1,0,1,1,0,0,1,2,1" transform="translate(31.781 35.167)" fill="#0042db"/>
      <path id="Trazado_914315" data-name="Trazado 914315" d="M2,1A1,1,0,1,1,1,0,1,1,0,0,1,2,1" transform="translate(42.375 35.167)" fill="#0042db"/>
      <path id="Trazado_914316" data-name="Trazado 914316" d="M2,1A1,1,0,1,1,1,0,1,1,0,0,1,2,1" transform="translate(52.969 35.167)" fill="#0042db"/>
      <path id="Trazado_914317" data-name="Trazado 914317" d="M2,1A1,1,0,1,1,1,0,1,1,0,0,1,2,1" transform="translate(63.563 35.167)" fill="#0042db"/>
      <path id="Trazado_914318" data-name="Trazado 914318" d="M2,1A1,1,0,1,1,1,0,1,1,0,0,1,2,1" transform="translate(0 46.889)" fill="#0042db"/>
      <path id="Trazado_914319" data-name="Trazado 914319" d="M2,1A1,1,0,1,1,1,0,1,1,0,0,1,2,1" transform="translate(10.594 46.889)" fill="#0042db"/>
      <path id="Trazado_914320" data-name="Trazado 914320" d="M2,1A1,1,0,1,1,1,0,1,1,0,0,1,2,1" transform="translate(21.188 46.889)" fill="#0042db"/>
      <path id="Trazado_914321" data-name="Trazado 914321" d="M2,1A1,1,0,1,1,1,0,1,1,0,0,1,2,1" transform="translate(31.781 46.889)" fill="#0042db"/>
      <path id="Trazado_914322" data-name="Trazado 914322" d="M2,1A1,1,0,1,1,1,0,1,1,0,0,1,2,1" transform="translate(42.375 46.889)" fill="#0042db"/>
      <path id="Trazado_914323" data-name="Trazado 914323" d="M2,1A1,1,0,1,1,1,0,1,1,0,0,1,2,1" transform="translate(52.969 46.889)" fill="#0042db"/>
      <path id="Trazado_914324" data-name="Trazado 914324" d="M2,1A1,1,0,1,1,1,0,1,1,0,0,1,2,1" transform="translate(63.563 46.889)" fill="#0042db"/>
      <path id="Trazado_914325" data-name="Trazado 914325" d="M2,1A1,1,0,1,1,1,0,1,1,0,0,1,2,1" transform="translate(0 58.611)" fill="#0042db"/>
      <path id="Trazado_914326" data-name="Trazado 914326" d="M2,1A1,1,0,1,1,1,0,1,1,0,0,1,2,1" transform="translate(10.594 58.611)" fill="#0042db"/>
      <path id="Trazado_914327" data-name="Trazado 914327" d="M2,1A1,1,0,1,1,1,0,1,1,0,0,1,2,1" transform="translate(21.188 58.611)" fill="#0042db"/>
      <path id="Trazado_914328" data-name="Trazado 914328" d="M2,1A1,1,0,1,1,1,0,1,1,0,0,1,2,1" transform="translate(31.781 58.611)" fill="#0042db"/>
      <path id="Trazado_914329" data-name="Trazado 914329" d="M2,1A1,1,0,1,1,1,0,1,1,0,0,1,2,1" transform="translate(42.375 58.611)" fill="#0042db"/>
      <path id="Trazado_914330" data-name="Trazado 914330" d="M2,1A1,1,0,1,1,1,0,1,1,0,0,1,2,1" transform="translate(52.969 58.611)" fill="#0042db"/>
      <path id="Trazado_914331" data-name="Trazado 914331" d="M2,1A1,1,0,1,1,1,0,1,1,0,0,1,2,1" transform="translate(63.563 58.611)" fill="#0042db"/>
      <path id="Trazado_914332" data-name="Trazado 914332" d="M2,1A1,1,0,1,1,1,0,1,1,0,0,1,2,1" transform="translate(0 70.334)" fill="#0042db"/>
      <path id="Trazado_914333" data-name="Trazado 914333" d="M2,1A1,1,0,1,1,1,0,1,1,0,0,1,2,1" transform="translate(10.594 70.334)" fill="#0042db"/>
      <path id="Trazado_914334" data-name="Trazado 914334" d="M2,1A1,1,0,1,1,1,0,1,1,0,0,1,2,1" transform="translate(21.188 70.334)" fill="#0042db"/>
      <path id="Trazado_914335" data-name="Trazado 914335" d="M2,1A1,1,0,1,1,1,0,1,1,0,0,1,2,1" transform="translate(31.781 70.334)" fill="#0042db"/>
      <path id="Trazado_914336" data-name="Trazado 914336" d="M2,1A1,1,0,1,1,1,0,1,1,0,0,1,2,1" transform="translate(42.375 70.334)" fill="#0042db"/>
      <path id="Trazado_914337" data-name="Trazado 914337" d="M2,1A1,1,0,1,1,1,0,1,1,0,0,1,2,1" transform="translate(52.969 70.334)" fill="#0042db"/>
      <path id="Trazado_914338" data-name="Trazado 914338" d="M2,1A1,1,0,1,1,1,0,1,1,0,0,1,2,1" transform="translate(63.563 70.334)" fill="#0042db"/>
      <path id="Trazado_914339" data-name="Trazado 914339" d="M2,1A1,1,0,1,1,1,0,1,1,0,0,1,2,1" transform="translate(0 82.056)" fill="#0042db"/>
      <path id="Trazado_914340" data-name="Trazado 914340" d="M2,1A1,1,0,1,1,1,0,1,1,0,0,1,2,1" transform="translate(10.594 82.056)" fill="#0042db"/>
      <path id="Trazado_914341" data-name="Trazado 914341" d="M2,1A1,1,0,1,1,1,0,1,1,0,0,1,2,1" transform="translate(21.188 82.056)" fill="#0042db"/>
      <path id="Trazado_914342" data-name="Trazado 914342" d="M2,1A1,1,0,1,1,1,0,1,1,0,0,1,2,1" transform="translate(31.781 82.056)" fill="#0042db"/>
      <path id="Trazado_914343" data-name="Trazado 914343" d="M2,1A1,1,0,1,1,1,0,1,1,0,0,1,2,1" transform="translate(42.375 82.056)" fill="#0042db"/>
      <path id="Trazado_914344" data-name="Trazado 914344" d="M2,1A1,1,0,1,1,1,0,1,1,0,0,1,2,1" transform="translate(52.969 82.056)" fill="#0042db"/>
      <path id="Trazado_914345" data-name="Trazado 914345" d="M2,1A1,1,0,1,1,1,0,1,1,0,0,1,2,1" transform="translate(63.563 82.056)" fill="#0042db"/>
    </g>
  </g>
</svg>
