<svg xmlns="http://www.w3.org/2000/svg" width="70" height="70" viewBox="0 0 70 70">
  <g id="Grupo_1115809" data-name="Grupo 1115809" transform="translate(-199.571 -497)">
    <rect id="Rectángulo_412256" data-name="Rectángulo 412256" width="70" height="70" rx="5" transform="translate(199.571 497)" fill="#8bc34a"/>
    <g id="Grupo_1118084" data-name="Grupo 1118084" transform="translate(209.571 507)">
      <g id="Grupo_1118082" data-name="Grupo 1118082" transform="translate(0.732 0.732)">
        <g id="Grupo_1118078" data-name="Grupo 1118078" transform="translate(25.256 7.833)">
          <path id="Trazado_967865" data-name="Trazado 967865" d="M313.422,180.177h4.088v5.006h-4.088Z" transform="translate(-308.803 -171.147)" fill="#ffb09e"/>
          <path id="Trazado_967866" data-name="Trazado 967866" d="M274.831,231.442h-4.087l-3.581,1.965a2,2,0,0,0-1.038,1.753v2.95a1.071,1.071,0,0,0,1.071,1.071h11.183a1.071,1.071,0,0,0,1.071-1.071v-2.95a2,2,0,0,0-1.038-1.753Z" transform="translate(-266.125 -217.406)" fill="#88c8fd"/>
          <path id="Trazado_967867" data-name="Trazado 967867" d="M332.829,235.158v2.949a1.071,1.071,0,0,1-1.071,1.071h-2.93a1.071,1.071,0,0,0,1.071-1.071v-2.949a2,2,0,0,0-1.038-1.754l-3.581-1.965h2.93l3.581,1.965A2,2,0,0,1,332.829,235.158Z" transform="translate(-319.503 -217.403)" fill="#60b6ff"/>
          <path id="Trazado_967868" data-name="Trazado 967868" d="M290.051,125.231h2.029a3.67,3.67,0,0,0,3.67-3.67v-3.29l-4.685-1.489-4.685,1.489v3.29a3.67,3.67,0,0,0,3.67,3.67Z" transform="translate(-284.403 -113.943)" fill="#ffdfcf"/>
          <path id="Trazado_967869" data-name="Trazado 967869" d="M325.5,123.425v3.29a3.671,3.671,0,0,1-3.671,3.67h-2.028a3.8,3.8,0,0,1-.45-.027,3.671,3.671,0,0,0,3.22-3.643v-4.222Z" transform="translate(-314.157 -119.096)" fill="#ffcebf"/>
          <path id="Trazado_967870" data-name="Trazado 967870" d="M286.379,92.038s3.309,0,4.685-1.271c1.583,1.271,4.685,1.271,4.685,1.271v-2a2.327,2.327,0,0,0-2.327-2.327h-4.714a2.327,2.327,0,0,0-2.327,2.327v2Z" transform="translate(-284.401 -87.71)" fill="#918b8b"/>
          <path id="Trazado_967871" data-name="Trazado 967871" d="M333.743,90.04v2a11.84,11.84,0,0,1-2.93-.423V90.04a2.327,2.327,0,0,0-2.328-2.327h2.93A2.327,2.327,0,0,1,333.743,90.04Z" transform="translate(-322.395 -87.713)" fill="#7f7c7c"/>
        </g>
        <g id="Grupo_1118079" data-name="Grupo 1118079" transform="translate(9.953 7.833)">
          <path id="Trazado_967872" data-name="Trazado 967872" d="M156.718,180.175h4.088v5.006h-4.088Z" transform="translate(-152.099 -171.146)" fill="#ffb09e"/>
          <path id="Trazado_967873" data-name="Trazado 967873" d="M118.126,231.439h-4.087l-3.581,1.965a2,2,0,0,0-1.038,1.753v2.95a1.071,1.071,0,0,0,1.071,1.071h11.183a1.071,1.071,0,0,0,1.071-1.071v-2.95a2,2,0,0,0-1.038-1.753Z" transform="translate(-109.42 -217.403)" fill="#88c8fd"/>
          <path id="Trazado_967874" data-name="Trazado 967874" d="M176.125,235.156V238.1a1.071,1.071,0,0,1-1.071,1.071h-2.93A1.071,1.071,0,0,0,173.2,238.1v-2.949a2,2,0,0,0-1.038-1.754l-3.581-1.965h2.93l3.581,1.965A2,2,0,0,1,176.125,235.156Z" transform="translate(-162.799 -217.402)" fill="#60b6ff"/>
          <path id="Trazado_967875" data-name="Trazado 967875" d="M135.375,108.338h-2.029a3.67,3.67,0,0,1-3.67-3.67v-3.29l4.685-3.318,4.685,3.318v3.29A3.67,3.67,0,0,1,135.375,108.338Z" transform="translate(-127.698 -97.05)" fill="#ffdfcf"/>
          <path id="Trazado_967876" data-name="Trazado 967876" d="M168.8,112.862v3.29a3.67,3.67,0,0,1-3.67,3.67H163.1a3.8,3.8,0,0,1-.45-.027,3.671,3.671,0,0,0,3.219-3.643v-5.365Z" transform="translate(-157.454 -108.534)" fill="#ffcebf"/>
          <path id="Trazado_967877" data-name="Trazado 967877" d="M139.044,92.042a3.733,3.733,0,0,1-2.641-1.489c-2.044,1.608-6.728,1.489-6.728,1.489v-2A2.327,2.327,0,0,1,132,87.714h4.714a2.327,2.327,0,0,1,2.327,2.327Z" transform="translate(-127.697 -87.714)" fill="#e19974"/>
          <path id="Trazado_967878" data-name="Trazado 967878" d="M177.039,90.044v2a3.734,3.734,0,0,1-2.641-1.489,3.329,3.329,0,0,1-.289.205v-.717a2.327,2.327,0,0,0-2.327-2.327h2.93A2.327,2.327,0,0,1,177.039,90.044Z" transform="translate(-165.692 -87.717)" fill="#dc8758"/>
        </g>
        <g id="Grupo_1118080" data-name="Grupo 1118080">
          <circle id="Elipse_13642" data-name="Elipse 13642" cx="1.534" cy="1.534" r="1.534" transform="translate(22.733)" fill="#528cd7"/>
          <circle id="Elipse_13643" data-name="Elipse 13643" cx="1.534" cy="1.534" r="1.534" transform="translate(0 22.733)" fill="#528cd7"/>
          <circle id="Elipse_13644" data-name="Elipse 13644" cx="1.534" cy="1.534" r="1.534" transform="translate(22.733 45.467)" fill="#528cd7"/>
          <circle id="Elipse_13645" data-name="Elipse 13645" cx="1.534" cy="1.534" r="1.534" transform="translate(45.467 22.733)" fill="#528cd7"/>
        </g>
        <g id="Grupo_1118081" data-name="Grupo 1118081" transform="translate(17.605 20.88)">
          <path id="Trazado_967879" data-name="Trazado 967879" d="M235.072,313.773h4.087v5.006h-4.087Z" transform="translate(-230.453 -304.744)" fill="#ffb09e"/>
          <path id="Trazado_967880" data-name="Trazado 967880" d="M196.48,365.037h-4.087L188.812,367a2,2,0,0,0-1.038,1.753v2.95a1.071,1.071,0,0,0,1.071,1.071h11.183A1.071,1.071,0,0,0,201.1,371.7v-2.95A2,2,0,0,0,200.061,367Z" transform="translate(-187.774 -351.001)" fill="#88c8fd"/>
          <path id="Trazado_967881" data-name="Trazado 967881" d="M254.479,368.754V371.7a1.071,1.071,0,0,1-1.071,1.071h-2.93a1.071,1.071,0,0,0,1.071-1.071v-2.949A2,2,0,0,0,250.511,367l-3.581-1.965h2.93L253.441,367A2,2,0,0,1,254.479,368.754Z" transform="translate(-241.153 -351)" fill="#60b6ff"/>
          <path id="Trazado_967882" data-name="Trazado 967882" d="M213.729,244.985H211.7a3.67,3.67,0,0,1-3.67-3.67v-3.29l1.977-2.988h5.169l2.223,2.988v3.29A3.67,3.67,0,0,1,213.729,244.985Z" transform="translate(-206.052 -233.697)" fill="#ffdfcf"/>
          <path id="Trazado_967883" data-name="Trazado 967883" d="M247.149,238.023v3.29a3.671,3.671,0,0,1-3.67,3.67H241.45a3.8,3.8,0,0,1-.45-.027,3.671,3.671,0,0,0,3.22-3.643v-6.278h.707Z" transform="translate(-235.802 -233.695)" fill="#ffcebf"/>
          <path id="Trazado_967884" data-name="Trazado 967884" d="M217.4,223.639a2.327,2.327,0,0,0-2.327-2.327h-4.714a2.327,2.327,0,0,0-2.327,2.327v2s1.075-.633,2.282-1.413a4.153,4.153,0,0,0,2.4.663,4.207,4.207,0,0,0,2.362-.633c1.206.766,2.323,1.383,2.323,1.383Z" transform="translate(-206.051 -221.312)" fill="#918b8b"/>
          <path id="Trazado_967885" data-name="Trazado 967885" d="M255.4,223.642v2s-1.117-.617-2.323-1.384a2.954,2.954,0,0,1-.606.322v-.939a2.327,2.327,0,0,0-2.327-2.327h2.93A2.327,2.327,0,0,1,255.4,223.642Z" transform="translate(-244.05 -221.315)" fill="#7f7c7c"/>
        </g>
      </g>
      <g id="Grupo_1118083" data-name="Grupo 1118083" transform="translate(0 0)">
        <path id="Trazado_967886" data-name="Trazado 967886" d="M48.365,22.824A23.469,23.469,0,0,0,27.176,1.634a2.266,2.266,0,0,0-4.353,0A23.469,23.469,0,0,0,1.635,22.824a2.266,2.266,0,0,0,0,4.353A23.469,23.469,0,0,0,22.824,48.366a2.266,2.266,0,0,0,4.353,0A23.469,23.469,0,0,0,48.365,27.176a2.266,2.266,0,0,0,0-4.353ZM25,1.465a.8.8,0,1,1-.8.8.8.8,0,0,1,.8-.8ZM2.267,25.8a.8.8,0,1,1,.8-.8A.8.8,0,0,1,2.267,25.8ZM25,48.535a.8.8,0,1,1,.8-.8.8.8,0,0,1-.8.8ZM46.9,27.107A22,22,0,0,1,27.107,46.9a2.266,2.266,0,0,0-4.214,0A22,22,0,0,1,3.1,27.107a2.266,2.266,0,0,0,0-4.215A22,22,0,0,1,22.893,3.1a2.266,2.266,0,0,0,4.214,0A22,22,0,0,1,46.9,22.893a2.266,2.266,0,0,0,0,4.215Zm.833-1.306a.8.8,0,1,1,.8-.8A.8.8,0,0,1,47.733,25.8Z" transform="translate(0 0)"/>
        <path id="Trazado_967887" data-name="Trazado 967887" d="M130.6,96.3l-3.2-1.756v-1.95a4.408,4.408,0,0,0,2.641-4.034V83.27a3.063,3.063,0,0,0-3.06-3.06h-3.822a.732.732,0,0,0,0,1.465h3.822a1.6,1.6,0,0,1,1.6,1.6V84.5a7.16,7.16,0,0,1-3.494-1.073.732.732,0,0,0-.955.033,6.562,6.562,0,0,1-3.455,1.044V83.27a1.585,1.585,0,0,1,.125-.621.732.732,0,1,0-1.349-.571,3.04,3.04,0,0,0-.241,1.191v5.291a4.408,4.408,0,0,0,2.641,4.034v1.95l-.019.01a3.058,3.058,0,0,0-2.5-1.3H114.61a3.057,3.057,0,0,0-2.5,1.3l-.019-.01v-1.95a4.408,4.408,0,0,0,2.641-4.034V83.27a3.063,3.063,0,0,0-3.06-3.06h-4.714a3.063,3.063,0,0,0-3.06,3.06v5.291a4.408,4.408,0,0,0,2.641,4.034v1.95l-3.2,1.756a2.732,2.732,0,0,0-1.418,2.4v2.95a1.806,1.806,0,0,0,1.8,1.8h5.2a.732.732,0,0,0,0-1.465h-5.2a.339.339,0,0,1-.339-.339V98.7a1.267,1.267,0,0,1,.658-1.111l3.417-1.875h3.712l.379.208v5.689a4.408,4.408,0,0,0,2.641,4.034v1.95l-3.2,1.756a2.732,2.732,0,0,0-1.418,2.4v2.95a1.806,1.806,0,0,0,1.8,1.8h5.658a.732.732,0,0,0,0-1.465h-5.658a.339.339,0,0,1-.339-.339v-2.95a1.267,1.267,0,0,1,.658-1.111l3.417-1.875h3.712l3.417,1.875a1.267,1.267,0,0,1,.658,1.111v2.95a.339.339,0,0,1-.339.339h-2.177a.732.732,0,0,0,0,1.465h2.177a1.806,1.806,0,0,0,1.8-1.8v-2.95a2.732,2.732,0,0,0-1.418-2.4l-3.2-1.756v-1.95a4.428,4.428,0,0,0,2.235-2.191h8.232a1.806,1.806,0,0,0,1.8-1.8V98.7a2.731,2.731,0,0,0-1.418-2.4ZM105.363,83.27a1.6,1.6,0,0,1,1.595-1.6h4.714a1.6,1.6,0,0,1,1.6,1.6v1.079a3.552,3.552,0,0,1-1.344-1.035.732.732,0,0,0-1.017-.108c-1.272,1-3.991,1.284-5.543,1.329V83.27Zm5.263,10.976H108V92.952c.452.013,1.992.025,2.623,0Zm-.3-2.747H108.3a2.941,2.941,0,0,1-2.938-2.938V86a13.945,13.945,0,0,0,5.884-1.264,4.668,4.668,0,0,0,2.02,1.155v2.671A2.941,2.941,0,0,1,110.329,91.5Zm7.949,15.794h-2.623V106c.452.013,1.992.025,2.623,0Zm2.641-5.685a2.941,2.941,0,0,1-2.938,2.938h-2.029a2.941,2.941,0,0,1-2.938-2.938V98.733c.35-.211.921-.559,1.558-.964a5.678,5.678,0,0,0,4.744.023c.652.4,1.239.747,1.6.954v2.862Zm0-4.557c-.358-.212-.773-.464-1.2-.734a.733.733,0,0,0-.816.02,4,4,0,0,1-3.905-.02.732.732,0,0,0-.834-.027c-.411.266-.808.515-1.152.728v-.7a1.6,1.6,0,0,1,1.6-1.6h4.714a1.6,1.6,0,0,1,1.6,1.6v.734Zm-.253-8.49V85.976A9.014,9.014,0,0,0,124.64,84.9a9.562,9.562,0,0,0,3.931,1.067v2.591a2.941,2.941,0,0,1-2.938,2.938H123.6a2.941,2.941,0,0,1-2.938-2.938Zm5.263,4.392v1.294h-2.623V92.952c.1.007.2.011.3.011C124.416,92.955,125.137,92.981,125.93,92.952Zm4.619,8.694a.339.339,0,0,1-.339.339h-7.844c.011-.125.017-.25.017-.378V95.919l.379-.208h3.712l3.417,1.875a1.267,1.267,0,0,1,.658,1.111v2.95Z" transform="translate(-91.967 -72.377)"/>
        <path id="Trazado_967888" data-name="Trazado 967888" d="M170.878,142.59a.732.732,0,0,0-.732.732v.972a.732.732,0,1,0,1.465,0v-.972A.732.732,0,0,0,170.878,142.59Z" transform="translate(-153.53 -128.665)"/>
        <path id="Trazado_967889" data-name="Trazado 967889" d="M328.512,145.027a.732.732,0,0,0,.732-.732v-.972a.732.732,0,0,0-1.465,0v.972A.732.732,0,0,0,328.512,145.027Z" transform="translate(-295.77 -128.665)"/>
        <path id="Trazado_967890" data-name="Trazado 967890" d="M249.232,274.519a.732.732,0,0,0-.732.732v.972a.732.732,0,0,0,1.465,0v-.972A.732.732,0,0,0,249.232,274.519Z" transform="translate(-224.232 -247.711)"/>
      </g>
    </g>
  </g>
</svg>
