<svg xmlns="http://www.w3.org/2000/svg" xmlns:xlink="http://www.w3.org/1999/xlink" width="210" height="130" viewBox="0 0 210 130">
  <defs>
    <clipPath id="clip-path">
      <path id="Trazado_970445" data-name="Trazado 970445" d="M302.628,50.7c16.086-.718,34.485,7.358,34.412,34.347s-23.072,35.214-37.854,34.17-36.747-11.906-34.88-35.5S284.985,51.483,302.628,50.7Z" transform="translate(-264.194 -50.652)"/>
    </clipPath>
  </defs>
  <g id="Grupo_1119434" data-name="Grupo 1119434" transform="translate(-285 -4933.5)">
    <path id="Rectángulo_416547" data-name="Rectángulo 416547" d="M10,0H210a0,0,0,0,1,0,0V130a0,0,0,0,1,0,0H10A10,10,0,0,1,0,120V10A10,10,0,0,1,10,0Z" transform="translate(285 4933.5)" fill="#8bc34a"/>
    <g id="_7774301_3723824" data-name="7774301_3723824" transform="translate(250.836 4892.608)">
      <g id="OBJECTS" transform="translate(46.223 50.652)">
        <g id="Grupo_1119433" data-name="Grupo 1119433" transform="translate(0)">
          <g id="Grupo_1119432" data-name="Grupo 1119432">
            <g id="Grupo_1119352" data-name="Grupo 1119352" transform="translate(24.347 9.531)">
              <g id="Grupo_1119351" data-name="Grupo 1119351" transform="translate(0)">
                <path id="Trazado_970437" data-name="Trazado 970437" d="M185.924,175.294a72.228,72.228,0,0,0,23.426-3.223c5.716-1.871,11.078-4.612,16.668-6.8a68.1,68.1,0,0,1,21.536-4.6c4.578-.231,9.157.064,13.72-.479a42.538,42.538,0,0,0,10.826-2.661,27.9,27.9,0,0,0,14.021-11.692,28.4,28.4,0,0,0,3.264-18.143c-.944-6.575-3.7-14.05-9.371-17.992-3.349-2.329-7.7-3.031-11.608-3.843-4.51-.936-9.151-1.92-12.97-4.643-3.917-2.793-6.452-7.018-9.516-10.634a21.871,21.871,0,0,0-9.8-6.974c-7.975-2.629-16.835-.275-24.129,3.287-8.844,4.317-16.707,10.578-26.032,13.919-8.856,3.172-17.831,1.785-26.982,1.319-7.594-.387-15.425.307-21.278,5.688a28.679,28.679,0,0,0-5.97,8.03,38.839,38.839,0,0,0-3.872,22.476,36.829,36.829,0,0,0,11.948,22.678c9.2,8.284,21.632,11.992,33.69,13.47a117.4,117.4,0,0,0,12.428.816.15.15,0,0,0,0-.3c-13.689-.219-28.154-2.331-39.96-9.732a37.975,37.975,0,0,1-16.642-21.334,38.609,38.609,0,0,1,.615-23.088c3-8.775,9.163-16.262,18.719-17.987,8.336-1.5,16.849.493,25.229.389,8.961-.111,16.764-3.7,24.371-8.15,7.882-4.613,15.614-9.9,24.734-11.68a26.024,26.024,0,0,1,12.843.421c4.417,1.4,7.769,4.344,10.64,7.889,2.7,3.334,5.1,7.048,8.613,9.614,3.416,2.5,7.535,3.6,11.613,4.474s8.628,1.447,12.286,3.591a18.923,18.923,0,0,1,6.993,8.13c6.1,12.3,4.032,28.092-7.608,36.293-6.106,4.3-13.675,6.053-21.04,6.388-4.412.2-8.81-.01-13.218.406a65.733,65.733,0,0,0-10.389,1.8c-5.676,1.478-10.984,3.892-16.347,6.215a73.076,73.076,0,0,1-18.446,5.582,82.829,82.829,0,0,1-13.006.778A.15.15,0,0,0,185.924,175.294Z" transform="translate(-127.547 -82.489)" fill="#dcf7f3"/>
              </g>
            </g>
            <g id="Grupo_1119353" data-name="Grupo 1119353" transform="translate(26.808 12.123)">
              <path id="Trazado_970438" data-name="Trazado 970438" d="M193.358,180.216c32.167-.345,33.232-15.3,65.614-15.642,20.841-.223,33.5-10.391,34.351-26.075.434-8.027-3.73-20.726-12.216-23.914-7.343-2.759-15.777-1.976-22.306-6.677-4.611-3.32-7.593-8.945-12.063-12.5-8.756-6.972-20.913-4.4-30.6.721S197.5,108.668,187.02,111.077c-13.767,3.164-30.255-3.946-41.36,5.779C128.656,131.747,127.274,180.926,193.358,180.216Z" transform="translate(-135.768 -91.146)" fill="#dcf7f3"/>
            </g>
            <g id="Grupo_1119354" data-name="Grupo 1119354" transform="translate(119.088 22.795)">
              <path id="Trazado_970439" data-name="Trazado 970439" d="M469.241,130.55a2.275,2.275,0,0,0-1.583-.936c-.846.013-1.721.731-2.454.308a1.7,1.7,0,0,1-.533-.577,13.765,13.765,0,0,0-1.08-1.581,2.649,2.649,0,0,0-1.61-.958,2.912,2.912,0,0,0-2.429,1.215c-.608.723-1.044,1.582-1.693,2.268a2.613,2.613,0,0,1-2.528.914c-.979-.3-1.7-1.448-2.711-1.3a1.823,1.823,0,0,0-1.209.971c-.27.461-.448.977-.759,1.411-.835,1.165-4.783,1.824-6.646,2.083l31.66-.516c-.688.011-4.194-.456-4.807-.989A20.161,20.161,0,0,1,469.241,130.55Z" transform="translate(-444.008 -126.794)" fill="#fff"/>
            </g>
            <g id="Grupo_1119355" data-name="Grupo 1119355" transform="translate(48.268 51.462)">
              <path id="Trazado_970440" data-name="Trazado 970440" d="M215.472,227.432a2.864,2.864,0,0,1,1.973-1.21c1.065,0,2.181.885,3.1.338a2.138,2.138,0,0,0,.658-.736,17.354,17.354,0,0,1,1.327-2.012,3.335,3.335,0,0,1,2.007-1.239,3.665,3.665,0,0,1,3.082,1.48c.78.9,1.346,1.97,2.178,2.82a3.291,3.291,0,0,0,3.2,1.1c1.226-.4,2.106-1.858,3.385-1.691a2.293,2.293,0,0,1,1.541,1.2c.35.575.584,1.22.985,1.761,1.074,1.449,6.057,2.2,8.407,2.485H207.45c.866,0,5.27-.66,6.029-1.344C214.369,229.579,214.863,228.114,215.472,227.432Z" transform="translate(-207.45 -222.551)" fill="#fff"/>
            </g>
            <g id="Grupo_1119361" data-name="Grupo 1119361" transform="translate(65.256)">
              <path id="Trazado_970441" data-name="Trazado 970441" d="M302.628,50.7c16.086-.718,34.485,7.358,34.412,34.347s-23.072,35.214-37.854,34.17-36.747-11.906-34.88-35.5S284.985,51.483,302.628,50.7Z" transform="translate(-264.194 -50.652)" fill="#57adc1"/>
              <g id="Grupo_1119360" data-name="Grupo 1119360">
                <g id="Grupo_1119359" data-name="Grupo 1119359" clip-path="url(#clip-path)">
                  <g id="Grupo_1119356" data-name="Grupo 1119356" transform="translate(8.933 -1.857)">
                    <path id="Trazado_970442" data-name="Trazado 970442" d="M295.527,56.261c-1.53,2.218-1.55,5.194-1.469,7.887a6.35,6.35,0,0,0,.6,2.82,5.48,5.48,0,0,0,1.789,1.865c3.9,2.676,9.247,2.226,13.324,4.618a10.828,10.828,0,0,1,4.78,5.967,5.3,5.3,0,0,1-.219,4.395c-.754,1.2-2.209,1.884-2.775,3.182-.734,1.685.493,3.763,2.221,4.39a6.123,6.123,0,0,0,5.245-.9c1.332-.849,2.571-2.06,4.148-2.158,2.111-.132,3.894,2.088,3.68,4.193a5.355,5.355,0,0,1-4.081,4.344,13.942,13.942,0,0,1-5.249-.039,11.728,11.728,0,0,0-5.233.151,4.229,4.229,0,0,0-3.073,3.847c.058,1.436,1.077,2.965.325,4.19a3.342,3.342,0,0,1-2.241,1.206c-2.373.542-4.854,1.016-6.823,2.448s-3.249,4.16-2.2,6.358c0,0,31.486,12.268,42.04-1.651,1.37-1.807.453-4.625-.808-6.511a7.424,7.424,0,0,0-5.707-3.235c-1.264-.063-2.58.2-3.769-.239a3.5,3.5,0,0,1-2.133-3.945,4.968,4.968,0,0,1,3.037-3.167,42.239,42.239,0,0,1,4.362-1.288,6.422,6.422,0,0,0,3.7-2.482,3.067,3.067,0,0,0-.6-4.069,9.654,9.654,0,0,0-1.716-.692,3.923,3.923,0,0,1-2.346-2.591,3.067,3.067,0,0,1,1.14-3.212,15.844,15.844,0,0,1,2.127-.915,3.712,3.712,0,0,0,2.08-2.833,3.088,3.088,0,0,0-1.59-3.056c-1.727-.862-3.736.232-5.418,1.178a8.949,8.949,0,0,1-5.167,1.511c-1.814-.191-3.595-1.756-3.383-3.568.245-2.1,2.74-3.09,4.848-3.225s4.445.076,6.1-1.24a6.509,6.509,0,0,0,1.543-1.983,18.924,18.924,0,0,0-3.348-22.221S307.217,39.309,295.527,56.261Z" transform="translate(-294.032 -44.451)" fill="#bcea94"/>
                  </g>
                  <g id="Grupo_1119357" data-name="Grupo 1119357" transform="translate(61.343 7.155)">
                    <path id="Trazado_970443" data-name="Trazado 970443" d="M483.085,109.079c-.318,2.29-4.621.724-6.688-.31a15.319,15.319,0,0,1-5.123-4.583,10.114,10.114,0,0,1-2.077-4.032,4.385,4.385,0,0,1,1.222-4.186c.925-.782,2.282-1.074,2.919-2.1a3.422,3.422,0,0,0,.383-1.979,8.679,8.679,0,0,0-2-5.11,14.585,14.585,0,0,1-1.926-2.347,5.832,5.832,0,0,1-.541-3.043c.143-2.791,1.566-5.672,4.109-6.831C473.36,74.554,486.19,86.692,483.085,109.079Z" transform="translate(-469.096 -74.553)" fill="#bcea94"/>
                  </g>
                  <g id="Grupo_1119358" data-name="Grupo 1119358" transform="translate(-2.972 35.63)">
                    <path id="Trazado_970444" data-name="Trazado 970444" d="M261.586,195.557c1.829,1.316,3.934-2.3,4.787-4.388a16.2,16.2,0,0,0,.886-6.65,14.7,14.7,0,0,0-1.05-5.673,8.7,8.7,0,0,0-3.341-3.781,33.8,33.8,0,0,0-3.328-1.58,17.735,17.735,0,0,1-5.273-3.818S255.452,191.146,261.586,195.557Z" transform="translate(-254.267 -169.668)" fill="#bcea94"/>
                  </g>
                </g>
              </g>
            </g>
            <g id="Grupo_1119362" data-name="Grupo 1119362" transform="translate(79.619 13.188)">
              <path id="Trazado_970446" data-name="Trazado 970446" d="M316.614,97.3a1.573,1.573,0,0,1,1.094-.647c.585.009,1.189.505,1.7.213a1.173,1.173,0,0,0,.368-.4,9.541,9.541,0,0,1,.746-1.092,1.831,1.831,0,0,1,1.112-.662,2.012,2.012,0,0,1,1.679.84c.42.5.721,1.094,1.17,1.568a1.807,1.807,0,0,0,1.747.632c.677-.207,1.173-1,1.873-.9a1.259,1.259,0,0,1,.835.671c.187.319.31.675.525.975.577.8,3.305,1.261,4.592,1.439l-21.879-.357a10.183,10.183,0,0,0,3.322-.684A13.989,13.989,0,0,0,316.614,97.3Z" transform="translate(-312.172 -94.703)" fill="#fff"/>
            </g>
            <g id="Grupo_1119363" data-name="Grupo 1119363" transform="translate(118.956 44.326)">
              <path id="Trazado_970447" data-name="Trazado 970447" d="M476.556,204.28a2.939,2.939,0,0,0-2.044-1.379c-1.1,0-2.26,1.009-3.207.385a2.377,2.377,0,0,1-.682-.84,20.053,20.053,0,0,0-1.374-2.293,3.426,3.426,0,0,0-2.079-1.412,3.68,3.68,0,0,0-3.193,1.687c-.808,1.023-1.395,2.246-2.256,3.215A3.236,3.236,0,0,1,458.4,204.9c-1.271-.454-2.182-2.117-3.507-1.928a2.424,2.424,0,0,0-1.6,1.364c-.362.656-.6,1.391-1.02,2.007-1.113,1.652-6.276,2.506-8.711,2.833h41.3c-.9,0-5.46-.753-6.247-1.532C477.7,206.727,477.187,205.058,476.556,204.28Z" transform="translate(-443.569 -198.715)" fill="#fff"/>
            </g>
            <g id="Grupo_1119364" data-name="Grupo 1119364" transform="translate(0 119.239)">
              <line id="Línea_27241" data-name="Línea 27241" x2="5.546" transform="translate(180.822)" fill="none" stroke="#ccc" stroke-linecap="round" stroke-miterlimit="10" stroke-width="2"/>
              <line id="Línea_27242" data-name="Línea 27242" x2="48.191" transform="translate(130.461)" fill="none" stroke="#ccc" stroke-linecap="round" stroke-miterlimit="10" stroke-width="2"/>
              <line id="Línea_27243" data-name="Línea 27243" x2="4.264" transform="translate(123.091)" fill="none" stroke="#ccc" stroke-linecap="round" stroke-miterlimit="10" stroke-width="2"/>
              <line id="Línea_27244" data-name="Línea 27244" x2="76.634" transform="translate(44.32)" fill="none" stroke="#ccc" stroke-linecap="round" stroke-miterlimit="10" stroke-width="2"/>
              <line id="Línea_27245" data-name="Línea 27245" x2="35.081" transform="translate(6.956)" fill="none" stroke="#ccc" stroke-linecap="round" stroke-miterlimit="10" stroke-width="2"/>
              <line id="Línea_27246" data-name="Línea 27246" x2="4.233" fill="none" stroke="#ccc" stroke-linecap="round" stroke-miterlimit="10" stroke-width="2"/>
            </g>
            <g id="Grupo_1119372" data-name="Grupo 1119372" transform="translate(7.647 65.519)">
              <g id="Grupo_1119371" data-name="Grupo 1119371">
                <path id="Trazado_970448" data-name="Trazado 970448" d="M72.912,357.294a7.4,7.4,0,0,0-1.068,2.316,4.7,4.7,0,0,0,.036,1.924A3.216,3.216,0,0,0,74.3,362.6c.343-.183.258-2.317.422-2.6a1.88,1.88,0,0,0,1.009.591c.489.02-.476-1.921-.883-2.326A1.91,1.91,0,0,0,72.912,357.294Z" transform="translate(-71.765 -331.001)" fill="#ffd8c5"/>
                <path id="Trazado_970449" data-name="Trazado 970449" d="M85.744,433.329s.131.889-1.406,1.448c0,0-2.389,2.382-3.628,2.642s4.189-4.91,4.189-4.91A1.25,1.25,0,0,1,85.744,433.329Z" transform="translate(-77.904 -383.709)" fill="#7e9196"/>
                <path id="Trazado_970450" data-name="Trazado 970450" d="M208.363,443.62s.547-.713,2.018,0c0,0,3.374.055,4.423.762s-6.441.415-6.441.415A1.249,1.249,0,0,1,208.363,443.62Z" transform="translate(-167.362 -391.272)" fill="#7e9196"/>
                <path id="Trazado_970451" data-name="Trazado 970451" d="M105.435,360.134a12.473,12.473,0,0,0-1.845,8.3c.814,5.179,6.5,6.155,5.31,10.077-1.259,4.136-14.237,3.966-14.237,3.966l-1.406,1.448s6.752,3.255,16.33.862c10.81-2.7,3.867-19.931,2.643-22.149s-1.079-2.71-1.079-2.71Z" transform="translate(-86.823 -332.858)" fill="#1b7ba5"/>
                <path id="Trazado_970452" data-name="Trazado 970452" d="M157.381,361.917s9.487.987,13.173,3.964-.821,18.762-.821,18.762h-2.018s.557-12.181-2.193-14.1c-3.435-2.4-12.625.259-12.625.259s-6.01-7.7-.108-11.677Z" transform="translate(-126.714 -332.295)" fill="#1b7ba5"/>
                <path id="Trazado_970453" data-name="Trazado 970453" d="M252.094,321.7a2.018,2.018,0,0,1,.793-1.62,5.039,5.039,0,0,0,1.571-1.315c.189-.332.835.217.5,1.009s-.751.951-.751.951a2.556,2.556,0,0,1-1.637,2.862S251.493,322.625,252.094,321.7Z" transform="translate(-197.98 -303.945)" fill="#ffd8c5"/>
                <g id="Grupo_1119365" data-name="Grupo 1119365" transform="translate(55.109 13.906)">
                  <path id="Trazado_970454" data-name="Trazado 970454" d="M261.286,317.727s-4.259-.395-5.255,2.684,2.31,5.306,2.31,5.306l.248-.624s-2.209-1.867-1.315-4.225,3.71-2.321,3.71-2.321Z" transform="translate(-255.843 -317.185)" fill="#6558a5"/>
                  <path id="Trazado_970455" data-name="Trazado 970455" d="M265.6,316.31a32.944,32.944,0,0,0-3.761,9.226,14.829,14.829,0,0,0,7.2,2.723,28.506,28.506,0,0,0,3.294-9.3Z" transform="translate(-260.043 -316.204)" fill="#6558a5"/>
                  <path id="Trazado_970456" data-name="Trazado 970456" d="M292.734,328.9l6.732-.348-.457,1.243-7.213,1.658Z" transform="translate(-281.033 -324.781)" fill="#6558a5"/>
                  <path id="Trazado_970457" data-name="Trazado 970457" d="M316.044,327.968c-.237.645-.652,1.087-.927.986s-.305-.706-.068-1.351.652-1.087.927-.986S316.281,327.322,316.044,327.968Z" transform="translate(-297.212 -323.415)" fill="#6558a5"/>
                  <path id="Trazado_970458" data-name="Trazado 970458" d="M274.295,316.118c.431-.827,6.97,1.723,6.754,2.606S273.9,316.866,274.295,316.118Z" transform="translate(-268.76 -315.955)" fill="#4b447f"/>
                </g>
                <path id="Trazado_970459" data-name="Trazado 970459" d="M260.279,323.289a5.788,5.788,0,0,1-.8,2.754,1.009,1.009,0,0,1-1.06-.325c-.362-.633-.129-2.628.309-2.889S260.279,323.289,260.279,323.289Z" transform="translate(-202.414 -306.824)" fill="#ffd8c5"/>
                <path id="Trazado_970460" data-name="Trazado 970460" d="M75.6,324.244a4.1,4.1,0,0,0,1.937.968s3.41-8.246,9.731-8.956a11.724,11.724,0,0,1,7.172,1.359,33.2,33.2,0,0,0-1.375,7.612c8.131,4.783,12.055,2.347,12.055,2.347.3-5.522,1.282-7.322,1.282-7.322,9.954,6.387,22.641-2.664,22.641-2.664a5.946,5.946,0,0,0-.476-1.887c-11.521,5.8-17.753.578-20.345-1.589-3.543-2.961-12.015-5.057-19.722-3.45C83.448,311.715,78.114,314.965,75.6,324.244Z" transform="translate(-74.45 -297.951)" fill="#ff6648"/>
                <path id="Trazado_970461" data-name="Trazado 970461" d="M163.444,305.775l-1.554,2.806a2.784,2.784,0,0,0,2.507.657l.391-3.042A5.57,5.57,0,0,0,163.444,305.775Z" transform="translate(-134.909 -294.916)" fill="#f9c6b2"/>
                <path id="Trazado_970462" data-name="Trazado 970462" d="M162.22,272.618a4.917,4.917,0,0,1-1.8.266s-.206-.458-.392-.528c-.486-.185-1.586,1.1-1.586,2.957a4.515,4.515,0,0,0,1.633,3.445s.2-.3,5.779-1.667c2.236-.546,5.156-6.55,1.019-7.533C164.893,269.086,164.215,271.914,162.22,272.618Z" transform="translate(-132.494 -269.504)" fill="#1b7ba5"/>
                <path id="Trazado_970463" data-name="Trazado 970463" d="M162.713,289.877s-.438-.531-.738-.254.185.9.369.992c0,0-.3,2.94,1.379,3.84s3,.059,3.857-1.556.423-3.169,1.251-3.933a6.236,6.236,0,0,0-3.881-1.05A2.492,2.492,0,0,0,162.713,289.877Z" transform="translate(-134.901 -282.377)" fill="#ffd8c5"/>
                <path id="Trazado_970464" data-name="Trazado 970464" d="M171.148,295.257a.285.285,0,1,1-.4,0A.284.284,0,0,1,171.148,295.257Z" transform="translate(-141.055 -287.489)" fill="#282828"/>
                <circle id="Elipse_13686" data-name="Elipse 13686" cx="0.285" cy="0.285" r="0.285" transform="translate(32.229 8.464)" fill="#282828"/>
                <g id="Grupo_1119366" data-name="Grupo 1119366" transform="translate(30.866 8.254)">
                  <path id="Trazado_970465" data-name="Trazado 970465" d="M175.6,298.13c.019-.423.047-.808.029-1.054a3.242,3.242,0,0,0-.217,1.048c0,.056,0,.111,0,.166s.007.095.011.141c-.006.027,0,.032-.022.044a.247.247,0,0,1-.1.009,2.594,2.594,0,0,1-.434-.1,1.059,1.059,0,0,0,.41.238.361.361,0,0,0,.174.008.21.21,0,0,0,.148-.174,1.571,1.571,0,0,0,0-.168C175.6,298.234,175.6,298.182,175.6,298.13Z" transform="translate(-174.865 -297.076)" fill="#d89884"/>
                </g>
                <g id="Grupo_1119367" data-name="Grupo 1119367" transform="translate(30.343 9.744)">
                  <path id="Trazado_970466" data-name="Trazado 970466" d="M174.167,302.466a.653.653,0,0,1-.664.163.542.542,0,0,1-.331-.272.463.463,0,0,1-.042-.3A1.874,1.874,0,0,0,174.167,302.466Z" transform="translate(-173.121 -302.053)" fill="#fff"/>
                </g>
                <g id="Grupo_1119370" data-name="Grupo 1119370" transform="translate(25.546 30.046)">
                  <g id="Grupo_1119369" data-name="Grupo 1119369">
                    <g id="Grupo_1119368" data-name="Grupo 1119368">
                      <path id="Trazado_970467" data-name="Trazado 970467" d="M158.674,374.3c.58,1.84.988,3.5,1.241,4.543a24.694,24.694,0,0,0-1.011-4.615,23.353,23.353,0,0,0-1.808-4.364C157.5,370.861,158.1,372.461,158.674,374.3Z" transform="translate(-157.095 -369.867)" fill="#4eb8dd"/>
                    </g>
                  </g>
                </g>
              </g>
              <path id="Trazado_970468" data-name="Trazado 970468" d="M321,330.553s5.3.851,6.4,4.7c.952,3.349-2.168-.543-2.168-.543s5.253,6.662,3.609,9.753c-1.509,2.838-4.092-6.541-4.092-6.541s1.341,4.474.172,5.573c-1.24,1.165-2.713-4.322-2.86-7.311A16.861,16.861,0,0,0,321,330.553Z" transform="translate(-246.387 -312.277)" fill="#58cded"/>
            </g>
            <g id="Grupo_1119418" data-name="Grupo 1119418" transform="translate(51.405 6.666)">
              <path id="Trazado_970469" data-name="Trazado 970469" d="M506.036,89.054c-.281-.62.86-.886,1.918-.2C507.954,88.85,506.4,89.866,506.036,89.054Z" transform="translate(-419.753 -83.799)" fill="#6eccc1"/>
              <path id="Trazado_970470" data-name="Trazado 970470" d="M502.382,158.823c1.445-.344,1.539,2.21-.363,4.192C502.02,163.014,500.488,159.273,502.382,158.823Z" transform="translate(-416.56 -133.083)" fill="#6eccc1"/>
              <path id="Trazado_970471" data-name="Trazado 970471" d="M542.9,137.8c.534.83-1.046,1.452-2.708.7C540.19,138.5,542.2,136.713,542.9,137.8Z" transform="translate(-443.713 -118.13)" fill="#6eccc1"/>
              <path id="Trazado_970472" data-name="Trazado 970472" d="M361.031,295.932c2.207-.648,2.558,3.294-.224,6.512C360.807,302.443,358.138,296.781,361.031,295.932Z" transform="translate(-317.246 -229.118)" fill="#6eccc1"/>
              <path id="Trazado_970473" data-name="Trazado 970473" d="M391.931,298.141c1.806-1.425,3.6,2.1,2.223,6.124C394.154,304.265,389.565,300.008,391.931,298.141Z" transform="translate(-339.364 -230.489)" fill="#6eccc1"/>
              <path id="Trazado_970474" data-name="Trazado 970474" d="M455.411,267.636c2.185-.721,2.666,3.207-.007,6.515C455.4,274.152,452.549,268.581,455.411,267.636Z" transform="translate(-383.422 -209.282)" fill="#6eccc1"/>
              <path id="Trazado_970475" data-name="Trazado 970475" d="M390.28,329.237c.731,1.535-2.1,2.252-4.777.6C385.5,329.835,389.322,327.226,390.28,329.237Z" transform="translate(-335.335 -251.968)" fill="#6eccc1"/>
              <path id="Trazado_970476" data-name="Trazado 970476" d="M515.072,157.895c.685-.887,1.95.568,1.774,2.632C516.845,160.526,514.174,159.056,515.072,157.895Z" transform="translate(-425.985 -132.269)" fill="#6eccc1"/>
              <path id="Trazado_970477" data-name="Trazado 970477" d="M518.648,114.355c-.165-1.108,1.761-1.013,3.126.544C521.774,114.9,518.863,115.807,518.648,114.355Z" transform="translate(-428.613 -101.43)" fill="#6eccc1"/>
              <path id="Trazado_970478" data-name="Trazado 970478" d="M479.629,282.244c-.058,1.119-1.926.645-2.957-1.153C476.672,281.091,479.705,280.777,479.629,282.244Z" transform="translate(-399.21 -218.749)" fill="#6eccc1"/>
              <path id="Trazado_970479" data-name="Trazado 970479" d="M457.72,308.533c-.652.649-1.528-.669-1.165-2.331C456.555,306.2,458.575,307.682,457.72,308.533Z" transform="translate(-385.056 -236.363)" fill="#6eccc1"/>
              <path id="Trazado_970480" data-name="Trazado 970480" d="M466.078,262.96c-.492-1.407,2.048-1.763,4.221-.069C470.3,262.891,466.723,264.8,466.078,262.96Z" transform="translate(-391.745 -205.224)" fill="#6eccc1"/>
              <path id="Trazado_970481" data-name="Trazado 970481" d="M406.7,263.313c.19-1.1,1.989-.411,2.8,1.5C409.5,264.808,406.453,264.759,406.7,263.313Z" transform="translate(-350.178 -205.944)" fill="#6eccc1"/>
              <path id="Trazado_970482" data-name="Trazado 970482" d="M410.829,294.54c.19-1.1,1.989-.411,2.8,1.5C413.628,296.035,410.579,295.986,410.829,294.54Z" transform="translate(-353.069 -227.822)" fill="#6eccc1"/>
              <path id="Trazado_970483" data-name="Trazado 970483" d="M471.694,241.083c1.036-.426,1.406,1.466.222,3.166C471.916,244.249,470.336,241.641,471.694,241.083Z" transform="translate(-395.337 -190.696)" fill="#6eccc1"/>
              <path id="Trazado_970484" data-name="Trazado 970484" d="M534.148,206.845c.806.778-.778,1.876-2.81,1.475C531.338,208.32,533.091,205.825,534.148,206.845Z" transform="translate(-437.511 -166.579)" fill="#6eccc1"/>
              <path id="Trazado_970485" data-name="Trazado 970485" d="M455.55,243.792c-.2-.8,1.209-.869,2.32.166C457.869,243.958,455.814,244.835,455.55,243.792Z" transform="translate(-384.398 -192.213)" fill="#6eccc1"/>
              <path id="Trazado_970486" data-name="Trazado 970486" d="M521.865,228.548c.577-.584,1.369.586,1.058,2.072C522.922,230.619,521.109,229.314,521.865,228.548Z" transform="translate(-430.744 -181.849)" fill="#6eccc1"/>
              <path id="Trazado_970487" data-name="Trazado 970487" d="M508.22,212.533c.248-.944,1.757-.207,2.316,1.508C510.536,214.041,507.894,213.769,508.22,212.533Z" transform="translate(-421.294 -170.445)" fill="#6eccc1"/>
              <path id="Trazado_970488" data-name="Trazado 970488" d="M521.042,177.784c-.113,1.1-1.931.539-2.857-1.284C518.185,176.5,521.19,176.342,521.042,177.784Z" transform="translate(-428.295 -145.486)" fill="#6eccc1"/>
              <path id="Trazado_970489" data-name="Trazado 970489" d="M484.347,158.837c-.048-.82,1.352-.624,2.246.6C486.594,159.439,484.41,159.911,484.347,158.837Z" transform="translate(-404.587 -132.768)" fill="#6eccc1"/>
              <path id="Trazado_970490" data-name="Trazado 970490" d="M501.411,181.007c-.723-.633.589-1.64,2.346-1.38C503.757,179.628,502.358,181.837,501.411,181.007Z" transform="translate(-416.401 -147.652)" fill="#6eccc1"/>
              <path id="Trazado_970491" data-name="Trazado 970491" d="M492.932,171.255c-.512-.449.417-1.162,1.662-.978C494.594,170.278,493.6,171.843,492.932,171.255Z" transform="translate(-410.502 -141.11)" fill="#6eccc1"/>
              <path id="Trazado_970492" data-name="Trazado 970492" d="M525.731,140.534c.241-.637,1.234-.015,1.5,1.216C527.228,141.75,525.415,141.368,525.731,140.534Z" transform="translate(-433.557 -120.114)" fill="#6eccc1"/>
              <path id="Trazado_970493" data-name="Trazado 970493" d="M520.3,95.1c.635-.246.836.908.1,1.926C520.4,97.027,519.468,95.423,520.3,95.1Z" transform="translate(-429.535 -88.436)" fill="#6eccc1"/>
              <path id="Trazado_970494" data-name="Trazado 970494" d="M506.275,79.449c.472-.183.622.675.072,1.432C506.346,80.88,505.656,79.688,506.275,79.449Z" transform="translate(-419.77 -77.476)" fill="#6eccc1"/>
              <path id="Trazado_970495" data-name="Trazado 970495" d="M537.541,148.448c-.224.643-1.233.049-1.53-1.174C536.011,147.274,537.834,147.605,537.541,148.448Z" transform="translate(-440.785 -125.014)" fill="#6eccc1"/>
              <path id="Trazado_970496" data-name="Trazado 970496" d="M534.52,116.25c1.677.281.638,3.015-2.249,4.257C532.271,120.508,532.323,115.882,534.52,116.25Z" transform="translate(-438.164 -103.263)" fill="#6eccc1"/>
              <path id="Trazado_970497" data-name="Trazado 970497" d="M519.715,195.1c1.354,1.028-.836,2.966-3.969,2.725C515.746,197.823,517.941,193.751,519.715,195.1Z" transform="translate(-426.587 -158.329)" fill="#6eccc1"/>
              <path id="Trazado_970498" data-name="Trazado 970498" d="M311.249,296.5c-1.773-1.254.939-3.822,4.949-3.649C316.2,292.856,313.571,298.148,311.249,296.5Z" transform="translate(-282.923 -227.006)" fill="#6eccc1"/>
              <path id="Trazado_970499" data-name="Trazado 970499" d="M350.637,331.728c-1.034-.809.679-2.281,3.095-2.059C353.732,329.668,351.992,332.787,350.637,331.728Z" transform="translate(-310.692 -252.788)" fill="#6eccc1"/>
              <path id="Trazado_970500" data-name="Trazado 970500" d="M417.581,338.782c.6,1.165-1.566,1.792-3.671.585C413.91,339.367,416.79,337.255,417.581,338.782Z" transform="translate(-355.238 -258.8)" fill="#6eccc1"/>
              <path id="Trazado_970501" data-name="Trazado 970501" d="M347.651,314.271c1.083-.742,1.97,1.334,1.031,3.571C348.682,317.843,346.232,315.244,347.651,314.271Z" transform="translate(-308.505 -241.909)" fill="#6eccc1"/>
              <path id="Trazado_970502" data-name="Trazado 970502" d="M431.733,288.419c1.083-.742,1.97,1.334,1.031,3.571C432.764,291.991,430.314,289.392,431.733,288.419Z" transform="translate(-367.415 -223.796)" fill="#6eccc1"/>
              <path id="Trazado_970503" data-name="Trazado 970503" d="M474.993,297.477c1.14.175.461,2.04-1.486,2.91C473.507,300.387,473.5,297.248,474.993,297.477Z" transform="translate(-396.993 -230.241)" fill="#6eccc1"/>
              <path id="Trazado_970504" data-name="Trazado 970504" d="M502.493,265.445c-.072,1.31-2.259.749-3.46-1.359C499.033,264.086,502.586,263.728,502.493,265.445Z" transform="translate(-414.877 -206.833)" fill="#6eccc1"/>
              <path id="Trazado_970505" data-name="Trazado 970505" d="M340.594,264.067c1.915.083,1.131,3.286-1.927,5.076C338.667,269.143,338.085,263.959,340.594,264.067Z" transform="translate(-302.48 -206.841)" fill="#6eccc1"/>
              <path id="Trazado_970506" data-name="Trazado 970506" d="M422.2,266.6c1.915.083,1.132,3.286-1.927,5.076C420.271,271.672,419.689,266.488,422.2,266.6Z" transform="translate(-359.654 -208.613)" fill="#6eccc1"/>
              <path id="Trazado_970507" data-name="Trazado 970507" d="M289.337,269.208c1.456-1.247,3.07,1.629,2.056,5.025C291.393,274.233,287.429,270.842,289.337,269.208Z" transform="translate(-267.595 -210.235)" fill="#6eccc1"/>
              <path id="Trazado_970508" data-name="Trazado 970508" d="M251.772,246.418c.668-2.052,4.021-.4,5.107,3.367C256.879,249.785,250.9,249.107,251.772,246.418Z" transform="translate(-241.579 -193.854)" fill="#6eccc1"/>
              <path id="Trazado_970509" data-name="Trazado 970509" d="M224.4,151.268c.874-1.435,3.117.421,3.265,3.465C227.661,154.732,223.251,153.148,224.4,151.268Z" transform="translate(-222.327 -127.466)" fill="#6eccc1"/>
              <path id="Trazado_970510" data-name="Trazado 970510" d="M262.749,193.2c2.155-.113,1.812,3.611-1.31,5.975C261.439,199.17,259.925,193.344,262.749,193.2Z" transform="translate(-248.129 -157.185)" fill="#6eccc1"/>
              <path id="Trazado_970511" data-name="Trazado 970511" d="M321.38,264.076c-.574-1.12,1.509-1.712,3.522-.546C324.9,263.529,322.133,265.543,321.38,264.076Z" transform="translate(-290.342 -206.02)" fill="#6eccc1"/>
              <path id="Trazado_970512" data-name="Trazado 970512" d="M335.515,321.173c-.389-.759,1.023-1.161,2.389-.371C337.9,320.8,336.026,322.169,335.515,321.173Z" transform="translate(-300.267 -246.29)" fill="#6eccc1"/>
              <path id="Trazado_970513" data-name="Trazado 970513" d="M394.909,355.521c-.2.83-1.532.217-2.056-1.272C392.853,354.249,395.168,354.433,394.909,355.521Z" transform="translate(-340.485 -270.025)" fill="#6eccc1"/>
              <path id="Trazado_970514" data-name="Trazado 970514" d="M405,338.725c.723-.454,1.245.918.577,2.347C405.578,341.073,404.055,339.32,405,338.725Z" transform="translate(-348.779 -259.087)" fill="#6eccc1"/>
              <path id="Trazado_970515" data-name="Trazado 970515" d="M427.568,309.067c.011.853-1.432.585-2.3-.731C425.264,308.337,427.554,307.949,427.568,309.067Z" transform="translate(-363.193 -237.813)" fill="#6eccc1"/>
              <path id="Trazado_970516" data-name="Trazado 970516" d="M241.968,198.667c1.212-.816,2.181,1.5,1.115,3.986C243.082,202.653,240.379,199.737,241.968,198.667Z" transform="translate(-234.421 -160.904)" fill="#6eccc1"/>
              <path id="Trazado_970517" data-name="Trazado 970517" d="M251.841,161.683c.086,1.459-2.4,1.112-4-1.069C247.842,160.615,251.729,159.772,251.841,161.683Z" transform="translate(-238.887 -134.231)" fill="#6eccc1"/>
              <path id="Trazado_970518" data-name="Trazado 970518" d="M220.818,210.475c-1.011-1.056,1.11-2.405,3.738-1.777C224.556,208.7,222.142,211.859,220.818,210.475Z" transform="translate(-219.773 -167.937)" fill="#6eccc1"/>
              <path id="Trazado_970519" data-name="Trazado 970519" d="M259.065,142.943c.7.693-.707,1.635-2.484,1.256C256.581,144.2,258.152,142.035,259.065,142.943Z" transform="translate(-245.009 -121.824)" fill="#6eccc1"/>
              <path id="Trazado_970520" data-name="Trazado 970520" d="M247.724,146.53c.683-.707,1.646.683,1.293,2.465C249.017,149,246.829,147.457,247.724,146.53Z" transform="translate(-238.654 -124.361)" fill="#6eccc1"/>
              <path id="Trazado_970521" data-name="Trazado 970521" d="M235.961,122.819c.683-.707,1.646.683,1.293,2.465C237.254,125.284,235.066,123.746,235.961,122.819Z" transform="translate(-230.412 -107.749)" fill="#6eccc1"/>
              <path id="Trazado_970522" data-name="Trazado 970522" d="M248.576,116.981c.552.813-1.006,1.47-2.678.759C245.9,117.739,247.854,115.915,248.576,116.981Z" transform="translate(-237.525 -103.555)" fill="#6eccc1"/>
              <path id="Trazado_970523" data-name="Trazado 970523" d="M250.561,98.15c.845-.5,1.407,1.093.6,2.719C251.156,100.869,249.453,98.807,250.561,98.15Z" transform="translate(-240.529 -90.531)" fill="#6eccc1"/>
              <path id="Trazado_970524" data-name="Trazado 970524" d="M248.587,185.878c.974-.128.862,1.559-.524,2.734C248.062,188.612,247.31,186.046,248.587,185.878Z" transform="translate(-238.887 -152.056)" fill="#6eccc1"/>
              <path id="Trazado_970525" data-name="Trazado 970525" d="M228.73,179.869c-.336-.924,1.335-1.18,2.782-.081C231.512,179.788,229.17,181.079,228.73,179.869Z" transform="translate(-225.466 -147.287)" fill="#6eccc1"/>
              <path id="Trazado_970526" data-name="Trazado 970526" d="M251.863,222.343c-.471-1.383,2.022-1.712,4.139-.034C256,222.309,252.48,224.156,251.863,222.343Z" transform="translate(-241.663 -176.79)" fill="#6eccc1"/>
              <path id="Trazado_970527" data-name="Trazado 970527" d="M251.392,264.393c.927-1.13,2.521.814,2.212,3.5C253.6,267.891,250.177,265.874,251.392,264.393Z" transform="translate(-241.191 -206.841)" fill="#6eccc1"/>
              <path id="Trazado_970528" data-name="Trazado 970528" d="M255.545,281.59c-1.445-.9.558-3.034,3.7-3.084C259.249,278.506,257.438,282.768,255.545,281.59Z" transform="translate(-243.949 -216.958)" fill="#6eccc1"/>
              <path id="Trazado_970529" data-name="Trazado 970529" d="M231.179,275.251c-.822-.931,1.026-2.005,3.236-1.381C234.416,273.87,232.257,276.472,231.179,275.251Z" transform="translate(-227.073 -213.58)" fill="#6eccc1"/>
              <path id="Trazado_970530" data-name="Trazado 970530" d="M326.006,247.322c1.065-.34,1.28,1.571-.034,3.167C325.972,250.489,324.61,247.768,326.006,247.322Z" transform="translate(-293.209 -195.082)" fill="#6eccc1"/>
              <path id="Trazado_970531" data-name="Trazado 970531" d="M310.055,248.64c-.318-.966,1.418-1.177,2.879.005C312.934,248.645,310.472,249.9,310.055,248.64Z" transform="translate(-282.448 -195.469)" fill="#6eccc1"/>
              <path id="Trazado_970532" data-name="Trazado 970532" d="M297.279,290.862c-.91-.453.16-1.836,2.028-2.044C299.307,288.818,298.472,291.455,297.279,290.862Z" transform="translate(-273.293 -224.183)" fill="#6eccc1"/>
              <path id="Trazado_970533" data-name="Trazado 970533" d="M317,278.686c.853-.553,1.5,1.073.726,2.786C317.728,281.472,315.884,279.41,317,278.686Z" transform="translate(-287.09 -217.007)" fill="#6eccc1"/>
              <path id="Trazado_970534" data-name="Trazado 970534" d="M274.079,242.267c.847-.562,1.511,1.056.757,2.778C274.836,245.045,272.969,243,274.079,242.267Z" transform="translate(-257.022 -191.489)" fill="#6eccc1"/>
              <path id="Trazado_970535" data-name="Trazado 970535" d="M286.778,243.054c.478.9-1.2,1.4-2.838.486C283.94,243.54,286.152,241.879,286.778,243.054Z" transform="translate(-264.178 -191.825)" fill="#6eccc1"/>
              <path id="Trazado_970536" data-name="Trazado 970536" d="M278.286,267.407c.98.271.193,1.833-1.6,2.393C276.685,269.8,277,267.052,278.286,267.407Z" transform="translate(-259.095 -209.16)" fill="#6eccc1"/>
              <g id="Grupo_1119375" data-name="Grupo 1119375" transform="translate(46.773 0.481)">
                <g id="Grupo_1119374" data-name="Grupo 1119374">
                  <g id="Grupo_1119373" data-name="Grupo 1119373">
                    <path id="Trazado_970537" data-name="Trazado 970537" d="M375.2,175.77c-.006-3.29-.111-6.538-.057-9.751a48,48,0,0,1,.9-9.444,15.154,15.154,0,0,1,1.576-4.292,7.965,7.965,0,0,1,1.372-1.738,11.839,11.839,0,0,1,1.78-1.371c1.275-.812,2.677-1.47,4.046-2.178l4.092-2.084,8.042-4.1c2.641-1.361,5.282-2.645,7.812-4.1a32.856,32.856,0,0,0,6.951-5.128,18.48,18.48,0,0,0,4.533-7.067,15.781,15.781,0,0,0,.737-4.06,32.089,32.089,0,0,0-.072-4.016,50.063,50.063,0,0,1-.277-7.679,15.134,15.134,0,0,1,.758-3.6,31.267,31.267,0,0,1,1.419-3.357,30.4,30.4,0,0,0,2.63-6.636l.09-.431.061-.435c.019-.145.043-.289.058-.434l.022-.439a8.165,8.165,0,0,0-.005-.869c0-.289-.041-.573-.067-.857a18.676,18.676,0,0,0-.664-3.3,23.253,23.253,0,0,0-2.619-5.867,23.883,23.883,0,0,0-3.834-4.666l-1.084-.966c-.373-.3-.761-.578-1.135-.864l-.564-.421-.591-.371-1.165-.731,1.15.753.582.381.555.431c.368.292.749.575,1.115.882l1.063.981a23.9,23.9,0,0,1,3.73,4.7,23.138,23.138,0,0,1,2.5,5.84,18.419,18.419,0,0,1,.609,3.25c.022.278.058.556.054.836a7.721,7.721,0,0,1-.006.838l-.026.418c-.017.139-.042.279-.062.419l-.064.42-.093.416a30.224,30.224,0,0,1-2.677,6.511,31.533,31.533,0,0,0-1.479,3.4,15.637,15.637,0,0,0-.823,3.721,50.082,50.082,0,0,0,.2,7.771,31.651,31.651,0,0,1,.038,3.935,15.123,15.123,0,0,1-.734,3.878,17.8,17.8,0,0,1-4.406,6.753,32.23,32.23,0,0,1-6.818,4.962c-2.5,1.417-5.147,2.689-7.8,4.038l-8.059,4.065-4.1,2.07c-1.366.7-2.776,1.355-4.131,2.211a12.75,12.75,0,0,0-1.923,1.476,8.919,8.919,0,0,0-1.537,1.936,16.04,16.04,0,0,0-1.692,4.558,35.134,35.134,0,0,0-.7,4.789c-.138,1.609-.2,3.227-.228,4.848-.057,3.242.047,6.5.053,9.767h.961Z" transform="translate(-374.165 -74.525)" fill="#267a9b"/>
                  </g>
                </g>
              </g>
              <g id="Grupo_1119378" data-name="Grupo 1119378" transform="translate(5.092 2.981)">
                <g id="Grupo_1119377" data-name="Grupo 1119377">
                  <g id="Grupo_1119376" data-name="Grupo 1119376">
                    <path id="Trazado_970538" data-name="Trazado 970538" d="M278.119,164.367a23.172,23.172,0,0,0-2.18-8.042,21.81,21.81,0,0,0-4.934-6.551,23.945,23.945,0,0,0-6.786-4.319,18.431,18.431,0,0,0-3.821-1.165c-.326-.061-.671-.1-.995-.136l-.967-.088-1.915-.166a29.293,29.293,0,0,1-3.719-.533,11.228,11.228,0,0,1-3.386-1.271,7.575,7.575,0,0,1-2.523-2.419,10.292,10.292,0,0,1-1.325-3.257,20.152,20.152,0,0,1-.474-3.517c-.068-1.18-.066-2.372-.1-3.558a30.643,30.643,0,0,0-.261-3.549,13.408,13.408,0,0,0-.925-3.422,12.652,12.652,0,0,0-1.841-2.96c-.723-.886-1.5-1.7-2.258-2.5a30.931,30.931,0,0,1-2.145-2.442,8.53,8.53,0,0,1-1.386-2.775,18.864,18.864,0,0,1-.739-6.086,26.84,26.84,0,0,1,.83-5.854,29.592,29.592,0,0,1,4.645-9.921,31.663,31.663,0,0,1,3.269-3.857,37.042,37.042,0,0,1,3.582-3.1,36.406,36.406,0,0,0-3.656,3.028,31.37,31.37,0,0,0-3.362,3.811,29.6,29.6,0,0,0-4.859,9.944,27.061,27.061,0,0,0-.928,5.938,19.288,19.288,0,0,0,.685,6.267,9.094,9.094,0,0,0,1.445,2.97,31.365,31.365,0,0,0,2.159,2.513c.753.811,1.509,1.62,2.2,2.485a12,12,0,0,1,1.719,2.817,18.032,18.032,0,0,1,1.071,6.714c.025,1.177.013,2.367.074,3.583a20.851,20.851,0,0,0,.469,3.659,11.1,11.1,0,0,0,1.413,3.523,8.416,8.416,0,0,0,2.785,2.7,12.064,12.064,0,0,0,3.634,1.391,30,30,0,0,0,3.828.568l1.919.175.957.091c.318.034.615.071.924.13a17.6,17.6,0,0,1,3.624,1.121,23.094,23.094,0,0,1,6.507,4.166,20.921,20.921,0,0,1,4.71,6.272,22.284,22.284,0,0,1,2.082,7.707Z" transform="translate(-234.938 -82.875)" fill="#267a9b"/>
                  </g>
                </g>
              </g>
              <g id="Grupo_1119381" data-name="Grupo 1119381" transform="translate(63.69 67.649)">
                <g id="Grupo_1119380" data-name="Grupo 1119380">
                  <g id="Grupo_1119379" data-name="Grupo 1119379">
                    <path id="Trazado_970539" data-name="Trazado 970539" d="M430.76,300.751A20.156,20.156,0,0,1,436.5,301a45.146,45.146,0,0,0,5.329.661,12.7,12.7,0,0,0,4.665-.64,8.2,8.2,0,0,0,1.832-.921,7.132,7.132,0,0,0,1.331-1.221,7.6,7.6,0,0,1-1.406,1.1,8.473,8.473,0,0,1-1.839.787,13.1,13.1,0,0,1-4.561.425,52.468,52.468,0,0,1-5.256-.783,19.67,19.67,0,0,0-5.92-.3Z" transform="translate(-430.672 -298.884)" fill="#267a9b"/>
                  </g>
                </g>
              </g>
              <g id="Grupo_1119384" data-name="Grupo 1119384" transform="translate(87.731 34.639)">
                <g id="Grupo_1119383" data-name="Grupo 1119383">
                  <g id="Grupo_1119382" data-name="Grupo 1119382">
                    <path id="Trazado_970540" data-name="Trazado 970540" d="M511.249,206.254a14.117,14.117,0,0,0,2.794-1.843,12.387,12.387,0,0,0,1.189-1.121,5.5,5.5,0,0,0,.946-1.339,8.976,8.976,0,0,0,.812-2.989c.113-.988.146-1.942.221-2.853a13.189,13.189,0,0,1,.424-2.585,7.889,7.889,0,0,1,1.025-2.17,8.222,8.222,0,0,1,3.092-2.732,7.981,7.981,0,0,0-4.473,4.789,13,13,0,0,0-.531,2.653c-.1.923-.162,1.873-.293,2.828a8.611,8.611,0,0,1-.807,2.788,4.941,4.941,0,0,1-.866,1.19,12.172,12.172,0,0,1-1.139,1.054,13.943,13.943,0,0,1-2.665,1.747Z" transform="translate(-510.976 -188.623)" fill="#267a9b"/>
                  </g>
                </g>
              </g>
              <g id="Grupo_1119387" data-name="Grupo 1119387" transform="translate(81.584 21.538)">
                <g id="Grupo_1119386" data-name="Grupo 1119386">
                  <g id="Grupo_1119385" data-name="Grupo 1119385">
                    <path id="Trazado_970541" data-name="Trazado 970541" d="M498.08,161.3a23.543,23.543,0,0,0-.4-2.921,9.766,9.766,0,0,0-.969-2.716,7.79,7.79,0,0,0-1.748-2.144,12.623,12.623,0,0,0-2.144-1.431,5.2,5.2,0,0,1-.941-.671,3.355,3.355,0,0,1-.657-.873,4.812,4.812,0,0,1-.509-2.034,13.1,13.1,0,0,1,.6-3.651,11.881,11.881,0,0,0-.86,3.654,5,5,0,0,0,.439,2.2,3.693,3.693,0,0,0,.7,1.008,5.5,5.5,0,0,0,.993.767,12.736,12.736,0,0,1,2.029,1.438,7.394,7.394,0,0,1,1.582,2.022,14.2,14.2,0,0,1,1.259,5.409Z" transform="translate(-490.443 -144.862)" fill="#267a9b"/>
                  </g>
                </g>
              </g>
              <g id="Grupo_1119390" data-name="Grupo 1119390" transform="translate(55.994 52.668)">
                <g id="Grupo_1119389" data-name="Grupo 1119389">
                  <g id="Grupo_1119388" data-name="Grupo 1119388">
                    <path id="Trazado_970542" data-name="Trazado 970542" d="M405.277,269.542a10.23,10.23,0,0,0,4.464-5.243,8.688,8.688,0,0,0,.566-3.23c-.012-.268-.04-.533-.059-.8-.038-.261-.093-.519-.139-.775a9.469,9.469,0,0,0-.484-1.448c-.391-.91-.841-1.734-1.13-2.572a5.5,5.5,0,0,1-.289-2.493,8.885,8.885,0,0,1,.6-2.247c.271-.689.583-1.315.877-1.9a18.908,18.908,0,0,0-1.005,1.84,8.68,8.68,0,0,0-.733,2.266,5.709,5.709,0,0,0,.2,2.644c.271.888.7,1.741,1.054,2.633a7.608,7.608,0,0,1,.573,2.849,8.267,8.267,0,0,1-.582,3.012,9.806,9.806,0,0,1-4.221,4.9Z" transform="translate(-404.964 -248.843)" fill="#267a9b"/>
                  </g>
                </g>
              </g>
              <g id="Grupo_1119393" data-name="Grupo 1119393" transform="translate(71.821 48.374)">
                <g id="Grupo_1119392" data-name="Grupo 1119392" transform="translate(0 0)">
                  <g id="Grupo_1119391" data-name="Grupo 1119391">
                    <path id="Trazado_970543" data-name="Trazado 970543" d="M463.512,248.542a7.911,7.911,0,0,0,1.322-4.972,5.992,5.992,0,0,0-.739-2.346,5.123,5.123,0,0,0-1.571-1.712,19.893,19.893,0,0,0-1.83-1.049,6.773,6.773,0,0,1-1.538-1.074,4.562,4.562,0,0,1-1.323-2.886,4.477,4.477,0,0,0,1.131,3.067,6.753,6.753,0,0,0,1.541,1.215c.575.356,1.188.684,1.744,1.1a5.112,5.112,0,0,1,1.991,3.736,7.506,7.506,0,0,1-1.27,4.572Z" transform="translate(-457.831 -234.502)" fill="#267a9b"/>
                  </g>
                </g>
              </g>
              <g id="Grupo_1119396" data-name="Grupo 1119396" transform="translate(28.327 48.975)">
                <g id="Grupo_1119395" data-name="Grupo 1119395" transform="translate(0 0)">
                  <g id="Grupo_1119394" data-name="Grupo 1119394">
                    <path id="Trazado_970544" data-name="Trazado 970544" d="M319.805,254.019a7.34,7.34,0,0,0,.838-3.024,9.024,9.024,0,0,0-.327-2.987,12.393,12.393,0,0,0-2.742-4.763c-1.152-1.3-2.412-2.268-3.356-3.347a7.921,7.921,0,0,1-1.173-1.655,4.555,4.555,0,0,1-.5-1.732,4.433,4.433,0,0,0,.371,1.791,7.732,7.732,0,0,0,1.1,1.767c.9,1.153,2.135,2.192,3.2,3.481a12.347,12.347,0,0,1,2.521,4.617,8.62,8.62,0,0,1,.273,2.788,6.829,6.829,0,0,1-.774,2.762Z" transform="translate(-312.547 -236.51)" fill="#267a9b"/>
                  </g>
                </g>
              </g>
              <g id="Grupo_1119399" data-name="Grupo 1119399" transform="translate(0 36.007)">
                <g id="Grupo_1119398" data-name="Grupo 1119398">
                  <g id="Grupo_1119397" data-name="Grupo 1119397">
                    <path id="Trazado_970545" data-name="Trazado 970545" d="M232.933,204.625a8.1,8.1,0,0,0-.942-2.987,4.5,4.5,0,0,0-1.018-1.2,7.021,7.021,0,0,0-1.287-.791,25.723,25.723,0,0,0-5.27-1.472,13.029,13.029,0,0,1-2.3-.746,8.115,8.115,0,0,1-1.882-1.18,8.417,8.417,0,0,1-2.3-3.053,8.131,8.131,0,0,0,4.022,4.571,12.749,12.749,0,0,0,2.349.86,27.687,27.687,0,0,1,5.123,1.555,6.582,6.582,0,0,1,1.159.732,3.928,3.928,0,0,1,.865,1.045,7.645,7.645,0,0,1,.851,2.756Z" transform="translate(-217.929 -193.192)" fill="#267a9b"/>
                  </g>
                </g>
              </g>
              <g id="Grupo_1119402" data-name="Grupo 1119402" transform="translate(4.09 56.413)">
                <g id="Grupo_1119401" data-name="Grupo 1119401">
                  <g id="Grupo_1119400" data-name="Grupo 1119400">
                    <path id="Trazado_970546" data-name="Trazado 970546" d="M247.877,267.732a3.513,3.513,0,0,1-1.272-.232,10.263,10.263,0,0,1-1.241-.546,8.553,8.553,0,0,0-2.655-.885c-1.8-.294-3.506-.209-5.069-.343a8.95,8.95,0,0,1-2.205-.4,4.013,4.013,0,0,1-1.715-1.066,10.159,10.159,0,0,1-1.092-1.55,6.866,6.866,0,0,0-1.037-1.356,7.354,7.354,0,0,1,.917,1.425,9.565,9.565,0,0,0,1.014,1.655,4.239,4.239,0,0,0,1.785,1.242,8.99,8.99,0,0,0,2.288.513c1.6.191,3.3.154,5.009.465a8.125,8.125,0,0,1,2.473.86,10.527,10.527,0,0,0,1.316.588,4.085,4.085,0,0,0,1.512.27Z" transform="translate(-231.591 -261.354)" fill="#267a9b"/>
                  </g>
                </g>
              </g>
              <g id="Grupo_1119405" data-name="Grupo 1119405" transform="translate(15.34 48.53)">
                <g id="Grupo_1119404" data-name="Grupo 1119404">
                  <g id="Grupo_1119403" data-name="Grupo 1119403">
                    <path id="Trazado_970547" data-name="Trazado 970547" d="M269.807,244.587a6.713,6.713,0,0,1,1.061-3.054,13.9,13.9,0,0,1,2.059-2.253,11.723,11.723,0,0,0,1.737-2.148,6.534,6.534,0,0,0,.563-1.063,2,2,0,0,0,.143-1.048,2.05,2.05,0,0,1-.269.991,7.33,7.33,0,0,1-.654.97,13.438,13.438,0,0,1-1.839,1.959,12.653,12.653,0,0,0-2.234,2.261,6.972,6.972,0,0,0-1.2,3.329Z" transform="translate(-269.168 -235.022)" fill="#267a9b"/>
                  </g>
                </g>
              </g>
              <g id="Grupo_1119408" data-name="Grupo 1119408" transform="translate(6.435 18.087)">
                <g id="Grupo_1119407" data-name="Grupo 1119407">
                  <g id="Grupo_1119406" data-name="Grupo 1119406">
                    <path id="Trazado_970548" data-name="Trazado 970548" d="M239.975,148.829a5.163,5.163,0,0,1-.147-2.488,8.4,8.4,0,0,1,.787-2.318,30.052,30.052,0,0,1,2.622-3.807,16.35,16.35,0,0,0,1.154-1.787,10.687,10.687,0,0,0,1.3-5.093,11.2,11.2,0,0,1-.65,3.249,10.807,10.807,0,0,1-.814,1.753,16.847,16.847,0,0,1-1.178,1.739,28.353,28.353,0,0,0-2.7,3.811,8.576,8.576,0,0,0-.832,2.4,5.427,5.427,0,0,0,.154,2.645Z" transform="translate(-239.424 -133.336)" fill="#267a9b"/>
                  </g>
                </g>
              </g>
              <g id="Grupo_1119411" data-name="Grupo 1119411" transform="translate(36.41 72.739)">
                <g id="Grupo_1119410" data-name="Grupo 1119410">
                  <g id="Grupo_1119409" data-name="Grupo 1119409">
                    <path id="Trazado_970549" data-name="Trazado 970549" d="M350.453,323.752a9.374,9.374,0,0,0-6.241-4.793,16.8,16.8,0,0,1-1.65-.352,4.738,4.738,0,0,1-1.353-.683,5.059,5.059,0,0,1-1.659-2.035,4.888,4.888,0,0,0,2.889,3.071,14.808,14.808,0,0,0,1.665.453,9.451,9.451,0,0,1,3.243,1.616,9.265,9.265,0,0,1,2.539,3.023Z" transform="translate(-339.549 -315.888)" fill="#267a9b"/>
                  </g>
                </g>
              </g>
              <g id="Grupo_1119414" data-name="Grupo 1119414" transform="translate(92.335 15.105)">
                <g id="Grupo_1119413" data-name="Grupo 1119413">
                  <g id="Grupo_1119412" data-name="Grupo 1119412">
                    <path id="Trazado_970550" data-name="Trazado 970550" d="M526.533,133.322a12.791,12.791,0,0,0,4.315-5.056,12.406,12.406,0,0,0,.913-2.632,12.54,12.54,0,0,0,.285-2.26,13.515,13.515,0,0,1-1.407,4.789,13.193,13.193,0,0,1-4.286,4.894Z" transform="translate(-526.354 -123.374)" fill="#267a9b"/>
                  </g>
                </g>
              </g>
              <g id="Grupo_1119417" data-name="Grupo 1119417" transform="translate(47.217 74.524)">
                <g id="Grupo_1119416" data-name="Grupo 1119416">
                  <g id="Grupo_1119415" data-name="Grupo 1119415">
                    <path id="Trazado_970551" data-name="Trazado 970551" d="M376.221,337.137a19.618,19.618,0,0,1,1.57-2.794,7.4,7.4,0,0,1,2.2-2.045,24.688,24.688,0,0,1,2.64-1.353,21.356,21.356,0,0,0,2.532-1.353,10.248,10.248,0,0,0,3.612-3.66,6.549,6.549,0,0,0,.806-4.082,6.708,6.708,0,0,1-1.035,3.95,10.287,10.287,0,0,1-3.628,3.394,22.209,22.209,0,0,1-2.512,1.257,23.692,23.692,0,0,0-2.728,1.338,8.564,8.564,0,0,0-1.3.953,7.829,7.829,0,0,0-1.1,1.23,19.3,19.3,0,0,0-1.635,2.88Z" transform="translate(-375.646 -321.851)" fill="#267a9b"/>
                  </g>
                </g>
              </g>
              <path id="Trazado_970552" data-name="Trazado 970552" d="M311.324,228.891c.972-.307,1.163,1.436-.04,2.886C311.284,231.777,310.05,229.293,311.324,228.891Z" transform="translate(-282.96 -182.172)" fill="#6eccc1"/>
              <path id="Trazado_970553" data-name="Trazado 970553" d="M273.358,81.257c.975.605-.374,2.047-2.495,2.084C270.863,83.34,272.08,80.464,273.358,81.257Z" transform="translate(-255.016 -78.664)" fill="#6eccc1"/>
              <path id="Trazado_970554" data-name="Trazado 970554" d="M545.873,185.27c.822.761-.739,1.892-2.779,1.532C543.094,186.8,544.8,184.272,545.873,185.27Z" transform="translate(-445.747 -151.471)" fill="#6eccc1"/>
              <path id="Trazado_970555" data-name="Trazado 970555" d="M490.823,73.3c.017-.681,1.16-.423,1.815.652C492.637,73.947,490.8,74.187,490.823,73.3Z" transform="translate(-409.124 -72.919)" fill="#6eccc1"/>
            </g>
            <g id="Grupo_1119419" data-name="Grupo 1119419" transform="translate(86.041 104.292)">
              <path id="Trazado_970556" data-name="Trazado 970556" d="M346.624,399.17a4.647,4.647,0,0,1,2.579,3.282c.2,1.6,1.918.848,2.314,2.905s.875,3.016,2.059,3.183c2.141.3,3.848,4.068,3.5,4.988-.2.534-14.352.495-22.962.13-1.512-.064.807-4.576,2.377-4.494,1.849.1,2.044-1.438,2.194-2.386.333-2.106,1.451-3.437,3.178-3.284C343.143,403.608,344.022,398.036,346.624,399.17Z" transform="translate(-333.622 -399.018)" fill="#1b7ba5"/>
            </g>
            <g id="Grupo_1119431" data-name="Grupo 1119431" transform="translate(133.675 49.159)">
              <g id="Grupo_1119430" data-name="Grupo 1119430" transform="translate(5.224)">
                <path id="Trazado_970557" data-name="Trazado 970557" d="M595.653,246.807l-.226,2.821a2.006,2.006,0,0,0,1.95,0l-.362-3.062Z" transform="translate(-569.907 -237.072)" fill="#f9c6b2"/>
                <g id="Grupo_1119420" data-name="Grupo 1119420" transform="translate(0.842 11.586)">
                  <path id="Trazado_970558" data-name="Trazado 970558" d="M517.8,282.174s-4.66.3-4.8.871,2.14.908,4.554.745a1.64,1.64,0,0,0,1.932-.678s-.719-.363-.311-1.888S517.968,280.836,517.8,282.174Z" transform="translate(-512.997 -272.429)" fill="#ddad9b"/>
                  <path id="Trazado_970559" data-name="Trazado 970559" d="M528.228,264.915l1.932-.678c7.606,2.958,10.747-.438,13.61-5.724,1.972-1.58,5.648-5.762,7.356-4.821,3.62,2-.636,12.5-10.817,15.2C533.515,270.7,528.228,264.915,528.228,264.915Z" transform="translate(-523.668 -253.555)" fill="#eac25c"/>
                </g>
                <path id="Trazado_970560" data-name="Trazado 970560" d="M563,442.048s-5.3.793-5.344,1.379,7.222.493,7.742.384a2.114,2.114,0,0,0-.225-1.763C564.608,441.339,563,442.048,563,442.048Z" transform="translate(-543.442 -373.811)" fill="#7e9196"/>
                <path id="Trazado_970561" data-name="Trazado 970561" d="M592.55,442.048s-5.3.793-5.344,1.379,7.222.493,7.742.384a2.113,2.113,0,0,0-.225-1.763C594.16,441.339,592.55,442.048,592.55,442.048Z" transform="translate(-564.147 -373.811)" fill="#7e9196"/>
                <path id="Trazado_970562" data-name="Trazado 970562" d="M567.839,311.548a51.385,51.385,0,0,0-.614,39.154H569.4s-1.256-13.249,2.165-21.169c3.243-7.509,7.177-13.244,5.539-18.179Z" transform="translate(-547.669 -282.465)" fill="#715eb5"/>
                <path id="Trazado_970563" data-name="Trazado 970563" d="M594.413,309.626s2.451,2.917,1.059,8.983c-1.576,6.869-5.134,17.043-1.538,30.365h-2.173s-11.34-16.588-1.978-40.086Z" transform="translate(-563.358 -280.737)" fill="#715eb5"/>
                <path id="Trazado_970564" data-name="Trazado 970564" d="M514.987,284.423s-4.66.3-4.8.871,2.14.908,4.554.745a1.641,1.641,0,0,0,1.932-.678s-.719-.362-.311-1.888S515.156,283.085,514.987,284.423Z" transform="translate(-510.185 -262.42)" fill="#ffd8c5"/>
                <path id="Trazado_970565" data-name="Trazado 970565" d="M525.416,264.963l1.932-.678c8.194,3.717,11.889,1.567,14.426-4.259,3.385-7.776,5.675-7.9,7.383-6.96,3.62,2-.7,13.205-10.877,15.913C531.485,270.786,525.416,264.963,525.416,264.963Z" transform="translate(-520.856 -241.344)" fill="#ffde80"/>
                <path id="Trazado_970566" data-name="Trazado 970566" d="M585.688,254.008s2.442-.159,2.739,4.355-1.771,8.1.015,12.812c0,0-6.739,1.515-10.885.194,0,0,.52-1.027.474-4.953S576.364,254.108,585.688,254.008Z" transform="translate(-557.387 -242.286)" fill="#ffde80"/>
                <g id="Grupo_1119423" data-name="Grupo 1119423" transform="translate(20.522 11.209)">
                  <g id="Grupo_1119422" data-name="Grupo 1119422">
                    <g id="Grupo_1119421" data-name="Grupo 1119421">
                      <path id="Trazado_970567" data-name="Trazado 970567" d="M587.893,255.622a3.658,3.658,0,0,0-.625-2.3,2.358,2.358,0,0,0-.425-.43l-.252-.166c-.086-.049-.171-.094-.26-.134a2.842,2.842,0,0,0-1.124-.289,3.069,3.069,0,0,0-2.037.815,8.224,8.224,0,0,0-1.379,1.542,32.592,32.592,0,0,0-3.056,5.973,36.914,36.914,0,0,1,3.2-5.87,8.2,8.2,0,0,1,1.366-1.489,2.875,2.875,0,0,1,1.9-.748,2.625,2.625,0,0,1,1.033.275,2.113,2.113,0,0,1,.848.665,3.45,3.45,0,0,1,.572,2.156,8.191,8.191,0,0,1-.4,2.278,13.277,13.277,0,0,1-.851,2.078,16.86,16.86,0,0,1-2.362,3.45,18.164,18.164,0,0,1-5.233,4.106,17.139,17.139,0,0,0,5.363-3.99,16.519,16.519,0,0,0,2.43-3.465,13.187,13.187,0,0,0,.878-2.111A8.3,8.3,0,0,0,587.893,255.622Z" transform="translate(-578.734 -252.298)" fill="#eac25c"/>
                    </g>
                  </g>
                </g>
                <g id="Grupo_1119426" data-name="Grupo 1119426" transform="translate(22.848 29.175)">
                  <g id="Grupo_1119425" data-name="Grupo 1119425">
                    <g id="Grupo_1119424" data-name="Grupo 1119424">
                      <path id="Trazado_970568" data-name="Trazado 970568" d="M590.751,322.946c-.967,2.074-1.912,4.019-2.671,5.768-.37.877-.736,1.69-.991,2.463a20.888,20.888,0,0,0-.587,2.1c.187-.607.415-1.3.711-2.05s.684-1.547,1.08-2.412c.808-1.722,1.779-3.649,2.749-5.729a30.5,30.5,0,0,0,2.213-5.975,12.86,12.86,0,0,0,.218-1.371c.019-.222.048-.439.057-.652s0-.422,0-.626c0-.1,0-.2,0-.3s-.023-.2-.035-.292l-.068-.559c-.07-.357-.168-.687-.244-.994.052.314.127.647.175,1l.036.557q.009.143.019.289c0,.1-.007.2-.011.3q-.013.3-.026.616c-.017.209-.055.422-.082.639-.042.437-.167.879-.259,1.341A35.043,35.043,0,0,1,590.751,322.946Z" transform="translate(-586.502 -312.309)" fill="#7971c6"/>
                    </g>
                  </g>
                </g>
                <g id="Grupo_1119427" data-name="Grupo 1119427" transform="translate(22.223 0.743)">
                  <path id="Trazado_970569" data-name="Trazado 970569" d="M584.417,217.336" transform="translate(-584.417 -217.336)" fill="#94ce6e"/>
                </g>
                <path id="Trazado_970570" data-name="Trazado 970570" d="M588.908,229.3s.61-.483.962-.178.132,1.332-.243,1.707c0,0-.086.236.442,1.725a2.745,2.745,0,0,1-1.936,1.694c-3.079.834-4.535-4.735-4.109-5.838S585.071,230.062,588.908,229.3Z" transform="translate(-561.867 -224.169)" fill="#ffd8c5"/>
                <path id="Trazado_970571" data-name="Trazado 970571" d="M585.62,236.5a8.983,8.983,0,0,0-.2,1.942c.132.142.917-.03.917-.1Z" transform="translate(-562.873 -230.02)" fill="#ffd8c5"/>
                <g id="Grupo_1119429" data-name="Grupo 1119429" transform="translate(25.378 8.484)">
                  <g id="Grupo_1119428" data-name="Grupo 1119428">
                    <path id="Trazado_970572" data-name="Trazado 970572" d="M594.955,243.193" transform="translate(-594.955 -243.193)" fill="none" stroke="#212223" stroke-miterlimit="10" stroke-width="1"/>
                  </g>
                </g>
                <path id="Trazado_970573" data-name="Trazado 970573" d="M588.6,236.5a.277.277,0,1,1-.276.277A.277.277,0,0,1,588.6,236.5Z" transform="translate(-564.934 -230.02)" fill="#222221"/>
                <path id="Trazado_970574" data-name="Trazado 970574" d="M594.537,227.321c-2.746-1.841-4.9-2.954-3.906-7.013.85-3.481-.833-5.754-4.644-4.609-1.186.357-2.245-1.609-3.934-.5-2.426,1.59-.221,4.73-.221,4.73l0,0a2.091,2.091,0,0,1,.06-.832c.426-1.1,1.047,1.649,4.884.89,0,0,.61-.483.962-.178s.132,1.332-.243,1.707c0,0-.086.237.443,1.725a2.4,2.4,0,0,1-1.223,1.4,5.138,5.138,0,0,1,.633,2.7,5.621,5.621,0,0,0,5.037,5.736C595.172,233.212,597.284,229.162,594.537,227.321Z" transform="translate(-559.74 -214.856)" fill="#715eb5"/>
                <path id="Trazado_970575" data-name="Trazado 970575" d="M588.815,242.96a1.334,1.334,0,0,1-.581.288,5.079,5.079,0,0,0,.306.406A.831.831,0,0,0,588.815,242.96Z" transform="translate(-564.868 -234.546)" fill="#fff"/>
              </g>
              <path id="Trazado_970576" data-name="Trazado 970576" d="M500.713,239.991s-11.062-8.867-7.134-14.23,7.373,3.321,7.373,3.321,2.259-9.449,8.464-5.509C514.04,226.51,505.325,238.133,500.713,239.991Z" transform="translate(-492.735 -220.29)" fill="#ff83ac"/>
            </g>
          </g>
        </g>
      </g>
    </g>
  </g>
</svg>
