<svg xmlns="http://www.w3.org/2000/svg" width="100" height="100" viewBox="0 0 100 100">
  <g id="Grupo_1117873" data-name="Grupo 1117873" transform="translate(0 0)">
    <g id="Grupo_156312" data-name="Grupo 156312" transform="translate(0 0)">
      <path id="Elipse_5845" data-name="Elipse 5845" d="M50,0A50,50,0,1,1,0,50,50,50,0,0,1,50,0Z" fill="#66d16a"/>
    </g>
    <g id="Grupo_1118801" data-name="Grupo 1118801" transform="translate(-44.316 11.824)">
      <path id="Trazado_969036" data-name="Trazado 969036" d="M122.61,48.636a11.835,11.835,0,0,0-.96-2.914,8.858,8.858,0,0,1-.693-2c1.2-1.467.417-3.23-.108-4.406-.429-.96-.713-1.667-.474-2.024,1.672-2.493,2.108-4.636,1.3-6.37a5.175,5.175,0,0,0-4.439-2.691c-.669-.07-1.344-.108-2-.144a13.677,13.677,0,0,1-2.575-.284c-2.165-3.305-4.157-4.149-6.472-4.388-.731-.076-1.411-.166-2.034-.27a10.671,10.671,0,0,0-3.088-6.51,10.417,10.417,0,0,0-4.589-2.686A7.244,7.244,0,0,1,98,11.222c1.72-2.069,4.168-3.568,5.952-3.643a2.6,2.6,0,0,0,2.512-2,4.681,4.681,0,0,0-2.4-4.8c-1.31-.781-4.91-2.09-10.021,2.609C93,4.345,88.873,5.55,86.889,6.128l-.514.15a3.928,3.928,0,0,0-3.154,3.144A9.541,9.541,0,0,1,81.9,12.262a7.4,7.4,0,0,1-.744.976c-1.423-.212-2.08,1.085-2.339,1.6-1.057,2.084-1.8,2.142-2.3,2.18a6.094,6.094,0,0,0-4.669,3.8,6.2,6.2,0,0,0,.165,6.243,4.392,4.392,0,0,1,.606,1.585,1.492,1.492,0,0,0,2.917-.623,7.178,7.178,0,0,0-1.084-2.68,3.433,3.433,0,0,1,.095-3.255c.545-1.157,1.47-2.038,2.2-2.095,1.342-.1,3.083-.621,4.678-3.705,1.144-.035,2.029-.978,2.955-2.365a12.476,12.476,0,0,0,1.691-3.627c.272-.894.272-.894,1.141-1.149l.509-.149c3.573-1.043,6.9-2.087,8.333-3.406,2.535-2.331,4.881-3.156,6.439-2.264a2.2,2.2,0,0,1,1.05,1.294c-3.116.262-6.154,2.669-7.842,4.7a9.591,9.591,0,0,0-2.2,4.273,10.265,10.265,0,0,0-7.052,3.044,10.622,10.622,0,0,0-3.135,7.461c0,3.935,2.495,7.866,3.982,9.859.643.861,3.973,5.156,6.458,5.156s5.816-4.3,6.458-5.156a20.694,20.694,0,0,0,3.772-7.816q.888.138,1.889.242c1.362.141,2.631.478,4.372,3.191.814,1.269,2.58,1.368,4.816,1.493.617.034,1.255.07,1.853.133a2.486,2.486,0,0,1,2.048.989c.323.69-.067,1.945-1.072,3.443-1.177,1.755-.331,3.649.228,4.9a5.825,5.825,0,0,1,.488,1.341c-1.239,1.429-.425,3.337.293,5.021a6.881,6.881,0,0,1,.754,2.487.279.279,0,0,1-.066.048c-.569.337-.939.223-2.332-.718-1.332-.9-3.345-2.26-5.8-.792-1.853,1.11-1.217,2.968-.911,3.861.272.794.426,1.309.17,1.817a3.267,3.267,0,0,1-.509.176A3.739,3.739,0,0,0,107.478,56a3.664,3.664,0,0,0,.313,3.354,7.053,7.053,0,0,1,.541,1.336,3.349,3.349,0,0,1-.116,2.685,10.67,10.67,0,0,0-.668,2.423,18.944,18.944,0,0,0-.04,3.889c.188,3.126-.035,3.508-1,3.671l-.056.007a7.971,7.971,0,0,1-.623-2.03,10.781,10.781,0,0,0-1.434-3.9,4.764,4.764,0,0,0-4.78-1.927,9.976,9.976,0,0,0-1.074.22c-1.006.24-3.1.738-3.957.151a1.3,1.3,0,0,1-.489-1.007,2.125,2.125,0,0,0-1.866-1.7,2.621,2.621,0,0,1-.353-.094,1.892,1.892,0,0,1-.087-.782,1.967,1.967,0,0,0-1.972-2.119l-.082-.01a2.548,2.548,0,0,1-.126-.581c-.1-.823-.668-1.813-4.114-3.469a26.885,26.885,0,0,0-5.448-2c-.574-.118-2.1-.431-2.793.761a1.423,1.423,0,0,1-.09.138,10.217,10.217,0,0,1-1.917-1.421c-1.421-1.214-3.02-2.58-4.91-2.671a5.919,5.919,0,0,1-1.226-1.251,2.675,2.675,0,0,0,.591-2.568,6.781,6.781,0,0,1,1.224-.16c2.069-.123,3.872-1.951,4.7-4.77a1.491,1.491,0,0,0-2.861-.845c-.438,1.485-1.288,2.594-2.021,2.637-1.9.113-2.972.507-3.6,1.317a2.777,2.777,0,0,0-.379,2.379l.009.043a2.3,2.3,0,0,0-.686,2.521c.419,1.392,2.549,3.736,4,3.676h.041c.879,0,2.15,1.086,3.174,1.96,1.443,1.233,2.807,2.4,4.406,2.125a2.813,2.813,0,0,0,1.659-.967,20.647,20.647,0,0,1,3.691,1.267,16.076,16.076,0,0,1,3.629,1.98c.315,1.861,1.254,2.509,2.139,2.753A3.139,3.139,0,0,0,91.3,66.014a4.056,4.056,0,0,0,1.61,2.33c1.948,1.333,4.693.679,6.333.289.285-.068.607-.145.729-.159,1.834-.214,2.3.6,2.957,3.518a10.05,10.05,0,0,0,.9,2.789,2.9,2.9,0,0,0,2.585,1.572,3.575,3.575,0,0,0,.6-.052,3.874,3.874,0,0,0,3.308-2.881,12.08,12.08,0,0,0,.166-3.911,16.47,16.47,0,0,1,.014-3.274,7.777,7.777,0,0,1,.505-1.8,6.2,6.2,0,0,0,.2-4.533,9.952,9.952,0,0,0-.744-1.869c-.326-.661-.321-.674-.228-.9.107-.26.165-.31.819-.5a3.379,3.379,0,0,0,2.312-1.656,4.968,4.968,0,0,0,.009-4.165c-.048-.141-.107-.312-.149-.455.606-.26,1.122-.014,2.364.824,1.283.867,3.222,2.176,5.523.812a3.146,3.146,0,0,0,1.494-3.357ZM98.026,31.9c-1.882,2.6-3.662,3.991-4.265,4.209-.6-.218-2.383-1.611-4.265-4.209-2.028-2.8-3.192-5.646-3.192-7.807a7.619,7.619,0,0,1,2.258-5.348,7.3,7.3,0,0,1,5.178-2.18h.055a7.3,7.3,0,0,1,5.167,2.18,7.62,7.62,0,0,1,2.258,5.348C101.217,26.255,100.054,29.1,98.026,31.9Z" transform="translate(0 0)" fill="#001a58"/>
      <path id="Trazado_969037" data-name="Trazado 969037" d="M226.72,131.551a4.474,4.474,0,1,0,4.474,4.474A4.479,4.479,0,0,0,226.72,131.551Zm0,5.966a1.491,1.491,0,1,1,1.491-1.491A1.493,1.493,0,0,1,226.72,137.517Z" transform="translate(-132.96 -111.931)" fill="#001a58"/>
      <path id="Trazado_969038" data-name="Trazado 969038" d="M112.852,227.925a1.491,1.491,0,0,0,1.491-1.491h0a1.491,1.491,0,1,0-1.491,1.492Z" transform="translate(-38.613 -191.394)" fill="#001a58"/>
    </g>
  </g>
</svg>
