<svg xmlns="http://www.w3.org/2000/svg" xmlns:xlink="http://www.w3.org/1999/xlink" width="200" height="130" viewBox="0 0 200 130">
  <defs>
    <clipPath id="clip-path">
      <rect id="Rectángulo_417354" data-name="Rectángulo 417354" width="162.534" height="124.588" fill="none"/>
    </clipPath>
  </defs>
  <g id="Grupo_1120126" data-name="Grupo 1120126" transform="translate(-205.711 -8188)">
    <rect id="Rectángulo_416563" data-name="Rectángulo 416563" width="200" height="130" transform="translate(205.711 8188)" fill="#66d16a"/>
    <g id="Grupo_1120125" data-name="Grupo 1120125" transform="translate(224.711 8191)">
      <g id="Grupo_1120124" data-name="Grupo 1120124" clip-path="url(#clip-path)">
        <path id="Trazado_972482" data-name="Trazado 972482" d="M83.266,116.4l-80.044.464c-8.221-33.718,16.3-44.185,14.7-67C14.078-4.445,96.05-4.445,110.819,27.383c11.276,24.291,5.312,22.4,24.774,36.849,26.877,19.962,10.387,43.87.445,52.811Z" transform="translate(0.894 3.365)" fill="#d6f2e7"/>
        <path id="Trazado_972483" data-name="Trazado 972483" d="M10.522,27.476S2.72,29.228.9,22.413c0,0,7.478-.291,9.626,5.063" transform="translate(0.523 13.08)" fill="#fa2d68"/>
        <path id="Trazado_972484" data-name="Trazado 972484" d="M42.623,54.16l-.822.295C37.337,41.945,5.834,25.768,5.514,25.6l.4-.774c1.31.665,32.133,16.5,36.711,29.33" transform="translate(3.218 14.493)" fill="#fa2d68"/>
        <path id="Trazado_972485" data-name="Trazado 972485" d="M14.547,32.592l-.854-.188c.844-3.79-4.9-8.732-4.952-8.785l.565-.662c.255.217,6.2,5.342,5.24,9.635" transform="translate(5.102 13.4)" fill="#fa2d68"/>
        <path id="Trazado_972486" data-name="Trazado 972486" d="M12.239,29.22c-.035.043-.071.087-.106.127l-.649-.581c1.52-1.748.114-6.121.1-6.165l.827-.277c.065.2,1.56,4.719-.171,6.9" transform="translate(6.703 13.03)" fill="#fa2d68"/>
        <path id="Trazado_972487" data-name="Trazado 972487" d="M12.069,27.575S4.423,25.219,6.227,18.4c0,0,6.634,3.462,5.842,9.177" transform="translate(3.474 10.739)" fill="#fa2d68"/>
        <path id="Trazado_972488" data-name="Trazado 972488" d="M12.442,27.5S7.935,20.891,13.6,16.682c0,0,3.03,6.838-1.155,10.817" transform="translate(6.27 9.737)" fill="#fa2d68"/>
        <path id="Trazado_972489" data-name="Trazado 972489" d="M17.94,36.111l-.727-.478c2.136-3.24-1.466-9.908-1.5-9.972l.767-.42c.16.293,3.888,7.2,1.463,10.87" transform="translate(9.17 14.733)" fill="#fa2d68"/>
        <path id="Trazado_972490" data-name="Trazado 972490" d="M18.682,31.265a3.352,3.352,0,0,1-1.083.915l-.4-.773c2.079-1.074,2.288-5.676,2.292-5.722l.871.033c-.006.176-.162,3.641-1.68,5.546" transform="translate(10.039 14.993)" fill="#fa2d68"/>
        <path id="Trazado_972491" data-name="Trazado 972491" d="M17.742,30.578s-6.3-4.924-2.189-10.657c0,0,4.965,5.6,2.189,10.657" transform="translate(8.265 11.628)" fill="#fa2d68"/>
        <path id="Trazado_972492" data-name="Trazado 972492" d="M18.623,30.3s-1.858-7.779,4.93-9.7c0,0,.394,7.473-4.93,9.7" transform="translate(10.734 12.026)" fill="#fa2d68"/>
        <path id="Trazado_972493" data-name="Trazado 972493" d="M22.253,37.461a4.721,4.721,0,0,1-1.318,1.166l-.439-.751c3.346-1.959,3.071-9.531,3.068-9.608l.873-.036c.011.288.225,6.2-2.184,9.23" transform="translate(11.964 16.478)" fill="#fa2d68"/>
        <path id="Trazado_972494" data-name="Trazado 972494" d="M26.152,32.049c-.987,1.238-2.444,2.626-4.049,2.656l-.011-.874c2.338-.041,4.564-4.075,4.586-4.116l.765.418a14.218,14.218,0,0,1-1.291,1.916" transform="translate(12.894 17.344)" fill="#fa2d68"/>
        <path id="Trazado_972495" data-name="Trazado 972495" d="M22.92,33.475s-3.47-7.207,2.754-10.524c0,0,1.975,7.217-2.754,10.524" transform="translate(12.815 13.396)" fill="#fa2d68"/>
        <path id="Trazado_972496" data-name="Trazado 972496" d="M24.428,33.052s1.777-7.795,8.715-6.511c0,0-2.957,6.875-8.715,6.511" transform="translate(14.258 15.409)" fill="#fa2d68"/>
        <path id="Trazado_972497" data-name="Trazado 972497" d="M17.779,31.012c-3.82,2.181-10.473-1.98-10.753-2.159l.464-.736c.065.04,6.492,4.057,9.857,2.136Z" transform="translate(4.101 16.411)" fill="#fa2d68"/>
        <path id="Trazado_972498" data-name="Trazado 972498" d="M13.7,30.613c-1.682,2.116-6.2,2.029-6.406,2.026l.022-.874c.046,0,4.661.082,5.856-1.918l.747.448a2.918,2.918,0,0,1-.22.318" transform="translate(4.26 17.421)" fill="#fa2d68"/>
        <path id="Trazado_972499" data-name="Trazado 972499" d="M12.284,30.38s-4.51-6.607-10.492-2.87c0,0,5.266,5.316,10.492,2.87" transform="translate(1.046 15.389)" fill="#fa2d68"/>
        <path id="Trazado_972500" data-name="Trazado 972500" d="M12.04,31.165s-7.641-2.357-9.993,4.3c0,0,7.431.876,9.993-4.3" transform="translate(1.195 17.954)" fill="#fa2d68"/>
        <path id="Trazado_972501" data-name="Trazado 972501" d="M21.99,32.978c-2.632,3.307-9.957,2.738-10.278,2.713l.074-.869c.074.006,7.618.6,9.724-2.669l.735.472c-.079.122-.165.239-.255.353" transform="translate(6.836 18.767)" fill="#fa2d68"/>
        <path id="Trazado_972502" data-name="Trazado 972502" d="M17.331,35.917A12.715,12.715,0,0,1,13.5,38.855l-.385-.782c.043-.017,4.165-2.075,4.3-4.411l.869.049a4.006,4.006,0,0,1-.955,2.206" transform="translate(7.653 19.648)" fill="#fa2d68"/>
        <path id="Trazado_972503" data-name="Trazado 972503" d="M17.012,34.448s-7.057-3.764-10.63,2.317c0,0,7.13,2.269,10.63-2.317" transform="translate(3.725 19.434)" fill="#fa2d68"/>
        <path id="Trazado_972504" data-name="Trazado 972504" d="M16.584,35.926S8.722,37.38,9.716,44.364c0,0,6.99-2.669,6.868-8.438" transform="translate(5.62 20.969)" fill="#fa2d68"/>
        <path id="Trazado_972505" data-name="Trazado 972505" d="M26.294,37.8c-2.5,3.137-9.014,3.657-9.318,3.677l-.063-.871c.076,0,7.624-.6,9.192-4.152l.8.353a4.5,4.5,0,0,1-.608.993" transform="translate(9.871 21.279)" fill="#fa2d68"/>
        <path id="Trazado_972506" data-name="Trazado 972506" d="M21.78,41.576a14.042,14.042,0,0,1-2.621,2.469l-.5-.713c.038-.027,3.791-2.7,3.56-5.031l.868-.084a4.91,4.91,0,0,1-1.3,3.359" transform="translate(10.89 22.307)" fill="#fa2d68"/>
        <path id="Trazado_972507" data-name="Trazado 972507" d="M22,39.245s-7.556-2.619-10.137,3.947c0,0,7.4,1.129,10.137-3.947" transform="translate(6.921 22.606)" fill="#fa2d68"/>
        <path id="Trazado_972508" data-name="Trazado 972508" d="M21.62,40.789s-7.542,2.664-5.468,9.4c0,0,6.492-3.723,5.468-9.4" transform="translate(9.217 23.808)" fill="#fa2d68"/>
        <path id="Trazado_972509" data-name="Trazado 972509" d="M41.475,46.871l-.648,1.162a47.985,47.985,0,0,1-11.111-9.895c-6.994-8.457-9.874-18.1-8.321-27.9l1.2.13c-3.6,22.759,18.657,36.366,18.881,36.506" transform="translate(12.249 5.975)" fill="#5a70e0"/>
        <path id="Trazado_972510" data-name="Trazado 972510" d="M22.413,15.888s-5.3-5.4-.192-12.763c0,0,4.2,6.457.192,12.763" transform="translate(11.673 1.824)" fill="#5a70e0"/>
        <path id="Trazado_972511" data-name="Trazado 972511" d="M25.239,19.744s-9.613.486-10.036-10.8c0,0,5.177-.421,10.036,10.8" transform="translate(8.874 5.221)" fill="#5a70e0"/>
        <path id="Trazado_972512" data-name="Trazado 972512" d="M21.344,20.727s9.491-2.342,8.512-13.542c0,0-5.13,1.1-8.512,13.542" transform="translate(12.458 4.194)" fill="#5a70e0"/>
        <path id="Trazado_972513" data-name="Trazado 972513" d="M27.02,24.942S17.433,26.494,15.928,15.4c0,0,5.139-1,11.092,9.542" transform="translate(9.297 8.974)" fill="#5a70e0"/>
        <path id="Trazado_972514" data-name="Trazado 972514" d="M22.733,26.683s9.288-3.362,7.233-14.318c0,0-5.038,1.658-7.233,14.318" transform="translate(13.269 7.217)" fill="#5a70e0"/>
        <path id="Trazado_972515" data-name="Trazado 972515" d="M30.852,29.661s-9.317,3.285-12.578-7.228c0,0,4.97-1.931,12.578,7.228" transform="translate(10.666 12.994)" fill="#5a70e0"/>
        <path id="Trazado_972516" data-name="Trazado 972516" d="M26.014,32.593a12.348,12.348,0,0,0,4.943-15.276s-4.762,2.545-4.943,15.276" transform="translate(15.184 10.108)" fill="#5a70e0"/>
        <path id="Trazado_972517" data-name="Trazado 972517" d="M35.311,32.446s-8.368,5.738-14.128-3.31c0,0,4.426-3.22,14.128,3.31" transform="translate(12.364 16.543)" fill="#5a70e0"/>
        <path id="Trazado_972518" data-name="Trazado 972518" d="M30.3,36.862s7.377-7.192,1.166-15.856c0,0-4.068,3.747-1.166,15.856" transform="translate(17.076 12.261)" fill="#5a70e0"/>
        <path id="Trazado_972519" data-name="Trazado 972519" d="M64.493,53.572l-.171,1.739a62.111,62.111,0,0,0,19.256-2.336C97.351,49.1,107.6,40.863,113.22,29.126l-1.376-.757c-13.054,27.244-47.01,25.222-47.351,25.2" transform="translate(37.544 16.559)" fill="#a6b900"/>
        <path id="Trazado_972520" data-name="Trazado 972520" d="M94.2,34.682s9.694-1.853,9.691-13.626c0,0-9.3,3.818-9.691,13.626" transform="translate(54.981 12.29)" fill="#a6b900"/>
        <path id="Trazado_972521" data-name="Trazado 972521" d="M90.777,36.514s9.931,7.736,18.771-4.121c0,0-5.231-4.336-18.771,4.121" transform="translate(52.985 18.259)" fill="#a6b900"/>
        <path id="Trazado_972522" data-name="Trazado 972522" d="M92.29,42.436s-8.428-9.641.944-20.987c0,0,4.677,5.033-.944,20.987" transform="translate(51.836 12.519)" fill="#a6b900"/>
        <path id="Trazado_972523" data-name="Trazado 972523" d="M85.084,40.993s9.122,8.865,18.973-1.973c0,0-4.762-4.93-18.973,1.973" transform="translate(49.662 21.78)" fill="#a6b900"/>
        <path id="Trazado_972524" data-name="Trazado 972524" d="M86.262,47.464S78.811,36.871,89.155,26.6c0,0,4.16,5.565-2.893,20.863" transform="translate(48.834 15.527)" fill="#a6b900"/>
        <path id="Trazado_972525" data-name="Trazado 972525" d="M77.465,43.681S85.007,54.2,96.317,45.314c0,0-3.891-5.806-18.852-1.633" transform="translate(45.215 24.615)" fill="#a6b900"/>
        <path id="Trazado_972526" data-name="Trazado 972526" d="M78.161,50.742s-5.632-11.933,6.054-20.179c0,0,3.212,6.319-6.054,20.179" transform="translate(44.83 17.839)" fill="#a6b900"/>
        <path id="Trazado_972527" data-name="Trazado 972527" d="M70.33,44.521s4.7,12.464,17.593,7.027c0,0-2.35-6.788-17.593-7.027" transform="translate(41.051 25.986)" fill="#a6b900"/>
        <path id="Trazado_972528" data-name="Trazado 972528" d="M70.546,51.374S67.986,38.089,81.077,33.406c0,0,1.574,7.093-10.531,17.968" transform="translate(41.058 19.499)" fill="#a6b900"/>
        <path id="Trazado_972529" data-name="Trazado 972529" d="M75.351,63.991c25.474-29.5,23.815-60.087,23.792-60.4l-1.311.087c.021.3,1.634,30.383-23.477,59.458Z" transform="translate(43.4 2.096)" fill="#fca09f"/>
        <path id="Trazado_972530" data-name="Trazado 972530" d="M89.114,17.789l1.25-.415L87.5,8.69l-1.25.405Z" transform="translate(50.341 5.072)" fill="#fca09f"/>
        <rect id="Rectángulo_417349" data-name="Rectángulo 417349" width="1.323" height="9.15" transform="translate(132.652 23.646) rotate(-30.202)" fill="#fca09f"/>
        <path id="Trazado_972531" data-name="Trazado 972531" d="M86.132,29.121l1.147-.662-4.62-7.906-1.134.659Z" transform="translate(47.585 11.996)" fill="#fca09f"/>
        <rect id="Rectángulo_417350" data-name="Rectángulo 417350" width="1.313" height="9.153" transform="matrix(0.864, -0.504, 0.504, 0.864, 124.734, 41.576)" fill="#fca09f"/>
        <path id="Trazado_972532" data-name="Trazado 972532" d="M80.305,39.68l1.134-.665-4.607-7.9-1.136.665Z" transform="translate(44.183 18.162)" fill="#fca09f"/>
        <path id="Trazado_972533" data-name="Trazado 972533" d="M89.462,16.162l5.369-7.418-1.066-.763L88.4,15.389Z" transform="translate(51.596 4.658)" fill="#fca09f"/>
        <rect id="Rectángulo_417351" data-name="Rectángulo 417351" width="9.156" height="1.316" transform="translate(137.984 29.156) rotate(-43.149)" fill="#fca09f"/>
        <path id="Trazado_972534" data-name="Trazado 972534" d="M85.349,27.68l8.063-4.339-.626-1.158-8.059,4.328Z" transform="translate(49.454 12.948)" fill="#fca09f"/>
        <rect id="Rectángulo_417352" data-name="Rectángulo 417352" width="9.159" height="1.316" transform="translate(128.988 49.937) rotate(-25.333)" fill="#fca09f"/>
        <rect id="Rectángulo_417353" data-name="Rectángulo 417353" width="9.156" height="1.316" transform="translate(121.857 60.045) rotate(-20.09)" fill="#fca09f"/>
        <path id="Trazado_972535" data-name="Trazado 972535" d="M88.134,2.829A3.187,3.187,0,1,0,92.3,1.1a3.186,3.186,0,0,0-4.165,1.726" transform="translate(51.299 0.503)" fill="#fca09f"/>
        <path id="Trazado_972536" data-name="Trazado 972536" d="M84.058,8.017a3.186,3.186,0,1,0,4.045-2,3.186,3.186,0,0,0-4.045,2" transform="translate(48.965 3.413)" fill="#fca09f"/>
        <path id="Trazado_972537" data-name="Trazado 972537" d="M82.1,13.087a3.187,3.187,0,1,0,4.464-.575,3.17,3.17,0,0,0-4.464.575" transform="translate(47.528 6.913)" fill="#fca09f"/>
        <path id="Trazado_972538" data-name="Trazado 972538" d="M79.857,19.121a3.192,3.192,0,1,0,4.477-.569,3.2,3.2,0,0,0-4.477.569" transform="translate(46.225 10.44)" fill="#fca09f"/>
        <path id="Trazado_972539" data-name="Trazado 972539" d="M77.094,24.4a3.193,3.193,0,1,0,4.474-.569,3.2,3.2,0,0,0-4.474.569" transform="translate(44.611 13.521)" fill="#fca09f"/>
        <path id="Trazado_972540" data-name="Trazado 972540" d="M74.026,29.689a3.186,3.186,0,1,0,4.476-.575,3.186,3.186,0,0,0-4.476.575" transform="translate(42.82 16.605)" fill="#fca09f"/>
        <path id="Trazado_972541" data-name="Trazado 972541" d="M97.48,8.656A3.188,3.188,0,1,1,94.233,5.52,3.194,3.194,0,0,1,97.48,8.656" transform="translate(53.176 3.222)" fill="#fca09f"/>
        <path id="Trazado_972542" data-name="Trazado 972542" d="M97.053,16a3.189,3.189,0,1,1-2.592-3.687A3.192,3.192,0,0,1,97.053,16" transform="translate(52.954 7.156)" fill="#fca09f"/>
        <path id="Trazado_972543" data-name="Trazado 972543" d="M95.27,24.875a3.183,3.183,0,1,1-1.547-4.228,3.176,3.176,0,0,1,1.547,4.228" transform="translate(52.064 11.878)" fill="#fca09f"/>
        <path id="Trazado_972544" data-name="Trazado 972544" d="M92.053,31.965a3.188,3.188,0,1,1-1.34-4.3,3.191,3.191,0,0,1,1.34,4.3" transform="translate(50.219 15.932)" fill="#fca09f"/>
        <path id="Trazado_972545" data-name="Trazado 972545" d="M87.576,39.209a3.188,3.188,0,1,1-.944-4.4,3.2,3.2,0,0,1,.944,4.4" transform="translate(47.693 20.015)" fill="#fca09f"/>
        <path id="Trazado_972546" data-name="Trazado 972546" d="M25.144,72.91,22.49,44.069,29.9,41.61l.844-18.366,3.638.166,1.466,17.674,4.168-1.409.385-8.386,3.677-.632-.386,8.386,5.985-1.324L49.2,48.1l5.5-.548,1.066-23.158,4.1.187,1.33,20.67L66.7,45.5,65.293,35.235l1.878.087L72.1,45.756l7.819-1.444L81.5,9.971l7.275.334,2.1,33.709,6.824.312,1.156-25.154,5.934-.13,4.32,25.008,8.115,1.975,1.02,27.783Z" transform="translate(13.127 5.82)" fill="#9bc2e0"/>
        <path id="Trazado_972547" data-name="Trazado 972547" d="M66.323,8.152a3.614,3.614,0,0,1-7.16-.328,3.614,3.614,0,0,1,7.16.328" transform="translate(34.531 2.826)" fill="#bee4d7"/>
        <path id="Trazado_972548" data-name="Trazado 972548" d="M73.6,7.87c-.135,2.939-2.955,5.2-6.3,5.042s-5.948-2.661-5.812-5.6,2.955-5.194,6.3-5.039,5.948,2.661,5.812,5.6" transform="translate(35.887 1.323)" fill="#bee4d7"/>
        <path id="Trazado_972549" data-name="Trazado 972549" d="M76.408,4.841c-.116,2.537-2.553,4.485-5.443,4.352S65.829,6.9,65.945,4.358,68.5-.127,71.388.006s5.137,2.3,5.02,4.835" transform="translate(38.488 0)" fill="#bee4d7"/>
        <path id="Trazado_972550" data-name="Trazado 972550" d="M78.11,7.766c-.128,2.762-2.783,4.884-5.928,4.738s-5.6-2.5-5.468-5.261S69.495,2.359,72.641,2.5s5.6,2.5,5.468,5.261" transform="translate(38.937 1.458)" fill="#bee4d7"/>
        <path id="Trazado_972551" data-name="Trazado 972551" d="M80.257,6.775a3.94,3.94,0,0,1-7.806-.359,3.941,3.941,0,0,1,7.806.359" transform="translate(42.287 1.848)" fill="#bee4d7"/>
        <path id="Trazado_972552" data-name="Trazado 972552" d="M76.2,13.419a2.632,2.632,0,0,1-5.213-.238,2.632,2.632,0,0,1,5.213.238" transform="translate(41.43 6.426)" fill="#bee4d7"/>
        <path id="Trazado_972553" data-name="Trazado 972553" d="M81.5,13.214a4.452,4.452,0,0,1-8.821-.405,4.453,4.453,0,0,1,8.821.405" transform="translate(42.417 5.332)" fill="#bee4d7"/>
        <path id="Trazado_972554" data-name="Trazado 972554" d="M83.538,11.01a3.846,3.846,0,0,1-7.619-.353,3.846,3.846,0,0,1,7.619.353" transform="translate(44.311 4.369)" fill="#bee4d7"/>
        <path id="Trazado_972555" data-name="Trazado 972555" d="M84.776,13.139a4.188,4.188,0,0,1-8.3-.38,4.188,4.188,0,0,1,8.3.38" transform="translate(44.638 5.429)" fill="#bee4d7"/>
        <path id="Trazado_972556" data-name="Trazado 972556" d="M86.339,12.417a2.868,2.868,0,0,1-5.681-.26,2.868,2.868,0,0,1,5.681.26" transform="translate(47.077 5.715)" fill="#bee4d7"/>
        <path id="Trazado_972557" data-name="Trazado 972557" d="M31.821,16.835A2.465,2.465,0,0,1,29.109,19a2.464,2.464,0,0,1-2.5-2.406,2.465,2.465,0,0,1,2.711-2.17,2.468,2.468,0,0,1,2.5,2.407" transform="translate(15.53 8.42)" fill="#bee4d7"/>
        <path id="Trazado_972558" data-name="Trazado 972558" d="M37.123,16.63A4.172,4.172,0,0,1,32.535,20.3,4.17,4.17,0,0,1,28.3,16.225a4.171,4.171,0,0,1,4.588-3.668,4.172,4.172,0,0,1,4.233,4.073" transform="translate(16.517 7.326)" fill="#bee4d7"/>
        <path id="Trazado_972559" data-name="Trazado 972559" d="M39.164,14.426A3.6,3.6,0,0,1,35.2,17.594a3.605,3.605,0,0,1-3.657-3.517,3.6,3.6,0,0,1,3.964-3.171,3.6,3.6,0,0,1,3.655,3.521" transform="translate(18.411 6.363)" fill="#bee4d7"/>
        <path id="Trazado_972560" data-name="Trazado 972560" d="M40.4,16.557a3.924,3.924,0,0,1-4.316,3.449,3.923,3.923,0,0,1-3.98-3.833,3.92,3.92,0,0,1,4.314-3.449A3.924,3.924,0,0,1,40.4,16.557" transform="translate(18.737 7.424)" fill="#bee4d7"/>
        <path id="Trazado_972561" data-name="Trazado 972561" d="M41.965,15.833a2.868,2.868,0,0,1-5.681-.26,2.868,2.868,0,0,1,5.681.26" transform="translate(21.177 7.709)" fill="#bee4d7"/>
        <path id="Trazado_972562" data-name="Trazado 972562" d="M138.566,76.325c0,2.463-5.627,5.633-60.264,5.633s-76.994-1.934-76.994-4.4,22.36-4.525,76.994-4.525,60.264.822,60.264,3.288" transform="translate(0.763 42.631)" fill="#bee4d7"/>
        <path id="Trazado_972563" data-name="Trazado 972563" d="M17.8,50.346S27.189,93.96,66.2,94.044c41.117.089,63.512-20.572,73.6-51.532,0,0-24.222,16.188-56.048,11.1S29.212,44.8,17.8,50.346" transform="translate(10.388 24.814)" fill="#0a3c33"/>
        <path id="Trazado_972564" data-name="Trazado 972564" d="M153.19,39.283s-5.225,17.576-48.234,20.35S48.6,42.522,2.554,65.183c0,0-5.747-10.177,0-14.8,0,0,23.782-8.272,47.829-5.985s63.629,22.634,102.806-5.114" transform="translate(0 22.929)" fill="#519d45"/>
        <path id="Trazado_972565" data-name="Trazado 972565" d="M90.532,70.356S80.33,55.162,66.158,52.212s4.882-1.587,4.882-1.587S82.5,55.664,90.532,70.356" transform="translate(35.556 29.367)" fill="#519d45"/>
        <path id="Trazado_972566" data-name="Trazado 972566" d="M74.676,69.827S63.541,55.732,50.668,51.252s4.064-.621,4.064-.621,10.786,5.828,19.945,19.2" transform="translate(26.756 28.653)" fill="#519d45"/>
        <path id="Trazado_972567" data-name="Trazado 972567" d="M60.328,71.149S46.68,53.871,30.9,48.384s4.982-.763,4.982-.763S49.1,54.761,60.328,71.149" transform="translate(14.58 26.693)" fill="#519d45"/>
        <path id="Trazado_972568" data-name="Trazado 972568" d="M44.666,27.156a3.2,3.2,0,0,1,3.7.99c1.489,2.054,2.187,7.176,5.391,8.593s5.112.016,6.509-.759,1.593-1.737,2.459-2.1,1.246.687-.694,2.466c-.934.85-5.028,5.608-9.155,4.631-5.413-1.288-11.737-12.026-8.207-13.821" transform="translate(25.474 15.72)" fill="#e28c71"/>
        <path id="Trazado_972569" data-name="Trazado 972569" d="M53.359,40.26c1.929,4.995,7.008,14.964,8.972,13.6s2.61-2.794,1.259-2.317-1.478.38-1.672.013c-1.25-2.317-2.035-7.749-3.316-11.469-1.484-4.316-6.929-4.2-5.242.173" transform="translate(30.958 21.546)" fill="#f9b5a0"/>
        <path id="Trazado_972570" data-name="Trazado 972570" d="M57.988,48.3s2.173-.51,2.711-2c0,0,2.084-1.107,1.237.263s-2.862,3.471-3.948,1.733" transform="translate(33.847 26.783)" fill="#7585f8"/>
        <path id="Trazado_972571" data-name="Trazado 972571" d="M44.944,42.995s9.763-12.641,13.738-10.4C62.262,34.606,66.3,49.735,66.3,49.735a6.237,6.237,0,0,1-4.106,2.827l-5.616-9.174L48.21,53.152l-2.982-7.383Z" transform="translate(26.233 18.869)" fill="#ed2051"/>
        <path id="Trazado_972572" data-name="Trazado 972572" d="M47.687,48.245C45.227,53,41.137,63.413,43.461,63.98s3.82.1,2.569-.6-1.267-.854-1.12-1.245c.906-2.471,4.447-6.663,6.381-10.09,2.243-3.973-1.457-7.968-3.6-3.8" transform="translate(24.965 27.129)" fill="#f9b5a0"/>
        <path id="Trazado_972573" data-name="Trazado 972573" d="M42.778,56.7S44.6,58,46.07,57.413c0,0,2.208.827.622,1.1s-4.494.16-3.915-1.81" transform="translate(24.925 33.098)" fill="#7585f8"/>
        <path id="Trazado_972574" data-name="Trazado 972574" d="M47.672,39.758s8.694,1.688,9.66,6.146c.863,4.015-7.779,17.074-7.779,17.074a6.244,6.244,0,0,1-4.844-1.2L47.8,50.439s-5.579-1.831-6.754-4.661c-2.789-6.731,2.208-6.286,2.208-6.286Z" transform="translate(23.461 23.047)" fill="#ff2e56"/>
        <path id="Trazado_972575" data-name="Trazado 972575" d="M54.611,42.186A21.493,21.493,0,0,0,52.273,30.3c-2.383-4.54-6.984-3.5-9.629-2.338s-7.032,2.96-3.76,8.452c2.281,3.833,2.007,6.651,1.858,11.043-.008.114-.019.22-.027.334a.031.031,0,0,0-.017-.006l.017.006c-.877,4.971,13.281-1.278,13.9-5.6" transform="translate(22.016 15.739)" fill="#fcc922"/>
        <path id="Trazado_972576" data-name="Trazado 972576" d="M41.174,25.176s1.582,1.946.321,3.508c-1.3,1.6,5.7,3.343,5.229,2.1-.608-1.617-1.7-2.388-1.362-4.5Z" transform="translate(24.033 14.695)" fill="#e0623f"/>
        <path id="Trazado_972577" data-name="Trazado 972577" d="M44.195,22.117c1.744.983,4.718,6.465,3.557,8.126-.512.717-3.335.749-5.655-1.411a5.058,5.058,0,0,1-1.726-4.914c.26-1.028,1.8-2.939,3.825-1.8" transform="translate(23.483 12.705)" fill="#f27851"/>
        <path id="Trazado_972578" data-name="Trazado 972578" d="M46.118,22.686c.5.659.447.85-1.683,1.736s-2.542.835-2.187,1.3c1.045,1.383-.607,1.47.656,3.121s-.866.983-2.059-.328a4.311,4.311,0,0,1-1.025-4.084c.591-3,4.472-4.159,6.3-1.75" transform="translate(23.174 12.486)" fill="#39021f"/>
        <path id="Trazado_972579" data-name="Trazado 972579" d="M39.833,24.431a4.257,4.257,0,0,0,1.025,4.084c.888.972,2.3,1.619,2.431,1.164.152-.548-1.307-.382-1.234-1.78s-.857-1.462-.933-2.646.822-1.177,3.221-2.176c.976-.409,1.072-.85.852-1.227a3.742,3.742,0,0,0-5.362,2.581" transform="translate(23.163 12.491)" fill="#39021f"/>
        <path id="Trazado_972580" data-name="Trazado 972580" d="M40.7,46.389c-.008.114-.019.22-.027.334a.025.025,0,0,0-.016-.006l.016.006C40,50.565,48.308,47.7,52.394,44.2c.122-1.463-3.5.179-5.354-.146-4.287-.751,6.129-6.816,3.826-6.683-2.478.139-5.188,2.14-5.5-1.444s-.657-4.962-2.73-6.3C38.4,26.9,37.063,31.561,38.141,33.9a9.306,9.306,0,0,0,.7,1.444C41.126,39.178,40.852,42,40.7,46.389" transform="translate(22.055 16.807)" fill="#ea9d15"/>
        <path id="Trazado_972581" data-name="Trazado 972581" d="M39.958,29.2a3.189,3.189,0,0,1,2.881,2.518c.432,2.5-1.2,7.405,1.047,10.093s4.58,2.273,6.173,2.193,2.2-.86,3.136-.8.817,1.169-1.709,1.905c-1.215.353-6.987,2.814-10.262.114C36.936,41.678,36,29.246,39.958,29.2" transform="translate(21.856 17.042)" fill="#f27851"/>
      </g>
    </g>
  </g>
</svg>
