<svg xmlns="http://www.w3.org/2000/svg" width="100" height="100" viewBox="0 0 100 100">
  <g id="Grupo_1117932" data-name="Grupo 1117932" transform="translate(0.289 0)">
    <g id="Grupo_156312" data-name="Grupo 156312" transform="translate(-0.289 0)">
      <path id="Elipse_5845" data-name="Elipse 5845" d="M50,0A50,50,0,1,1,0,50,50,50,0,0,1,50,0Z" fill="#66d16a"/>
    </g>
    <g id="Grupo_1118934" data-name="Grupo 1118934" transform="translate(13.711 13.648)">
      <path id="Trazado_969310" data-name="Trazado 969310" d="M72.614,153.88c-.158-2.912-4.866-3.288-9.851-3.685-1.855-.148-3.608-.288-5-.547-.59-.11-2.369-.22-2.036-1.191.27-.787,1.9-.786,2.55-.9,1.772-.3,3.975-.773,4.421-2.822.544-2.5-2.073-3.612-4.048-4.1a45.446,45.446,0,0,0-9.889-.914,12.545,12.545,0,0,0-1.484-8.726l-10.048-17.4a1.078,1.078,0,0,0-1.842,0l-2.5,4.323a1.064,1.064,0,0,0,1.842,1.064l1.575-2.728,9.127,15.809a10.539,10.539,0,1,1-18.254,0l4.6-7.975a1.064,1.064,0,0,0-1.842-1.064l-4.6,7.975a12.543,12.543,0,0,0-1.484,8.726,45.437,45.437,0,0,0-9.889.914c-1.978.493-4.589,1.606-4.048,4.1.444,2.049,2.65,2.518,4.421,2.822.565.1,2.537.218,2.6,1.1.055.732-1.6.894-2.09.985-1.391.259-3.143.4-5,.547-4.985.4-9.693.773-9.851,3.685a2.651,2.651,0,0,0,.718,1.976c1.517,1.65,5.212,2.08,10.682,2.241,1.513.044,3.072.03,4.579.015a46.374,46.374,0,0,1,6.7.222c.6.093,2.393.332,2.119,1.291-.194.678-1.774.832-2.269.94-1.756.383-4.409.962-4.409,3.756,0,1.922,2.042,3.3,6.241,4.227a59.214,59.214,0,0,0,12.092,1.1,57.689,57.689,0,0,0,11.912-1.084c4.124-.918,6.129-2.3,6.129-4.239,0-2.794-2.653-3.373-4.409-3.756-.519-.113-2.086-.261-2.265-.959-.244-.949,1.53-1.182,2.115-1.273a46.417,46.417,0,0,1,6.7-.222c1.507.014,3.066.03,4.579-.015a1.065,1.065,0,0,0-.062-2.127c-1.472.043-3.009.028-4.5.014a47.433,47.433,0,0,0-7.046.247c-1.631.253-3.655.917-3.921,2.8-.339,2.409,2.056,3.2,3.944,3.609,2.224.485,2.735.8,2.735,1.677,0,.4-.933,1.376-4.464,2.162a55.551,55.551,0,0,1-11.45,1.034,57.905,57.905,0,0,1-11.635-1.046c-3.615-.794-4.57-1.753-4.57-2.149,0-.879.511-1.192,2.735-1.677,1.888-.412,4.283-1.2,3.944-3.609-.265-1.886-2.29-2.55-3.921-2.8a47.513,47.513,0,0,0-7.046-.247c-1.487.014-3.024.029-4.5-.014-2.178-.064-7.964-.234-9.179-1.555a.52.52,0,0,1-.159-.421c.01-.193.45-.615,2.033-.976a45.554,45.554,0,0,1,5.863-.7,45.562,45.562,0,0,0,5.733-.681c1.332-.294,3.064-.857,3.318-2.411.425-2.595-2.4-3.422-4.375-3.762-.672-.116-2.805-.259-2.72-1.371.068-.886,1.882-1.24,2.5-1.395a45.357,45.357,0,0,1,9.99-.854,13.009,13.009,0,0,0,.869,1.816,12.666,12.666,0,0,0,21.939,0,13.009,13.009,0,0,0,.869-1.816,45.357,45.357,0,0,1,9.99.854c.625.156,2.447.511,2.5,1.395.069,1.116-2.049,1.256-2.72,1.371-1.793.308-4.008.8-4.369,2.933-.346,2.046,1.676,2.878,3.313,3.24a45.562,45.562,0,0,0,5.733.681,45.557,45.557,0,0,1,5.863.7c1.582.361,2.022.783,2.033.976.038.7-1.408,1.286-3.965,1.617a1.064,1.064,0,0,0,.274,2.11c1.636-.212,5.982-.775,5.816-3.842Z" transform="translate(0 -96.99)" fill="#001a58"/>
      <path id="Trazado_969311" data-name="Trazado 969311" d="M256.848,304.081a1.064,1.064,0,1,0-1.842-1.064,6.22,6.22,0,0,1-5.442,3.142,1.064,1.064,0,0,0,0,2.128A8.326,8.326,0,0,0,256.848,304.081Z" transform="translate(-213.255 -259.539)" fill="#001a58"/>
      <path id="Trazado_969312" data-name="Trazado 969312" d="M304.18,52.695a6.241,6.241,0,0,0,5.4-9.361L305.1,35.569a1.078,1.078,0,0,0-1.842,0l-4.483,7.765a6.241,6.241,0,0,0,5.4,9.361Zm-3.562-8.3,3.562-6.17,3.562,6.17a4.113,4.113,0,1,1-7.124,0Z" transform="translate(-255.674 -30.036)" fill="#001a58"/>
      <path id="Trazado_969313" data-name="Trazado 969313" d="M175.637,13.014a4.68,4.68,0,0,0,4.053-7.021L176.558.569a1.078,1.078,0,0,0-1.842,0l-3.132,5.425a4.68,4.68,0,0,0,4.053,7.021Zm-2.211-5.957,2.211-3.829,2.211,3.829a2.553,2.553,0,1,1-4.422,0Z" transform="translate(-146.703 0)" fill="#001a58"/>
    </g>
  </g>
</svg>
