<svg xmlns="http://www.w3.org/2000/svg" width="70" height="70" viewBox="0 0 70 70">
  <g id="Grupo_1118004" data-name="Grupo 1118004" transform="translate(-199.571 -497)">
    <rect id="Rectángulo_412256" data-name="Rectángulo 412256" width="70" height="70" rx="5" transform="translate(199.571 497)" fill="#8bc34a"/>
    <g id="Grupo_1116113" data-name="Grupo 1116113" transform="translate(208.154 505.681)">
      <g id="Grupo_1116111" data-name="Grupo 1116111" transform="translate(1.82 1.79)">
        <g id="Grupo_1116103" data-name="Grupo 1116103" transform="translate(19.678)">
          <path id="Trazado_957235" data-name="Trazado 957235" d="M35.839,6.919v1.64h-3.28V6.919a1.64,1.64,0,0,0-3.28,0v1.64H26V6.919a4.919,4.919,0,0,1,9.839,0Z" transform="translate(-26 -2)" fill="#b4dd7f"/>
        </g>
        <g id="Grupo_1116104" data-name="Grupo 1116104" transform="translate(6.559 6.559)">
          <path id="Trazado_957236" data-name="Trazado 957236" d="M45.256,52.635H10.82a.82.82,0,0,1-.82-.82v-41a.82.82,0,0,1,.82-.82H46.076V51.815A.82.82,0,0,1,45.256,52.635Z" transform="translate(-10 -10)" fill="#e6e9ed"/>
        </g>
        <g id="Grupo_1116105" data-name="Grupo 1116105" transform="translate(9.839 9.839)">
          <path id="Trazado_957237" data-name="Trazado 957237" d="M14,14H43.517V50.076H14Z" transform="translate(-14 -14)" fill="#f0d0b4"/>
        </g>
        <g id="Grupo_1116106" data-name="Grupo 1116106" transform="translate(27.877 32.796)">
          <path id="Trazado_957238" data-name="Trazado 957238" d="M44.2,43.23V50.2H36V42h8.2Z" transform="translate(-36 -42)" fill="#fcd770"/>
        </g>
        <g id="Grupo_1116107" data-name="Grupo 1116107" transform="translate(31.156 22.957)">
          <circle id="Elipse_13510" data-name="Elipse 13510" cx="1.64" cy="1.64" r="1.64" fill="#e6e9ed"/>
        </g>
        <g id="Grupo_1116108" data-name="Grupo 1116108" transform="translate(0 14.758)">
          <path id="Trazado_957239" data-name="Trazado 957239" d="M24.277,29.839a7.323,7.323,0,0,1-1.517,2.2l-9.281,9.281-1.64-1.64L8.559,36.4,4.2,32.036a7.489,7.489,0,0,1-2.2-5.3v-.025a7.394,7.394,0,0,1,1.632-4.641A5.473,5.473,0,0,1,7.92,20a5.581,5.581,0,0,1,.64.041,5.45,5.45,0,0,1,3.247,1.566l.033.033,1.64,1.64,1.673-1.673a5.486,5.486,0,0,1,8.174.459,7.394,7.394,0,0,1,1.632,4.641v.025a7.34,7.34,0,0,1-.681,3.107Z" transform="translate(-2 -20)" fill="#ff826e"/>
        </g>
        <g id="Grupo_1116109" data-name="Grupo 1116109" transform="translate(32.796 0)">
          <path id="Trazado_957240" data-name="Trazado 957240" d="M58.4,4.46v6.2a11.493,11.493,0,0,1-6.559,10.388,12.327,12.327,0,0,1-1.64.631,12.327,12.327,0,0,1-1.64-.631,11.467,11.467,0,0,1-6.494-9.216A9.281,9.281,0,0,1,42,10.658V4.46a14.546,14.546,0,0,0,3.952-.541,14.88,14.88,0,0,0,3.665-1.566L50.2,2l.582.353A14.846,14.846,0,0,0,58.4,4.46Z" transform="translate(-42 -2)" fill="#aab2bd"/>
        </g>
        <g id="Grupo_1116110" data-name="Grupo 1116110" transform="translate(36.076 4.919)">
          <path id="Trazado_957241" data-name="Trazado 957241" d="M55.839,12.1v1.64a.822.822,0,0,1-.82.82h-2.46v2.46a.822.822,0,0,1-.82.82H50.1a.822.822,0,0,1-.82-.82v-2.46H46.82a.822.822,0,0,1-.82-.82V12.1a.822.822,0,0,1,.82-.82h2.46V8.82A.822.822,0,0,1,50.1,8h1.64a.822.822,0,0,1,.82.82v2.46h2.46A.822.822,0,0,1,55.839,12.1Z" transform="translate(-46 -8)" fill="#fcd770"/>
        </g>
      </g>
      <g id="Grupo_1116112" data-name="Grupo 1116112" transform="translate(1 0.834)">
        <path id="Trazado_957242" data-name="Trazado 957242" d="M48.28,8.64v1.64H46.64A1.641,1.641,0,0,0,45,11.919v1.64a1.641,1.641,0,0,0,1.64,1.64h1.64v1.64a1.641,1.641,0,0,0,1.64,1.64h1.64a1.641,1.641,0,0,0,1.64-1.64V15.2h1.64a1.641,1.641,0,0,0,1.64-1.64v-1.64a1.641,1.641,0,0,0-1.64-1.64H53.2V8.64A1.641,1.641,0,0,0,51.559,7h-1.64A1.641,1.641,0,0,0,48.28,8.64Zm6.559,3.279v1.641h-3.28v3.28h-1.64v-3.28H46.64v-1.64h3.28V8.64h1.64v3.28Z" transform="translate(-8.924 -1.944)"/>
        <path id="Trazado_957243" data-name="Trazado 957243" d="M51.014,3.43a13.975,13.975,0,0,1-7.192-1.992l-1.007-.6-1.007.6A13.975,13.975,0,0,1,34.616,3.43H33.8v4.1h-1.64v-.82a5.739,5.739,0,1,0-11.479,0v.82H9.2a1.641,1.641,0,0,0-1.64,1.64v6.569A6.276,6.276,0,0,0,2.809,18.1a8.322,8.322,0,0,0,.629,11.065l4.122,4.122V50.164A1.641,1.641,0,0,0,9.2,51.8H43.635a1.641,1.641,0,0,0,1.64-1.64V21.336a12.23,12.23,0,0,0,6.559-10.889V3.43ZM40.355,31.815l-1.734,1.951H28.877v9.839h9.839V36.128l1.64-1.845v12.6H12.479V38.205l.82.82,9.861-9.861a8.329,8.329,0,0,0,1.455-1.957h7.692a2.46,2.46,0,1,0,0-1.64H25.272a8.43,8.43,0,0,0,.325-2.311A8.284,8.284,0,0,0,23.788,18.1a6.317,6.317,0,0,0-9.4-.521l-1.09,1.09-.82-.82v-5.4H33.956a12.2,12.2,0,0,0,6.4,8.888Zm-5.7,8.885,2.424-2.728v3.993H30.517V35.406h6.559v.1l-2.495,2.807-1.845-1.845-1.159,1.159ZM33.8,26.387a.82.82,0,1,1,.82.82A.821.821,0,0,1,33.8,26.387ZM22.317,6.709a4.1,4.1,0,1,1,8.2,0v.82h-1.64v-.82a2.46,2.46,0,0,0-4.919,0v.82h-1.64Zm4.919.82H25.6v-.82a.82.82,0,1,1,1.64,0ZM33.8,9.169v1.279c0,.121.011.24.015.361H10.839v5.734A6.214,6.214,0,0,0,9.2,15.9V9.169ZM2.64,23.256a6.637,6.637,0,0,1,1.45-4.132,4.677,4.677,0,0,1,6.959-.385L13.3,20.987l2.249-2.249a4.677,4.677,0,0,1,6.959.385,6.657,6.657,0,0,1,1.042,6.444H16.071l-1.8,3.6-2.543-7.625L9.464,27.207h-1.9v1.64h3.015l1.015-2.537,2.377,7.133,3.119-6.236h5.588A6.8,6.8,0,0,1,22,28l-8.7,8.7L4.6,28A6.653,6.653,0,0,1,2.64,23.256Zm41,26.908H9.2V34.926l1.64,1.64V48.524H42V22.052c.194.069.385.142.585.2l.235.071.235-.071c.2-.06.39-.133.585-.2Zm6.559-39.716a10.617,10.617,0,0,1-7.379,10.161,10.617,10.617,0,0,1-7.379-10.161v-5.4a15.625,15.625,0,0,0,7.217-2.2l.162-.1.162.1a15.613,15.613,0,0,0,7.217,2.2Z" transform="translate(-1 -0.834)"/>
        <path id="Trazado_957244" data-name="Trazado 957244" d="M31,51h1.64v1.64H31Z" transform="translate(-6.403 -9.869)"/>
        <path id="Trazado_957245" data-name="Trazado 957245" d="M27,51h1.64v1.64H27Z" transform="translate(-5.683 -9.869)"/>
        <path id="Trazado_957246" data-name="Trazado 957246" d="M23,51h1.64v1.64H23Z" transform="translate(-4.962 -9.869)"/>
        <path id="Trazado_957247" data-name="Trazado 957247" d="M33,25h4.919v1.64H33Z" transform="translate(-6.763 -5.186)"/>
        <path id="Trazado_957248" data-name="Trazado 957248" d="M33,21h4.919v1.64H33Z" transform="translate(-6.763 -4.466)"/>
        <path id="Trazado_957249" data-name="Trazado 957249" d="M33,17h4.919v1.64H33Z" transform="translate(-6.763 -3.745)"/>
      </g>
    </g>
  </g>
</svg>
