<svg xmlns="http://www.w3.org/2000/svg" width="40" height="44.785" viewBox="0 0 40 44.785">
  <g id="Grupo_1118972" data-name="Grupo 1118972" transform="translate(-27.352)">
    <g id="Grupo_1118971" data-name="Grupo 1118971" transform="translate(27.352)">
      <g id="Grupo_1118955" data-name="Grupo 1118955" transform="translate(29.941 7.169)">
        <g id="Grupo_1118954" data-name="Grupo 1118954">
          <path id="Trazado_969363" data-name="Trazado 969363" d="M370.53,89.687a.875.875,0,0,1-.875-.875V82.831a.875.875,0,1,1,1.749,0v5.981A.875.875,0,0,1,370.53,89.687Z" transform="translate(-369.655 -81.956)" fill="#0042db"/>
        </g>
      </g>
      <g id="Grupo_1118957" data-name="Grupo 1118957" transform="translate(29.938 4.354)">
        <g id="Grupo_1118956" data-name="Grupo 1118956">
          <circle id="Elipse_13673" data-name="Elipse 13673" cx="0.875" cy="0.875" r="0.875" fill="#0042db"/>
        </g>
      </g>
      <g id="Grupo_1118960" data-name="Grupo 1118960" transform="translate(0)">
        <path id="Trazado_969364" data-name="Trazado 969364" d="M67.352,9.189a9.183,9.183,0,0,0-14.768-7.3H30.535a3.187,3.187,0,0,0-3.183,3.183V36.9a3.187,3.187,0,0,0,3.183,3.183h2.776V41.6a3.187,3.187,0,0,0,3.183,3.183h22.87A3.187,3.187,0,0,0,62.548,41.6V29.469a.875.875,0,0,0-1.749,0V41.6a1.436,1.436,0,0,1-1.434,1.434H36.494A1.436,1.436,0,0,1,35.06,41.6V40.08H53.406A3.187,3.187,0,0,0,56.589,36.9V18.244a9.221,9.221,0,0,0,4.209-.25v3.567a.875.875,0,1,0,1.749,0v-4.3a9.2,9.2,0,0,0,4.8-8.075ZM54.84,36.9a1.436,1.436,0,0,1-1.434,1.434H30.535A1.436,1.436,0,0,1,29.1,36.9V5.077a1.436,1.436,0,0,1,1.434-1.434H50.844A9.141,9.141,0,0,0,48.985,8.8h-14.9a.875.875,0,0,0-.875.875V13.37a.875.875,0,0,0,.875.875H49.851a.871.871,0,0,0,.529-.178,9.241,9.241,0,0,0,4.459,3.689ZM48.977,10.551V12.5H34.964V10.551Zm9.188,6.079A7.44,7.44,0,1,1,65.6,9.189,7.447,7.447,0,0,1,58.164,16.629Z" transform="translate(-27.352)" fill="#0042db"/>
        <g id="Grupo_1118959" data-name="Grupo 1118959" transform="translate(33.448 24.627)">
          <g id="Grupo_1118958" data-name="Grupo 1118958">
            <path id="Trazado_969365" data-name="Trazado 969365" d="M410.615,283.289a.875.875,0,1,1,.852-.676A.883.883,0,0,1,410.615,283.289Z" transform="translate(-409.742 -281.541)" fill="#0042db"/>
          </g>
        </g>
      </g>
      <g id="Grupo_1118970" data-name="Grupo 1118970" transform="translate(5.863 17.287)">
        <g id="Grupo_1118969" data-name="Grupo 1118969">
          <g id="Grupo_1118962" data-name="Grupo 1118962">
            <g id="Grupo_1118961" data-name="Grupo 1118961">
              <path id="Trazado_969366" data-name="Trazado 969366" d="M111.014,199.382H95.252a.875.875,0,0,1,0-1.749h15.762a.875.875,0,1,1,0,1.749Z" transform="translate(-94.377 -197.633)" fill="#0042db"/>
            </g>
          </g>
          <g id="Grupo_1118964" data-name="Grupo 1118964" transform="translate(0 4.149)">
            <g id="Grupo_1118963" data-name="Grupo 1118963">
              <path id="Trazado_969367" data-name="Trazado 969367" d="M111.014,246.812H95.252a.875.875,0,1,1,0-1.749h15.762a.875.875,0,1,1,0,1.749Z" transform="translate(-94.377 -245.063)" fill="#0042db"/>
            </g>
          </g>
          <g id="Grupo_1118966" data-name="Grupo 1118966" transform="translate(0 8.297)">
            <g id="Grupo_1118965" data-name="Grupo 1118965">
              <path id="Trazado_969368" data-name="Trazado 969368" d="M111.014,294.242H95.252a.875.875,0,0,1,0-1.749h15.762a.875.875,0,1,1,0,1.749Z" transform="translate(-94.377 -292.493)" fill="#0042db"/>
            </g>
          </g>
          <g id="Grupo_1118968" data-name="Grupo 1118968" transform="translate(0 12.446)">
            <g id="Grupo_1118967" data-name="Grupo 1118967">
              <path id="Trazado_969369" data-name="Trazado 969369" d="M111.014,341.672H95.252a.875.875,0,0,1,0-1.749h15.762a.875.875,0,1,1,0,1.749Z" transform="translate(-94.377 -339.923)" fill="#0042db"/>
            </g>
          </g>
        </g>
      </g>
    </g>
  </g>
</svg>
