<svg xmlns="http://www.w3.org/2000/svg" xmlns:xlink="http://www.w3.org/1999/xlink" width="200" height="130" viewBox="0 0 200 130">
  <defs>
    <clipPath id="clip-path">
      <rect id="Rectángulo_417348" data-name="Rectángulo 417348" width="113.2" height="127" fill="none"/>
    </clipPath>
  </defs>
  <g id="Grupo_1120123" data-name="Grupo 1120123" transform="translate(-835.711 -7548)">
    <rect id="Rectángulo_416557" data-name="Rectángulo 416557" width="200" height="130" transform="translate(835.711 7548)" fill="#66d16a"/>
    <g id="Grupo_1120122" data-name="Grupo 1120122" transform="translate(878.711 7549)">
      <g id="Grupo_1120121" data-name="Grupo 1120121" clip-path="url(#clip-path)">
        <path id="Trazado_972368" data-name="Trazado 972368" d="M62.519,106.459,2.2,106.789C-3.992,82.626,14.488,75.124,13.273,58.774,10.385,19.853,72.15,19.853,83.28,42.662c8.494,17.406,4,16.052,18.664,26.409,20.25,14.306,7.826,31.439.334,37.849Z" transform="translate(0.23 6.739)" fill="#d6f2e7"/>
        <path id="Trazado_972369" data-name="Trazado 972369" d="M22.3,68.107l1.095-.589a40.651,40.651,0,0,1-2.338-33.487l-1.134-.507A41.953,41.953,0,0,0,22.3,68.107" transform="translate(4.285 8.315)" fill="#bee4d7"/>
        <path id="Trazado_972370" data-name="Trazado 972370" d="M20.094,35.971s3.653-6.019-.03-7.366c-1.563-.573-3.626,1.972.03,7.366" transform="translate(4.477 7.075)" fill="#bee4d7"/>
        <path id="Trazado_972371" data-name="Trazado 972371" d="M20.074,37.655s-.985-7.417-4.4-5.645c-1.451.76-1.4,4.3,4.4,5.645" transform="translate(3.692 7.872)" fill="#bee4d7"/>
        <path id="Trazado_972372" data-name="Trazado 972372" d="M18.593,37.737s2.372-6.833,5.328-3.952c1.257,1.224.53,4.63-5.328,3.952" transform="translate(4.612 8.204)" fill="#bee4d7"/>
        <path id="Trazado_972373" data-name="Trazado 972373" d="M17.918,42.662s2.07-6.979,5.143-4.252c1.307,1.158.726,4.6-5.143,4.252" transform="translate(4.444 9.37)" fill="#bee4d7"/>
        <path id="Trazado_972374" data-name="Trazado 972374" d="M17.646,46.7s2.094-6.963,5.156-4.231c1.31,1.163.719,4.605-5.156,4.231" transform="translate(4.377 10.375)" fill="#bee4d7"/>
        <path id="Trazado_972375" data-name="Trazado 972375" d="M18.141,51.805s.944-7.33,4.361-5.234c1.46.891,1.425,4.421-4.361,5.234" transform="translate(4.499 11.457)" fill="#bee4d7"/>
        <path id="Trazado_972376" data-name="Trazado 972376" d="M19.054,55.709s1.133-7.29,4.5-5.082c1.43.937,1.308,4.46-4.5,5.082" transform="translate(4.726 12.453)" fill="#bee4d7"/>
        <path id="Trazado_972377" data-name="Trazado 972377" d="M20.985,60.758s-.7-7.451,3.031-6.364c1.589.467,2.336,3.935-3.031,6.364" transform="translate(5.192 13.464)" fill="#bee4d7"/>
        <path id="Trazado_972378" data-name="Trazado 972378" d="M19.11,41.6s-.991-7.423-4.4-5.645c-1.45.758-1.393,4.288,4.4,5.645" transform="translate(3.452 8.849)" fill="#bee4d7"/>
        <path id="Trazado_972379" data-name="Trazado 972379" d="M18.784,45.765s-.995-7.422-4.4-5.647c-1.448.758-1.392,4.294,4.4,5.647" transform="translate(3.371 9.882)" fill="#bee4d7"/>
        <path id="Trazado_972380" data-name="Trazado 972380" d="M19.194,49.667s-2.447-7.043-5.371-4.416c-1.249,1.117-.48,4.583,5.371,4.416" transform="translate(3.302 11.078)" fill="#bee4d7"/>
        <path id="Trazado_972381" data-name="Trazado 972381" d="M20.009,54.063s-3.075-6.749-5.727-3.774c-1.126,1.268-.054,4.636,5.727,3.774" transform="translate(3.444 12.285)" fill="#bee4d7"/>
        <path id="Trazado_972382" data-name="Trazado 972382" d="M21.476,58.22S17.6,52,15.366,55.4c-.946,1.453.54,4.63,6.11,2.819" transform="translate(3.745 13.489)" fill="#bee4d7"/>
        <path id="Trazado_972383" data-name="Trazado 972383" d="M108.529,90.668c0,1.941-4.412,4.439-47.244,4.439S.928,93.583.928,91.642s17.529-3.564,60.357-3.564,47.244.646,47.244,2.59" transform="translate(0.23 21.846)" fill="#bee4d7"/>
        <path id="Trazado_972384" data-name="Trazado 972384" d="M74.469,77.768,79.9,80.551c4.653-3.537,7.6-9.559,9.4-14.889l-2.274-5.229,3.125,2.485a58.966,58.966,0,0,0,1.729-8.056c-6.107-1.368-11-1.032-14.951.334l1.454,4.17L74.076,56.44C61.747,63.059,60.818,80.794,60.818,80.794c6.526,3.352,11.729,3.428,15.86,1.652Z" transform="translate(15.084 13.39)" fill="#5a70e0"/>
        <path id="Trazado_972385" data-name="Trazado 972385" d="M70.413,77.946c12.181-20.168,8.081-38.226,8.034-38.41l-.77.187c.042.177,4.061,17.935-7.945,37.814Z" transform="translate(17.295 9.806)" fill="#fca09f"/>
        <path id="Trazado_972386" data-name="Trazado 972386" d="M77.157,49.033l.7-.374-2.593-4.885-.7.371Z" transform="translate(18.494 10.857)" fill="#fca09f"/>
        <path id="Trazado_972387" data-name="Trazado 972387" d="M77,53.258l.615-.512L74.069,48.51l-.614.505Z" transform="translate(18.219 12.032)" fill="#fca09f"/>
        <path id="Trazado_972388" data-name="Trazado 972388" d="M76.095,58.114l.614-.51-3.554-4.241-.609.508Z" transform="translate(17.993 13.235)" fill="#fca09f"/>
        <rect id="Rectángulo_417345" data-name="Rectángulo 417345" width="0.795" height="5.532" transform="matrix(0.767, -0.641, 0.641, 0.767, 88.783, 72.536)" fill="#fca09f"/>
        <path id="Trazado_972389" data-name="Trazado 972389" d="M73.051,66.853l.608-.512L70.109,62.1l-.608.513Z" transform="translate(17.238 15.403)" fill="#fca09f"/>
        <path id="Trazado_972390" data-name="Trazado 972390" d="M77.383,47.939l2.442-4.967-.711-.347-2.445,4.961Z" transform="translate(19.016 10.572)" fill="#fca09f"/>
        <path id="Trazado_972391" data-name="Trazado 972391" d="M77.086,52.471l3.345-4.409-.634-.483-3.347,4.411Z" transform="translate(18.961 11.801)" fill="#fca09f"/>
        <rect id="Rectángulo_417346" data-name="Rectángulo 417346" width="5.534" height="0.796" transform="matrix(0.788, -0.615, 0.615, 0.788, 94.195, 70.32)" fill="#fca09f"/>
        <path id="Trazado_972392" data-name="Trazado 972392" d="M74.3,63.05l4.537-3.179-.456-.648L73.85,62.4Z" transform="translate(18.317 14.689)" fill="#fca09f"/>
        <rect id="Rectángulo_417347" data-name="Rectángulo 417347" width="5.533" height="0.795" transform="translate(88.945 83.834) rotate(-29.756)" fill="#fca09f"/>
        <path id="Trazado_972393" data-name="Trazado 972393" d="M75.05,38.964a1.927,1.927,0,1,0,2.306-1.454,1.925,1.925,0,0,0-2.306,1.454" transform="translate(18.602 9.292)" fill="#fca09f"/>
        <path id="Trazado_972394" data-name="Trazado 972394" d="M72.642,43.376a1.927,1.927,0,1,0,2.209-1.6,1.93,1.93,0,0,0-2.209,1.6" transform="translate(18.011 10.355)" fill="#fca09f"/>
        <path id="Trazado_972395" data-name="Trazado 972395" d="M71.76,47.626a1.926,1.926,0,1,0,2.6-.8,1.919,1.919,0,0,0-2.6.8" transform="translate(17.742 11.558)" fill="#fca09f"/>
        <path id="Trazado_972396" data-name="Trazado 972396" d="M70.845,52.479a1.929,1.929,0,1,0,2.608-.795,1.933,1.933,0,0,0-2.608.795" transform="translate(17.516 12.763)" fill="#fca09f"/>
        <path id="Trazado_972397" data-name="Trazado 972397" d="M69.437,56.828a1.929,1.929,0,1,0,2.608-.8,1.931,1.931,0,0,0-2.608.8" transform="translate(17.167 13.842)" fill="#fca09f"/>
        <path id="Trazado_972398" data-name="Trazado 972398" d="M67.8,61.222a1.925,1.925,0,1,0,2.608-.8,1.927,1.927,0,0,0-2.608.8" transform="translate(16.76 14.93)" fill="#fca09f"/>
        <path id="Trazado_972399" data-name="Trazado 972399" d="M81.852,42.142A1.926,1.926,0,1,1,79.6,40.6a1.928,1.928,0,0,1,2.253,1.538" transform="translate(19.354 10.063)" fill="#fca09f"/>
        <path id="Trazado_972400" data-name="Trazado 972400" d="M82.469,47.65a1.928,1.928,0,1,1-1.919-1.933,1.931,1.931,0,0,1,1.919,1.933" transform="translate(19.498 11.339)" fill="#fca09f"/>
        <path id="Trazado_972401" data-name="Trazado 972401" d="M82.288,54.462A1.926,1.926,0,1,1,80.933,52.1a1.922,1.922,0,0,1,1.355,2.363" transform="translate(19.471 12.905)" fill="#fca09f"/>
        <path id="Trazado_972402" data-name="Trazado 972402" d="M80.773,60.21a1.927,1.927,0,1,1-1.233-2.425,1.926,1.926,0,0,1,1.233,2.425" transform="translate(19.101 14.308)" fill="#fca09f"/>
        <path id="Trazado_972403" data-name="Trazado 972403" d="M78.34,66.224A1.927,1.927,0,1,1,77.328,63.7a1.933,1.933,0,0,1,1.012,2.528" transform="translate(18.513 15.759)" fill="#fca09f"/>
        <path id="Trazado_972404" data-name="Trazado 972404" d="M55.269,86.016l-.29,1.016a37.5,37.5,0,0,0,11.7.7c8.613-.81,15.6-4.6,20.218-10.961l-.739-.6c-10.721,14.783-30.693,9.894-30.894,9.844" transform="translate(13.636 18.893)" fill="#a6b900"/>
        <path id="Trazado_972405" data-name="Trazado 972405" d="M79.689,78.528s5.964-.047,7.242-7.048c0,0-5.943,1.258-7.242,7.048" transform="translate(19.765 17.729)" fill="#a6b900"/>
        <path id="Trazado_972406" data-name="Trazado 972406" d="M76.43,80.71S81.5,86.388,88.04,80.3c0,0-2.641-3.145-11.61.412" transform="translate(18.957 19.598)" fill="#a6b900"/>
        <path id="Trazado_972407" data-name="Trazado 972407" d="M76.816,82.952S72.85,76.3,79.653,70.577c0,0,2.238,3.5-2.837,12.375" transform="translate(18.767 17.505)" fill="#a6b900"/>
        <path id="Trazado_972408" data-name="Trazado 972408" d="M71.438,83.588s4.459,6.263,11.5.889c0,0-2.3-3.45-11.5-.889" transform="translate(17.718 20.497)" fill="#a6b900"/>
        <path id="Trazado_972409" data-name="Trazado 972409" d="M71.733,85.938s-3.281-7.108,3.985-12.092c0,0,1.87,3.76-3.985,12.092" transform="translate(17.608 18.316)" fill="#a6b900"/>
        <path id="Trazado_972410" data-name="Trazado 972410" d="M65.208,85.008s3.341,7.078,11.031,3.018c0,0-1.682-3.874-11.031-3.018" transform="translate(16.173 21.053)" fill="#a6b900"/>
        <path id="Trazado_972411" data-name="Trazado 972411" d="M65.38,87.4a9.841,9.841,0,0,1,5.792-11.341s1.221,4.1-5.792,11.341" transform="translate(16.156 18.865)" fill="#a6b900"/>
        <path id="Trazado_972412" data-name="Trazado 972412" d="M59.631,85.053s1.443,7.922,9.7,6.089c0,0-.658-4.292-9.7-6.089" transform="translate(14.79 21.095)" fill="#a6b900"/>
        <path id="Trazado_972413" data-name="Trazado 972413" d="M59.705,87.143s-.08-8.18,8.215-9.541c0,0,.166,4.388-8.215,9.541" transform="translate(14.808 19.247)" fill="#a6b900"/>
        <path id="Trazado_972414" data-name="Trazado 972414" d="M25.8,82.21s-13.316-7.089-7.236-10.146-.589-7.556-5.6-7.814S2.017,56.523,8.123,54.615-1.41,43.037,3.046,43.285s10.276,3.083,11.182,9.42,6.344,1.261,5.529-2.225,8.152,4.968,3.089,11.242,4.342,6.754,5.475,3.378,4.867,2.677,1.614,7.592-2.231,7.986.533,9.776S25.8,82.21,25.8,82.21" transform="translate(0.554 10.735)" fill="#ffc001"/>
        <path id="Trazado_972415" data-name="Trazado 972415" d="M8.7,64.031s-6.148,1.378-7.585-3.991c0,0,5.892-.228,7.585,3.991" transform="translate(0.277 14.891)" fill="#fa2d68"/>
        <path id="Trazado_972416" data-name="Trazado 972416" d="M34.98,85.569l-.646.232C30.814,75.944,5.988,63.2,5.736,63.067l.313-.61c1.032.524,25.322,13,28.93,23.112" transform="translate(1.423 15.491)" fill="#fa2d68"/>
        <path id="Trazado_972417" data-name="Trazado 972417" d="M13.538,68.177l-.673-.149c.665-2.987-3.859-6.883-3.9-6.923l.444-.522c.2.17,4.884,4.208,4.131,7.593" transform="translate(2.223 15.026)" fill="#fa2d68"/>
        <path id="Trazado_972418" data-name="Trazado 972418" d="M12.3,65.385l-.084.1-.513-.458c1.2-1.378.091-4.824.08-4.859l.651-.22c.051.155,1.229,3.72-.135,5.436" transform="translate(2.903 14.869)" fill="#fa2d68"/>
        <path id="Trazado_972419" data-name="Trazado 972419" d="M10.993,63.257s-6.025-1.856-4.6-7.231c0,0,5.228,2.727,4.6,7.231" transform="translate(1.531 13.896)" fill="#fa2d68"/>
        <path id="Trazado_972420" data-name="Trazado 972420" d="M12.3,62.832s-3.552-5.207.91-8.523c0,0,2.387,5.389-.91,8.523" transform="translate(2.719 13.47)" fill="#fa2d68"/>
        <path id="Trazado_972421" data-name="Trazado 972421" d="M17.689,71.436l-.573-.378C18.8,68.5,15.961,63.25,15.932,63.2l.6-.329c.126.231,3.064,5.674,1.153,8.568" transform="translate(3.952 15.593)" fill="#fa2d68"/>
        <path id="Trazado_972422" data-name="Trazado 972422" d="M18.591,67.71a2.668,2.668,0,0,1-.854.721l-.317-.61c1.64-.845,1.8-4.472,1.807-4.508l.686.026a8.816,8.816,0,0,1-1.323,4.371" transform="translate(4.321 15.703)" fill="#fa2d68"/>
        <path id="Trazado_972423" data-name="Trazado 972423" d="M17.205,65.947s-4.967-3.88-1.725-8.4c0,0,3.913,4.411,1.725,8.4" transform="translate(3.567 14.274)" fill="#fa2d68"/>
        <path id="Trazado_972424" data-name="Trazado 972424" d="M18.8,65.873s-1.464-6.13,3.885-7.642c0,0,.311,5.889-3.885,7.642" transform="translate(4.616 14.443)" fill="#fa2d68"/>
        <path id="Trazado_972425" data-name="Trazado 972425" d="M22.1,73.131a3.74,3.74,0,0,1-1.038.919l-.346-.592c2.637-1.544,2.42-7.512,2.417-7.572l.688-.029c.009.227.177,4.89-1.721,7.273" transform="translate(5.139 16.334)" fill="#fa2d68"/>
        <path id="Trazado_972426" data-name="Trazado 972426" d="M25.513,69.182c-.778.976-1.926,2.069-3.191,2.093l-.009-.688c1.842-.034,3.6-3.212,3.614-3.245l.6.328a11.005,11.005,0,0,1-1.017,1.511" transform="translate(5.534 16.702)" fill="#fa2d68"/>
        <path id="Trazado_972427" data-name="Trazado 972427" d="M22.938,68.871s-2.734-5.68,2.17-8.293c0,0,1.556,5.687-2.17,8.293" transform="translate(5.501 15.025)" fill="#fa2d68"/>
        <path id="Trazado_972428" data-name="Trazado 972428" d="M24.649,69.269s1.4-6.144,6.868-5.131c0,0-2.33,5.418-6.868,5.131" transform="translate(6.114 15.88)" fill="#fa2d68"/>
        <path id="Trazado_972429" data-name="Trazado 972429" d="M15.722,68.027c-3.01,1.719-8.253-1.561-8.474-1.7l.366-.582c.051.032,5.117,3.2,7.769,1.685Z" transform="translate(1.798 16.306)" fill="#fa2d68"/>
        <path id="Trazado_972430" data-name="Trazado 972430" d="M12.567,68.077c-1.325,1.667-4.89,1.6-5.048,1.595l.017-.688c.037,0,3.673.064,4.615-1.511l.589.353a2.3,2.3,0,0,1-.173.251" transform="translate(1.865 16.735)" fill="#fa2d68"/>
        <path id="Trazado_972431" data-name="Trazado 972431" d="M10.282,67.157S6.728,61.95,2.014,64.9c0,0,4.15,4.188,8.268,2.261" transform="translate(0.5 15.872)" fill="#fa2d68"/>
        <path id="Trazado_972432" data-name="Trazado 972432" d="M10.144,68.706S4.122,66.849,2.27,72.092c0,0,5.854.689,7.874-3.386" transform="translate(0.563 16.962)" fill="#fa2d68"/>
        <path id="Trazado_972433" data-name="Trazado 972433" d="M20.034,70.43c-2.074,2.606-7.846,2.158-8.1,2.138l.059-.685c.059,0,6,.471,7.663-2.1l.579.371c-.062.1-.13.19-.2.28" transform="translate(2.96 17.307)" fill="#fa2d68"/>
        <path id="Trazado_972434" data-name="Trazado 972434" d="M16.659,73.066a10.02,10.02,0,0,1-3.021,2.315l-.3-.617c.034-.015,3.282-1.635,3.392-3.477l.684.04a3.146,3.146,0,0,1-.751,1.738" transform="translate(3.307 17.681)" fill="#fa2d68"/>
        <path id="Trazado_972435" data-name="Trazado 972435" d="M14.981,71.832S9.418,68.864,6.6,73.657c0,0,5.619,1.788,8.377-1.826" transform="translate(1.638 17.591)" fill="#fa2d68"/>
        <path id="Trazado_972436" data-name="Trazado 972436" d="M15.331,73.553S9.135,74.7,9.92,80.2c0,0,5.509-2.1,5.411-6.649" transform="translate(2.443 18.243)" fill="#fa2d68"/>
        <path id="Trazado_972437" data-name="Trazado 972437" d="M24.527,75.145c-1.967,2.471-7.1,2.882-7.343,2.9l-.05-.686c.06,0,6.008-.472,7.244-3.271l.629.277a3.53,3.53,0,0,1-.479.784" transform="translate(4.25 18.375)" fill="#fa2d68"/>
        <path id="Trazado_972438" data-name="Trazado 972438" d="M21.34,78.491a11.114,11.114,0,0,1-2.065,1.946l-.4-.563c.03-.02,2.988-2.129,2.806-3.964l.684-.067a3.866,3.866,0,0,1-1.028,2.648" transform="translate(4.682 18.811)" fill="#fa2d68"/>
        <path id="Trazado_972439" data-name="Trazado 972439" d="M20.068,76.763s-5.953-2.064-7.989,3.109c0,0,5.831.891,7.989-3.109" transform="translate(2.996 18.938)" fill="#fa2d68"/>
        <path id="Trazado_972440" data-name="Trazado 972440" d="M20.606,78.416s-5.943,2.1-4.309,7.41c0,0,5.114-2.934,4.309-7.41" transform="translate(3.971 19.449)" fill="#fa2d68"/>
        <path id="Trazado_972441" data-name="Trazado 972441" d="M87.363,68.853A35.349,35.349,0,1,1,52.013,33.5a35.348,35.348,0,0,1,35.35,35.349" transform="translate(4.133 8.31)" fill="#9bc2e0"/>
        <path id="Trazado_972442" data-name="Trazado 972442" d="M49.021,53.036s-12.91-10.877-7.756-14.672C51.4,30.893,80.042,47.851,70.735,59.02s-8.065,3.411-10.858,3.411-7.447,4.654-4.343,7.447S58.946,82.6,62.98,82.6s3.687,11.56-3.275,18.189c0,0-3.135,1.716-10.013,2.5,0,0-9.778-13.167-5.532-18.825,3.722-4.965,1.847-10.858,4.963-15.822s3.455-9.545-.1-15.6" transform="translate(9.933 9.059)" fill="#c7e0ef"/>
        <path id="Trazado_972443" data-name="Trazado 972443" d="M24.541,44.041s11.7,4.273,9.067,8.462-5.733,7.134-4.339,10.7S39.5,76.7,33.995,83.057c-4.268,4.927-3.931,9.582-2.082,12.236,0,0-13.764-9.438-15.212-26.332-.559-6.508-.334-15.993,7.84-24.919" transform="translate(4.096 10.923)" fill="#c7e0ef"/>
        <path id="Trazado_972444" data-name="Trazado 972444" d="M46.564,23.108S31.2,29.3,27.033,16.516C24.172,7.746,23.229,5.127,18.613,0c0,0,33.772.518,27.951,23.108" transform="translate(4.616)" fill="#519d45"/>
        <path id="Trazado_972445" data-name="Trazado 972445" d="M48.012,55.639s-15.977,4.379-18.644-8.795c-1.828-9.042-2.46-11.755-6.461-17.377,0,0,33.491,4.4,25.105,26.172" transform="translate(5.682 7.309)" fill="#519d45"/>
        <path id="Trazado_972446" data-name="Trazado 972446" d="M48.8,39.762s-5.544-15.609,7.4-19.238C65.084,18.032,67.739,17.2,73.054,12.8c0,0-1.928,33.719-24.252,26.96" transform="translate(11.811 3.175)" fill="#519d45"/>
        <path id="Trazado_972447" data-name="Trazado 972447" d="M42.544,83.4S58.769,16.977,26.554,7.68c0,0,14.447.827,21.012,17.867,5.156,13.383,6.221,45.86,2.384,57.851Z" transform="translate(6.586 1.905)" fill="#0d5d42"/>
        <path id="Trazado_972448" data-name="Trazado 972448" d="M23.65,79.1s3.227-7.886,7.974-8.494,7.42-6.294,11.1-4.956a53.116,53.116,0,0,0,13.051,3.011c4.352.333,7.365,3.346,6.692,5.688S43.058,82.51,23.65,79.1" transform="translate(5.866 16.232)" fill="#39021f"/>
        <path id="Trazado_972449" data-name="Trazado 972449" d="M26.433,83.569S17.307,81.7,5.955,89.231L22.277,76.365Z" transform="translate(1.477 18.94)" fill="#fca09f"/>
        <path id="Trazado_972450" data-name="Trazado 972450" d="M44.649,51.009s1.33-21.711,18.1-25.883c0,0-14.468,8.725-15.06,27.046Z" transform="translate(11.074 6.232)" fill="#0d5d42"/>
        <path id="Trazado_972451" data-name="Trazado 972451" d="M47.7,61.121S46.371,39.41,29.6,35.238c0,0,14.465,8.724,15.056,27.045Z" transform="translate(7.342 8.74)" fill="#0d5d42"/>
        <path id="Trazado_972452" data-name="Trazado 972452" d="M60.368,59.132c-.416-.241-2.572-.784-2.134,1.274s4.941,6.235,5.639,6.434.956-.9.956-.9-1.956-5.37-4.46-6.809" transform="translate(14.429 14.605)" fill="#e67052"/>
        <path id="Trazado_972453" data-name="Trazado 972453" d="M63.806,64.4a3.928,3.928,0,0,1,.337,1.065c.036.533-2.366,1.635-2.123.894.2-.612,1.015-.988.847-1.169s.939-.789.939-.789" transform="translate(15.378 15.972)" fill="#e67052"/>
        <path id="Trazado_972454" data-name="Trazado 972454" d="M68.357,67.019c-.052-.439-.917-2.251-2.442-.578s-2.363,7.479-2.1,8.081,1.379.045,1.379.045,3.465-4.9,3.167-7.548" transform="translate(15.815 16.306)" fill="#e67052"/>
        <path id="Trazado_972455" data-name="Trazado 972455" d="M65.585,72.717a4.467,4.467,0,0,1-.72.934c-.443.382-2.893-.492-2.1-.824.658-.275,1.5.022,1.546-.213s1.27.1,1.27.1" transform="translate(15.529 17.99)" fill="#e67052"/>
        <path id="Trazado_972456" data-name="Trazado 972456" d="M63.7,48.311,59.717,51.8s-4.88,4.518-5.109,5.564,8.373,11.86,8.373,11.86l2.743-2.543-2.91-6.945,3.693-3.172Z" transform="translate(13.543 11.982)" fill="#ed2051"/>
        <path id="Trazado_972457" data-name="Trazado 972457" d="M69.066,48.547s5.27,4.352,3.47,13.212a62.267,62.267,0,0,1-5.717,15.815l-2.989-.1s1.918-7.387,1.786-11.5-3.723-17.663-3.723-17.663.515,1.071,7.174.236" transform="translate(15.351 11.982)" fill="#ff2e56"/>
        <path id="Trazado_972458" data-name="Trazado 972458" d="M42.365,50.158c-.178.382.272,1.328,1.332,1.033a2.941,2.941,0,0,1,1.505-.172s-2.075-2.489-2.837-.861" transform="translate(10.498 12.303)" fill="#5a70e0"/>
        <path id="Trazado_972459" data-name="Trazado 972459" d="M41.482,53.5a.952.952,0,0,0,1.536-.691,2.94,2.94,0,0,1,.555-1.41s-3.171.666-2.092,2.1" transform="translate(10.233 12.747)" fill="#5a70e0"/>
        <path id="Trazado_972460" data-name="Trazado 972460" d="M61.567,34.952c-1.252,1.582-1.8,4.368-6.075,5.33s3.351,5.916,7.427,4.837,8.215-2.907,5.757-8.5C66.75,32.24,62.8,33.4,61.567,34.952" transform="translate(13.45 8.323)" fill="#39021f"/>
        <path id="Trazado_972461" data-name="Trazado 972461" d="M60.921,35.877s-1.186,3.851-2.434,4.4,9.59,1.832,9.59,1.832l-3.805-5.385Z" transform="translate(14.481 8.898)" fill="#39021f"/>
        <path id="Trazado_972462" data-name="Trazado 972462" d="M62.84,39.392a2.321,2.321,0,0,0-2.268,1.566c-.514,1.745.26,5.367-1.576,7.1a4.574,4.574,0,0,1-4.6,1.073c-1.137-.182-1.506-.785-2.179-.819s-.681.765,1.072,1.493c.837.347,4.776,2.557,7.34.892,3.363-2.178,5.048-10.949,2.215-11.3" transform="translate(12.846 9.769)" fill="#e0623f"/>
        <path id="Trazado_972463" data-name="Trazado 972463" d="M58.657,42.2c-.082-3.2,4.167-3.7,7.474-3.209,2.087.313,5.5.936,4.089,5.389-.982,3.111-1.564,4.76.675,7.664.295.382-.251-.485,0,0-1.88,1.214-3.24.453-5.606.951-1.753.369-3.049-.021-4.736-.129.2-2.355.648-.168.665-.306.646-4.317-2.491-7.658-2.561-10.361" transform="translate(14.548 9.63)" fill="#f27851"/>
        <path id="Trazado_972464" data-name="Trazado 972464" d="M60.191,52.781c.362-2.766.58-3.241-.547-4.6-2.512-3.035,1.159-8.9,1.159-8.9l1.186-.323c-2.417,4.173-1.539,5.5-.462,5.5,3.579.022,4.719-5.474,4.719-5.474l1.228.225a6.647,6.647,0,0,0-1.216,5.01c.5,3.8,3.272,2.823,3.272,2.823.027,1.294-.459,1.66.64,3.738.007.012,1.422,1.568,1.422,1.568-2.948,1.961-10.951,2.588-11.4.432" transform="translate(14.575 9.662)" fill="#6737c1"/>
        <path id="Trazado_972465" data-name="Trazado 972465" d="M63.58,36.554s-.066,2.1.8,2.909c.547.513-2.5,2.722-2.606,1.9-.13-1.067.332-1.833-.594-2.865Z" transform="translate(15.174 9.066)" fill="#e0623f"/>
        <path id="Trazado_972466" data-name="Trazado 972466" d="M60.835,34.77c-.683,1.092-.668,5.1.5,5.684.512.246,2.108-.609,2.753-2.541a3.246,3.246,0,0,0-.544-3.306,1.726,1.726,0,0,0-2.711.163" transform="translate(14.975 8.437)" fill="#f27851"/>
        <path id="Trazado_972467" data-name="Trazado 972467" d="M60.311,35.653c.052.56.117.884,1.251.463,1.389-.517,1.424.608,1.378,1.007-.146,1.171,1.268-.326,1.08,1.077s.992-.532,1.08-.756.344-1.183-.942-2.8-4-.72-3.845,1.008" transform="translate(14.957 8.382)" fill="#39021f"/>
        <path id="Trazado_972468" data-name="Trazado 972468" d="M68.477,45.494s-1.429,1.031-4.136-.17c0,0-1.318-.4-1.161.271s1.237,1.216,1.734,1.345,1.972,1.732-.462,2.159-1.193,1.64-.482,1.639,3.616.057,2.838.7-1.063,1.265-1.2.945A9.155,9.155,0,0,0,70.538,50.8a4.844,4.844,0,0,1-2.06-5.305" transform="translate(15.63 11.212)" fill="#4f29aa"/>
        <path id="Trazado_972469" data-name="Trazado 972469" d="M56.668,49.579s-1.206-4.146-3.654-3.309-3.546,2.982-2.25,5.449l1.061-.451s-1.323-2.706.658-3.559,3.113,2.175,3.113,2.175Z" transform="translate(12.454 11.448)" fill="#fc9627"/>
        <path id="Trazado_972470" data-name="Trazado 972470" d="M57.032,50.123S61.8,44.6,64.5,49.066s2.855,8.756-3.653,10.06l-.344-.811s6.023-1.743,4.387-5.609-2.908-5.329-7.549-1.861Z" transform="translate(14.145 11.737)" fill="#fc9627"/>
        <path id="Trazado_972471" data-name="Trazado 972471" d="M58.552,49.1c-2.054-1.2-8.5.434-9.078,2.843-.641,2.651,1.163,9.057,1.752,10.765s9.521-.972,12-2.571c2.4-1.555-2.085-9.527-4.673-11.038" transform="translate(12.237 12.078)" fill="#feb824"/>
        <path id="Trazado_972472" data-name="Trazado 972472" d="M52.3,56.056l-.122-.12-4.822-4.7L44.68,53.073l7.805,7.357Z" transform="translate(11.082 12.709)" fill="#feb824"/>
        <path id="Trazado_972473" data-name="Trazado 972473" d="M47.224,50.267s.6.247.6.709A3.009,3.009,0,0,1,46.6,52.809c-.509.215-1.664,1.156-2.326.534s1.963-2.929,2.954-3.076" transform="translate(10.954 12.467)" fill="#fc9627"/>
        <path id="Trazado_972474" data-name="Trazado 972474" d="M67,39.354a2.3,2.3,0,0,0-1.183,2.465c.429,1.737,2.9,4.424,2.179,6.813s-2.372,2.8-3.442,3.22-1.7.087-2.3.4-.2.99,1.674.73c.895-.13,5.4-.228,6.789-2.923,1.821-3.539-1.1-11.825-3.72-10.7" transform="translate(15.378 9.735)" fill="#e67052"/>
        <path id="Trazado_972475" data-name="Trazado 972475" d="M43.579,56.2a.952.952,0,0,0,.56-1.587,2.931,2.931,0,0,1-.636-1.377s-1.71,2.754.076,2.964" transform="translate(10.607 13.204)" fill="#5a70e0"/>
        <path id="Trazado_972476" data-name="Trazado 972476" d="M41.894,58.849a.952.952,0,0,0,.562-1.587,2.952,2.952,0,0,1-.638-1.377s-1.709,2.754.076,2.964" transform="translate(10.189 13.861)" fill="#5a70e0"/>
        <path id="Trazado_972477" data-name="Trazado 972477" d="M44.568,60.619a.952.952,0,0,0-.071-1.684,2.907,2.907,0,0,1-1.1-1.04s-.562,3.194,1.173,2.723" transform="translate(10.742 14.36)" fill="#5a70e0"/>
        <path id="Trazado_972478" data-name="Trazado 972478" d="M42.184,62.953a.953.953,0,0,0,.639-1.56,2.923,2.923,0,0,1-.568-1.405s-1.842,2.668-.071,2.965" transform="translate(10.272 14.879)" fill="#5a70e0"/>
        <path id="Trazado_972479" data-name="Trazado 972479" d="M74.04,69.9c-14.023,7.2-42.8,8.634-42.8,8.634l-1.589,5.074-8.927-6.079L0,93.616l13.3,17.038S26.511,91.129,33.643,89.148s20.235,6.531,30.7.549C79.5,81.037,89.093,72.89,88.472,69.179s-2.808-5.243-14.432.721" transform="translate(0 16.346)" fill="#fca09f"/>
        <path id="Trazado_972480" data-name="Trazado 972480" d="M62.723,71.313s-.181,6.628-11.167,7.66-24.439,8.661-32.173,4.02c-8.635-5.182,37.266-9.173,43.34-11.68" transform="translate(4.54 17.687)" fill="#fc8082"/>
        <path id="Trazado_972481" data-name="Trazado 972481" d="M15.438,77.912s10.738-11.449,22.806-9.592c9.494,1.46,12.684,2.784,18.871,1.239s7.421,6.128-.622,7.32C48.926,78,15.438,92.76,15.438,77.912" transform="translate(3.829 16.894)" fill="#fca09f"/>
      </g>
    </g>
  </g>
</svg>
