<svg xmlns="http://www.w3.org/2000/svg" width="225" height="150" viewBox="0 0 225 150">
  <g id="Grupo_1118014" data-name="Grupo 1118014" transform="translate(-1181.711 -7215)">
    <rect id="Rectángulo_416006" data-name="Rectángulo 416006" width="225" height="150" transform="translate(1181.711 7215)" fill="#8bc34a"/>
    <circle id="Elipse_13696" data-name="Elipse 13696" cx="56" cy="56" r="56" transform="translate(1238.422 7234.012)" fill="#e8f3db" opacity="0.4"/>
    <g id="Elipse_13697" data-name="Elipse 13697" transform="translate(1230.422 7226.012)" fill="none" stroke="#e8f3db" stroke-width="1" opacity="0.4">
      <circle cx="64" cy="64" r="64" stroke="none"/>
      <circle cx="64" cy="64" r="63.5" fill="none"/>
    </g>
    <g id="Grupo_1119460" data-name="Grupo 1119460" transform="translate(1208.149 7230.922)">
      <g id="Grupo_1119438" data-name="Grupo 1119438" transform="translate(1.208 33.452)">
        <g id="Grupo_1119435" data-name="Grupo 1119435" transform="translate(9.91 0)">
          <ellipse id="Elipse_13687" data-name="Elipse 13687" cx="4.834" cy="4.834" rx="4.834" ry="4.834" transform="translate(5.242 0)" fill="#ffd1c8"/>
          <path id="Trazado_971124" data-name="Trazado 971124" d="M111.819,334.772H92V328a9.91,9.91,0,1,1,19.819,0Z" transform="translate(-92 -308.268)" fill="#fff"/>
        </g>
        <g id="Grupo_1119436" data-name="Grupo 1119436" transform="translate(29.729 0)">
          <ellipse id="Elipse_13688" data-name="Elipse 13688" cx="4.834" cy="4.834" rx="4.834" ry="4.834" transform="translate(4.757 0)" fill="#ffd1c8"/>
          <path id="Trazado_971125" data-name="Trazado 971125" d="M256,334.772h19.819V328A9.91,9.91,0,1,0,256,328Z" transform="translate(-256 -308.268)" fill="#99ebfb"/>
        </g>
        <circle id="Elipse_13689" data-name="Elipse 13689" cx="4.834" cy="4.834" r="4.834" transform="translate(24.895 11.612)" fill="#ffd1c8"/>
        <circle id="Elipse_13690" data-name="Elipse 13690" cx="4.834" cy="4.834" r="4.834" transform="translate(44.714 11.612)" fill="#ffddd6"/>
        <path id="Trazado_971126" data-name="Trazado 971126" d="M193.819,423.754H174v-.846a9.91,9.91,0,1,1,19.819,0Z" transform="translate(-154.181 -391.702)" fill="#ffcf5c"/>
        <path id="Trazado_971127" data-name="Trazado 971127" d="M357.819,423.754H338v-.846a9.91,9.91,0,0,1,19.819,0Z" transform="translate(-298.361 -391.702)" fill="#ff9eb2"/>
        <g id="Grupo_1119437" data-name="Grupo 1119437" transform="translate(0 11.612)">
          <circle id="Elipse_13691" data-name="Elipse 13691" cx="4.834" cy="4.834" r="4.834" transform="translate(5.076)" fill="#ffddd6"/>
          <path id="Trazado_971128" data-name="Trazado 971128" d="M29.819,423.754H10v-.846a9.91,9.91,0,0,1,19.819,0Z" transform="translate(-10 -403.314)" fill="#6ae6a3"/>
        </g>
      </g>
      <g id="Grupo_1119441" data-name="Grupo 1119441" transform="translate(5.866 0)">
        <g id="Grupo_1119439" data-name="Grupo 1119439" transform="translate(19.616 6.046)">
          <path id="Trazado_971129" data-name="Trazado 971129" d="M234.685,10.64a18.921,18.921,0,0,1-4.9,18.286,19.223,19.223,0,0,1-18.286,4.9A18.935,18.935,0,0,1,234.685,10.64Z" transform="translate(-210.855 -9.998)" fill="#6ae6a3"/>
        </g>
        <g id="Grupo_1119440" data-name="Grupo 1119440">
          <ellipse id="Elipse_13692" data-name="Elipse 13692" cx="9.465" cy="16.396" rx="9.465" ry="16.396" transform="translate(0 13.383) rotate(-45)" fill="#daf092"/>
        </g>
      </g>
      <g id="Grupo_1119442" data-name="Grupo 1119442" transform="translate(0 4.838)">
        <path id="Trazado_971130" data-name="Trazado 971130" d="M54.863,249.9a6.04,6.04,0,0,0-6.979-9.742,11.075,11.075,0,0,0-2.927-1.729,6.042,6.042,0,1,0-8.217,0,11.058,11.058,0,0,0-2.928,1.729,6.034,6.034,0,0,0-5.746,0,11.061,11.061,0,0,0-2.928-1.729,6.042,6.042,0,1,0-8.217,0,11.059,11.059,0,0,0-2.928,1.729A6.039,6.039,0,0,0,7.012,249.9,11.136,11.136,0,0,0,0,260.232v.846a1.209,1.209,0,0,0,1.209,1.209H60.667a1.209,1.209,0,0,0,1.208-1.209v-.846A11.136,11.136,0,0,0,54.863,249.9Zm-19.819,0a6.027,6.027,0,0,0,.651-8.147,8.7,8.7,0,0,1,10.306,0,6.027,6.027,0,0,0,.651,8.147,11.185,11.185,0,0,0-5.8,5.294A11.185,11.185,0,0,0,35.044,249.9Zm-19.819,0a6.027,6.027,0,0,0,.651-8.147,8.7,8.7,0,0,1,10.306,0,6.027,6.027,0,0,0,.651,8.147,11.185,11.185,0,0,0-5.8,5.294,11.185,11.185,0,0,0-5.8-5.294Zm39.158-4.428a3.626,3.626,0,1,1-3.626-3.625A3.63,3.63,0,0,1,54.383,245.473ZM40.847,230.378A3.625,3.625,0,1,1,37.222,234,3.63,3.63,0,0,1,40.847,230.378Zm-6.284,15.095a3.625,3.625,0,1,1-3.625-3.625A3.63,3.63,0,0,1,34.563,245.473ZM21.028,230.378A3.625,3.625,0,1,1,17.4,234,3.63,3.63,0,0,1,21.028,230.378Zm-9.91,11.469a3.626,3.626,0,1,1-3.625,3.625A3.63,3.63,0,0,1,11.118,241.847ZM2.424,259.87a8.7,8.7,0,0,1,17.387,0Zm19.819,0a8.7,8.7,0,0,1,17.387,0Zm19.819,0a8.7,8.7,0,0,1,17.387,0Z" transform="translate(0 -200.412)"/>
        <path id="Trazado_971131" data-name="Trazado 971131" d="M90.822,12.968a1.209,1.209,0,0,0,.844-1.486,17.81,17.81,0,0,1-.206-8.63,17.72,17.72,0,0,1,21.45,19.741l-4.33-4.33V12.321a1.208,1.208,0,1,0-2.417,0v3.524L102.8,12.483V8.093a1.208,1.208,0,0,0-2.417,0v1.973l-2.4-2.4a1.209,1.209,0,0,0-1.709,1.709l2.4,2.4H96.7a1.209,1.209,0,0,0,0,2.417h4.39l3.362,3.362H100.93a1.208,1.208,0,0,0,0,2.417h5.941l4.333,4.333a17.661,17.661,0,0,1-14.2-4.278,1.209,1.209,0,0,0-1.6,1.809A20.062,20.062,0,0,0,108.728,26.9a20.332,20.332,0,0,0,5.227-.687A20.078,20.078,0,0,0,128.381,1.541a1.208,1.208,0,0,0-.856-.856,20.117,20.117,0,0,0-18.688,4.492A20.116,20.116,0,0,0,90.15.685a1.208,1.208,0,0,0-.856.856,20.226,20.226,0,0,0,.042,10.583,1.209,1.209,0,0,0,1.486.844ZM126.215,2.852a17.79,17.79,0,0,1-4.757,16.433,17.516,17.516,0,0,1-6.2,3.98,20.312,20.312,0,0,0,.241-3.293h1.429a1.208,1.208,0,1,0,0-2.417h-1.592q-.106-.83-.282-1.65l1.712-1.712h4.39a1.209,1.209,0,1,0,0-2.417H119.18l2.4-2.4a1.209,1.209,0,1,0-1.709-1.709l-2.4,2.4V8.093a1.209,1.209,0,0,0-2.417,0v4.39l-.767.767a20.135,20.135,0,0,0-3.751-6.35,17.8,17.8,0,0,1,15.679-4.048Z" transform="translate(-77.902 -0.003)"/>
        <circle id="Elipse_13693" data-name="Elipse 13693" cx="1.208" cy="1.208" r="1.208" transform="translate(13.579 15.571)"/>
      </g>
    </g>
    <g id="Grupo_1119461" data-name="Grupo 1119461" transform="translate(1305.025 7273.788)">
      <g id="Grupo_1119444" data-name="Grupo 1119444" transform="translate(15.938 1.303)">
        <ellipse id="Elipse_13694" data-name="Elipse 13694" cx="17.394" cy="17.394" rx="17.394" ry="17.394" fill="#ccf5fc"/>
      </g>
      <g id="Grupo_1119455" data-name="Grupo 1119455" transform="translate(1.303 2.719)">
        <g id="Grupo_1119445" data-name="Grupo 1119445" transform="translate(39.911 46.122)">
          <path id="Trazado_971132" data-name="Trazado 971132" d="M316.4,384.435h7.635a12.3,12.3,0,0,0,11.481-7.9,2.6,2.6,0,0,1,2.912-1.651l.033.006a2.591,2.591,0,0,1,1.938,3.466,17.517,17.517,0,0,1-8.478,9.406v3.644H316.4Z" transform="translate(-316.404 -374.844)" fill="#ffda8f"/>
        </g>
        <g id="Grupo_1119446" data-name="Grupo 1119446" transform="translate(43.819 46.317)">
          <g id="XMLID_1188_">
            <path id="Trazado_971133" data-name="Trazado 971133" d="M350.361,376.336a3.962,3.962,0,0,1,3.962,3.962v1.366a3.962,3.962,0,1,1-7.925,0V380.3A3.962,3.962,0,0,1,350.361,376.336Z" transform="translate(-346.399 -376.336)" fill="#ffd0c7"/>
          </g>
        </g>
        <g id="Grupo_1119447" data-name="Grupo 1119447" transform="translate(28.032 38.567)">
          <g id="XMLID_1186_">
            <path id="Trazado_971134" data-name="Trazado 971134" d="M229.246,316.863a4.008,4.008,0,0,0-4.008,4.008v1.382a4.008,4.008,0,1,0,8.016,0v-1.382A4.008,4.008,0,0,0,229.246,316.863Z" transform="translate(-225.238 -316.863)" fill="#ffd0c7"/>
          </g>
        </g>
        <g id="Grupo_1119448" data-name="Grupo 1119448" transform="translate(14.784 35.857)">
          <path id="Trazado_971135" data-name="Trazado 971135" d="M155.923,296.108a2.606,2.606,0,0,0-3.045,2.076,12.291,12.291,0,0,1-24.145,0,2.606,2.606,0,0,0-5.121.97,17.484,17.484,0,0,0,9.306,12.348V322.9h15.774V311.5A17.483,17.483,0,0,0,158,299.153,2.606,2.606,0,0,0,155.923,296.108Z" transform="translate(-123.565 -296.062)" fill="#66e0f7"/>
        </g>
        <g id="Grupo_1119452" data-name="Grupo 1119452" transform="translate(14.635)">
          <g id="Grupo_1119449" data-name="Grupo 1119449" transform="translate(22.683 7.916)">
            <path id="Trazado_971136" data-name="Trazado 971136" d="M306.632,81.622h-4.323a6.582,6.582,0,0,0-4.905,2.193,3.528,3.528,0,0,0,2.629,5.881h1.938l1.353,3.575a1.975,1.975,0,0,0-.626,2.689l2.417,3.969.225-.092a17.4,17.4,0,0,0,1.292-18.215Z" transform="translate(-296.505 -81.622)" fill="#a0e5a5"/>
          </g>
          <g id="Grupo_1119450" data-name="Grupo 1119450">
            <path id="Trazado_971137" data-name="Trazado 971137" d="M122.42,36.847c0,.367.013.73.035,1.092h.266a5.364,5.364,0,0,1,3.06.959l.848.589a1.687,1.687,0,0,0,2.65-1.386v-.694a1.847,1.847,0,0,1,1.847-1.847,1.847,1.847,0,0,0,1.472-.731l4.332-5.719a3.537,3.537,0,0,0-.355-4.673l-3.645-3.568A17.4,17.4,0,0,0,122.42,36.847Z" transform="translate(-122.42 -20.869)" fill="#a0e5a5"/>
          </g>
          <g id="Grupo_1119451" data-name="Grupo 1119451" transform="translate(11.273 18.124)">
            <path id="Trazado_971138" data-name="Trazado 971138" d="M215.638,175.035l-2.181-6.187a1.173,1.173,0,0,0-1.106-.783H212a1.173,1.173,0,0,1-.871-.388l-1.416-1.572a3.021,3.021,0,0,1-.581-3.093l.415-1.1a3.021,3.021,0,0,1,2.825-1.951h1.284a3.7,3.7,0,0,1,3.076,1.646,1.173,1.173,0,0,0,.976.522h1.958a1.173,1.173,0,0,1,1.173,1.173v3.678a1.173,1.173,0,0,1-.38.864l-.458.42a1.173,1.173,0,0,0-.336.547l-1.68,5.966Z" transform="translate(-208.94 -159.966)" fill="#a0e5a5"/>
          </g>
        </g>
        <g id="Grupo_1119453" data-name="Grupo 1119453" transform="translate(0 46.122)">
          <path id="Trazado_971139" data-name="Trazado 971139" d="M34.271,384.435H26.637a12.3,12.3,0,0,1-11.481-7.9,2.6,2.6,0,0,0-2.912-1.651l-.033.006a2.591,2.591,0,0,0-1.938,3.466,17.518,17.518,0,0,0,8.478,9.406v3.644H34.271Z" transform="translate(-10.102 -374.844)" fill="#ff7d97"/>
        </g>
        <g id="Grupo_1119454" data-name="Grupo 1119454" transform="translate(12.337 46.317)">
          <g id="XMLID_1031_">
            <path id="Trazado_971140" data-name="Trazado 971140" d="M108.743,376.336a3.962,3.962,0,0,0-3.962,3.962v1.366a3.962,3.962,0,1,0,7.925,0V380.3A3.962,3.962,0,0,0,108.743,376.336Z" transform="translate(-104.781 -376.336)" fill="#ffd0c7"/>
          </g>
        </g>
      </g>
      <g id="Grupo_1119456" data-name="Grupo 1119456" transform="translate(0 0)">
        <path id="Trazado_971141" data-name="Trazado 971141" d="M66.291,298.316a3.88,3.88,0,0,0-2.669-1.921l-.035-.007a3.908,3.908,0,0,0-4.372,2.466,10.988,10.988,0,0,1-4.948,5.672,5.253,5.253,0,0,0,.185-1.381V301.78a5.273,5.273,0,0,0-4.718-5.237,18.826,18.826,0,0,0,2.169-5.851,3.909,3.909,0,0,0-7.681-1.455,10.965,10.965,0,0,1-5.664,7.654,5.292,5.292,0,0,0,.2-1.434v-1.382a5.311,5.311,0,1,0-10.622,0v1.382a5.294,5.294,0,0,0,.2,1.453,10.966,10.966,0,0,1-5.7-7.674,3.909,3.909,0,1,0-7.681,1.455,18.835,18.835,0,0,0,2.171,5.855,5.272,5.272,0,0,0-4.687,5.233v1.366a5.253,5.253,0,0,0,.185,1.381,10.988,10.988,0,0,1-4.948-5.672A3.907,3.907,0,0,0,3.3,296.389l-.031.006A3.894,3.894,0,0,0,.357,301.6a18.749,18.749,0,0,0,8.393,9.726v2.862a1.3,1.3,0,0,0,1.3,1.3H56.838a1.3,1.3,0,0,0,1.3-1.3v-2.862a18.75,18.75,0,0,0,8.393-9.726,3.888,3.888,0,0,0-.244-3.287ZM51.847,301.78v1.366a2.659,2.659,0,1,1-5.319,0V301.78a2.659,2.659,0,1,1,5.319,0Zm-7.137,4.132H42.62v-2.333q.667-.375,1.3-.8v.372A5.233,5.233,0,0,0,44.71,305.912ZM30.741,294.077a2.705,2.705,0,0,1,5.41,0v1.382a2.705,2.705,0,0,1-5.41,0ZM17.72,289.231a1.3,1.3,0,0,1,2.357.491,13.594,13.594,0,0,0,26.706,0,1.3,1.3,0,0,1,1.523-1.038h0a1.3,1.3,0,0,1,1.038,1.523,16.075,16.075,0,0,1-8.614,11.427,1.3,1.3,0,0,0-.715,1.163v10.092H26.846V302.8a1.3,1.3,0,0,0-.715-1.163,16.321,16.321,0,0,1-4.381-3.222,5.324,5.324,0,0,0-.4-.43,16.072,16.072,0,0,1-3.83-7.776,1.294,1.294,0,0,1,.2-.976ZM22.97,302.8q.619.416,1.269.781v2.332H22.183a5.233,5.233,0,0,0,.787-2.766V302.8Zm-7.925-1.018a2.659,2.659,0,1,1,5.319,0v1.366a2.659,2.659,0,1,1-5.319,0Zm-4.4,7.6a16.16,16.16,0,0,1-7.847-8.705,1.288,1.288,0,0,1,.964-1.724l.031-.006a1.305,1.305,0,0,1,1.452.835,13.663,13.663,0,0,0,12.7,8.733h6.3v4.371H11.357v-2.341A1.3,1.3,0,0,0,10.642,309.384ZM64.1,300.679a16.161,16.161,0,0,1-7.847,8.705,1.3,1.3,0,0,0-.715,1.163v2.341H42.62v-4.371h6.332a13.663,13.663,0,0,0,12.7-8.733,1.3,1.3,0,0,1,1.45-.836l.035.007a1.288,1.288,0,0,1,.962,1.724Z" transform="translate(-0.103 -248.782)"/>
        <path id="Trazado_971142" data-name="Trazado 971142" d="M115.057,25.516a1.3,1.3,0,0,0,.816-1.652,15.973,15.973,0,0,1-.641-2.589,4.059,4.059,0,0,1,1.109.543l.849.59a2.99,2.99,0,0,0,4.7-2.456v-.694a.544.544,0,0,1,.544-.544,3.167,3.167,0,0,0,2.511-1.248l4.332-5.718a4.846,4.846,0,0,0-.485-6.395l-2.168-2.106a16.083,16.083,0,0,1,17.575,6.086H142.21a7.9,7.9,0,0,0-5.876,2.627,4.831,4.831,0,0,0,3.6,8.053h1.038l.722,1.908-.638,1.006a1.873,1.873,0,0,0-.018,1.99L143.5,28.96a16.139,16.139,0,0,1-7.659,5.12l1.126-4,.431-.395a2.482,2.482,0,0,0,.8-1.825V24.184a2.478,2.478,0,0,0-2.476-2.476h-1.889a4.988,4.988,0,0,0-4.12-2.168h-1.284a4.346,4.346,0,0,0-4.044,2.793l-.415,1.1a4.308,4.308,0,0,0,.831,4.427l1.416,1.572a2.48,2.48,0,0,0,1.839.818h.254l1.585,4.5a16.014,16.014,0,0,1-7.423-2.467,1.3,1.3,0,1,0-1.4,2.2,18.666,18.666,0,1,0-7.671-9.771,1.3,1.3,0,0,0,1.652.816Zm13.061,2.123-1.377-1.529a1.712,1.712,0,0,1-.33-1.759l.415-1.1a1.727,1.727,0,0,1,1.607-1.11h1.284a2.388,2.388,0,0,1,1.991,1.066,2.471,2.471,0,0,0,2.06,1.1H135.6V27.8l-.416.381a2.474,2.474,0,0,0-.71,1.154l-1.5,5.342c-.1.012-.207.023-.311.033l-1.912-5.423a2.479,2.479,0,0,0-2.335-1.653Zm17-1.027L143.5,23.943l.746-1.177a1.3,1.3,0,0,0,.118-1.159l-1.271-3.359a1.3,1.3,0,0,0-1.219-.842h-1.938a2.225,2.225,0,0,1-1.658-3.709,5.286,5.286,0,0,1,3.934-1.759h3.508a16.066,16.066,0,0,1-.595,14.674ZM123.954,4.291l3.017,2.93a2.237,2.237,0,0,1,.224,2.952l-4.332,5.718a.547.547,0,0,1-.433.215,3.153,3.153,0,0,0-3.15,3.15v.694a.384.384,0,0,1-.6.316l-.849-.59a6.635,6.635,0,0,0-2.8-1.116,16.109,16.109,0,0,1,8.926-14.27Z" transform="translate(-97.785 0)"/>
        <ellipse id="Elipse_13695" data-name="Elipse 13695" cx="1.303" cy="1.303" rx="1.303" ry="1.303" transform="translate(18.345 28.135)"/>
      </g>
    </g>
  </g>
</svg>
