<svg xmlns="http://www.w3.org/2000/svg" width="120" height="120" viewBox="0 0 120 120">
  <g id="Grupo_1117877" data-name="Grupo 1117877" transform="translate(-64 -6445)">
    <rect id="Rect치ngulo_402033" data-name="Rect치ngulo 402033" width="120" height="120" rx="8" transform="translate(64 6445)" fill="#0042db"/>
    <g id="Rect치ngulo_412110" data-name="Rect치ngulo 412110" transform="translate(69 6450)" fill="none" stroke="#fff" stroke-width="1">
      <rect width="110" height="110" rx="6" stroke="none"/>
      <rect x="0.5" y="0.5" width="109" height="109" rx="5.5" fill="none"/>
    </g>
    <g id="Grupo_1118845" data-name="Grupo 1118845" transform="translate(34.393 6462.925)">
      <g id="Grupo_1118844" data-name="Grupo 1118844" transform="translate(58.114 1.233)">
        <g id="Grupo_1118842" data-name="Grupo 1118842" transform="translate(29.85 27.592)">
          <path id="Trazado_969105" data-name="Trazado 969105" d="M254.2,237.035l2.432,25.864,1.327,10.32a3.934,3.934,0,0,0,3.918,3.568h15.49a3.934,3.934,0,0,0,3.918-3.568l3.369-36.184L269.456,232Z" transform="translate(-252.856 -222.694)" fill="#73c3ee"/>
          <path id="Trazado_969106" data-name="Trazado 969106" d="M330.26,232l-3.292,1.087,11.92,3.948L335.52,273.22a3.934,3.934,0,0,1-3.918,3.568h6.574a3.934,3.934,0,0,0,3.918-3.568l3.369-36.184Z" transform="translate(-313.66 -222.694)" fill="#59acd9"/>
          <path id="Trazado_969107" data-name="Trazado 969107" d="M279.137,175.378H246l1.348,14.341H277.8Z" transform="translate(-246 -175.378)" fill="#c6e7f7"/>
          <path id="Trazado_969108" data-name="Trazado 969108" d="M400.83,175.378,399.5,189.719h6.574l1.335-14.341Z" transform="translate(-374.267 -175.378)" fill="#b5e0f5"/>
        </g>
        <g id="Grupo_1118843" data-name="Grupo 1118843" transform="translate(0)">
          <path id="Trazado_969109" data-name="Trazado 969109" d="M89.355,55.225H87.569V47H76.1v8.225H74.316a9.644,9.644,0,0,0-9.641,9.647v1.779a3.3,3.3,0,0,0,3.294,3.3H95.7A3.3,3.3,0,0,0,99,66.651V64.872A9.644,9.644,0,0,0,89.355,55.225Z" transform="translate(-64.627 -40.508)" fill="#c6e7f7"/>
          <path id="Trazado_969110" data-name="Trazado 969110" d="M172.331,55.225h-1.786V47H163.97v8.225h1.786a9.644,9.644,0,0,1,9.641,9.647v1.779a3.3,3.3,0,0,1-3.294,3.3h6.574a3.3,3.3,0,0,0,3.294-3.3V64.872A9.644,9.644,0,0,0,172.331,55.225Z" transform="translate(-147.602 -40.508)" fill="#b5e0f5"/>
          <path id="Trazado_969111" data-name="Trazado 969111" d="M95.686,204.169h-27.7a3.311,3.311,0,0,1-3.311-3.311V189.911a3.3,3.3,0,0,1,3.3-3.3H95.7a3.3,3.3,0,0,1,3.3,3.3v10.946a3.311,3.311,0,0,1-3.311,3.311Z" transform="translate(-64.627 -157.177)" fill="#73c3ee"/>
          <path id="Trazado_969112" data-name="Trazado 969112" d="M219.945,186.617h-6.574a3.3,3.3,0,0,1,3.3,3.3v10.946a3.311,3.311,0,0,1-3.311,3.311h6.574a3.311,3.311,0,0,0,3.311-3.311V189.912A3.3,3.3,0,0,0,219.945,186.617Z" transform="translate(-188.87 -157.178)" fill="#59acd9"/>
          <path id="Trazado_969113" data-name="Trazado 969113" d="M98.872,303.668a3.28,3.28,0,0,0-3.229-3.329,3.331,3.331,0,0,0,0-6.658H67.611a3.331,3.331,0,0,0,0,6.658,3.331,3.331,0,0,0,0,6.658s-3.181.045-3.181,4.163v7.523a9.644,9.644,0,0,0,9.641,9.647H89.111a9.644,9.644,0,0,0,9.641-9.647V311.16c0-4.064-3.109-4.163-3.109-4.163a3.28,3.28,0,0,0,3.229-3.329Z" transform="translate(-64.382 -246.645)" fill="#c6e7f7"/>
          <path id="Trazado_969114" data-name="Trazado 969114" d="M191.175,303.668a3.28,3.28,0,0,0-3.229-3.329,3.331,3.331,0,0,0,0-6.658h-6.574a3.331,3.331,0,0,1,0,6.658,3.331,3.331,0,0,1,0,6.658s3.109.1,3.109,4.163v7.523a9.644,9.644,0,0,1-9.641,9.647h6.574a9.644,9.644,0,0,0,9.641-9.647V311.16c0-4.064-3.109-4.163-3.109-4.163a3.28,3.28,0,0,0,3.229-3.329Z" transform="translate(-156.685 -246.645)" fill="#b5e0f5"/>
          <path id="Trazado_969115" data-name="Trazado 969115" d="M132.924,16.531H117.257a.82.82,0,0,1-.82-.82V10.174A2.674,2.674,0,0,1,119.111,7.5H131.07a2.674,2.674,0,0,1,2.674,2.674v5.536A.82.82,0,0,1,132.924,16.531Z" transform="translate(-107.881 -7.5)" fill="#73c3ee"/>
          <path id="Trazado_969116" data-name="Trazado 969116" d="M172.042,7.5h-6.574a2.674,2.674,0,0,1,2.674,2.674v5.536a.82.82,0,0,1-.82.82H173.9a.82.82,0,0,0,.82-.82V10.174A2.674,2.674,0,0,0,172.042,7.5Z" transform="translate(-148.854 -7.5)" fill="#59acd9"/>
        </g>
      </g>
      <path id="Trazado_969117" data-name="Trazado 969117" d="M122.012,27.994a1.233,1.233,0,0,0-.911-.4H93.711c.329-6.923-4.013-13.044-11.422-12.875V11.5h.868a2.055,2.055,0,0,0,2.053-2.053V3.907A3.911,3.911,0,0,0,81.3,0H69.344a3.911,3.911,0,0,0-3.907,3.907V9.443A2.055,2.055,0,0,0,67.489,11.5h.868v3.221a12.115,12.115,0,0,0-4.918.912,1.233,1.233,0,0,0,.991,2.257,8.34,8.34,0,0,1,3.374-.7H69.59a1.232,1.232,0,0,0,1.233-1.233V11.5h9V15.95a1.232,1.232,0,0,0,1.233,1.233h1.786A8.421,8.421,0,0,1,91.251,25.6v1.779a2.065,2.065,0,0,1-2.062,2.064H61.456a2.065,2.065,0,0,1-2.062-2.064V25.6a8.378,8.378,0,0,1,1.414-4.673,1.233,1.233,0,0,0-2.049-1.37A10.834,10.834,0,0,0,56.929,25.6v1.779a4.517,4.517,0,0,0,1.427,3.3,4.515,4.515,0,0,0-1.427,3.3V44.913a4.53,4.53,0,0,0,1.425,3.3,4.624,4.624,0,0,0-.059,6.713,4.624,4.624,0,0,0,.075,6.728,5.588,5.588,0,0,0-1.441,4.093v7.523A10.889,10.889,0,0,0,67.8,84.15H82.842a10.869,10.869,0,0,0,8.993-4.771l.008.085a5.144,5.144,0,0,0,5.146,4.686h15.49a5.143,5.143,0,0,0,5.146-4.686l.385-4.135a1.233,1.233,0,0,0-2.455-.229l-.385,4.135a2.689,2.689,0,0,1-2.691,2.449H96.989A2.689,2.689,0,0,1,94.3,79.236l-.566-6.082c0-.037-.009-.073-.016-.109v-7.3a5.623,5.623,0,0,0-1.408-4.058,4.624,4.624,0,0,0,.114-6.763,4.623,4.623,0,0,0-.1-6.746,4.53,4.53,0,0,0,1.391-3.267V44.4h24.7l-2.277,24.46a1.234,1.234,0,0,0,2.455.229l3.738-40.149a1.234,1.234,0,0,0-.316-.945ZM67.9,9.031V3.907a1.443,1.443,0,0,1,1.442-1.442H81.3a1.443,1.443,0,0,1,1.442,1.442V9.031ZM89.189,31.9a2.065,2.065,0,0,1,2.063,2.063V44.913a2.081,2.081,0,0,1-2.078,2.078h-27.7a2.081,2.081,0,0,1-2.078-2.078V33.967A2.065,2.065,0,0,1,61.457,31.9Zm2.063,41.366a8.421,8.421,0,0,1-8.409,8.415H67.8a8.421,8.421,0,0,1-8.409-8.415V65.748a2.97,2.97,0,0,1,.968-2.549,2.1,2.1,0,0,1,1.008-.381H81.7a1.233,1.233,0,0,0,0-2.465H61.343a2.1,2.1,0,0,1,0-4.193,1.233,1.233,0,0,0,0-2.465,2.1,2.1,0,0,1,0-4.193H89.374a2.1,2.1,0,0,1,0,4.193H68.1a1.233,1.233,0,0,0,0,2.465H89.374a2.1,2.1,0,0,1,0,4.193,1.234,1.234,0,0,0-.039,2.465c.078,0,1.916.094,1.916,2.931Zm2.465-31.337V33.967a4.515,4.515,0,0,0-1.427-3.3,4.559,4.559,0,0,0,.545-.615h26.914l-1.106,11.876Z" transform="translate(0)"/>
    </g>
  </g>
</svg>
