<svg xmlns="http://www.w3.org/2000/svg" width="295" height="274.441" viewBox="0 0 295 274.441">
  <g id="Grupo_1117930" data-name="Grupo 1117930" transform="translate(-1020 -3800)">
    <path id="Image_Place_Holder" data-name="Image Place Holder" d="M20,0H275a20,20,0,0,1,20,20V267.441a0,0,0,0,1,0,0H0a0,0,0,0,1,0,0V20A20,20,0,0,1,20,0Z" transform="translate(1020 3800)" fill="#99b3f1"/>
    <path id="Image_Place_Holder-2" data-name="Image Place Holder" d="M0,0H295V71.441H0Z" transform="translate(1020 4003)" fill="#66d16a"/>
    <g id="_12464550_4966426" data-name="12464550_4966426" transform="translate(1025.985 3773.309)">
      <g id="Background_Complete" transform="translate(0 54.952)">
        <g id="Grupo_1118900" data-name="Grupo 1118900">
          <rect id="Rectángulo_416673" data-name="Rectángulo 416673" width="283.029" height="0.142" transform="translate(0 185.354)" fill="#ebebeb"/>
          <rect id="Rectángulo_416674" data-name="Rectángulo 416674" width="18.749" height="0.142" transform="translate(183.721 189.208)" fill="#ebebeb"/>
          <rect id="Rectángulo_416675" data-name="Rectángulo 416675" width="4.921" height="0.142" transform="translate(242.598 190.448)" fill="#ebebeb"/>
          <rect id="Rectángulo_416676" data-name="Rectángulo 416676" width="10.864" height="0.142" transform="translate(203.037 194.465)" fill="#ebebeb"/>
          <rect id="Rectángulo_416677" data-name="Rectángulo 416677" width="24.45" height="0.142" transform="translate(117.065 192.55)" fill="#ebebeb"/>
          <rect id="Rectángulo_416678" data-name="Rectángulo 416678" width="3.585" height="0.142" transform="translate(108.44 192.55)" fill="#ebebeb"/>
          <rect id="Rectángulo_416679" data-name="Rectángulo 416679" width="53.026" height="0.142" transform="translate(43.763 190.159)" fill="#ebebeb"/>
          <path id="Trazado_969196" data-name="Trazado 969196" d="M150.743,215.061H41.438a3.235,3.235,0,0,1-3.231-3.231V58.183a3.235,3.235,0,0,1,3.231-3.231H150.743a3.235,3.235,0,0,1,3.23,3.231V211.829A3.235,3.235,0,0,1,150.743,215.061ZM41.438,55.094a3.093,3.093,0,0,0-3.09,3.09V211.83a3.093,3.093,0,0,0,3.09,3.09H150.743a3.093,3.093,0,0,0,3.089-3.09V58.183a3.093,3.093,0,0,0-3.089-3.09H41.438Z" transform="translate(-16.58 -54.952)" fill="#ebebeb"/>
        </g>
        <g id="Grupo_1118910" data-name="Grupo 1118910" transform="translate(30.884 10.253)">
          <g id="Grupo_1118904" data-name="Grupo 1118904" transform="translate(49.644)">
            <g id="Grupo_1118901" data-name="Grupo 1118901" transform="translate(0 1.476)">
              <rect id="Rectángulo_416680" data-name="Rectángulo 416680" width="156.548" height="119.97" transform="translate(166.272 122.806) rotate(180)" fill="#e6e6e6"/>
              <path id="Trazado_969198" data-name="Trazado 969198" d="M143.085,75.672H313.909a.824.824,0,0,1,.824.824h0a.824.824,0,0,1-.824.824H143.085a.824.824,0,0,1-.824-.824h0A.824.824,0,0,1,143.085,75.672Z" transform="translate(-142.261 -75.672)" fill="#f5f5f5"/>
              <rect id="Rectángulo_416681" data-name="Rectángulo 416681" width="158.425" height="119.97" transform="translate(164.625 122.806) rotate(180)" fill="#ebebeb"/>
              <rect id="Rectángulo_416682" data-name="Rectángulo 416682" width="110.103" height="148.559" transform="translate(159.692 7.769) rotate(90)" fill="#fafafa"/>
              <path id="Trazado_969199" data-name="Trazado 969199" d="M328.9,199.5,294.629,89.4H274.688l34.274,110.1Z" transform="translate(-199.727 -81.628)" fill="#fff"/>
              <path id="Trazado_969200" data-name="Trazado 969200" d="M278.445,199.5,244.17,89.4H236.4L270.67,199.5Z" transform="translate(-183.11 -81.628)" fill="#fff"/>
              <rect id="Rectángulo_416683" data-name="Rectángulo 416683" width="110.103" height="0.627" transform="translate(11.76 7.769) rotate(90)" fill="#e6e6e6"/>
            </g>
            <g id="Grupo_1118902" data-name="Grupo 1118902" transform="translate(122.184)" opacity="0.4">
              <rect id="Rectángulo_416684" data-name="Rectángulo 416684" width="15.314" height="116.067" transform="translate(45.941 116.067) rotate(180)" fill="#f0f0f0"/>
              <rect id="Rectángulo_416685" data-name="Rectángulo 416685" width="11.931" height="116.067" transform="translate(36.593 116.067) rotate(180)" fill="#e6e6e6"/>
              <rect id="Rectángulo_416686" data-name="Rectángulo 416686" width="15.314" height="116.067" transform="translate(30.627 116.067) rotate(180)" fill="#f0f0f0"/>
              <rect id="Rectángulo_416687" data-name="Rectángulo 416687" width="11.931" height="116.067" transform="translate(21.279 116.067) rotate(180)" fill="#e6e6e6"/>
              <rect id="Rectángulo_416688" data-name="Rectángulo 416688" width="15.314" height="116.067" transform="translate(15.314 116.067) rotate(180)" fill="#f0f0f0"/>
            </g>
            <g id="Grupo_1118903" data-name="Grupo 1118903" transform="translate(4.508 0)" opacity="0.4">
              <rect id="Rectángulo_416689" data-name="Rectángulo 416689" width="4.893" height="116.067" transform="translate(14.679 116.067) rotate(180)" fill="#f0f0f0"/>
              <rect id="Rectángulo_416690" data-name="Rectángulo 416690" width="3.812" height="116.067" transform="translate(11.692 116.067) rotate(180)" fill="#e6e6e6"/>
              <rect id="Rectángulo_416691" data-name="Rectángulo 416691" width="4.893" height="116.067" transform="translate(9.786 116.067) rotate(180)" fill="#f0f0f0"/>
              <rect id="Rectángulo_416692" data-name="Rectángulo 416692" width="3.812" height="116.067" transform="translate(6.799 116.067) rotate(180)" fill="#e6e6e6"/>
              <rect id="Rectángulo_416693" data-name="Rectángulo 416693" width="4.893" height="116.067" transform="translate(4.893 116.067) rotate(180)" fill="#f0f0f0"/>
            </g>
          </g>
          <g id="Grupo_1118905" data-name="Grupo 1118905" transform="translate(4.043 19.612)">
            <rect id="Rectángulo_416694" data-name="Rectángulo 416694" width="35.076" height="44.091" transform="translate(42.819 44.091) rotate(180)" fill="#f0f0f0"/>
            <rect id="Rectángulo_416695" data-name="Rectángulo 416695" width="41.475" height="44.091" transform="translate(41.475 44.091) rotate(180)" fill="#f5f5f5"/>
            <rect id="Rectángulo_416696" data-name="Rectángulo 416696" width="37.141" height="34.526" transform="translate(3.475 40.617) rotate(-90)" fill="#fff"/>
          </g>
          <g id="Grupo_1118907" data-name="Grupo 1118907" transform="translate(94.185 131.763)">
            <g id="Grupo_1118906" data-name="Grupo 1118906" transform="translate(1.99 3.334)">
              <rect id="Rectángulo_416697" data-name="Rectángulo 416697" width="6.935" height="37.178" transform="translate(110.159 37.179) rotate(180)" fill="#f0f0f0"/>
              <rect id="Rectángulo_416698" data-name="Rectángulo 416698" width="104.424" height="3.452" transform="translate(107.291 40.63) rotate(180)" fill="#f0f0f0"/>
              <rect id="Rectángulo_416699" data-name="Rectángulo 416699" width="103.224" height="37.178" fill="#fafafa"/>
              <rect id="Rectángulo_416700" data-name="Rectángulo 416700" width="91.48" height="11.44" transform="translate(5.872 4.523)" fill="#f0f0f0"/>
              <rect id="Rectángulo_416701" data-name="Rectángulo 416701" width="91.48" height="11.44" transform="translate(5.872 19.222)" fill="#f0f0f0"/>
              <path id="Trazado_969201" data-name="Trazado 969201" d="M269.411,319.661H320.84a1.047,1.047,0,0,0,1.044-1.044v-.362a1.047,1.047,0,0,0-1.044-1.044H269.411a1.048,1.048,0,0,0-1.044,1.044v.362A1.048,1.048,0,0,0,269.411,319.661Z" transform="translate(-243.514 -314.107)" fill="#fafafa"/>
              <path id="Trazado_969202" data-name="Trazado 969202" d="M269.411,345.626H320.84a1.048,1.048,0,0,0,1.044-1.044v-.362a1.047,1.047,0,0,0-1.044-1.044H269.411a1.048,1.048,0,0,0-1.044,1.044v.362A1.048,1.048,0,0,0,269.411,345.626Z" transform="translate(-243.514 -325.374)" fill="#fafafa"/>
            </g>
            <rect id="Rectángulo_416702" data-name="Rectángulo 416702" width="105.213" height="3.334" transform="translate(105.213 3.334) rotate(180)" fill="#f0f0f0"/>
            <rect id="Rectángulo_416703" data-name="Rectángulo 416703" width="9.023" height="3.334" transform="translate(105.213)" fill="#e6e6e6"/>
          </g>
          <g id="Grupo_1118909" data-name="Grupo 1118909" transform="translate(0 75.258)">
            <path id="Trazado_969203" data-name="Trazado 969203" d="M99.574,305.8h3.36c-.025-3.006.008-18.358.237-35.83.208-16.194.581-22.684.9-25.161l-2.7,4.71c-.939,3.681-2.5,9.984-2.634,13.854C98.307,275.56,99.956,293.019,99.574,305.8Z" transform="translate(-73.696 -222.852)" fill="#e6e6e6"/>
            <path id="Trazado_969204" data-name="Trazado 969204" d="M77.883,235.6c-4.481-8.76-13.429-13.331-22.574-17.634-3.591-1.69,6.486,19.269,13.813,28.77,5.691,7.381,11.193,7.216,12.846,14.511C82.284,252.781,81.745,243.149,77.883,235.6Z" transform="translate(-54.559 -211.161)" fill="#e6e6e6"/>
            <path id="Trazado_969205" data-name="Trazado 969205" d="M106.557,269.532c3.971-5.178,10.508-6.506,17.149-7.606,2.607-.432-6.458,12.091-12.43,17.195-4.639,3.965-8.339,2.706-10.241,7.451C101.734,280.6,103.136,273.993,106.557,269.532Z" transform="translate(-74.727 -230.273)" fill="#e6e6e6"/>
            <path id="Trazado_969206" data-name="Trazado 969206" d="M86.175,288.325c-3.086-4.024-8.165-5.055-13.326-5.91-2.026-.336,5.018,9.4,9.659,13.361,3.605,3.081,6.479,2.1,7.958,5.79C89.923,296.924,88.834,291.791,86.175,288.325Z" transform="translate(-62.341 -239.165)" fill="#e6e6e6"/>
            <path id="Trazado_969207" data-name="Trazado 969207" d="M105.581,317.7c2.126-2.719,5.59-3.388,9.11-3.936,1.382-.215-3.474,6.363-6.659,9.033-2.474,2.074-4.424,1.389-5.454,3.889C102.977,323.532,103.75,320.044,105.581,317.7Z" transform="translate(-75.397 -252.771)" fill="#e6e6e6"/>
            <path id="Trazado_969208" data-name="Trazado 969208" d="M102.637,230.785c2.478-8.588,12.262-21.977,22.329-24.73,3.952-1.081-10.253,20.651-15.119,31.467-3.788,8.421-7.35,13.532-7.853,19.565C99.481,249.5,100.159,239.373,102.637,230.785Z" transform="translate(-74.456 -206.016)" fill="#e6e6e6"/>
            <g id="Grupo_1118908" data-name="Grupo 1118908" transform="translate(11.943 75.796)">
              <path id="Trazado_969209" data-name="Trazado 969209" d="M94.857,367.153h0c-6.972,0-12.733-1.033-13.134-7.994l-1.162-11.892h28.591l-1.162,11.892C107.59,366.12,101.829,367.153,94.857,367.153Z" transform="translate(-77.785 -343.107)" fill="#f0f0f0"/>
              <path id="Trazado_969210" data-name="Trazado 969210" d="M108.876,346.5H76.582l-.925-6.584H109.8Z" transform="translate(-75.657 -339.918)" fill="#f0f0f0"/>
            </g>
          </g>
        </g>
      </g>
      <g id="Shadow_1_" transform="translate(31.762 253.052)">
        <ellipse id="_x3C_Path_x3E__348_" cx="109.753" cy="6.409" rx="109.753" ry="6.409" transform="translate(0 0)" fill="#408b43"/>
      </g>
      <g id="Technology" transform="translate(93.485 56.126)">
        <g id="Grupo_1118920" data-name="Grupo 1118920">
          <path id="Trazado_969211" data-name="Trazado 969211" d="M286.339,103.107a.294.294,0,0,1-.082-.012.282.282,0,0,1-.19-.352c5.066-16.876,1.426-31.729-9.738-39.73a29.891,29.891,0,0,0-34.739.292c-29.836,21.244-52.65,25.363-76.282,13.774a.283.283,0,1,1,.249-.508c23.42,11.484,46.061,7.379,75.7-13.727a30.455,30.455,0,0,1,35.4-.29c11.369,8.148,15.089,23.233,9.95,40.352A.282.282,0,0,1,286.339,103.107Z" transform="translate(-165.15 -57.025)" fill="#407bff"/>
          <path id="Trazado_969212" data-name="Trazado 969212" d="M299.773,262.226a36.45,36.45,0,0,1-16.446-4c-20.967-10.542-37.234-10.067-43.515,1.272a.283.283,0,1,1-.5-.275c6.446-11.637,22.993-12.2,44.265-1.5a35.254,35.254,0,0,0,32.865-.247,46.476,46.476,0,0,0,23.911-33.411.28.28,0,0,1,.321-.239.283.283,0,0,1,.239.321,47.059,47.059,0,0,1-24.21,33.831A36.543,36.543,0,0,1,299.773,262.226Z" transform="translate(-197.319 -129.403)" fill="#407bff"/>
          <path id="Trazado_969213" data-name="Trazado 969213" d="M389.736,189.151a.291.291,0,0,1-.1-.017.283.283,0,0,1-.169-.363c6.072-16.7-2.6-23.364-10.977-29.813-7.946-6.114-16.163-12.437-11.481-27.139a.283.283,0,1,1,.539.172c-4.561,14.324,3.137,20.247,11.287,26.518,8.543,6.574,17.377,13.371,11.164,30.456A.282.282,0,0,1,389.736,189.151Z" transform="translate(-252.153 -89.396)" fill="#407bff"/>
          <path id="Trazado_969214" data-name="Trazado 969214" d="M354.154,220.811c-4.14,14.068-19.919,24.847-34.194,21.489-17.312-4.072-26.435-18.823-23.369-33.163s19.047-6.971,33.386-10.042C348.4,195.15,358.293,206.743,354.154,220.811Z" transform="translate(-221.933 -118.337)" fill="#407bff" opacity="0.1"/>
          <g id="Grupo_1118911" data-name="Grupo 1118911" transform="translate(45.663 19.624)">
            <path id="Trazado_969215" data-name="Trazado 969215" d="M250.206,93.929a1.95,1.95,0,1,1-2.153-1.723A1.949,1.949,0,0,1,250.206,93.929Z" transform="translate(-246.035 -91.911)" fill="#fff"/>
            <path id="Trazado_969216" data-name="Trazado 969216" d="M248.049,96.159a2.233,2.233,0,1,1,2.221-2.479h0a2.236,2.236,0,0,1-1.973,2.465A2.272,2.272,0,0,1,248.049,96.159Zm0-3.9a1.687,1.687,0,0,0-.185.01,1.667,1.667,0,1,0,1.84,1.473h0A1.67,1.67,0,0,0,248.052,92.26Z" transform="translate(-245.818 -91.694)" fill="#407bff"/>
          </g>
          <g id="Grupo_1118912" data-name="Grupo 1118912" transform="translate(112.895 40.276)">
            <path id="Trazado_969217" data-name="Trazado 969217" d="M368.98,130.413a1.95,1.95,0,1,1-2.153-1.723A1.95,1.95,0,0,1,368.98,130.413Z" transform="translate(-364.808 -128.394)" fill="#fff"/>
            <path id="Trazado_969218" data-name="Trazado 969218" d="M366.819,132.643a2.233,2.233,0,1,1,2.223-2.479h0a2.233,2.233,0,0,1-1.973,2.465A2.176,2.176,0,0,1,366.819,132.643Zm.008-3.9a1.608,1.608,0,0,0-.187.011,1.667,1.667,0,1,0,1.84,1.472h0a1.668,1.668,0,0,0-1.653-1.483Z" transform="translate(-364.59 -128.177)" fill="#407bff"/>
          </g>
          <g id="Grupo_1118913" data-name="Grupo 1118913" transform="translate(132.364 112.89)">
            <path id="Trazado_969219" data-name="Trazado 969219" d="M403.372,258.692a1.95,1.95,0,1,1-2.153-1.723A1.949,1.949,0,0,1,403.372,258.692Z" transform="translate(-399.201 -256.674)" fill="#fff"/>
            <path id="Trazado_969220" data-name="Trazado 969220" d="M401.212,260.923a2.233,2.233,0,1,1,2.223-2.478h0a2.235,2.235,0,0,1-1.973,2.465A2.306,2.306,0,0,1,401.212,260.923Zm.008-3.9a1.608,1.608,0,0,0-.187.011,1.667,1.667,0,1,0,1.84,1.473h0a1.667,1.667,0,0,0-1.653-1.484Z" transform="translate(-398.984 -256.457)" fill="#407bff"/>
          </g>
          <g id="Grupo_1118915" data-name="Grupo 1118915" transform="translate(109.01 92.96)">
            <g id="Grupo_1118914" data-name="Grupo 1118914" transform="translate(3.593 18.527)">
              <path id="Trazado_969221" data-name="Trazado 969221" d="M368.255,257.332a1.95,1.95,0,1,1-.824-2.632A1.95,1.95,0,0,1,368.255,257.332Z" transform="translate(-364.293 -254.195)" fill="#fff"/>
              <path id="Trazado_969222" data-name="Trazado 969222" d="M366.306,258.443a2.232,2.232,0,1,1,1.981-1.2h0A2.232,2.232,0,0,1,366.306,258.443Zm.006-3.9a1.667,1.667,0,1,0,1.474,2.44h0a1.669,1.669,0,0,0-.7-2.25A1.651,1.651,0,0,0,366.312,254.545Z" transform="translate(-364.075 -253.979)" fill="#407bff"/>
            </g>
            <path id="Trazado_969223" data-name="Trazado 969223" d="M371.991,235.94a.21.21,0,0,1-.142-.055L360.423,225.57a.212.212,0,1,1,.285-.315L371.832,235.3l1.533-12.119a.212.212,0,0,1,.421.053L372.2,235.754a.213.213,0,0,1-.137.173A.2.2,0,0,1,371.991,235.94Z" transform="translate(-358.867 -222.005)" fill="#263238"/>
            <path id="Trazado_969224" data-name="Trazado 969224" d="M367.859,252.578a.212.212,0,0,1-.147-.365l7.3-7.037a.212.212,0,1,1,.294.305l-7.3,7.037A.21.21,0,0,1,367.859,252.578Z" transform="translate(-362.032 -231.606)" fill="#263238"/>
            <path id="Trazado_969225" data-name="Trazado 969225" d="M360.931,226.753a1.7,1.7,0,1,1-.717-2.292A1.7,1.7,0,0,1,360.931,226.753Z" transform="translate(-357.727 -222.559)" fill="#407bff"/>
            <path id="Trazado_969226" data-name="Trazado 969226" d="M383.855,223.007a1.2,1.2,0,1,1-.507-1.621A1.2,1.2,0,0,1,383.855,223.007Z" transform="translate(-368.082 -221.249)" fill="#263238"/>
          </g>
          <g id="Grupo_1118917" data-name="Grupo 1118917" transform="translate(49.702 55.071)">
            <g id="Grupo_1118916" data-name="Grupo 1118916" transform="translate(6.165 13.451)">
              <path id="Trazado_969227" data-name="Trazado 969227" d="M264.347,180.48a1.949,1.949,0,1,1,1.9,2A1.949,1.949,0,0,1,264.347,180.48Z" transform="translate(-264.062 -178.294)" fill="#fff"/>
              <path id="Trazado_969228" data-name="Trazado 969228" d="M266.079,182.542h-.055a2.237,2.237,0,1,1,.055,0Zm0-3.9a1.674,1.674,0,1,0,.041,0Z" transform="translate(-263.845 -178.076)" fill="#407bff"/>
            </g>
            <path id="Trazado_969229" data-name="Trazado 969229" d="M254.412,171.119a.212.212,0,0,1-.211-.189l-.653-5.886a.221.221,0,0,1,.007-.082l2.239-7.869a.212.212,0,1,1,.408.116l-2.228,7.829.648,5.845a.212.212,0,0,1-.187.234Z" transform="translate(-253.212 -155.453)" fill="#263238"/>
            <path id="Trazado_969230" data-name="Trazado 969230" d="M261.609,177.382a.211.211,0,0,1-.13-.045l-7.85-6.117a.212.212,0,0,1,.261-.335L261.74,177a.212.212,0,0,1-.131.38Z" transform="translate(-253.212 -161.485)" fill="#263238"/>
            <path id="Trazado_969231" data-name="Trazado 969231" d="M254.879,155.97a1.7,1.7,0,1,1,1.656,1.739A1.7,1.7,0,0,1,254.879,155.97Z" transform="translate(-253.789 -154.313)" fill="#407bff"/>
            <path id="Trazado_969232" data-name="Trazado 969232" d="M252.955,180.663a1.2,1.2,0,1,1,1.172,1.229A1.2,1.2,0,0,1,252.955,180.663Z" transform="translate(-252.954 -165.239)" fill="#263238"/>
          </g>
          <g id="Grupo_1118918" data-name="Grupo 1118918" transform="translate(74.16 9.649)">
            <path id="Trazado_969233" data-name="Trazado 969233" d="M331.75,97.168a18.138,18.138,0,1,0-32.2,5.593,7.277,7.277,0,0,1,1.272,2.936h0a6.986,6.986,0,0,0,4.967,5.488l5.769,1.64a6.986,6.986,0,0,0,7.111-2.055l0,0a7.164,7.164,0,0,1,2.594-1.813A18.1,18.1,0,0,0,331.75,97.168Z" transform="translate(-296.161 -74.071)" fill="#407bff" opacity="0.4"/>
            <path id="Trazado_969234" data-name="Trazado 969234" d="M316.635,146.368l-9.472-2.693a1.353,1.353,0,0,1-.928-1.666h0a1.352,1.352,0,0,1,1.666-.928l9.472,2.693a1.353,1.353,0,0,1,.928,1.666h0A1.352,1.352,0,0,1,316.635,146.368Z" transform="translate(-300.51 -103.127)" fill="#407bff"/>
            <path id="Trazado_969235" data-name="Trazado 969235" d="M314.529,152.959,306.9,150.79a1.353,1.353,0,0,1-.928-1.666h0a1.353,1.353,0,0,1,1.666-.928l7.632,2.169a1.353,1.353,0,0,1,.928,1.666h0A1.352,1.352,0,0,1,314.529,152.959Z" transform="translate(-300.395 -106.215)" fill="#407bff"/>
            <path id="Trazado_969236" data-name="Trazado 969236" d="M317.35,121.583a.268.268,0,0,1-.047,0,.283.283,0,0,1-.233-.325,80.661,80.661,0,0,1,4.377-15.821c-.782-.147-1.626-.345-2.534-.6s-1.729-.533-2.471-.82a80.689,80.689,0,0,1-4.6,15.757.283.283,0,0,1-.524-.215,82.652,82.652,0,0,0,4.58-15.761c-5.5-2.287-6.315-5.234-6.389-6.521a3.45,3.45,0,0,1,2.011-3.446,3.349,3.349,0,0,1,3.832,1.148c1.494,1.686,1.647,4.894,1.171,8.458.756.3,1.6.586,2.544.854s1.813.469,2.614.612c1.471-3.281,3.288-5.931,5.445-6.578a3.351,3.351,0,0,1,3.863,1.04,3.45,3.45,0,0,1-.1,3.988c-.74,1.056-2.985,3.13-8.863,2.185a82.688,82.688,0,0,0-4.4,15.813A.284.284,0,0,1,317.35,121.583Zm4.911-16.589c5.633.852,7.637-1.22,8.163-1.97a2.884,2.884,0,0,0,.106-3.332,2.81,2.81,0,0,0-3.241-.829C325.334,99.449,323.651,101.906,322.261,104.994ZM312.633,94.17a2.343,2.343,0,0,0-.895.178,2.886,2.886,0,0,0-1.662,2.89c.053.915.666,3.733,5.906,5.97.443-3.357.3-6.331-1.051-7.86A3.137,3.137,0,0,0,312.633,94.17Z" transform="translate(-301.951 -82.546)" fill="#fff"/>
          </g>
          <path id="Trazado_969237" data-name="Trazado 969237" d="M352.084,167.585l4.261,9.64a1.081,1.081,0,0,1-.55,1.421h0a1.081,1.081,0,0,1-1.421-.55l-4.261-9.64a1.081,1.081,0,0,1,.55-1.421h0A1.081,1.081,0,0,1,352.084,167.585Z" transform="translate(-245.374 -104.723)" fill="#407bff"/>
          <path id="Trazado_969238" data-name="Trazado 969238" d="M304.081,265.379l14.541-1.017a.656.656,0,0,1,.7.607h0a.657.657,0,0,1-.607.7l-14.541,1.017a.656.656,0,0,1-.7-.607h0A.656.656,0,0,1,304.081,265.379Z" transform="translate(-225.174 -146.997)" fill="#263238"/>
          <path id="Trazado_969239" data-name="Trazado 969239" d="M259.465,125.175l14.029,3.96a.656.656,0,0,1,.452.808h0a.657.657,0,0,1-.808.452l-14.029-3.96a.656.656,0,0,1-.452-.808h0A.657.657,0,0,1,259.465,125.175Z" transform="translate(-205.716 -86.588)" fill="#263238"/>
          <path id="Trazado_969240" data-name="Trazado 969240" d="M234.916,109.733l-7.365,4.695a.9.9,0,0,1-1.233-.273h0a.9.9,0,0,1,.273-1.233l7.365-4.695a.9.9,0,0,1,1.233.273h0A.9.9,0,0,1,234.916,109.733Z" transform="translate(-191.633 -79.184)" fill="#407bff"/>
          <g id="Grupo_1118919" data-name="Grupo 1118919" transform="translate(61.898 71.773)">
            <path id="Trazado_969241" data-name="Trazado 969241" d="M310.5,199.742a1.183,1.183,0,0,0-.308-1.33l-17.109-13.693a.627.627,0,0,0-1.012.273l-5.453,12.431-10.892,8.186a.634.634,0,0,0-.038,1.053L292.8,220.355a1.167,1.167,0,0,0,1.359,0l10.892-8.186Z" transform="translate(-274.9 -184.141)" fill="#407bff"/>
            <path id="Trazado_969242" data-name="Trazado 969242" d="M312.7,211.432l-18.43-14.75,5.453-12.431a.627.627,0,0,1,1.012-.273l17.109,13.693a1.183,1.183,0,0,1,.309,1.33Z" transform="translate(-283.079 -183.819)" fill="#407bff"/>
            <path id="Trazado_969243" data-name="Trazado 969243" d="M313.249,210.77a.141.141,0,0,1-.088-.031L296.625,197.5h0a.406.406,0,0,1-.092-.426l4.807-10.957a.141.141,0,0,1,.1-.08.144.144,0,0,1,.122.027L318.094,199.3a.406.406,0,0,1,.092.426l-4.807,10.957a.144.144,0,0,1-.13.085Zm-16.441-13.482L313.194,210.4l4.733-10.789a.165.165,0,0,0-.018-.1L301.526,186.4l-4.733,10.789A.164.164,0,0,0,296.808,197.288Zm0,0Z" transform="translate(-284.05 -184.782)" fill="#fff"/>
            <path id="Trazado_969244" data-name="Trazado 969244" d="M304.121,221.293l-18.43-14.75L274.8,214.729a.634.634,0,0,0-.038,1.053l17.109,13.693a1.165,1.165,0,0,0,1.358,0Z" transform="translate(-274.499 -193.68)" fill="#407bff"/>
            <path id="Trazado_969245" data-name="Trazado 969245" d="M284.755,214.309l4.417-3.32a1.262,1.262,0,0,1,1.47,0l14.429,11.548a.686.686,0,0,1-.041,1.139L300.613,227a1.262,1.262,0,0,1-1.469,0l-14.429-11.548A.686.686,0,0,1,284.755,214.309Z" transform="translate(-278.808 -195.508)" fill="#fff" opacity="0.3"/>
            <path id="Trazado_969246" data-name="Trazado 969246" d="M286.292,227.346l2.226-1.673a.569.569,0,0,1,.662,0l5.928,4.744a.309.309,0,0,1-.019.513l-2.226,1.673a.569.569,0,0,1-.662,0l-5.928-4.744A.309.309,0,0,1,286.292,227.346Z" transform="translate(-279.553 -201.936)" fill="#fff" opacity="0.3"/>
          </g>
          <path id="Trazado_969247" data-name="Trazado 969247" d="M308.771,168.812a.212.212,0,0,1-.055-.417l9.739-2.617a.212.212,0,1,1,.11.41l-9.739,2.617A.218.218,0,0,1,308.771,168.812Z" transform="translate(-227.381 -104.214)" fill="#263238"/>
          <path id="Trazado_969248" data-name="Trazado 969248" d="M324.957,165.946a.722.722,0,1,1,.983.273A.721.721,0,0,1,324.957,165.946Z" transform="translate(-234.456 -103.823)" fill="#407bff"/>
          <path id="Trazado_969249" data-name="Trazado 969249" d="M307.752,170.57a.722.722,0,1,1,.983.273A.722.722,0,0,1,307.752,170.57Z" transform="translate(-226.991 -105.83)" fill="#407bff"/>
        </g>
      </g>
      <g id="Character_1_" transform="translate(53.122 77.174)">
        <g id="Grupo_1118930" data-name="Grupo 1118930" transform="translate(0 0)">
          <ellipse id="Elipse_13671" data-name="Elipse 13671" cx="26.999" cy="53.037" rx="26.999" ry="53.037" transform="translate(0 24.013) rotate(-26.404)" fill="#407bff" opacity="0.3"/>
          <g id="Grupo_1118927" data-name="Grupo 1118927" transform="translate(5.331 21.084)">
            <path id="Trazado_969250" data-name="Trazado 969250" d="M157.724,401.158l4.187-.066.962-9.715-4.188.066Z" transform="translate(-126.896 -244.247)" fill="#b55b52"/>
            <path id="Trazado_969251" data-name="Trazado 969251" d="M108,388.448l3.992,1.265,4.5-8.747L112.5,379.7Z" transform="translate(-105.317 -239.18)" fill="#b55b52"/>
            <path id="Trazado_969252" data-name="Trazado 969252" d="M163.228,391.383l-.5,5.007-4.189.066.495-5.007Z" transform="translate(-127.252 -244.25)" opacity="0.2"/>
            <path id="Trazado_969253" data-name="Trazado 969253" d="M114.165,379.7l3.994,1.266-2.323,4.508-3.994-1.266Z" transform="translate(-106.986 -239.182)" opacity="0.2"/>
            <path id="Trazado_969254" data-name="Trazado 969254" d="M163.253,331.352l-7.09.108s2.8-27.549,3.717-40.567a136.945,136.945,0,0,0-.182-15.588c-.421-7.593-.7-10.635-1.267-20.237-.407-6.846-.905-11.279-.905-11.279L172.2,245s.577,33.235-1.087,45.908C169.385,304.081,163.253,331.352,163.253,331.352Z" transform="translate(-126.219 -180.203)" fill="#407bff"/>
            <path id="Trazado_969255" data-name="Trazado 969255" d="M163.275,260.048c1.838,6.842.054,22.14-1.67,26.3-.054-1.3-.121-2.632-.194-3.986-.423-7.6-.7-10.636-1.27-20.237-.008-.19-.023-.376-.032-.561A10.159,10.159,0,0,1,163.275,260.048Z" transform="translate(-127.931 -187.258)" opacity="0.2"/>
            <path id="Trazado_969256" data-name="Trazado 969256" d="M144.152,243.865S137.364,278.01,133.97,289.8c-3.716,12.914-16.887,35.882-16.887,35.882l-7.312-2.317s8.423-19.443,11.532-32.171c3.541-14.5,8.443-48.513,8.443-48.513Z" transform="translate(-106.088 -179.723)" fill="#407bff"/>
            <path id="Trazado_969257" data-name="Trazado 969257" d="M110.787,395.208l-4.621-2.17a.365.365,0,0,0-.444.108l-2.331,3.018a.616.616,0,0,0,.238.935c1.5.673,2.625,1.1,4.5,1.974,1.152.541,3.825,1.913,5.415,2.66,1.556.731,2.51-.695,1.953-1.177-2.5-2.162-3.662-3.546-4.2-4.825A1.018,1.018,0,0,0,110.787,395.208Z" transform="translate(-103.264 -244.952)" fill="#263238"/>
            <path id="Trazado_969258" data-name="Trazado 969258" d="M160.681,407.684l-4.573.072a.366.366,0,0,0-.352.292l-.769,3.735a.609.609,0,0,0,.614.735c1.649-.054,4.031-.188,6.1-.22,2.424-.038,2.7.061,5.545.017,1.719-.027,2.169-1.772,1.447-1.918-3.287-.665-4.145-.7-7-2.4A1.938,1.938,0,0,0,160.681,407.684Z" transform="translate(-125.704 -251.323)" fill="#263238"/>
            <path id="Trazado_969259" data-name="Trazado 969259" d="M147.916,177.285a72.4,72.4,0,0,1,15.77.562,6.938,6.938,0,0,1,5.832,6.4c.354,5.52.229,16.362-2.368,36.709-3.227,1.412-17.312.047-24.226-2.127.37-2.327,2.564-21.092.956-36.777A4.353,4.353,0,0,1,147.916,177.285Z" transform="translate(-120.474 -151.262)" fill="#263238"/>
            <g id="Grupo_1118921" data-name="Grupo 1118921" transform="translate(18.122 29.381)">
              <path id="Trazado_969260" data-name="Trazado 969260" d="M145.754,187.522l-.856,1.762c-.288.6-.564,1.217-.832,1.832-.543,1.228-1.048,2.47-1.53,3.713s-.893,2.5-1.275,3.755a37.2,37.2,0,0,0-.885,3.756l-.564-1.93a4.319,4.319,0,0,0,1.875,1.412,10.633,10.633,0,0,0,2.971.717,22.563,22.563,0,0,0,3.413.1,34.171,34.171,0,0,0,3.5-.315l.085-.011a1.408,1.408,0,0,1,.739,2.691,19.61,19.61,0,0,1-1.893.7c-.631.2-1.269.386-1.919.537a21.753,21.753,0,0,1-4.043.566,13.9,13.9,0,0,1-4.382-.489,8.951,8.951,0,0,1-4.289-2.651,2.364,2.364,0,0,1-.578-1.785l.014-.145a34.348,34.348,0,0,1,.73-4.5c.343-1.457.747-2.889,1.223-4.283s1-2.765,1.58-4.11c.294-.67.6-1.336.914-2s.636-1.3,1.025-2a2.829,2.829,0,0,1,5.029,2.591Z" transform="translate(-135.279 -183.362)" fill="#b55b52"/>
            </g>
            <path id="Trazado_969261" data-name="Trazado 969261" d="M161.587,215.4l2.257-2.542,3.707,3.388s-2.521,2.8-5.193,1.33Z" transform="translate(-128.573 -166.782)" fill="#b55b52"/>
            <path id="Trazado_969262" data-name="Trazado 969262" d="M169.28,210.84l1.486,1.557a1.237,1.237,0,0,1-.169,1.857l-1.316.953-3.707-3.388,2.219-1.21A1.235,1.235,0,0,1,169.28,210.84Z" transform="translate(-130.303 -165.739)" fill="#b55b52"/>
            <path id="Trazado_969263" data-name="Trazado 969263" d="M142.969,178.155c-3.417,2.088-6.8,13.137-6.8,13.137l8.947,3.287a30.209,30.209,0,0,0,3.686-8.472C150.156,180.965,146.719,175.864,142.969,178.155Z" transform="translate(-117.541 -151.477)" fill="#263238"/>
            <g id="Grupo_1118923" data-name="Grupo 1118923" transform="translate(40.561 6.976)">
              <g id="Grupo_1118922" data-name="Grupo 1118922" transform="translate(0 5.151)">
                <path id="Trazado_969264" data-name="Trazado 969264" d="M179.036,167.6c-.074-.019.1.008.186.014l.344.027c.247.013.5.032.765.035.524.014,1.074.011,1.626-.007,1.111-.035,2.251-.155,3.4-.295q.861-.107,1.726-.264c.579-.08,1.156-.212,1.737-.318l1.739-.383,1.742-.434-2.094,2.547a15.246,15.246,0,0,0,.211-3.1,26.521,26.521,0,0,0-.332-3.364c-.178-1.144-.422-2.3-.707-3.459s-.627-2.347-.954-3.436l-.032-.105A1.695,1.695,0,0,1,191.4,153.6a27.524,27.524,0,0,1,2.058,3.471,31.059,31.059,0,0,1,1.577,3.721,25.375,25.375,0,0,1,1.039,4.042,18.344,18.344,0,0,1,.22,4.428,2.874,2.874,0,0,1-1.888,2.474l-.206.074-1.889.68c-.64.208-1.28.41-1.93.6a38.661,38.661,0,0,1-3.977.936,31.971,31.971,0,0,1-4.153.494c-.713.025-1.429.048-2.17.01-.367-.014-.747-.04-1.13-.077l-.6-.076c-.229-.035-.367-.051-.752-.132a3.4,3.4,0,1,1,1.438-6.639Z" transform="translate(-174.92 -152.882)" fill="#b55b52"/>
              </g>
              <path id="Trazado_969265" data-name="Trazado 969265" d="M196.467,153.526l-1.648-2.766,4.814-1.416a6.964,6.964,0,0,1,.566,3.741,1.548,1.548,0,0,1-1.317,1.1l-.86.106A1.584,1.584,0,0,1,196.467,153.526Z" transform="translate(-183.555 -146.195)" fill="#b55b52"/>
              <path id="Trazado_969266" data-name="Trazado 969266" d="M195.76,143.945l1.33-.152a1.678,1.678,0,0,1,1.814,1.245l.492,1.893-4.814,1.416-.3-2.54A1.677,1.677,0,0,1,195.76,143.945Z" transform="translate(-183.318 -143.782)" fill="#b55b52"/>
            </g>
            <path id="Trazado_969267" data-name="Trazado 969267" d="M171.521,176.6c3.989.345,12.576-.646,12.576-.646l.5,10.828a16.214,16.214,0,0,1-9.068.283C170.376,185.748,167.143,176.223,171.521,176.6Z" transform="translate(-131.993 -150.767)" fill="#263238"/>
            <path id="Trazado_969268" data-name="Trazado 969268" d="M160.309,158.375c.462,3.088.807,8.723-1.426,10.668,1.589,1.729,3.9,3.97,7.524,4.262,2.307-1.014,2.888-2.469,1.988-3.832-3.376-.969-3.173-3.5-2.471-5.849Z" transform="translate(-127.399 -143.138)" fill="#b55b52"/>
            <path id="Trazado_969269" data-name="Trazado 969269" d="M165.326,162.159l3.323,3.1a9.839,9.839,0,0,0-.37,1.675c-1.3-.247-3.022-1.76-3.1-3.131A4.6,4.6,0,0,1,165.326,162.159Z" transform="translate(-130.127 -144.78)" opacity="0.2"/>
            <path id="Trazado_969270" data-name="Trazado 969270" d="M172.79,139.971c4.236,2.821.612,7.369.612,7.369S171.3,143.632,172.79,139.971Z" transform="translate(-133.203 -135.152)" fill="#fff"/>
            <path id="Trazado_969271" data-name="Trazado 969271" d="M157.313,147.085c1.008,4.033,1.393,6.443,3.841,8.155,3.683,2.574,8.371-.229,8.589-4.481.2-3.827-1.485-9.779-5.779-10.661A5.669,5.669,0,0,0,157.313,147.085Z" transform="translate(-126.641 -135.153)" fill="#b55b52"/>
            <path id="Trazado_969272" data-name="Trazado 969272" d="M167.969,152.226a2.322,2.322,0,0,0-1.685.554A4.592,4.592,0,0,0,167.969,152.226Z" transform="translate(-130.611 -140.467)" opacity="0.2"/>
            <path id="Trazado_969273" data-name="Trazado 969273" d="M168.409,152.954a1.914,1.914,0,0,0-1.354.867A3.783,3.783,0,0,0,168.409,152.954Z" transform="translate(-130.946 -140.785)" opacity="0.2"/>
            <path id="Trazado_969274" data-name="Trazado 969274" d="M168.947,157.56a.665.665,0,0,0-.912.5A2.171,2.171,0,0,1,168.947,157.56Z" transform="translate(-131.371 -142.764)" opacity="0.2"/>
            <path id="Trazado_969275" data-name="Trazado 969275" d="M170.574,144.616a23.813,23.813,0,0,0-4.321.857C168.682,145.073,170.574,144.616,170.574,144.616Z" transform="translate(-130.598 -137.167)" opacity="0.2"/>
            <path id="Trazado_969276" data-name="Trazado 969276" d="M171.533,145.115a23.364,23.364,0,0,0-4.746,1.479A43.26,43.26,0,0,0,171.533,145.115Z" transform="translate(-130.829 -137.384)" opacity="0.2"/>
            <path id="Trazado_969277" data-name="Trazado 969277" d="M156.013,146.206c1.674-.172.944-2.766.283-3.356,1.321-.59,2.43-2.783,1.51-3.986,4.882.378,7.672-.142,8.047-4.552-1.4.283-2.868-1.108-4.749.188a2.216,2.216,0,0,0-1.1-3.043s-.307,2.854-2.453,3.255-4.411,1.934-4.552,3.514c-.511-1.305-1.038-1.391-1.038-1.391a3.568,3.568,0,0,1,0,3.147c-.8,1.806.566,2.4.566,2.4s-1.753,0-.653,2.368C152.657,146.447,155.635,148.572,156.013,146.206Z" transform="translate(-124.199 -131.457)" fill="#fff"/>
            <path id="Trazado_969278" data-name="Trazado 969278" d="M155.279,157.2a3.714,3.714,0,0,0,2.329,1.615c1.274.267,1.825-.894,1.4-2.051-.383-1.042-1.508-2.435-2.752-2.182A1.667,1.667,0,0,0,155.279,157.2Z" transform="translate(-125.703 -141.481)" fill="#b55b52"/>
            <g id="Grupo_1118924" data-name="Grupo 1118924" transform="translate(3.211 141.096)">
              <path id="Trazado_969279" data-name="Trazado 969279" d="M117.547,386.018l-8.61-2.729.815-2.572,9.677,2.156Z" transform="translate(-108.937 -380.717)" fill="#407bff"/>
              <path id="Trazado_969280" data-name="Trazado 969280" d="M117.547,386.018l-8.61-2.729.815-2.572,9.677,2.156Z" transform="translate(-108.937 -380.717)" opacity="0.3"/>
            </g>
            <g id="Grupo_1118925" data-name="Grupo 1118925" transform="translate(29.436 148.411)">
              <path id="Trazado_969281" data-name="Trazado 969281" d="M163.757,396.529l-8.45.132-.042-2.73,9.039-.292Z" transform="translate(-155.265 -393.64)" fill="#407bff"/>
              <path id="Trazado_969282" data-name="Trazado 969282" d="M163.757,396.529l-8.45.132-.042-2.73,9.039-.292Z" transform="translate(-155.265 -393.64)" opacity="0.3"/>
            </g>
            <path id="Trazado_969283" data-name="Trazado 969283" d="M169.863,151.8c.05.334.267.579.486.546s.355-.329.306-.664-.267-.579-.486-.546S169.813,151.463,169.863,151.8Z" transform="translate(-132.16 -139.994)" fill="#263238"/>
            <path id="Trazado_969284" data-name="Trazado 969284" d="M176.535,150.8c.05.334.267.579.486.546s.355-.33.305-.664-.267-.579-.486-.546S176.485,150.47,176.535,150.8Z" transform="translate(-135.055 -139.563)" fill="#263238"/>
            <path id="Trazado_969285" data-name="Trazado 969285" d="M174.465,151.924a12.093,12.093,0,0,0,2.021,2.62,1.947,1.947,0,0,1-1.552.537Z" transform="translate(-134.161 -140.338)" fill="#a02724"/>
            <path id="Trazado_969286" data-name="Trazado 969286" d="M171.468,159.222a2.785,2.785,0,0,1-2.138-.544.1.1,0,0,1,.13-.15,2.683,2.683,0,0,0,2.384.41.1.1,0,1,1,.054.191A3.131,3.131,0,0,1,171.468,159.222Z" transform="translate(-131.918 -143.194)" fill="#263238"/>
            <path id="Trazado_969287" data-name="Trazado 969287" d="M166.15,149.7a.2.2,0,0,1-.187-.287,1.968,1.968,0,0,1,1.438-1.1.2.2,0,0,1,.046.395h0a1.572,1.572,0,0,0-1.129.884A.2.2,0,0,1,166.15,149.7Z" transform="translate(-130.463 -138.769)" fill="#fff"/>
            <path id="Trazado_969288" data-name="Trazado 969288" d="M176.559,147.594a.2.2,0,0,1-.17-.08,1.573,1.573,0,0,0-1.264-.678.2.2,0,0,1-.022-.4,1.97,1.97,0,0,1,1.605.838.2.2,0,0,1-.042.277A.192.192,0,0,1,176.559,147.594Z" transform="translate(-134.357 -137.959)" fill="#fff"/>
            <g id="Grupo_1118926" data-name="Grupo 1118926" transform="translate(7.501 149.51)">
              <path id="Trazado_969289" data-name="Trazado 969289" d="M117.479,398.468a4.925,4.925,0,0,1-.928-.6.1.1,0,0,1-.033-.1.1.1,0,0,1,.084-.071c.178-.022,1.754-.2,2.072.214a.315.315,0,0,1,.035.326.6.6,0,0,1-.409.387A1.267,1.267,0,0,1,117.479,398.468Zm-.608-.606a2.023,2.023,0,0,0,1.378.564.406.406,0,0,0,.275-.268.12.12,0,0,0-.007-.132C118.352,397.811,117.5,397.808,116.871,397.862Z" transform="translate(-116.514 -396.472)" fill="#407bff"/>
              <path id="Trazado_969290" data-name="Trazado 969290" d="M116.571,396.988a.1.1,0,0,1-.042-.037.1.1,0,0,1,0-.1c.025-.045.629-1.1,1.239-1.249a.544.544,0,0,1,.436.064h0a.324.324,0,0,1,.175.37c-.118.46-1.267.935-1.759.963A.105.105,0,0,1,116.571,396.988Zm1.487-1.177a.352.352,0,0,0-.243-.018c-.391.1-.811.679-1.005.978.529-.113,1.307-.513,1.377-.786.006-.025.022-.083-.088-.152h0A.387.387,0,0,0,118.058,395.811Z" transform="translate(-116.514 -395.581)" fill="#407bff"/>
              <path id="Trazado_969291" data-name="Trazado 969291" d="M165.748,407.974a.1.1,0,0,1-.067-.079.1.1,0,0,1,.051-.1c.188-.1,1.859-.981,2.372-.705a.315.315,0,0,1,.168.262h0a.555.555,0,0,1-.178.485c-.453.414-1.656.268-2.332.144Zm2.226-.728a4.118,4.118,0,0,0-1.884.585,2.685,2.685,0,0,0,1.87-.144.361.361,0,0,0,.114-.321.117.117,0,0,0-.064-.1Z" transform="translate(-137.849 -400.551)" fill="#407bff"/>
              <path id="Trazado_969292" data-name="Trazado 969292" d="M165.748,407.233a.106.106,0,0,1-.025-.012.1.1,0,0,1-.042-.089,2.831,2.831,0,0,1,.625-1.623.728.728,0,0,1,.547-.179h0c.273.023.354.16.374.271.084.473-.9,1.394-1.4,1.628A.1.1,0,0,1,165.748,407.233Zm1.189-1.687a.435.435,0,0,0-.1-.019h0a.525.525,0,0,0-.4.132,2.329,2.329,0,0,0-.533,1.3c.511-.318,1.18-1.04,1.13-1.324C167.027,405.618,167.019,405.573,166.936,405.546Zm-.093-.118h0Z" transform="translate(-137.849 -399.81)" fill="#407bff"/>
            </g>
          </g>
          <path id="Trazado_969293" data-name="Trazado 969293" d="M101.4,140.758a55.854,55.854,0,0,1,.914-17.984l.551.128a55.31,55.31,0,0,0-.9,17.8Zm2.824-22.428-.531-.2a32.976,32.976,0,0,1,1.845-4.126l.5.267A32.323,32.323,0,0,0,104.221,118.33Z" transform="translate(-96.982 -102.801)" fill="#407bff"/>
          <g id="Grupo_1118928" data-name="Grupo 1118928" transform="translate(5.862 0.534)">
            <path id="Trazado_969294" data-name="Trazado 969294" d="M122.911,96.071c18.835-3.763,44.269,17.853,56.815,48.281s7.444,58.144-11.385,61.905-44.269-17.853-56.815-48.281S104.083,99.832,122.911,96.071ZM121.426,156c11.088,26.9,32.24,46.267,47.247,43.269s18.182-27.229,7.094-54.124-32.24-46.267-47.247-43.269S110.338,129.1,121.426,156ZM106.32,141.357c1.18-2.066,8.146-4.817,9.687-3.281m60.548,56.644c1.773-.214,3.518,4.055,2.335,5.633M150.3,109.473a4.124,4.124,0,0,0,2.375-2.917" transform="translate(-104.396 -95.367)" fill="#fff"/>
            <path id="Trazado_969295" data-name="Trazado 969295" d="M163.78,206.749c-18.327,0-41.091-20.7-52.71-48.878-8.08-19.6-9.107-39.232-2.681-51.243,3.212-6,8.147-9.824,14.272-11.047h0c18.929-3.782,44.558,17.954,57.132,48.451,8.078,19.6,9.1,39.239,2.677,51.248a24.006,24.006,0,0,1-3.536,5.014l-.012.017,0,0a19.661,19.661,0,0,1-10.718,6.014A22.566,22.566,0,0,1,163.78,206.749ZM106.442,141.17a95.446,95.446,0,0,0,5.152,16.485c12.477,30.259,37.821,51.838,56.5,48.112a19.113,19.113,0,0,0,10.408-5.839c.592-.865.232-2.654-.455-3.842-.477-.825-1.052-1.3-1.557-1.3h0a14.411,14.411,0,0,1-7.953,4.55c-15.106,3.024-36.445-16.468-47.564-43.438a92.753,92.753,0,0,1-5.419-17.885,2.918,2.918,0,0,0-2.076-.249C110.869,138.109,107.345,139.832,106.442,141.17Zm15.05,14.507c11.021,26.733,32.075,46.071,46.93,43.1,4.372-.873,7.783-3.548,10.138-7.949,5.444-10.175,4.2-27.721-3.25-45.79-11.021-26.733-32.072-46.065-46.93-43.1-4.374.873-7.786,3.549-10.141,7.95C112.8,120.061,114.043,137.606,121.492,155.677Zm55.43,38.605a3.11,3.11,0,0,1,1.613,1.52,6.046,6.046,0,0,1,.826,3.139,24.1,24.1,0,0,0,2.611-3.93c6.348-11.863,5.314-31.315-2.7-50.765-6.381-15.475-16.129-28.682-26.628-37.393a4.774,4.774,0,0,1-2.01,2.5c9.676,7.786,19.018,20.469,25.2,35.469,7.512,18.221,8.748,35.952,3.226,46.272A18.693,18.693,0,0,1,176.922,194.282Zm-54.15-98.147c-5.953,1.189-10.754,4.909-13.884,10.759-4.455,8.327-5.274,20.389-2.594,33.564,1.379-1.469,4.786-2.948,7.105-3.261a4.348,4.348,0,0,1,2.02.1c-2-11.095-1.274-20.958,2.321-27.677a15.236,15.236,0,0,1,10.529-8.238c6.562-1.309,14.3,1.623,21.863,7.572a4,4,0,0,0,2.037-2.491c-9.894-8.064-20.417-12.125-29.4-10.329Z" transform="translate(-104.201 -95.153)" fill="#407bff"/>
          </g>
          <g id="Grupo_1118929" data-name="Grupo 1118929" transform="translate(49.286 25.442)">
            <path id="Trazado_969296" data-name="Trazado 969296" d="M181.857,149.395l17.64-1.821-.418-3.2-17.516,2.762Z" transform="translate(-181.196 -141.42)" fill="#407bff"/>
            <path id="Trazado_969297" data-name="Trazado 969297" d="M199.565,145.528l.366,2.808,7.375-.762-.417-3.2Z" transform="translate(-189.008 -141.42)" opacity="0.2"/>
            <path id="Trazado_969298" data-name="Trazado 969298" d="M201.615,145.906a.541.541,0,0,0,.587.469l20.467-1.891c.812-.106.118-5.432-.695-5.326l-20.268,3.419a.542.542,0,0,0-.447.6Z" transform="translate(-189.741 -139.156)" fill="#407bff"/>
            <path id="Trazado_969299" data-name="Trazado 969299" d="M181.637,151.62h0a.352.352,0,0,0,.3-.393l-.326-2.5a.352.352,0,0,0-.393-.3h0a.352.352,0,0,0-.3.393l.326,2.5A.352.352,0,0,0,181.637,151.62Z" transform="translate(-180.915 -143.175)" fill="#407bff"/>
          </g>
        </g>
      </g>
      <g id="Plant" transform="translate(158.746 190.552)">
        <g id="Grupo_1118933" data-name="Grupo 1118933">
          <g id="Grupo_1118931" data-name="Grupo 1118931" transform="translate(0 5.766)">
            <path id="Trazado_969300" data-name="Trazado 969300" d="M308.359,304.985a.59.59,0,0,1,1.1.275,9.833,9.833,0,0,1-1.144,5.118,10.426,10.426,0,0,1-5.507,4.166Z" transform="translate(-290.147 -304.689)" fill="#407bff"/>
            <path id="Trazado_969301" data-name="Trazado 969301" d="M294.065,326.136a14.307,14.307,0,0,1-8.746-2.838,17.948,17.948,0,0,1-4.816-6.318.591.591,0,0,1,.894-.725Z" transform="translate(-280.441 -309.652)" fill="#407bff"/>
            <path id="Trazado_969302" data-name="Trazado 969302" d="M316.123,338.627c-3.277,4.826-9.509,6.179-9.509,6.179l10.9-16.054a.59.59,0,0,1,1.08.314A16.914,16.914,0,0,1,316.123,338.627Z" transform="translate(-291.799 -315.018)" fill="#407bff"/>
          </g>
          <path id="Trazado_969303" data-name="Trazado 969303" d="M302.287,351.8a.193.193,0,0,1-.036,0,.256.256,0,0,1-.218-.29c1.712-12.024-1.406-44.1-5.054-52a.256.256,0,1,1,.465-.215c3.673,7.953,6.816,40.2,5.1,52.286A.255.255,0,0,1,302.287,351.8Z" transform="translate(-287.607 -296.518)" fill="#263238"/>
          <path id="Trazado_969304" data-name="Trazado 969304" d="M292.84,367.024h14.209a1.283,1.283,0,0,1,1.279,1.384l-2.012,25.387a1.283,1.283,0,0,1-1.279,1.181H294.852a1.283,1.283,0,0,1-1.279-1.181l-2.012-25.387A1.283,1.283,0,0,1,292.84,367.024Z" transform="translate(-285.265 -325.973)" fill="#407bff"/>
          <g id="Grupo_1118932" data-name="Grupo 1118932" transform="translate(6.72)">
            <path id="Trazado_969305" data-name="Trazado 969305" d="M293.348,299.07a2.544,2.544,0,1,0,.689-3.53A2.543,2.543,0,0,0,293.348,299.07Z" transform="translate(-292.573 -294.765)" fill="#fff"/>
            <path id="Trazado_969306" data-name="Trazado 969306" d="M295.2,300.272a2.884,2.884,0,1,1,1.608-.491A2.883,2.883,0,0,1,295.2,300.272Zm-.007-5.086a2.2,2.2,0,1,0,1.829.971A2.189,2.189,0,0,0,295.194,295.186Z" transform="translate(-292.312 -294.503)" fill="#407bff"/>
          </g>
          <path id="Trazado_969307" data-name="Trazado 969307" d="M297.727,313.976a1.076,1.076,0,1,0,.966-1.175A1.076,1.076,0,0,0,297.727,313.976Z" transform="translate(-287.94 -302.441)" fill="#263238"/>
          <path id="Trazado_969308" data-name="Trazado 969308" d="M302.628,352.65a1.076,1.076,0,1,0,1.075-1.077A1.076,1.076,0,0,0,302.628,352.65Z" transform="translate(-290.069 -319.268)" fill="#263238"/>
          <path id="Trazado_969309" data-name="Trazado 969309" d="M306.815,338.71a1.6,1.6,0,1,0-1.81-1.355A1.6,1.6,0,0,0,306.815,338.71Z" transform="translate(-291.093 -312.306)" fill="#263238"/>
        </g>
      </g>
    </g>
  </g>
</svg>
