<svg xmlns="http://www.w3.org/2000/svg" width="85" height="85" viewBox="0 0 85 85">
  <g id="Grupo_1118068" data-name="Grupo 1118068" transform="translate(-199.282 -497)">
    <rect id="Rectángulo_412256" data-name="Rectángulo 412256" width="85" height="85" rx="5" transform="translate(199.282 497)" fill="#8bc34a"/>
    <g id="Grupo_1121457" data-name="Grupo 1121457" transform="translate(210.282 508)">
      <g id="Grupo_1121455" data-name="Grupo 1121455">
        <g id="Grupo_1121442" data-name="Grupo 1121442">
          <path id="Trazado_974542" data-name="Trazado 974542" d="M10,40H4V32.39A7.955,7.955,0,0,1,9,25l1.22.2A11.752,11.752,0,0,1,15,27.15v.01a11.494,11.494,0,0,1,2.82,2.79A11.667,11.667,0,0,1,20,36.75V40Z" fill="#b4dd7f"/>
        </g>
        <g id="Grupo_1121443" data-name="Grupo 1121443">
          <path id="Trazado_974543" data-name="Trazado 974543" d="M54,40H44V36.75a11.667,11.667,0,0,1,2.18-6.8A11.494,11.494,0,0,1,49,27.16v-.01a11.752,11.752,0,0,1,4.78-1.95L55,25a7.955,7.955,0,0,1,5,7.39V40Z" fill="#fcd770"/>
        </g>
        <g id="Grupo_1121444" data-name="Grupo 1121444">
          <path id="Trazado_974544" data-name="Trazado 974544" d="M61,40H3a1,1,0,0,0-1,1V51.59a.916.916,0,0,0,.11.43l10.81,2.34a9.474,9.474,0,0,0-1,4.24v3.26a.958.958,0,0,0,.49.14H61a1,1,0,0,0,1-1V41a1,1,0,0,0-1-1Z" fill="#e6e9ed"/>
        </g>
        <g id="Grupo_1121445" data-name="Grupo 1121445">
          <path id="Trazado_974545" data-name="Trazado 974545" d="M2.11,52.02l10.81,2.34a9.474,9.474,0,0,0-1,4.24v3.26a.8.8,0,0,1-.21-.15L2.29,52.29a.8.8,0,0,1-.18-.27Z" fill="#ff826e"/>
        </g>
        <g id="Grupo_1121446" data-name="Grupo 1121446">
          <path id="Trazado_974546" data-name="Trazado 974546" d="M44.32,9.08a17.98,17.98,0,0,0-1.04,2.2L41.24,9.24a4.243,4.243,0,0,1,3-7.24H55.05A4.951,4.951,0,0,1,60,6.95a4.524,4.524,0,0,1-.06.74h.01a8.329,8.329,0,0,1-.87,11.8L54.7,23.22,54,19l1.29-1.29A2.406,2.406,0,0,0,56,16a2.015,2.015,0,0,0-2-2l-.62-2.49A1.992,1.992,0,0,0,51.44,10H46a2,2,0,0,1-1.68-.92Z" fill="#656d78"/>
        </g>
        <g id="Grupo_1121447" data-name="Grupo 1121447">
          <path id="Trazado_974547" data-name="Trazado 974547" d="M11.78,9.56l-.01.01L10,14a2.015,2.015,0,0,0-2,2,2.406,2.406,0,0,0,.71,1.71L10,19l-.7,4.22L4.92,19.49a8.322,8.322,0,0,1-.87-11.8h.01A4.524,4.524,0,0,1,4,6.95,4.955,4.955,0,0,1,8.95,2H21a1,1,0,0,1,1,1V5a4.914,4.914,0,0,1-2.28,4.16v.01a5.49,5.49,0,0,1-2.93.83H13.11a2.169,2.169,0,0,1-1.33-.44Z" fill="#b27946"/>
        </g>
        <g id="Grupo_1121448" data-name="Grupo 1121448">
          <path id="Trazado_974548" data-name="Trazado 974548" d="M38,40v6H32V20h6Z" fill="#b4dd7f"/>
        </g>
        <g id="Grupo_1121449" data-name="Grupo 1121449">
          <path id="Trazado_974549" data-name="Trazado 974549" d="M32,20V46H26V20Z" fill="#ff826e"/>
        </g>
        <g id="Grupo_1121450" data-name="Grupo 1121450">
          <path id="Trazado_974550" data-name="Trazado 974550" d="M38,12v4H26V12a4,4,0,0,1,4-4h4A4,4,0,0,1,38,12Z" fill="#aab2bd"/>
        </g>
        <g id="Grupo_1121451" data-name="Grupo 1121451">
          <path id="Trazado_974551" data-name="Trazado 974551" d="M38,46l-4.55,9.11a1.626,1.626,0,0,1-2.9,0L26,46H38Z" fill="#aab2bd"/>
        </g>
        <g id="Grupo_1121452" data-name="Grupo 1121452">
          <path id="Trazado_974552" data-name="Trazado 974552" d="M38,16v4H26V16Z" fill="#ffeaa7"/>
        </g>
        <g id="Grupo_1121453" data-name="Grupo 1121453">
          <path id="Trazado_974553" data-name="Trazado 974553" d="M55,25l-1.22.2A11.752,11.752,0,0,0,49,27.15V24a5,5,0,0,1-4.9-4,4.712,4.712,0,0,1-.1-1V18H42a18.453,18.453,0,0,1,1.28-6.72,17.98,17.98,0,0,1,1.04-2.2A2,2,0,0,0,46,10h5.44a1.992,1.992,0,0,1,1.94,1.51L54,14a2.015,2.015,0,0,1,2,2,2.406,2.406,0,0,1-.71,1.71L54,19l.7,4.22Z" fill="#f0d0b4"/>
        </g>
        <g id="Grupo_1121454" data-name="Grupo 1121454">
          <path id="Trazado_974554" data-name="Trazado 974554" d="M19.9,20A5,5,0,0,1,15,24v3.15a11.752,11.752,0,0,0-4.78-1.95L9,25l.3-1.78L10,19,8.71,17.71A2.406,2.406,0,0,1,8,16a2.015,2.015,0,0,1,2-2l1.77-4.43.01-.01a2.169,2.169,0,0,0,1.33.44h3.68a5.49,5.49,0,0,0,2.93-.83A18.325,18.325,0,0,1,22,18H20v1A4.712,4.712,0,0,1,19.9,20Z" fill="#f0d0b4"/>
        </g>
      </g>
      <g id="Grupo_1121456" data-name="Grupo 1121456">
        <path id="Trazado_974555" data-name="Trazado 974555" d="M61,39V32.385a8.89,8.89,0,0,0-5.1-8.054l-.119-.715,3.945-3.364A9.3,9.3,0,0,0,60.979,7.38c.01-.143.021-.285.021-.43A5.957,5.957,0,0,0,55.05,1H44.243a5.242,5.242,0,0,0-3.708,8.949l1.593,1.594A19.3,19.3,0,0,0,41,18v1h2a6.01,6.01,0,0,0,5,5.917v1.726a12.736,12.736,0,0,0-5,10.109V39H39V12a5.006,5.006,0,0,0-5-5H30a5.006,5.006,0,0,0-5,5V39H21V36.752a12.64,12.64,0,0,0-2.368-7.387A12.745,12.745,0,0,0,16,26.643V24.917A6.01,6.01,0,0,0,21,19h2V18a19.556,19.556,0,0,0-2-8.559A5.875,5.875,0,0,0,23,5V3a2,2,0,0,0-2-2H8.95A5.957,5.957,0,0,0,3,6.95c0,.145.011.287.021.43A9.3,9.3,0,0,0,4.272,20.252l3.945,3.364-.119.715A8.89,8.89,0,0,0,3,32.385V39a2,2,0,0,0-2,2V51.586A2.011,2.011,0,0,0,1.586,53L11,62.414A1.986,1.986,0,0,0,12.414,63H61a2,2,0,0,0,2-2V41A2,2,0,0,0,61,39ZM41.949,8.534A3.242,3.242,0,0,1,44.243,3H55.05a3.95,3.95,0,0,1,2.793,6.743l-.55.55,1.414,1.414.551-.55a5.984,5.984,0,0,0,.964-1.272A7.308,7.308,0,0,1,58.43,18.73L55.4,21.314l-.329-1.972L56,18.414A3.394,3.394,0,0,0,57,16a3.008,3.008,0,0,0-2.191-2.89l-.459-1.839A3,3,0,0,0,51.438,9H46a1,1,0,0,1,0-2h1V5H46a3,3,0,0,0-3,3,2.969,2.969,0,0,0,.2,1.056c-.08.152-.16.314-.244.487ZM49,23a3.987,3.987,0,0,1-3.444-2h.208a4.594,4.594,0,0,0,4.13-2.553l-1.789-.9A2.6,2.6,0,0,1,45.764,19H45V17H43.029a17.526,17.526,0,0,1,1.61-6.342A2.967,2.967,0,0,0,46,11h5.438a1,1,0,0,1,.97.757L53.219,15H54a1,1,0,0,1,1,1,1.406,1.406,0,0,1-.414,1l-1.657,1.657.92,5.52-.23.038A12.766,12.766,0,0,0,50,25.393V23ZM45,36.752a10.71,10.71,0,0,1,8.949-10.564l.93-.154A6.918,6.918,0,0,1,59,32.385V39H55V35.162a3.385,3.385,0,0,1,2.316-3.214l-.633-1.9A5.379,5.379,0,0,0,53,35.162V39H45ZM34.382,51H29.618l-2-4h8.764Zm-1,2-.829,1.658a.64.64,0,0,1-1.1,0L30.618,53ZM37,19H27V17H37Zm-6,2V45H27V21Zm6,24H33V21h4ZM30,9h4a3,3,0,0,1,3,3v3H27V12A3,3,0,0,1,30,9Zm-9.03,8H19v2h-.764a2.6,2.6,0,0,1-2.341-1.447l-1.789.9A4.6,4.6,0,0,0,18.236,21h.208A3.987,3.987,0,0,1,15,23H14V25.4a12.79,12.79,0,0,0-3.62-1.179l-.229-.038.92-5.521L9.415,17A1.4,1.4,0,0,1,9,16a1,1,0,0,1,1-1h.677l1.642-4.1a3.26,3.26,0,0,0,.787.1h3.683a6.5,6.5,0,0,0,2.5-.492A17.54,17.54,0,0,1,20.97,17ZM5.57,18.73A7.308,7.308,0,0,1,3.778,9.885a5.955,5.955,0,0,0,.965,1.272l.55.55,1.414-1.414-.55-.55A3.95,3.95,0,0,1,8.95,3H21V5a4.066,4.066,0,0,1-4.21,4H13.107a1.079,1.079,0,0,1-1.054-.662,1.018,1.018,0,0,1,.142-.931A.99.99,0,0,1,13,7h1V5H13a3.006,3.006,0,0,0-2.859,3.926A2.776,2.776,0,0,0,10.6,9.8L9.289,13.085A3.006,3.006,0,0,0,7,16a3.393,3.393,0,0,0,1,2.414l.929.929L8.6,21.315ZM5,32.385a6.918,6.918,0,0,1,4.122-6.351l.93.154A10.708,10.708,0,0,1,19,36.752V39H11V35.162a5.379,5.379,0,0,0-3.684-5.11l-.633,1.9A3.385,3.385,0,0,1,9,35.162V39H5ZM10.918,58.6V59.5L5.11,53.7l6.416,1.388A10.516,10.516,0,0,0,10.918,58.6ZM61,61H12.918V58.6a8.5,8.5,0,0,1,.9-3.788l.576-1.152L3,51.193V41H25v5.236l4.658,9.316a2.618,2.618,0,0,0,4.684,0L39,46.236V41H61Z"/>
        <path id="Trazado_974556" data-name="Trazado 974556" d="M21,43h2V59H21Z"/>
        <path id="Trazado_974557" data-name="Trazado 974557" d="M17,43h2V59H17Z"/>
        <path id="Trazado_974558" data-name="Trazado 974558" d="M13,43h2v8H13Z"/>
        <path id="Trazado_974559" data-name="Trazado 974559" d="M9,43h2v6H9Z"/>
        <path id="Trazado_974560" data-name="Trazado 974560" d="M5,43H7v6H5Z"/>
        <path id="Trazado_974561" data-name="Trazado 974561" d="M49,51h2v1a1,1,0,0,1-1,1H48a3,3,0,0,0,0,6h5V57H48a1,1,0,0,1,0-2h2a3,3,0,0,0,3-3V51a4,4,0,0,0,4-4H55a2,2,0,0,1-2,2V47a4,4,0,1,0-4,4Zm0-6a2,2,0,0,1,2,2v2H49a2,2,0,0,1,0-4Z"/>
      </g>
    </g>
  </g>
</svg>
