<svg xmlns="http://www.w3.org/2000/svg" width="100" height="100" viewBox="0 0 100 100">
  <g id="Grupo_1114821" data-name="Grupo 1114821" transform="translate(-285.332 -8115.087)">
    <g id="Grupo_156312" data-name="Grupo 156312" transform="translate(285.332 8115.087)">
      <path id="Elipse_5845" data-name="Elipse 5845" d="M50,0A50,50,0,1,1,0,50,50,50,0,0,1,50,0Z" transform="translate(0 0)" fill="#66d16a"/>
    </g>
    <g id="Grupo_1119462" data-name="Grupo 1119462" transform="translate(242.631 8135.869)">
      <path id="Trazado_971163" data-name="Trazado 971163" d="M111.47,14.4h-.594L108.3,2.37A3.013,3.013,0,0,0,105.368,0H90.875a.856.856,0,0,0,0,1.712h9.583V6.654a1.575,1.575,0,0,1-1.574,1.574H86.518a1.575,1.575,0,0,1-1.574-1.574V1.712h1.99a.856.856,0,0,0,0-1.712h-6.9A3.013,3.013,0,0,0,77.1,2.37L74.526,14.4h-.594a2.273,2.273,0,0,0-2.27,2.27v4.121a2.273,2.273,0,0,0,2.27,2.27h.1L76.3,53.736a5.1,5.1,0,0,0,5.06,4.7h22.672a5.1,5.1,0,0,0,5.06-4.7l2.025-27.382a.856.856,0,1,0-1.707-.126L107.39,53.61a3.376,3.376,0,0,1-3.353,3.114H81.365a3.376,3.376,0,0,1-3.353-3.114L75.753,23.059H111.47a2.273,2.273,0,0,0,2.27-2.27V16.668A2.273,2.273,0,0,0,111.47,14.4ZM78.777,2.728a1.293,1.293,0,0,1,1.258-1.016h3.2V6.654A3.289,3.289,0,0,0,86.518,9.94H98.885a3.289,3.289,0,0,0,3.286-3.286V1.712h3.2a1.293,1.293,0,0,1,1.258,1.016l2.5,11.67H76.277Zm33.251,18.06a.559.559,0,0,1-.558.558H73.932a.559.559,0,0,1-.558-.558V16.668a.559.559,0,0,1,.558-.558H111.47a.559.559,0,0,1,.558.558v4.121Z" fill="#001a58"/>
      <path id="Trazado_971164" data-name="Trazado 971164" d="M190.915,311.814a1.885,1.885,0,0,0,1.639.937.856.856,0,0,0,0-1.712.19.19,0,0,1-.166-.283l2.4-4.328.183.684a.856.856,0,1,0,1.654-.443l-.731-2.728a.865.865,0,0,0-1.048-.605l-2.728.731a.856.856,0,1,0,.443,1.654l.779-.209-2.45,4.414A1.885,1.885,0,0,0,190.915,311.814Z" transform="translate(-105.407 -268.69)" fill="#001a58"/>
      <path id="Trazado_971165" data-name="Trazado 971165" d="M246.017,356.325a1.885,1.885,0,0,0,.024-1.888.856.856,0,1,0-1.5.831.19.19,0,0,1-.166.283h-4.848l.536-.536a.856.856,0,0,0-1.21-1.211l-2,2a.867.867,0,0,0,0,1.211l2,2a.856.856,0,1,0,1.21-1.211l-.536-.536h4.848a1.885,1.885,0,0,0,1.639-.937Z" transform="translate(-146.123 -313.201)" fill="#001a58"/>
      <path id="Trazado_971166" data-name="Trazado 971166" d="M247.96,269.975a.856.856,0,0,0-1.048.605l-.183.684-2.812-5.066a1.923,1.923,0,0,0-3.327,0,.856.856,0,1,0,1.5.831.19.19,0,0,1,.333,0l2.86,5.153-.779-.209a.856.856,0,1,0-.443,1.654l2.728.731a.863.863,0,0,0,1.049-.605l.731-2.728A.856.856,0,0,0,247.96,269.975Z" transform="translate(-149.552 -234.968)" fill="#001a58"/>
      <path id="Trazado_971167" data-name="Trazado 971167" d="M155.761,250.551a.856.856,0,0,0-.856.856v4.785a3.669,3.669,0,0,0,3.665,3.665h15.746a3.669,3.669,0,0,0,3.665-3.665V240.445a3.669,3.669,0,0,0-3.665-3.665H158.57a3.669,3.669,0,0,0-3.665,3.665v6.974a.856.856,0,0,0,1.712,0v-6.974a1.955,1.955,0,0,1,1.953-1.953h15.746a1.955,1.955,0,0,1,1.953,1.953v15.746a1.955,1.955,0,0,1-1.953,1.953H158.57a1.955,1.955,0,0,1-1.953-1.953v-4.784A.856.856,0,0,0,155.761,250.551Z" transform="translate(-73.742 -209.755)" fill="#001a58"/>
    </g>
  </g>
</svg>
