<svg xmlns="http://www.w3.org/2000/svg" xmlns:xlink="http://www.w3.org/1999/xlink" width="200" height="130" viewBox="0 0 200 130">
  <defs>
    <clipPath id="clip-path">
      <rect id="Rectángulo_417344" data-name="Rectángulo 417344" width="162.142" height="124.145" fill="none"/>
    </clipPath>
  </defs>
  <g id="Grupo_1120120" data-name="Grupo 1120120" transform="translate(-205.711 -7547)">
    <rect id="Rectángulo_416556" data-name="Rectángulo 416556" width="200" height="130" transform="translate(205.711 7547)" fill="#66d16a"/>
    <g id="Grupo_1120119" data-name="Grupo 1120119" transform="translate(224.711 7550)">
      <g id="Grupo_1120118" data-name="Grupo 1120118" transform="translate(0 0)" clip-path="url(#clip-path)">
        <path id="Trazado_972258" data-name="Trazado 972258" d="M90.161,106.882l-81.308.441C.507,74.754,25.415,64.641,23.778,42.6,19.886-9.863,103.143-9.863,118.147,20.883c11.448,23.463,5.389,21.638,25.157,35.6,27.3,19.286,10.551,42.381.45,51.019Z" transform="translate(3.975 0.001)" fill="#d6f2e7"/>
        <path id="Trazado_972259" data-name="Trazado 972259" d="M148.965,69.283c0,2.421-5.96,5.538-63.822,5.538S3.605,72.92,3.605,70.5s23.679-4.445,81.538-4.445,63.822.8,63.822,3.229" transform="translate(2.008 36.788)" fill="#bee4d7"/>
        <path id="Trazado_972260" data-name="Trazado 972260" d="M88.5,70.207l4.613,6.021c7.112-1.493,13.626-6.684,18.495-11.707l.234-7.082,2.186,4.451a73.413,73.413,0,0,0,6.234-8.126c-6.13-4.792-11.811-7.023-16.971-7.593l-.59,5.459-3.28-5.583C82.05,46.908,71.55,66.331,71.55,66.331c5.544,7.243,11.345,10.1,16.932,10.312Z" transform="translate(39.849 25.645)" fill="#5a70e0"/>
        <path id="Trazado_972261" data-name="Trazado 972261" d="M89.738,46.708l1.289.271a46.8,46.8,0,0,0-.163-14.627c-1.773-10.643-7.1-19.005-15.435-24.184l-.682.973C94.092,21.168,89.78,46.456,89.738,46.708" transform="translate(41.628 4.549)" fill="#a6b900"/>
        <path id="Trazado_972262" data-name="Trazado 972262" d="M79.086,12s-.59-7.42-9.415-8.387c0,0,2.1,7.283,9.415,8.387" transform="translate(38.802 2.013)" fill="#a6b900"/>
        <path id="Trazado_972263" data-name="Trazado 972263" d="M80.189,17.175s6.617-6.808-1.541-14.411c0,0-3.681,3.564,1.541,14.411" transform="translate(43.1 1.54)" fill="#a6b900"/>
        <path id="Trazado_972264" data-name="Trazado 972264" d="M84.894,13.033S76.972,18.558,69.242,10.6c0,0,4.157-3.094,15.652,2.432" transform="translate(38.563 5.423)" fill="#a6b900"/>
        <path id="Trazado_972265" data-name="Trazado 972265" d="M83.188,21.929s7.4-6.106.086-14.383c0,0-4.087,3.162-.086,14.383" transform="translate(45.352 4.203)" fill="#a6b900"/>
        <path id="Trazado_972266" data-name="Trazado 972266" d="M88.194,18.209s-8.551,4.713-15.4-3.886c0,0,4.514-2.661,15.4,3.886" transform="translate(40.541 7.68)" fill="#a6b900"/>
        <path id="Trazado_972267" data-name="Trazado 972267" d="M84.746,27.891S93.254,23.1,87.522,13.9c0,0-4.671,2.438-2.776,13.994" transform="translate(46.946 7.74)" fill="#a6b900"/>
        <path id="Trazado_972268" data-name="Trazado 972268" d="M89.97,25.035a12.28,12.28,0,0,1-14.627-6.2s5-1.882,14.627,6.2" transform="translate(41.961 10.385)" fill="#a6b900"/>
        <path id="Trazado_972269" data-name="Trazado 972269" d="M85.05,32.955s9.728-2.5,6.713-12.611c0,0-5.281,1.2-6.713,12.611" transform="translate(47.367 11.331)" fill="#a6b900"/>
        <path id="Trazado_972270" data-name="Trazado 972270" d="M89.746,31.712s-10.168.824-12.6-9.374c0,0,5.446-.6,12.6,9.374" transform="translate(42.964 12.437)" fill="#a6b900"/>
        <path id="Trazado_972271" data-name="Trazado 972271" d="M85.628,71c15.2-25.157,10.084-47.687,10.025-47.915l-.964.23c.053.223,5.066,22.375-9.91,47.174Z" transform="translate(47.216 12.855)" fill="#fca09f"/>
        <rect id="Rectángulo_417340" data-name="Rectángulo 417340" width="0.994" height="6.902" transform="matrix(0.884, -0.468, 0.468, 0.884, 139.517, 42.996)" fill="#fca09f"/>
        <path id="Trazado_972272" data-name="Trazado 972272" d="M92.932,37.98l.766-.638-4.428-5.289-.769.634Z" transform="translate(49.289 17.852)" fill="#fca09f"/>
        <path id="Trazado_972273" data-name="Trazado 972273" d="M92.019,42.834l.769-.635-4.436-5.292-.761.634Z" transform="translate(48.782 20.555)" fill="#fca09f"/>
        <rect id="Rectángulo_417341" data-name="Rectángulo 417341" width="0.991" height="6.903" transform="matrix(0.767, -0.641, 0.641, 0.767, 134.184, 64.867)" fill="#fca09f"/>
        <path id="Trazado_972274" data-name="Trazado 972274" d="M88.976,51.572l.757-.638L85.31,45.645l-.761.64Z" transform="translate(47.088 25.421)" fill="#fca09f"/>
        <path id="Trazado_972275" data-name="Trazado 972275" d="M92.6,32.8l3.05-6.2-.887-.433-3.05,6.189Z" transform="translate(51.08 14.574)" fill="#fca09f"/>
        <path id="Trazado_972276" data-name="Trazado 972276" d="M92.292,37.225l4.169-5.5-.791-.6-4.173,5.5Z" transform="translate(50.958 17.333)" fill="#fca09f"/>
        <path id="Trazado_972277" data-name="Trazado 972277" d="M91.133,42.191l5.443-4.249-.61-.778L90.521,41.4Z" transform="translate(50.414 20.698)" fill="#fca09f"/>
        <path id="Trazado_972278" data-name="Trazado 972278" d="M89.464,47.54l5.659-3.965-.571-.808L88.9,46.726Z" transform="translate(49.51 23.818)" fill="#fca09f"/>
        <rect id="Rectángulo_417342" data-name="Rectángulo 417342" width="6.906" height="0.991" transform="translate(134.386 78.967) rotate(-29.779)" fill="#fca09f"/>
        <path id="Trazado_972279" data-name="Trazado 972279" d="M90.108,22.878a2.4,2.4,0,1,0,2.877-1.811,2.408,2.408,0,0,0-2.877,1.811" transform="translate(50.15 11.7)" fill="#fca09f"/>
        <path id="Trazado_972280" data-name="Trazado 972280" d="M87.7,27.325a2.4,2.4,0,1,0,2.753-2,2.4,2.4,0,0,0-2.753,2" transform="translate(48.824 14.086)" fill="#fca09f"/>
        <path id="Trazado_972281" data-name="Trazado 972281" d="M86.865,31.422a2.4,2.4,0,1,0,3.245-.995,2.394,2.394,0,0,0-3.245.995" transform="translate(48.219 16.789)" fill="#fca09f"/>
        <path id="Trazado_972282" data-name="Trazado 972282" d="M85.949,36.277a2.405,2.405,0,1,0,3.254-.995,2.415,2.415,0,0,0-3.254.995" transform="translate(47.712 19.494)" fill="#fca09f"/>
        <path id="Trazado_972283" data-name="Trazado 972283" d="M84.541,40.624a2.408,2.408,0,1,0,3.254-.992,2.408,2.408,0,0,0-3.254.992" transform="translate(46.928 21.917)" fill="#fca09f"/>
        <path id="Trazado_972284" data-name="Trazado 972284" d="M82.9,45.019a2.4,2.4,0,1,0,3.254-1,2.4,2.4,0,0,0-3.254,1" transform="translate(46.015 24.36)" fill="#fca09f"/>
        <path id="Trazado_972285" data-name="Trazado 972285" d="M97.845,26.075a2.4,2.4,0,1,1-2.81-1.918,2.406,2.406,0,0,1,2.81,1.918" transform="translate(51.839 13.431)" fill="#fca09f"/>
        <path id="Trazado_972286" data-name="Trazado 972286" d="M98.47,31.672a2.4,2.4,0,1,1-2.393-2.412,2.4,2.4,0,0,1,2.393,2.412" transform="translate(52.163 16.296)" fill="#fca09f"/>
        <path id="Trazado_972287" data-name="Trazado 972287" d="M98.27,38.607a2.4,2.4,0,1,1-1.688-2.947,2.4,2.4,0,0,1,1.688,2.947" transform="translate(52.102 19.813)" fill="#fca09f"/>
        <path id="Trazado_972288" data-name="Trazado 972288" d="M96.751,44.38a2.4,2.4,0,1,1-1.538-3.028,2.4,2.4,0,0,1,1.538,3.028" transform="translate(51.27 22.964)" fill="#fca09f"/>
        <path id="Trazado_972289" data-name="Trazado 972289" d="M94.3,50.434a2.4,2.4,0,1,1-1.263-3.156A2.416,2.416,0,0,1,94.3,50.434" transform="translate(49.95 26.222)" fill="#fca09f"/>
        <path id="Trazado_972290" data-name="Trazado 972290" d="M31.433,16.533s-4.643-5.778.283-10.078c0,0,3.3,6.1-.283,10.078" transform="translate(16.402 3.595)" fill="#0a3c33"/>
        <path id="Trazado_972291" data-name="Trazado 972291" d="M25.047,54.106l-.578-.562c8.585-8.818,9.173-41.642,9.175-41.973l.81.014c-.017,1.362-.6,33.472-9.407,42.521" transform="translate(13.628 6.445)" fill="#0a3c33"/>
        <path id="Trazado_972292" data-name="Trazado 972292" d="M30.147,21.991l-.192-.788c3.494-.845,5.267-7.638,5.283-7.708l.783.2c-.075.3-1.912,7.335-5.874,8.3" transform="translate(16.683 7.516)" fill="#0a3c33"/>
        <path id="Trazado_972293" data-name="Trazado 972293" d="M31.945,18.752c-.048-.009-.1-.022-.149-.036l.22-.778c2.074.556,5.136-2.4,5.169-2.433l.568.575c-.135.137-3.29,3.226-5.807,2.673" transform="translate(17.708 8.635)" fill="#0a3c33"/>
        <path id="Trazado_972294" data-name="Trazado 972294" d="M33.132,17.82S31.971,10.5,38.381,9.212c0,0-.17,6.933-5.248,8.608" transform="translate(18.407 5.131)" fill="#0a3c33"/>
        <path id="Trazado_972295" data-name="Trazado 972295" d="M34.511,17.674s3.653-6.45,9.469-3.461c0,0-4.451,5.318-9.469,3.461" transform="translate(19.22 7.476)" fill="#0a3c33"/>
        <path id="Trazado_972296" data-name="Trazado 972296" d="M29.443,26.4l.1-.8c3.565.453,7.646-5.266,7.685-5.325l.66.469c-.176.249-4.4,6.173-8.445,5.656" transform="translate(16.398 11.293)" fill="#0a3c33"/>
        <path id="Trazado_972297" data-name="Trazado 972297" d="M32.747,24.445a3.074,3.074,0,0,1-1.2-.529l.48-.645c1.742,1.289,5.656-.416,5.7-.434l.329.738c-.148.067-3.1,1.351-5.3.87" transform="translate(17.567 12.719)" fill="#0a3c33"/>
        <path id="Trazado_972298" data-name="Trazado 972298" d="M33.769,23.6s1.524-7.258,7.973-6.176c0,0-2.633,6.419-7.973,6.176" transform="translate(18.807 9.645)" fill="#0a3c33"/>
        <path id="Trazado_972299" data-name="Trazado 972299" d="M34.582,23.911s5.714-4.722,10.084.146c0,0-6.058,3.379-10.084-.146" transform="translate(19.26 12.172)" fill="#0a3c33"/>
        <path id="Trazado_972300" data-name="Trazado 972300" d="M30.192,29.776a4.437,4.437,0,0,1-1.509-.62l.45-.676c3,1.985,9.181-1.337,9.245-1.369l.389.708c-.238.128-5.072,2.722-8.576,1.956" transform="translate(15.975 15.1)" fill="#0a3c33"/>
        <path id="Trazado_972301" data-name="Trazado 972301" d="M34.733,31.158c-1.435-.314-3.187-.959-3.864-2.282l.718-.371c.99,1.934,5.256,2.138,5.3,2.138l-.034.806a12.51,12.51,0,0,1-2.119-.291" transform="translate(17.192 15.876)" fill="#0a3c33"/>
        <path id="Trazado_972302" data-name="Trazado 972302" d="M33.83,28.96s4.576-5.829,9.88-2c0,0-5.2,4.588-9.88,2" transform="translate(18.841 14.289)" fill="#0a3c33"/>
        <path id="Trazado_972303" data-name="Trazado 972303" d="M33.754,29.847s7.21-1.706,8.974,4.588c0,0-6.928.353-8.974-4.588" transform="translate(18.799 16.506)" fill="#0a3c33"/>
        <path id="Trazado_972304" data-name="Trazado 972304" d="M30.863,24.036c-3.379-2.287-2.633-9.524-2.6-9.83l.806.09c-.009.067-.73,7.054,2.244,9.071Z" transform="translate(15.689 7.912)" fill="#0a3c33"/>
        <path id="Trazado_972305" data-name="Trazado 972305" d="M30.083,20.314c-2.447-.534-4.224-4.328-4.3-4.5l.733-.336c.019.039,1.837,3.909,3.989,4.089l-.069.806a2.5,2.5,0,0,1-.353-.059" transform="translate(14.359 8.621)" fill="#0a3c33"/>
        <path id="Trazado_972306" data-name="Trazado 972306" d="M29.442,19.059s3.653-6.45-1.9-9.9c0,0-2.268,6.556,1.9,9.9" transform="translate(14.994 5.099)" fill="#0a3c33"/>
        <path id="Trazado_972307" data-name="Trazado 972307" d="M29.463,18.713s-1.161-7.322-7.657-6.562c0,0,2.31,6.541,7.657,6.562" transform="translate(12.144 6.737)" fill="#0a3c33"/>
        <path id="Trazado_972308" data-name="Trazado 972308" d="M31.718,28.135c-3.825-.839-6.343-7.165-6.453-7.444l.755-.3c.023.064,2.611,6.584,6.19,7l-.09.8a3.588,3.588,0,0,1-.4-.064" transform="translate(14.071 11.359)" fill="#0a3c33"/>
        <path id="Trazado_972309" data-name="Trazado 972309" d="M27.8,25.253a11.837,11.837,0,0,1-4.011-1.985l.492-.641c.037.023,3.433,2.617,5.432,1.775l.316.746a3.709,3.709,0,0,1-2.23.106" transform="translate(13.247 12.601)" fill="#0a3c33"/>
        <path id="Trazado_972310" data-name="Trazado 972310" d="M28.389,24.427s.252-7.408-6.27-7.9c0,0,1.024,6.86,6.27,7.9" transform="translate(12.319 9.206)" fill="#0a3c33"/>
        <path id="Trazado_972311" data-name="Trazado 972311" d="M28.433,24.416s-4.419-5.947-9.82-2.262c0,0,5.072,4.722,9.82,2.262" transform="translate(10.366 11.668)" fill="#0a3c33"/>
        <path id="Trazado_972312" data-name="Trazado 972312" d="M29.872,33.593c-3.631-.794-6.726-6.008-6.866-6.253l.7-.406c.034.058,3.609,6.1,7.21,5.951l.033.8a4.087,4.087,0,0,1-1.076-.1" transform="translate(12.813 15.001)" fill="#0a3c33"/>
        <path id="Trazado_972313" data-name="Trazado 972313" d="M25.051,31.277A13.144,13.144,0,0,1,21.925,30.1l.389-.708c.04.022,3.8,2.052,5.638.909l.43.687a4.579,4.579,0,0,1-3.33.286" transform="translate(12.211 16.371)" fill="#0a3c33"/>
        <path id="Trazado_972314" data-name="Trazado 972314" d="M26.69,30.513s-.906-7.357-7.423-6.821c0,0,2.08,6.617,7.423,6.821" transform="translate(10.73 13.18)" fill="#0a3c33"/>
        <path id="Trazado_972315" data-name="Trazado 972315" d="M26.667,30.719s-5.294-5.188-10.056-.712c0,0,5.75,3.88,10.056.712" transform="translate(9.251 15.698)" fill="#0a3c33"/>
        <path id="Trazado_972316" data-name="Trazado 972316" d="M47.056,62.024l-.313-1.518A50.714,50.714,0,0,1,5.867,51.393L4.857,52.57a52.355,52.355,0,0,0,42.2,9.454" transform="translate(2.705 28.623)" fill="#bee4d7"/>
        <path id="Trazado_972317" data-name="Trazado 972317" d="M9.134,53.522s-5.9-6.511-8.818-2.585C-.925,52.6,1.383,55.973,9.134,53.522" transform="translate(0 27.668)" fill="#bee4d7"/>
        <path id="Trazado_972318" data-name="Trazado 972318" d="M10.583,53.407S1.366,51.95,2.272,56.658c.392,2.007,4.641,3.2,8.311-3.251" transform="translate(1.231 29.626)" fill="#bee4d7"/>
        <path id="Trazado_972319" data-name="Trazado 972319" d="M9.313,56.734s-7.325-5.267-2.831-7.775c1.909-1.071,5.722,1.009,2.831,7.775" transform="translate(2.798 27.119)" fill="#bee4d7"/>
        <path id="Trazado_972320" data-name="Trazado 972320" d="M13.908,58.748S6.3,53.79,10.654,51.084c1.85-1.149,5.759.766,3.254,7.663" transform="translate(5.184 28.277)" fill="#bee4d7"/>
        <path id="Trazado_972321" data-name="Trazado 972321" d="M17.693,60.163s-7.581-4.981-3.226-7.673c1.857-1.152,5.762.778,3.226,7.673" transform="translate(7.306 29.06)" fill="#bee4d7"/>
        <path id="Trazado_972322" data-name="Trazado 972322" d="M22.976,60.962s-8.429-3.734-4.707-7.076c1.58-1.429,5.789-.131,4.707,7.076" transform="translate(9.646 29.725)" fill="#bee4d7"/>
        <path id="Trazado_972323" data-name="Trazado 972323" d="M26.939,61.234s-8.314-3.947-4.473-7.195c1.627-1.378,5.8.025,4.473,7.195" transform="translate(11.947 29.833)" fill="#bee4d7"/>
        <path id="Trazado_972324" data-name="Trazado 972324" d="M32.685,60.451s-9.159-1.812-6.531-5.887c1.121-1.736,5.533-1.4,6.531,5.887" transform="translate(14.302 29.904)" fill="#bee4d7"/>
        <path id="Trazado_972325" data-name="Trazado 972325" d="M14.092,55.455S4.862,54,5.775,58.712c.391,2,4.633,3.19,8.317-3.257" transform="translate(3.181 30.767)" fill="#bee4d7"/>
        <path id="Trazado_972326" data-name="Trazado 972326" d="M17.993,56.954s-9.229-1.451-8.32,3.26c.392,2,4.641,3.19,8.32-3.26" transform="translate(5.352 31.603)" fill="#bee4d7"/>
        <path id="Trazado_972327" data-name="Trazado 972327" d="M21.671,57.782s-9.293.422-7.191,4.853c.891,1.892,5.309,2.208,7.191-4.853" transform="translate(7.892 32.181)" fill="#bee4d7"/>
        <path id="Trazado_972328" data-name="Trazado 972328" d="M26.022,58.327S16.854,59.6,19.47,63.834c1.116,1.8,5.526,1.713,6.552-5.507" transform="translate(10.582 32.485)" fill="#bee4d7"/>
        <path id="Trazado_972329" data-name="Trazado 972329" d="M30.274,58.192S21.462,60.619,24.73,64.5c1.4,1.647,5.726,1,5.544-6.307" transform="translate(13.368 32.409)" fill="#bee4d7"/>
        <path id="Trazado_972330" data-name="Trazado 972330" d="M38.92,62.533s-15.091-6.5-8.767-10.363-1.32-8.147-6.787-7.976-12.571-7.4-6.116-10.027S5.86,22.461,10.722,22.327s11.429,2.423,12.982,9.22,7,.8,5.8-2.91S38.8,33.3,33.869,40.56s5.322,6.942,6.25,3.175,5.521,2.469,2.432,8.094-1.7,8.87,1.46,10.564-5.091.14-5.091.14" transform="translate(5.498 12.432)" fill="#519d45"/>
        <path id="Trazado_972331" data-name="Trazado 972331" d="M44.241,63.846l-.153,1.3A47.266,47.266,0,0,1,30.28,60.315c-9.524-5.068-15.751-12.756-18.011-22.244l1.137-.335c5.248,22.042,30.58,26.071,30.835,26.11" transform="translate(6.833 21.017)" fill="#fa2d68"/>
        <path id="Trazado_972332" data-name="Trazado 972332" d="M14.776,42.844S7.935,39.918,9.822,31.313c0,0,6.234,4.3,4.954,11.531" transform="translate(5.287 17.44)" fill="#fa2d68"/>
        <path id="Trazado_972333" data-name="Trazado 972333" d="M19.358,45.22S10.8,49.262,6.191,39.162c0,0,4.546-2.32,13.167,6.058" transform="translate(3.448 21.647)" fill="#fa2d68"/>
        <path id="Trazado_972334" data-name="Trazado 972334" d="M14.582,48.537s7.752-5.68,2.667-15.493c0,0-4.252,2.919-2.667,15.493" transform="translate(7.924 18.404)" fill="#fa2d68"/>
        <path id="Trazado_972335" data-name="Trazado 972335" d="M22.973,49.451s-8.135,5-13.656-4.518c0,0,4.3-2.832,13.656,4.518" transform="translate(5.189 24.726)" fill="#fa2d68"/>
        <path id="Trazado_972336" data-name="Trazado 972336" d="M18.247,53.333s7.182-6.533,1.21-15.723c0,0-3.953,3.394-1.21,15.723" transform="translate(9.622 20.947)" fill="#fa2d68"/>
        <path id="Trazado_972337" data-name="Trazado 972337" d="M28.284,52.58s-7.237,6.474-14.14-1.864c0,0,3.794-3.612,14.14,1.864" transform="translate(7.877 27.595)" fill="#fa2d68"/>
        <path id="Trazado_972338" data-name="Trazado 972338" d="M23.917,57.225a12.134,12.134,0,0,0-1.23-15.736s-3.371,4.1,1.23,15.736" transform="translate(11.972 23.107)" fill="#fa2d68"/>
        <path id="Trazado_972339" data-name="Trazado 972339" d="M33.381,53.941s-5.457,8.35-14.081,2.284c0,0,2.816-4.584,14.081-2.284" transform="translate(10.749 29.682)" fill="#fa2d68"/>
        <path id="Trazado_972340" data-name="Trazado 972340" d="M30.071,59.171s4.014-9.3-4.878-14.848c0,0-2.292,4.932,4.878,14.848" transform="translate(13.837 24.685)" fill="#fa2d68"/>
        <path id="Trazado_972341" data-name="Trazado 972341" d="M119.752,55.858a44.1,44.1,0,1,1-44.1-44.1,44.1,44.1,0,0,1,44.1,44.1" transform="translate(17.574 6.55)" fill="#9bc2e0"/>
        <path id="Trazado_972342" data-name="Trazado 972342" d="M66.132,35.379s-16.1-13.569-9.676-18.3C69.1,7.756,104.83,28.911,93.22,42.844S83.162,47.1,79.676,47.1s-9.29,5.806-5.418,9.29,4.257,15.868,9.29,15.868,4.6,14.422-4.087,22.691c0,0-3.911,2.141-12.49,3.117,0,0-12.2-16.427-6.9-23.485,4.644-6.2,2.306-13.547,6.192-19.739s4.31-11.907-.128-19.462" transform="translate(30.598 8.231)" fill="#c7e0ef"/>
        <path id="Trazado_972343" data-name="Trazado 972343" d="M41.419,22.3s14.6,5.331,11.31,10.554-7.153,8.9-5.413,13.352,12.762,16.832,5.9,24.766c-5.325,6.145-4.9,11.953-2.6,15.264,0,0-17.171-11.774-18.977-32.85-.7-8.119-.417-19.952,9.782-31.087" transform="translate(17.492 12.418)" fill="#c7e0ef"/>
        <path id="Trazado_972344" data-name="Trazado 972344" d="M80.864,72.707a26.75,26.75,0,0,0-8.381-52.839c-7.939,1.26-12.245,8.1-18.464,12.209C49.281,35.206,31.979,38,31.979,38l4.758,30s17.318-2.7,22.792-1.189c7.185,1.979,13.394,7.159,21.335,5.9" transform="translate(17.81 10.879)" fill="#feb824"/>
        <path id="Trazado_972345" data-name="Trazado 972345" d="M38.834,40.953,66.1,29.358l3.762,23.7L40.388,50.719l.1-1.252L68.37,51.678l-3.257-20.53L39.326,42.108Z" transform="translate(21.628 16.351)" fill="#fc9627"/>
        <rect id="Rectángulo_417343" data-name="Rectángulo 417343" width="20.632" height="31.821" transform="translate(38.795 49.901) rotate(-9.011)" fill="#abd5ef"/>
        <path id="Trazado_972346" data-name="Trazado 972346" d="M41.109,66.036A1.676,1.676,0,0,1,39.2,64.643L33.711,30.06a1.672,1.672,0,0,1,3.3-.526L42.5,64.121a1.674,1.674,0,0,1-1.393,1.915" transform="translate(18.763 15.664)" fill="#9bc2e0"/>
        <path id="Trazado_972347" data-name="Trazado 972347" d="M38.069,66.519a1.672,1.672,0,0,1-1.913-1.39L30.667,30.543a1.672,1.672,0,0,1,3.3-.526L39.456,64.6a1.672,1.672,0,0,1-1.387,1.915" transform="translate(17.068 15.933)" fill="#9bc2e0"/>
        <path id="Trazado_972348" data-name="Trazado 972348" d="M35.027,67a1.672,1.672,0,0,1-1.913-1.393L27.629,31.025a1.672,1.672,0,0,1,3.3-.526l5.487,34.587A1.675,1.675,0,0,1,35.027,67" transform="translate(15.375 16.202)" fill="#9bc2e0"/>
        <path id="Trazado_972349" data-name="Trazado 972349" d="M29.872,58.629a2.455,2.455,0,0,1-2.807-2.038l-3.1-19.51a2.451,2.451,0,0,1,4.841-.769l3.1,19.513a2.457,2.457,0,0,1-2.038,2.8" transform="translate(13.333 19.074)" fill="#9bc2e0"/>
        <path id="Trazado_972350" data-name="Trazado 972350" d="M44.152,65.555a1.676,1.676,0,0,1-1.913-1.393L36.754,29.579a1.672,1.672,0,1,1,3.3-.526L45.542,63.64a1.672,1.672,0,0,1-1.39,1.915" transform="translate(20.457 15.395)" fill="#9bc2e0"/>
        <path id="Trazado_972351" data-name="Trazado 972351" d="M102.191,48.864C84.7,57.841,48.8,59.635,48.8,59.635l-1.98,6.33L35.683,58.382,9.824,78.452l16.6,21.255S42.9,75.348,51.794,72.878c8.882-2.466,25.246,8.146,38.3.684,18.912-10.8,30.872-20.966,30.1-25.6s-3.5-6.541-18,.9" transform="translate(5.471 24.438)" fill="#fca09f"/>
        <path id="Trazado_972352" data-name="Trazado 972352" d="M83.542,49.288s-.226,8.27-13.93,9.558-30.488,10.8-40.138,5.013C18.7,57.395,75.964,52.417,83.542,49.288" transform="translate(15.666 27.45)" fill="#fc8082"/>
        <path id="Trazado_972353" data-name="Trazado 972353" d="M25.261,58.312s13.4-14.283,28.453-11.967c11.842,1.822,15.823,3.474,23.541,1.546s9.259,7.645-.772,9.131c-9.443,1.4-51.222,19.814-51.222,1.289" transform="translate(14.069 25.67)" fill="#fca09f"/>
        <path id="Trazado_972354" data-name="Trazado 972354" d="M48.12,46c-2.77,4.616-7.584,14.833-5.382,15.608s3.691.445,2.536-.374-1.152-.979-.979-1.362c1.079-2.429,4.85-6.377,7-9.686,2.5-3.839-.754-8.222-3.175-4.187" transform="translate(23.49 24.725)" fill="#f9b5a0"/>
        <path id="Trazado_972355" data-name="Trazado 972355" d="M42.2,54.563s1.663,1.474,3.126,1.009c0,0,2.077,1.034.517,1.174s-4.364-.23-3.643-2.183" transform="translate(23.438 30.388)" fill="#7585f8"/>
        <path id="Trazado_972356" data-name="Trazado 972356" d="M48.143,40.169s10.017-1.991,10.582,2.625c.511,4.151-8.92,16.658-8.92,16.658A5.894,5.894,0,0,1,45.214,57.8l3.88-10.178L38.214,50l4.521-8.635Z" transform="translate(21.283 22.134)" fill="#4f29aa"/>
        <path id="Trazado_972357" data-name="Trazado 972357" d="M42.467,48.927c-3.883,3.726-11.211,12.322-9.29,13.651s3.445,1.392,2.542.307-.855-1.253-.587-1.576c1.681-2.061,6.355-4.878,9.3-7.508,3.414-3.05,1.426-8.132-1.968-4.875" transform="translate(18.302 26.664)" fill="#f9b5a0"/>
        <path id="Trazado_972358" data-name="Trazado 972358" d="M33.04,56.362s1.219,1.854,2.753,1.8c0,0,1.73,1.54.188,1.266s-4.148-1.372-2.941-3.062" transform="translate(18.229 31.39)" fill="#7585f8"/>
        <path id="Trazado_972359" data-name="Trazado 972359" d="M42.506,43.869s10.187.708,9.524,5.309c-.6,4.141-12.979,13.731-12.979,13.731a5.9,5.9,0,0,1-4-2.795l6.419-8.8s-7.28.906-8.326-1.675c-.917-2.256,2.463-8.3,2.463-8.3Z" transform="translate(18.369 23.022)" fill="#6737c1"/>
        <path id="Trazado_972360" data-name="Trazado 972360" d="M42.287,44.562A5.289,5.289,0,0,1,41,38.344c1.563-4.036,8.277-14.095,9.53-15.09s2.795-3.639,4.4-3.125-1.585,3.156-2.974,3.931S46.954,38.833,45.86,41.1s-1.27,4.252-3.573,3.467" transform="translate(22.575 11.175)" fill="#e28c71"/>
        <path id="Trazado_972361" data-name="Trazado 972361" d="M48.149,47.239a20.857,20.857,0,0,0,.386-11.766c-1.26-4.819-5.842-4.834-8.6-4.317s-7.3,1.261-5.4,7.179c1.317,4.124.441,6.731-.66,10.853-.033.109-.064.2-.1.313-.006-.009-.012-.009-.012-.009l.016.009c-1.92,4.507,12.848,1.7,14.377-2.262" transform="translate(18.713 17.229)" fill="#ff2e56"/>
        <path id="Trazado_972362" data-name="Trazado 972362" d="M38.8,28.827s1.073,2.186-.462,3.388C36.76,33.446,43,36.633,42.827,35.344c-.226-1.658-1.091-2.631-.307-4.556Z" transform="translate(21.208 16.055)" fill="#e67052"/>
        <path id="Trazado_972363" data-name="Trazado 972363" d="M42.361,26.342c1.432,1.308,3.047,7.149,1.585,8.465-.643.57-3.318-.02-5.043-2.572a4.893,4.893,0,0,1-.556-5.026c.469-.915,2.339-2.4,4.014-.867" transform="translate(21.09 14.303)" fill="#f3b294"/>
        <path id="Trazado_972364" data-name="Trazado 972364" d="M44.126,27.218c.325.733.237.9-1.977,1.274s-2.585.232-2.349.758c.68,1.541-.9,1.258-.064,3.1s-1.031.743-1.876-.757a4.186,4.186,0,0,1-.076-4.09c1.216-2.708,5.143-2.96,6.343-.28" transform="translate(20.775 14.109)" fill="#39021f"/>
        <path id="Trazado_972365" data-name="Trazado 972365" d="M37.791,27.489a4.136,4.136,0,0,0,.076,4.09c.626,1.113,1.828,2.032,2.046,1.633.262-.487-1.152-.648-.778-1.956s-.489-1.573-.3-2.706,1.04-.937,3.528-1.359c1.009-.171,1.2-.567,1.073-.973a3.636,3.636,0,0,0-5.641,1.27" transform="translate(20.767 14.117)" fill="#39021f"/>
        <path id="Trazado_972366" data-name="Trazado 972366" d="M33.87,48.662c-.033.109-.064.2-.1.313-.006-.009-.012-.009-.012-.009l.016.009c-1.492,3.484,7,2.6,11.64.179.434-1.356-3.351-.595-5.035-1.309-3.9-1.652,7.291-5.113,5.083-5.49-2.377-.409-5.382.891-4.892-2.572s-2.977-7.9-2.977-7.9c-1.94.227-2.117,2.342-3.419,4.406a9.52,9.52,0,0,0,.357,1.523c1.317,4.124.441,6.731-.66,10.853" transform="translate(18.713 17.755)" fill="#ed2051"/>
        <path id="Trazado_972367" data-name="Trazado 972367" d="M43.215,43.26a5.291,5.291,0,0,0-.411-6.337c-2.575-3.477-11.716-11.4-13.187-12.024s-3.656-2.77-5.069-1.848,2.365,2.623,3.909,3,8.744,12.918,10.4,14.81,2.354,3.762,4.361,2.4" transform="translate(13.499 12.712)" fill="#e28c71"/>
      </g>
    </g>
  </g>
</svg>
