<svg xmlns="http://www.w3.org/2000/svg" width="46.839" height="45.103" viewBox="0 0 46.839 45.103">
  <path id="Trazado_970175" data-name="Trazado 970175" d="M53.444,23.879A3.9,3.9,0,0,0,49.6,27.69l-.556,9.672-2.785,3.807.4-1.854a3.045,3.045,0,0,0-.437-2.455A14.529,14.529,0,0,0,49.2,26.915a11.067,11.067,0,0,0-4.06-7.42c-3.437-2.781-8.75-3.511-12.256.475l-1.466,1.666L29.953,19.97c-3.5-3.986-8.818-3.257-12.255-.476a11.069,11.069,0,0,0-4.061,7.42,14.527,14.527,0,0,0,2.979,9.945,3.045,3.045,0,0,0-.437,2.455l.4,1.853L13.8,37.362l-.554-9.672a3.906,3.906,0,0,0-3.851-3.811A1.4,1.4,0,0,0,8,25.273V39.921a.659.659,0,0,0,.035.212A86.879,86.879,0,0,0,16.1,57.2l-.574,4.352a.661.661,0,0,0,.569.742.67.67,0,0,0,.087.006.661.661,0,0,0,.655-.575l.6-4.583a.661.661,0,0,0-.091-.431,85.762,85.762,0,0,1-8.025-16.9V25.273a.073.073,0,0,1,.072-.072,2.6,2.6,0,0,1,2.531,2.565l.565,9.867a.66.66,0,0,0,.127.353l4.664,6.374,1.008,4.616a.661.661,0,0,0,1.292-.282l-2.109-9.66a1.489,1.489,0,0,1,.759-1.819c.64-.259,1.581-.086,2.127,1.256l4.62,11.339a11.422,11.422,0,0,1,.708,5.395l-.45,6.384a.661.661,0,1,0,1.319.093L27,55.3a12.653,12.653,0,0,0-.8-5.986l-2.144-5.263a57.489,57.489,0,0,0,7.059,4.269.661.661,0,0,0,.607,0,57.6,57.6,0,0,0,7.059-4.268L36.636,49.31a12.653,12.653,0,0,0-.8,5.987l.45,6.384a.661.661,0,1,0,1.319-.093l-.45-6.384a11.421,11.421,0,0,1,.708-5.4l4.62-11.338c.549-1.343,1.488-1.516,2.127-1.257a1.488,1.488,0,0,1,.759,1.819l-2.109,9.661a.661.661,0,1,0,1.292.282l1.008-4.616,4.664-6.374a.661.661,0,0,0,.126-.352l.568-9.867A2.6,2.6,0,0,1,53.443,25.2a.073.073,0,0,1,.072.072V39.811a85.754,85.754,0,0,1-8.022,16.9.661.661,0,0,0-.091.43l.6,4.583a.661.661,0,0,0,1.311-.172L46.744,57.2A86.864,86.864,0,0,0,54.8,40.133a.659.659,0,0,0,.035-.212V25.273a1.4,1.4,0,0,0-1.395-1.395ZM18.53,20.522c2.947-2.384,7.476-3.04,10.431.321l1.962,2.23a.661.661,0,0,0,.992,0l1.962-2.23c2.956-3.361,7.485-2.705,10.432-.321,3.639,2.945,5.322,8.584,1.323,14.844a3.732,3.732,0,0,0-3.169-2.125,5.165,5.165,0,0,0,.917-3,3.407,3.407,0,1,0-6.815,0,5.165,5.165,0,0,0,.917,3,3.909,3.909,0,0,0-1.214.281,4.09,4.09,0,0,0-2.269-.8,5.469,5.469,0,0,0,1.031-3.268,3.614,3.614,0,0,0-7.227,0,5.47,5.47,0,0,0,1.031,3.268,4.091,4.091,0,0,0-2.268.8,3.891,3.891,0,0,0-1.214-.281,5.165,5.165,0,0,0,.917-3,3.407,3.407,0,1,0-6.815,0,5.165,5.165,0,0,0,.918,3A3.735,3.735,0,0,0,17.2,35.366c-4-6.26-2.315-11.9,1.325-14.844Zm19.359,9.722a2.085,2.085,0,1,1,4.171,0c0,1.24-.647,2.988-2.085,2.988C38.4,33.231,37.888,31.219,37.888,30.244Zm-8.761-.792a2.292,2.292,0,0,1,4.583,0c0,1.355-.711,3.263-2.292,3.263S29.127,30.807,29.127,29.452Zm-8.349.792a2.085,2.085,0,1,1,4.171,0c0,1.24-.647,2.988-2.085,2.988C21.288,33.231,20.778,31.219,20.778,30.244Zm.8,7.728a3.03,3.03,0,0,0-3.12-2.165,2.443,2.443,0,0,1,2.179-1.253h4.452a2.6,2.6,0,0,1,.493.047,3.534,3.534,0,0,0-.519,1.84v6.7q-1.043-.737-1.984-1.489l-1.5-3.68Zm9.838,9.012Q30.169,46.331,29,45.655V36.984a.661.661,0,0,0-1.322,0v6.481a.648.648,0,1,1-1.3,0V36.441a2.533,2.533,0,0,1,2.64-2.4h4.786a2.533,2.533,0,0,1,2.64,2.4v7.024a.648.648,0,1,1-1.3,0V36.984a.661.661,0,0,0-1.322,0v8.671q-1.165.675-2.415,1.329Zm9.838-9.013-1.5,3.683q-.94.751-1.983,1.487v-6.7a3.534,3.534,0,0,0-.519-1.84,2.607,2.607,0,0,1,.495-.047H42.2a2.44,2.44,0,0,1,2.176,1.252,3.033,3.033,0,0,0-3.12,2.165Z" transform="translate(-7.999 -17.194)" fill="#29542a"/>
</svg>
