<svg xmlns="http://www.w3.org/2000/svg" xmlns:xlink="http://www.w3.org/1999/xlink" width="295" height="400" viewBox="0 0 295 400">
  <defs>
    <clipPath id="clip-path">
      <rect id="Rectángulo_417768" data-name="Rectángulo 417768" width="295" height="349" transform="translate(179.711 6326)" fill="#fff" stroke="#707070" stroke-width="1"/>
    </clipPath>
  </defs>
  <g id="Grupo_1121465" data-name="Grupo 1121465" transform="translate(-1124.711 -5864)">
    <g id="Grupo_1117946" data-name="Grupo 1117946" transform="translate(0 -1869)">
      <path id="Rectángulo_416014" data-name="Rectángulo 416014" d="M20,0H275a20,20,0,0,1,20,20V400a0,0,0,0,1,0,0H0a0,0,0,0,1,0,0V20A20,20,0,0,1,20,0Z" transform="translate(1124.711 7733)" fill="#0042db"/>
      <rect id="Rectángulo_416260" data-name="Rectángulo 416260" width="295" height="91" transform="translate(1124.711 8042)" fill="#99b3f1"/>
    </g>
    <g id="Enmascarar_grupo_1099000" data-name="Enmascarar grupo 1099000" transform="translate(945 -430)" clip-path="url(#clip-path)">
      <g id="Grupo_1121463" data-name="Grupo 1121463" transform="translate(193.037 6361.657)" opacity="0.45">
        <path id="Trazado_974585" data-name="Trazado 974585" d="M1068.84,1345.009h0c0-22.843,19.861-41.361,44.36-41.361h9.254a18.5,18.5,0,0,1-7.07-14.406h0c0-10.522,9.148-19.051,20.433-19.051h30.8a13.232,13.232,0,0,1-5.095-10.327c0-7.528,6.546-13.631,14.62-13.631h77.333c8.074,0,14.62,6.1,14.62,13.631s-6.546,13.631-14.62,13.631h-28.956a18.714,18.714,0,0,0-8.932,15.747h0a18.5,18.5,0,0,0,7.07,14.406h47.622c24.5,0,44.36,18.518,44.36,41.361h0c0,22.843-19.861,41.361-44.36,41.361h63.088c11.285,0,20.432,8.53,20.432,19.051s-9.148,19.051-20.432,19.051h25.705c28.085,0,51.4,18.984,56.026,43.937h9c17.512,0,31.707,13.236,31.707,29.563v2.995c0,16.327-14.2,29.563-31.707,29.563H1125.715c-31.411,0-56.875-23.741-56.875-53.029h0c0-29.287,25.464-53.028,56.875-53.028h99.57c-11.285,0-20.433-8.53-20.433-19.051s9.148-19.051,20.433-19.051H1113.2C1088.7,1386.37,1068.84,1367.85,1068.84,1345.009Z" transform="translate(-1068.84 -1246.234)" fill="#abe9ff"/>
        <ellipse id="Elipse_13715" data-name="Elipse 13715" cx="13.282" cy="13.631" rx="13.282" ry="13.631" transform="translate(212.785 0)" fill="#abe9ff"/>
      </g>
    </g>
    <g id="Grupo_1121464" data-name="Grupo 1121464" transform="translate(10094.709 10268.383)">
      <ellipse id="Elipse_13680" data-name="Elipse 13680" cx="132.163" cy="6.263" rx="132.163" ry="6.263" transform="translate(-8953.352 -4062.408)" fill="#231f20" opacity="0.15"/>
      <g id="Grupo_1119166" data-name="Grupo 1119166" transform="translate(-8956.661 -4092.043)">
        <g id="Grupo_1119161" data-name="Grupo 1119161" transform="translate(14.414 14.399)">
          <path id="Trazado_969828" data-name="Trazado 969828" d="M107.4,822.686c.414-.3,1.254.06,3.983-1.077,3.981-1.658,5.536-10.226,5.536-10.226-6.058-.759-5.675,7.97-8.019,9.463a4.442,4.442,0,0,0-1.784,1.84Z" transform="translate(-107.119 -811.337)" fill="#66e8c4"/>
          <path id="Trazado_969829" data-name="Trazado 969829" d="M117.626,814.041c-1.245,2.539-2.716,6.284-5.2,7.478a5.81,5.81,0,0,0-1.576,1.081,11.222,11.222,0,0,0,3.117-.886c3.981-1.658,5.536-10.226,5.536-10.226S118.872,811.5,117.626,814.041Z" transform="translate(-109.702 -811.442)" fill="#3fd2c5"/>
        </g>
        <g id="Grupo_1119162" data-name="Grupo 1119162" transform="translate(4.724 4.484)">
          <path id="Trazado_969830" data-name="Trazado 969830" d="M83.09,800.424h.656c.427-.907.564-2.612-.863-5.744-2.64-5.795-3.973-13.31-2.133-15.52,0,0-6.3,4.491-4.868,9.162C77.227,792.707,84,795.627,83.09,800.424Z" transform="translate(-75.67 -779.16)" fill="#35bfe6"/>
          <path id="Trazado_969831" data-name="Trazado 969831" d="M88.165,800.424h.389c.427-.907.564-2.612-.863-5.744-2.64-5.795-3.973-13.31-2.133-15.52,0,0-4.159,4.625-2.581,9.053C84.536,792.586,89.336,794.862,88.165,800.424Z" transform="translate(-80.479 -779.16)" fill="#0a88d2"/>
        </g>
        <g id="Grupo_1119163" data-name="Grupo 1119163" transform="translate(0 15.304)">
          <path id="Trazado_969832" data-name="Trazado 969832" d="M66.261,822.269c2.4.977,3.424,1.627,4.092,2.449h.842c-.629-1.9-1-3.937-2.482-5.476-1.677-1.747-8.14-4.623-8.362-4.957S63.022,820.95,66.261,822.269Z" transform="translate(-60.339 -814.275)" fill="#49d3d5"/>
          <path id="Trazado_969833" data-name="Trazado 969833" d="M70.482,824.207c.05.153.123.337.21.538h.53c-.63-1.9-1-3.937-2.482-5.476-1.677-1.747-8.14-4.623-8.362-4.957A24.97,24.97,0,0,0,67,820.044,6.634,6.634,0,0,1,70.482,824.207Z" transform="translate(-60.366 -814.3)" fill="#0fa1b8"/>
        </g>
        <g id="Grupo_1119165" data-name="Grupo 1119165" transform="translate(10.259 0)">
          <path id="Trazado_969834" data-name="Trazado 969834" d="M97.337,787.609a9.027,9.027,0,0,1-.615,2.747h.459c1.574-2.032,3.995-5.976,3.541-10.581-.662-6.73-1.383-15.167-1.383-15.167s-8.859,6.717-4.5,14.167C97.012,782.489,97.489,785.451,97.337,787.609Z" transform="translate(-93.633 -764.608)" fill="#66e8c7"/>
          <g id="Grupo_1119164" data-name="Grupo 1119164" transform="translate(3.631)">
            <path id="Trazado_969835" data-name="Trazado 969835" d="M105.94,775.192c.9,5.577.91,11.822-.522,14.464.261-.185.54-.379.826-.576a14.656,14.656,0,0,0,2.631-9.307c-.662-6.73-1.383-15.167-1.383-15.167S104.771,767.934,105.94,775.192Z" transform="translate(-105.418 -764.607)" fill="#3fd2c5"/>
          </g>
        </g>
        <path id="Trazado_969836" data-name="Trazado 969836" d="M96.68,846.844H86.6a1.44,1.44,0,0,0-1.419,1.686l1.289,7.42a2.233,2.233,0,0,0,2.194,1.816h5.956a2.233,2.233,0,0,0,2.194-1.816l1.289-7.42A1.44,1.44,0,0,0,96.68,846.844Z" transform="translate(-77.51 -821.504)" fill="#cadbf9"/>
        <path id="Trazado_969837" data-name="Trazado 969837" d="M98.122,848.333a1.439,1.439,0,0,0-1.438-1.49H86.6a1.439,1.439,0,0,0-1.438,1.49Z" transform="translate(-77.513 -821.504)" fill="#a1b7eb"/>
        <path id="Trazado_969838" data-name="Trazado 969838" d="M111.626,846.844h-2.8a1.44,1.44,0,0,1,1.419,1.686l-1.289,7.42a2.233,2.233,0,0,1-2.194,1.816h2.8a2.233,2.233,0,0,0,2.194-1.816l1.289-7.42A1.44,1.44,0,0,0,111.626,846.844Z" transform="translate(-92.456 -821.504)" fill="#a1b7eb"/>
      </g>
      <g id="Grupo_1119172" data-name="Grupo 1119172" transform="translate(-8715.321 -4092.043)">
        <g id="Grupo_1119167" data-name="Grupo 1119167" transform="translate(14.415 14.399)">
          <path id="Trazado_969839" data-name="Trazado 969839" d="M890.647,822.686c.414-.3,1.254.06,3.983-1.077,3.981-1.658,5.536-10.226,5.536-10.226-6.058-.759-5.674,7.97-8.019,9.463a4.441,4.441,0,0,0-1.784,1.84Z" transform="translate(-890.363 -811.337)" fill="#66e8c4"/>
          <path id="Trazado_969840" data-name="Trazado 969840" d="M900.87,814.041c-1.245,2.539-2.716,6.284-5.2,7.478A5.809,5.809,0,0,0,894.1,822.6a11.222,11.222,0,0,0,3.117-.886c3.981-1.658,5.536-10.226,5.536-10.226S902.116,811.5,900.87,814.041Z" transform="translate(-892.946 -811.442)" fill="#3fd2c5"/>
        </g>
        <g id="Grupo_1119168" data-name="Grupo 1119168" transform="translate(4.724 4.484)">
          <path id="Trazado_969841" data-name="Trazado 969841" d="M866.332,800.424h.656c.427-.907.564-2.612-.863-5.744-2.64-5.795-3.973-13.31-2.133-15.52,0,0-6.3,4.491-4.868,9.162C860.469,792.707,867.238,795.627,866.332,800.424Z" transform="translate(-858.912 -779.16)" fill="#35bfe6"/>
          <path id="Trazado_969842" data-name="Trazado 969842" d="M871.408,800.424h.389c.427-.907.564-2.612-.863-5.744-2.64-5.795-3.973-13.31-2.133-15.52,0,0-4.159,4.625-2.581,9.053C867.779,792.586,872.579,794.862,871.408,800.424Z" transform="translate(-863.721 -779.16)" fill="#0a88d2"/>
        </g>
        <g id="Grupo_1119169" data-name="Grupo 1119169" transform="translate(0 15.304)">
          <path id="Trazado_969843" data-name="Trazado 969843" d="M849.5,822.269c2.4.977,3.424,1.627,4.092,2.449h.842c-.629-1.9-1-3.937-2.482-5.476-1.677-1.747-8.14-4.623-8.362-4.957S846.265,820.95,849.5,822.269Z" transform="translate(-843.582 -814.275)" fill="#49d3d5"/>
          <path id="Trazado_969844" data-name="Trazado 969844" d="M853.725,824.207c.05.153.123.337.21.538h.53c-.63-1.9-1-3.937-2.482-5.476-1.677-1.747-8.14-4.623-8.362-4.957a24.97,24.97,0,0,0,6.626,5.732A6.634,6.634,0,0,1,853.725,824.207Z" transform="translate(-843.609 -814.3)" fill="#0fa1b8"/>
        </g>
        <g id="Grupo_1119171" data-name="Grupo 1119171" transform="translate(10.259 0)">
          <path id="Trazado_969845" data-name="Trazado 969845" d="M880.581,787.609a9.021,9.021,0,0,1-.615,2.747h.458c1.574-2.032,3.995-5.976,3.542-10.581-.662-6.73-1.383-15.167-1.383-15.167s-8.859,6.717-4.5,14.167C880.256,782.489,880.732,785.451,880.581,787.609Z" transform="translate(-876.877 -764.608)" fill="#66e8c7"/>
          <g id="Grupo_1119170" data-name="Grupo 1119170" transform="translate(3.631)">
            <path id="Trazado_969846" data-name="Trazado 969846" d="M889.184,775.192c.9,5.577.91,11.822-.522,14.464.261-.185.54-.379.826-.576a14.658,14.658,0,0,0,2.632-9.307c-.662-6.73-1.383-15.167-1.383-15.167S888.015,767.934,889.184,775.192Z" transform="translate(-888.662 -764.607)" fill="#3fd2c5"/>
          </g>
        </g>
        <path id="Trazado_969847" data-name="Trazado 969847" d="M879.923,846.844H869.84a1.44,1.44,0,0,0-1.419,1.686l1.289,7.42a2.233,2.233,0,0,0,2.194,1.816h5.955a2.233,2.233,0,0,0,2.194-1.816l1.289-7.42A1.44,1.44,0,0,0,879.923,846.844Z" transform="translate(-860.753 -821.504)" fill="#cadbf9"/>
        <path id="Trazado_969848" data-name="Trazado 969848" d="M881.365,848.333a1.439,1.439,0,0,0-1.438-1.49H869.844a1.439,1.439,0,0,0-1.438,1.49Z" transform="translate(-860.756 -821.504)" fill="#a1b7eb"/>
        <path id="Trazado_969849" data-name="Trazado 969849" d="M894.869,846.844h-2.8a1.44,1.44,0,0,1,1.419,1.686l-1.289,7.42A2.233,2.233,0,0,1,890,857.767h2.8A2.233,2.233,0,0,0,895,855.951l1.289-7.42A1.44,1.44,0,0,0,894.869,846.844Z" transform="translate(-875.699 -821.504)" fill="#a1b7eb"/>
      </g>
      <g id="Grupo_1119220" data-name="Grupo 1119220" transform="translate(-8934.139 -4224.092)">
        <g id="Grupo_1119174" data-name="Grupo 1119174" transform="translate(95.169 69.826)">
          <path id="Trazado_969850" data-name="Trazado 969850" d="M558.664,687.452H453.678a7.521,7.521,0,0,1-7.521-7.521V613.192a7.521,7.521,0,0,1,7.521-7.521H558.664a7.521,7.521,0,0,1,7.521,7.521V679.93A7.521,7.521,0,0,1,558.664,687.452Z" transform="translate(-444.967 -592.421)" fill="#65260f"/>
          <path id="Trazado_969851" data-name="Trazado 969851" d="M607.116,579.024h-4.25v3.631h3.714v8.417H575.55v-8.417h4.869v-3.631h-5.406a3.1,3.1,0,0,0-3.095,3.095v9.491a3.1,3.1,0,0,0,3.095,3.094h32.1a3.1,3.1,0,0,0,3.094-3.094v-9.491A3.1,3.1,0,0,0,607.116,579.024Z" transform="translate(-531.978 -573.984)" fill="#752c15"/>
          <path id="Trazado_969852" data-name="Trazado 969852" d="M571.891,606.7h-9.077v-1.4a.825.825,0,0,1,.825-.825h7.427a.825.825,0,0,1,.825.825v1.4Z" transform="translate(-525.678 -591.588)" fill="#fde86b"/>
          <path id="Trazado_969853" data-name="Trazado 969853" d="M683.84,606.7h-9.077v-1.4a.825.825,0,0,1,.825-.825h7.427a.825.825,0,0,1,.825.825Z" transform="translate(-603.133 -591.588)" fill="#fde86b"/>
          <path id="Trazado_969854" data-name="Trazado 969854" d="M552.685,693.48H449.746a7.452,7.452,0,0,1-7.452-7.452V619.151a7.452,7.452,0,0,1,7.452-7.452H552.685a7.452,7.452,0,0,1,7.452,7.452v66.876A7.452,7.452,0,0,1,552.685,693.48Z" transform="translate(-442.294 -596.591)" fill="#b15226"/>
          <path id="Trazado_969855" data-name="Trazado 969855" d="M560.138,627.1a7.466,7.466,0,0,0-7.675-7.237H449.969a7.466,7.466,0,0,0-7.675,7.237v9.66l57.422,18.184a11.4,11.4,0,0,0,6.952-.028L560.138,637.5Z" transform="translate(-442.294 -602.24)" fill="#65260f"/>
          <path id="Trazado_969856" data-name="Trazado 969856" d="M560.138,618.936a7.465,7.465,0,0,0-7.675-7.237H449.969a7.465,7.465,0,0,0-7.675,7.237v9.66l57.422,18.184a11.4,11.4,0,0,0,6.952-.028l53.471-17.417Z" transform="translate(-442.294 -596.591)" fill="#c96828"/>
          <path id="Trazado_969857" data-name="Trazado 969857" d="M449.518,613.91H553.544a7.9,7.9,0,0,1,6.769,3.665,7.569,7.569,0,0,0-7.535-5.877H450.283a7.568,7.568,0,0,0-7.534,5.877A7.9,7.9,0,0,1,449.518,613.91Z" transform="translate(-442.609 -596.59)" fill="#eb7c44"/>
          <path id="Trazado_969858" data-name="Trazado 969858" d="M625.074,722.459H612.2a1.443,1.443,0,0,1-1.442-1.442v-8.126a1.443,1.443,0,0,1,1.442-1.442h12.877a1.442,1.442,0,0,1,1.442,1.442v8.126A1.442,1.442,0,0,1,625.074,722.459Z" transform="translate(-558.846 -665.605)" fill="#ffad35"/>
          <path id="Trazado_969859" data-name="Trazado 969859" d="M625.031,711.449H612.239a1.445,1.445,0,0,0-1.485,1.4v4.98h15.762v-4.98A1.445,1.445,0,0,0,625.031,711.449Z" transform="translate(-558.846 -665.605)" fill="#fde86b"/>
          <path id="Trazado_969860" data-name="Trazado 969860" d="M615.525,565.358c-12.047-5.934-23.7-.236-24.189.009a3.631,3.631,0,1,0,3.239,6.5c.089-.043,9-4.3,17.74.006a3.629,3.629,0,0,0,4.863-1.652A3.636,3.636,0,0,0,615.525,565.358Z" transform="translate(-544.023 -562.668)" fill="#65260f"/>
          <path id="Trazado_969861" data-name="Trazado 969861" d="M552.725,611.7h-2.244c4.737,21.21,13.353,67.17.6,73.084-15.113,7.009-94.228,2.489-108.731,1.593a7.446,7.446,0,0,0,7.435,7.1H552.726a7.452,7.452,0,0,0,7.452-7.452V619.151A7.453,7.453,0,0,0,552.725,611.7Z" transform="translate(-442.334 -596.591)" fill="#231f20" opacity="0.15"/>
          <ellipse id="Elipse_13681" data-name="Elipse 13681" cx="0.483" cy="0.414" rx="0.483" ry="0.414" transform="translate(54.205 53.439)" fill="#fff"/>
          <ellipse id="Elipse_13682" data-name="Elipse 13682" cx="1.931" cy="10.016" rx="1.931" ry="10.016" transform="translate(9.316 54.887)" fill="#c96828"/>
        </g>
        <g id="Grupo_1119177" data-name="Grupo 1119177" transform="translate(3.099 0)">
          <path id="Trazado_969862" data-name="Trazado 969862" d="M482.181,781.975H471.635a8.517,8.517,0,0,0-8.517,8.517v6.666H490.7v-6.666A8.517,8.517,0,0,0,482.181,781.975Z" transform="translate(-364.632 -644.575)" fill="#db9f77"/>
          <path id="Trazado_969863" data-name="Trazado 969863" d="M452.2,859.031H373.782a3.028,3.028,0,0,0-3.028,3.028V864.6h84.474v-2.542A3.028,3.028,0,0,0,452.2,859.031Z" transform="translate(-300.728 -697.887)" fill="#f4ae81"/>
          <path id="Trazado_969864" data-name="Trazado 969864" d="M456.044,817.07h-60.3a6.359,6.359,0,0,0-6.359,6.359V830H462.4v-6.57A6.36,6.36,0,0,0,456.044,817.07Z" transform="translate(-313.618 -668.856)" fill="#cc8964"/>
          <path id="Trazado_969865" data-name="Trazado 969865" d="M497.1,534.446h0c-1.84,0-4.6-.617-4.6-2.088l1.769-106.493c0-1.472.991-2.264,2.83-2.264h0c1.84,0,2.824.787,2.824,2.259l1.775,106.5C501.7,533.829,498.942,534.446,497.1,534.446Z" transform="translate(-384.963 -396.625)" fill="#e5b18e"/>
          <path id="Trazado_969866" data-name="Trazado 969866" d="M500.377,778.938h-9.2a.589.589,0,0,1-.589-.589v-1.2a.589.589,0,0,1,.589-.589h9.2a.589.589,0,0,1,.589.589v1.2A.589.589,0,0,1,500.377,778.938Z" transform="translate(-383.639 -640.828)" fill="#cc8964"/>
          <path id="Trazado_969867" data-name="Trazado 969867" d="M500.446,440.346h-9.335a.521.521,0,0,1-.521-.521v-.815a.521.521,0,0,1,.521-.521h9.335a.521.521,0,0,1,.521.521v.815A.521.521,0,0,1,500.446,440.346Z" transform="translate(-383.639 -406.927)" fill="#cc8964"/>
          <path id="Trazado_969868" data-name="Trazado 969868" d="M153.171,488.988l35.356-58.606.632-1.048.6,1.054,33.684,59.038-2.776.553-32.146-59.344,1.234.006L155.91,489.566Z" transform="translate(-150.189 -400.593)" fill="#e5b18e"/>
          <g id="Grupo_1119175" data-name="Grupo 1119175" transform="translate(0 86.219)">
            <path id="Trazado_969869" data-name="Trazado 969869" d="M144.192,615.87h74.114a.9.9,0,0,1,.632,1.547c-7.412,7.216-40.907,35.73-75.255-.372A.7.7,0,0,1,144.192,615.87Z" transform="translate(-143.492 -615.87)" fill="#fadca2"/>
            <path id="Trazado_969870" data-name="Trazado 969870" d="M218.711,615.87H215.2c-9.225,8.449-39.516,31.26-71.119,1.159,0,0,.006.01.011.015,34.348,36.1,67.843,7.588,75.255.372A.9.9,0,0,0,218.711,615.87Z" transform="translate(-143.897 -615.87)" fill="#e5b767"/>
          </g>
          <path id="Trazado_969871" data-name="Trazado 969871" d="M629.41,488.988l35.356-58.606.632-1.048.6,1.054,33.685,59.038-2.777.553-32.145-59.344,1.234.006-33.847,58.924Z" transform="translate(-479.685 -400.593)" fill="#e5b18e"/>
          <g id="Grupo_1119176" data-name="Grupo 1119176" transform="translate(147.08 86.892)">
            <path id="Trazado_969872" data-name="Trazado 969872" d="M621.523,618.054h74.114a.9.9,0,0,1,.632,1.547c-7.412,7.216-40.907,35.73-75.255-.372A.7.7,0,0,1,621.523,618.054Z" transform="translate(-620.824 -618.054)" fill="#fadca2"/>
            <path id="Trazado_969873" data-name="Trazado 969873" d="M696.042,618.054h-3.514c-9.225,8.449-39.516,31.26-71.119,1.159,0,0,.006.01.011.015,34.348,36.1,67.843,7.588,75.254.372A.9.9,0,0,0,696.042,618.054Z" transform="translate(-621.228 -618.054)" fill="#e5b767"/>
          </g>
          <path id="Trazado_969874" data-name="Trazado 969874" d="M383.126,360.788c-16.7-6.119-35.126,5.048-35.126,5.048l-4.318-26.465-4.318,26.465s-18.424-11.167-35.126-5.048a122.6,122.6,0,0,1-33.4,6.731v2.448h145.7v-2.448A122.624,122.624,0,0,1,383.126,360.788Z" transform="translate(-231.596 -338.35)" fill="#f4ae81"/>
          <circle id="Elipse_13683" data-name="Elipse 13683" cx="3.063" cy="3.063" r="3.063" transform="matrix(0.993, -0.122, 0.122, 0.993, 35.435, 26.938)" fill="#f4ae81"/>
          <ellipse id="Elipse_13684" data-name="Elipse 13684" cx="3.062" cy="3.063" rx="3.062" ry="3.063" transform="translate(182.175 26.864) rotate(-5.653)" fill="#f4ae81"/>
          <path id="Trazado_969875" data-name="Trazado 969875" d="M503.786,339.12a3.063,3.063,0,1,1-3.063-3.062A3.063,3.063,0,0,1,503.786,339.12Z" transform="translate(-388.531 -336.057)" fill="#f4ae81"/>
        </g>
        <g id="Grupo_1119184" data-name="Grupo 1119184" transform="translate(10.994 123.16)">
          <g id="Grupo_1119181" data-name="Grupo 1119181">
            <g id="Grupo_1119178" data-name="Grupo 1119178" transform="translate(3.752 25.357)">
              <path id="Trazado_969876" data-name="Trazado 969876" d="M262.913,820.886v-2.833H188.241c-3.837,0-6.949,4.061-6.949,9.07v.056c0,5.009,3.111,9.07,6.949,9.07h74.672v-2.833A19.811,19.811,0,0,1,262.913,820.886Z" transform="translate(-181.292 -818.053)" fill="#f85427"/>
              <path id="Trazado_969877" data-name="Trazado 969877" d="M188.241,818.054h30.151a5.869,5.869,0,0,1,.184,1.448v8.282a5.046,5.046,0,0,1-4.749,5.3H182.966a10.784,10.784,0,0,1-1.674-5.9v-.056C181.292,822.115,184.4,818.054,188.241,818.054Z" transform="translate(-181.292 -818.054)" fill="#ff6c3c"/>
              <path id="Trazado_969878" data-name="Trazado 969878" d="M351.487,818.054H314.869c-3.068,0-5.556,3.247-5.556,7.253V829c0,4.005,2.488,7.252,5.556,7.252h36.618v-2.833a19.811,19.811,0,0,1,0-12.531v-2.833Z" transform="translate(-269.866 -818.054)" fill="#d83a21"/>
              <path id="Trazado_969879" data-name="Trazado 969879" d="M320.023,827.248c-2.113,0-3.826,2.236-3.826,4.994v2.542c0,2.758,1.713,4.994,3.826,4.994H356.25a22.628,22.628,0,0,1,0-12.531Z" transform="translate(-274.629 -824.415)" fill="#edf0ef"/>
              <path id="Trazado_969880" data-name="Trazado 969880" d="M356.25,827.248H320.023c-2.113,0-3.826,2.236-3.826,4.994v1.271h39.151A23.392,23.392,0,0,1,356.25,827.248Z" transform="translate(-274.629 -824.415)" fill="#dee1de" opacity="0.83"/>
            </g>
            <g id="Grupo_1119179" data-name="Grupo 1119179" transform="translate(5.729)">
              <path id="Trazado_969881" data-name="Trazado 969881" d="M187.708,737.553V735.76h58.775a5.609,5.609,0,0,1,5.469,5.74v.035a5.609,5.609,0,0,1-5.469,5.74H187.708v-1.793A10.239,10.239,0,0,0,187.708,737.553Z" transform="translate(-187.708 -735.76)" fill="#fab001"/>
              <path id="Trazado_969882" data-name="Trazado 969882" d="M324.841,735.759H301.109a3.031,3.031,0,0,0-.145.916v5.241a3.561,3.561,0,0,0,3.739,3.352h24.29a5.884,5.884,0,0,0,1.317-3.734V741.5A5.609,5.609,0,0,0,324.841,735.759Z" transform="translate(-266.066 -735.759)" fill="#ffc71f"/>
              <path id="Trazado_969883" data-name="Trazado 969883" d="M327.189,735.759h-4.248a6.685,6.685,0,0,1,2.95,5.738v.04a6.685,6.685,0,0,1-2.95,5.738h4.248c3.021,0,4.788-2.6,4.788-5.769v-.06C331.978,738.276,330.21,735.759,327.189,735.759Z" transform="translate(-281.272 -735.759)" fill="#231f20" opacity="0.15"/>
              <path id="Trazado_969884" data-name="Trazado 969884" d="M187.708,735.759H216.53a4.485,4.485,0,0,1,4.373,4.59v2.336a4.485,4.485,0,0,1-4.373,4.59H187.708v-1.793a10.239,10.239,0,0,0,0-7.93v-1.793Z" transform="translate(-187.708 -735.759)" fill="#ea9d03"/>
              <path id="Trazado_969885" data-name="Trazado 969885" d="M216.222,741.578a3.088,3.088,0,0,1,3.011,3.16v1.609a3.089,3.089,0,0,1-3.011,3.16H187.708a11.653,11.653,0,0,0,0-7.93h28.514Z" transform="translate(-187.708 -739.785)" fill="#edf0ef"/>
              <path id="Trazado_969886" data-name="Trazado 969886" d="M187.708,741.578h28.514a3.088,3.088,0,0,1,3.011,3.16v.8H188.418A12.184,12.184,0,0,0,187.708,741.578Z" transform="translate(-187.708 -739.785)" fill="#dee1de" opacity="0.83"/>
            </g>
            <g id="Grupo_1119180" data-name="Grupo 1119180" transform="translate(0 11.516)">
              <path id="Trazado_969887" data-name="Trazado 969887" d="M169.116,775.282v-2.149h71.055c3.652,0,5.986,3.1,5.986,6.9v.043c0,3.8-2.334,6.863-5.986,6.863H169.116v-2.149A12.176,12.176,0,0,0,169.116,775.282Z" transform="translate(-169.116 -773.133)" fill="#4796eb"/>
              <path id="Trazado_969888" data-name="Trazado 969888" d="M340.906,780.03v.043a7.824,7.824,0,0,1-1.11,4.132H309.639a3.8,3.8,0,0,1-3.577-3.985v-7.087H334.92C338.572,773.133,340.906,776.23,340.906,780.03Z" transform="translate(-263.865 -773.133)" fill="#60abef"/>
              <path id="Trazado_969889" data-name="Trazado 969889" d="M337.74,773.133H332.6a7.994,7.994,0,0,1,3.567,6.877v.048a7.993,7.993,0,0,1-3.567,6.877h5.136a6.75,6.75,0,0,0,6.612-6.88v-.042A6.75,6.75,0,0,0,337.74,773.133Z" transform="translate(-282.229 -773.133)" fill="#231f20" opacity="0.15"/>
              <path id="Trazado_969890" data-name="Trazado 969890" d="M169.116,773.133H203.96a5.4,5.4,0,0,1,5.287,5.5v2.8a5.4,5.4,0,0,1-5.287,5.5H169.116v-2.149a12.176,12.176,0,0,0,0-9.5Z" transform="translate(-169.116 -773.133)" fill="#5384cc"/>
              <path id="Trazado_969891" data-name="Trazado 969891" d="M203.588,780.107a3.717,3.717,0,0,1,3.641,3.788v1.928a3.716,3.716,0,0,1-3.641,3.788H169.116a13.854,13.854,0,0,0,0-9.5h34.472Z" transform="translate(-169.116 -777.958)" fill="#edf0ef"/>
              <path id="Trazado_969892" data-name="Trazado 969892" d="M169.116,780.107h34.472a3.717,3.717,0,0,1,3.641,3.788v.964H169.974A14.5,14.5,0,0,0,169.116,780.107Z" transform="translate(-169.116 -777.958)" fill="#dee1de" opacity="0.83"/>
              <path id="Trazado_969893" data-name="Trazado 969893" d="M269.991,790.985a2.791,2.791,0,0,0-.394,1.5,8.454,8.454,0,0,1-.525,2.277l-1.138-1.184-1.226,1.184a11.935,11.935,0,0,0,.394-2.232,2.97,2.97,0,0,1,.613-1.549Z" transform="translate(-236.637 -785.484)" fill="#022fa0"/>
            </g>
          </g>
          <g id="Grupo_1119183" data-name="Grupo 1119183" transform="translate(13.169 30.578)">
            <g id="Grupo_1119182" data-name="Grupo 1119182">
              <path id="Trazado_969894" data-name="Trazado 969894" d="M212.894,840.733h3.44l-.226,1.039h-4.255V835h1.041v5.737Z" transform="translate(-211.853 -834.996)" fill="#f9bcac"/>
              <path id="Trazado_969895" data-name="Trazado 969895" d="M235.374,840.182H232.3l-.715,1.59h-1.141L233.5,835h.679l3.051,6.776h-1.141Zm-.471-1.039-1.059-2.358-1.068,2.358Z" transform="translate(-224.719 -834.996)" fill="#f9bcac"/>
              <path id="Trazado_969896" data-name="Trazado 969896" d="M260.885,835l-2.471,6.776h-.679l-.978-2.683-.978,2.683H255.1L252.629,835h1.114l1.693,4.707,1.322-3.65,1.313,3.65,1.7-4.707Z" transform="translate(-240.065 -834.996)" fill="#f9bcac"/>
            </g>
          </g>
        </g>
        <g id="Grupo_1119187" data-name="Grupo 1119187" transform="translate(150.622 118.643)">
          <g id="Grupo_1119185" data-name="Grupo 1119185" transform="translate(12.751)">
            <path id="Trazado_969897" data-name="Trazado 969897" d="M681.152,816.743l1.506-2.2a2.446,2.446,0,0,0-.636-3.4l-13.042-8.93a2.446,2.446,0,0,0-3.4.636l-1.506,2.2a2.446,2.446,0,0,0,.636,3.4l13.042,8.93A2.446,2.446,0,0,0,681.152,816.743Z" transform="translate(-663.646 -776.924)" fill="#f6af77"/>
            <path id="Trazado_969898" data-name="Trazado 969898" d="M737.881,736.058l1.506-2.2a2.446,2.446,0,0,0-.636-3.4l-13.042-8.93a2.446,2.446,0,0,0-3.4.636l-1.506,2.2a2.446,2.446,0,0,0,.636,3.4l13.042,8.93A2.446,2.446,0,0,0,737.881,736.058Z" transform="translate(-702.894 -721.099)" fill="#f6af77"/>
            <rect id="Rectángulo_416723" data-name="Rectángulo 416723" width="22.831" height="15.053" transform="translate(5.648 25.509) rotate(-55.598)" fill="#fbde9f"/>
            <rect id="Rectángulo_416724" data-name="Rectángulo 416724" width="7.213" height="28.413" transform="translate(23.645 28.36) rotate(-55.598)" fill="#f6af77"/>
            <path id="Trazado_969899" data-name="Trazado 969899" d="M743.125,788.789l-6.2,9.057.513.351a1.5,1.5,0,0,0,2.079-.389l4.512-6.589a1.5,1.5,0,0,0-.389-2.079Z" transform="translate(-714.345 -767.932)" fill="#706b7b"/>
            <path id="Trazado_969900" data-name="Trazado 969900" d="M824.133,847.387l-3.827,5.589a2.1,2.1,0,0,1-2.921.547l-.8-.549a2.1,2.1,0,0,1-.547-2.921l3.827-5.589a2.1,2.1,0,0,1,2.921-.547l.8.549A2.1,2.1,0,0,1,824.133,847.387Z" transform="translate(-768.825 -805.819)" fill="#706b7b"/>
            <rect id="Rectángulo_416725" data-name="Rectángulo 416725" width="15.116" height="17.876" transform="translate(6.664 21.53) rotate(-55.598)" fill="#fbde9f"/>
            <rect id="Rectángulo_416726" data-name="Rectángulo 416726" width="15.116" height="2.822" transform="translate(19.084 30.035) rotate(-55.598)" fill="#efcb84"/>
            <rect id="Rectángulo_416727" data-name="Rectángulo 416727" width="15.116" height="2.07" transform="translate(17.376 28.865) rotate(-55.598)" fill="#f7e7c9"/>
            <path id="Trazado_969901" data-name="Trazado 969901" d="M728.7,754.684h0a1.412,1.412,0,0,0-.367-1.962L714.2,743.048a1.412,1.412,0,0,0-1.962.367h0a1.412,1.412,0,0,0,.367,1.962l14.129,9.674A1.411,1.411,0,0,0,728.7,754.684Z" transform="translate(-697.096 -736.114)" fill="#f6af77"/>
            <path id="Trazado_969902" data-name="Trazado 969902" d="M695.8,802.72h0a1.412,1.412,0,0,0-.367-1.962l-14.128-9.674a1.411,1.411,0,0,0-1.962.367h0a1.411,1.411,0,0,0,.367,1.962l14.129,9.674A1.412,1.412,0,0,0,695.8,802.72Z" transform="translate(-674.338 -769.349)" fill="#f6af77"/>
          </g>
          <g id="Grupo_1119186" data-name="Grupo 1119186" transform="translate(0 41.673)">
            <path id="Trazado_969903" data-name="Trazado 969903" d="M655.085,861.232H623.591a1.329,1.329,0,0,0-1.329,1.329v3.564h34.152v-3.564A1.329,1.329,0,0,0,655.085,861.232Z" transform="translate(-622.262 -859.726)" fill="#706b7b"/>
            <rect id="Rectángulo_416728" data-name="Rectángulo 416728" width="28.79" height="1.505" transform="translate(2.681)" fill="#efcb84"/>
          </g>
        </g>
        <g id="Grupo_1119191" data-name="Grupo 1119191" transform="translate(47.177 148.698)">
          <g id="Grupo_1119190" data-name="Grupo 1119190">
            <g id="Grupo_1119189" data-name="Grupo 1119189">
              <path id="Trazado_969904" data-name="Trazado 969904" d="M461.08,820.862a6.924,6.924,0,0,1,1.184.346c-.007-.008-.006-.016-.014-.025-3.663-4.189-9.658-2.247-12.6-.908-2.854,1.3-15.71,4.139-16.5,4.313C443.089,823.95,454.844,819.636,461.08,820.862Z" transform="translate(-387.973 -818.639)" fill="#e5a969"/>
              <g id="Grupo_1119188" data-name="Grupo 1119188" transform="translate(0 0.059)">
                <path id="Trazado_969905" data-name="Trazado 969905" d="M294.626,822.526s20.526.521,31.238,2.053a28.4,28.4,0,0,0,5.647.152c-16.364-.7-41.209-5.9-41.209-5.9-2.394,4.005-5.406,13.26-2.68,19.2s7.744,3.57,7.744,3.57S309.03,832.714,294.626,822.526Z" transform="translate(-286.542 -818.83)" fill="#e5a969"/>
              </g>
            </g>
          </g>
          <path id="Trazado_969906" data-name="Trazado 969906" d="M299.007,830.826s-14.879,11.508,1.711,18.345C300.718,849.171,318.563,841.26,299.007,830.826Z" transform="translate(-290.922 -827.071)" fill="#fbc587"/>
          <path id="Trazado_969907" data-name="Trazado 969907" d="M312.779,826.9s20.526.521,31.238,2.053,26.266-5.064,33.785-3.585,5.913,12.8,1.589,17.194c0,0-2.429-.126-6.415-.687s-31.11-.717-39.525,1.081-19.931,3.017-19.931,3.017S327.183,837.085,312.779,826.9Z" transform="translate(-304.694 -823.143)" fill="#fedfb1"/>
          <path id="Trazado_969908" data-name="Trazado 969908" d="M420.067,837.512a29.783,29.783,0,0,1-6.512-.105l-.268-.037c1.251,2.378,3.449,7.711,1.388,12.9h0c2.637-.125,5.435-.21,8.21-.26C422.885,850.009,424.7,841.806,420.067,837.512Z" transform="translate(-374.232 -831.599)" fill="#dc5559"/>
        </g>
        <g id="Grupo_1119194" data-name="Grupo 1119194" transform="translate(0 144.093)">
          <g id="Grupo_1119192" data-name="Grupo 1119192" transform="translate(0 18.371)">
            <path id="Trazado_969909" data-name="Trazado 969909" d="M154.755,864.176H137.278v-.37a.49.49,0,0,1,.49-.49h16.5a.49.49,0,0,1,.49.49v.37Z" transform="translate(-136.094 -863.316)" fill="#ffad35"/>
            <path id="Trazado_969910" data-name="Trazado 969910" d="M152.437,866.108H134.278a.843.843,0,0,0-.843.843V869.5H153.28v-2.547A.843.843,0,0,0,152.437,866.108Z" transform="translate(-133.435 -865.248)" fill="#c96828"/>
          </g>
          <g id="Grupo_1119193" data-name="Grupo 1119193" transform="translate(2.243)">
            <path id="Trazado_969911" data-name="Trazado 969911" d="M155.419,816.078a8.118,8.118,0,0,0-.173-3.142c-.674-2.452-2.649-2.8-2.351-5.336.29-2.475,1.54-3.615,2.6-3.782,1.557-.245,2.312-.288,3.684,1.524a3.454,3.454,0,0,1,.141,4.461,4.991,4.991,0,0,0-1.148,2.791,34.23,34.23,0,0,0,.288,3.494Z" transform="translate(-149.121 -803.695)" fill="#65260f"/>
            <path id="Trazado_969912" data-name="Trazado 969912" d="M163.514,805.341c-1.112-1.469-1.819-1.719-2.876-1.63a3.777,3.777,0,0,1,1.4,2.04,5.16,5.16,0,0,0-2.914.7s2.515-.744,3.981.253-.979,3.858-.809,5.423-.236,2.066-.236,2.066c-.868.019-1.924,1.113-2.264,1.491,0,.053-.01.1-.014.145l2.138.249.875,0a34.228,34.228,0,0,1-.288-3.494,4.991,4.991,0,0,1,1.148-2.791A3.453,3.453,0,0,0,163.514,805.341Z" transform="translate(-153.453 -803.695)" fill="#231f20" opacity="0.5"/>
            <path id="Trazado_969913" data-name="Trazado 969913" d="M160.249,842.18l-2.228-.006a1.847,1.847,0,0,0-1.8,1.886l0,1.48,5.826.015,0-1.48A1.846,1.846,0,0,0,160.249,842.18Z" transform="translate(-151.438 -830.318)" fill="#3a1614"/>
            <path id="Trazado_969914" data-name="Trazado 969914" d="M161.3,843.361l0,.834a.627.627,0,0,1-.612.64l-4.464-.012c0,.019,0,.038,0,.058l0,1.48,5.826.015,0-1.48A1.918,1.918,0,0,0,161.3,843.361Z" transform="translate(-151.438 -831.139)" opacity="0.2"/>
            <path id="Trazado_969915" data-name="Trazado 969915" d="M156.264,849.955l-11.009-.028a1.132,1.132,0,0,0-1.135,1.129l0,1.122,13.273.034,0-1.122A1.132,1.132,0,0,0,156.264,849.955Z" transform="translate(-143.069 -835.682)" fill="#612d2a"/>
            <path id="Trazado_969916" data-name="Trazado 969916" d="M156.655,850.184a1.465,1.465,0,0,1,.124.6h0a.926.926,0,0,1-.824,1l-11.838-.031,0,.6,13.273.035,0-1A1.24,1.24,0,0,0,156.655,850.184Z" transform="translate(-143.068 -835.859)" opacity="0.2"/>
            <path id="Trazado_969917" data-name="Trazado 969917" d="M155.3,856.78l-13.808-.036a.774.774,0,0,0-.776.772l0,1.228,15.356.04,0-1.228A.774.774,0,0,0,155.3,856.78Z" transform="translate(-140.715 -840.398)" fill="#8b5957"/>
            <path id="Trazado_969918" data-name="Trazado 969918" d="M155.375,856.86h-.035a.988.988,0,0,1,.12.481,1.059,1.059,0,0,1-.942,1.144l-13.8-.036v.375l15.356.04,0-1.147A.79.79,0,0,0,155.375,856.86Z" transform="translate(-140.715 -840.478)" opacity="0.2"/>
          </g>
        </g>
        <g id="Grupo_1119208" data-name="Grupo 1119208" transform="translate(27.147 47.851)">
          <path id="Trazado_969919" data-name="Trazado 969919" d="M271.345,545.294a3.02,3.02,0,0,0,2.816,1.361h0l-.982,2.293c-2.511.706-4.824-1.661-4.824-1.661-1.867-1.823-2.371-11.487-2.371-11.487C268.952,536.614,270.531,543.745,271.345,545.294Z" transform="translate(-252.289 -522.104)" fill="#e55daa"/>
          <g id="Grupo_1119195" data-name="Grupo 1119195" transform="translate(15.172 57.384)">
            <path id="Trazado_969920" data-name="Trazado 969920" d="M272.147,677.6a5.622,5.622,0,0,0-.173,1.4l-.945-.222.057-1.189Z" transform="translate(-270.951 -677.585)" fill="#e2a36a"/>
            <path id="Trazado_969921" data-name="Trazado 969921" d="M273.855,682.152a16.325,16.325,0,0,1-3.054.038l.07-.745.959.014S273.87,681.961,273.855,682.152Z" transform="translate(-270.793 -680.255)" fill="#e2a36a"/>
            <path id="Trazado_969922" data-name="Trazado 969922" d="M270.775,682.84l.048-.415s.176.234,1.1.247c.818.011.915-.28.915-.28.764.231,1.192.275,1.08.43A16.515,16.515,0,0,1,270.775,682.84Z" transform="translate(-270.775 -680.91)" fill="#2d313d"/>
            <path id="Trazado_969923" data-name="Trazado 969923" d="M271.114,677.584l-.045,1a.975.975,0,0,1,.941.013,7.582,7.582,0,0,1,.164-.994Z" transform="translate(-270.978 -677.584)" fill="#d38753"/>
          </g>
          <g id="Grupo_1119196" data-name="Grupo 1119196" transform="translate(19.604 57.446)">
            <path id="Trazado_969924" data-name="Trazado 969924" d="M286.532,677.8a5.615,5.615,0,0,0-.173,1.4l-.944-.222.057-1.189Z" transform="translate(-285.336 -677.786)" fill="#e2a36a"/>
            <path id="Trazado_969925" data-name="Trazado 969925" d="M288.24,682.353a16.325,16.325,0,0,1-3.054.038l.07-.745.959.013S288.255,682.161,288.24,682.353Z" transform="translate(-285.178 -680.457)" fill="#e2a36a"/>
            <path id="Trazado_969926" data-name="Trazado 969926" d="M285.159,683.042l.048-.415s.176.234,1.1.247c.818.011.915-.28.915-.28.764.231,1.191.275,1.08.43A16.516,16.516,0,0,1,285.159,683.042Z" transform="translate(-285.159 -681.112)" fill="#2d313d"/>
            <path id="Trazado_969927" data-name="Trazado 969927" d="M285.5,677.786l-.045,1a.976.976,0,0,1,.942.013,7.579,7.579,0,0,1,.164-.994Z" transform="translate(-285.362 -677.786)" fill="#d38753"/>
          </g>
          <path id="Trazado_969928" data-name="Trazado 969928" d="M258.97,592.856s-5.953,1.688-5.157,7.161l15.326.215s.479-2.349-.481-3.424S258.97,592.856,258.97,592.856Z" transform="translate(-243.817 -561.579)" fill="#476291"/>
          <path id="Trazado_969929" data-name="Trazado 969929" d="M288.691,615.706s-2.1,6-4.365,19.342l-1.542-.022s-.953-9.99-.681-12.679,2.3-6.913,2.3-6.913S287.338,614.81,288.691,615.706Z" transform="translate(-263.407 -577.054)" fill="#476291"/>
          <path id="Trazado_969930" data-name="Trazado 969930" d="M270.291,608.773l5.787.047s-2.1,4.23-2.244,6.737.681,12.679.681,12.679l.642.009S274.8,617.46,275,615.725s2.542-7.415,2.43-7.8-7.327-2.518-7.327-2.518Z" transform="translate(-255.138 -570.264)" fill="#3e5c87"/>
          <path id="Trazado_969931" data-name="Trazado 969931" d="M243.528,592.475l-12.108-.17,8.592,4.487Z" transform="translate(-228.375 -561.198)" fill="#3e5c87"/>
          <path id="Trazado_969932" data-name="Trazado 969932" d="M229.28,592.3a9.377,9.377,0,0,0-.486,7.226l17.943.251s.4-2.392-.607-3.426C244.731,594.918,234.334,593.578,229.28,592.3Z" transform="translate(-226.235 -561.198)" fill="#5775aa"/>
          <path id="Trazado_969933" data-name="Trazado 969933" d="M273.71,615.641s-1.957,4.311-3.912,19.348l-1.547-.022s-1.13-9.993-.91-12.683a27.361,27.361,0,0,1,1.977-6.706S272.34,614.745,273.71,615.641Z" transform="translate(-253.207 -577.057)" fill="#5775aa"/>
          <path id="Trazado_969934" data-name="Trazado 969934" d="M228.808,606.94l13.55.19s-1.824,4.412-1.977,6.706c-.193,2.9.91,12.683.91,12.683l.574.008s-.684-10.038-.39-12.552,2.524-7.357,2.163-7.877-9.824-1.167-15.26-3.084A10.34,10.34,0,0,0,228.808,606.94Z" transform="translate(-226.248 -568.607)" fill="#476291"/>
          <path id="Trazado_969935" data-name="Trazado 969935" d="M240.7,543.664c-.037,2.637.8,4.28,2.767,7.276a20.493,20.493,0,0,1-12.431-.174,20.536,20.536,0,0,1,3.992-6.415l.035-.039.047-.053.034-.037c.842-1.475-1.679-3.212-2.642-6.112-.982-2.955-.513-4.483-.513-4.483,3.73-1.61,5.909-1.963,10.1-.178l.123,2.559s1.115,2.012.975,2.905S240.724,542.258,240.7,543.664Z" transform="translate(-228.112 -519.652)" fill="#ff77c4"/>
          <g id="Grupo_1119201" data-name="Grupo 1119201" transform="translate(6.807 8.092)">
            <g id="Grupo_1119200" data-name="Grupo 1119200">
              <path id="Trazado_969936" data-name="Trazado 969936" d="M243.63,530.711c-.067.975,1.451,1.685,2.263,1.741s2.28-.45,2.347-1.425-.977-.873-2.25-.961S243.7,529.736,243.63,530.711Z" transform="translate(-243.628 -526.165)" fill="#feb48c"/>
              <g id="Grupo_1119199" data-name="Grupo 1119199" transform="translate(0.782)">
                <g id="Grupo_1119197" data-name="Grupo 1119197">
                  <path id="Trazado_969937" data-name="Trazado 969937" d="M247.675,523.68h0a1.625,1.625,0,0,0,1.728-1.506l.194-2.83a1.625,1.625,0,0,0-1.506-1.728h0a1.625,1.625,0,0,0-1.728,1.506l-.194,2.83A1.625,1.625,0,0,0,247.675,523.68Z" transform="translate(-246.165 -517.613)" fill="#feb48c"/>
                </g>
                <g id="Grupo_1119198" data-name="Grupo 1119198" transform="translate(0.11)">
                  <path id="Trazado_969938" data-name="Trazado 969938" d="M249.708,521.3l.134-1.957a1.621,1.621,0,0,0-3.234-.222l-.088,1.287a2.99,2.99,0,0,0,1.4,1.028A2.913,2.913,0,0,0,249.708,521.3Z" transform="translate(-246.52 -517.613)" fill="#ba6549"/>
                </g>
              </g>
            </g>
          </g>
          <path id="Trazado_969939" data-name="Trazado 969939" d="M243.47,565.832c-.356-1.256-2.824-3.2-2.767-7.276.023-1.632,2.347-3.526,2.491-4.775-.877.361-4.495,1.436-10.214.323,1.063,2.921,2.42,3.722,2.167,5.008l-.034.037-.047.053-.035.04a20.54,20.54,0,0,0-3.992,6.415,24.018,24.018,0,0,0,6.216,1.046A20.1,20.1,0,0,0,243.47,565.832Z" transform="translate(-228.111 -534.544)" fill="#ed65b2"/>
          <path id="Trazado_969940" data-name="Trazado 969940" d="M255.542,550.675a15.108,15.108,0,0,1,.4-2.148,16.892,16.892,0,0,0,.575-3.528,34.145,34.145,0,0,0-1.341-4.942l-.165.056a34.939,34.939,0,0,1,1.332,4.9,16.877,16.877,0,0,1-.571,3.478,14.677,14.677,0,0,0-.4,2.186,15.126,15.126,0,0,0,1.421,6.386c.061-.008.123-.01.184-.018A14.978,14.978,0,0,1,255.542,550.675Z" transform="translate(-244.697 -525.049)" fill="#db52a3"/>
          <g id="Grupo_1119202" data-name="Grupo 1119202" transform="translate(9.106 15.53)">
            <path id="Trazado_969941" data-name="Trazado 969941" d="M259.484,541.751l-8.393,15.3s6.782,1.437,10.068.963l7.586-14.848Z" transform="translate(-251.091 -541.751)" fill="#f2f2f2"/>
            <path id="Trazado_969942" data-name="Trazado 969942" d="M259.484,541.751l1.468.224c-1.531,2.6-4.054,7.046-4.189,8.391-.117,1.176-1.446,4.473-2.678,7.223-1.716-.268-2.994-.539-2.994-.539Z" transform="translate(-251.091 -541.751)" fill="#e0e0ee"/>
            <path id="Trazado_969943" data-name="Trazado 969943" d="M270.161,574.417c.61-1.19,3.234-6.015,3.234-6.015s-.791,2.342-1.761,5.606a17.994,17.994,0,0,0-.632,2.536c-.915-.018-1.912-.1-2.886-.21C268.611,575.617,269.658,575.4,270.161,574.417Z" transform="translate(-262.87 -560.19)" fill="#e0e0ee"/>
          </g>
          <g id="Grupo_1119205" data-name="Grupo 1119205" transform="translate(0 14.001)">
            <g id="Grupo_1119204" data-name="Grupo 1119204" transform="translate(12.103 14.199)">
              <g id="Grupo_1119203" data-name="Grupo 1119203" transform="translate(1.087 0.755)">
                <path id="Trazado_969944" data-name="Trazado 969944" d="M265.206,585.442c.689.452,1.6.862,1.579,1.229-.054.8-1.238.93-1.732.586a2.976,2.976,0,0,1-.708-1.323S264.524,584.995,265.206,585.442Z" transform="translate(-264.345 -585.321)" fill="#f4be84"/>
                <path id="Trazado_969945" data-name="Trazado 969945" d="M272.518,590.072c.112-.041-.162-.9-.28-1.062-.1-.126-.185-.291-1.257-.926l.228.793a7.534,7.534,0,0,1,.782.362C272.077,589.315,272.142,589.964,272.518,590.072Z" transform="translate(-268.936 -587.233)" fill="#f4be84"/>
                <path id="Trazado_969946" data-name="Trazado 969946" d="M270.774,592.23c.166.031.177-.83.139-1.031a6.953,6.953,0,0,0-.4-1.635l-.316.739s.357.867.375.989S270.558,592.029,270.774,592.23Z" transform="translate(-268.396 -588.256)" fill="#f4be84"/>
                <path id="Trazado_969947" data-name="Trazado 969947" d="M268.941,592.32c.159.03.17-.8.134-.99a6.671,6.671,0,0,0-.381-1.57l-.3.709s.343.833.36.949S268.734,592.128,268.941,592.32Z" transform="translate(-267.144 -588.393)" fill="#f4be84"/>
                <path id="Trazado_969948" data-name="Trazado 969948" d="M267.086,591.484c.135.026.144-.674.113-.838a5.638,5.638,0,0,0-.323-1.328l-.257.6s.291.7.3.8S266.911,591.322,267.086,591.484Z" transform="translate(-265.919 -588.087)" fill="#f4be84"/>
              </g>
              <path id="Trazado_969949" data-name="Trazado 969949" d="M262,584.323l-1.185-.235.295-1.218a13.371,13.371,0,0,1,1.653.876Z" transform="translate(-260.817 -582.87)" fill="#f4be84"/>
            </g>
            <path id="Trazado_969950" data-name="Trazado 969950" d="M225.491,536.79c-2.329.079-5.024,13.13-3.517,14.816,1.95,2.458,8.419.936,12,.986a2.946,2.946,0,0,0,.737-1.35c-2.54-1.473-9.181-1.6-9.757-1.876S227.812,536.712,225.491,536.79Z" transform="translate(-221.537 -536.79)" fill="#ff77c4"/>
            <path id="Trazado_969951" data-name="Trazado 969951" d="M222.288,553.418c-1.183-1.323.226-9.627,2.011-13.185-1.928,3.136-3.577,12.355-2.326,13.755,1.95,2.458,8.419.936,12,.986a4.2,4.2,0,0,0,.415-.561C230.783,554.4,224.218,555.851,222.288,553.418Z" transform="translate(-221.538 -539.172)" fill="#e55daa"/>
          </g>
          <path id="Trazado_969952" data-name="Trazado 969952" d="M241.554,533.767l2.726,2.787.817-1.153.755.665.52-.756.9.958.08-2.547-1.629.161Z" transform="translate(-235.386 -520.666)" fill="#db52a3"/>
          <path id="Trazado_969953" data-name="Trazado 969953" d="M241.554,529.622l1.266-1.892,2.9,2.007-1.338,2Z" transform="translate(-235.386 -516.521)" fill="#ed65b2"/>
          <path id="Trazado_969954" data-name="Trazado 969954" d="M255.7,529.354l-.635,1.506,1.42,1.763.209-1.924Z" transform="translate(-244.736 -517.644)" fill="#ed65b2"/>
          <g id="Grupo_1119207" data-name="Grupo 1119207" transform="translate(4.284)">
            <path id="Trazado_969955" data-name="Trazado 969955" d="M241.233,491.356a4.3,4.3,0,0,0-3.9,2.158,7,7,0,0,0-.894,2.673c.021,1.058-.223,1.2-.223,1.2a1.648,1.648,0,0,0-.724,1.787,2,2,0,0,1,.219-1.057,2.331,2.331,0,0,0,.084,1.692,2.092,2.092,0,0,1,.1-1.184,6.743,6.743,0,0,0,.086.9c.077.44-.06,2.171,1.085,2.925a2.5,2.5,0,0,1-.412-.927s.246.33.441.626-.04,1.448.3,2.288a7.975,7.975,0,0,1-.1-1.8,4.045,4.045,0,0,0,1.041,1.585,8.7,8.7,0,0,1-.815-1.4,3.393,3.393,0,0,0,.859.16s-.773-.126-.953-.564a5.09,5.09,0,0,1-.116-1.952.626.626,0,0,0,.344.387,4.018,4.018,0,0,1-.053.838.552.552,0,0,0,.217-.3,2.058,2.058,0,0,1,0,.741,1.186,1.186,0,0,0,.161-.515,5.065,5.065,0,0,1,.658.565l4.763-9.029S243.358,491.455,241.233,491.356Z" transform="translate(-235.44 -491.351)"/>
            <path id="Trazado_969956" data-name="Trazado 969956" d="M243.671,503.072s1.486-2.109,1.381-3.388a4.972,4.972,0,0,1-.093,1.771,1.674,1.674,0,0,0,.362-1.112,3.2,3.2,0,0,1-.464,3.257,1.583,1.583,0,0,0,.583-.49,3.924,3.924,0,0,1-.415.866,2.111,2.111,0,0,0,.683-1.069,2.929,2.929,0,0,1-.237.977,13.861,13.861,0,0,1,.394-4.394,1.918,1.918,0,0,1-.079.859,2.139,2.139,0,0,0,.283-1.885,1.689,1.689,0,0,0,.164-.613,8.424,8.424,0,0,1,.02,1.038,3.31,3.31,0,0,0,.1-.695,2.038,2.038,0,0,1,.013.676,2,2,0,0,0,0-1.088,1.75,1.75,0,0,0-.19-1.249c-.363-.537-1.365-1.853-1.365-1.853s.8.561.9.939a2.375,2.375,0,0,0-.333-.653.817.817,0,0,1,.309.274s.026-.3-.9-.79a1.119,1.119,0,0,0-.733-.662s-.246-1.149-2.233-1.242a4.023,4.023,0,0,0-3.642,2.017,3.247,3.247,0,0,0-1.05,1.966,5.459,5.459,0,0,1-.146,1.536,1.83,1.83,0,0,0-.525,1.786,1.867,1.867,0,0,1,.2-.988,2.175,2.175,0,0,0,.079,1.581,1.956,1.956,0,0,1,.09-1.107,6.284,6.284,0,0,0,.08.839c.072.411-.056,2.029,1.014,2.734a2.331,2.331,0,0,1-.385-.866s.23.309.412.585-.038,1.353.282,2.138a7.46,7.46,0,0,1-.1-1.68,3.784,3.784,0,0,0,.973,1.481,8.135,8.135,0,0,1-.762-1.3,3.176,3.176,0,0,0,.8.149s-.723-.118-.891-.527a4.59,4.59,0,0,1-.1-1.845,2.292,2.292,0,0,0,.311.324,4.021,4.021,0,0,1-.047.842.515.515,0,0,0,.2-.284,1.921,1.921,0,0,1,0,.693,1.11,1.11,0,0,0,.151-.481.807.807,0,0,0,.3.7C239.431,503.143,240.789,500.573,243.671,503.072Z" transform="translate(-236.105 -492.176)"/>
            <path id="Trazado_969957" data-name="Trazado 969957" d="M267.379,502.214c.014.038.022.061.022.061A.424.424,0,0,0,267.379,502.214Z" transform="translate(-257.538 -498.867)" fill="#f6f7f4"/>
            <g id="Grupo_1119206" data-name="Grupo 1119206" transform="translate(3.675 1.614)">
              <path id="Trazado_969958" data-name="Trazado 969958" d="M254.227,500.464a2.283,2.283,0,0,0-.363-1.2c-.373-.532-1.233-1.878-1.233-1.878a3.325,3.325,0,0,1,.9.871,2.024,2.024,0,0,0-.32-.588.837.837,0,0,1,.318.272s.027-.295-.92-.783a2.2,2.2,0,0,0-.968-.572h0l-4.277,8.853c.346.312.736.629.736.629l-.055-.128a3.26,3.26,0,0,0,2.367.458h0l.064-.017h0l.059-.019a2.292,2.292,0,0,0,.714-.459c.03-.027.06-.054.089-.082l.059-.058h0c.076-.075.148-.154.215-.235l.013-.015a2.151,2.151,0,0,0,.438-.763,4.873,4.873,0,0,0,.808-2.4,4.768,4.768,0,0,1-.1,1.757,1.63,1.63,0,0,0,.373-1.1,3.083,3.083,0,0,1-.479,3.231,1.62,1.62,0,0,0,.6-.486,3.829,3.829,0,0,1-.427.859,2.1,2.1,0,0,0,.7-1.06,2.825,2.825,0,0,1-.244.97,3.53,3.53,0,0,0,.2-3.422,3.493,3.493,0,0,0,.212-.936,1.841,1.841,0,0,1-.082.852,2.067,2.067,0,0,0,.292-1.87,1.636,1.636,0,0,0,.169-.608,8.132,8.132,0,0,1,.02,1.03,3.2,3.2,0,0,0,.1-.689,1.954,1.954,0,0,1,.013.67A1.923,1.923,0,0,0,254.227,500.464Z" transform="translate(-247.366 -496.588)"/>
            </g>
            <path id="Trazado_969959" data-name="Trazado 969959" d="M248.1,501.865a5.268,5.268,0,0,0,.931,1s.177,1.267.3,2.2a8.676,8.676,0,0,1-.313,2.878,4.759,4.759,0,0,1-1.542,1.8,2.572,2.572,0,0,1-2.558-.2l-.312-.2a3.223,3.223,0,0,1-1.264-1.916l-.114-1.061a.567.567,0,0,1-.229-.41,5.116,5.116,0,0,1,.068-.848,29.356,29.356,0,0,1,3.548-3.216,1.413,1.413,0,0,1,1.371-.1l.436-.233A1.558,1.558,0,0,0,248.1,501.865Z" transform="translate(-240.669 -498.423)" fill="#feb48c"/>
            <path id="Trazado_969960" data-name="Trazado 969960" d="M239.25,502.745a2.76,2.76,0,0,0,2.215-.641c.931-.878,1.377-1.286,1.377-1.286a2.175,2.175,0,0,0-.62.395,4.353,4.353,0,0,1,1.467-1.256,7.3,7.3,0,0,1,1.9-.29,4.314,4.314,0,0,0-1.123-.061s1.135-.272,1.606.052a2.109,2.109,0,0,0-2.193-.323c-1.38.493-2.35,1.858-3.176,2.141a2.527,2.527,0,0,0,.974-.352s-1.061.992-1.676,1.009a2.514,2.514,0,0,0,1.763-.828A2.963,2.963,0,0,1,239.25,502.745Z" transform="translate(-238.076 -496.766)" fill="#6d3c12"/>
            <path id="Trazado_969961" data-name="Trazado 969961" d="M242.134,498.086s2.192-2.138,4.434-2.115a4.135,4.135,0,0,0-1.185-.043,3.06,3.06,0,0,1,.985-.186,2.36,2.36,0,0,0-1.931.387,2.773,2.773,0,0,1,2.121-.706s-1.5-.918-3.778.789c0,0,1.61-.851,2.132-.674a4.17,4.17,0,0,0-1.589.813,3.1,3.1,0,0,1,.8-.332,8.914,8.914,0,0,0-2,1.669,7.327,7.327,0,0,1,1.362-.941A9.475,9.475,0,0,0,242.134,498.086Z" transform="translate(-240.067 -493.997)" fill="#6d3c12"/>
            <path id="Trazado_969962" data-name="Trazado 969962" d="M241.76,516.566s-.44-.174-.36.074.531.362.371.5-.233.216-.057.266,0-.075-.1.072.217.615.4.524.141-.421-.012-.6C242,517.4,242,516.682,241.76,516.566Z" transform="translate(-239.557 -508.755)" fill="#d6a183"/>
            <path id="Trazado_969963" data-name="Trazado 969963" d="M261.745,501.052a2.489,2.489,0,0,1,.723.926,2.341,2.341,0,0,0-.1-.468s.378.13.552,1.322a1.5,1.5,0,0,0,.039-.738,1.9,1.9,0,0,1,.62,1.241,3.29,3.29,0,0,0-.662-1.789,4.738,4.738,0,0,1-.871-1.268,2.746,2.746,0,0,0,.234.779s-.3-.323-.306-.433l.085.327-.177-.263a2.322,2.322,0,0,0,.2.482A1.344,1.344,0,0,0,261.745,501.052Z" transform="translate(-253.64 -497.528)" fill="#6d3c12"/>
          </g>
          <path id="Trazado_969964" data-name="Trazado 969964" d="M291.932,564.494a.2.2,0,0,0-.338.129.866.866,0,0,0,.1.486c.235.45.257.964.15.964s-.407-.964-.771-.889.385,1.21.279,1.36-.514-.793-.707-.621.45,1.156.385,1.285-.493-.407-.536-.214.062.578.706.985c0,0,.965.685,1.436.171A3.051,3.051,0,0,0,291.932,564.494Z" transform="translate(-269.242 -541.919)" fill="#fdc596"/>
        </g>
        <g id="Grupo_1119219" data-name="Grupo 1119219" transform="translate(169.651 48.478)">
          <g id="Grupo_1119210" data-name="Grupo 1119210" transform="translate(7.038 9.635)">
            <path id="Trazado_969965" data-name="Trazado 969965" d="M710.967,528.822s-.6-.634-.525-1.067a3.912,3.912,0,0,1,.077-.421c.014-.057.033-.171.033-.171s.19-1.067-.081-1.268-.509-.016-.507.565-.872.718-1.1-.185-.787-1.855-1.031-1.563.081,1.011.081,1.011-.036.019-.107-.169-.059-.714-.177-.635a1.647,1.647,0,0,0-.735,1.784,2.618,2.618,0,0,0,1.2,1.9,4.489,4.489,0,0,1,1.121,1.6S711.13,529.515,710.967,528.822Z" transform="translate(-706.863 -524.658)" fill="#fbcd9b"/>
            <g id="Grupo_1119209" data-name="Grupo 1119209" transform="translate(1.9 3.155)">
              <path id="Trazado_969966" data-name="Trazado 969966" d="M714.954,535.944l.339.785-1.852,1.608-.413-.946A5.361,5.361,0,0,1,714.954,535.944Z" transform="translate(-713.028 -535.621)" fill="#fff"/>
              <path id="Trazado_969967" data-name="Trazado 969967" d="M722.267,534.918c-1.728.724-3.645,5.8-3.645,5.8s-.5-.982-.57-.14l-2.861-5.185s-1.8.935-2.092,1.589c0,0,3.242,8.92,4.781,9.5s3.519-3.167,3.519-3.167l3.28-5.331C724.878,537.232,722.954,534.631,722.267,534.918Z" transform="translate(-713.078 -534.896)" fill="#4484e0"/>
            </g>
          </g>
          <g id="Grupo_1119214" data-name="Grupo 1119214" transform="translate(0 31.162)">
            <g id="Grupo_1119211" data-name="Grupo 1119211" transform="translate(11.236 23.359)">
              <path id="Trazado_969968" data-name="Trazado 969968" d="M731.5,670.555l.3,1.489h1.95l-.126-1.713Z" transform="translate(-728.104 -670.329)" fill="#fbcebf"/>
              <path id="Trazado_969969" data-name="Trazado 969969" d="M726.759,677.025l-6.236.347s-.276-1.279.618-1.251a3.763,3.763,0,0,0,2.546-1.345,2.7,2.7,0,0,1,2.75-.153A9.336,9.336,0,0,1,726.759,677.025Z" transform="translate(-720.484 -673.089)" fill="#19232d"/>
            </g>
            <g id="Grupo_1119212" data-name="Grupo 1119212" transform="translate(0 23.709)">
              <path id="Trazado_969970" data-name="Trazado 969970" d="M696.133,671.659l-.122,1.534h1.95l.162-1.726Z" transform="translate(-692.316 -671.466)" fill="#fbcebf"/>
              <path id="Trazado_969971" data-name="Trazado 969971" d="M690.3,678.2l-6.236.347s-.276-1.279.618-1.251a3.762,3.762,0,0,0,2.546-1.345,2.7,2.7,0,0,1,2.75-.153A9.339,9.339,0,0,1,690.3,678.2Z" transform="translate(-684.02 -674.255)" fill="#19232d"/>
            </g>
            <g id="Grupo_1119213" data-name="Grupo 1119213" transform="translate(3.446)">
              <path id="Trazado_969972" data-name="Trazado 969972" d="M713.422,595.115c4.1-1.524,6.657-.277,6.945,5.542l-16.629.776s0-2.963,1.289-4.005C705.686,596.894,710.463,595.73,713.422,595.115Z" transform="translate(-701.108 -594.52)" fill="#3f4752"/>
              <path id="Trazado_969973" data-name="Trazado 969973" d="M712.763,605.434a23.956,23.956,0,0,1-4.234,1.232c-2.562.519-3.718.6-3.967,1.064s.274,4.78-.044,6.746c-.275,1.7-3.5,10.224-4.225,12.676l.838-.037s4.661-10.23,4.949-13.351c.122-2.044.147-3.8.147-3.8l5.468-.239C712.734,609.416,712.763,605.434,712.763,605.434Z" transform="translate(-698.725 -602.071)" fill="#2f3740"/>
              <path id="Trazado_969974" data-name="Trazado 969974" d="M740.764,597.8a10.36,10.36,0,0,1-1.207,3.083l-15.673.693s-.762-2.8.411-3.967,8.892-2.032,14.2-2.475A2.154,2.154,0,0,1,740.764,597.8Z" transform="translate(-714.878 -594.937)" fill="#3f4752"/>
              <path id="Trazado_969975" data-name="Trazado 969975" d="M736.327,609.556a9.328,9.328,0,0,0-.592-3.206l9.509-.415a7.319,7.319,0,0,0,2.048-3.728l-3.9-1.576s-.3,1.824-1.009,2.261-8.752.8-9.06,1.137,1.2,3.485,1.545,5.787-.581,13.523-.581,13.523h0l.889-.039S736.546,612.655,736.327,609.556Z" transform="translate(-721.547 -598.747)" fill="#2f3740"/>
              <path id="Trazado_969976" data-name="Trazado 969976" d="M752.367,596.835a24.912,24.912,0,0,1,8.131,2.745l-.165.648A34.623,34.623,0,0,0,752.367,596.835Z" transform="translate(-734.753 -596.122)" fill="#2f3740"/>
              <path id="Trazado_969977" data-name="Trazado 969977" d="M697.871,612.795s-1.677,11.317-2.668,18.5l2.432-.106s4.66-10.23,4.949-13.351a29,29,0,0,0-.292-6.513Z" transform="translate(-695.203 -606.148)" fill="#3f4752"/>
              <path id="Trazado_969978" data-name="Trazado 969978" d="M724.43,612.186s1.226,10.925,2.037,18.031l2.585-.113s1.371-10.646,1.153-13.746a18.05,18.05,0,0,0-1.593-5.9Z" transform="translate(-715.424 -605.55)" fill="#3f4752"/>
              <path id="Trazado_969979" data-name="Trazado 969979" d="M736.337,616.579s0,0,0-.005a18.007,18.007,0,0,0-1.546-5.793l-.395.046-1.1.454c.065.832,1.278,3.523,1.581,5.559.343,2.3-.58,13.523-.58,13.523h0l.889-.039s.086-.665.211-1.712C735.771,625.473,736.5,618.9,736.337,616.579Z" transform="translate(-721.557 -605.771)" fill="#2f3740"/>
              <path id="Trazado_969980" data-name="Trazado 969980" d="M705.871,611.327a1.922,1.922,0,0,0-1.159.4c-.248.462.208,4.861-.11,6.827-.275,1.7-3.5,10.224-4.225,12.676l.838-.037c.968-2.577,4.7-10.644,4.949-13.351A20.488,20.488,0,0,0,705.871,611.327Z" transform="translate(-698.783 -606.148)" fill="#2f3740"/>
            </g>
          </g>
          <path id="Trazado_969981" data-name="Trazado 969981" d="M744.986,583.356l-1.3-.539.221-5.588Z" transform="translate(-725.302 -551.395)" fill="#f5f5f5"/>
          <path id="Trazado_969982" data-name="Trazado 969982" d="M754.962,526.283l-.447-1.8-3.9.023-.278,2.3S752.3,529.66,754.962,526.283Z" transform="translate(-729.901 -514.899)" fill="#e9ae74"/>
          <path id="Trazado_969983" data-name="Trazado 969983" d="M748.011,527.883s.687,2.1.324,2.345-2.062,1.132-2.062,1.132a4.713,4.713,0,0,1,.89,1.779c0,.606-6.508,8.5-6.508,8.5s-1.821-8.536-1.417-8.94,1.089-1.132,1.089-1.132-.569-1.7,0-2.1a9.644,9.644,0,0,1,2.226-.809l.768.647,3.881-2.062Z" transform="translate(-722.183 -516.807)" fill="#f5f5f5"/>
          <path id="Trazado_969984" data-name="Trazado 969984" d="M738.775,554.364l-2.5-.265c-.032-1.471-.238-8.487-.238-8.487s-.89-5.984.081-8.087a4.69,4.69,0,0,1,1.559-1.845,4.244,4.244,0,0,0,.218,1.724s-.685.728-1.089,1.132,1.417,8.94,1.417,8.94Z" transform="translate(-719.752 -522.648)" fill="#4484e0"/>
          <path id="Trazado_969985" data-name="Trazado 969985" d="M741.23,571.3c-.173-3.007-.447-7.181-.686-8.237a6.689,6.689,0,0,1,.152-2.774v0c.1.544.205,1.083.3,1.585h0c.059.3.116.587.17.853l0,.01c.035.173.068.337.1.491l0,.018.043.21.007.034.034.166.006.027.034.162.009.046.025.119.007.034.022.108.012.059.005.025c0,.021.009.043.013.061v0l.008.039.007.032.007.032.009.044.012.057.551,6.888Z" transform="translate(-723.065 -539.675)" fill="#286bce"/>
          <path id="Trazado_969986" data-name="Trazado 969986" d="M747.346,528.65l.768.647L752,527.235l.136.108h0l-2.753,3.126-1.183-.859-1.365.667-.724-1.263C746.721,528.8,747.346,528.65,747.346,528.65Z" transform="translate(-726.976 -516.806)" fill="#9bd4df"/>
          <path id="Trazado_969987" data-name="Trazado 969987" d="M745.494,536.34l-.284-.805,1.206-.59,1.037.753-.977,1.066-.637,4.814-1.868,5.02-.3.37s-.051-.239-.133-.633Z" transform="translate(-725.197 -522.14)" fill="#de3d73"/>
          <g id="Grupo_1119215" data-name="Grupo 1119215" transform="translate(16.996 11.299)">
            <path id="Trazado_969988" data-name="Trazado 969988" d="M744.953,543.215h0a57.183,57.183,0,0,1,7.122-13.159h0c.164.545.546,1.929.255,2.123-.364.242-2.062,1.132-2.062,1.132a4.712,4.712,0,0,1,.89,1.779C751.157,535.618,746.235,541.652,744.953,543.215Z" transform="translate(-743.173 -530.056)" fill="#68a9ea"/>
            <path id="Trazado_969989" data-name="Trazado 969989" d="M739.236,536.689c.4-.4,1.089-1.132,1.089-1.132s-.569-1.7,0-2.1a4.339,4.339,0,0,1,.987-.445h0c-.026,1.981-.906,11.433-.906,11.434C739.924,542.087,738.926,537,739.236,536.689Z" transform="translate(-739.178 -532.1)" fill="#68a9ea"/>
          </g>
          <path id="Trazado_969990" data-name="Trazado 969990" d="M754.166,547.131l.783,6-10.128-2.909c-.5-2.906-1.348-5.588-1.372-6.176a2.969,2.969,0,0,1,.159-.957h0s6.508-7.889,6.508-8.5a4.715,4.715,0,0,0-.89-1.779s1.7-.89,2.062-1.132-.324-2.345-.324-2.345a21.58,21.58,0,0,1,4.488,2.588l-.528,10.593Z" transform="translate(-725.136 -518.258)" fill="#4484e0"/>
          <path id="Trazado_969991" data-name="Trazado 969991" d="M768.865,567.48s1.949-4.93,1.949-5.9-1.447-8.431-1.447-8.431l2.654,5.1-.037.742-.345,2.1-.413,2.514h0l.782,6-3.9-1.145Z" transform="translate(-742.196 -534.735)" fill="#286bce"/>
          <path id="Trazado_969992" data-name="Trazado 969992" d="M729.115,542.632l-6.913,2.017,4.114,12.4,6.905-1.842Z" transform="translate(-710.437 -527.458)" fill="#f8e8d8"/>
          <g id="Grupo_1119217" data-name="Grupo 1119217" transform="translate(19.532 13.605)">
            <g id="Grupo_1119216" data-name="Grupo 1119216" transform="translate(0 10.261)">
              <path id="Trazado_969993" data-name="Trazado 969993" d="M748.284,571.464c.583-.561,1.636-.116,3.774-.13.214,0,.451,0,.7.012.041.619.1,1.244.089,1.86a1.651,1.651,0,0,0-1.356-.149,5.562,5.562,0,0,1-2.251.723s-.047.695-.46.826-1.026-.409-1.3-.508S747.7,572.025,748.284,571.464Z" transform="translate(-747.408 -571.075)" fill="#f4be84"/>
              <path id="Trazado_969994" data-name="Trazado 969994" d="M760.424,570.84l-1.355,0,.134,2.462,1.37.275Z" transform="translate(-755.476 -570.84)" fill="#f8e8d8"/>
            </g>
            <path id="Trazado_969995" data-name="Trazado 969995" d="M768.461,537.54c.875.661,3.949,10.352,3.8,11.282s-1.087,2.516-2.407,2.555-7.274-.57-7.274-.57l-.263-3.127,5.533-.569-1.5-5.178Z" transform="translate(-757.727 -537.54)" fill="#4484e0"/>
          </g>
          <g id="Grupo_1119218" data-name="Grupo 1119218" transform="translate(15.667)">
            <path id="Trazado_969996" data-name="Trazado 969996" d="M741.736,507.221s.219,1.976.394,3.026.543,3.458,2.7,3.458a5.407,5.407,0,0,0,3.882-1.806s2.156-2.615,1.69-3.256-1.165-2.682-3.264-2.333S741.736,507.221,741.736,507.221Z" transform="translate(-739.619 -502.3)" fill="#fbcd9b"/>
            <path id="Trazado_969997" data-name="Trazado 969997" d="M739.31,494.738c.451-.269.9-.546,1.316-.819a3.128,3.128,0,0,1,2.388-.461,3.813,3.813,0,0,1,2.431,1.812l.816.583c.816.583.75,2.739.048,3.97a12.865,12.865,0,0,1-2.441,3.258c-.089.015-.1-.054-.059-.17a1.768,1.768,0,0,0-.1-.828c1.52-.634,1.451-2.108.777-2.245S743.453,501,743.453,501l-.155-.416a4.985,4.985,0,0,1,.106-2.461s-.035.025-.1.067l-.007.015a2.049,2.049,0,0,1-1.364.844s.121-.137.274-.323a5.517,5.517,0,0,1-2.635.318,5.618,5.618,0,0,0,1.173-.449,14.908,14.908,0,0,1-2.3-.007c-2.915-.234-3.581-2.068-3.581-2.068A14.485,14.485,0,0,0,739.31,494.738Z" transform="translate(-734.867 -493.387)" fill="#221e52"/>
          </g>
        </g>
      </g>
    </g>
  </g>
</svg>
