<svg xmlns="http://www.w3.org/2000/svg" width="50" height="49.538" viewBox="0 0 50 49.538">
  <g id="Grupo_1118516" data-name="Grupo 1118516" transform="translate(0 -2.364)">
    <g id="Grupo_1118515" data-name="Grupo 1118515" transform="translate(0 2.364)">
      <g id="Grupo_1118514" data-name="Grupo 1118514" transform="translate(0 0)">
        <path id="Trazado_968495" data-name="Trazado 968495" d="M49.023,7.078H43.189l-3.625-1.91a7.191,7.191,0,0,0-4.032-.8l-4.48.419L28.4,2.588a.977.977,0,0,0-1.375.129L11.965,20.887a.977.977,0,0,0,.129,1.375l3.236,2.682H.977A.977.977,0,0,0,0,25.921V30.48a.977.977,0,0,0,.977.977H2.292V50.925a.977.977,0,0,0,.977.977H41.8a.977.977,0,0,0,.977-.977V31.457H44.08a.977.977,0,0,0,.977-.977V25.921a.977.977,0,0,0-.977-.977H26.506l5.334-6.436a10.166,10.166,0,0,0,8.333.167l3.728-1.57h5.122A.977.977,0,0,0,50,16.129V8.055a.977.977,0,0,0-.977-.977Zm-8.2,42.871H4.245V31.457H40.822ZM43.1,29.5H1.953V26.9H43.1ZM23.97,24.945H18.391l-4.3-3.563L27.905,4.715l7.6,6.3a2.24,2.24,0,0,1-2.234.675l-2.845-1.015a3.175,3.175,0,0,0-3.623,1.381,3.109,3.109,0,0,0,1.144,4.4l2.125,1.121Zm24.077-9.792H43.7a.977.977,0,0,0-.379.077l-3.91,1.647a8.465,8.465,0,0,1-7.347-.458l-3.184-1.68a1.147,1.147,0,0,1-.407-1.664,1.225,1.225,0,0,1,1.334-.543l2.844,1.015a4.089,4.089,0,0,0,3.318-.406,6.654,6.654,0,0,0,1.666-1.626.987.987,0,0,0-.129-1.375L33.18,6.55l2.535-.237a5.241,5.241,0,0,1,2.939.583l3.838,2.023a.977.977,0,0,0,.455.113h5.1Z" transform="translate(0 -2.364)" fill="#001a58"/>
        <path id="Trazado_968496" data-name="Trazado 968496" d="M93.542,343.673h25.034a.977.977,0,0,0,.977-.977V332.529a.977.977,0,0,0-.977-.977H110.5a.977.977,0,1,0,0,1.953h7.1v8.215H94.518v-8.215h7.43a.977.977,0,0,0,0-1.953H93.542a.977.977,0,0,0-.977.977V342.7a.977.977,0,0,0,.977.977Z" transform="translate(-83.525 -299.405)" fill="#001a58"/>
        <path id="Trazado_968497" data-name="Trazado 968497" d="M223.18,333.344a.977.977,0,1,0-.382-1.126A.985.985,0,0,0,223.18,333.344Z" transform="translate(-200.995 -299.407)" fill="#001a58"/>
      </g>
    </g>
  </g>
</svg>
