<svg xmlns="http://www.w3.org/2000/svg" width="100" height="100" viewBox="0 0 100 100">
  <g id="Grupo_1118070" data-name="Grupo 1118070" transform="translate(-285.332 -8115.087)">
    <g id="Grupo_156312" data-name="Grupo 156312" transform="translate(285.332 8115.087)">
      <path id="Elipse_5845" data-name="Elipse 5845" d="M50,0A50,50,0,1,1,0,50,50,50,0,0,1,50,0Z" transform="translate(0 0)" fill="#66d16a"/>
    </g>
    <g id="Grupo_1121460" data-name="Grupo 1121460" transform="translate(303.422 8133.087)">
      <path id="Trazado_974574" data-name="Trazado 974574" d="M33,27.184V25H31v2H29v3a3,3,0,0,0,3,3,1,1,0,0,1,1,1v1H32a1,1,0,0,1-1-1V33H29v1a3,3,0,0,0,2,2.816V39h2V37h2V34a3,3,0,0,0-3-3,1,1,0,0,1-1-1V29h1a1,1,0,0,1,1,1v1h2V30A3,3,0,0,0,33,27.184Z" fill="#001a58"/>
      <path id="Trazado_974575" data-name="Trazado 974575" d="M55.626,32A16.992,16.992,0,1,0,32,8.375,16.992,16.992,0,1,0,8.374,32,16.992,16.992,0,1,0,32,55.626,16.992,16.992,0,1,0,55.626,32ZM46,3a15,15,0,0,1,7.7,27.865A16.862,16.862,0,0,0,46,29a17.1,17.1,0,0,0-3.341.33,10.97,10.97,0,0,0-2.22-4.374A2.989,2.989,0,0,0,42.816,23h6.369a2.982,2.982,0,0,0,5.632,0H56a3,3,0,0,0,3-3V16.819a2.007,2.007,0,0,0-1.607-1.961L53.85,14.15,53.3,11.412A3.008,3.008,0,0,0,50.36,9H41.64A3.006,3.006,0,0,0,38.7,11.411L38.15,14.15l-3.544.708A2.007,2.007,0,0,0,33,16.819V20a2.978,2.978,0,0,0,.206,1.07A10.924,10.924,0,0,0,32,21c-.233,0-.46.021-.689.035A15,15,0,0,1,46,3ZM39,51V49H55v2Zm10,2v2H45V53ZM39,47V40.479A11.112,11.112,0,0,0,40.479,39H55v8Zm-7-6a9,9,0,1,1,9-9A9.01,9.01,0,0,1,32,41ZM15,19v6H13V17H23v8H21V19Zm4,2v4H17V21Zm-7.63-6a.37.37,0,0,1-.241-.651L16.893,9.41a1.7,1.7,0,0,1,2.215,0l5.762,4.939a.37.37,0,0,1-.24.652ZM52,19a3,3,0,0,0-2.816,2H42.815a2.982,2.982,0,0,0-5.632,0H36a1,1,0,0,1-1-1V16.819l4.85-.97.81-4.047a1,1,0,0,1,.98-.8h8.721a1,1,0,0,1,.98.8l.81,4.046,4.85.97V20a1,1,0,0,1-1,1H54.817A3,3,0,0,0,52,19Zm1,3a1,1,0,1,1-1-1A1,1,0,0,1,53,22ZM41,22a1,1,0,1,1-1-1A1,1,0,0,1,41,22ZM3,18a15,15,0,0,1,27.864-7.7A16.877,16.877,0,0,0,29,18a17.1,17.1,0,0,0,.33,3.341A10.973,10.973,0,0,0,25,23.521V16.962a2.363,2.363,0,0,0,1.172-4.132L20.41,7.892a3.8,3.8,0,0,0-4.819,0L9.827,12.831A2.364,2.364,0,0,0,11,16.963V25a2,2,0,0,0,2,2h9.214A10.928,10.928,0,0,0,21,32c0,.233.021.46.035.689A15,15,0,0,1,3,18Zm7.3,15.135A16.862,16.862,0,0,0,18,35a17.1,17.1,0,0,0,3.341-.33A10.94,10.94,0,0,0,22.214,37H6.01A15.025,15.025,0,0,1,10.3,33.135ZM7,56.164A14.93,14.93,0,0,1,5,38.529V43H7ZM7,39H21v2H7Zm2,4H19v6H15v8H9Zm9,18a14.9,14.9,0,0,1-7.452-2h14.9A14.889,14.889,0,0,1,18,61Zm9-4H17V51H27Zm2-.836V49H21V43h2V38.305A10.99,10.99,0,0,0,32,43c.233,0,.46-.021.689-.035A15.085,15.085,0,0,1,33,46,14.929,14.929,0,0,1,29,56.164ZM46,61a15.015,15.015,0,0,1-12.865-7.3A16.862,16.862,0,0,0,35,46a17.1,17.1,0,0,0-.33-3.341A10.94,10.94,0,0,0,37,41.786V51a2,2,0,0,0,2,2h4v2H41v2H53V55H51V53h4a2,2,0,0,0,2-2V39a2,2,0,0,0-2-2H41.786A10.928,10.928,0,0,0,43,32c0-.233-.021-.46-.035-.689A15,15,0,1,1,46,61Z" fill="#001a58"/>
      <path id="Trazado_974576" data-name="Trazado 974576" d="M19,53h2v2H19Z" fill="#001a58"/>
      <path id="Trazado_974577" data-name="Trazado 974577" d="M11,53h2v2H11Z" fill="#001a58"/>
      <path id="Trazado_974578" data-name="Trazado 974578" d="M11,49h2v2H11Z" fill="#001a58"/>
      <path id="Trazado_974579" data-name="Trazado 974579" d="M11,45h2v2H11Z" fill="#001a58"/>
      <path id="Trazado_974580" data-name="Trazado 974580" d="M15,45h2v2H15Z" fill="#001a58"/>
      <path id="Trazado_974581" data-name="Trazado 974581" d="M23,53h2v2H23Z" fill="#001a58"/>
    </g>
  </g>
</svg>
