<svg xmlns="http://www.w3.org/2000/svg" width="40" height="38.516" viewBox="0 0 40 38.516">
  <path id="Trazado_970417" data-name="Trazado 970417" d="M48,24.2V36.7a.434.434,0,0,1-.032.177,74.687,74.687,0,0,1-6.879,14.573l.492,3.718a.575.575,0,0,1-.484.637c-.024,0-.048.008-.073.008a.558.558,0,0,1-.556-.492l-.516-3.911a.55.55,0,0,1,.081-.371,73.9,73.9,0,0,0,6.855-14.427V24.2a.069.069,0,0,0-.065-.065,2.221,2.221,0,0,0-2.161,2.194l-.484,8.427a.58.58,0,0,1-.1.3l-3.984,5.444-.879,3.944a.562.562,0,0,1-1.1-.242l1.8-8.25a1.282,1.282,0,0,0-.645-1.556c-.548-.226-1.347-.073-1.815,1.073l-3.944,9.685a9.739,9.739,0,0,0-.6,4.6L33.29,55.2a.566.566,0,0,1-1.129.081l-.387-5.452a10.818,10.818,0,0,1,.685-5.113L36.4,35.034a2.51,2.51,0,0,1,3.29-1.694,2.384,2.384,0,0,1,1.331,2.839l-.347,1.581,2.379-3.25.476-8.258a3.332,3.332,0,0,1,3.282-3.258A1.2,1.2,0,0,1,48,24.2ZM19.6,35.034a2.5,2.5,0,0,0-3.282-1.694,2.376,2.376,0,0,0-1.331,2.839l.347,1.581-2.379-3.25-.476-8.258A3.325,3.325,0,0,0,9.194,23,1.191,1.191,0,0,0,8,24.2V36.7a.434.434,0,0,0,.032.177,74.195,74.195,0,0,0,6.879,14.573l-.492,3.718a.575.575,0,0,0,.484.637c.024,0,.048.008.073.008a.558.558,0,0,0,.556-.492l.516-3.911a.55.55,0,0,0-.081-.371A73.409,73.409,0,0,1,9.113,36.615V24.2a.069.069,0,0,1,.065-.065,2.221,2.221,0,0,1,2.161,2.194l.484,8.427a.58.58,0,0,0,.1.3l3.984,5.444.863,3.944a.562.562,0,1,0,1.1-.242l-1.8-8.25a1.282,1.282,0,0,1,.645-1.556c.548-.226,1.347-.073,1.815,1.073l3.944,9.685a9.739,9.739,0,0,1,.6,4.6L22.694,55.2a.566.566,0,0,0,1.129.081l.387-5.452a10.818,10.818,0,0,0-.685-5.113ZM28.258,42.2a.548.548,0,0,1-.516,0,15.321,15.321,0,0,1-5.387-4.242A6.233,6.233,0,0,1,21,33.776a4.8,4.8,0,0,1,.315-1.363H15.653a.561.561,0,0,1-.565-.565V26.994a3.2,3.2,0,0,1,3.113-3.1,4.583,4.583,0,0,1-.839-2.694,3.016,3.016,0,0,1,6.032,0,4.583,4.583,0,0,1-.839,2.694,3.479,3.479,0,0,1,1.137.258,3.649,3.649,0,0,1,2.073-.718,4.82,4.82,0,0,1-.944-2.935,3.194,3.194,0,1,1,6.387,0,4.82,4.82,0,0,1-.944,2.935,3.649,3.649,0,0,1,2.073.718,3.6,3.6,0,0,1,1.129-.258,4.527,4.527,0,0,1-.839-2.694,3.008,3.008,0,1,1,6.016,0,4.583,4.583,0,0,1-.839,2.694,3.2,3.2,0,0,1,3.113,3.1v4.855a.561.561,0,0,1-.565.565H34.694a4.8,4.8,0,0,1,.315,1.363,6.319,6.319,0,0,1-1.355,4.185,15.358,15.358,0,0,1-5.4,4.242ZM37.613,25.01H33.645a2.323,2.323,0,0,0-.476.048,3.09,3.09,0,0,1,.476,1.653v4.081a4.743,4.743,0,0,1,.419.484h3.169V28.2a.565.565,0,1,1,1.129,0v3.081h1.419v-4.29A2.074,2.074,0,0,0,37.613,25.01ZM33.742,21.2c0,1.113.581,2.685,1.887,2.685s1.887-1.573,1.887-2.685a1.887,1.887,0,1,0-3.774,0Zm-7.806-.71c0,1.218.645,2.935,2.065,2.935s2.065-1.718,2.065-2.935a2.065,2.065,0,0,0-4.129,0Zm-2.452,6.234V30a4.421,4.421,0,0,1,.452-.185,4.268,4.268,0,0,1,.758-.169V27.2a.565.565,0,0,1,1.129,0v2.516a3.48,3.48,0,0,1,1.847,1.145l.331.371.331-.371a3.613,3.613,0,0,1,1.847-1.145V27.2a.565.565,0,1,1,1.129,0v2.452a3.3,3.3,0,0,1,.758.169,3.127,3.127,0,0,1,.452.185V26.719a2.284,2.284,0,0,0-2.379-2.169H25.871a2.286,2.286,0,0,0-2.387,2.169Zm-5-5.524c0,1.113.581,2.685,1.887,2.685s1.887-1.573,1.887-2.685a1.887,1.887,0,1,0-3.774,0Zm3.452,10.089a6.01,6.01,0,0,1,.419-.484V26.719a3.19,3.19,0,0,1,.476-1.661,2.323,2.323,0,0,0-.476-.048H18.387a2.086,2.086,0,0,0-2.177,1.976v4.29h1.419V28.2a.565.565,0,1,1,1.129,0v3.081h3.177Zm11.944,2.573a3.36,3.36,0,0,0-2.169-2.968,2.288,2.288,0,0,0-2.532.718l-.75.855a.562.562,0,0,1-.427.194.575.575,0,0,1-.427-.194l-.75-.855a2.284,2.284,0,0,0-2.532-.718,3.36,3.36,0,0,0-2.169,2.968c-.194,2.492,1.944,5.1,5.879,7.2,3.935-2.1,6.073-4.71,5.879-7.2Zm-2.75,1.169v1.847a.561.561,0,0,1-.565.565H29.484v1.081a.561.561,0,0,1-.565.565H27.073a.561.561,0,0,1-.565-.565V37.437H25.427a.561.561,0,0,1-.565-.565V35.026a.561.561,0,0,1,.565-.565h1.081V33.381a.561.561,0,0,1,.565-.565h1.847a.561.561,0,0,1,.565.565v1.081h1.081A.561.561,0,0,1,31.129,35.026ZM30,35.59H28.919a.561.561,0,0,1-.565-.565V33.945h-.718v1.081a.561.561,0,0,1-.565.565H25.992v.718h1.081a.561.561,0,0,1,.565.565v1.081h.718V36.873a.561.561,0,0,1,.565-.565H30Z" transform="translate(-8 -17.3)" fill="#0042db"/>
</svg>
