<svg xmlns="http://www.w3.org/2000/svg" width="120" height="120" viewBox="0 0 120 120">
  <g id="Grupo_1118941" data-name="Grupo 1118941" transform="translate(-1081.711 -7215)">
    <rect id="Rectángulo_416006" data-name="Rectángulo 416006" width="120" height="120" transform="translate(1081.711 7215)" fill="#8bc34a"/>
    <g id="Grupo_1118945" data-name="Grupo 1118945" transform="translate(1096.438 7231.741)">
      <g id="Grupo_1118943" data-name="Grupo 1118943" transform="translate(3.691 1.267)">
        <path id="Trazado_969328" data-name="Trazado 969328" d="M26.085,7.5V25.944H13.333A3.415,3.415,0,0,1,9.92,22.531V15.582A8.078,8.078,0,0,1,18,7.5Z" transform="translate(-9.92 -7.5)" fill="#f6a96c"/>
        <path id="Trazado_969329" data-name="Trazado 969329" d="M53.373,7.5V25.944H48.3V15.582a8.092,8.092,0,0,0-5.546-7.677A8.042,8.042,0,0,1,45.291,7.5Z" transform="translate(-37.209 -7.5)" fill="#ea9b58"/>
        <path id="Trazado_969330" data-name="Trazado 969330" d="M120.971,15.582V88.069a3.413,3.413,0,0,1-3.413,3.413H69.244a3.413,3.413,0,0,1-3.413-3.413V15.582A8.081,8.081,0,0,0,57.748,7.5h55.143a8.081,8.081,0,0,1,8.081,8.082Z" transform="translate(-49.666 -7.5)" fill="#ffe5c2"/>
        <path id="Trazado_969331" data-name="Trazado 969331" d="M367.228,15.582V88.069a3.413,3.413,0,0,1-3.413,3.413h-5.069a3.413,3.413,0,0,0,3.413-3.413V15.582A8.081,8.081,0,0,0,354.078,7.5h5.069a8.081,8.081,0,0,1,8.081,8.082Z" transform="translate(-295.923 -7.5)" fill="#fed2a4"/>
        <path id="Trazado_969332" data-name="Trazado 969332" d="M365.33,148.1v22.037l-.226.4a16.038,16.038,0,0,1-11.943,8.016,16.034,16.034,0,0,1,.71-14.367L357.2,158.3A41.284,41.284,0,0,1,365.33,148.1Z" transform="translate(-294.024 -124.342)" fill="#fed2a4"/>
        <path id="Trazado_969333" data-name="Trazado 969333" d="M211.727,64.862H186.01a1.343,1.343,0,0,1-1.343-1.343V59.631a1.343,1.343,0,0,1,1.343-1.343h25.718a1.343,1.343,0,0,1,1.343,1.343V63.52A1.343,1.343,0,0,1,211.727,64.862Z" transform="translate(-155.138 -49.706)" fill="#d9b1ee"/>
        <path id="Trazado_969334" data-name="Trazado 969334" d="M239.265,260.808H226.727a.992.992,0,0,1-.947-1.286l.45-1.449A2.948,2.948,0,0,1,229.044,256h7.9a2.948,2.948,0,0,1,2.815,2.073l.45,1.449A.992.992,0,0,1,239.265,260.808Z" transform="translate(-189.266 -214.009)" fill="#9c9c9c"/>
        <g id="Grupo_1118942" data-name="Grupo 1118942" transform="translate(61.178 18.927)">
          <path id="Trazado_969335" data-name="Trazado 969335" d="M388.6,140.892l-3.325,5.883a16.036,16.036,0,0,1-11.943,8.017,16.037,16.037,0,0,1,.71-14.366l3.325-5.883a41.378,41.378,0,0,1,14.208-14.8,1.552,1.552,0,0,1,2.377,1.329,41.389,41.389,0,0,1-5.352,19.819Z" transform="translate(-371.965 -119.506)" fill="#e1f0ff"/>
          <path id="Trazado_969336" data-name="Trazado 969336" d="M395.8,119.744a41.361,41.361,0,0,0-3.993,2.821,1.531,1.531,0,0,1,1.018,1.468,18.642,18.642,0,0,1-.846,5.993,41.343,41.343,0,0,1-4.251,10.866l-3.325,5.883a16.033,16.033,0,0,1-7.352,6.718q.224.657.507,1.3a16.036,16.036,0,0,0,11.943-8.017l3.325-5.883a41.389,41.389,0,0,0,5.352-19.819A1.552,1.552,0,0,0,395.8,119.744Z" transform="translate(-376.19 -119.506)" fill="#cae4f9"/>
          <path id="Trazado_969337" data-name="Trazado 969337" d="M388.6,214.839l-3.325,5.883a16.036,16.036,0,0,1-11.943,8.017,16.037,16.037,0,0,1,.71-14.366l3.325-5.883,2.133,9.337Z" transform="translate(-371.965 -193.453)" fill="#4f66d0"/>
          <path id="Trazado_969338" data-name="Trazado 969338" d="M386.564,248.122,384.4,251.95a16.033,16.033,0,0,1-7.352,6.718q.224.657.507,1.3A16.036,16.036,0,0,0,389.5,251.95l3.325-5.883Z" transform="translate(-376.189 -224.681)" fill="#314dc9"/>
        </g>
      </g>
      <g id="Grupo_1118944" data-name="Grupo 1118944" transform="translate(2.424)">
        <path id="Trazado_969339" data-name="Trazado 969339" d="M208.1,57.287V53.4a2.613,2.613,0,0,0-2.61-2.61H179.777a2.613,2.613,0,0,0-2.61,2.61v3.889a2.613,2.613,0,0,0,2.61,2.61h25.718A2.613,2.613,0,0,0,208.1,57.287Zm-2.535,0a.075.075,0,0,1-.075.075H179.777a.075.075,0,0,1-.075-.075V53.4a.075.075,0,0,1,.075-.075h25.718a.075.075,0,0,1,.075.075Z" transform="translate(-147.639 -42.206)"/>
        <path id="Trazado_969340" data-name="Trazado 969340" d="M165.258,414.38a1.267,1.267,0,0,0-1.267-1.267H139.072a1.267,1.267,0,1,0,0,2.535H163.99A1.267,1.267,0,0,0,165.258,414.38Z" transform="translate(-114.928 -343.306)"/>
        <path id="Trazado_969341" data-name="Trazado 969341" d="M139.072,445.084a1.267,1.267,0,0,0,0,2.535H153.75a1.267,1.267,0,1,0,0-2.535Z" transform="translate(-114.928 -369.874)"/>
        <path id="Trazado_969342" data-name="Trazado 969342" d="M86.694,19.295a2.83,2.83,0,0,0-2.884.06,42.643,42.643,0,0,0-7.546,5.966V9.35A9.359,9.359,0,0,0,66.916,0H11.773A9.359,9.359,0,0,0,2.424,9.349V16.3A4.686,4.686,0,0,0,7.1,20.978h6.819a1.267,1.267,0,1,0,0-2.535H7.1A2.148,2.148,0,0,1,4.959,16.3V9.349a6.815,6.815,0,0,1,13.629,0V81.836a4.686,4.686,0,0,0,4.681,4.681H71.583a4.686,4.686,0,0,0,4.681-4.681V57.881a1.267,1.267,0,1,0-2.535,0V81.836a2.148,2.148,0,0,1-2.146,2.146H23.269a2.149,2.149,0,0,1-2.146-2.146V9.35a9.325,9.325,0,0,0-2.955-6.815H66.916A6.822,6.822,0,0,1,73.729,9.35V28.06a42.557,42.557,0,0,0-4.563,6.547l-3.325,5.882A17.434,17.434,0,0,0,64.226,53.6H26.568a1.267,1.267,0,0,0,0,2.535h37.84L62.787,59H26.568a1.267,1.267,0,0,0,0,2.535H61.354L59.733,64.4H26.568a1.267,1.267,0,0,0,0,2.535H58.3l-1.985,3.512a1.275,1.275,0,0,0,1.106,1.891H68.273a1.267,1.267,0,0,0,0-2.535H59.591l1.621-2.868h7.061a1.267,1.267,0,0,0,0-2.535H62.645l1.621-2.868h4.007a1.267,1.267,0,0,0,0-2.535H65.7l1.334-2.36A17.386,17.386,0,0,0,79.28,48.086L82.605,42.2a42.658,42.658,0,0,0,5.516-20.427,2.808,2.808,0,0,0-1.427-2.482ZM66.531,52.379a14.844,14.844,0,0,1,1.516-10.642L69.762,38.7l1.3,5.669Zm2.207,1.247,4.526-8.008L78.789,43.8l-1.715,3.034A14.845,14.845,0,0,1,68.738,53.626Zm15.782-23.2a40.062,40.062,0,0,1-3.886,10.107l-5.519,1.812,3.209-5.676a1.267,1.267,0,1,0-2.207-1.247L72.909,41.1l-1.293-5.658A40.224,40.224,0,0,1,85.146,21.509a.293.293,0,0,1,.156-.047.3.3,0,0,1,.145.04.258.258,0,0,1,.14.243,40.06,40.06,0,0,1-1.067,8.679Z" transform="translate(-2.424)"/>
        <path id="Trazado_969343" data-name="Trazado 969343" d="M211.392,143.111a1.267,1.267,0,0,0,1.267-1.267v-4.6a10.329,10.329,0,0,0,2.21-1.329,1.267,1.267,0,1,0-1.563-2,8.192,8.192,0,0,1-7.1,1.386,13.816,13.816,0,0,1-3.2-1.14v-3.37a1.267,1.267,0,0,0-2.535,0v3.37a13.818,13.818,0,0,1-3.2,1.14,9.043,9.043,0,0,1-4.73-.12c-.021-.008-.042-.016-.063-.022a7.588,7.588,0,0,1-2.309-1.244,1.267,1.267,0,0,0-1.563,2,10.316,10.316,0,0,0,2.235,1.34v4.59a1.267,1.267,0,0,0,2.535,0v-3.861a11.049,11.049,0,0,0,1.646.122,14.557,14.557,0,0,0,5.449-1.152v12.677h-2.684a4.2,4.2,0,0,0-4.025,2.964l-.45,1.449a2.259,2.259,0,0,0,2.158,2.93h12.538a2.259,2.259,0,0,0,2.158-2.93l-.45-1.449a4.2,4.2,0,0,0-4.025-2.964H203V136.954a14.555,14.555,0,0,0,5.449,1.152,11.031,11.031,0,0,0,1.672-.127v3.865a1.267,1.267,0,0,0,1.267,1.267Zm-4.1,10.236.339,1.092h-11.79l.339-1.092a1.673,1.673,0,0,1,1.6-1.182h7.9A1.673,1.673,0,0,1,207.293,153.347Z" transform="translate(-156.741 -107.64)"/>
      </g>
    </g>
  </g>
</svg>
