<svg xmlns="http://www.w3.org/2000/svg" xmlns:xlink="http://www.w3.org/1999/xlink" width="184" height="149" viewBox="0 0 184 149">
  <defs>
    <clipPath id="clip-path">
      <rect id="Rectángulo_416739" data-name="Rectángulo 416739" width="160.339" height="122.906" fill="none"/>
    </clipPath>
  </defs>
  <g id="Grupo_1117978" data-name="Grupo 1117978" transform="translate(-1147.711 -7215)">
    <rect id="Rectángulo_416006" data-name="Rectángulo 416006" width="184" height="149" transform="translate(1147.711 7215)" fill="#8bc34a"/>
    <g id="Grupo_1119345" data-name="Grupo 1119345" transform="translate(1159.542 7228.047)">
      <g id="Grupo_1119344" data-name="Grupo 1119344" clip-path="url(#clip-path)">
        <path id="Trazado_970317" data-name="Trazado 970317" d="M82.163,114.907,3.2,115.365C-4.911,82.1,19.283,71.777,17.7,49.272,13.909-4.308,94.773-4.308,109.344,27.092c11.124,23.963,5.24,22.1,24.439,36.352,26.514,19.693,10.247,43.277.439,52.1Z" transform="translate(0.861 3.242)" fill="#d6f2e7"/>
        <path id="Trazado_970318" data-name="Trazado 970318" d="M10.392,27.408S2.7,29.136.9,22.413c0,0,7.377-.287,9.5,4.995" transform="translate(0.504 12.601)" fill="#fa2d68"/>
        <path id="Trazado_970319" data-name="Trazado 970319" d="M42.122,53.764l-.811.291c-4.4-12.341-35.481-28.3-35.8-28.46l.392-.764c1.292.656,31.7,16.276,36.216,28.934" transform="translate(3.101 13.962)" fill="#fa2d68"/>
        <path id="Trazado_970320" data-name="Trazado 970320" d="M14.468,32.462l-.842-.186c.833-3.739-4.831-8.615-4.885-8.666l.558-.653c.252.214,6.112,5.27,5.17,9.505" transform="translate(4.915 12.909)" fill="#fa2d68"/>
        <path id="Trazado_970321" data-name="Trazado 970321" d="M12.229,29.127c-.034.042-.07.086-.1.125l-.641-.573c1.5-1.725.112-6.038.1-6.082l.816-.273c.064.2,1.539,4.656-.169,6.8" transform="translate(6.457 12.552)" fill="#fa2d68"/>
        <path id="Trazado_970322" data-name="Trazado 970322" d="M11.986,27.452S4.443,25.127,6.223,18.4c0,0,6.544,3.415,5.763,9.054" transform="translate(3.346 10.345)" fill="#fa2d68"/>
        <path id="Trazado_970323" data-name="Trazado 970323" d="M12.419,27.353s-4.446-6.518,1.139-10.671c0,0,2.989,6.746-1.139,10.671" transform="translate(6.04 9.38)" fill="#fa2d68"/>
        <path id="Trazado_970324" data-name="Trazado 970324" d="M17.91,35.965l-.717-.472c2.108-3.2-1.447-9.774-1.483-9.838l.756-.414c.158.289,3.835,7.1,1.444,10.724" transform="translate(8.834 14.193)" fill="#fa2d68"/>
        <path id="Trazado_970325" data-name="Trazado 970325" d="M18.662,31.19a3.307,3.307,0,0,1-1.069.9l-.394-.762c2.051-1.059,2.258-5.6,2.261-5.645l.859.033c-.006.173-.159,3.592-1.658,5.471" transform="translate(9.672 14.443)" fill="#fa2d68"/>
        <path id="Trazado_970326" data-name="Trazado 970326" d="M17.694,30.434s-6.218-4.857-2.159-10.513c0,0,4.9,5.521,2.159,10.513" transform="translate(7.962 11.202)" fill="#fa2d68"/>
        <path id="Trazado_970327" data-name="Trazado 970327" d="M18.62,30.17S16.787,22.5,23.483,20.6c0,0,.389,7.373-4.863,9.566" transform="translate(10.341 11.586)" fill="#fa2d68"/>
        <path id="Trazado_970328" data-name="Trazado 970328" d="M22.23,37.336a4.657,4.657,0,0,1-1.3,1.15l-.433-.741c3.3-1.933,3.029-9.4,3.026-9.478l.861-.036c.011.284.222,6.121-2.154,9.105" transform="translate(11.526 15.874)" fill="#fa2d68"/>
        <path id="Trazado_970329" data-name="Trazado 970329" d="M26.1,32.018c-.973,1.222-2.411,2.59-3.995,2.62l-.011-.862c2.306-.041,4.5-4.02,4.524-4.06l.755.412a14.026,14.026,0,0,1-1.273,1.89" transform="translate(12.422 16.709)" fill="#fa2d68"/>
        <path id="Trazado_970330" data-name="Trazado 970330" d="M22.907,33.332s-3.423-7.11,2.717-10.381c0,0,1.948,7.119-2.717,10.381" transform="translate(12.346 12.905)" fill="#fa2d68"/>
        <path id="Trazado_970331" data-name="Trazado 970331" d="M24.428,32.962s1.753-7.69,8.6-6.423c0,0-2.917,6.782-8.6,6.423" transform="translate(13.736 14.844)" fill="#fa2d68"/>
        <path id="Trazado_970332" data-name="Trazado 970332" d="M17.634,30.973C13.866,33.124,7.3,29.02,7.026,28.843l.458-.726c.064.039,6.4,4,9.724,2.108Z" transform="translate(3.951 15.81)" fill="#fa2d68"/>
        <path id="Trazado_970333" data-name="Trazado 970333" d="M13.618,30.6c-1.659,2.087-6.121,2-6.32,2l.022-.862c.045,0,4.6.081,5.777-1.892l.737.442a2.879,2.879,0,0,1-.217.314" transform="translate(4.104 16.782)" fill="#fa2d68"/>
        <path id="Trazado_970334" data-name="Trazado 970334" d="M12.142,30.326s-4.449-6.518-10.35-2.831c0,0,5.195,5.245,10.35,2.831" transform="translate(1.008 14.825)" fill="#fa2d68"/>
        <path id="Trazado_970335" data-name="Trazado 970335" d="M11.905,31.16S4.367,28.835,2.047,35.4c0,0,7.33.864,9.858-4.239" transform="translate(1.151 17.297)" fill="#fa2d68"/>
        <path id="Trazado_970336" data-name="Trazado 970336" d="M21.851,32.967c-2.6,3.262-9.822,2.7-10.139,2.676l.073-.858c.073.006,7.515.589,9.593-2.632l.725.466c-.078.12-.162.236-.252.348" transform="translate(6.586 18.08)" fill="#fa2d68"/>
        <path id="Trazado_970337" data-name="Trazado 970337" d="M17.274,35.887a12.543,12.543,0,0,1-3.782,2.9l-.38-.772c.042-.017,4.109-2.047,4.246-4.351l.858.048a3.952,3.952,0,0,1-.942,2.176" transform="translate(7.373 18.928)" fill="#fa2d68"/>
        <path id="Trazado_970338" data-name="Trazado 970338" d="M16.868,34.432S9.907,30.718,6.382,36.718c0,0,7.033,2.239,10.486-2.286" transform="translate(3.589 18.722)" fill="#fa2d68"/>
        <path id="Trazado_970339" data-name="Trazado 970339" d="M16.491,35.926S8.734,37.36,9.715,44.25c0,0,6.9-2.632,6.776-8.324" transform="translate(5.414 20.201)" fill="#fa2d68"/>
        <path id="Trazado_970340" data-name="Trazado 970340" d="M26.167,37.785c-2.462,3.095-8.893,3.607-9.193,3.628l-.062-.859c.075,0,7.521-.592,9.068-4.1l.787.348a4.444,4.444,0,0,1-.6.98" transform="translate(9.51 20.5)" fill="#fa2d68"/>
        <path id="Trazado_970341" data-name="Trazado 970341" d="M21.738,41.531a13.852,13.852,0,0,1-2.586,2.436l-.5-.7c.037-.027,3.74-2.667,3.512-4.963l.856-.083a4.843,4.843,0,0,1-1.287,3.314" transform="translate(10.491 21.49)" fill="#fa2d68"/>
        <path id="Trazado_970342" data-name="Trazado 970342" d="M21.858,39.238s-7.454-2.584-10,3.893c0,0,7.3,1.114,10-3.893" transform="translate(6.668 21.778)" fill="#fa2d68"/>
        <path id="Trazado_970343" data-name="Trazado 970343" d="M21.542,40.789s-7.44,2.628-5.395,9.275c0,0,6.4-3.673,5.395-9.275" transform="translate(8.879 22.936)" fill="#fa2d68"/>
        <path id="Trazado_970344" data-name="Trazado 970344" d="M41.2,46.377l-.639,1.147A47.337,47.337,0,0,1,29.6,37.762C22.7,29.42,19.857,19.91,21.39,10.236l1.183.128C19.02,32.816,40.978,46.239,41.2,46.377" transform="translate(11.8 5.756)" fill="#5a70e0"/>
        <path id="Trazado_970345" data-name="Trazado 970345" d="M22.38,15.716s-5.231-5.327-.189-12.591c0,0,4.142,6.37.189,12.591" transform="translate(11.245 1.757)" fill="#5a70e0"/>
        <path id="Trazado_970346" data-name="Trazado 970346" d="M25.1,19.6s-9.483.48-9.9-10.652c0,0,5.107-.416,9.9,10.652" transform="translate(8.549 5.03)" fill="#5a70e0"/>
        <path id="Trazado_970347" data-name="Trazado 970347" d="M21.344,20.544s9.363-2.311,8.4-13.359c0,0-5.06,1.084-8.4,13.359" transform="translate(12.002 4.04)" fill="#5a70e0"/>
        <path id="Trazado_970348" data-name="Trazado 970348" d="M26.87,24.813S17.412,26.344,15.928,15.4c0,0,5.07-.983,10.942,9.413" transform="translate(8.956 8.645)" fill="#5a70e0"/>
        <path id="Trazado_970349" data-name="Trazado 970349" d="M22.733,26.49s9.163-3.317,7.135-14.125c0,0-4.97,1.636-7.135,14.125" transform="translate(12.783 6.953)" fill="#5a70e0"/>
        <path id="Trazado_970350" data-name="Trazado 970350" d="M30.682,29.561s-9.191,3.24-12.408-7.13c0,0,4.9-1.9,12.408,7.13" transform="translate(10.276 12.518)" fill="#5a70e0"/>
        <path id="Trazado_970351" data-name="Trazado 970351" d="M26.014,32.387a12.182,12.182,0,0,0,4.876-15.07s-4.7,2.511-4.876,15.07" transform="translate(14.628 9.737)" fill="#5a70e0"/>
        <path id="Trazado_970352" data-name="Trazado 970352" d="M35.12,32.391s-8.255,5.66-13.937-3.265c0,0,4.367-3.176,13.937,3.265" transform="translate(11.911 15.937)" fill="#5a70e0"/>
        <path id="Trazado_970353" data-name="Trazado 970353" d="M30.286,36.648s7.277-7.094,1.15-15.642c0,0-4.014,3.7-1.15,15.642" transform="translate(16.45 11.812)" fill="#5a70e0"/>
        <path id="Trazado_970354" data-name="Trazado 970354" d="M64.491,53.231l-.169,1.715a61.272,61.272,0,0,0,19-2.3c13.587-3.823,23.7-11.948,29.242-23.527l-1.358-.747C98.324,55.245,64.827,53.25,64.491,53.231" transform="translate(36.168 15.952)" fill="#a6b900"/>
        <path id="Trazado_970355" data-name="Trazado 970355" d="M94.2,34.5s9.563-1.828,9.56-13.442c0,0-9.171,3.767-9.56,13.442" transform="translate(52.967 11.84)" fill="#a6b900"/>
        <path id="Trazado_970356" data-name="Trazado 970356" d="M90.777,36.444s9.8,7.632,18.518-4.065c0,0-5.16-4.278-18.518,4.065" transform="translate(51.044 17.59)" fill="#a6b900"/>
        <path id="Trazado_970357" data-name="Trazado 970357" d="M92.243,42.153s-8.315-9.511.931-20.7c0,0,4.613,4.965-.931,20.7" transform="translate(49.937 12.061)" fill="#a6b900"/>
        <path id="Trazado_970358" data-name="Trazado 970358" d="M85.084,40.943s9,8.746,18.716-1.947c0,0-4.7-4.863-18.716,1.947" transform="translate(47.843 20.982)" fill="#a6b900"/>
        <path id="Trazado_970359" data-name="Trazado 970359" d="M86.227,47.183S78.876,36.733,89.081,26.6c0,0,4.1,5.49-2.854,20.582" transform="translate(47.045 14.958)" fill="#a6b900"/>
        <path id="Trazado_970360" data-name="Trazado 970360" d="M77.465,43.661s7.44,10.382,18.6,1.611c0,0-3.839-5.727-18.6-1.611" transform="translate(43.559 23.714)" fill="#a6b900"/>
        <path id="Trazado_970361" data-name="Trazado 970361" d="M78.143,50.47S72.587,38.7,84.115,30.563c0,0,3.168,6.234-5.973,19.907" transform="translate(43.187 17.186)" fill="#a6b900"/>
        <path id="Trazado_970362" data-name="Trazado 970362" d="M70.33,44.521s4.638,12.3,17.356,6.932c0,0-2.318-6.7-17.356-6.932" transform="translate(39.547 25.034)" fill="#a6b900"/>
        <path id="Trazado_970363" data-name="Trazado 970363" d="M70.543,51.132S68.018,38.026,80.932,33.406c0,0,1.553,7-10.389,17.726" transform="translate(39.554 18.784)" fill="#a6b900"/>
        <path id="Trazado_970364" data-name="Trazado 970364" d="M75.338,63.176c25.13-29.1,23.494-59.275,23.47-59.585l-1.294.086c.02.3,1.612,29.973-23.16,58.655Z" transform="translate(41.81 2.019)" fill="#fca09f"/>
        <path id="Trazado_970365" data-name="Trazado 970365" d="M89.075,17.667l1.233-.409L87.479,8.69l-1.233.4Z" transform="translate(48.496 4.886)" fill="#fca09f"/>
        <rect id="Rectángulo_416734" data-name="Rectángulo 416734" width="1.305" height="9.026" transform="translate(130.861 23.327) rotate(-30.202)" fill="#fca09f"/>
        <path id="Trazado_970366" data-name="Trazado 970366" d="M86.07,29l1.131-.653-4.557-7.8-1.119.65Z" transform="translate(45.842 11.557)" fill="#fca09f"/>
        <rect id="Rectángulo_416735" data-name="Rectángulo 416735" width="1.295" height="9.03" transform="matrix(0.864, -0.504, 0.504, 0.864, 123.05, 41.014)" fill="#fca09f"/>
        <path id="Trazado_970367" data-name="Trazado 970367" d="M80.243,39.564l1.119-.656-4.545-7.793-1.12.656Z" transform="translate(42.565 17.496)" fill="#fca09f"/>
        <path id="Trazado_970368" data-name="Trazado 970368" d="M89.448,16.051l5.3-7.318-1.051-.753L88.4,15.289Z" transform="translate(49.706 4.487)" fill="#fca09f"/>
        <rect id="Rectángulo_416736" data-name="Rectángulo 416736" width="9.032" height="1.298" transform="translate(136.121 28.762) rotate(-43.149)" fill="#fca09f"/>
        <path id="Trazado_970369" data-name="Trazado 970369" d="M85.341,27.606l7.954-4.281-.617-1.142-7.951,4.27Z" transform="translate(47.642 12.474)" fill="#fca09f"/>
        <rect id="Rectángulo_416737" data-name="Rectángulo 416737" width="9.035" height="1.298" transform="translate(127.247 49.263) rotate(-25.333)" fill="#fca09f"/>
        <rect id="Rectángulo_416738" data-name="Rectángulo 416738" width="9.033" height="1.298" transform="translate(120.212 59.235) rotate(-20.09)" fill="#fca09f"/>
        <path id="Trazado_970370" data-name="Trazado 970370" d="M88.131,2.8A3.144,3.144,0,1,0,92.24,1.1a3.143,3.143,0,0,0-4.109,1.7" transform="translate(49.42 0.485)" fill="#fca09f"/>
        <path id="Trazado_970371" data-name="Trazado 970371" d="M84.056,7.987a3.143,3.143,0,1,0,3.99-1.975,3.143,3.143,0,0,0-3.99,1.975" transform="translate(47.172 3.288)" fill="#fca09f"/>
        <path id="Trazado_970372" data-name="Trazado 970372" d="M82.089,13.07a3.144,3.144,0,1,0,4.4-.567,3.127,3.127,0,0,0-4.4.567" transform="translate(45.787 6.66)" fill="#fca09f"/>
        <path id="Trazado_970373" data-name="Trazado 970373" d="M79.848,19.1a3.149,3.149,0,1,0,4.417-.561,3.155,3.155,0,0,0-4.417.561" transform="translate(44.532 10.058)" fill="#fca09f"/>
        <path id="Trazado_970374" data-name="Trazado 970374" d="M77.085,24.383a3.15,3.15,0,1,0,4.414-.561,3.154,3.154,0,0,0-4.414.561" transform="translate(42.977 13.026)" fill="#fca09f"/>
        <path id="Trazado_970375" data-name="Trazado 970375" d="M74.017,29.673a3.143,3.143,0,1,0,4.415-.567,3.143,3.143,0,0,0-4.415.567" transform="translate(41.251 15.997)" fill="#fca09f"/>
        <path id="Trazado_970376" data-name="Trazado 970376" d="M97.393,8.614a3.145,3.145,0,1,1-3.2-3.093,3.151,3.151,0,0,1,3.2,3.093" transform="translate(51.228 3.104)" fill="#fca09f"/>
        <path id="Trazado_970377" data-name="Trazado 970377" d="M96.967,15.946a3.146,3.146,0,1,1-2.557-3.637,3.149,3.149,0,0,1,2.557,3.637" transform="translate(51.014 6.894)" fill="#fca09f"/>
        <path id="Trazado_970378" data-name="Trazado 970378" d="M95.188,24.814a3.14,3.14,0,1,1-1.526-4.171,3.134,3.134,0,0,1,1.526,4.171" transform="translate(50.156 11.443)" fill="#fca09f"/>
        <path id="Trazado_970379" data-name="Trazado 970379" d="M91.972,31.9a3.145,3.145,0,1,1-1.322-4.245A3.148,3.148,0,0,1,91.972,31.9" transform="translate(48.379 15.348)" fill="#fca09f"/>
        <path id="Trazado_970380" data-name="Trazado 970380" d="M87.5,39.142a3.145,3.145,0,1,1-.931-4.343,3.154,3.154,0,0,1,.931,4.343" transform="translate(45.946 19.282)" fill="#fca09f"/>
        <path id="Trazado_970381" data-name="Trazado 970381" d="M25.108,72.06,22.489,43.609l7.31-2.426.833-18.118,3.589.164,1.447,17.435,4.112-1.39L40.159,31l3.628-.623-.381,8.272,5.9-1.306-.472,10.241,5.423-.541L55.312,24.2l4.04.184,1.312,20.391,5.442.25-1.39-10.13,1.853.086,4.865,10.292,7.713-1.425L80.7,9.971l7.177.33,2.07,33.254,6.732.308,1.14-24.814,5.854-.128,4.262,24.67,8.005,1.948,1.006,27.407Z" transform="translate(12.646 5.607)" fill="#9bc2e0"/>
        <path id="Trazado_970382" data-name="Trazado 970382" d="M66.226,8.108a3.565,3.565,0,0,1-7.063-.323,3.565,3.565,0,0,1,7.063.323" transform="translate(33.266 2.722)" fill="#bee4d7"/>
        <path id="Trazado_970383" data-name="Trazado 970383" d="M73.439,7.794c-.133,2.9-2.915,5.126-6.216,4.974s-5.868-2.625-5.734-5.523S64.4,2.122,67.705,2.275s5.868,2.625,5.734,5.52" transform="translate(34.572 1.275)" fill="#bee4d7"/>
        <path id="Trazado_970384" data-name="Trazado 970384" d="M76.267,4.776c-.114,2.5-2.518,4.424-5.37,4.293S65.83,6.805,65.945,4.3s2.52-4.424,5.37-4.293,5.068,2.267,4.953,4.77" transform="translate(37.078 0)" fill="#bee4d7"/>
        <path id="Trazado_970385" data-name="Trazado 970385" d="M77.956,7.694c-.127,2.725-2.745,4.818-5.848,4.674s-5.52-2.465-5.395-5.19S69.457,2.361,72.561,2.5s5.52,2.465,5.395,5.19" transform="translate(37.511 1.404)" fill="#bee4d7"/>
        <path id="Trazado_970386" data-name="Trazado 970386" d="M80.152,6.726a3.887,3.887,0,0,1-7.7-.355,3.888,3.888,0,0,1,7.7.355" transform="translate(40.738 1.781)" fill="#bee4d7"/>
        <path id="Trazado_970387" data-name="Trazado 970387" d="M76.126,13.387a2.6,2.6,0,0,1-5.143-.234,2.6,2.6,0,0,1,5.143.234" transform="translate(39.913 6.19)" fill="#bee4d7"/>
        <path id="Trazado_970388" data-name="Trazado 970388" d="M81.377,13.159a4.392,4.392,0,0,1-8.7-.4,4.393,4.393,0,0,1,8.7.4" transform="translate(40.863 5.137)" fill="#bee4d7"/>
        <path id="Trazado_970389" data-name="Trazado 970389" d="M83.435,10.963a3.794,3.794,0,0,1-7.516-.348,3.794,3.794,0,0,1,7.516.348" transform="translate(42.688 4.209)" fill="#bee4d7"/>
        <path id="Trazado_970390" data-name="Trazado 970390" d="M84.664,13.088a4.131,4.131,0,0,1-8.185-.375,4.131,4.131,0,0,1,8.185.375" transform="translate(43.003 5.23)" fill="#bee4d7"/>
        <path id="Trazado_970391" data-name="Trazado 970391" d="M86.262,12.381a2.829,2.829,0,0,1-5.6-.256,2.829,2.829,0,0,1,5.6.256" transform="translate(45.353 5.505)" fill="#bee4d7"/>
        <path id="Trazado_970392" data-name="Trazado 970392" d="M31.75,16.8a2.431,2.431,0,0,1-2.675,2.139,2.431,2.431,0,0,1-2.467-2.373,2.6,2.6,0,0,1,5.142.234" transform="translate(14.961 8.111)" fill="#bee4d7"/>
        <path id="Trazado_970393" data-name="Trazado 970393" d="M37,16.575A4.115,4.115,0,0,1,32.477,20.2,4.113,4.113,0,0,1,28.3,16.175a4.114,4.114,0,0,1,4.526-3.618A4.116,4.116,0,0,1,37,16.575" transform="translate(15.912 7.058)" fill="#bee4d7"/>
        <path id="Trazado_970394" data-name="Trazado 970394" d="M39.061,14.379A3.555,3.555,0,0,1,35.152,17.5a3.556,3.556,0,0,1-3.607-3.47,3.556,3.556,0,0,1,3.91-3.128,3.556,3.556,0,0,1,3.606,3.473" transform="translate(17.736 6.13)" fill="#bee4d7"/>
        <path id="Trazado_970395" data-name="Trazado 970395" d="M40.289,16.506a3.871,3.871,0,0,1-4.257,3.4,3.87,3.87,0,0,1-3.926-3.781,3.867,3.867,0,0,1,4.256-3.4,3.871,3.871,0,0,1,3.928,3.781" transform="translate(18.051 7.152)" fill="#bee4d7"/>
        <path id="Trazado_970396" data-name="Trazado 970396" d="M41.888,15.8a2.829,2.829,0,0,1-5.6-.256,2.829,2.829,0,0,1,5.6.256" transform="translate(20.401 7.426)" fill="#bee4d7"/>
        <path id="Trazado_970397" data-name="Trazado 970397" d="M136.713,76.28c0,2.429-5.551,5.557-59.45,5.557S1.308,79.93,1.308,77.5s22.058-4.463,75.954-4.463,59.45.811,59.45,3.243" transform="translate(0.735 41.069)" fill="#bee4d7"/>
        <path id="Trazado_970398" data-name="Trazado 970398" d="M17.8,50.241s9.264,43.024,47.753,43.107c40.562.087,62.655-20.294,72.608-50.836,0,0-23.9,15.97-55.291,10.952s-53.81-8.7-65.07-3.223" transform="translate(10.008 23.905)" fill="#0a3c33"/>
        <path id="Trazado_970399" data-name="Trazado 970399" d="M151.121,39.283s-5.154,17.338-47.583,20.076S47.949,42.478,2.52,64.833c0,0-5.67-10.039,0-14.6,0,0,23.461-8.16,47.183-5.9s62.77,22.328,101.418-5.045" transform="translate(0 22.089)" fill="#519d45"/>
        <path id="Trazado_970400" data-name="Trazado 970400" d="M90.132,70.085S80.068,55.1,66.087,52.186,70.9,50.62,70.9,50.62s11.3,4.971,19.229,19.465" transform="translate(34.253 28.291)" fill="#519d45"/>
        <path id="Trazado_970401" data-name="Trazado 970401" d="M74.287,69.547S63.3,55.643,50.6,51.223s4.009-.612,4.009-.612S65.252,56.36,74.287,69.547" transform="translate(25.776 27.603)" fill="#519d45"/>
        <path id="Trazado_970402" data-name="Trazado 970402" d="M59.851,70.806S46.387,53.761,30.818,48.348s4.915-.753,4.915-.753,13.044,7.044,24.117,23.211" transform="translate(14.046 25.715)" fill="#519d45"/>
        <path id="Trazado_970403" data-name="Trazado 970403" d="M44.652,27.153a3.157,3.157,0,0,1,3.646.976c1.469,2.026,2.158,7.079,5.318,8.477s5.043.016,6.421-.748,1.572-1.714,2.426-2.072,1.23.678-.684,2.433c-.922.839-4.96,5.532-9.032,4.568-5.34-1.27-11.578-11.864-8.1-13.634" transform="translate(24.541 15.145)" fill="#e28c71"/>
        <path id="Trazado_970404" data-name="Trazado 970404" d="M53.355,40.215c1.9,4.928,6.913,14.762,8.85,13.417s2.575-2.756,1.242-2.286-1.458.375-1.65.012c-1.233-2.286-2.008-7.644-3.271-11.314-1.464-4.257-6.835-4.145-5.171.17" transform="translate(29.824 20.757)" fill="#f9b5a0"/>
        <path id="Trazado_970405" data-name="Trazado 970405" d="M57.988,48.27s2.143-.5,2.675-1.968c0,0,2.056-1.092,1.22.259s-2.823,3.425-3.895,1.709" transform="translate(32.607 25.801)" fill="#7585f8"/>
        <path id="Trazado_970406" data-name="Trazado 970406" d="M44.944,42.851S54.576,30.38,58.5,32.589c3.531,1.986,7.51,16.91,7.51,16.91a6.153,6.153,0,0,1-4.051,2.789l-5.54-9.05-8.251,9.633-2.942-7.283Z" transform="translate(25.272 18.178)" fill="#ed2051"/>
        <path id="Trazado_970407" data-name="Trazado 970407" d="M47.62,48.221c-2.426,4.693-6.462,14.964-4.168,15.523s3.768.094,2.534-.589-1.25-.842-1.1-1.228c.894-2.437,4.387-6.573,6.295-9.953,2.212-3.92-1.437-7.86-3.556-3.753" transform="translate(24.05 26.135)" fill="#f9b5a0"/>
        <path id="Trazado_970408" data-name="Trazado 970408" d="M42.777,56.7s1.8,1.275,3.248.7c0,0,2.178.816.614,1.087s-4.434.158-3.862-1.786" transform="translate(24.012 31.885)" fill="#7585f8"/>
        <path id="Trazado_970409" data-name="Trazado 970409" d="M47.571,39.755s8.577,1.665,9.53,6.063c.851,3.96-7.674,16.843-7.674,16.843a6.159,6.159,0,0,1-4.779-1.184l3.045-11.186s-5.5-1.806-6.663-4.6c-2.751-6.64,2.178-6.2,2.178-6.2Z" transform="translate(22.602 22.203)" fill="#ff2e56"/>
        <path id="Trazado_970410" data-name="Trazado 970410" d="M54.383,41.98a21.2,21.2,0,0,0-2.306-11.727c-2.351-4.479-6.89-3.448-9.5-2.306s-6.937,2.92-3.709,8.338c2.25,3.781,1.979,6.562,1.833,10.894-.008.112-.019.217-.027.33a.03.03,0,0,0-.017-.006l.017.006c-.866,4.9,13.1-1.261,13.708-5.529" transform="translate(21.209 15.162)" fill="#fcc922"/>
        <path id="Trazado_970411" data-name="Trazado 970411" d="M41.174,25.176s1.561,1.92.317,3.461c-1.278,1.575,5.624,3.3,5.159,2.072-.6-1.6-1.679-2.356-1.344-4.443Z" transform="translate(23.152 14.157)" fill="#e0623f"/>
        <path id="Trazado_970412" data-name="Trazado 970412" d="M44.141,22.112c1.72.97,4.654,6.377,3.509,8.016-.5.708-3.29.739-5.579-1.392a4.99,4.99,0,0,1-1.7-4.848c.256-1.014,1.772-2.9,3.773-1.776" transform="translate(22.622 12.239)" fill="#f27851"/>
        <path id="Trazado_970413" data-name="Trazado 970413" d="M46.032,22.669c.491.65.441.839-1.661,1.712s-2.507.823-2.158,1.287c1.031,1.364-.6,1.45.647,3.079s-.855.97-2.031-.323A4.253,4.253,0,0,1,39.818,24.4c.583-2.956,4.412-4.1,6.213-1.726" transform="translate(22.325 12.028)" fill="#39021f"/>
        <path id="Trazado_970414" data-name="Trazado 970414" d="M39.831,24.39a4.2,4.2,0,0,0,1.011,4.029c.876.959,2.272,1.6,2.4,1.148.15-.541-1.289-.377-1.217-1.756s-.845-1.442-.92-2.611.811-1.161,3.178-2.147c.962-.4,1.058-.839.841-1.211a3.692,3.692,0,0,0-5.29,2.547" transform="translate(22.314 12.033)" fill="#39021f"/>
        <path id="Trazado_970415" data-name="Trazado 970415" d="M40.664,46.151c-.008.112-.019.217-.027.33a.024.024,0,0,0-.016-.006l.016.006c-.67,3.79,7.529.964,11.559-2.487.12-1.444-3.448.177-5.282-.144-4.229-.741,6.046-6.724,3.775-6.593-2.445.137-5.118,2.111-5.429-1.425s-.648-4.895-2.693-6.216c-4.176-2.695-5.495,1.908-4.431,4.217a9.18,9.18,0,0,0,.7,1.425c2.25,3.781,1.979,6.56,1.833,10.894" transform="translate(21.247 16.191)" fill="#ea9d15"/>
        <path id="Trazado_970416" data-name="Trazado 970416" d="M39.924,29.2a3.146,3.146,0,0,1,2.842,2.484c.427,2.468-1.187,7.305,1.033,9.957s4.518,2.242,6.09,2.164,2.172-.848,3.093-.791.806,1.153-1.686,1.879c-1.2.348-6.893,2.776-10.124.112C36.943,41.51,36.023,29.245,39.924,29.2" transform="translate(21.056 16.418)" fill="#f27851"/>
      </g>
    </g>
  </g>
</svg>
