<svg xmlns="http://www.w3.org/2000/svg" width="120" height="120" viewBox="0 0 120 120">
  <g id="Grupo_1117922" data-name="Grupo 1117922" transform="translate(-64 -6445)">
    <rect id="Rect치ngulo_402033" data-name="Rect치ngulo 402033" width="120" height="120" rx="8" transform="translate(64 6445)" fill="#0042db"/>
    <g id="Rect치ngulo_412110" data-name="Rect치ngulo 412110" transform="translate(69 6450)" fill="none" stroke="#fff" stroke-width="1">
      <rect width="110" height="110" rx="6" stroke="none"/>
      <rect x="0.5" y="0.5" width="109" height="109" rx="5.5" fill="none"/>
    </g>
    <g id="Grupo_1118853" data-name="Grupo 1118853" transform="translate(50.913 6460.687)">
      <g id="Grupo_1118852" data-name="Grupo 1118852" transform="translate(37.021 2.359)">
        <g id="Grupo_1118848" data-name="Grupo 1118848">
          <path id="Trazado_969154" data-name="Trazado 969154" d="M93.506,81.212H46.245a2.582,2.582,0,0,1-2.577-2.577V23.428a2.489,2.489,0,0,1,.755-1.822L56.273,9.755A2.49,2.49,0,0,1,58.1,9h35.41a2.582,2.582,0,0,1,2.577,2.577V78.635A2.582,2.582,0,0,1,93.506,81.212Z" transform="translate(-43.668 -9)" fill="#eff4f7" fill-rule="evenodd"/>
          <path id="Trazado_969155" data-name="Trazado 969155" d="M57.364,10.846,45.513,22.7a2.584,2.584,0,0,0-.531.755h10.81a2.331,2.331,0,0,0,2.327-2.327V10.315A2.585,2.585,0,0,0,57.364,10.846Z" transform="translate(-44.759 -10.092)" fill="#e2e3e3" fill-rule="evenodd"/>
        </g>
        <g id="Grupo_1118849" data-name="Grupo 1118849" transform="translate(5.843 15.818)">
          <path id="Trazado_969156" data-name="Trazado 969156" d="M78.727,207.674h5.205a.663.663,0,0,1,.662.662v9.828a.663.663,0,0,1-.662.662H78.727a.663.663,0,0,1-.662-.662v-9.828A.663.663,0,0,1,78.727,207.674Z" transform="translate(-78.065 -189.746)" fill="#fc685b" fill-rule="evenodd"/>
          <path id="Trazado_969157" data-name="Trazado 969157" d="M145.844,172.493h5.205a.663.663,0,0,1,.662.662v15.8a.663.663,0,0,1-.662.662h-5.205a.663.663,0,0,1-.662-.662v-15.8A.663.663,0,0,1,145.844,172.493Z" transform="translate(-133.782 -160.541)" fill="#ffda2d" fill-rule="evenodd"/>
          <path id="Trazado_969158" data-name="Trazado 969158" d="M212.962,137.309h5.205a.663.663,0,0,1,.662.662v21.78a.663.663,0,0,1-.662.662h-5.205a.663.663,0,0,1-.662-.662V137.97A.663.663,0,0,1,212.962,137.309Z" transform="translate(-189.499 -131.333)" fill="#72d561" fill-rule="evenodd"/>
          <path id="Trazado_969159" data-name="Trazado 969159" d="M280.079,102.127h5.205a.663.663,0,0,1,.662.662v27.756a.663.663,0,0,1-.662.662h-5.205a.663.663,0,0,1-.662-.662V102.789A.663.663,0,0,1,280.079,102.127Z" transform="translate(-245.216 -102.127)" fill="#64b5f6" fill-rule="evenodd"/>
        </g>
        <g id="Grupo_1118850" data-name="Grupo 1118850" transform="translate(32.696 37.837)">
          <path id="Trazado_969160" data-name="Trazado 969160" d="M275.6,238.821v15.807a17.127,17.127,0,0,1-7.334,14.3l-12.384,8.9-12.384-8.9a17.128,17.128,0,0,1-7.334-14.3V238.821C251.107,229.406,260.65,229.406,275.6,238.821Z" transform="translate(-236.161 -231.76)" fill="#3cbe52" fill-rule="evenodd"/>
          <path id="Trazado_969161" data-name="Trazado 969161" d="M286.162,253.645c-12.882-7.8-21.118-7.8-34,0v14.292a14.413,14.413,0,0,0,6.2,12.1l10.8,7.761,10.8-7.761a14.414,14.414,0,0,0,6.2-12.1Z" transform="translate(-249.443 -245.069)" fill="#72d561" fill-rule="evenodd"/>
        </g>
        <g id="Grupo_1118851" data-name="Grupo 1118851" transform="translate(40.792 42.19)">
          <path id="Trazado_969162" data-name="Trazado 969162" d="M302.079,273.146l-.546,10.731,3.948,2.072h11.137a2.057,2.057,0,0,0,0-4.114h1.031a2.063,2.063,0,0,0,0-4.127h1.031a2.063,2.063,0,0,0,0-4.126h1.031a2.063,2.063,0,0,0,0-4.127l-7.345.037c.783-3.049,2.052-7.084,2.172-8.37.275-2.969-2.183-5.07-3.586-2.736Z" transform="translate(-298.525 -257.387)" fill="#ffd6bd" fill-rule="evenodd"/>
          <path id="Trazado_969163" data-name="Trazado 969163" d="M284.524,348.388h2.907a.705.705,0,0,0,.7-.7V333.3a.705.705,0,0,0-.7-.7h-2.907a.705.705,0,0,0-.7.7v14.381A.705.705,0,0,0,284.524,348.388Z" transform="translate(-283.821 -319.825)" fill="#ffda2d" fill-rule="evenodd"/>
        </g>
      </g>
      <path id="Trazado_969164" data-name="Trazado 969164" d="M83.483,59.424V70.9l1.62.851H95.9a.7.7,0,1,0,0-1.4H92.038a1.359,1.359,0,0,1,0-2.718h4.9a.7.7,0,0,0,0-1.409H93.069a1.359,1.359,0,0,1,0-2.717h4.9a.7.7,0,0,0,0-1.409H94.1a1.359,1.359,0,0,1,0-2.718H99a.7.7,0,0,0,0-1.409l-7.337.037h-.007a1.358,1.358,0,0,1-1.316-1.7c.284-1.1.626-2.323.957-3.5a46.213,46.213,0,0,0,1.177-4.655,2.317,2.317,0,0,0-.783-2.247.954.954,0,0,0-.286.336Zm-2.718-.74H79.17V71.753h1.595Zm8.311-13.836a2.9,2.9,0,0,1,3.453-1.52c1.728.566,2.866,2.751,2.65,5.082a41.369,41.369,0,0,1-1.267,5.14c-.161.576-.326,1.162-.485,1.737l5.566-.028a3.422,3.422,0,0,1,2.086,6.136,3.42,3.42,0,0,1-1.031,4.126,3.43,3.43,0,0,1-1.031,4.126A3.417,3.417,0,0,1,95.9,74.47H84.766a1.361,1.361,0,0,1-.632-.156l-1.126-.592a2.057,2.057,0,0,1-1.588.748H78.514a2.065,2.065,0,0,1-2.062-2.063V58.027a2.065,2.065,0,0,1,2.062-2.062h2.907a2.068,2.068,0,0,1,.858.188Zm18.714,3.163V63.064a15.673,15.673,0,0,1-6.766,13.2l-11.591,8.33-11.591-8.33a15.675,15.675,0,0,1-6.767-13.2V48.011C85.047,39.369,93.82,39.37,107.79,48.011Zm-36.958-22.5h-3.81V45.9h2.3q.762-.476,1.505-.917Zm11.4-5.976H78.421V41.148a35.481,35.481,0,0,1,3.811-1.3Zm-11,53.676H39.6a1.218,1.218,0,0,1-1.218-1.218V17.078h9.673a3.689,3.689,0,0,0,3.686-3.685V3.718H86.856a1.219,1.219,0,0,1,1.218,1.218v33.94a26.068,26.068,0,0,0-3.124.359V18.177a1.358,1.358,0,0,0-1.359-1.359h-6.53A1.359,1.359,0,0,0,75.7,18.177V42.35q-1.057.508-2.154,1.094V24.153a1.358,1.358,0,0,0-1.359-1.359H65.663A1.358,1.358,0,0,0,64.3,24.153v23.1a1.358,1.358,0,0,0,1.359,1.359h2.694v3.234H55.344a1.359,1.359,0,1,0,0,2.718H68.356v1.98H55.344a1.359,1.359,0,1,0,0,2.718H68.356v3.3H55.344a1.359,1.359,0,1,0,0,2.718H68.477a19.3,19.3,0,0,0,.321,1.98H55.344a1.359,1.359,0,1,0,0,2.718H69.608a18.1,18.1,0,0,0,1.628,3.233ZM40.3,14.36h7.752a.97.97,0,0,0,.969-.968V5.639Zm70.214,32.9V63.064a18.537,18.537,0,0,1-7.9,15.407l-12.385,8.9a1.356,1.356,0,0,1-1.584,0l-12.384-8.9a19.9,19.9,0,0,1-2.9-2.541H39.6a3.939,3.939,0,0,1-3.935-3.935V16.786A3.855,3.855,0,0,1,36.813,14L48.664,2.153A3.861,3.861,0,0,1,51.446,1h35.41a3.94,3.94,0,0,1,3.936,3.935v33.94c5.733.308,11.688,2.574,19.081,7.232A1.351,1.351,0,0,1,110.513,47.257Zm-61.7,15.815L45.323,66.6l-1.514-1.475a1.358,1.358,0,1,0-1.9,1.946l2.478,2.416a1.356,1.356,0,0,0,1.912-.017l4.443-4.484a1.359,1.359,0,0,0-1.93-1.913Zm0-10.713-3.494,3.527-1.514-1.475a1.358,1.358,0,1,0-1.9,1.946l2.478,2.416a1.358,1.358,0,0,0,1.912-.017l4.443-4.484a1.359,1.359,0,0,0-1.93-1.913Zm-4.6-6.46h3.812V37.464H44.22ZM41.5,47.257a1.359,1.359,0,0,0,1.359,1.359H49.39a1.359,1.359,0,0,0,1.359-1.359V36.106a1.36,1.36,0,0,0-1.359-1.359H42.861A1.36,1.36,0,0,0,41.5,36.106V47.257ZM55.62,45.9h3.81V31.488H55.62Zm-1.359,2.717H60.79a1.358,1.358,0,0,0,1.359-1.359V30.129A1.359,1.359,0,0,0,60.79,28.77H54.262A1.359,1.359,0,0,0,52.9,30.129V47.257A1.358,1.358,0,0,0,54.262,48.616ZM45.056,28.175a1.358,1.358,0,0,1,.5-1.856L73.359,10.265l-2.141-.424a1.359,1.359,0,0,1,.528-2.666L77.433,8.3a1.357,1.357,0,0,1,1.022,1.771l-1.868,5.489a1.358,1.358,0,1,1-2.572-.875l.7-2.067L46.913,28.672a1.358,1.358,0,0,1-1.857-.5Z" fill-rule="evenodd"/>
    </g>
  </g>
</svg>
