<svg xmlns="http://www.w3.org/2000/svg" width="50" height="44.938" viewBox="0 0 50 44.938">
  <g id="Grupo_1118519" data-name="Grupo 1118519" transform="translate(0 -25.918)">
    <g id="Grupo_1118518" data-name="Grupo 1118518" transform="translate(7.568 54.181)">
      <g id="Grupo_1118517" data-name="Grupo 1118517">
        <path id="Trazado_968498" data-name="Trazado 968498" d="M106.623,326.807H83.232a5.737,5.737,0,1,1,0-11.473h23.391a5.737,5.737,0,0,1,0,11.473ZM83.232,316.8a4.272,4.272,0,0,0,0,8.544h23.391a4.272,4.272,0,0,0,0-8.544Z" transform="translate(-77.495 -315.334)" fill="#001a58"/>
      </g>
    </g>
    <path id="Trazado_968499" data-name="Trazado 968499" d="M48.535,45.339V48.98h-5.7a.732.732,0,0,0,0,1.465H47.39v18.7a.244.244,0,0,1-.244.244H2.854a.244.244,0,0,1-.244-.244V60.368a.732.732,0,1,0-1.465,0v8.778a1.711,1.711,0,0,0,1.709,1.709H47.146a1.711,1.711,0,0,0,1.709-1.709V50.441A1.221,1.221,0,0,0,50,49.224V45.095a1.222,1.222,0,0,0-1.221-1.221h-.042l-.92-5.268a2.692,2.692,0,0,0-2.656-2.233H43.94v-.242a4.734,4.734,0,0,0,2.033-3.886v-1.59a4.737,4.737,0,1,0-9.474,0v1.59a4.734,4.734,0,0,0,2.033,3.886v.242H37.311a2.692,2.692,0,0,0-2.656,2.233l-.92,5.268H32.5l-.92-5.268a2.692,2.692,0,0,0-2.656-2.233H27.7v-.242a4.734,4.734,0,0,0,2.033-3.886v-1.59a4.737,4.737,0,1,0-9.474,0v1.59A4.734,4.734,0,0,0,22.3,36.131v.242H21.074a2.692,2.692,0,0,0-2.656,2.233l-.092.528a.732.732,0,1,0,1.443.252l.092-.528a1.229,1.229,0,0,1,1.213-1.02H22.3v.15a2.7,2.7,0,1,0,5.407,0v-.15h1.222a1.229,1.229,0,0,1,1.213,1.02l.876,5.016H18.986l.226-1.3a.732.732,0,0,0-1.443-.252l-.27,1.548H16.265l-.92-5.268a2.691,2.691,0,0,0-2.656-2.233H11.467v-.242A4.734,4.734,0,0,0,13.5,32.245v-1.59a4.737,4.737,0,0,0-9.474,0v1.59A4.734,4.734,0,0,0,6.06,36.131v.242H4.838a2.692,2.692,0,0,0-2.656,2.233l-.92,5.268H1.221A1.222,1.222,0,0,0,0,45.095v4.129a1.221,1.221,0,0,0,1.146,1.217v6.735a.732.732,0,1,0,1.465,0V50.445h37.03a.732.732,0,1,0,0-1.465H1.465V45.339ZM25,27.383a3.27,3.27,0,0,1,2.679,1.4c-2.986,2.049-5.088,1.7-5.919,1.414A3.277,3.277,0,0,1,25,27.383ZM21.728,31.7a6.158,6.158,0,0,0,1.455.169,9.236,9.236,0,0,0,5.053-1.7,3.282,3.282,0,0,1,.036.485v1.59a3.272,3.272,0,0,1-6.545,0V31.7ZM25,39.227a1.24,1.24,0,0,1-1.239-1.239V36.816a4.722,4.722,0,0,0,2.478,0v1.172A1.24,1.24,0,0,1,25,39.227Zm15-2.411a4.721,4.721,0,0,0,2.478,0v1.172a1.239,1.239,0,0,1-2.478,0Zm1.239-9.433a3.27,3.27,0,0,1,2.679,1.4c-2.986,2.049-5.088,1.7-5.919,1.414a3.277,3.277,0,0,1,3.239-2.811ZM37.964,31.7a6.158,6.158,0,0,0,1.455.169,9.236,9.236,0,0,0,5.053-1.7,3.283,3.283,0,0,1,.036.485v1.59a3.272,3.272,0,0,1-6.545,0V31.7ZM36.1,38.858a1.229,1.229,0,0,1,1.213-1.02h1.222v.15a2.7,2.7,0,1,0,5.408,0v-.15h1.222a1.229,1.229,0,0,1,1.213,1.02l.876,5.016H35.223ZM7.525,36.816a4.721,4.721,0,0,0,2.478,0v1.172a1.239,1.239,0,0,1-2.478,0Zm1.239-9.433a3.27,3.27,0,0,1,2.679,1.4c-2.986,2.049-5.088,1.7-5.919,1.414a3.277,3.277,0,0,1,3.239-2.811ZM5.491,31.7a6.158,6.158,0,0,0,1.455.169A9.236,9.236,0,0,0,12,30.17a3.283,3.283,0,0,1,.036.485v1.59a3.272,3.272,0,0,1-6.544,0ZM3.625,38.858a1.229,1.229,0,0,1,1.213-1.02H6.06v.15a2.7,2.7,0,0,0,5.408,0v-.15h1.222a1.229,1.229,0,0,1,1.213,1.02l.876,5.016H2.749Z" fill="#001a58"/>
  </g>
</svg>
