<svg xmlns="http://www.w3.org/2000/svg" width="50" height="50" viewBox="0 0 50 50">
  <g id="Grupo_1117869" data-name="Grupo 1117869" transform="translate(-1 -1)">
    <path id="Trazado_957817" data-name="Trazado 957817" d="M14.782,41.217a5.645,5.645,0,1,0-6.6,0A10.5,10.5,0,0,0,1,51.161v5.645H21.968V51.161A10.5,10.5,0,0,0,14.782,41.217ZM7.452,36.645a4.032,4.032,0,1,1,4.032,4.032A4.037,4.037,0,0,1,7.452,36.645Zm1.21,14.516H7.452V47.935H12.29v7.258H11.211a2.822,2.822,0,0,0-2.55-4.032Zm11.694,4.032H17.129V47.935H15.516v7.258H13.9V46.323H5.839v4.839H4.226v1.613H8.661a1.21,1.21,0,0,1,0,2.419H2.613V51.161a8.871,8.871,0,0,1,17.742,0Z" transform="translate(0 -5.806)" fill="#001a58"/>
    <path id="Trazado_957818" data-name="Trazado 957818" d="M50.782,41.217a5.645,5.645,0,1,0-6.6,0A10.5,10.5,0,0,0,37,51.161v5.645H57.968V51.161A10.5,10.5,0,0,0,50.782,41.217Zm-7.331-4.572a4.032,4.032,0,1,1,4.032,4.032A4.037,4.037,0,0,1,43.452,36.645Zm1.21,14.516h-1.21V47.935H48.29v7.258H47.211a2.822,2.822,0,0,0-2.55-4.032Zm11.694,4.032H53.129V47.935H51.516v7.258H49.9V46.323H41.839v4.839H40.226v1.613h4.435a1.21,1.21,0,1,1,0,2.419H38.613V51.161a8.871,8.871,0,0,1,17.742,0Z" transform="translate(-6.968 -5.806)" fill="#001a58"/>
    <path id="Trazado_957819" data-name="Trazado 957819" d="M25.2,15.485a2.209,2.209,0,0,1,.835,1.767v.683a4.032,4.032,0,0,0,8.065,0v-.623a2.435,2.435,0,0,1,.952-1.917A8.06,8.06,0,0,0,29.816,1,8.116,8.116,0,0,0,22,9.094,8,8,0,0,0,25.2,15.485Zm7.287,2.45a2.419,2.419,0,0,1-4.839,0v-.683c0-.042-.006-.082-.007-.123h4.856c0,.061-.01.122-.01.184Zm-2.419-7.258a1.613,1.613,0,1,1,1.613-1.613A1.615,1.615,0,0,1,30.065,10.677Zm-.2-8.061c.067,0,.134,0,.2,0a6.445,6.445,0,0,1,3.986,11.515,4.13,4.13,0,0,0-1.139,1.389H30.871v-3.34a3.226,3.226,0,1,0-1.613,0v3.34H27.244A3.666,3.666,0,0,0,26.17,14.2a6.4,6.4,0,0,1-2.557-5.113,6.491,6.491,0,0,1,6.252-6.471Z" transform="translate(-4.065 0)" fill="#001a58"/>
    <path id="Trazado_957820" data-name="Trazado 957820" d="M51.06,20.294a2.424,2.424,0,1,0,1.552-.432,18.422,18.422,0,0,0-5.526-8.994l-1.077,1.2A16.816,16.816,0,0,1,51.06,20.294Zm2.2,1.971a.806.806,0,1,1-.806-.806A.807.807,0,0,1,53.26,22.265Z" transform="translate(-8.712 -1.91)" fill="#001a58"/>
    <path id="Trazado_957821" data-name="Trazado 957821" d="M45.591,9.616c-.416-.323-.852-.634-1.3-.924l-.878,1.353c.407.265.806.548,1.185.844Z" transform="translate(-8.209 -1.489)" fill="#001a58"/>
    <path id="Trazado_957822" data-name="Trazado 957822" d="M9.419,24.684a2.415,2.415,0,0,0,1.394-4.39,16.814,16.814,0,0,1,5.049-8.225l-1.077-1.2A18.428,18.428,0,0,0,9.26,19.861a2.414,2.414,0,0,0,.16,4.823Zm0-3.226a.806.806,0,1,1-.806.806A.807.807,0,0,1,9.419,21.458Z" transform="translate(-1.161 -1.91)" fill="#001a58"/>
    <path id="Trazado_957823" data-name="Trazado 957823" d="M20.063,10.045l-.878-1.353c-.446.29-.882.6-1.3.924l.991,1.273c.38-.3.779-.579,1.185-.844Z" transform="translate(-3.268 -1.489)" fill="#001a58"/>
    <path id="Trazado_957824" data-name="Trazado 957824" d="M35.709,35.839a2.419,2.419,0,1,0-2.271-3.226H26.689a2.419,2.419,0,1,0,0,1.613h6.749A2.416,2.416,0,0,0,35.709,35.839Zm0-3.226a.806.806,0,1,1-.806.806A.807.807,0,0,1,35.709,32.613Zm-11.29,1.613a.806.806,0,1,1,.806-.806A.807.807,0,0,1,24.419,34.226Z" transform="translate(-4.064 -5.806)" fill="#001a58"/>
  </g>
</svg>
