<svg xmlns="http://www.w3.org/2000/svg" width="40" height="39.303" viewBox="0 0 40 39.303">
  <g id="Grupo_1118953" data-name="Grupo 1118953" transform="translate(-0.9 -1)">
    <path id="Trazado_969347" data-name="Trazado 969347" d="M29.49,39.035h-3.8V37.767h6.339a.634.634,0,0,0,0-1.268H25.686V29.526a.6.6,0,0,0-.634-.634H18.713a.6.6,0,0,0-.634.634V36.5H15.543a.634.634,0,0,0,0,1.268h2.536v1.268H9.838V4.8H33.927v1.9a.634.634,0,1,0,1.268,0V4.17a.6.6,0,0,0-.634-.634h-.634v-1.9A.6.6,0,0,0,33.293,1H15.543a.6.6,0,0,0-.634.634.6.6,0,0,0,.634.634H32.659V3.536H11.106V2.268h1.9a.6.6,0,0,0,.634-.634A.6.6,0,0,0,13.008,1H10.472a.6.6,0,0,0-.634.634v1.9H9.2a.6.6,0,0,0-.634.634v3.17H7.3V6.705a.6.6,0,0,0-.634-.634.6.6,0,0,0-.634.634V37.133a.6.6,0,0,0,.634.634.6.6,0,0,0,.634-.634V36.5H8.57v2.536H3.5V34.978c1.2-.951,1.268-4.628,1.268-5.452,0-.951-.063-5.705-1.9-5.705-.887,0-1.395,1.014-1.712,3.106a.594.594,0,0,0,.507.7.594.594,0,0,0,.7-.507A7.568,7.568,0,0,1,2.8,25.279a11.586,11.586,0,0,1,.634,4.247A11.3,11.3,0,0,1,2.8,33.773a11.586,11.586,0,0,1-.634-4.247.6.6,0,0,0-.634-.634.6.6,0,0,0-.634.634c0,.824.063,4.5,1.268,5.452v4.057a.634.634,0,0,0,0,1.268H29.426a.6.6,0,0,0,.634-.634C30.06,39.288,29.87,39.035,29.49,39.035ZM8.57,35.231H7.3V33.964H8.57Zm0-2.536H7.3V31.428H8.57Zm0-2.536H7.3V28.892H8.57Zm0-2.536H7.3V26.357H8.57Zm0-2.536H7.3V23.821H8.57Zm0-2.536H7.3V21.285H8.57Zm0-2.536H7.3V18.75H8.57Zm0-2.536H7.3V16.214H8.57Zm0-2.536H7.3V13.678H8.57Zm0-2.536H7.3V11.143H8.57Zm0-2.536H7.3V8.607H8.57Zm15.848,29.16H19.347V30.16h5.071Z" fill="#0042db"/>
    <path id="Trazado_969348" data-name="Trazado 969348" d="M57.875,45.624H56.607V41.567a4.023,4.023,0,0,0,1.014-2.282.646.646,0,0,0-1.268-.254,4.987,4.987,0,0,1-.38,1.331,11.586,11.586,0,0,1-.634-4.247,11.3,11.3,0,0,1,.634-4.247,11.586,11.586,0,0,1,.634,4.247.634.634,0,1,0,1.268,0c0-.951-.063-5.705-1.9-5.705s-1.9,4.754-1.9,5.705c0,.824.063,4.5,1.268,5.452v4.057H52.8V19.634a.634.634,0,1,0-1.268,0v25.99h-1.9a.634.634,0,1,0,0,1.268h8.241a.634.634,0,1,0,0-1.268Z" transform="translate(-17.609 -6.59)" fill="#0042db"/>
    <path id="Trazado_969349" data-name="Trazado 969349" d="M53.634,13a.6.6,0,0,0-.634.634V14.9a.634.634,0,0,0,1.268,0V13.634A.6.6,0,0,0,53.634,13Z" transform="translate(-19.073 -4.393)" fill="#0042db"/>
    <path id="Trazado_969350" data-name="Trazado 969350" d="M22.705,14.071V9.634A.6.6,0,0,0,22.071,9h-3.8a.6.6,0,0,0-.634.634v4.437a.634.634,0,1,0,0,1.268h5.071a.634.634,0,0,0,0-1.268Zm-1.268,0H18.9V12.8h2.536Zm0-2.536H18.9V10.268h2.536Z" transform="translate(-5.894 -2.929)" fill="#0042db"/>
    <path id="Trazado_969351" data-name="Trazado 969351" d="M34.705,14.071V9.634A.6.6,0,0,0,34.071,9h-3.8a.6.6,0,0,0-.634.634v4.437a.634.634,0,1,0,0,1.268h5.071a.634.634,0,0,0,0-1.268Zm-1.268,0H30.9V12.8h2.536Zm0-2.536H30.9V10.268h2.536Z" transform="translate(-10.287 -2.929)" fill="#0042db"/>
    <path id="Trazado_969352" data-name="Trazado 969352" d="M46.705,14.071V9.634A.6.6,0,0,0,46.071,9h-3.8a.6.6,0,0,0-.634.634v4.437a.634.634,0,0,0,0,1.268h5.071a.634.634,0,0,0,0-1.268Zm-1.268,0H42.9V12.8h2.536Zm0-2.536H42.9V10.268h2.536Z" transform="translate(-14.68 -2.929)" fill="#0042db"/>
    <path id="Trazado_969353" data-name="Trazado 969353" d="M22.705,26.071V21.634A.6.6,0,0,0,22.071,21h-3.8a.6.6,0,0,0-.634.634v4.437a.634.634,0,0,0,0,1.268h5.071a.634.634,0,1,0,0-1.268Zm-1.268,0H18.9V24.8h2.536Zm0-2.536H18.9V22.268h2.536Z" transform="translate(-5.894 -7.322)" fill="#0042db"/>
    <path id="Trazado_969354" data-name="Trazado 969354" d="M34.705,26.071V21.634A.6.6,0,0,0,34.071,21h-3.8a.6.6,0,0,0-.634.634v4.437a.634.634,0,1,0,0,1.268h5.071a.634.634,0,1,0,0-1.268Zm-1.268,0H30.9V24.8h2.536Zm0-2.536H30.9V22.268h2.536Z" transform="translate(-10.287 -7.322)" fill="#0042db"/>
    <path id="Trazado_969355" data-name="Trazado 969355" d="M46.705,26.071V21.634A.6.6,0,0,0,46.071,21h-3.8a.6.6,0,0,0-.634.634v4.437a.634.634,0,0,0,0,1.268h5.071a.634.634,0,0,0,0-1.268Zm-1.268,0H42.9V24.8h2.536Zm0-2.536H42.9V22.268h2.536Z" transform="translate(-14.68 -7.322)" fill="#0042db"/>
    <path id="Trazado_969356" data-name="Trazado 969356" d="M22.705,38.071V33.634A.6.6,0,0,0,22.071,33h-3.8a.6.6,0,0,0-.634.634v4.437a.634.634,0,0,0,0,1.268h5.071a.634.634,0,1,0,0-1.268Zm-1.268,0H18.9V36.8h2.536Zm0-2.536H18.9V34.268h2.536Z" transform="translate(-5.894 -11.715)" fill="#0042db"/>
    <path id="Trazado_969357" data-name="Trazado 969357" d="M34.071,33h-3.8a.6.6,0,0,0-.634.634v4.437a.634.634,0,0,0,0,1.268h5.071a.634.634,0,1,0,0-1.268V33.634A.6.6,0,0,0,34.071,33Zm-.634,5.071H30.9V36.8h2.536Zm0-2.536H30.9V34.268h2.536Z" transform="translate(-10.287 -11.715)" fill="#0042db"/>
    <path id="Trazado_969358" data-name="Trazado 969358" d="M46.705,38.071V33.634A.6.6,0,0,0,46.071,33h-3.8a.6.6,0,0,0-.634.634v4.437a.634.634,0,0,0,0,1.268h5.071a.634.634,0,0,0,0-1.268Zm-1.268,0H42.9V36.8h2.536Zm0-2.536H42.9V34.268h2.536Z" transform="translate(-14.68 -11.715)" fill="#0042db"/>
    <path id="Trazado_969359" data-name="Trazado 969359" d="M23.339,50.705a.6.6,0,0,0-.634-.634V45.634A.6.6,0,0,0,22.071,45h-3.8a.6.6,0,0,0-.634.634v4.437a.634.634,0,1,0,0,1.268h5.071A.6.6,0,0,0,23.339,50.705Zm-1.9-.634H18.9V48.8h2.536Zm0-2.536H18.9V46.268h2.536Z" transform="translate(-5.894 -16.108)" fill="#0042db"/>
    <path id="Trazado_969360" data-name="Trazado 969360" d="M46.071,45h-3.8a.6.6,0,0,0-.634.634v4.437a.634.634,0,0,0,0,1.268h5.071a.634.634,0,0,0,0-1.268V45.634A.6.6,0,0,0,46.071,45Zm-.634,5.071H42.9V48.8h2.536Zm0-2.536H42.9V46.268h2.536Z" transform="translate(-14.68 -16.108)" fill="#0042db"/>
    <path id="Trazado_969361" data-name="Trazado 969361" d="M17.634,57a.634.634,0,1,0,0,1.268H18.9A.634.634,0,0,0,18.9,57Z" transform="translate(-5.894 -20.501)" fill="#0042db"/>
    <circle id="Elipse_13672" data-name="Elipse 13672" cx="0.634" cy="0.634" r="0.634" transform="translate(21.883 33.964)" fill="#0042db"/>
  </g>
</svg>
