<svg xmlns="http://www.w3.org/2000/svg" width="85" height="85" viewBox="0 0 85 85">
  <g id="Grupo_1118069" data-name="Grupo 1118069" transform="translate(-199.282 -497)">
    <rect id="Rectángulo_412256" data-name="Rectángulo 412256" width="85" height="85" rx="5" transform="translate(199.282 497)" fill="#8bc34a"/>
    <g id="Grupo_1121441" data-name="Grupo 1121441" transform="translate(210.828 508.546)">
      <path id="Trazado_974530" data-name="Trazado 974530" d="M67.576,347.4H7.478L16.4,325.8H58.653Z" transform="translate(-6.573 -286.408)" fill="#a8eefc"/>
      <path id="Trazado_974531" data-name="Trazado 974531" d="M407.052,325.8H403.8l8.924,21.6h3.255Z" transform="translate(-354.973 -286.408)" fill="#7ee5f2"/>
      <path id="Trazado_974532" data-name="Trazado 974532" d="M92.3,337.86l-1.984-4.8H66.821l-8.3-7.257H53.178l-3,7.257H42.067l-1.984,4.8H48.2L44.254,347.4H49.6l6.647-16.091L75.161,347.4h8.064L72.312,337.86Z" transform="translate(-35.236 -286.408)" fill="#ffdb56"/>
      <path id="Trazado_974533" data-name="Trazado 974533" d="M430.573,390.619h3.255l-1.984-4.8h-3.255Z" transform="translate(-376.767 -339.167)" fill="#ffbb24"/>
      <g id="Grupo_1121440" data-name="Grupo 1121440" transform="translate(6.831 39.393)">
        <path id="Trazado_974534" data-name="Trazado 974534" d="M64.6,333.058H56.491l3-7.257H67.6Z" transform="translate(-56.491 -325.801)" fill="#4ce166"/>
        <path id="Trazado_974535" data-name="Trazado 974535" d="M224.38,333.058H200.888l-8.3-7.257h28.792Z" transform="translate(-176.134 -325.801)" fill="#4ce166"/>
      </g>
      <path id="Trazado_974536" data-name="Trazado 974536" d="M410.05,333.058l-3-7.257H403.8l3,7.257Z" transform="translate(-354.973 -286.408)" fill="#44c868"/>
      <path id="Trazado_974537" data-name="Trazado 974537" d="M125.433,371.389l-6.647,16.091h25.562Z" transform="translate(-104.423 -326.484)" fill="#4ce166"/>
      <path id="Trazado_974538" data-name="Trazado 974538" d="M120.586,7.534A18.7,18.7,0,0,0,101.961,26.3c0,15.782,18.625,30.3,18.625,30.3s18.625-14.521,18.625-30.3A18.7,18.7,0,0,0,120.586,7.534Zm0,26.25a7.485,7.485,0,1,1,7.429-7.484A7.457,7.457,0,0,1,120.586,33.784Z" transform="translate(-89.632 -6.623)" fill="#ff4a4a"/>
      <path id="Trazado_974539" data-name="Trazado 974539" d="M244.167,7.534c-.548,0-1.091.025-1.627.072a18.711,18.711,0,0,1,17,18.693c0,12.91-12.462,24.975-17,28.939,1.009.882,1.627,1.364,1.627,1.364s18.625-14.521,18.625-30.3A18.7,18.7,0,0,0,244.167,7.534Z" transform="translate(-213.214 -6.623)" fill="#e7343f"/>
      <path id="Trazado_974540" data-name="Trazado 974540" d="M195.417,110.088a8.4,8.4,0,0,0,0-16.791,8.243,8.243,0,0,0-4.719,1.475.915.915,0,0,0-.232,1.267.9.9,0,0,0,1.257.234,6.452,6.452,0,0,1,3.693-1.154,6.555,6.555,0,1,1-5.792,3.544.914.914,0,0,0-.385-1.229.9.9,0,0,0-1.219.388,8.47,8.47,0,0,0-.937,3.87A8.374,8.374,0,0,0,195.417,110.088Z" transform="translate(-164.463 -82.016)"/>
      <path id="Trazado_974541" data-name="Trazado 974541" d="M61.838,60.646l-8.924-21.6h0a.9.9,0,0,0-.835-.561H43.187a46.111,46.111,0,0,0,4.294-7.011,27.03,27.03,0,0,0,3-11.795,19.53,19.53,0,1,0-39.059,0,27.03,27.03,0,0,0,3,11.795,46.085,46.085,0,0,0,4.294,7.011H9.828a.9.9,0,0,0-.835.561L2.913,53.763A.913.913,0,0,0,3.4,54.954a.9.9,0,0,0,1.182-.491l.868-2.1H11.6l-3.19,7.722H2.26l.925-2.238A.913.913,0,0,0,2.7,56.655a.9.9,0,0,0-1.182.491L.07,60.646a.916.916,0,0,0,.083.855.9.9,0,0,0,.752.406H61a.9.9,0,0,0,.752-.406A.917.917,0,0,0,61.838,60.646Zm-48.6-40.97a17.721,17.721,0,1,1,35.442,0c0,4.128-1.424,10.725-8.01,19.132l-.019.024q-.5.643-1.05,1.3a69.564,69.564,0,0,1-8.643,8.676,69.457,69.457,0,0,1-8.619-8.647q-.559-.673-1.075-1.331l-.017-.021C14.658,30.4,13.233,23.806,13.233,19.676ZM10.431,40.3h6.155l-2.245,5.435H8.186Zm5.287,19.781L21.37,46.4,37.453,60.085Zm24.538,0L21.593,44.209a.9.9,0,0,0-1.418.346L13.76,60.085H10.374L13.8,51.8a.916.916,0,0,0-.083-.855.9.9,0,0,0-.752-.406H6.2l1.231-2.98h7.511A.9.9,0,0,0,15.779,47l2.766-6.7h1.569q.409.513.834,1.027A68.217,68.217,0,0,0,30.4,50.7a.9.9,0,0,0,1.107,0c.106-.083,1.542-1.21,3.588-3.139H45.334a.911.911,0,0,0,0-1.822H36.958c1.254-1.27,2.624-2.751,4-4.408q.426-.513.834-1.027h9.683l2.245,5.435H48.95a.911.911,0,0,0,0,1.822h5.523l1.231,2.98H37.076a.9.9,0,0,0-.847.592.916.916,0,0,0,.254,1.007l9.084,7.945Zm8.07,0L39.5,52.363H56.458l3.19,7.722Z" transform="translate(0)"/>
    </g>
  </g>
</svg>
