<svg xmlns="http://www.w3.org/2000/svg" width="85" height="85" viewBox="0 0 85 85">
  <g id="Grupo_1118065" data-name="Grupo 1118065" transform="translate(-199.282 -497)">
    <rect id="Rectángulo_412256" data-name="Rectángulo 412256" width="85" height="85" rx="5" transform="translate(199.282 497)" fill="#8bc34a"/>
    <g id="Grupo_1121435" data-name="Grupo 1121435" transform="translate(210.755 508.485)">
      <path id="Trazado_974478" data-name="Trazado 974478" d="M67.733,37.594A30.1,30.1,0,0,1,39.188,67.657q-.772.038-1.556.039a30.1,30.1,0,1,1,30.1-30.1Z" transform="translate(-6.605 -6.584)" fill="#f4f4f5"/>
      <path id="Trazado_974479" data-name="Trazado 974479" d="M39.188,75.575q-.772.038-1.556.039A30.1,30.1,0,0,1,29.576,16.5C24.754,26.376,15.357,53.006,39.188,75.575Z" transform="translate(-6.605 -14.503)" fill="#dedde0"/>
      <path id="Trazado_974480" data-name="Trazado 974480" d="M411.831,89.169v.92a1.817,1.817,0,0,1-1.593,1.8,1.7,1.7,0,0,1-.224.015h-9.136a1.817,1.817,0,0,1-1.817-1.817v-.92a6.385,6.385,0,1,1,12.77,0Z" transform="translate(-350.702 -72.753)" fill="#ace094"/>
      <path id="Trazado_974481" data-name="Trazado 974481" d="M410.238,92.893a1.7,1.7,0,0,1-.224.015h-9.136a1.817,1.817,0,0,1-1.817-1.817v-.92a6.388,6.388,0,0,1,5.058-6.248A21.4,21.4,0,0,0,410.238,92.893Z" transform="translate(-350.702 -73.755)" fill="#8dd470"/>
      <path id="Trazado_974482" data-name="Trazado 974482" d="M411.832,13.879a6.385,6.385,0,0,1-6.11,6.378l-2.383-1.637-2.359-.182a6.385,6.385,0,1,1,10.852-4.56Z" transform="translate(-350.703 -6.584)" fill="#ffddcf"/>
      <path id="Trazado_974483" data-name="Trazado 974483" d="M405.72,21.013c-.091,0-.183.006-.275.006a6.386,6.386,0,0,1-1.153-12.666C403.733,9.642,401.985,14.718,405.72,21.013Z" transform="translate(-350.701 -7.34)" fill="#ffcbbe"/>
      <path id="Trazado_974484" data-name="Trazado 974484" d="M411.831,435.527v.919a1.819,1.819,0,0,1-1.446,1.78,1.866,1.866,0,0,1-.371.038h-9.136a1.817,1.817,0,0,1-1.817-1.817v-.919a6.385,6.385,0,0,1,12.77,0Z" transform="translate(-350.702 -377.153)" fill="#a57cd2"/>
      <path id="Trazado_974485" data-name="Trazado 974485" d="M410.384,439.158a1.863,1.863,0,0,1-.371.038h-9.136a1.817,1.817,0,0,1-1.817-1.817v-.919a6.385,6.385,0,0,1,5.106-6.256A21.65,21.65,0,0,0,410.384,439.158Z" transform="translate(-350.701 -378.085)" fill="#8c5ac5"/>
      <path id="Trazado_974486" data-name="Trazado 974486" d="M411.831,360.229a6.385,6.385,0,0,1-6.019,6.374l-2.187-1.4-2.647-.412a6.385,6.385,0,1,1,10.852-4.561Z" transform="translate(-350.702 -310.975)" fill="#ffddcf"/>
      <path id="Trazado_974487" data-name="Trazado 974487" d="M405.812,367.455q-.182.011-.367.011a6.386,6.386,0,0,1-1.225-12.653C403.6,356.348,402.109,361.339,405.812,367.455Z" transform="translate(-350.702 -311.828)" fill="#ffcbbe"/>
      <path id="Trazado_974488" data-name="Trazado 974488" d="M20.3,435.527v.919a1.818,1.818,0,0,1-1.817,1.817H9.348a1.818,1.818,0,0,1-1.817-1.817v-.919a6.385,6.385,0,0,1,12.77,0Z" transform="translate(-6.605 -377.153)" fill="#b4e9f1"/>
      <path id="Trazado_974489" data-name="Trazado 974489" d="M18.833,439.2a1.833,1.833,0,0,1-.349.034H9.348a1.818,1.818,0,0,1-1.817-1.817v-.919a6.386,6.386,0,0,1,5.082-6.251A21.657,21.657,0,0,0,18.833,439.2Z" transform="translate(-6.605 -378.12)" fill="#81d8e7"/>
      <path id="Trazado_974490" data-name="Trazado 974490" d="M20.3,360.229a6.384,6.384,0,0,1-6.043,6.375l-2.322-1.769H9.495A6.385,6.385,0,1,1,20.3,360.229Z" transform="translate(-6.605 -310.975)" fill="#ffddcf"/>
      <path id="Trazado_974491" data-name="Trazado 974491" d="M14.258,367.5c-.113.007-.227.01-.342.01a6.386,6.386,0,0,1-1.255-12.646C12.039,356.405,10.557,361.393,14.258,367.5Z" transform="translate(-6.605 -311.872)" fill="#ffcbbe"/>
      <path id="Trazado_974492" data-name="Trazado 974492" d="M20.3,89.169v.92a1.816,1.816,0,0,1-1.615,1.805,1.591,1.591,0,0,1-.2.012H9.348a1.818,1.818,0,0,1-1.817-1.817v-.92a6.385,6.385,0,1,1,12.77,0Z" transform="translate(-6.605 -72.753)" fill="#ffb25a"/>
      <path id="Trazado_974493" data-name="Trazado 974493" d="M18.686,92.939a1.591,1.591,0,0,1-.2.012H9.348a1.818,1.818,0,0,1-1.817-1.817v-.919a6.389,6.389,0,0,1,5.032-6.241A21.414,21.414,0,0,0,18.686,92.939Z" transform="translate(-6.605 -73.799)" fill="#ff9c20"/>
      <path id="Trazado_974494" data-name="Trazado 974494" d="M20.3,13.879a6.383,6.383,0,0,1-6.135,6.378l-2.313-1.472-2.4-.345h0A6.385,6.385,0,1,1,20.3,13.879Z" transform="translate(-6.605 -6.584)" fill="#ffddcf"/>
      <path id="Trazado_974495" data-name="Trazado 974495" d="M14.166,21.057c-.082,0-.166.006-.25.006A6.385,6.385,0,0,1,12.733,8.4C12.172,9.7,10.435,14.773,14.166,21.057Z" transform="translate(-6.605 -7.384)" fill="#ffcbbe"/>
      <path id="Trazado_974496" data-name="Trazado 974496" d="M223.127,193.675a5.473,5.473,0,0,1-5.473,5.473h-.934a.89.89,0,0,0-.89.89v3.3a.908.908,0,0,1-1.551.642l-4.568-4.568a.909.909,0,0,0-.642-.265h-7.833a5.473,5.473,0,1,1,0-10.946h16.419A5.473,5.473,0,0,1,223.127,193.675Z" transform="translate(-172.031 -165.402)" fill="#ffb25a"/>
      <path id="Trazado_974497" data-name="Trazado 974497" d="M213.068,196.664a8.336,8.336,0,0,1-1.456,4.722l-1.9-1.9a.909.909,0,0,0-.642-.265h-7.833a5.473,5.473,0,0,1-.322-10.936h3.775a8.38,8.38,0,0,1,8.381,8.381Z" transform="translate(-172.031 -165.472)" fill="#ff9c20"/>
      <path id="Trazado_974498" data-name="Trazado 974498" d="M110.187,223.786a5.474,5.474,0,0,1-5.473,5.473H96.88a.909.909,0,0,0-.642.265l-4.568,4.568a.908.908,0,0,1-1.551-.642v-3.3a.89.89,0,0,0-.89-.89h-.934a5.473,5.473,0,1,1,0-10.947h16.419A5.473,5.473,0,0,1,110.187,223.786Z" transform="translate(-72.774 -191.864)" fill="#ace094"/>
      <path id="Trazado_974499" data-name="Trazado 974499" d="M97.282,229.26h-.4a.909.909,0,0,0-.642.265l-4.568,4.568a.908.908,0,0,1-1.551-.642v-3.3a.89.89,0,0,0-.89-.89h-.934a5.473,5.473,0,1,1,0-10.947h6.919c-.982,2.249-1.6,6.5,2.069,10.947Z" transform="translate(-72.774 -191.864)" fill="#8dd470"/>
      <path id="Trazado_974500" data-name="Trazado 974500" d="M62.037,7.3a7.293,7.293,0,0,0-14.2-2.344A30.809,30.809,0,0,0,41.16,1.7a.909.909,0,1,0-.593,1.718,29.012,29.012,0,0,1,6.9,3.468,7.253,7.253,0,0,0,1.593,4.971,7.23,7.23,0,0,0-1.606,4.564v.92a2.729,2.729,0,0,0,2.726,2.726h7.919a29.24,29.24,0,0,1-.283,22.577,7.28,7.28,0,0,0-7.44.776.909.909,0,1,0,1.089,1.454A5.477,5.477,0,1,1,49.437,47.9a.909.909,0,1,0-1.761-.447,7.276,7.276,0,0,0,1.38,6.363c-.1.126-.2.254-.289.385a29.168,29.168,0,0,1-35.477,0c-.092-.131-.188-.26-.289-.386A7.288,7.288,0,0,0,4.244,42.642,29.239,29.239,0,0,1,3.96,20.064h7.919A2.729,2.729,0,0,0,14.6,17.338v-.92A7.24,7.24,0,0,0,13,11.854a7.253,7.253,0,0,0,1.593-4.969,29.17,29.17,0,0,1,22-4.534A.909.909,0,1,0,36.939.567,31,31,0,0,0,14.216,4.952a7.292,7.292,0,1,0-12.593,6.9A7.238,7.238,0,0,0,.018,16.419v.92a2.73,2.73,0,0,0,2.026,2.634,31.056,31.056,0,0,0,.646,23.646,7.281,7.281,0,0,0-1.067,10.2A7.238,7.238,0,0,0,.018,58.378v.92a2.729,2.729,0,0,0,2.726,2.726h9.136A2.729,2.729,0,0,0,14.6,59.3a12.16,12.16,0,0,0-.084-2.027,31.015,31.015,0,0,0,33.012,0A12.065,12.065,0,0,0,47.45,59.3a2.729,2.729,0,0,0,2.726,2.726h9.136A2.729,2.729,0,0,0,62.037,59.3v-.92a7.238,7.238,0,0,0-1.605-4.564,7.281,7.281,0,0,0-1.066-10.2,31.057,31.057,0,0,0,.646-23.646,2.73,2.73,0,0,0,2.026-2.634v-.92a7.238,7.238,0,0,0-1.605-4.564A7.258,7.258,0,0,0,62.037,7.3ZM7.311,1.821A5.477,5.477,0,1,1,1.835,7.3,5.483,5.483,0,0,1,7.311,1.821Zm-5.476,14.6a5.434,5.434,0,0,1,1.1-3.291,7.275,7.275,0,0,0,8.754,0,5.436,5.436,0,0,1,1.1,3.291v.92a.91.91,0,0,1-.909.909H2.744a.91.91,0,0,1-.909-.909v-.92ZM7.311,43.78a5.476,5.476,0,1,1-5.477,5.476A5.483,5.483,0,0,1,7.311,43.78ZM12.788,59.3a.91.91,0,0,1-.909.909H2.743a.91.91,0,0,1-.909-.909v-.919a5.434,5.434,0,0,1,1.1-3.291,7.275,7.275,0,0,0,8.754,0,5.434,5.434,0,0,1,1.1,3.291Zm47.432,0a.91.91,0,0,1-.909.909H50.176a.91.91,0,0,1-.909-.909v-.919a5.431,5.431,0,0,1,1.1-3.291,7.275,7.275,0,0,0,8.754,0,5.434,5.434,0,0,1,1.1,3.291ZM54.744,1.821A5.477,5.477,0,1,1,49.267,7.3,5.483,5.483,0,0,1,54.744,1.821ZM60.22,17.338a.91.91,0,0,1-.909.909H50.176a.91.91,0,0,1-.909-.909v-.92a5.429,5.429,0,0,1,1.1-3.291,7.275,7.275,0,0,0,8.754,0,5.434,5.434,0,0,1,1.1,3.291v.92Z" transform="translate(0 0)"/>
      <path id="Trazado_974501" data-name="Trazado 974501" d="M98.133,195.326a.909.909,0,0,0,0,1.817,6.386,6.386,0,0,0,5.522-3.211l4.13,4.13a1.819,1.819,0,0,0,3.1-1.284v-3.283h.916a6.381,6.381,0,1,0,0-12.763H95.386a6.366,6.366,0,0,0-5.766,3.648H81.7a6.382,6.382,0,0,0,0,12.764h.916v3.283a1.819,1.819,0,0,0,3.1,1.285l4.568-4.568h3.605a.909.909,0,1,0,0-1.817H90.29a1.829,1.829,0,0,0-1.285.531l-4.568,4.567v-3.3a1.8,1.8,0,0,0-1.8-1.8H81.7a4.565,4.565,0,0,1,0-9.13H98.123a4.565,4.565,0,0,1,.01,9.13Zm-.01-10.947h-6.39a4.539,4.539,0,0,1,3.654-1.83h16.419a4.564,4.564,0,1,1,0,9.128h-.934a1.8,1.8,0,0,0-1.8,1.8v3.3l-4.706-4.691A6.38,6.38,0,0,0,98.123,184.379Z" transform="translate(-66.183 -158.835)"/>
    </g>
  </g>
</svg>
