<svg xmlns="http://www.w3.org/2000/svg" width="295" height="364" viewBox="0 0 295 364">
  <g id="Grupo_1118800" data-name="Grupo 1118800" transform="translate(-1125 -3183)">
    <path id="Trazado_974582" data-name="Trazado 974582" d="M20,0H275a20,20,0,0,1,20,20V364H0V20A20,20,0,0,1,20,0Z" transform="translate(1125 3183)" fill="#ccd9f8"/>
    <rect id="Rectángulo_416099" data-name="Rectángulo 416099" width="295" height="90.809" transform="translate(1125 3456.19)" fill="#66d16a"/>
    <g id="_13265627_5196959" data-name="13265627_5196959" transform="translate(1108.113 3224.068)">
      <g id="OBJECTS" transform="translate(32.083 55.215)">
        <path id="Trazado_968522" data-name="Trazado 968522" d="M144.068,91.4c-4.559-1.56-8.831-4.113-13.161-6.317-23.885-12.153-51.952-10.276-72.737,7.372-36.67,31.133-33.051,91.776.667,123.181,41.274,38.443,108.693,48.065,160.9,28.685,26.978-10.014,50.731-29.937,62.62-56.143a97.3,97.3,0,0,0,1.071-76.417c-9.32-22.514-31.448-34.5-55.133-36.634-11-.994-21.816.166-32.574,2.447-15.526,3.292-30.247,17.346-46.611,15.06A27.161,27.161,0,0,1,144.068,91.4Z" transform="translate(-32.083 -62.872)" fill="#ffe3d6"/>
        <g id="Grupo_1118529" data-name="Grupo 1118529" transform="translate(7.254 116.535)">
          <g id="Grupo_1118524" data-name="Grupo 1118524" transform="translate(-17 6.082)">
            <g id="Grupo_1118521" data-name="Grupo 1118521" transform="translate(0 9.313)">
              <path id="Trazado_968523" data-name="Trazado 968523" d="M68.127,318.466A68.467,68.467,0,0,0,64.82,282.24c-2.487-6.578-6.237-13.018-12.194-16.756-3.63,3.149-5.778,7.6-6.961,12.259a46.219,46.219,0,0,0-1.29,17.771A29.8,29.8,0,0,0,51.657,311.6,23.088,23.088,0,0,0,68.127,318.466Z" transform="translate(-44.006 -265.484)" fill="#01bca7"/>
              <path id="Trazado_968524" data-name="Trazado 968524" d="M74.548,320.87a240.2,240.2,0,0,0-7.954-30.564q-2.794-8.423-6.213-16.622a.466.466,0,0,0-.852.376,238.044,238.044,0,0,1,10.181,29.863,239.215,239.215,0,0,1,6.132,30.858q1.154,8.8,1.648,17.668c.033.6.953.451.921-.144A238.878,238.878,0,0,0,74.548,320.87Z" transform="translate(-50.07 -268.589)" fill="#154340"/>
            </g>
            <g id="Grupo_1118522" data-name="Grupo 1118522" transform="translate(29.083 7.343)">
              <path id="Trazado_968525" data-name="Trazado 968525" d="M96.558,318.289a50.678,50.678,0,0,1,26.336-56.043c3.923,7.356,6.632,15.926,6.118,24.247a36.374,36.374,0,0,1-9.476,22.607C113.816,315.165,104.893,318.474,96.558,318.289Z" transform="translate(-93.205 -262.246)" fill="#26645f"/>
              <path id="Trazado_968526" data-name="Trazado 968526" d="M118.871,268.367a131.682,131.682,0,0,0-17.047,29.772,133.929,133.929,0,0,0-8.849,32.952A130.011,130.011,0,0,0,91.821,350.4c.009.591.934.7.925.105a131.186,131.186,0,0,1,3.93-33.758,132.993,132.993,0,0,1,12.448-31.715,129.21,129.21,0,0,1,10.492-16.105A.466.466,0,0,0,118.871,268.367Z" transform="translate(-91.807 -264.572)" fill="#154340"/>
            </g>
            <g id="Grupo_1118523" data-name="Grupo 1118523" transform="translate(16.639)">
              <path id="Trazado_968527" data-name="Trazado 968527" d="M82.211,310.81s-10.453-9.6-10.844-28.678c-.162-7.9,1.138-16.276,5.075-23.246A29.823,29.823,0,0,1,78.3,256c.414-.568,5.211-6.206,5.622-5.8,7.971,7.922,12.152,19.3,12.005,30.539S90.386,303.1,82.211,310.81Z" transform="translate(-71.354 -250.176)" fill="#ffd453"/>
              <path id="Trazado_968528" data-name="Trazado 968528" d="M89.079,311.324q.018-17.361.5-34.717.268-9.744.681-19.483c.025-.6-.9-.706-.925-.105q-.736,17.4-1.013,34.821t-.089,34.835q.1,9.751.353,19.5c.015.6.935.448.921-.144Q89.06,328.683,89.079,311.324Z" transform="translate(-77.932 -252.7)" fill="#154340"/>
            </g>
          </g>
          <g id="Grupo_1118528" data-name="Grupo 1118528" transform="translate(205.302 6.822)">
            <g id="Grupo_1118525" data-name="Grupo 1118525" transform="translate(0 24.958)">
              <path id="Trazado_968529" data-name="Trazado 968529" d="M390.995,340.268c-.768-2.224-2.832-3.758-4.978-4.722s-4.469-1.5-6.584-2.535-4.1-2.715-4.653-5c-.657-2.7.8-5.409,2.062-7.886s2.38-5.467,1.111-7.941c-1.343-2.619-4.688-3.388-6.923-5.3a8.29,8.29,0,0,1-1.64-10.254,38.751,38.751,0,0,1,3.387-4.02,5.925,5.925,0,0,0,1.587-4.83,11.571,11.571,0,0,0,6.585,3.894c2.587.623,5.283.991,7.64,2.227s4.361,3.624,4.176,6.278c-.129,1.858-1.271,3.463-2.075,5.144s-1.23,3.841-.057,5.288c1.08,1.333,3.01,1.477,4.643,2a9.233,9.233,0,0,1,6.2,9.064c-.221,3.73-2.694,6.895-5.1,9.754S391.436,336.558,390.995,340.268Z" transform="translate(-368.296 -287.777)" fill="#ffd453"/>
              <path id="Trazado_968530" data-name="Trazado 968530" d="M394.484,330.628a127.839,127.839,0,0,0-6.163-24.171,85.527,85.527,0,0,0-5.81-12.5c-.3-.519-1.126-.1-.828.427a93.826,93.826,0,0,1,9.011,22.671,177.91,177.91,0,0,1,4.449,25.341c.561,4.96,1.01,9.93,1.459,14.9.054.594.963.391.91-.2C396.713,348.253,395.913,339.4,394.484,330.628Z" transform="translate(-373.513 -290.105)" fill="#154340"/>
            </g>
            <g id="Grupo_1118526" data-name="Grupo 1118526" transform="translate(22.149 18.92)">
              <path id="Trazado_968531" data-name="Trazado 968531" d="M411.945,334.94A27.08,27.08,0,0,1,424.189,322.5c2.3-1.146,4.754-1.955,7.086-3.037a15.809,15.809,0,0,0,6.14-4.533,7.793,7.793,0,0,0,1.365-7.26c-.91-2.4-3.341-4.34-3.116-6.895.307-3.478,5.183-4.816,6.184-8.16.574-1.918-.326-4-1.631-5.521s-2.992-2.658-4.414-4.067-2.628-3.178-2.532-5.178c-.781,2.114-3.135,3.212-5.356,3.594s-4.54.276-6.671,1.008a9.125,9.125,0,0,0-5.92,9.351,39.812,39.812,0,0,0,1.294,5.016,6.73,6.73,0,0,1-.364,5.039c-1.362,2.276-4.4,2.73-6.721,4.009a9.792,9.792,0,0,0-4.167,11.926c.744,1.783,3.267,3.765,4.2,5.457C412.789,329.106,412.67,332.036,411.945,334.94Z" transform="translate(-404.7 -277.853)" fill="#ff9620"/>
              <path id="Trazado_968532" data-name="Trazado 968532" d="M430.821,296.849a172.744,172.744,0,0,0-17.662,47.84q-1.473,7.068-2.355,14.242c-.073.6.857.642.93.049a172.1,172.1,0,0,1,13.477-48.71q2.919-6.587,6.388-12.909C431.885,296.838,431.109,296.323,430.821,296.849Z" transform="translate(-407.088 -285.205)" fill="#154340"/>
            </g>
            <g id="Grupo_1118527" data-name="Grupo 1118527" transform="translate(9.111)">
              <path id="Trazado_968533" data-name="Trazado 968533" d="M405.492,246.755c.4,2.045-1.906,5.271-3.628,6.445s-3.773,1.751-5.644,2.67-3.686,2.358-4.162,4.387c-.815,3.471,2.524,6.52,3.125,10.034.461,2.691-.757,5.421-2.451,7.563s-3.854,3.862-5.72,5.855-3.492,4.4-3.716,7.125c-.29,3.533,1.843,6.843,4.421,9.276s5.662,4.294,8.157,6.812,4.416,6.014,3.775,9.5c.8-3.368,3.809-6.02,6.564-8.114s5.834-3.76,8.438-6.039,4.771-5.378,4.859-8.838c.158-6.13-6.035-10.953-6.2-17.083-.083-3.059,1.363-5.917,2.54-8.741s2.115-6.035,1.023-8.893C414.86,253.445,407.426,252.055,405.492,246.755Z" transform="translate(-383.27 -246.755)" fill="#26645f"/>
              <path id="Trazado_968534" data-name="Trazado 968534" d="M413.518,278.276l-2.767,28.58q-1.378,14.239-2.71,28.481-.738,8.049-1.419,16.1c-.05.6.88.646.93.049q1.2-14.313,2.59-28.609,1.356-14.238,2.749-28.472l1.557-16.083C414.507,277.728,413.576,277.68,413.518,278.276Z" transform="translate(-392.414 -258.932)" fill="#154340"/>
            </g>
          </g>
        </g>
        <g id="Grupo_1118567" data-name="Grupo 1118567" transform="translate(-0.431 -36.464)">
          <g id="Grupo_1118532" data-name="Grupo 1118532" transform="translate(13.446 108.707)">
            <g id="Grupo_1118530" data-name="Grupo 1118530" transform="translate(55.881 139.257)">
              <path id="Trazado_968535" data-name="Trazado 968535" d="M153.872,426.638l.037.246c.038.365.082.715.149,1.095.075.313.134.655.2,1.005l37.574-.009a7.265,7.265,0,0,0,.059-1,9.973,9.973,0,0,0-.1-1.1,1.654,1.654,0,0,0-.052-.246c-.41-2.115-1.952-5.034-7.084-5.971a7.587,7.587,0,0,0-.789-.126h-.022c-.4-.059-.8-.1-1.236-.134-.141-.007-.283-.022-.425-.03-10.278-.8-14.83-4.25-14.83-4.25a32.666,32.666,0,0,1-11.544,0,14.6,14.6,0,0,0-1.236,2.979c-.089.32-.186.663-.275,1.028-.022.067-.037.141-.059.224-.037.141-.067.305-.1.47a1.046,1.046,0,0,0-.022.149c0,.037-.022.052-.022.082a18.214,18.214,0,0,0-.305,2.539A19.478,19.478,0,0,0,153.872,426.638Z" transform="translate(-153.764 -416.119)" fill="#ffd453"/>
              <path id="Trazado_968536" data-name="Trazado 968536" d="M176.48,416.464a.677.677,0,0,0-.475-.2.781.781,0,0,0-.475.2l-.311.244q-.744.573-1.512,1.112a.724.724,0,0,0-.309.4.686.686,0,0,0,.068.517.679.679,0,0,0,.919.241q1.072-.75,2.094-1.566a.673.673,0,0,0,.2-.475A.687.687,0,0,0,176.48,416.464Z" transform="translate(-159.164 -416.16)" fill="#fff"/>
              <path id="Trazado_968537" data-name="Trazado 968537" d="M180.112,418.114a.681.681,0,0,0-.95,0,11.405,11.405,0,0,1-1.634,1.556c-.1.072-.191.143-.288.212a.724.724,0,0,0-.309.4.671.671,0,0,0,.986.758,12.057,12.057,0,0,0,2.194-1.978.712.712,0,0,0,.2-.475A.679.679,0,0,0,180.112,418.114Z" transform="translate(-160.136 -416.615)" fill="#fff"/>
              <path id="Trazado_968538" data-name="Trazado 968538" d="M183.69,419.31a.674.674,0,0,0-.475-.2.644.644,0,0,0-.475.2l-1.523,1.959a.734.734,0,0,0-.2.475.682.682,0,0,0,.2.475.674.674,0,0,0,.475.2.645.645,0,0,0,.475-.2l1.523-1.959a.734.734,0,0,0,.2-.475A.688.688,0,0,0,183.69,419.31Z" transform="translate(-161.269 -416.943)" fill="#fff"/>
              <path id="Trazado_968539" data-name="Trazado 968539" d="M187.677,420.226a.683.683,0,0,0-.921.246l-.994,1.7a.672.672,0,1,0,1.141.707l.994-1.7A.681.681,0,0,0,187.677,420.226Z" transform="translate(-162.544 -417.226)" fill="#fff"/>
              <path id="Trazado_968540" data-name="Trazado 968540" d="M153.958,430.978c.043.354.087.716.159,1.085.065.325.123.665.2,1.012l37.565-.009a6.566,6.566,0,0,0,.065-1,8.38,8.38,0,0,0-.109-1.1Z" transform="translate(-153.817 -420.207)" fill="#ff9620"/>
            </g>
            <g id="Grupo_1118531" data-name="Grupo 1118531" transform="translate(0 139.257)">
              <path id="Trazado_968541" data-name="Trazado 968541" d="M114.678,426.638l-.037.246c-.038.365-.082.715-.149,1.095-.075.313-.134.655-.2,1.005l-37.574-.009a7.262,7.262,0,0,1-.059-1,9.984,9.984,0,0,1,.1-1.1,1.658,1.658,0,0,1,.052-.246c.41-2.115,1.952-5.034,7.084-5.971a7.591,7.591,0,0,1,.789-.126h.022c.4-.059.8-.1,1.236-.134.141-.007.283-.022.425-.03,10.278-.8,14.83-4.25,14.83-4.25a32.666,32.666,0,0,0,11.544,0,14.6,14.6,0,0,1,1.236,2.979c.089.32.186.663.275,1.028.022.067.037.141.059.224.037.141.067.305.1.47a1.047,1.047,0,0,1,.022.149c0,.037.022.052.022.082a18.22,18.22,0,0,1,.305,2.539A19.394,19.394,0,0,1,114.678,426.638Z" transform="translate(-76.653 -416.119)" fill="#ffd453"/>
              <path id="Trazado_968542" data-name="Trazado 968542" d="M105.3,416.464a.677.677,0,0,1,.475-.2.781.781,0,0,1,.475.2l.311.244q.744.573,1.512,1.112a.724.724,0,0,1,.309.4.686.686,0,0,1-.067.517.679.679,0,0,1-.919.241q-1.072-.75-2.094-1.566a.673.673,0,0,1-.2-.475A.681.681,0,0,1,105.3,416.464Z" transform="translate(-84.486 -416.16)" fill="#fff"/>
              <path id="Trazado_968543" data-name="Trazado 968543" d="M101.633,418.114a.681.681,0,0,1,.95,0,11.407,11.407,0,0,0,1.634,1.556c.1.072.191.143.288.212a.724.724,0,0,1,.309.4.686.686,0,0,1-.067.517.679.679,0,0,1-.919.241,12.056,12.056,0,0,1-2.194-1.978.713.713,0,0,1-.2-.475A.683.683,0,0,1,101.633,418.114Z" transform="translate(-83.476 -416.615)" fill="#fff"/>
              <path id="Trazado_968544" data-name="Trazado 968544" d="M98.258,419.31a.674.674,0,0,1,.475-.2.644.644,0,0,1,.475.2l1.523,1.959a.734.734,0,0,1,.2.475.682.682,0,0,1-.2.475.674.674,0,0,1-.475.2.645.645,0,0,1-.475-.2l-1.523-1.959a.734.734,0,0,1-.2-.475A.689.689,0,0,1,98.258,419.31Z" transform="translate(-82.546 -416.943)" fill="#fff"/>
              <path id="Trazado_968545" data-name="Trazado 968545" d="M94.466,420.226a.683.683,0,0,1,.921.246l.994,1.7a.672.672,0,1,1-1.141.707l-.994-1.7A.681.681,0,0,1,94.466,420.226Z" transform="translate(-81.466 -417.226)" fill="#fff"/>
              <path id="Trazado_968546" data-name="Trazado 968546" d="M114.645,430.978c-.043.354-.087.716-.159,1.085-.065.325-.123.665-.2,1.012l-37.565-.009a6.568,6.568,0,0,1-.065-1,8.371,8.371,0,0,1,.109-1.1Z" transform="translate(-76.652 -420.207)" fill="#ff9620"/>
            </g>
            <path id="Trazado_968547" data-name="Trazado 968547" d="M137.969,224.232l13.492,138.981c5.566,2.043,11.54,0,11.54,0s7.753-111.568.467-139.257Z" transform="translate(-93.534 -223.954)" fill="#eba37d"/>
            <path id="Trazado_968548" data-name="Trazado 968548" d="M109.916,363.215s6.2,1.481,11.548,0c.268-1.87,14.2-139.059,14.2-139.059l-24.216-.191C105.47,260.958,109.916,363.215,109.916,363.215Z" transform="translate(-85.373 -223.957)" fill="#eba37d"/>
            <path id="Trazado_968549" data-name="Trazado 968549" d="M154.678,223.954l-43.854.009c-7.059,30.434-4.216,132.377-4.216,132.377a40.727,40.727,0,0,0,17.034,0l8.609-98.767,8.375,99.143a47.871,47.871,0,0,0,15.354,0S162.345,249.388,154.678,223.954Z" transform="translate(-84.744 -223.954)" fill="#01bca7"/>
            <path id="Trazado_968550" data-name="Trazado 968550" d="M139.529,256.407q-.368-4.588-.736-9.177l-.414-5.156a.136.136,0,0,0-.028-.072.1.1,0,0,0-.022-.026l0,0a.107.107,0,0,0-.035-.019.161.161,0,0,0-.109,0,4.733,4.733,0,0,1-5.042-4.857.138.138,0,0,0-.276,0,5.084,5.084,0,0,0,.928,3.051,5,5,0,0,0,4.325,2.084l.724,9.024q.368,4.588.736,9.177.207,2.578.414,5.156c.014.176.291.178.277,0Q139.9,261,139.529,256.407Z" transform="translate(-92.128 -227.535)" fill="#154340"/>
          </g>
          <path id="Trazado_968551" data-name="Trazado 968551" d="M115.821,82.806a13.828,13.828,0,0,0-.675,2.041c-2.176,8.836,4.047,18.26-.31,26.746-1.527,2.974-4.186,5.544-3.872,9.107a11.908,11.908,0,0,0,4.829,8.219c3.39,2.535,7.716,3.482,11.938,3.8,5.985.445,12.248-.327,17.377-3.444s8.882-8.906,8.421-14.89c-.33-4.289-2.647-8-4-12-1.5-4.444-.587-9.137-1.315-13.691a17.664,17.664,0,0,0-9.724-13.115,20.452,20.452,0,0,0-12.965-1.029A14.285,14.285,0,0,0,115.821,82.806Z" transform="translate(-72.646 -73.946)" fill="#421f09"/>
          <g id="Grupo_1118558" data-name="Grupo 1118558" transform="translate(0.001 37.991)">
            <g id="Grupo_1118533" data-name="Grupo 1118533">
              <path id="Trazado_968552" data-name="Trazado 968552" d="M109.077,134.1c-6.464,2.508-11.569,29.282-11.569,29.282L74.971,142.915l-6.308,5.011s16,19.481,21.292,25.48,15.74,6.917,19.481-2.682S109.077,134.1,109.077,134.1Z" transform="translate(-61.007 -128.499)" fill="#eba37d"/>
              <path id="Trazado_968553" data-name="Trazado 968553" d="M72.522,142.959c-.521-1.334,3.565-8.4,2.145-9.4-1.3-.914-3.722,1.618-3.866,3.417-.97-2.053-2.348-11.125-4.183-10.585-1.358.4.446,7.1.446,7.1s-2.939-7.542-4.6-6.718,2.259,8.123,2.259,8.123-3.689-5.994-4.9-5.115c-1.191.864,3.144,6.765,3.144,6.765s-4.1-4.134-4.744-3.6,1.274,3.639,3.41,5.554a11.934,11.934,0,0,0,4.347,7.489Z" transform="translate(-58.099 -126.37)" fill="#eba37d"/>
            </g>
            <path id="Trazado_968554" data-name="Trazado 968554" d="M120.287,134.1c-7.05,3.261-10.909,20.106-10.909,20.106s6.768,3.765,12.842,3.952Z" transform="translate(-72.217 -128.499)" fill="#01bca7"/>
            <g id="Grupo_1118555" data-name="Grupo 1118555" transform="translate(38.679 2.92)">
              <g id="Grupo_1118554" data-name="Grupo 1118554">
                <g id="Grupo_1118553" data-name="Grupo 1118553">
                  <g id="Grupo_1118552" data-name="Grupo 1118552">
                    <g id="Grupo_1118551" data-name="Grupo 1118551">
                      <g id="Grupo_1118550" data-name="Grupo 1118550">
                        <g id="Grupo_1118549" data-name="Grupo 1118549">
                          <g id="Grupo_1118548" data-name="Grupo 1118548">
                            <g id="Grupo_1118547" data-name="Grupo 1118547">
                              <g id="Grupo_1118546" data-name="Grupo 1118546">
                                <g id="Grupo_1118545" data-name="Grupo 1118545">
                                  <g id="Grupo_1118544" data-name="Grupo 1118544">
                                    <g id="Grupo_1118543" data-name="Grupo 1118543">
                                      <g id="Grupo_1118542" data-name="Grupo 1118542">
                                        <g id="Grupo_1118541" data-name="Grupo 1118541">
                                          <g id="Grupo_1118540" data-name="Grupo 1118540">
                                            <g id="Grupo_1118539" data-name="Grupo 1118539">
                                              <g id="Grupo_1118538" data-name="Grupo 1118538">
                                                <g id="Grupo_1118537" data-name="Grupo 1118537">
                                                  <g id="Grupo_1118536" data-name="Grupo 1118536">
                                                    <g id="Grupo_1118535" data-name="Grupo 1118535">
                                                      <g id="Grupo_1118534" data-name="Grupo 1118534">
                                                        <path id="Trazado_968555" data-name="Trazado 968555" d="M156.971,198.747c-28.55,6.384-45.5-.545-45.5-.545,1.083-3.331,7.449-33.9,7.449-33.9-6.4-2.178-7.116-13.321-.022-20.044l1.963-11.177,7.316-2.617,9.585-.066,9.694,3.126.991,47.155Z" transform="translate(-111.473 -130.399)" fill="#01bca7"/>
                                                      </g>
                                                    </g>
                                                  </g>
                                                </g>
                                              </g>
                                            </g>
                                          </g>
                                        </g>
                                      </g>
                                    </g>
                                  </g>
                                </g>
                              </g>
                            </g>
                          </g>
                        </g>
                      </g>
                    </g>
                  </g>
                </g>
              </g>
            </g>
            <path id="Trazado_968556" data-name="Trazado 968556" d="M140.128,228.613a76.978,76.978,0,0,1-20.266-2.09q-2.8-.671-5.536-1.549c-.17-.054-.243.212-.073.267a77.334,77.334,0,0,0,20.095,3.605q2.889.13,5.781.043A.138.138,0,0,0,140.128,228.613Z" transform="translate(-73.532 -153.516)" fill="#154340"/>
            <g id="Grupo_1118556" data-name="Grupo 1118556" transform="translate(40.81 9.154)">
              <path id="Trazado_968557" data-name="Trazado 968557" d="M122.79,166.877a8.2,8.2,0,0,1-7.345-5.216,12.413,12.413,0,0,1,.9-10.349,21.566,21.566,0,0,1,3.439-4.708.109.109,0,0,0,.057-.061l.033-.036a.129.129,0,0,0,.011-.171l1.311-7.161c.032-.174-.235-.249-.267-.073l-1.337,7.3a17.847,17.847,0,0,0-5.044,9.438,11.54,11.54,0,0,0,.459,5.428,9.043,9.043,0,0,0,2.831,4.06,7.864,7.864,0,0,0,4.956,1.823A.139.139,0,0,0,122.79,166.877Z" transform="translate(-114.413 -139.002)" fill="#154340"/>
              <path id="Trazado_968558" data-name="Trazado 968558" d="M152.546,172.318a7.333,7.333,0,0,1-5.338,3.118c-.176.015-.178.292,0,.276a7.631,7.631,0,0,0,5.576-3.255C152.885,172.311,152.646,172.173,152.546,172.318Z" transform="translate(-123.406 -148.158)" fill="#154340"/>
            </g>
            <path id="Trazado_968559" data-name="Trazado 968559" d="M131.593,131.266l-2.009,4.621,8.6,6.811,8.47-6.917-1.952-4.515Z" transform="translate(-77.78 -127.718)" fill="#26645f"/>
            <path id="Trazado_968560" data-name="Trazado 968560" d="M145.464,131.027l-6.518,11.432-6.59-11.432,1.573-.562,9.585-.066Z" transform="translate(-78.543 -127.479)" fill="#eba37d"/>
            <g id="Grupo_1118557" data-name="Grupo 1118557" transform="translate(53.013 6.045)">
              <path id="Trazado_968561" data-name="Trazado 968561" d="M158.189,134.712c11.313,4.841,21.709,19.813,24.817,24.369,4.141,6.07,3.718,11.434-1.162,14.986-2,1.454-26.978,16.974-26.978,16.974l-4.423-7.656L173.736,166l-15.212-15.29Z" transform="translate(-136.537 -134.712)" fill="#eba37d"/>
              <path id="Trazado_968562" data-name="Trazado 968562" d="M160.808,134.712c10.444,3.712,18.984,15.075,18.984,15.075s-5.223,6.776-10.94,10.446l-8.893-9.1Z" transform="translate(-139.156 -134.712)" fill="#01bca7"/>
              <path id="Trazado_968563" data-name="Trazado 968563" d="M161.183,158.111l-4.2-4.645c-.12-.132-.307.071-.188.2l.99,1.095a6.634,6.634,0,0,0-1.044-.4c-.172-.049-.235.22-.064.269a6.293,6.293,0,0,1,1.45.619.123.123,0,0,0,.111.01l2.758,3.05C161.115,158.445,161.3,158.242,161.183,158.111Z" transform="translate(-138.225 -139.864)" fill="#154340"/>
              <path id="Trazado_968564" data-name="Trazado 968564" d="M147.389,200.591c-.9-.184-1.573.791-3.067.62s-3.594-1.7-4.756-1.52-9.124,3.543-8.245,5.255c.523,1.018,4.83-1.054,4.941-.992s-5,3.236-4.126,4.558,6.247-3.081,6.376-2.97-3.775,3.87-2.691,4.9,4.5-3,4.65-2.949-1.771,4.042-.88,4.6,3.452-4.218,3.68-4.141,1.927,1.7,3.753,1.879,4.889-2.349,4.773-3.771S148.558,200.83,147.389,200.591Z" transform="translate(-131.253 -152.598)" fill="#eba37d"/>
            </g>
          </g>
          <g id="Grupo_1118566" data-name="Grupo 1118566" transform="translate(44.612 2.315)">
            <g id="Grupo_1118565" data-name="Grupo 1118565" transform="translate(0)">
              <path id="Trazado_968565" data-name="Trazado 968565" d="M120.11,98.777c0,.067.013.133.017.2s.013.145.022.224a11.885,11.885,0,0,0,3.613,7.872,31.281,31.281,0,0,0,2.755,2.281c.264.2.51.392.75.581.188.146.363.3.543.454,1.83,1.554,2.858,3.26,2.6,8.142a5.471,5.471,0,0,0,10.071.545,48.66,48.66,0,0,1,2.809-14.188c.3-.845.58-1.563.824-2.139.462-1.1.785-1.707.785-1.707s.422-13-1.262-16.552c-4.106-8.564-20.239-6.581-21.837-.019C120.263,90.74,119.807,95.326,120.11,98.777Z" transform="translate(-119.759 -77.593)" fill="#eba37d"/>
              <path id="Trazado_968566" data-name="Trazado 968566" d="M119.766,91.4a22.649,22.649,0,0,1,7.224-8.361,20.455,20.455,0,0,0,11.052,7.449,10.408,10.408,0,0,0,6.248,8.148,3.325,3.325,0,0,0,2.588-2.183,9.121,9.121,0,0,0,.426-3.414,23.271,23.271,0,0,0-.5-5.7,13.21,13.21,0,0,0-5.669-7.661,16.7,16.7,0,0,0-9.276-2.53,14.827,14.827,0,0,0-6.62,1.544,10.225,10.225,0,0,0-4.689,4.826C119.45,86.013,119.62,88.667,119.766,91.4Z" transform="translate(-119.66 -77.14)" fill="#421f09"/>
              <g id="Grupo_1118559" data-name="Grupo 1118559" transform="translate(22.912 18.32)">
                <path id="Trazado_968567" data-name="Trazado 968567" d="M156.984,108.035c-1.458,1.56-3.644,1.887-4.883.73s-1.06-3.36.4-4.921,3.644-1.888,4.883-.73S158.442,106.474,156.984,108.035Z" transform="translate(-151.277 -102.421)" fill="#eba37d"/>
                <path id="Trazado_968568" data-name="Trazado 968568" d="M157.095,104.31a2.368,2.368,0,0,0-2.079-.071,1.934,1.934,0,0,0-.828.575,1.178,1.178,0,0,0-.228,1.074,1.674,1.674,0,0,0,.534.7,1.594,1.594,0,0,1,.362.407.6.6,0,0,1-.819.808.268.268,0,1,0-.251.474,1.112,1.112,0,0,0,.461.125,1.134,1.134,0,0,0,1.085-1.653,2.025,2.025,0,0,0-.479-.559,1.246,1.246,0,0,1-.384-.472.648.648,0,0,1,.138-.576,1.113,1.113,0,0,1,.214-.194,1.093,1.093,0,0,1,.753.3.961.961,0,0,1,.191.8.268.268,0,0,0,.2.32.226.226,0,0,0,.043.006.268.268,0,0,0,.275-.21,1.482,1.482,0,0,0-.3-1.252,1.207,1.207,0,0,0-.386-.295,1.688,1.688,0,0,1,1.215.149,1.037,1.037,0,0,1,.452,1.286.268.268,0,1,0,.474.251A1.564,1.564,0,0,0,157.095,104.31Z" transform="translate(-151.929 -102.865)" fill="#c16b5b"/>
              </g>
              <g id="Grupo_1118564" data-name="Grupo 1118564" transform="translate(2.095 13.543)">
                <g id="Grupo_1118563" data-name="Grupo 1118563">
                  <path id="Trazado_968569" data-name="Trazado 968569" d="M129.649,104.882a1.857,1.857,0,0,0-.733-.2,1.046,1.046,0,0,0-.676.155.838.838,0,0,0-.329.629,1.53,1.53,0,0,0,.146.69.248.248,0,0,0,.295.172.244.244,0,0,0,.172-.295,1.344,1.344,0,0,1-.133-.505.432.432,0,0,1,.078-.252l-.009.014a.322.322,0,0,1,.228-.12l.022,0,.054,0a1.385,1.385,0,0,1,.145,0l.074.007H129l.015,0a2.647,2.647,0,0,1,.42.139.241.241,0,0,0,.295-.1A.244.244,0,0,0,129.649,104.882Z" transform="translate(-124.026 -98.265)" fill="#c16b5b"/>
                  <path id="Trazado_968570" data-name="Trazado 968570" d="M122.838,96.379a4.39,4.39,0,0,1,4.1-.081.692.692,0,0,1,.313.912.729.729,0,0,1-1.041.249,3.327,3.327,0,0,0-1.107-.286c0-.021.034.015.013.015a3.053,3.053,0,0,0-1.418.272l-.095.044a.681.681,0,0,1-.766-1.126Z" transform="translate(-122.551 -95.829)"/>
                  <path id="Trazado_968571" data-name="Trazado 968571" d="M134.16,96.549a4.389,4.389,0,0,1,4.079.427.682.682,0,0,1-.746,1.142c-.121-.083-.246-.155-.374-.227l-.018-.009-.07-.031q-.075-.033-.152-.061a3.652,3.652,0,0,0-.417-.129c-.036-.009-.263-.078-.088-.022a1.1,1.1,0,0,0-.19-.027,3.668,3.668,0,0,0-.409-.025c-.073,0-.146,0-.219.005h-.016l-.046.006a3.608,3.608,0,0,0-.4.072c-.071.017-.141.036-.211.058l-.083.027-.009,0h-.006l-.007,0h0a.7.7,0,0,1-.912-.293A.69.69,0,0,1,134.16,96.549Z" transform="translate(-125.648 -95.941)"/>
                  <path id="Trazado_968572" data-name="Trazado 968572" d="M132.443,109.5a4.394,4.394,0,0,1-3.054.865c-.3-.028-.325.439-.026.467a4.884,4.884,0,0,0,3.392-.983C132.995,109.671,132.682,109.323,132.443,109.5Z" transform="translate(-124.368 -99.58)" fill="#8e4136"/>
                  <g id="Grupo_1118562" data-name="Grupo 1118562" transform="translate(0.918 3.945)">
                    <g id="Grupo_1118560" data-name="Grupo 1118560" transform="translate(8.048 0.222)">
                      <path id="Trazado_968573" data-name="Trazado 968573" d="M137.129,102.646a1.1,1.1,0,1,1-1.139-1.066A1.1,1.1,0,0,1,137.129,102.646Z" transform="translate(-134.923 -101.579)"/>
                      <path id="Trazado_968574" data-name="Trazado 968574" d="M136.1,102.5a.322.322,0,1,1-.332-.311A.321.321,0,0,1,136.1,102.5Z" transform="translate(-135.069 -101.747)" fill="#fff"/>
                    </g>
                    <g id="Grupo_1118561" data-name="Grupo 1118561">
                      <path id="Trazado_968575" data-name="Trazado 968575" d="M126.023,102.34a1.1,1.1,0,1,1-1.139-1.066A1.1,1.1,0,0,1,126.023,102.34Z" transform="translate(-123.817 -101.273)"/>
                      <path id="Trazado_968576" data-name="Trazado 968576" d="M124.99,102.194a.322.322,0,1,1-.332-.311A.322.322,0,0,1,124.99,102.194Z" transform="translate(-123.963 -101.441)" fill="#fff"/>
                    </g>
                  </g>
                </g>
              </g>
            </g>
          </g>
        </g>
        <g id="Grupo_1118589" data-name="Grupo 1118589" transform="translate(63.767 -49.309)">
          <g id="Grupo_1118573" data-name="Grupo 1118573" transform="translate(5.242 127.849)">
            <g id="Grupo_1118569" data-name="Grupo 1118569" transform="translate(0 133.09)">
              <g id="Grupo_1118568" data-name="Grupo 1118568">
                <path id="Trazado_968577" data-name="Trazado 968577" d="M190.683,426.451l-.033.238c-.032.354-.072.693-.133,1.061-.069.3-.122.636-.184.975l-36.345.392a7.028,7.028,0,0,1-.068-.965,9.669,9.669,0,0,1,.089-1.067,1.54,1.54,0,0,1,.048-.238c.374-2.05,1.835-4.89,6.789-5.852a7.257,7.257,0,0,1,.762-.13h.022c.388-.062.777-.1,1.194-.143.137-.009.274-.025.41-.033,9.933-.886,14.3-4.268,14.3-4.268a31.592,31.592,0,0,0,11.167-.12,14.131,14.131,0,0,1,1.227,2.869c.09.309.187.639.278.991.022.065.038.136.06.215.038.136.068.294.1.453a1,1,0,0,1,.023.144c0,.036.022.05.022.079a17.523,17.523,0,0,1,.322,2.454A18.64,18.64,0,0,1,190.683,426.451Z" transform="translate(-153.92 -416.299)" fill="#154340"/>
                <path id="Trazado_968578" data-name="Trazado 968578" d="M181.461,416.852a.653.653,0,0,1,.457-.2.755.755,0,0,1,.462.186c.1.078.2.155.3.233q.725.547,1.474,1.06a.7.7,0,0,1,.3.385.665.665,0,0,1-.06.5.658.658,0,0,1-.886.243q-1.045-.714-2.042-1.492a.652.652,0,0,1-.011-.919Z" transform="translate(-161.452 -416.397)" fill="#fff"/>
                <path id="Trazado_968579" data-name="Trazado 968579" d="M177.928,418.488a.658.658,0,0,1,.919-.01,10.978,10.978,0,0,0,1.6,1.488c.093.068.186.137.281.2a.7.7,0,0,1,.3.385.665.665,0,0,1-.06.5.657.657,0,0,1-.886.243,11.675,11.675,0,0,1-2.144-1.891.693.693,0,0,1-.2-.457A.658.658,0,0,1,177.928,418.488Z" transform="translate(-160.479 -416.849)" fill="#fff"/>
                <path id="Trazado_968580" data-name="Trazado 968580" d="M174.676,419.68a.652.652,0,0,1,.457-.195.626.626,0,0,1,.461.185l1.494,1.878a.71.71,0,0,1,.195.457.651.651,0,0,1-.643.657.628.628,0,0,1-.462-.186l-1.494-1.878a.706.706,0,0,1-.195-.457A.664.664,0,0,1,174.676,419.68Z" transform="translate(-159.584 -417.176)" fill="#fff"/>
                <path id="Trazado_968581" data-name="Trazado 968581" d="M171.018,420.605a.661.661,0,0,1,.894.228l.98,1.638a.65.65,0,1,1-1.1.7l-.98-1.638A.658.658,0,0,1,171.018,420.605Z" transform="translate(-158.542 -417.461)" fill="#fff"/>
              </g>
            </g>
            <path id="Trazado_968582" data-name="Trazado 968582" d="M185.882,361.713c.061,2.658.1,4.138.1,4.138a15.786,15.786,0,0,0,11.167-.112s.191-1.5.537-4.181c2.562-19.981,13.514-105.746,16.05-128.913H185.466C183.579,262.131,185.406,342.555,185.882,361.713Z" transform="translate(-162.375 -232.644)" fill="#ebbda4"/>
            <g id="Grupo_1118571" data-name="Grupo 1118571" transform="translate(56.933 133.09)">
              <g id="Grupo_1118570" data-name="Grupo 1118570">
                <path id="Trazado_968583" data-name="Trazado 968583" d="M232.566,426.451l.033.238c.033.354.072.693.133,1.061.069.3.122.636.184.975l36.345.392a7.029,7.029,0,0,0,.068-.965,9.654,9.654,0,0,0-.089-1.067,1.542,1.542,0,0,0-.048-.238c-.374-2.05-1.835-4.89-6.789-5.852a7.255,7.255,0,0,0-.762-.13h-.022c-.388-.062-.777-.1-1.194-.143-.137-.009-.274-.025-.41-.033-9.933-.886-14.3-4.268-14.3-4.268a31.592,31.592,0,0,1-11.167-.12,14.132,14.132,0,0,0-1.227,2.869c-.09.309-.187.639-.278.991-.022.065-.038.136-.06.215-.038.136-.068.294-.1.453a1,1,0,0,0-.023.144c0,.036-.022.05-.022.079a17.525,17.525,0,0,0-.322,2.454A18.726,18.726,0,0,0,232.566,426.451Z" transform="translate(-232.483 -416.299)" fill="#154340"/>
                <path id="Trazado_968584" data-name="Trazado 968584" d="M254.568,416.852a.653.653,0,0,0-.457-.2.755.755,0,0,0-.462.186c-.1.078-.2.155-.3.233q-.725.547-1.474,1.06a.7.7,0,0,0-.3.385.665.665,0,0,0,.06.5.658.658,0,0,0,.886.243q1.045-.714,2.043-1.492a.651.651,0,0,0,.01-.919Z" transform="translate(-237.731 -416.397)" fill="#fff"/>
                <path id="Trazado_968585" data-name="Trazado 968585" d="M258.063,418.488a.657.657,0,0,0-.918-.01,11.045,11.045,0,0,1-1.6,1.488c-.093.068-.186.137-.281.2a.7.7,0,0,0-.3.385.65.65,0,0,0,.946.744,11.673,11.673,0,0,0,2.144-1.891.693.693,0,0,0,.2-.457A.659.659,0,0,0,258.063,418.488Z" transform="translate(-238.666 -416.849)" fill="#fff"/>
                <path id="Trazado_968586" data-name="Trazado 968586" d="M261.511,419.68a.652.652,0,0,0-.457-.195.628.628,0,0,0-.462.185l-1.494,1.878a.709.709,0,0,0-.195.457.651.651,0,0,0,.643.657.628.628,0,0,0,.462-.186L261.5,420.6a.711.711,0,0,0,.2-.457A.667.667,0,0,0,261.511,419.68Z" transform="translate(-239.757 -417.176)" fill="#fff"/>
                <path id="Trazado_968587" data-name="Trazado 968587" d="M265.36,420.605a.661.661,0,0,0-.894.228l-.98,1.638a.65.65,0,1,0,1.1.7l.98-1.638A.658.658,0,0,0,265.36,420.605Z" transform="translate(-240.989 -417.461)" fill="#fff"/>
              </g>
            </g>
            <path id="Trazado_968588" data-name="Trazado 968588" d="M221.515,232.645c2.554,23.253,8.432,109.581,9.748,129.137.173,2.545.268,3.956.268,3.956a15.773,15.773,0,0,0,11.167.112s.138-1.472.372-4.112c1.705-19.132,8.6-99.764,6.718-129.095H221.515Z" transform="translate(-172.53 -232.644)" fill="#ebbda4"/>
            <g id="Grupo_1118572" data-name="Grupo 1118572" transform="translate(21.554 0.002)">
              <path id="Trazado_968589" data-name="Trazado 968589" d="M245.737,361.979c-1.131.088-2.637.133-4.3.149h-.277c-4.055.033-8.962-.116-11.7-.309-1.034-15.359-3.77-71.934-6.137-106.768q-.137-2.061-.276-4.02v-.011q-.041-.539-.078-1.07c-.2-2.82-.4-5.449-.591-7.851-.008-.094-.017-.186-.022-.277-.3-3.647-.578-6.753-.843-9.175H249.79C251.675,261.975,247.443,342.849,245.737,361.979Z" transform="translate(-194.084 -232.647)" fill="#26645f"/>
              <path id="Trazado_968590" data-name="Trazado 968590" d="M214.652,232.647c-.434,3.967-1.073,9.781-1.849,16.789q-.087.784-.174,1.584c-.006.038-.011.078-.014.119-3.793,34.234-10.516,94.378-12.606,110.663-1,.067-2.273.1-3.679.116-.094,0-.186,0-.279,0-4.086.028-9.2-.116-12.067-.232-.475-19.158-.669-99.555,1.217-129.041h29.451Z" transform="translate(-183.663 -232.647)" fill="#26645f"/>
              <path id="Trazado_968591" data-name="Trazado 968591" d="M221.8,246.922l-.148-2.783c.06-.08.035-.212-.073-.219a.151.151,0,0,0-.167.009,3.5,3.5,0,0,1-3.891-3.447.139.139,0,0,0-.277,0,3.777,3.777,0,0,0,4.134,3.722q.264,4.973.528,9.945.077,1.446.154,2.891c.009.178.286.175.276,0Q222.07,251.984,221.8,246.922Z" transform="translate(-192.909 -234.768)" fill="#154340"/>
              <path id="Trazado_968592" data-name="Trazado 968592" d="M254.407,241.473a6.89,6.89,0,0,1-7.483-4.568c-.058-.167-.325-.095-.267.073a7.214,7.214,0,0,0,5.566,4.735,7.3,7.3,0,0,0,2.257.026C254.656,241.715,254.581,241.448,254.407,241.473Z" transform="translate(-201.004 -233.793)" fill="#154340"/>
              <path id="Trazado_968593" data-name="Trazado 968593" d="M253.2,243.433c0,.041,0,.083,0,.125q-.261,13.423-.617,26.846-.63,23.9-1.565,47.795-.916,23.441-2.118,46.863h-.277q.663-12.892,1.238-25.789,1.062-23.889,1.827-47.786.772-23.976,1.233-47.963c0-.03,0-.058,0-.088A.139.139,0,0,1,253.2,243.433Z" transform="translate(-201.549 -235.579)" fill="#154340"/>
              <path id="Trazado_968594" data-name="Trazado 968594" d="M214.251,250.938q-1.464,12.846-2.928,25.69-2.587,22.682-5.17,45.364-2.562,22.458-5.12,44.925c-.094,0-.186,0-.279,0q1.426-12.515,2.853-25.024,2.587-22.683,5.17-45.365,2.6-22.794,5.2-45.594C213.994,250.764,214.271,250.764,214.251,250.938Z" transform="translate(-188.369 -237.647)" fill="#154340"/>
            </g>
          </g>
          <g id="Grupo_1118580" data-name="Grupo 1118580" transform="translate(0 46.39)">
            <path id="Trazado_968595" data-name="Trazado 968595" d="M159.972,218.531c-1.051.8-8.352-1.041-8.88.472-.483,1.383,2.376,2.893,4.008,2.566-1.576,1.38-9.276,4.894-8.335,6.387.7,1.1,6.186-2.189,6.186-2.189s-5.949,4.514-4.8,5.777,6.636-4.057,6.636-4.057-4.385,4.788-3.3,5.639c1.067.838,5.208-4.5,5.208-4.5s-2.63,4.685-1.991,5.118,2.907-2.05,4.065-4.429a11.01,11.01,0,0,0,5.545-5.75Z" transform="translate(-146.686 -147.259)" fill="#ebbda4"/>
            <path id="Trazado_968596" data-name="Trazado 968596" d="M192.3,170.515c-.978,5.991-22.508,29.13-22.508,29.13-3.318-1.623-8.8-7.6-8.8-7.6l20.51-24.014s.225-39.675,9.056-42.887C190.557,125.142,193.951,160.352,192.3,170.515Z" transform="translate(-150.625 -121.587)" fill="#e6fdf8"/>
            <g id="Grupo_1118576" data-name="Grupo 1118576" transform="translate(27.619)">
              <g id="Grupo_1118575" data-name="Grupo 1118575">
                <g id="Grupo_1118574" data-name="Grupo 1118574">
                  <path id="Trazado_968597" data-name="Trazado 968597" d="M184.8,202.131c8.533,4.768,37.649,3.536,50.167,1.786.51-.07.976-.141,1.434-.22,2.56-.4,4.152-.827,4.336-1.2l-.642-4.275-.519-3.457-.334-2.173-.519-3.448-9.975-66.194-3.1-.774-3.457-.862-4.319-1.082-10.336.088-4.178,1.39-3.536,1.17-2.71.906L187,188.153l-.554,3.492-.352,2.261-.554,3.5Z" transform="translate(-184.798 -120.236)" fill="#ff9620"/>
                </g>
              </g>
            </g>
            <path id="Trazado_968598" data-name="Trazado 968598" d="M203.561,120.994,193.9,243.578H175.409L194.528,124Z" transform="translate(-154.594 -120.445)" fill="#e6fdf8"/>
            <path id="Trazado_968599" data-name="Trazado 968599" d="M197.818,137.184q-1.059,6.469-2.117,12.938t-2.117,12.938q-.6,3.644-1.192,7.287c-.028.174.238.247.267.072q1.059-6.469,2.117-12.938t2.117-12.938q.6-3.644,1.192-7.287C198.113,137.082,197.846,137.008,197.818,137.184Z" transform="translate(-159.27 -124.874)" fill="#befcf3"/>
            <path id="Trazado_968600" data-name="Trazado 968600" d="M211.3,120.994l-7.777,8.2,3.576,3.341-3.294,5.834,4.673,18.443Z" transform="translate(-162.335 -120.445)" fill="#befcf3"/>
            <path id="Trazado_968601" data-name="Trazado 968601" d="M259.04,243.455H227.8l2.828-122.9,2.422.606.99.246,6.543,1.636Z" transform="translate(-169.019 -120.323)" fill="#e6fdf8"/>
            <path id="Trazado_968602" data-name="Trazado 968602" d="M231.389,120.551l7.01,9.269-3.505,3.718,2.329,5.552-6.666,17.6Z" transform="translate(-169.778 -120.323)" fill="#befcf3"/>
            <path id="Trazado_968603" data-name="Trazado 968603" d="M207.943,219.372c-.913.094-1.265,1.225-2.741,1.508s-3.939-.549-4.992-.029-7.647,6.108-6.3,7.479c.8.815,4.294-2.449,4.418-2.423s-3.8,4.581-2.574,5.583,5.041-4.808,5.2-4.739-2.446,4.821-1.106,5.476,3.4-4.208,3.557-4.2-.482,4.387.536,4.654,2.034-5.058,2.274-5.052,2.348,1.051,4.143.672,3.962-3.7,3.428-5.025S209.131,219.251,207.943,219.372Z" transform="translate(-159.639 -147.529)" fill="#fabb98"/>
            <path id="Trazado_968604" data-name="Trazado 968604" d="M235.26,123.985c7.266,3.3,8.906,30.694,9.214,34.588.447,5.647.105,11.012-3.642,15.284-2.22,2.531-22.912,26.972-22.912,26.972s-6.168-2.976-9.461-7.229l22.774-30.149-.706-19.652Z" transform="translate(-163.694 -121.268)" fill="#e6fdf8"/>
            <path id="Trazado_968605" data-name="Trazado 968605" d="M251.043,184.335,242.43,194.58l-8.613,10.245-4.839,5.756c-.113.135.075.337.19.2l8.613-10.245,8.613-10.245,4.839-5.756C251.346,184.4,251.156,184.2,251.043,184.335Z" transform="translate(-169.334 -137.871)" fill="#befcf3"/>
            <path id="Trazado_968606" data-name="Trazado 968606" d="M239.325,169.14l-2.679,3.532q-.817-6.114-1.219-12.275-.114-1.76-.194-3.523c-.008-.177-.285-.178-.277,0q.287,6.3,1.009,12.562.2,1.753.439,3.5a.123.123,0,0,0,.012.035l-4.828,6.366-2.162,2.852c-.107.142.133.28.238.14l7.736-10.2,2.163-2.852C239.671,169.137,239.431,169,239.325,169.14Z" transform="translate(-169.459 -130.287)" fill="#befcf3"/>
            <g id="Grupo_1118579" data-name="Grupo 1118579" transform="translate(39.255 0.834)">
              <g id="Grupo_1118577" data-name="Grupo 1118577" transform="translate(17.472)">
                <path id="Trazado_968607" data-name="Trazado 968607" d="M232.871,133.051a5.971,5.971,0,0,0-6.565,5.3l-1.331,12.442a1.712,1.712,0,0,0,1.52,1.883l.933.1-.017.158a.359.359,0,0,0,.319.395l.427.046a.359.359,0,0,0,.395-.319l.149-1.392a.359.359,0,0,0-.319-.395l-.427-.046a.359.359,0,0,0-.395.319l-.022.207-.933-.1a.68.68,0,0,1-.6-.747l1.331-12.442a4.932,4.932,0,0,1,9.808,1.049l-1.331,12.442a.68.68,0,0,1-.747.6l-1-.107.022-.207a.359.359,0,0,0-.319-.395l-.427-.046a.359.359,0,0,0-.395.319l-.149,1.392a.359.359,0,0,0,.319.395l.427.046a.359.359,0,0,0,.395-.319l.017-.158,1,.107a1.712,1.712,0,0,0,1.883-1.52l1.331-12.442A5.97,5.97,0,0,0,232.871,133.051Z" transform="translate(-224.965 -124.589)" fill="#154340"/>
                <path id="Trazado_968608" data-name="Trazado 968608" d="M236.34,130.158c-.155.512-.957.293-.8-.218a12.7,12.7,0,0,0-.492-8.553l.99.246A13.361,13.361,0,0,1,236.34,130.158Z" transform="translate(-227.741 -121.387)" fill="#154340"/>
              </g>
              <g id="Grupo_1118578" data-name="Grupo 1118578" transform="translate(0 0.807)">
                <path id="Trazado_968609" data-name="Trazado 968609" d="M206.125,142.859a2.635,2.635,0,1,1-2.635-2.635A2.635,2.635,0,0,1,206.125,142.859Z" transform="translate(-200.855 -127.381)" fill="#154340"/>
                <path id="Trazado_968610" data-name="Trazado 968610" d="M205.279,143.377a1.27,1.27,0,1,1-1.27-1.27A1.271,1.271,0,0,1,205.279,143.377Z" transform="translate(-201.373 -127.899)" fill="#01bca7"/>
                <path id="Trazado_968611" data-name="Trazado 968611" d="M207.28,122.884a9.5,9.5,0,0,0-1.836,5.682c-.109,2.326.871,4.952-.335,7.119-.259.467.457.886.716.419,1.231-2.213.423-4.7.436-7.069a11.764,11.764,0,0,1,2.177-6.534Z" transform="translate(-202.011 -122.501)" fill="#154340"/>
              </g>
            </g>
          </g>
          <g id="Grupo_1118588" data-name="Grupo 1118588" transform="translate(36.609 0)">
            <g id="Grupo_1118587" data-name="Grupo 1118587">
              <path id="Trazado_968612" data-name="Trazado 968612" d="M223.21,90.586a19.526,19.526,0,0,0,8.365-15.857,9.411,9.411,0,0,0-.625-3.7,4.7,4.7,0,0,0-2.57-2.62,18.522,18.522,0,0,0-7.767-9.369,21.1,21.1,0,0,0-8.724-2.732,15.872,15.872,0,0,0-6.138.5,9.628,9.628,0,0,0-5.018,3.451,6.939,6.939,0,0,0-1.13,5.88,9.956,9.956,0,0,0-2.387,6.668,9.805,9.805,0,0,0,2.894,6.405c1.274,1.25,1.736,3.06,3.082,4.232A29.854,29.854,0,0,0,223.21,90.586Z" transform="translate(-197.204 -56.221)" fill="#381a08"/>
              <path id="Trazado_968613" data-name="Trazado 968613" d="M226.181,89.852a47.6,47.6,0,0,0-4.037,18.331,5.522,5.522,0,0,1-10.182-.307c.116-3.988-.569-5.863-1.825-7.247-.1-.116-.208-.218-.317-.329-.075-.079-.149-.148-.232-.222-.148-.138-.32-.267-.483-.409-.231-.183-.472-.367-.722-.554h-.005a41.844,41.844,0,0,1-3.423-2.674,11.867,11.867,0,0,1-3.786-7.54,1.172,1.172,0,0,1-.024-.133c-.012-.052-.018-.1-.025-.157-.012-.095-.02-.181-.028-.272a1.129,1.129,0,0,1-.018-.119c-.394-3.5-.043-8.162,1.365-14.594,1.461-6.668,17.728-9.056,22.084-.478C226.316,76.691,226.181,89.852,226.181,89.852Z" transform="translate(-198.228 -59.36)" fill="#ebbda4"/>
              <path id="Trazado_968614" data-name="Trazado 968614" d="M202.3,71.868a3.9,3.9,0,0,0,2.041,1.255,21.024,21.024,0,0,0,15.2-.8,8.017,8.017,0,0,0,.1,1.764,3.351,3.351,0,0,0,.809,1.7,2.062,2.062,0,0,0,1.718.663,10.584,10.584,0,0,0,.78,5.724,10.32,10.32,0,0,0,3.668,4.365A27.629,27.629,0,0,0,227.9,77.35a13.073,13.073,0,0,0-3.479-8.44,12.393,12.393,0,0,0-5.266-3.022,15.649,15.649,0,0,0-9.393.167A15.865,15.865,0,0,0,202.3,71.868Z" transform="translate(-198.606 -58.706)" fill="#381a08"/>
              <g id="Grupo_1118585" data-name="Grupo 1118585" transform="translate(4.851 21.038)">
                <g id="Grupo_1118584" data-name="Grupo 1118584">
                  <path id="Trazado_968615" data-name="Trazado 968615" d="M211.112,94.453a1.876,1.876,0,0,0-.746-.207,1.065,1.065,0,0,0-.687.157.854.854,0,0,0-.335.639,1.564,1.564,0,0,0,.149.7.253.253,0,0,0,.3.175.248.248,0,0,0,.175-.3,1.376,1.376,0,0,1-.136-.514.433.433,0,0,1,.079-.256l-.009.014a.328.328,0,0,1,.232-.122l.023,0c.018,0,.037,0,.056,0a1.425,1.425,0,0,1,.147,0l.075.007h.018l.016,0a2.656,2.656,0,0,1,.427.141.243.243,0,0,0,.215-.434Z" transform="translate(-205.397 -87.727)" fill="#c16b5b"/>
                  <path id="Trazado_968616" data-name="Trazado 968616" d="M204.19,85.811a4.462,4.462,0,0,1,4.168-.083.7.7,0,0,1,.318.928.74.74,0,0,1-1.057.253,3.4,3.4,0,0,0-1.125-.29c0-.021.034.016.013.014a3.1,3.1,0,0,0-1.441.277l-.1.045a.708.708,0,0,1-.957-.181A.7.7,0,0,1,204.19,85.811Z" transform="translate(-203.898 -85.252)"/>
                  <path id="Trazado_968617" data-name="Trazado 968617" d="M215.7,85.984a4.46,4.46,0,0,1,4.145.434.693.693,0,1,1-.759,1.16c-.122-.084-.25-.157-.38-.23l-.018-.009-.07-.031c-.051-.022-.1-.043-.154-.062a3.736,3.736,0,0,0-.425-.131c-.036-.009-.267-.078-.089-.022a1.013,1.013,0,0,0-.193-.027,3.787,3.787,0,0,0-.416-.025c-.074,0-.148,0-.222.006H217.1l-.047.006a3.564,3.564,0,0,0-.409.074c-.072.017-.143.037-.215.059l-.084.028-.009,0h-.006l-.007,0h0a.692.692,0,0,1-.63-1.233Z" transform="translate(-207.046 -85.366)"/>
                  <path id="Trazado_968618" data-name="Trazado 968618" d="M213.951,99.151a4.466,4.466,0,0,1-3.1.879c-.305-.028-.33.446-.026.475a4.96,4.96,0,0,0,3.447-1C214.512,99.319,214.193,98.966,213.951,99.151Z" transform="translate(-205.745 -89.064)" fill="#8e4136"/>
                  <g id="Grupo_1118583" data-name="Grupo 1118583" transform="translate(0.932 4.01)">
                    <g id="Grupo_1118581" data-name="Grupo 1118581" transform="translate(8.179 0.226)">
                      <path id="Trazado_968619" data-name="Trazado 968619" d="M218.713,92.181a1.121,1.121,0,1,1-1.158-1.083A1.121,1.121,0,0,1,218.713,92.181Z" transform="translate(-216.471 -91.097)"/>
                      <path id="Trazado_968620" data-name="Trazado 968620" d="M217.664,92.033a.327.327,0,1,1-.338-.316A.328.328,0,0,1,217.664,92.033Z" transform="translate(-216.619 -91.268)" fill="#fff"/>
                    </g>
                    <g id="Grupo_1118582" data-name="Grupo 1118582">
                      <path id="Trazado_968621" data-name="Trazado 968621" d="M207.426,91.869a1.121,1.121,0,1,1-1.158-1.083A1.122,1.122,0,0,1,207.426,91.869Z" transform="translate(-205.184 -90.785)"/>
                      <path id="Trazado_968622" data-name="Trazado 968622" d="M206.376,91.721a.327.327,0,1,1-.338-.316A.328.328,0,0,1,206.376,91.721Z" transform="translate(-205.332 -90.956)" fill="#fff"/>
                    </g>
                  </g>
                </g>
              </g>
              <g id="Grupo_1118586" data-name="Grupo 1118586" transform="translate(25.687 25.256)">
                <path id="Trazado_968623" data-name="Trazado 968623" d="M238.452,96.715c-1.438,1.612-3.641,1.994-4.921.854s-1.152-3.373.286-4.986,3.641-1.994,4.921-.854S239.89,95.1,238.452,96.715Z" transform="translate(-232.65 -91.072)" fill="#ebbda4"/>
                <path id="Trazado_968624" data-name="Trazado 968624" d="M238.476,92.963a2.4,2.4,0,0,0-2.1-.023,1.96,1.96,0,0,0-.823.6,1.193,1.193,0,0,0-.205,1.091,1.7,1.7,0,0,0,.557.7,1.628,1.628,0,0,1,.376.4.61.61,0,0,1-.809.837.272.272,0,0,0-.242.486,1.128,1.128,0,0,0,.47.116,1.147,1.147,0,0,0,1.059-1.7,2.07,2.07,0,0,0-.5-.554,1.258,1.258,0,0,1-.4-.468.655.655,0,0,1,.126-.586.547.547,0,0,1,.981.088.971.971,0,0,1,.212.8.271.271,0,0,0,.214.318.306.306,0,0,0,.044.005.271.271,0,0,0,.274-.219,1.5,1.5,0,0,0-.333-1.259,1.221,1.221,0,0,0-.4-.289,1.707,1.707,0,0,1,1.232.122,1.05,1.05,0,0,1,.488,1.29.271.271,0,0,0,.486.242A1.59,1.59,0,0,0,238.476,92.963Z" transform="translate(-233.318 -91.523)" fill="#c16b5b"/>
              </g>
            </g>
          </g>
        </g>
        <g id="Grupo_1118607" data-name="Grupo 1118607" transform="translate(171.638 -50.038)">
          <g id="Grupo_1118594" data-name="Grupo 1118594" transform="translate(0 128.578)">
            <g id="Grupo_1118591" data-name="Grupo 1118591" transform="translate(56.933 133.09)">
              <g id="Grupo_1118590" data-name="Grupo 1118590">
                <path id="Trazado_968625" data-name="Trazado 968625" d="M374.187,426.451l.033.238c.032.354.072.693.133,1.061.069.3.123.636.184.975l36.345.392a7.039,7.039,0,0,0,.068-.965,9.509,9.509,0,0,0-.089-1.067,1.538,1.538,0,0,0-.048-.238c-.374-2.05-1.835-4.89-6.789-5.852a7.257,7.257,0,0,0-.762-.13h-.022c-.388-.062-.777-.1-1.194-.143-.137-.009-.274-.025-.41-.033-9.933-.886-14.3-4.268-14.3-4.268a31.592,31.592,0,0,1-11.167-.12,14.13,14.13,0,0,0-1.227,2.869c-.09.309-.187.639-.277.991-.023.065-.038.136-.06.215-.038.136-.068.294-.1.453a1.105,1.105,0,0,0-.023.144c0,.036-.023.05-.023.079a17.532,17.532,0,0,0-.322,2.454A18.64,18.64,0,0,0,374.187,426.451Z" transform="translate(-374.103 -416.299)" fill="#26645f"/>
                <path id="Trazado_968626" data-name="Trazado 968626" d="M396.189,416.852a.653.653,0,0,0-.457-.2.757.757,0,0,0-.462.186c-.1.078-.2.155-.3.233q-.725.547-1.474,1.06a.7.7,0,0,0-.3.385.665.665,0,0,0,.06.5.658.658,0,0,0,.886.243q1.045-.714,2.042-1.492a.649.649,0,0,0,.2-.457A.655.655,0,0,0,396.189,416.852Z" transform="translate(-379.352 -416.397)" fill="#fff"/>
                <path id="Trazado_968627" data-name="Trazado 968627" d="M399.684,418.488a.658.658,0,0,0-.919-.01,11.013,11.013,0,0,1-1.6,1.488c-.093.068-.186.137-.281.2a.7.7,0,0,0-.3.385.665.665,0,0,0,.06.5.657.657,0,0,0,.886.243,11.676,11.676,0,0,0,2.144-1.891.694.694,0,0,0,.2-.457A.662.662,0,0,0,399.684,418.488Z" transform="translate(-380.286 -416.849)" fill="#fff"/>
                <path id="Trazado_968628" data-name="Trazado 968628" d="M403.131,419.68a.652.652,0,0,0-.457-.195.628.628,0,0,0-.462.185l-1.494,1.878a.706.706,0,0,0-.195.457.651.651,0,0,0,.643.657.628.628,0,0,0,.462-.186l1.494-1.878a.706.706,0,0,0,.195-.457A.664.664,0,0,0,403.131,419.68Z" transform="translate(-381.377 -417.176)" fill="#fff"/>
                <path id="Trazado_968629" data-name="Trazado 968629" d="M406.98,420.605a.66.66,0,0,0-.894.228l-.98,1.638a.65.65,0,1,0,1.1.7l.98-1.638A.658.658,0,0,0,406.98,420.605Z" transform="translate(-382.609 -417.461)" fill="#fff"/>
              </g>
            </g>
            <path id="Trazado_968630" data-name="Trazado 968630" d="M381.927,361.713c-.061,2.658-.1,4.138-.1,4.138a15.787,15.787,0,0,1-11.168-.112s-.191-1.5-.537-4.181c-2.562-19.981-13.514-105.746-16.05-128.913h28.274C384.23,262.131,382.4,342.555,381.927,361.713Z" transform="translate(-311.654 -232.644)" fill="#754933"/>
            <g id="Grupo_1118593" data-name="Grupo 1118593" transform="translate(0 133.09)">
              <g id="Grupo_1118592" data-name="Grupo 1118592">
                <path id="Trazado_968631" data-name="Trazado 968631" d="M332.3,426.451l-.033.238c-.032.354-.072.693-.133,1.061-.069.3-.122.636-.184.975l-36.345.392a7.027,7.027,0,0,1-.068-.965,9.514,9.514,0,0,1,.089-1.067,1.549,1.549,0,0,1,.048-.238c.374-2.05,1.835-4.89,6.789-5.852a7.257,7.257,0,0,1,.762-.13h.022c.388-.062.777-.1,1.194-.143.137-.009.274-.025.41-.033,9.933-.886,14.3-4.268,14.3-4.268a31.592,31.592,0,0,0,11.167-.12,14.082,14.082,0,0,1,1.227,2.869c.09.309.187.639.278.991.022.065.038.136.06.215.038.136.068.294.1.453a1,1,0,0,1,.023.144c0,.036.022.05.022.079a17.527,17.527,0,0,1,.322,2.454A18.732,18.732,0,0,1,332.3,426.451Z" transform="translate(-295.54 -416.299)" fill="#26645f"/>
                <path id="Trazado_968632" data-name="Trazado 968632" d="M323.082,416.852a.653.653,0,0,1,.457-.2.755.755,0,0,1,.462.186c.1.078.2.155.3.233q.725.547,1.474,1.06a.7.7,0,0,1,.3.385.65.65,0,0,1-.946.744q-1.045-.714-2.043-1.492a.652.652,0,0,1-.2-.457A.66.66,0,0,1,323.082,416.852Z" transform="translate(-303.072 -416.397)" fill="#fff"/>
                <path id="Trazado_968633" data-name="Trazado 968633" d="M319.548,418.488a.657.657,0,0,1,.918-.01,11.048,11.048,0,0,0,1.6,1.488c.093.068.186.137.281.2a.7.7,0,0,1,.3.385.665.665,0,0,1-.06.5.657.657,0,0,1-.886.243,11.676,11.676,0,0,1-2.144-1.891.689.689,0,0,1-.195-.457A.658.658,0,0,1,319.548,418.488Z" transform="translate(-302.099 -416.849)" fill="#fff"/>
                <path id="Trazado_968634" data-name="Trazado 968634" d="M316.3,419.68a.652.652,0,0,1,.457-.195.628.628,0,0,1,.462.185l1.494,1.878a.71.71,0,0,1,.2.457.651.651,0,0,1-.643.657.628.628,0,0,1-.462-.186l-1.494-1.878a.711.711,0,0,1-.2-.457A.664.664,0,0,1,316.3,419.68Z" transform="translate(-301.204 -417.176)" fill="#fff"/>
                <path id="Trazado_968635" data-name="Trazado 968635" d="M312.638,420.605a.66.66,0,0,1,.894.228l.98,1.638a.65.65,0,1,1-1.1.7l-.98-1.638A.657.657,0,0,1,312.638,420.605Z" transform="translate(-300.162 -417.461)" fill="#fff"/>
              </g>
            </g>
            <path id="Trazado_968636" data-name="Trazado 968636" d="M346.489,232.645c-2.554,23.253-8.432,109.581-9.748,129.137-.173,2.545-.268,3.956-.268,3.956a15.773,15.773,0,0,1-11.167.112s-.138-1.472-.372-4.112c-1.705-19.132-8.6-99.764-6.718-129.095h28.273Z" transform="translate(-301.694 -232.644)" fill="#754933"/>
            <path id="Trazado_968637" data-name="Trazado 968637" d="M346.432,232.645c-2.554,23.253-6.632,109.616-7.947,129.172a152.423,152.423,0,0,1-16.275.162c-1.706-19.132-5.939-100-4.052-129.334Z" transform="translate(-301.636 -232.644)" fill="#01bca7"/>
            <path id="Trazado_968638" data-name="Trazado 968638" d="M383.113,361.688c-3.93.156-12.095.372-16.025.112-2.562-19.981-12.106-105.99-14.644-129.156H381.9C383.783,262.13,383.589,342.53,383.113,361.688Z" transform="translate(-311.207 -232.644)" fill="#01bca7"/>
            <path id="Trazado_968639" data-name="Trazado 968639" d="M358.717,240.169a2.838,2.838,0,0,1-2.873,2.352c-.027-.134-.259-.109-.272.051q-.465,5.763-.931,11.527-.13,1.612-.26,3.225c-.014.177.262.161.276-.015q.465-5.763.931-11.527l.241-2.986a3.111,3.111,0,0,0,3.158-2.568C359.017,240.054,358.748,239.994,358.717,240.169Z" transform="translate(-311.74 -234.687)" fill="#154340"/>
          </g>
          <g id="Grupo_1118598" data-name="Grupo 1118598" transform="translate(14.91 47.118)">
            <g id="Grupo_1118595" data-name="Grupo 1118595" transform="translate(41.947 3.554)">
              <path id="Trazado_968640" data-name="Trazado 968640" d="M376.229,125.138c4.858,1.828,8.1,39.065,8.1,39.065l24.123,25.65-6.612,5.747s-20.546-19.086-23.863-22.474-4.164-8.258-3.952-11.858S376.229,125.138,376.229,125.138Z" transform="translate(-373.999 -125.138)" fill="#754933"/>
              <path id="Trazado_968641" data-name="Trazado 968641" d="M416.346,213.012c1.315.772,6.636,1.973,7.779,3.632s4.507,8.145,3.481,8.821c-.651.429-3.268-3.546-3.268-3.546s1.952,5.291.919,5.617-2.9-5.052-2.9-5.052,1.473,5.838.194,6.139-2.257-5.77-2.257-5.77a3.206,3.206,0,0,1-1.25,3.055c-1.213.726-3.068.637-3.192-.079s1.873-1.233,2.04-1.478a4.977,4.977,0,0,0,.149-1.451c-3.132.357-5.616-3.107-5.616-3.107Z" transform="translate(-384.578 -149.332)" fill="#754933"/>
            </g>
            <path id="Trazado_968642" data-name="Trazado 968642" d="M377.077,125.138c6.5,2.51,9.327,29.989,9.327,29.989a35.56,35.56,0,0,1-9.327.846Z" transform="translate(-332.9 -121.584)" fill="#01bca7"/>
            <g id="Grupo_1118596" data-name="Grupo 1118596" transform="translate(0.555 0.001)">
              <path id="Trazado_968643" data-name="Trazado 968643" d="M372.819,202.131c-8.533,4.768-37.649,3.536-50.167,1.786-.51-.07-.976-.141-1.434-.22-2.56-.4-4.152-.827-4.336-1.2l.642-4.275.519-3.457.334-2.173.519-3.448,9.975-66.194,3.1-.774,3.457-.862,4.319-1.082,10.336.088,4.179,1.39,3.536,1.17,2.71.906,10.116,64.364.554,3.492.352,2.261.554,3.5Z" transform="translate(-316.881 -120.236)" fill="#01bca7"/>
            </g>
            <path id="Trazado_968644" data-name="Trazado 968644" d="M359.537,236.94q-7.028.327-14.065.151t-14.04-.858q-3.942-.384-7.866-.926c-.174-.024-.249.242-.073.267q6.987.966,14.03,1.432,7.02.462,14.06.42,3.98-.024,7.955-.209C359.714,237.208,359.715,236.931,359.537,236.94Z" transform="translate(-318.119 -151.916)" fill="#154340"/>
            <path id="Trazado_968645" data-name="Trazado 968645" d="M343.764,121.285l-1.232,4.913,10.975,5.465,8.356-5.342-1.878-4.764Z" transform="translate(-323.388 -120.523)" fill="#26645f"/>
            <path id="Trazado_968646" data-name="Trazado 968646" d="M344.232,121l9.743,10.377,6.478-10.106-2.843-.946-10.336-.088Z" transform="translate(-323.856 -120.234)" fill="#754933"/>
            <g id="Grupo_1118597" data-name="Grupo 1118597" transform="translate(0.676 2.718)">
              <path id="Trazado_968647" data-name="Trazado 968647" d="M350.278,142.058l-20.661,16.21,4.311-20.68-5.01-13.6c-8.118,3.157-11.432,33.337-11.847,38.693-.47,6.07,6.587,11.98,13.551,9.119S356.1,148.03,356.1,148.03Z" transform="translate(-317.048 -123.985)" fill="#754933"/>
              <path id="Trazado_968648" data-name="Trazado 968648" d="M361.511,145.264c-.033-.917,1.039-1.42,1.117-2.923s-1.085-3.826-.715-4.942,5-8.414,6.542-7.266c.918.683-1.836,4.59-1.793,4.71s4.016-4.394,5.176-3.317-4.069,5.654-3.981,5.8,4.439-3.085,5.272-1.848-3.7,3.943-3.676,4.1,4.279-1.08,4.683-.109-4.73,2.71-4.692,2.947,1.364,2.181,1.235,4.011-3.123,4.434-4.507,4.086S361.554,146.457,361.511,145.264Z" transform="translate(-329.29 -125.644)" fill="#754933"/>
            </g>
            <path id="Trazado_968649" data-name="Trazado 968649" d="M328.66,123.985c-9.2,2.31-12.682,30.555-12.54,30.431s8.282,2.511,14.681,1.711l3.952-17.928Z" transform="translate(-316.115 -121.267)" fill="#01bca7"/>
            <path id="Trazado_968650" data-name="Trazado 968650" d="M340.875,143.373l-1.817,2.732q.254-1.586.543-3.166c.032-.174-.234-.249-.267-.074q-.613,3.332-1.065,6.691-.454,3.39-.741,6.8-.161,1.916-.269,3.836c-.01.178.267.178.276,0q.382-6.778,1.425-13.5h0a.129.129,0,0,0,.07-.053l2.082-3.129C341.212,143.364,340.973,143.225,340.875,143.373Z" transform="translate(-321.937 -126.438)" fill="#154340"/>
            <path id="Trazado_968651" data-name="Trazado 968651" d="M380.448,147.276q-.688-4.89-1.564-9.751-.495-2.749-1.049-5.486c-.036-.174-.3-.1-.267.073q.979,4.841,1.774,9.715t1.4,9.773q.341,2.755.622,5.516c.018.175.294.177.277,0Q381.14,152.186,380.448,147.276Z" transform="translate(-333.034 -123.457)" fill="#154340"/>
          </g>
          <g id="Grupo_1118606" data-name="Grupo 1118606" transform="translate(26.34)">
            <g id="Grupo_1118605" data-name="Grupo 1118605">
              <path id="Trazado_968652" data-name="Trazado 968652" d="M341.965,90.889a3.163,3.163,0,0,1-3.811-2.233,5.026,5.026,0,0,1-4.528-8.046,6.243,6.243,0,0,1,.573-9.172,8.349,8.349,0,0,1,.1-6.52,5.071,5.071,0,0,1,5.534-2.787,9.4,9.4,0,0,1,6.958-6.729,9.5,9.5,0,0,1,9.168,3.285,6.684,6.684,0,0,1,9.814,4.242,3.829,3.829,0,0,1,2.515,6.428,4.965,4.965,0,0,1,1.132,3.389,4.519,4.519,0,0,1-1.31,3.144,5.235,5.235,0,0,1,.046,4,5.316,5.316,0,0,1-2.764,2.932c-3.239,1.452-5.731,4.109-9.143,5.088C351.509,89.269,346.7,89.507,341.965,90.889Z" transform="translate(-331.888 -55.215)" fill="#381a08"/>
              <path id="Trazado_968653" data-name="Trazado 968653" d="M343.092,89.852a47.6,47.6,0,0,1,4.037,18.331,5.522,5.522,0,0,0,10.182-.307c-.116-3.988.569-5.863,1.825-7.247.1-.116.208-.218.317-.329.075-.079.148-.148.232-.222.148-.138.32-.267.483-.409.231-.183.472-.367.722-.554h.005a41.989,41.989,0,0,0,3.423-2.674A11.867,11.867,0,0,0,368.1,88.9a1.206,1.206,0,0,0,.024-.133c.012-.052.018-.1.025-.157.012-.095.02-.181.028-.272a1.1,1.1,0,0,0,.018-.119c.394-3.5.043-8.162-1.365-14.594-1.461-6.668-17.728-9.056-22.084-.478C342.957,76.691,343.092,89.852,343.092,89.852Z" transform="translate(-334.972 -58.631)" fill="#754933"/>
              <path id="Trazado_968654" data-name="Trazado 968654" d="M367.548,74.656a2.142,2.142,0,0,1-2.6-1.625,2.753,2.753,0,0,1-3.525-.586,3.985,3.985,0,0,1-6.137-.775,4.523,4.523,0,0,1-5.555,2.4,4.4,4.4,0,0,1-3.273,5.487,8.842,8.842,0,0,1,.046,3.2,5.254,5.254,0,0,1-1.383,2.841,3.758,3.758,0,0,1-2.893,1.144,22.136,22.136,0,0,1,1.965-15.831,12,12,0,0,1,4.236-4.773c2.462-1.449,5.476-1.508,8.333-1.461a21.056,21.056,0,0,1,5.248.554,7.664,7.664,0,0,1,4.339,2.839C367.662,69.972,367.546,72.34,367.548,74.656Z" transform="translate(-334.552 -57.816)" fill="#381a08"/>
              <g id="Grupo_1118603" data-name="Grupo 1118603" transform="translate(18.112 21.767)">
                <g id="Grupo_1118602" data-name="Grupo 1118602">
                  <path id="Trazado_968655" data-name="Trazado 968655" d="M367.041,94.453a1.876,1.876,0,0,1,.746-.207,1.065,1.065,0,0,1,.687.157.853.853,0,0,1,.335.639,1.564,1.564,0,0,1-.149.7.253.253,0,0,1-.3.175.248.248,0,0,1-.175-.3,1.376,1.376,0,0,0,.135-.514.432.432,0,0,0-.079-.256l.009.014a.328.328,0,0,0-.231-.122l-.023,0c-.018,0-.037,0-.056,0a1.425,1.425,0,0,0-.147,0l-.075.007H367.7l-.016,0a2.657,2.657,0,0,0-.427.141.243.243,0,0,1-.216-.434Z" transform="translate(-359.647 -87.727)" fill="#573322"/>
                  <path id="Trazado_968656" data-name="Trazado 968656" d="M372.836,85.811a4.462,4.462,0,0,0-4.168-.083.7.7,0,0,0-.318.928.74.74,0,0,0,1.057.253,3.4,3.4,0,0,1,1.125-.29c0-.021-.034.016-.013.014a3.1,3.1,0,0,1,1.441.277l.1.045a.708.708,0,0,0,.957-.181A.7.7,0,0,0,372.836,85.811Z" transform="translate(-360.019 -85.252)"/>
                  <path id="Trazado_968657" data-name="Trazado 968657" d="M361.341,85.984a4.46,4.46,0,0,0-4.145.434.693.693,0,1,0,.759,1.16c.122-.084.25-.157.38-.23l.018-.009.07-.031c.051-.022.1-.043.154-.062a3.743,3.743,0,0,1,.425-.131c.036-.009.267-.078.089-.022a1.013,1.013,0,0,1,.193-.027,3.788,3.788,0,0,1,.416-.025c.074,0,.148,0,.222.006h.017l.047.006a3.565,3.565,0,0,1,.409.074c.072.017.144.037.215.059l.084.028.009,0h.007l.006,0h0a.692.692,0,0,0,.629-1.233Z" transform="translate(-356.882 -85.366)"/>
                  <path id="Trazado_968658" data-name="Trazado 968658" d="M363.493,99.151a4.467,4.467,0,0,0,3.1.879c.305-.028.33.446.026.475a4.96,4.96,0,0,1-3.447-1C362.932,99.319,363.251,98.966,363.493,99.151Z" transform="translate(-358.591 -89.064)" fill="#573322"/>
                  <g id="Grupo_1118601" data-name="Grupo 1118601" transform="translate(1.755 4.01)">
                    <g id="Grupo_1118599" data-name="Grupo 1118599" transform="translate(0 0.226)">
                      <path id="Trazado_968659" data-name="Trazado 968659" d="M359.3,92.181a1.121,1.121,0,1,0,1.158-1.083A1.121,1.121,0,0,0,359.3,92.181Z" transform="translate(-359.303 -91.097)"/>
                      <path id="Trazado_968660" data-name="Trazado 968660" d="M360.957,92.033a.327.327,0,1,0,.338-.316A.328.328,0,0,0,360.957,92.033Z" transform="translate(-359.758 -91.268)" fill="#fff"/>
                    </g>
                    <g id="Grupo_1118600" data-name="Grupo 1118600" transform="translate(8.179)">
                      <path id="Trazado_968661" data-name="Trazado 968661" d="M370.591,91.869a1.121,1.121,0,1,0,1.158-1.083A1.122,1.122,0,0,0,370.591,91.869Z" transform="translate(-370.59 -90.785)"/>
                      <path id="Trazado_968662" data-name="Trazado 968662" d="M372.245,91.721a.327.327,0,1,0,.338-.316A.328.328,0,0,0,372.245,91.721Z" transform="translate(-371.046 -90.956)" fill="#fff"/>
                    </g>
                  </g>
                </g>
              </g>
              <g id="Grupo_1118604" data-name="Grupo 1118604" transform="translate(3.415 25.985)">
                <path id="Trazado_968663" data-name="Trazado 968663" d="M337.768,96.715c1.438,1.612,3.641,1.994,4.921.854s1.152-3.373-.286-4.986-3.641-1.994-4.921-.854S336.331,95.1,337.768,96.715Z" transform="translate(-336.601 -91.072)" fill="#754933"/>
                <path id="Trazado_968664" data-name="Trazado 968664" d="M338.782,92.963a2.4,2.4,0,0,1,2.1-.023,1.96,1.96,0,0,1,.823.6,1.193,1.193,0,0,1,.205,1.091,1.7,1.7,0,0,1-.557.7,1.63,1.63,0,0,0-.376.4.61.61,0,0,0,.809.837.272.272,0,0,1,.242.486,1.131,1.131,0,0,1-.47.116,1.147,1.147,0,0,1-1.058-1.7,2.07,2.07,0,0,1,.5-.554,1.259,1.259,0,0,0,.4-.468.655.655,0,0,0-.126-.586.547.547,0,0,0-.98.088.971.971,0,0,0-.212.8.271.271,0,0,1-.215.318.3.3,0,0,1-.044.005.271.271,0,0,1-.274-.219,1.5,1.5,0,0,1,.333-1.259,1.226,1.226,0,0,1,.4-.289,1.707,1.707,0,0,0-1.232.122,1.05,1.05,0,0,0-.488,1.29.271.271,0,0,1-.486.242A1.591,1.591,0,0,1,338.782,92.963Z" transform="translate(-336.97 -91.523)" fill="#573322"/>
              </g>
            </g>
          </g>
        </g>
        <g id="Grupo_1118645" data-name="Grupo 1118645" transform="translate(124.557 -36.301)">
          <path id="Trazado_968665" data-name="Trazado 968665" d="M276.107,76.938a17.775,17.775,0,0,0-6.543,6.033,13.961,13.961,0,0,0-1,1.965c-.894,2.173-.813,4.645-2.007,6.7-1.083,1.864-3.048,3.039-4.671,4.484s-3.017,3.569-2.391,5.627c.6,1.976,2.857,3.152,3.448,5.131.74,2.476-1.415,4.838-3.562,6.335s-4.687,3.012-5.233,5.532a5.8,5.8,0,0,0,1.715,5.066,14.16,14.16,0,0,0,4.753,2.981,45.7,45.7,0,0,0,35.589,0c2.874-1.239,5.887-3.131,6.523-6.134.616-2.909-1.22-5.722-2.913-8.2s-3.4-5.426-2.505-8.266c.689-2.2,2.831-3.834,3.136-6.112.43-3.218-2.691-5.639-3.443-8.585-.507-1.989.035-4.075.122-6.081a8.3,8.3,0,0,0-4.96-8.121C287.274,73.21,281.035,74.18,276.107,76.938Z" transform="translate(-237.038 -74.17)" fill="#421f09"/>
          <g id="Grupo_1118610" data-name="Grupo 1118610" transform="translate(0.001 108.626)">
            <g id="Grupo_1118608" data-name="Grupo 1118608" transform="translate(0 139.259)">
              <path id="Trazado_968666" data-name="Trazado 968666" d="M268.6,426.752l-.037.246c-.038.365-.082.715-.149,1.095-.075.313-.134.655-.2,1.005l-37.574-.009a7.264,7.264,0,0,1-.059-1,9.986,9.986,0,0,1,.1-1.1,1.662,1.662,0,0,1,.052-.246c.41-2.115,1.952-5.034,7.084-5.971a7.607,7.607,0,0,1,.789-.126h.022c.4-.059.8-.1,1.236-.133.141-.007.283-.023.425-.03,10.278-.8,14.83-4.25,14.83-4.25a32.646,32.646,0,0,0,11.544,0,14.6,14.6,0,0,1,1.236,2.979c.089.32.186.663.275,1.027.022.067.037.141.059.224.037.141.067.305.1.469a1.072,1.072,0,0,1,.022.149c0,.038.022.052.022.082a18.218,18.218,0,0,1,.305,2.539A19.479,19.479,0,0,1,268.6,426.752Z" transform="translate(-230.576 -416.233)" fill="#ff9620"/>
              <path id="Trazado_968667" data-name="Trazado 968667" d="M259.225,416.577a.677.677,0,0,1,.475-.2.781.781,0,0,1,.475.2l.311.244q.744.573,1.512,1.112a.721.721,0,0,1,.309.4.686.686,0,0,1-.067.517.679.679,0,0,1-.919.241q-1.072-.75-2.094-1.566a.673.673,0,0,1-.2-.475A.684.684,0,0,1,259.225,416.577Z" transform="translate(-238.408 -416.273)" fill="#fff"/>
              <path id="Trazado_968668" data-name="Trazado 968668" d="M255.555,418.228a.68.68,0,0,1,.949,0,11.4,11.4,0,0,0,1.634,1.556c.1.072.191.144.288.212a.724.724,0,0,1,.309.4.671.671,0,0,1-.986.758,12.063,12.063,0,0,1-2.194-1.978.709.709,0,0,1-.2-.475A.68.68,0,0,1,255.555,418.228Z" transform="translate(-237.398 -416.729)" fill="#fff"/>
              <path id="Trazado_968669" data-name="Trazado 968669" d="M252.18,419.423a.674.674,0,0,1,.475-.2.646.646,0,0,1,.475.2l1.523,1.959a.734.734,0,0,1,.2.475.681.681,0,0,1-.2.475.674.674,0,0,1-.475.2.645.645,0,0,1-.475-.2l-1.523-1.959a.734.734,0,0,1-.2-.475A.689.689,0,0,1,252.18,419.423Z" transform="translate(-236.468 -417.057)" fill="#fff"/>
              <path id="Trazado_968670" data-name="Trazado 968670" d="M248.388,420.339a.682.682,0,0,1,.921.246l.994,1.7a.672.672,0,1,1-1.141.707l-.994-1.7A.681.681,0,0,1,248.388,420.339Z" transform="translate(-235.388 -417.34)" fill="#fff"/>
              <path id="Trazado_968671" data-name="Trazado 968671" d="M268.566,431.091c-.043.354-.087.716-.159,1.085-.065.325-.123.665-.2,1.012l-37.565-.009a6.57,6.57,0,0,1-.065-1,8.371,8.371,0,0,1,.109-1.1Z" transform="translate(-230.574 -420.321)" fill="#ffd453"/>
            </g>
            <g id="Grupo_1118609" data-name="Grupo 1118609" transform="translate(61.629 139.259)">
              <path id="Trazado_968672" data-name="Trazado 968672" d="M315.726,426.752l.037.246c.038.365.082.715.149,1.095.075.313.134.655.2,1.005l37.574-.009a7.264,7.264,0,0,0,.059-1,9.987,9.987,0,0,0-.1-1.1,1.656,1.656,0,0,0-.052-.246c-.41-2.115-1.952-5.034-7.084-5.971a7.607,7.607,0,0,0-.789-.126h-.023c-.4-.059-.8-.1-1.236-.133-.141-.007-.283-.023-.425-.03-10.278-.8-14.83-4.25-14.83-4.25a32.645,32.645,0,0,1-11.544,0,14.6,14.6,0,0,0-1.236,2.979c-.089.32-.186.663-.275,1.027-.022.067-.037.141-.059.224-.038.141-.067.305-.1.469a1.062,1.062,0,0,0-.022.149c0,.038-.022.052-.022.082a18.213,18.213,0,0,0-.305,2.539A19.476,19.476,0,0,0,315.726,426.752Z" transform="translate(-315.618 -416.233)" fill="#ff9620"/>
              <path id="Trazado_968673" data-name="Trazado 968673" d="M338.334,416.577a.676.676,0,0,0-.475-.2.781.781,0,0,0-.475.2l-.311.244q-.743.573-1.512,1.112a.721.721,0,0,0-.309.4.672.672,0,0,0,.987.758q1.072-.75,2.094-1.566a.673.673,0,0,0,.2-.475A.687.687,0,0,0,338.334,416.577Z" transform="translate(-321.018 -416.273)" fill="#fff"/>
              <path id="Trazado_968674" data-name="Trazado 968674" d="M341.967,418.228a.681.681,0,0,0-.95,0,11.409,11.409,0,0,1-1.634,1.556c-.1.072-.191.144-.288.212a.725.725,0,0,0-.309.4.686.686,0,0,0,.067.517.679.679,0,0,0,.919.241,12.056,12.056,0,0,0,2.194-1.978.71.71,0,0,0,.2-.475A.683.683,0,0,0,341.967,418.228Z" transform="translate(-321.99 -416.729)" fill="#fff"/>
              <path id="Trazado_968675" data-name="Trazado 968675" d="M345.544,419.423a.674.674,0,0,0-.475-.2.646.646,0,0,0-.475.2l-1.523,1.959a.734.734,0,0,0-.2.475.682.682,0,0,0,.2.475.674.674,0,0,0,.475.2.644.644,0,0,0,.475-.2l1.523-1.959a.734.734,0,0,0,.2-.475A.689.689,0,0,0,345.544,419.423Z" transform="translate(-323.123 -417.057)" fill="#fff"/>
              <path id="Trazado_968676" data-name="Trazado 968676" d="M349.531,420.339a.683.683,0,0,0-.922.246l-.994,1.7a.672.672,0,1,0,1.141.707l.994-1.7A.68.68,0,0,0,349.531,420.339Z" transform="translate(-324.398 -417.34)" fill="#fff"/>
              <path id="Trazado_968677" data-name="Trazado 968677" d="M315.812,431.091c.043.354.087.716.159,1.085.065.325.123.665.2,1.012l37.565-.009a6.567,6.567,0,0,0,.065-1,8.382,8.382,0,0,0-.109-1.1Z" transform="translate(-315.671 -420.321)" fill="#ffd453"/>
            </g>
            <path id="Trazado_968678" data-name="Trazado 968678" d="M283.441,224.45l-9.714,138.981c-5.566,2.043-11.54,0-11.54,0s-8.724-99.176-5.044-138.707Z" transform="translate(-237.64 -224.172)" fill="#eba37d"/>
            <path id="Trazado_968679" data-name="Trazado 968679" d="M320.967,363.328s-6.2,1.48-11.548,0c-9.6-49.82-23.73-139.059-23.73-139.059l25.062-.191C316.732,261.071,320.967,363.328,320.967,363.328Z" transform="translate(-245.748 -224.07)" fill="#eba37d"/>
            <path id="Trazado_968680" data-name="Trazado 968680" d="M312.368,291.765c-11.2,8.611-61.476.777-61.476.777s.036-1.391.11-3.782c0-.091.006-.185.009-.279q.025-.75.05-1.617c.006-.091.008-.183.011-.277.5-15.144,2.043-54.512,4.882-62.521l45.215.009,10.154,61.368.047.293.243,1.462.047.3Z" transform="translate(-236.168 -224.066)" fill="#ffd453"/>
            <path id="Trazado_968681" data-name="Trazado 968681" d="M311.7,311.48a28.843,28.843,0,0,1-8.1,2.629,96.657,96.657,0,0,1-12.606,1.263q-6.929.365-13.867.16t-13.836-.97q-6.154-.681-12.246-1.816c0-.091.006-.185.009-.279.127.025.251.05.379.072q6.775,1.245,13.631,1.935,6.8.684,13.654.821t13.673-.276a82.2,82.2,0,0,0,12.291-1.407,27.045,27.045,0,0,0,6.975-2.427Z" transform="translate(-236.21 -248.052)" fill="#ff9620"/>
            <path id="Trazado_968682" data-name="Trazado 968682" d="M311.434,309.054a29.225,29.225,0,0,1-7.812,2.483,97.172,97.172,0,0,1-12.606,1.263q-6.929.365-13.867.16t-13.836-.97q-6.124-.684-12.188-1.808c.006-.091.008-.183.011-.277.105.023.213.041.318.061q6.775,1.244,13.631,1.935,6.8.684,13.654.821t13.673-.277a82.568,82.568,0,0,0,12.29-1.407,27.7,27.7,0,0,0,6.684-2.278Z" transform="translate(-236.232 -247.384)" fill="#ff9620"/>
          </g>
          <g id="Grupo_1118636" data-name="Grupo 1118636" transform="translate(12.724 26.481)">
            <path id="Trazado_968683" data-name="Trazado 968683" d="M332.131,127.225c.223-1.3-4.782-6.926-3.684-8.093,1-1.067,3.663.771,4.128,2.369.5-2.036.055-10.488,1.813-10.342,1.3.108.917,6.5.917,6.5s1.254-7.361,2.907-6.925-.532,7.759-.532,7.759,2.22-6.1,3.477-5.532c1.236.559-1.584,6.7-1.584,6.7s2.94-4.5,3.619-4.13-.475,3.525-2.049,5.652a11.008,11.008,0,0,1-2.537,7.574Z" transform="translate(-270.201 -110.712)" fill="#ebbda4"/>
            <path id="Trazado_968684" data-name="Trazado 968684" d="M306.45,133.643c6.05,2.379,10.072,25.318,10.072,25.318l7.693-26.821s6.847.222,9.388,1.946c0,0-5.5,26.221-6.423,29.865-2.823,11.1-15.06,10.829-19.258,4.257C300.468,156.534,306.45,133.643,306.45,133.643Z" transform="translate(-263.563 -116.612)" fill="#fff"/>
            <g id="Grupo_1118632" data-name="Grupo 1118632" transform="translate(6.78 14.348)">
              <g id="Grupo_1118631" data-name="Grupo 1118631">
                <g id="Grupo_1118630" data-name="Grupo 1118630">
                  <g id="Grupo_1118629" data-name="Grupo 1118629">
                    <g id="Grupo_1118628" data-name="Grupo 1118628">
                      <g id="Grupo_1118627" data-name="Grupo 1118627">
                        <g id="Grupo_1118626" data-name="Grupo 1118626">
                          <g id="Grupo_1118625" data-name="Grupo 1118625">
                            <g id="Grupo_1118624" data-name="Grupo 1118624">
                              <g id="Grupo_1118623" data-name="Grupo 1118623">
                                <g id="Grupo_1118622" data-name="Grupo 1118622">
                                  <g id="Grupo_1118621" data-name="Grupo 1118621">
                                    <g id="Grupo_1118620" data-name="Grupo 1118620">
                                      <g id="Grupo_1118619" data-name="Grupo 1118619">
                                        <g id="Grupo_1118618" data-name="Grupo 1118618">
                                          <g id="Grupo_1118617" data-name="Grupo 1118617">
                                            <g id="Grupo_1118616" data-name="Grupo 1118616">
                                              <g id="Grupo_1118615" data-name="Grupo 1118615">
                                                <g id="Grupo_1118614" data-name="Grupo 1118614">
                                                  <g id="Grupo_1118613" data-name="Grupo 1118613">
                                                    <g id="Grupo_1118612" data-name="Grupo 1118612">
                                                      <g id="Grupo_1118611" data-name="Grupo 1118611">
                                                        <path id="Trazado_968685" data-name="Trazado 968685" d="M257.488,198.86c28.55,6.384,45.5-.545,45.5-.545-1.083-3.331-7.449-33.9-7.449-33.9,6.4-2.178,7.116-13.321.022-20.044L293.6,133.195l-7.316-2.617-9.585-.066L267,133.638l-.991,47.155Z" transform="translate(-257.488 -130.512)" fill="#ff9620"/>
                                                      </g>
                                                    </g>
                                                  </g>
                                                </g>
                                              </g>
                                            </g>
                                          </g>
                                        </g>
                                      </g>
                                    </g>
                                  </g>
                                </g>
                              </g>
                            </g>
                          </g>
                        </g>
                      </g>
                    </g>
                  </g>
                </g>
              </g>
            </g>
            <g id="Grupo_1118633" data-name="Grupo 1118633" transform="translate(0 14.874)">
              <path id="Trazado_968686" data-name="Trazado 968686" d="M272.488,131.237l5.172,41.675-2.312,47.559H248.132l12.436-40.191,3.856-46.443Z" transform="translate(-248.132 -131.237)" fill="#fff"/>
              <path id="Trazado_968687" data-name="Trazado 968687" d="M279.593,131.237l-5.658,8.742,4.734,3.905-2.745,5.894,8.285,18.659Z" transform="translate(-255.236 -131.237)" fill="#befcf3"/>
            </g>
            <g id="Grupo_1118634" data-name="Grupo 1118634" transform="translate(36.856 14.874)">
              <path id="Trazado_968688" data-name="Trazado 968688" d="M298.991,131.237l3.062,41.159,5.349,48.074h12.525l-12.349-55.663c6.336-3.905,7-11.862,0-20.556l-2.556-10.858Z" transform="translate(-298.991 -131.237)" fill="#fff"/>
              <path id="Trazado_968689" data-name="Trazado 968689" d="M313.418,150.7a28.169,28.169,0,0,0-2.979-4.355l-.815-7.876c-.018-.175-.295-.177-.277,0l.824,7.96a.136.136,0,0,0,.069.107,22.037,22.037,0,0,1,4.439,8,11.467,11.467,0,0,1-.8,8.61,8.508,8.508,0,0,1-3.052,3.18.138.138,0,0,0,.14.238,9.448,9.448,0,0,0,4.326-6.675A14.706,14.706,0,0,0,313.418,150.7Z" transform="translate(-301.842 -133.192)" fill="#befcf3"/>
              <path id="Trazado_968690" data-name="Trazado 968690" d="M301.6,144.013l3.313-4.468-5.924-8.308,2.783,37.421,3.7-19.175Z" transform="translate(-298.991 -131.237)" fill="#befcf3"/>
            </g>
            <g id="Grupo_1118635" data-name="Grupo 1118635" transform="translate(21.941 26.486)">
              <rect id="Rectángulo_416655" data-name="Rectángulo 416655" width="26.303" height="36.695" transform="translate(26.279 39.744) rotate(-177.599)" fill="#26645f"/>
              <path id="Trazado_968691" data-name="Trazado 968691" d="M292.781,148.65c.525-.867,1.991-1.455,3.712-1.383s3.132.781,3.583,1.689l2.26.095-.119,2.836-11.814-.5.119-2.836Z" transform="translate(-281.711 -147.262)" fill="#154340"/>
            </g>
            <path id="Trazado_968692" data-name="Trazado 968692" d="M309.5,161.155a7.921,7.921,0,0,0,3.866-2.931c2.47.795,4.878,12.235-.563,13.419-2.3.467-3.934-.141-4.95.3l-2.767-7.5C305.425,162.654,307.066,160.589,309.5,161.155Z" transform="translate(-263.813 -123.793)" fill="#eba37d"/>
            <path id="Trazado_968693" data-name="Trazado 968693" d="M266.338,134.825c-4.518,1.583-10.087,28.728-11.055,33.917-1.1,5.87,2.433,11.187,7.563,11.234S294.875,165.6,294.875,165.6s-1.128-5.173-3.9-8.327L267.88,165.5l2.918-12.184Z" transform="translate(-250.046 -117.351)" fill="#fff"/>
            <path id="Trazado_968694" data-name="Trazado 968694" d="M281.517,169.114a103.618,103.618,0,0,1-9.906,3.422l2.32-9.044.661-2.578a.138.138,0,0,0-.267-.074l-2.344,9.138-.661,2.578a.136.136,0,0,0,0,.064q-1.372.392-2.754.749a.138.138,0,0,0,.073.267,103.689,103.689,0,0,0,10.159-3.175q1.4-.52,2.793-1.08C281.754,169.315,281.682,169.048,281.517,169.114Z" transform="translate(-253.73 -124.487)" fill="#befcf3"/>
            <path id="Trazado_968695" data-name="Trazado 968695" d="M280.909,188.62l-6.131,2.792a60.97,60.97,0,0,1-5.922,2.537,13.273,13.273,0,0,1-3.417.7c-.177.01-.179.287,0,.276a17.632,17.632,0,0,0,6.012-1.7c2.043-.9,4.065-1.844,6.095-2.768l3.5-1.6C281.209,188.786,281.069,188.547,280.909,188.62Z" transform="translate(-252.86 -132.158)" fill="#befcf3"/>
          </g>
          <g id="Grupo_1118644" data-name="Grupo 1118644" transform="translate(29.229 2.234)">
            <g id="Grupo_1118643" data-name="Grupo 1118643">
              <path id="Trazado_968696" data-name="Trazado 968696" d="M302.167,98.89c0,.067-.013.133-.017.2s-.013.145-.022.224a11.881,11.881,0,0,1-3.613,7.872,31.279,31.279,0,0,1-2.755,2.281c-.264.2-.51.392-.75.581-.188.146-.363.3-.543.454-1.83,1.554-2.858,3.26-2.6,8.142a5.471,5.471,0,0,1-10.071.545A48.658,48.658,0,0,0,278.991,105c-.3-.845-.581-1.563-.825-2.139-.462-1.1-.785-1.707-.785-1.707s-.422-13,1.262-16.552c4.106-8.564,20.239-6.582,21.837-.019C302.014,90.853,302.469,95.439,302.167,98.89Z" transform="translate(-272.677 -77.706)" fill="#eba37d"/>
              <path id="Trazado_968697" data-name="Trazado 968697" d="M301.475,91.508a22.649,22.649,0,0,0-7.224-8.361A20.455,20.455,0,0,1,283.2,90.6a10.408,10.408,0,0,1-6.248,8.148,3.323,3.323,0,0,1-2.587-2.183,9.122,9.122,0,0,1-.426-3.414,23.269,23.269,0,0,1,.5-5.7,13.21,13.21,0,0,1,5.669-7.661,16.7,16.7,0,0,1,9.276-2.53A14.837,14.837,0,0,1,296,78.8a10.221,10.221,0,0,1,4.689,4.826C301.791,86.126,301.621,88.78,301.475,91.508Z" transform="translate(-271.741 -77.253)" fill="#421f09"/>
              <g id="Grupo_1118637" data-name="Grupo 1118637" transform="translate(0 18.32)">
                <path id="Trazado_968698" data-name="Trazado 968698" d="M272.128,108.148c1.458,1.56,3.644,1.887,4.883.73s1.061-3.36-.4-4.921-3.644-1.888-4.883-.73S270.671,106.587,272.128,108.148Z" transform="translate(-270.907 -102.533)" fill="#eba37d"/>
                <path id="Trazado_968699" data-name="Trazado 968699" d="M273.035,104.423a2.367,2.367,0,0,1,2.079-.071,1.929,1.929,0,0,1,.828.575,1.179,1.179,0,0,1,.228,1.074,1.674,1.674,0,0,1-.534.7,1.6,1.6,0,0,0-.362.407.6.6,0,0,0,.819.808.268.268,0,0,1,.251.474,1.112,1.112,0,0,1-.461.125,1.134,1.134,0,0,1-1.086-1.653,2.025,2.025,0,0,1,.479-.559,1.236,1.236,0,0,0,.384-.472.648.648,0,0,0-.138-.576,1.112,1.112,0,0,0-.214-.194,1.1,1.1,0,0,0-.753.3.96.96,0,0,0-.191.8.268.268,0,0,1-.2.32.224.224,0,0,1-.043.006.268.268,0,0,1-.275-.21,1.482,1.482,0,0,1,.3-1.252,1.207,1.207,0,0,1,.386-.295,1.689,1.689,0,0,0-1.215.149,1.037,1.037,0,0,0-.452,1.286.268.268,0,1,1-.474.251A1.567,1.567,0,0,1,273.035,104.423Z" transform="translate(-271.274 -102.978)" fill="#c16b5b"/>
              </g>
              <g id="Grupo_1118642" data-name="Grupo 1118642" transform="translate(14.845 13.543)">
                <g id="Grupo_1118641" data-name="Grupo 1118641">
                  <path id="Trazado_968700" data-name="Trazado 968700" d="M301.39,105a1.845,1.845,0,0,1,.733-.2,1.046,1.046,0,0,1,.676.155.838.838,0,0,1,.329.629,1.531,1.531,0,0,1-.146.69.248.248,0,0,1-.3.172.244.244,0,0,1-.172-.295,1.341,1.341,0,0,0,.133-.505.432.432,0,0,0-.078-.252l.009.014a.322.322,0,0,0-.227-.12l-.023,0-.054,0a1.385,1.385,0,0,0-.145,0l-.073.007h-.018l-.015,0a2.666,2.666,0,0,0-.42.139.241.241,0,0,1-.295-.1A.244.244,0,0,1,301.39,105Z" transform="translate(-294.114 -98.377)" fill="#c16b5b"/>
                  <path id="Trazado_968701" data-name="Trazado 968701" d="M307.093,96.492a4.39,4.39,0,0,0-4.1-.081.692.692,0,0,0-.313.912.729.729,0,0,0,1.041.249,3.332,3.332,0,0,1,1.107-.286c0-.021-.033.015-.012.014a3.044,3.044,0,0,1,1.418.273l.1.044a.681.681,0,0,0,.765-1.127Z" transform="translate(-294.48 -95.942)"/>
                  <path id="Trazado_968702" data-name="Trazado 968702" d="M295.781,96.662a4.389,4.389,0,0,0-4.079.427.682.682,0,0,0,.747,1.142c.121-.083.246-.155.374-.227l.018-.009.07-.031q.075-.033.152-.061a3.654,3.654,0,0,1,.417-.129c.035-.009.263-.077.088-.022a1.111,1.111,0,0,1,.19-.027,3.676,3.676,0,0,1,.409-.025c.073,0,.146,0,.219.005h.016l.046.006a3.6,3.6,0,0,1,.4.072c.071.017.141.036.211.058l.083.027.009,0h.006l.007,0h0a.681.681,0,0,0,.62-1.212Z" transform="translate(-291.393 -96.054)"/>
                  <path id="Trazado_968703" data-name="Trazado 968703" d="M297.9,109.618a4.4,4.4,0,0,0,3.055.865c.3-.028.325.439.025.467a4.884,4.884,0,0,1-3.392-.983C297.348,109.784,297.661,109.437,297.9,109.618Z" transform="translate(-293.075 -99.693)" fill="#8e4136"/>
                  <g id="Grupo_1118640" data-name="Grupo 1118640" transform="translate(1.727 3.945)">
                    <g id="Grupo_1118638" data-name="Grupo 1118638" transform="translate(0 0.222)">
                      <path id="Trazado_968704" data-name="Trazado 968704" d="M293.777,102.76a1.1,1.1,0,1,0,1.139-1.066A1.1,1.1,0,0,0,293.777,102.76Z" transform="translate(-293.776 -101.693)"/>
                      <path id="Trazado_968705" data-name="Trazado 968705" d="M295.4,102.614a.322.322,0,1,0,.332-.311A.322.322,0,0,0,295.4,102.614Z" transform="translate(-294.224 -101.861)" fill="#fff"/>
                    </g>
                    <g id="Grupo_1118639" data-name="Grupo 1118639" transform="translate(8.049)">
                      <path id="Trazado_968706" data-name="Trazado 968706" d="M304.884,102.453a1.1,1.1,0,1,0,1.139-1.066A1.1,1.1,0,0,0,304.884,102.453Z" transform="translate(-304.883 -101.386)"/>
                      <path id="Trazado_968707" data-name="Trazado 968707" d="M306.511,102.307a.322.322,0,1,0,.332-.311A.322.322,0,0,0,306.511,102.307Z" transform="translate(-305.331 -101.554)" fill="#fff"/>
                    </g>
                  </g>
                </g>
              </g>
            </g>
          </g>
        </g>
      </g>
    </g>
  </g>
</svg>
