<svg xmlns="http://www.w3.org/2000/svg" width="40" height="32.6" viewBox="0 0 40 32.6">
  <g id="Grupo_1119457" data-name="Grupo 1119457" transform="translate(0 -47.362)">
    <path id="Trazado_971149" data-name="Trazado 971149" d="M61.186,101.9a.752.752,0,0,0,.752-.752V74.114a.752.752,0,0,0-.752-.752H26.752a.752.752,0,0,0-.752.752v27.034a.752.752,0,0,0,.752.752H61.186Zm-.42-1.172H50.429L43.41,89.8l3.718-3.309h7.5a.586.586,0,0,0,0-1.172h-.457V81.239a1.778,1.778,0,0,0,1.01-1.6v-.313l5.382-4.79h.2ZM46.878,79.637a.6.6,0,0,1-1.207,0V77.73h1.207v1.907Zm-.2,1.728a1.773,1.773,0,0,0,.783-.411,1.772,1.772,0,0,0,2.379,0,1.772,1.772,0,0,0,2.379,0,1.772,1.772,0,0,0,.782.411v3.958H51.993V83.492a.939.939,0,0,0-.938-.938H48.631a.939.939,0,0,0-.938.938v1.831H46.682V81.365Zm2.575-1.728a.6.6,0,0,1-1.207,0V77.73h1.207v1.907Zm4.757,0a.6.6,0,0,1-1.207,0V77.73h1.207v1.907ZM51.635,77.73v1.907a.6.6,0,0,1-.6.6h0a.6.6,0,0,1-.6-.6V77.73Zm-.815,7.593H48.865v-1.6h1.956ZM58.8,74.534l-3.619,3.221v-.089a1.109,1.109,0,0,0-1.107-1.107h-.486l2.275-2.025Zm-26.6,0L34.11,77.5a.586.586,0,0,0,.986-.634l-1.5-2.332H54.1l-2.275,2.025H45.607A1.109,1.109,0,0,0,44.5,77.666v1.971a1.777,1.777,0,0,0,1.01,1.6v.944l-4.451,3.962-4.736-7.37a.586.586,0,0,0-.986.634l5.107,7.946a.586.586,0,0,0,.882.121l4.184-3.724v1.572h-.457a.586.586,0,0,0,0,1.172h.312l-3.108,2.766a.586.586,0,0,0-.1.754l6.883,10.711H46.715L29.882,74.534Zm-5.032,0h1.318l16.832,26.193H27.172Z" transform="translate(-23.969 -23.969)" fill="#0042db"/>
    <path id="Trazado_971150" data-name="Trazado 971150" d="M59.384,298.662h-.457v-4.084a1.778,1.778,0,0,0,1.01-1.6V291A1.109,1.109,0,0,0,58.83,289.9H50.359A1.109,1.109,0,0,0,49.252,291v1.971a1.778,1.778,0,0,0,1.01,1.6v4.084H49.8a.586.586,0,1,0,0,1.172h9.579a.586.586,0,0,0,0-1.172Zm-.619-5.686a.6.6,0,0,1-1.207,0v-1.907h1.207v1.907Zm-2.379,0a.6.6,0,1,1-1.207,0v-1.907h1.207v1.907Zm-2.379,0a.6.6,0,1,1-1.207,0v-1.907h1.207v1.907Zm-3.585-1.907H51.63v1.907a.6.6,0,1,1-1.207,0v-1.907Zm3.193,7.593v-1.6h1.956v1.6Zm3.128,0V296.83a.939.939,0,0,0-.938-.938H53.383a.939.939,0,0,0-.938.938v1.831H51.433V294.7a1.773,1.773,0,0,0,.782-.411,1.772,1.772,0,0,0,2.379,0,1.772,1.772,0,0,0,2.379,0,1.773,1.773,0,0,0,.783.411v3.958Z" transform="translate(-45.374 -223.587)" fill="#0042db"/>
    <path id="Trazado_971151" data-name="Trazado 971151" d="M335.836,267.132h-.457v-.9a.586.586,0,0,0-1.172,0v.9H333.2V265.3a.939.939,0,0,0-.938-.938h-2.423a.939.939,0,0,0-.938.938v1.831h-1.011v-3.958a1.311,1.311,0,0,1,1.972.047,1.772,1.772,0,0,1,2.379,0,1.311,1.311,0,0,1,1.972-.047v.792a.586.586,0,0,0,1.172,0v-.918a1.778,1.778,0,0,0,1.01-1.6v-1.971a1.109,1.109,0,0,0-1.107-1.107h-8.471a1.109,1.109,0,0,0-1.107,1.107v1.971a1.777,1.777,0,0,0,1.01,1.6v4.084h-.457a.586.586,0,0,0,0,1.172h9.579a.586.586,0,0,0,0-1.172Zm-.618-5.686a.6.6,0,0,1-1.207,0V259.54h1.207v1.907Zm-2.378,0a.6.6,0,0,1-1.207,0V259.54h1.207v1.907Zm-2.378,0a.6.6,0,0,1-1.207,0V259.54h1.207v1.907Zm-3.585-1.907h1.207v1.907a.6.6,0,0,1-1.207,0V259.54Zm3.193,7.593v-1.6h1.956v1.6Z" transform="translate(-300.228 -194.521)" fill="#0042db"/>
    <path id="Trazado_971152" data-name="Trazado 971152" d="M38.563,47.362H1.437A1.438,1.438,0,0,0,0,48.8V78.525a1.438,1.438,0,0,0,1.437,1.437H9.009a.586.586,0,1,0,0-1.172H1.437a.265.265,0,0,1-.265-.265V48.8a.265.265,0,0,1,.265-.265H38.563a.265.265,0,0,1,.265.265V78.525a.265.265,0,0,1-.265.265H11.274a.586.586,0,1,0,0,1.172H38.563A1.438,1.438,0,0,0,40,78.525V48.8A1.439,1.439,0,0,0,38.563,47.362Z" fill="#0042db"/>
    <path id="Trazado_971153" data-name="Trazado 971153" d="M165.7,104.625a.586.586,0,0,0,1.009-.6l-.527-.893a.586.586,0,1,0-1.009.6Z" transform="translate(-152.191 -51.151)" fill="#0042db"/>
    <path id="Trazado_971154" data-name="Trazado 971154" d="M65.465,151.6a.586.586,0,0,0,1.009-.6l-.527-.893a.586.586,0,0,0-1.009.6Z" transform="translate(-59.791 -94.453)" fill="#0042db"/>
    <path id="Trazado_971155" data-name="Trazado 971155" d="M103.938,216.809a.586.586,0,1,0,1.009-.6l-.527-.893a.586.586,0,0,0-1.009.6Z" transform="translate(-95.257 -154.571)" fill="#0042db"/>
    <path id="Trazado_971156" data-name="Trazado 971156" d="M202.539,168.315a.586.586,0,0,0,1.009-.6l-.527-.893a.586.586,0,1,0-1.009.6Z" transform="translate(-186.155 -109.865)" fill="#0042db"/>
  </g>
</svg>
