<svg xmlns="http://www.w3.org/2000/svg" width="40" height="40.13" viewBox="0 0 40 40.13">
  <g id="Grupo_1119459" data-name="Grupo 1119459" transform="translate(-0.83)">
    <path id="Trazado_971158" data-name="Trazado 971158" d="M40.085,14.875l-4.816-4.817a2.545,2.545,0,1,0-3.6,3.6l.576.576a15.7,15.7,0,0,0-8.871,4.061V8.685l.475.476a2.545,2.545,0,1,0,3.6-3.6L22.634.744a2.557,2.557,0,0,0-3.607,0l-4.81,4.81a2.462,2.462,0,0,0-.542,2.768A2.47,2.47,0,0,0,16.02,9.906a2.531,2.531,0,0,0,1.789-.745l.475-.476v2.427a.588.588,0,1,0,1.176,0V7.265a.588.588,0,0,0-1-.416L16.979,8.329a1.363,1.363,0,0,1-.969.4h-.021a1.3,1.3,0,0,1-1.228-.859,1.29,1.29,0,0,1,.265-1.465l.015-.014,4.82-4.82.008-.008a1.383,1.383,0,0,1,1.921,0l.008.008,4.819,4.82A1.369,1.369,0,0,1,24.682,8.33L23.2,6.85a.588.588,0,0,0-1,.416V23.9a15.707,15.707,0,0,0-2.739-4.4V13.864a.588.588,0,0,0-1.176,0V18.3a15.634,15.634,0,0,0-8.871-4.062l.576-.576a2.545,2.545,0,0,0-3.6-3.6L1.574,14.875a2.556,2.556,0,0,0,0,3.607L6.391,23.3l.007.007a2.475,2.475,0,0,0,3.572-.026A2.475,2.475,0,0,0,10,19.706L9.99,19.7l-.27-.27a10.674,10.674,0,0,1,8.565,10.446h0v7.709a2.545,2.545,0,0,0,5.09,0V29.876A10.674,10.674,0,0,1,31.94,19.429l-.27.27-.007.007a2.545,2.545,0,0,0,3.6,3.6.588.588,0,1,0-.817-.845A1.369,1.369,0,0,1,32.5,20.527l1.465-1.465a.588.588,0,0,0-.44-1,11.87,11.87,0,0,0-10.155,6.675V19.953a14.525,14.525,0,0,1,10.215-4.636.588.588,0,0,0,.4-1L32.5,12.826a1.369,1.369,0,0,1,1.936-1.936l4.82,4.82.008.008a1.38,1.38,0,0,1,0,1.92l-.008.008-2.871,2.872a.588.588,0,0,0,.831.831l2.867-2.868a2.555,2.555,0,0,0,0-3.607ZM8.13,18.059H8.106a.588.588,0,0,0-.416,1l1.465,1.465a1.3,1.3,0,0,1-.016,1.921,1.3,1.3,0,0,1-1.92.016L2.4,17.646l-.008-.008a1.382,1.382,0,0,1,0-1.92L2.4,15.71l4.82-4.82a1.369,1.369,0,1,1,1.936,1.936L7.672,14.313a.588.588,0,0,0,.4,1A14.585,14.585,0,0,1,22.2,29.876v7.709a1.369,1.369,0,1,1-2.738,0V29.876A11.842,11.842,0,0,0,8.13,18.059Z" fill="#0042db"/>
    <path id="Trazado_971159" data-name="Trazado 971159" d="M61,360.854a3.827,3.827,0,1,0,3.827,3.827A3.831,3.831,0,0,0,61,360.854Zm0,6.478a2.651,2.651,0,1,1,2.651-2.651A2.654,2.654,0,0,1,61,367.332Z" transform="translate(-51.923 -332.571)" fill="#0042db"/>
    <path id="Trazado_971160" data-name="Trazado 971160" d="M88.358,397.593l-.9.775-.332-.332a.588.588,0,1,0-.831.831l.717.717a.588.588,0,0,0,.8.031l1.318-1.129a.588.588,0,0,0-.765-.893Z" transform="translate(-78.603 -366.299)" fill="#0042db"/>
    <path id="Trazado_971161" data-name="Trazado 971161" d="M361.01,360.854a3.827,3.827,0,1,0,3.827,3.827A3.831,3.831,0,0,0,361.01,360.854Zm0,6.478a2.651,2.651,0,1,1,2.651-2.651A2.654,2.654,0,0,1,361.01,367.332Z" transform="translate(-328.422 -332.571)" fill="#0042db"/>
    <path id="Trazado_971162" data-name="Trazado 971162" d="M391.318,392.636a.588.588,0,0,0-.831,0l-.346.346-.346-.346a.588.588,0,1,0-.831.831l.346.346-.346.346a.588.588,0,0,0,.831.831l.346-.346.346.346a.588.588,0,1,0,.831-.831l-.346-.346.346-.346A.588.588,0,0,0,391.318,392.636Z" transform="translate(-357.553 -361.703)" fill="#0042db"/>
  </g>
</svg>
