<svg xmlns="http://www.w3.org/2000/svg" width="40" height="40.032" viewBox="0 0 40 40.032">
  <path id="Trazado_969362" data-name="Trazado 969362" d="M39.733,4.666a16.107,16.107,0,0,0-1.4-3.176.6.6,0,0,0-.633-.267,16.1,16.1,0,0,0-3.25,1.212A9.331,9.331,0,0,0,29.8,6.877,8.6,8.6,0,0,0,29.53,12.1,16.63,16.63,0,0,0,26.4,9.379a24.223,24.223,0,0,0-2.718-4.166.587.587,0,0,0-.91.74,23.48,23.48,0,0,1,2.164,3.183L19.6,8.094,14.522,1.171A8.273,8.273,0,0,1,16,1.322a10.128,10.128,0,0,1,4.581,2.361.587.587,0,0,0,.761-.893A11.281,11.281,0,0,0,16.227.171c-2.687-.526-5.821.164-9.064,2A23.413,23.413,0,0,0,3.063,5.1a.621.621,0,0,0-.07.805,23.928,23.928,0,0,0,2.63,4.129A18.338,18.338,0,0,0,8.4,12.881q-.41.343-.8.72a13.558,13.558,0,0,0,4.386,22.253.587.587,0,0,0,.441-1.087,12.381,12.381,0,0,1-2.537-1.4,6.608,6.608,0,0,0-1-4.625c-.186-.29.37-1.427.7-2.106a11,11,0,0,0,.861-2.105,1.6,1.6,0,0,0-.571-1.758,4.328,4.328,0,0,0-1.394-.618,3,3,0,0,1-.766-.3,7.818,7.818,0,0,1-.993-1.616,10.026,10.026,0,0,0-1.072-1.762,12.47,12.47,0,0,1,3.7-4.877A10.257,10.257,0,0,0,14.3,15.44c-2.072,1.606-2.743,3.656-1.785,5.626,1.119,2.3,3.422,1.933,5.455,1.609.352-.056.715-.114,1.064-.158.131-.016.17.019.2.043.445.4.432,2.286.422,3.667-.013,1.909-.025,3.713.686,4.639a1.79,1.79,0,0,0,1.473.713,2.956,2.956,0,0,0,1.158-.262c1.769-.757,3.607-3.037,3.327-4.841-.245-1.577-.407-2.619-.025-3.459.354-.777,1.208-1.5,2.891-2.415A12.384,12.384,0,0,1,15.71,35.6a.587.587,0,0,0-.128,1.166,13.632,13.632,0,0,0,10.977-3.784,13.549,13.549,0,0,0-2.086-21.044c.775-.552,1.352-1.03,1.672-1.307A15.57,15.57,0,1,1,1.72,20.753a.587.587,0,0,0-1.157-.191A16.738,16.738,0,0,0,14.351,39.8a16.97,16.97,0,0,0,2.763.227A16.749,16.749,0,0,0,32.432,16.608a16.89,16.89,0,0,0,2.7-1.065A9.331,9.331,0,0,0,39.793,11.1a9.326,9.326,0,0,0-.06-6.436ZM5.7,20.791a7.3,7.3,0,0,0,1.278,1.968,3.363,3.363,0,0,0,1.174.521c1.146.352,1.279.525,1.169.979a10.236,10.236,0,0,1-.775,1.866c-.606,1.239-1.178,2.409-.636,3.255a5.578,5.578,0,0,1,.887,3.112A12.5,12.5,0,0,1,5.18,19.845c.173.3.354.639.516.946ZM34.069,9.266,32.4,5.227A10.975,10.975,0,0,1,34.956,3.5a15.654,15.654,0,0,1,1.853-.78Zm3.821-6.1a15.731,15.731,0,0,1,.733,1.875,11.212,11.212,0,0,1,.531,2.827L35.249,9.484ZM30.878,7.334A5.585,5.585,0,0,1,31.533,6.2l1.9,4.6-1.7,4.071a15.57,15.57,0,0,1-.76-1.931,8.389,8.389,0,0,1-.09-5.6Zm3.757,7.148a15.58,15.58,0,0,1-1.795.76l1.767-4.224,4.5-1.856a5.658,5.658,0,0,1-.392,1.482,8.389,8.389,0,0,1-4.077,3.838Zm-21.147-.334c-.207-.041-.412-.09-.613-.147l6.491-4.758,5.344,1.042c-1.947,1.534-6.685,4.752-11.222,3.863ZM7.557,10.479a22.832,22.832,0,0,1-2.99-4.12l6.8,1.326Zm1.2-7.824L11.6,6.536,4.759,5.2a23.119,23.119,0,0,1,4-2.547ZM13.3,6.867,9.851,2.161a13.191,13.191,0,0,1,3.278-.907L17.9,7.763Zm-.365,1.124,4.864.948-6.243,4.576A12.133,12.133,0,0,1,8.393,11.32ZM28.849,19.443c-2.114,1.126-3.149,2.011-3.641,3.09-.528,1.159-.334,2.4-.067,4.124.158,1.015-1.048,2.906-2.629,3.583-.585.25-1,.221-1.239-.088-.466-.606-.453-2.442-.443-3.916.014-2.04.026-3.8-.816-4.551a1.382,1.382,0,0,0-1.12-.33c-.369.046-.743.106-1.1.163-2.156.344-3.512.481-4.215-.964-1.139-2.34,1.166-4.073,2.21-4.71a3.715,3.715,0,0,0,.593-.452,17.051,17.051,0,0,0,7.031-2.74,12.449,12.449,0,0,1,5.44,6.791Zm0,0" transform="translate(-0.335)" fill="#0042db"/>
</svg>
