<svg xmlns="http://www.w3.org/2000/svg" width="50" height="50" viewBox="0 0 50 50">
  <g id="Grupo_1118520" data-name="Grupo 1118520" transform="translate(-2 -2)">
    <path id="Trazado_968500" data-name="Trazado 968500" d="M55.421,49.269a4.167,4.167,0,1,0-5.508,0A6.671,6.671,0,0,0,46,55.333v2.5a.833.833,0,0,0,.833.833H58.5a.833.833,0,0,0,.833-.833v-2.5A6.671,6.671,0,0,0,55.421,49.269Zm-5.254-3.1a2.5,2.5,0,1,1,2.5,2.5A2.5,2.5,0,0,1,50.167,46.167ZM57.667,57h-10V55.333a5,5,0,0,1,10,0Z" transform="translate(-7.333 -6.667)" fill="#001a58"/>
    <path id="Trazado_968501" data-name="Trazado 968501" d="M2.833,58.667H14.5a.833.833,0,0,0,.833-.833v-2.5a6.671,6.671,0,0,0-3.913-6.064,4.167,4.167,0,1,0-5.508,0A6.671,6.671,0,0,0,2,55.333v2.5A.833.833,0,0,0,2.833,58.667Zm3.333-12.5a2.5,2.5,0,1,1,2.5,2.5A2.5,2.5,0,0,1,6.167,46.167Zm-2.5,9.167a5,5,0,1,1,10,0V57h-10Z" transform="translate(0 -6.667)" fill="#001a58"/>
    <path id="Trazado_968502" data-name="Trazado 968502" d="M24,55.333v2.5a.833.833,0,0,0,.833.833H36.5a.833.833,0,0,0,.833-.833v-2.5a6.671,6.671,0,0,0-3.912-6.064,4.167,4.167,0,1,0-5.508,0A6.671,6.671,0,0,0,24,55.333Zm4.167-9.167a2.5,2.5,0,1,1,2.5,2.5A2.5,2.5,0,0,1,28.167,46.167Zm2.5,4.167a5.005,5.005,0,0,1,5,5V57h-10V55.333A5.005,5.005,0,0,1,30.667,50.333Z" transform="translate(-3.667 -6.667)" fill="#001a58"/>
    <path id="Trazado_968503" data-name="Trazado 968503" d="M30.5,8A7.5,7.5,0,1,0,38,15.5,7.509,7.509,0,0,0,30.5,8Zm0,13.333A5.833,5.833,0,1,1,36.333,15.5,5.84,5.84,0,0,1,30.5,21.333Z" transform="translate(-3.5 -1)" fill="#001a58"/>
    <path id="Trazado_968504" data-name="Trazado 968504" d="M41.167,17.833A.833.833,0,0,0,42,17V12a.833.833,0,0,0-.833-.833l-1.376-.023a10.652,10.652,0,0,0-.653-1.568l.97-.969a.833.833,0,0,0,0-1.178L36.572,3.894a.832.832,0,0,0-1.178,0l-.988.957A10.426,10.426,0,0,0,32.833,4.2V2.833A.833.833,0,0,0,32,2H27a.833.833,0,0,0-.833.833l-.022,1.376a10.535,10.535,0,0,0-1.568.653l-.969-.969a.832.832,0,0,0-1.178,0L18.893,7.428a.833.833,0,0,0,0,1.178l.957.989a10.589,10.589,0,0,0-.645,1.571H17.833A.833.833,0,0,0,17,12v5a.833.833,0,0,0,.833.833l1.376.022a10.577,10.577,0,0,0,.653,1.568l-.97.969a.833.833,0,0,0,0,1.178l3.536,3.535a.832.832,0,0,0,1.178,0l.988-.957a10.413,10.413,0,0,0,1.571.645v1.372A.833.833,0,0,0,27,27h5a.833.833,0,0,0,.833-.833l.022-1.376a10.489,10.489,0,0,0,1.568-.653l.97.969a.832.832,0,0,0,1.178,0l3.536-3.535a.833.833,0,0,0,0-1.178l-.957-.99a10.383,10.383,0,0,0,.645-1.57ZM38.2,17.34a9.2,9.2,0,0,1-.541,1.308,1.678,1.678,0,0,0,.295,1.953l.38.38-2.357,2.357-.381-.38a1.674,1.674,0,0,0-1.954-.294,8.984,8.984,0,0,1-1.308.541,1.679,1.679,0,0,0-1.173,1.59v.538H27.833V24.8a1.678,1.678,0,0,0-1.174-1.589,9.172,9.172,0,0,1-1.307-.54,1.671,1.671,0,0,0-1.953.294l-.381.38-2.357-2.357.38-.38a1.68,1.68,0,0,0,.294-1.954,9.146,9.146,0,0,1-.541-1.307,1.678,1.678,0,0,0-1.59-1.175h-.538V12.833H19.2a1.679,1.679,0,0,0,1.59-1.173,9.236,9.236,0,0,1,.541-1.308A1.676,1.676,0,0,0,21.042,8.4l-.38-.38,2.357-2.357.38.38a1.676,1.676,0,0,0,1.954.294A8.984,8.984,0,0,1,26.661,5.8,1.679,1.679,0,0,0,27.833,4.2V3.667h3.333V4.2a1.678,1.678,0,0,0,1.174,1.589,9.173,9.173,0,0,1,1.307.54A1.675,1.675,0,0,0,35.6,6.04l.38-.38,2.357,2.357-.38.382a1.678,1.678,0,0,0-.295,1.953A9.045,9.045,0,0,1,38.2,11.66a1.68,1.68,0,0,0,1.591,1.173h.538v3.333h-.538A1.679,1.679,0,0,0,38.2,17.34Z" transform="translate(-2.5)" fill="#001a58"/>
    <path id="Trazado_968505" data-name="Trazado 968505" d="M35.3,15.473l-5-3.333a.834.834,0,0,0-1.3.693V19.5a.833.833,0,0,0,1.3.693l5-3.333a.834.834,0,0,0,0-1.387Zm-4.629,2.47V14.39l2.664,1.777Z" transform="translate(-4.5 -1.667)" fill="#001a58"/>
    <path id="Trazado_968506" data-name="Trazado 968506" d="M31,38h1.667v1.667H31Z" transform="translate(-4.833 -6)" fill="#001a58"/>
    <path id="Trazado_968507" data-name="Trazado 968507" d="M31,34h1.667v1.667H31Z" transform="translate(-4.833 -5.333)" fill="#001a58"/>
    <path id="Trazado_968508" data-name="Trazado 968508" d="M13,16h1.667v1.667H13Z" transform="translate(-1.833 -2.333)" fill="#001a58"/>
    <path id="Trazado_968509" data-name="Trazado 968509" d="M9,16h1.667v1.667H9Z" transform="translate(-1.167 -2.333)" fill="#001a58"/>
    <path id="Trazado_968510" data-name="Trazado 968510" d="M9,20h1.667v1.667H9Z" transform="translate(-1.167 -3)" fill="#001a58"/>
    <path id="Trazado_968511" data-name="Trazado 968511" d="M9,24h1.667v1.667H9Z" transform="translate(-1.167 -3.667)" fill="#001a58"/>
    <path id="Trazado_968512" data-name="Trazado 968512" d="M9,28h1.667v1.667H9Z" transform="translate(-1.167 -4.333)" fill="#001a58"/>
    <path id="Trazado_968513" data-name="Trazado 968513" d="M9,32h1.667v1.667H9Z" transform="translate(-1.167 -5)" fill="#001a58"/>
    <path id="Trazado_968514" data-name="Trazado 968514" d="M9,36h1.667v1.667H9Z" transform="translate(-1.167 -5.667)" fill="#001a58"/>
    <path id="Trazado_968515" data-name="Trazado 968515" d="M49,16h1.667v1.667H49Z" transform="translate(-7.833 -2.333)" fill="#001a58"/>
    <path id="Trazado_968516" data-name="Trazado 968516" d="M53,16h1.667v1.667H53Z" transform="translate(-8.5 -2.333)" fill="#001a58"/>
    <path id="Trazado_968517" data-name="Trazado 968517" d="M53,20h1.667v1.667H53Z" transform="translate(-8.5 -3)" fill="#001a58"/>
    <path id="Trazado_968518" data-name="Trazado 968518" d="M53,24h1.667v1.667H53Z" transform="translate(-8.5 -3.667)" fill="#001a58"/>
    <path id="Trazado_968519" data-name="Trazado 968519" d="M53,28h1.667v1.667H53Z" transform="translate(-8.5 -4.333)" fill="#001a58"/>
    <path id="Trazado_968520" data-name="Trazado 968520" d="M53,32h1.667v1.667H53Z" transform="translate(-8.5 -5)" fill="#001a58"/>
    <path id="Trazado_968521" data-name="Trazado 968521" d="M53,36h1.667v1.667H53Z" transform="translate(-8.5 -5.667)" fill="#001a58"/>
  </g>
</svg>
