<svg xmlns="http://www.w3.org/2000/svg" width="85" height="85" viewBox="0 0 85 85">
  <g id="Grupo_1118064" data-name="Grupo 1118064" transform="translate(-199.282 -497)">
    <rect id="Rectángulo_412256" data-name="Rectángulo 412256" width="85" height="85" rx="5" transform="translate(199.282 497)" fill="#8bc34a"/>
    <g id="Grupo_1121434" data-name="Grupo 1121434" transform="translate(209.888 506.9)">
      <g id="Grupo_1121410" data-name="Grupo 1121410" transform="translate(35.334 46.268)">
        <path id="Trazado_974440" data-name="Trazado 974440" d="M307.32,366.942l-4.117-1.029a2.767,2.767,0,0,1-.412-.138c-.045-.019-.134-.061-.134-.061H292.073c-.044.022-.089.042-.134.061a2.763,2.763,0,0,1-.412.138l-4.117,1.029a5.024,5.024,0,0,0-3.805,4.874v10.964a.125.125,0,0,0,.125.125H311a.125.125,0,0,0,.125-.125V371.815A5.024,5.024,0,0,0,307.32,366.942Z" transform="translate(-283.605 -365.713)" fill="#0681af"/>
      </g>
      <g id="Grupo_1121411" data-name="Grupo 1121411" transform="translate(45.654 51.42)">
        <path id="Trazado_974441" data-name="Trazado 974441" d="M371.6,407.061h-3.44l-1.72,12.04h6.88Z" transform="translate(-366.437 -407.061)" fill="#feb237"/>
      </g>
      <g id="Grupo_1121412" data-name="Grupo 1121412" transform="translate(47.374 47.448)">
        <path id="Trazado_974442" data-name="Trazado 974442" d="M380.243,375.181h3.44v3.972h-3.44Z" transform="translate(-380.243 -375.181)" fill="#ffc344"/>
      </g>
      <g id="Grupo_1121413" data-name="Grupo 1121413" transform="translate(44.617 42.283)">
        <path id="Trazado_974443" data-name="Trazado 974443" d="M367.072,337.1a2.75,2.75,0,0,1-.724-1.86v-1.514h-7.505v1.514a2.75,2.75,0,0,1-.724,1.86l4.476,2.934Z" transform="translate(-358.119 -333.721)" fill="#ffcebf"/>
      </g>
      <g id="Grupo_1121414" data-name="Grupo 1121414" transform="translate(43.402 45.178)">
        <path id="Trazado_974444" data-name="Trazado 974444" d="M349.535,356.973l4.522,2.261-2.287,3.431-3.388-4.517a.084.084,0,0,1,.008-.11l1.05-1.05A.083.083,0,0,1,349.535,356.973Z" transform="translate(-348.364 -356.965)" fill="#3692bc"/>
      </g>
      <g id="Grupo_1121415" data-name="Grupo 1121415" transform="translate(49.094 45.178)">
        <path id="Trazado_974445" data-name="Trazado 974445" d="M398.57,356.973l-4.522,2.261,2.287,3.431,3.388-4.517a.084.084,0,0,0-.008-.11l-1.05-1.05A.083.083,0,0,0,398.57,356.973Z" transform="translate(-394.048 -356.965)" fill="#3692bc"/>
      </g>
      <g id="Grupo_1121416" data-name="Grupo 1121416" transform="translate(0.934 46.268)">
        <path id="Trazado_974446" data-name="Trazado 974446" d="M31.215,366.942,27.1,365.912a2.767,2.767,0,0,1-.412-.138c-.045-.019-.134-.061-.134-.061H15.968c-.044.022-.089.042-.134.061a2.763,2.763,0,0,1-.412.138l-4.117,1.029A5.024,5.024,0,0,0,7.5,371.815v10.964a.125.125,0,0,0,.125.125H34.9a.125.125,0,0,0,.125-.125V371.815a5.024,5.024,0,0,0-3.805-4.874Z" transform="translate(-7.5 -365.713)" fill="#01c0fa"/>
      </g>
      <g id="Grupo_1121417" data-name="Grupo 1121417" transform="translate(11.254 51.42)">
        <path id="Trazado_974447" data-name="Trazado 974447" d="M95.493,407.061h-3.44l-1.72,12.04h6.88Z" transform="translate(-90.333 -407.061)" fill="#fd5426"/>
      </g>
      <g id="Grupo_1121418" data-name="Grupo 1121418" transform="translate(12.974 47.448)">
        <path id="Trazado_974448" data-name="Trazado 974448" d="M104.139,375.181h3.44v3.972h-3.44Z" transform="translate(-104.139 -375.181)" fill="#fd6930"/>
      </g>
      <g id="Grupo_1121419" data-name="Grupo 1121419" transform="translate(10.218 42.283)">
        <path id="Trazado_974449" data-name="Trazado 974449" d="M90.968,337.1a2.75,2.75,0,0,1-.724-1.86v-1.514H82.739v1.514a2.75,2.75,0,0,1-.724,1.86l4.476,2.934Z" transform="translate(-82.015 -333.721)" fill="#f6a96c"/>
      </g>
      <g id="Grupo_1121420" data-name="Grupo 1121420" transform="translate(9.003 45.178)">
        <path id="Trazado_974450" data-name="Trazado 974450" d="M73.431,356.973l4.522,2.261-2.287,3.431-3.388-4.517a.084.084,0,0,1,.008-.11l1.05-1.05A.083.083,0,0,1,73.431,356.973Z" transform="translate(-72.261 -356.965)" fill="#01d0fb"/>
      </g>
      <g id="Grupo_1121421" data-name="Grupo 1121421" transform="translate(14.694 45.178)">
        <path id="Trazado_974451" data-name="Trazado 974451" d="M122.466,356.973l-4.522,2.261,2.287,3.431,3.388-4.517a.084.084,0,0,0-.008-.11l-1.05-1.05A.083.083,0,0,0,122.466,356.973Z" transform="translate(-117.944 -356.965)" fill="#01d0fb"/>
      </g>
      <g id="Grupo_1121422" data-name="Grupo 1121422" transform="translate(31.895 8.519)">
        <circle id="Elipse_13709" data-name="Elipse 13709" cx="3.44" cy="3.44" r="3.44" fill="#0681af"/>
      </g>
      <g id="Grupo_1121423" data-name="Grupo 1121423" transform="translate(25.014 1.739)">
        <path id="Trazado_974452" data-name="Trazado 974452" d="M202.5,13.362l-1.72,5.16,1.72,5.16,8.4,5.041a.13.13,0,0,0,.2-.112V8.433a.13.13,0,0,0-.2-.112Z" transform="translate(-200.777 -8.302)" fill="#b4d2e2"/>
      </g>
      <g id="Grupo_1121424" data-name="Grupo 1121424" transform="translate(27.97 1.739)">
        <path id="Trazado_974453" data-name="Trazado 974453" d="M231.666,8.321l-4.786,2.872V21.909a2.517,2.517,0,0,1-2.381,2.515l7.167,4.3a.13.13,0,0,0,.2-.112V8.433a.13.13,0,0,0-.2-.112Z" transform="translate(-224.499 -8.302)" fill="#8abbd5"/>
      </g>
      <g id="Grupo_1121425" data-name="Grupo 1121425" transform="translate(19.855 6.799)">
        <path id="Trazado_974454" data-name="Trazado 974454" d="M166.241,48.918v10.32h-6.75a.13.13,0,0,1-.13-.13V49.048a.13.13,0,0,1,.13-.13Z" transform="translate(-159.361 -48.918)" fill="#b4d2e2"/>
      </g>
      <g id="Grupo_1121426" data-name="Grupo 1121426" transform="translate(19.855 6.799)">
        <path id="Trazado_974455" data-name="Trazado 974455" d="M162.5,48.918v6.69a1.761,1.761,0,0,1-1.761,1.761h-1.381v1.738a.13.13,0,0,0,.13.13h6.75V48.918Z" transform="translate(-159.361 -48.918)" fill="#8abbd5"/>
      </g>
      <g id="Grupo_1121427" data-name="Grupo 1121427" transform="translate(7.583 22.286)">
        <path id="Trazado_974456" data-name="Trazado 974456" d="M74.9,183.5l.173-2.715a7.111,7.111,0,1,0-14.193,0l.16,2.5Z" transform="translate(-60.867 -173.222)" fill="#017297"/>
      </g>
      <g id="Grupo_1121428" data-name="Grupo 1121428" transform="translate(7.758 29.126)">
        <path id="Trazado_974457" data-name="Trazado 974457" d="M74.975,229.545a2.818,2.818,0,0,0-2.447-1.421H65.62a2.818,2.818,0,0,0-2.521,1.558l-.833,1.667.311,4.878a6.639,6.639,0,0,0,13.252,0l.3-4.663Z" transform="translate(-62.266 -228.124)" fill="#fed2a4"/>
      </g>
      <g id="Grupo_1121429" data-name="Grupo 1121429" transform="translate(9.507 29.126)">
        <path id="Trazado_974458" data-name="Trazado 974458" d="M88.122,236.226l.3-4.663-1.152-2.017a2.818,2.818,0,0,0-2.447-1.421H83.5c-.122,1.916-.274,4.291-.358,5.61a6.639,6.639,0,0,1-6.626,6.217q-.1,0-.2,0l0,0a6.639,6.639,0,0,0,11.811-3.725Z" transform="translate(-76.309 -228.124)" fill="#ffbd86"/>
      </g>
      <g id="Grupo_1121430" data-name="Grupo 1121430" transform="translate(41.983 22.286)">
        <path id="Trazado_974459" data-name="Trazado 974459" d="M351.077,182.373l.1-1.581a7.111,7.111,0,1,0-14.193-.007l.1,1.588Z" transform="translate(-336.971 -173.221)" fill="#ffc344"/>
      </g>
      <g id="Grupo_1121431" data-name="Grupo 1121431" transform="translate(42.099 27.966)">
        <path id="Trazado_974460" data-name="Trazado 974460" d="M347.518,218.806a4.449,4.449,0,0,0-2.62.846,4.489,4.489,0,0,0-7,2.626c.124,1.945.283,4.429.37,5.791a6.639,6.639,0,0,0,13.252,0l.369-5.79A4.494,4.494,0,0,0,347.518,218.806Z" transform="translate(-337.902 -218.806)" fill="#ffeee6"/>
      </g>
      <g id="Grupo_1121432" data-name="Grupo 1121432" transform="translate(43.907 27.966)">
        <path id="Trazado_974461" data-name="Trazado 974461" d="M360.221,218.806a4.525,4.525,0,0,0-.548.033l-.43,6.738a6.639,6.639,0,0,1-6.626,6.217q-.1,0-.2,0a6.64,6.64,0,0,0,11.813-3.722l.369-5.79A4.494,4.494,0,0,0,360.221,218.806Z" transform="translate(-352.413 -218.806)" fill="#ffdfcf"/>
      </g>
      <g id="Grupo_1121433" data-name="Grupo 1121433" transform="translate(0 0.805)">
        <path id="Trazado_974462" data-name="Trazado 974462" d="M2.038,208.067a.935.935,0,0,0,.57-1.192,12.9,12.9,0,0,1,0-8.552A.934.934,0,0,0,.846,197.7a14.774,14.774,0,0,0,0,9.795A.935.935,0,0,0,2.038,208.067Z" transform="translate(-0.01 -172.625)"/>
        <path id="Trazado_974463" data-name="Trazado 974463" d="M215.221,208.067a.935.935,0,0,0,1.192-.57,14.773,14.773,0,0,0,0-9.795.934.934,0,0,0-1.763.621,12.9,12.9,0,0,1,0,8.552A.935.935,0,0,0,215.221,208.067Z" transform="translate(-187.861 -172.624)"/>
        <path id="Trazado_974464" data-name="Trazado 974464" d="M29.452,214.979a.934.934,0,0,0,.57-1.192,9.44,9.44,0,0,1,0-6.258.934.934,0,1,0-1.762-.621,11.314,11.314,0,0,0,0,7.5A.934.934,0,0,0,29.452,214.979Z" transform="translate(-24.18 -180.683)"/>
        <path id="Trazado_974465" data-name="Trazado 974465" d="M189.182,214.978a.935.935,0,0,0,1.192-.57,11.316,11.316,0,0,0,0-7.5.934.934,0,0,0-1.763.621,9.44,9.44,0,0,1,0,6.258A.935.935,0,0,0,189.182,214.978Z" transform="translate(-165.066 -180.682)"/>
        <path id="Trazado_974466" data-name="Trazado 974466" d="M491.333,208.067a.935.935,0,0,0,1.192-.57,14.775,14.775,0,0,0,0-9.795.934.934,0,0,0-1.762.621,12.9,12.9,0,0,1,0,8.552A.934.934,0,0,0,491.333,208.067Z" transform="translate(-429.572 -172.625)"/>
        <path id="Trazado_974467" data-name="Trazado 974467" d="M278.151,197.13a.934.934,0,0,0-1.192.57,14.775,14.775,0,0,0,0,9.795.934.934,0,1,0,1.762-.621,12.9,12.9,0,0,1,0-8.552A.934.934,0,0,0,278.151,197.13Z" transform="translate(-241.722 -172.624)"/>
        <path id="Trazado_974468" data-name="Trazado 974468" d="M465.294,214.979a.935.935,0,0,0,1.192-.57,11.314,11.314,0,0,0,0-7.5.934.934,0,0,0-1.762.621,9.44,9.44,0,0,1,0,6.258A.935.935,0,0,0,465.294,214.979Z" transform="translate(-406.778 -180.683)"/>
        <path id="Trazado_974469" data-name="Trazado 974469" d="M305.563,206.334a.934.934,0,0,0-1.192.57,11.314,11.314,0,0,0,0,7.5.934.934,0,0,0,1.762-.621,9.44,9.44,0,0,1,0-6.258A.935.935,0,0,0,305.563,206.334Z" transform="translate(-265.89 -180.681)"/>
        <path id="Trazado_974470" data-name="Trazado 974470" d="M152.927,18.054h6.491l8.18,4.908a1.065,1.065,0,0,0,1.613-.913V16.234a4.375,4.375,0,0,0,0-8.548V1.87A1.065,1.065,0,0,0,167.6.957l-8.181,4.908h-6.491a1.066,1.066,0,0,0-1.065,1.065V9.842a.934.934,0,0,0,1.869,0V7.734h5.011v8.451h-5.011V14.2a.934.934,0,0,0-1.869,0v2.786A1.066,1.066,0,0,0,152.927,18.054Zm17.855-6.094a2.51,2.51,0,0,1-1.571,2.325V9.635a2.51,2.51,0,0,1,1.571,2.325Zm-3.44,8.67-6.731-4.039V7.328l6.731-4.039Z" transform="translate(-132.942 -0.805)"/>
        <path id="Trazado_974471" data-name="Trazado 974471" d="M331.333,82.968a.934.934,0,0,0,.934.934h1.72a.934.934,0,1,0,0-1.869h-1.72A.934.934,0,0,0,331.333,82.968Z" transform="translate(-290.053 -71.914)"/>
        <path id="Trazado_974472" data-name="Trazado 974472" d="M316.755,36.035l1.216-1.216a.934.934,0,0,0-1.322-1.321l-1.216,1.216a.934.934,0,1,0,1.322,1.321Z" transform="translate(-275.894 -29.185)"/>
        <path id="Trazado_974473" data-name="Trazado 974473" d="M317.971,123.893a.934.934,0,0,0,0-1.322l-1.216-1.216a.934.934,0,0,0-1.322,1.322l1.216,1.216A.935.935,0,0,0,317.971,123.893Z" transform="translate(-275.894 -106.097)"/>
        <path id="Trazado_974474" data-name="Trazado 974474" d="M24.876,190.959l-3.811-.953c-.041-.046-.04-.042-1.093-1.1a1.016,1.016,0,0,0-.532-.281,1.821,1.821,0,0,1-.06-.464v-1.048a7.566,7.566,0,0,0,2.872-5.461l.471-7.378a8.045,8.045,0,0,0-13.9-6.017,7.968,7.968,0,0,0-2.162,6.017l.471,7.378a7.566,7.566,0,0,0,2.87,5.459v1.05a1.819,1.819,0,0,1-.06.465,1.016,1.016,0,0,0-.53.28c-1.252,1.254-1.059,1.058-1.093,1.1l-3.811.953A5.949,5.949,0,0,0,0,196.739V207.7a1.06,1.06,0,0,0,1.059,1.059H28.33a1.06,1.06,0,0,0,1.059-1.059v-5.895a.934.934,0,0,0-1.869,0v5.085H24.779v-3.64a.934.934,0,1,0-1.869,0v3.64H18.945L17.4,196.083a.933.933,0,0,0,.329-.275l2.974-3.966,3.719.93a4.083,4.083,0,0,1,3.1,3.967v.709a.934.934,0,1,0,1.869,0v-.709a5.95,5.95,0,0,0-4.513-5.78ZM10.19,169.54a6.177,6.177,0,0,1,10.68,4.335,3.762,3.762,0,0,0-2.851-1.314H11.111A3.733,3.733,0,0,0,8.519,173.6a6.108,6.108,0,0,1,1.671-4.056ZM9,181.537l-.3-4.626.72-1.441a1.873,1.873,0,0,1,1.685-1.041h6.908a1.888,1.888,0,0,1,1.636.95l1.013,1.774-.28,4.384a5.7,5.7,0,0,1-11.387,0Zm8.511,6.665a3.68,3.68,0,0,0,.171,1.075l-2.988,1.494-2.99-1.5a3.68,3.68,0,0,0,.171-1.075A7.549,7.549,0,0,0,17.512,188.2ZM10.3,190.666l3.026,1.513-.968,1.451-2.153-2.87Zm3.6,4.188v-.175l.786-1.178.786,1.178v.175Zm-12.04,1.885a4.083,4.083,0,0,1,3.1-3.967l3.719-.93,2.975,3.966a.934.934,0,0,0,.329.275l-1.544,10.81H6.479v-3.64a.934.934,0,0,0-1.869,0v3.64H1.869Zm10.463,10.154,1.453-10.171H15.6l1.453,10.171Zm4.695-13.263-.968-1.451,3.026-1.513.094.095Z" transform="translate(0 -145.174)"/>
        <path id="Trazado_974475" data-name="Trazado 974475" d="M300.986,190.96l-3.811-.953c-.041-.047-.027-.029-1.093-1.1a1.016,1.016,0,0,0-.532-.281,1.82,1.82,0,0,1-.06-.464v-1.049a7.566,7.566,0,0,0,2.871-5.46l.368-5.766c0-.016,0-.031,0-.047l.1-1.565s0-.008,0-.013a7.971,7.971,0,0,0-2.167-6,8.073,8.073,0,0,0-5.863-2.545,8.046,8.046,0,0,0-8.029,8.558l.471,7.378a7.567,7.567,0,0,0,2.871,5.46v1.049a1.819,1.819,0,0,1-.06.465,1.016,1.016,0,0,0-.53.28l-1.051,1.052c-.014.014-.028.029-.041.044l-3.811.953a5.95,5.95,0,0,0-4.513,5.78V207.7a1.06,1.06,0,0,0,1.059,1.059H304.44A1.06,1.06,0,0,0,305.5,207.7V196.74A5.949,5.949,0,0,0,300.986,190.96Zm-14.572-.293,3.026,1.513-.968,1.451-2.153-2.87Zm5.176,4.013v.175h-1.571v-.175l.786-1.178Zm-1.7,2.043h1.819l1.453,10.171h-4.725Zm3.242-3.092-.968-1.451,3.026-1.513.095.095ZM286.3,169.54a6.186,6.186,0,0,1,10.577,3.09,5.446,5.446,0,0,0-6.073-.556,5.447,5.447,0,0,0-6.076.558A6.118,6.118,0,0,1,286.3,169.54Zm-1.189,12-.36-5.646a3.555,3.555,0,0,1,5.506-1.955.935.935,0,0,0,1.1,0,3.555,3.555,0,0,1,5.505,1.955l-.36,5.646a5.705,5.705,0,0,1-11.387,0Zm8.512,6.665a3.682,3.682,0,0,0,.171,1.075l-2.989,1.494-2.99-1.5a3.686,3.686,0,0,0,.171-1.075A7.549,7.549,0,0,0,293.622,188.2Zm-15.643,8.537a4.083,4.083,0,0,1,3.1-3.967l3.719-.93,2.975,3.966a.934.934,0,0,0,.329.275l-1.544,10.81h-3.965v-3.64a.934.934,0,1,0-1.869,0v3.64h-2.742Zm25.651,10.154h-2.742v-3.64a.934.934,0,0,0-1.869,0v3.64h-3.965l-1.544-10.81a.934.934,0,0,0,.329-.275l2.974-3.966,3.719.93a4.083,4.083,0,0,1,3.1,3.967Z" transform="translate(-241.71 -145.174)"/>
        <path id="Trazado_974476" data-name="Trazado 974476" d="M106.646,270.924h.158a1.955,1.955,0,0,0,1.953-1.953v-1.336a.934.934,0,1,0-1.869,0v1.336a.085.085,0,0,1-.084.085h-.158a.934.934,0,1,0,0,1.869Z" transform="translate(-92.542 -233.573)"/>
        <path id="Trazado_974477" data-name="Trazado 974477" d="M382.757,270.924h.158a1.955,1.955,0,0,0,1.953-1.953v-1.336a.934.934,0,1,0-1.869,0v1.336a.085.085,0,0,1-.084.085h-.158a.934.934,0,1,0,0,1.869Z" transform="translate(-334.252 -233.573)"/>
      </g>
    </g>
  </g>
</svg>
