<svg xmlns="http://www.w3.org/2000/svg" width="34.987" height="42.391" viewBox="0 0 34.987 42.391">
  <g id="Grupo_1119327" data-name="Grupo 1119327" transform="translate(0 0.001)">
    <path id="Trazado_970168" data-name="Trazado 970168" d="M33.139,29.677a7.716,7.716,0,0,0-3.894-2.445V4.161A4.167,4.167,0,0,0,25.082,0H9.4A3.791,3.791,0,0,0,7.7.4L7.693.4l-.008,0-.1.051L7.516.5l-.084.05L7.351.6,7.277.648,7.19.708,7.125.756l-.091.07L6.975.873l-.09.078L6.83,1c-.03.027-.06.056-.089.085l-.05.049c-.035.036-.069.072-.1.109l-.027.029-2.49,2.8L.958,7.575C.921,7.617.885,7.66.849,7.7l-.031.04C.8,7.773.772,7.8.75,7.832S.715,7.88.7,7.9l-.041.059c-.021.031-.041.062-.061.094L.571,8.1C.548,8.133.526,8.17.5,8.208l-.012.02q-.037.065-.071.132v0A3.787,3.787,0,0,0,0,10.095V35.829a4.168,4.168,0,0,0,4.163,4.163H21.7A7.706,7.706,0,0,0,33.139,29.676ZM7.237,3V7.642a.5.5,0,0,1-.5.5H2.672L5.167,5.333ZM4.163,38.336a2.51,2.51,0,0,1-2.507-2.507V10.1a2.1,2.1,0,0,1,.023-.3h5.06A2.156,2.156,0,0,0,8.893,7.643V1.716a2.131,2.131,0,0,1,.5-.061H25.082a2.509,2.509,0,0,1,2.507,2.506V26.983c-.1,0-.205-.006-.308-.006a7.716,7.716,0,0,0-7.707,7.707c0,.1,0,.2.007.307,0,.028,0,.055,0,.083q.006.13.017.259c0,.017,0,.034,0,.051q.014.151.034.3c0,.026.007.051.011.077.011.081.024.16.038.241l.012.072c.018.1.038.2.06.293l.015.063q.028.119.06.237l.022.082c.027.1.055.191.085.286,0,.011.007.021.011.032.028.085.058.17.088.255l.031.083q.046.121.1.24l.017.043c.038.091.079.181.121.27l.038.078q.051.106.106.211l.034.066.013.024Zm23.118,2.4a6.051,6.051,0,1,1,6.05-6.05,6.044,6.044,0,0,1-6.05,6.05Zm0,0" fill="#29542a"/>
    <path id="Trazado_970169" data-name="Trazado 970169" d="M91.664,154.859H104.79a.828.828,0,1,0,0-1.656H91.664a.828.828,0,1,0,0,1.656Zm0,0" transform="translate(-83.315 -140.519)" fill="#29542a"/>
    <path id="Trazado_970170" data-name="Trazado 970170" d="M250.9,227.124a.829.829,0,0,0-.1-.126.837.837,0,0,0-.269-.179.825.825,0,0,0-.479-.047.82.82,0,0,0-.155.047.845.845,0,0,0-.143.076.8.8,0,0,0-.126.1.831.831,0,0,0-.1.126.88.88,0,0,0-.076.143.832.832,0,0,0-.047.155.834.834,0,0,0,0,.324.822.822,0,0,0,.047.155.867.867,0,0,0,.076.143.849.849,0,0,0,.1.126.833.833,0,0,0,.585.243.806.806,0,0,0,.162-.017.831.831,0,0,0,.155-.047.88.88,0,0,0,.143-.076.935.935,0,0,0,.126-.1.891.891,0,0,0,.1-.126.846.846,0,0,0,.076-.143.823.823,0,0,0,.047-.155.825.825,0,0,0-.047-.479A.859.859,0,0,0,250.9,227.124Zm0,0" transform="translate(-228.732 -207.982)" fill="#29542a"/>
    <path id="Trazado_970171" data-name="Trazado 970171" d="M91.664,228.41h9.814a.828.828,0,1,0,0-1.656H91.664a.828.828,0,1,0,0,1.656Zm0,0" transform="translate(-83.315 -207.981)" fill="#29542a"/>
    <path id="Trazado_970172" data-name="Trazado 970172" d="M91.664,301.965H104.79a.828.828,0,1,0,0-1.656H91.664a.828.828,0,1,0,0,1.656Zm0,0" transform="translate(-83.315 -275.446)" fill="#29542a"/>
    <path id="Trazado_970173" data-name="Trazado 970173" d="M101.13,373.859H91.664a.828.828,0,1,0,0,1.656h9.466a.828.828,0,1,0,0-1.656Zm0,0" transform="translate(-83.315 -342.906)" fill="#29542a"/>
    <path id="Trazado_970174" data-name="Trazado 970174" d="M283.091,374.12a19.279,19.279,0,0,0-3.206,5.361l-2.56-1.641a.828.828,0,1,0-.894,1.394l3.408,2.185a.828.828,0,0,0,1.227-.419,19.963,19.963,0,0,1,3.231-5.745.828.828,0,0,0-1.206-1.135Zm0,0" transform="translate(-253.195 -342.906)" fill="#29542a"/>
  </g>
</svg>
