<svg xmlns="http://www.w3.org/2000/svg" width="120" height="120" viewBox="0 0 120 120">
  <g id="Grupo_1116049" data-name="Grupo 1116049" transform="translate(-64 -6445)">
    <rect id="Rect치ngulo_402033" data-name="Rect치ngulo 402033" width="120" height="120" rx="8" transform="translate(64 6445)" fill="#0042db"/>
    <g id="Rect치ngulo_412110" data-name="Rect치ngulo 412110" transform="translate(69 6450)" fill="none" stroke="#fff" stroke-width="1">
      <rect width="110" height="110" rx="6" stroke="none"/>
      <rect x="0.5" y="0.5" width="109" height="109" rx="5.5" fill="none"/>
    </g>
    <g id="Layer_57" transform="translate(76.002 6465.764)">
      <g id="Grupo_1121406" data-name="Grupo 1121406" transform="translate(12.7 0)">
        <circle id="Elipse_13700" data-name="Elipse 13700" cx="6.008" cy="6.008" r="6.008" transform="translate(3.127 33.473)" fill="#f9d0b4"/>
        <path id="Trazado_974390" data-name="Trazado 974390" d="M53.615,164.713l-10.483-.092a1.878,1.878,0,0,1-1.41-.613l-6.131-6.529a3.442,3.442,0,0,0-4.261-.582,3.393,3.393,0,0,0-1.1,4.69,3.347,3.347,0,0,0,.4.521l7.694,8.338a3.385,3.385,0,0,0,2.452,1.042H53.554a3.494,3.494,0,0,0,3.464-2.912,3.367,3.367,0,0,0-2.881-3.832C53.952,164.743,53.769,164.713,53.615,164.713Z" transform="translate(-24.495 -108.464)" fill="#5290db"/>
        <circle id="Elipse_13701" data-name="Elipse 13701" cx="6.008" cy="6.008" r="6.008" transform="translate(55.544 33.473)" fill="#f9d0b4"/>
        <path id="Trazado_974391" data-name="Trazado 974391" d="M162.988,156.946a3.363,3.363,0,0,0-4.261.582l-6.131,6.529a1.927,1.927,0,0,1-1.41.613l-10.483.092a3.388,3.388,0,0,0-3.4,3.372,2.637,2.637,0,0,0,.031.49,3.466,3.466,0,0,0,3.464,2.912h12.782a3.385,3.385,0,0,0,2.452-1.042l7.694-8.338a3.4,3.4,0,0,0-.184-4.813,6.218,6.218,0,0,0-.552-.4Z" transform="translate(-99.106 -108.483)" fill="#818182"/>
        <path id="Trazado_974392" data-name="Trazado 974392" d="M197.718,151.5H191.28a5.141,5.141,0,0,0-5.15,5.15v4.2a1.058,1.058,0,0,0,.276-.245l6.131-6.529a3.406,3.406,0,0,1,5,4.629l-7.694,8.338a3.385,3.385,0,0,1-2.452,1.042H186.1v3.924h16.737V156.619A5.089,5.089,0,0,0,197.718,151.5Z" transform="translate(-132.947 -105.06)" fill="#5b5d60"/>
        <path id="Trazado_974393" data-name="Trazado 974393" d="M21.239,153.592a3.363,3.363,0,0,1,4.261.582L31.63,160.7a1.983,1.983,0,0,0,.276.245v-4.2a5.141,5.141,0,0,0-5.15-5.15H20.35a5.141,5.141,0,0,0-5.15,5.15v15.388H31.937v-3.924H30.649a3.385,3.385,0,0,1-2.452-1.042L20.5,158.834a3.458,3.458,0,0,1,.736-5.242Z" transform="translate(-14.434 -105.129)" fill="#3a70bf"/>
        <path id="Trazado_974394" data-name="Trazado 974394" d="M46.814,48.289,40.745,42.22A3.1,3.1,0,0,0,36.361,46.6l.8.8H21.1a3.1,3.1,0,1,0,0,6.192H37.158l-.828.8a3.1,3.1,0,0,0,4.383,4.383l6.1-6.069a3.062,3.062,0,0,0,.061-4.353C46.875,48.32,46.875,48.289,46.814,48.289Z" transform="translate(-16.375 -28.64)" fill="#fc657e"/>
        <path id="Trazado_974395" data-name="Trazado 974395" d="M167.638,47.391H151.575l.8-.8a3.1,3.1,0,1,0-4.353-4.414l-.031.031L141.92,48.28a3.072,3.072,0,0,0,0,4.383l6.1,6.1A3.1,3.1,0,1,0,152.4,54.38l-.8-.8h16.062a3.1,3.1,0,1,0-.031-6.192Z" transform="translate(-101.672 -28.631)" fill="#70d6f9"/>
        <path id="Trazado_974396" data-name="Trazado 974396" d="M100.973,183.431,98,183.4v6.836h2.881a3.494,3.494,0,0,0,3.464-2.912,3.367,3.367,0,0,0-2.881-3.832,2.683,2.683,0,0,0-.49-.061Z" transform="translate(-71.853 -127.182)" fill="#f9d0b4"/>
        <path id="Trazado_974397" data-name="Trazado 974397" d="M140.6,183.361a3.388,3.388,0,0,0-3.4,3.372,2.637,2.637,0,0,0,.031.49,3.466,3.466,0,0,0,3.464,2.912h2.881V183.3Z" transform="translate(-99.037 -127.112)" fill="#f9d0b4"/>
        <path id="Trazado_974398" data-name="Trazado 974398" d="M27.141,27.918a2.39,2.39,0,0,1-1.9-1.87c0-.031-.092-.031-.092,0a2.39,2.39,0,0,1-1.9,1.87c-.031,0-.031.061,0,.092a2.39,2.39,0,0,1,1.9,1.87c0,.031.092.031.092,0a2.39,2.39,0,0,1,1.9-1.87C27.172,27.979,27.172,27.918,27.141,27.918Z" transform="translate(-19.999 -18.047)" fill="#87d147"/>
        <path id="Trazado_974399" data-name="Trazado 974399" d="M100.18,229.286h-.736v-.705a.982.982,0,0,0-.95-.981h-.031a1,1,0,0,0-.981.95v.736h-.705a.982.982,0,0,0-.981.95v.031a.955.955,0,0,0,.92.981h.766v.705a.982.982,0,0,0,.95.981h.031a1,1,0,0,0,.981-.95v-.736h.705a.982.982,0,0,0,.981-.95v-.031A1,1,0,0,0,100.18,229.286Z" transform="translate(-70.324 -157.833)" fill="#70d6f9"/>
        <circle id="Elipse_13702" data-name="Elipse 13702" cx="1.042" cy="1.042" r="1.042" transform="translate(43.62 76.388)" fill="#f5c84c"/>
        <circle id="Elipse_13703" data-name="Elipse 13703" cx="1.042" cy="1.042" r="1.042" transform="translate(49.444)" fill="#fc657e"/>
        <path id="Trazado_974400" data-name="Trazado 974400" d="M219.275,23.063a3.4,3.4,0,0,1-2.728-2.667c0-.061-.123-.061-.123,0a3.4,3.4,0,0,1-2.728,2.667c-.061,0-.061.092,0,.123a3.4,3.4,0,0,1,2.728,2.667c0,.061.123.061.123,0a3.4,3.4,0,0,1,2.728-2.667C219.336,23.155,219.336,23.063,219.275,23.063Z" transform="translate(-152.052 -14.112)" fill="#f5c84c"/>
        <path id="Trazado_974401" data-name="Trazado 974401" d="M27.174,106.7a6.774,6.774,0,1,0,6.774,6.774A6.777,6.777,0,0,0,27.174,106.7Zm0,12.016a5.242,5.242,0,1,1,5.242-5.242A5.239,5.239,0,0,1,27.174,118.716Z" transform="translate(-18.04 -73.993)"/>
        <path id="Trazado_974402" data-name="Trazado 974402" d="M55,163.634a4.131,4.131,0,0,0-3.127-1.441L41.424,162.1a1.113,1.113,0,0,1-.858-.368L34.435,155.2a4.186,4.186,0,0,0-6.131,5.7L36,169.274a4.152,4.152,0,0,0,3,1.287H51.785A4.163,4.163,0,0,0,55,163.634Zm-.521,3.127a2.731,2.731,0,0,1-2.7,2.268H38.972a2.55,2.55,0,0,1-1.87-.8l-7.694-8.338a2.646,2.646,0,0,1,3.862-3.617l6.131,6.529a2.956,2.956,0,0,0,1.962.858l10.483.092a2.636,2.636,0,0,1,2.636,2.636A1.454,1.454,0,0,1,54.483,166.761Z" transform="translate(-22.756 -106.711)"/>
        <path id="Trazado_974403" data-name="Trazado 974403" d="M198.174,106.7a6.774,6.774,0,1,0,6.774,6.774A6.777,6.777,0,0,0,198.174,106.7Zm0,12.016a5.242,5.242,0,1,1,5.242-5.242A5.239,5.239,0,0,1,198.174,118.716Z" transform="translate(-136.622 -73.993)"/>
        <path id="Trazado_974404" data-name="Trazado 974404" d="M163.545,157.554a4.187,4.187,0,0,0-7.2-2.268l-6.131,6.529a1.179,1.179,0,0,1-.889.368l-10.453.092a4.173,4.173,0,0,0-4.169,4.169,3.71,3.71,0,0,0,.031.582,4.256,4.256,0,0,0,4.23,3.586h12.782a4.1,4.1,0,0,0,3-1.287l7.694-8.338a4.334,4.334,0,0,0,1.1-3.433Zm-2.207,2.36-7.694,8.338a2.618,2.618,0,0,1-1.9.8H138.961a2.68,2.68,0,0,1-2.7-2.268,2.605,2.605,0,0,1,2.207-2.973,1.493,1.493,0,0,1,.368-.031l10.483-.092a2.645,2.645,0,0,0,1.962-.858l6.131-6.529a2.669,2.669,0,0,1,3.924,3.617Z" transform="translate(-97.303 -106.761)"/>
        <path id="Trazado_974405" data-name="Trazado 974405" d="M195.915,149h-6.437a5.9,5.9,0,0,0-5.916,5.916v4.2a.759.759,0,0,0,.766.766.732.732,0,0,0,.429-.153,2.109,2.109,0,0,0,.4-.337l6.131-6.529a2.646,2.646,0,0,1,3.862,3.617l-7.694,8.338a2.618,2.618,0,0,1-1.9.8h-1.287a.759.759,0,0,0-.766.766V170.3a.766.766,0,0,0,1.533,0v-3.157h.49a4.221,4.221,0,0,0,3.035-1.287l7.694-8.338a4.139,4.139,0,0,0-.245-5.885,4.294,4.294,0,0,0-2.452-1.1h2.268a4.383,4.383,0,0,1,4.383,4.383V170.3a.766.766,0,0,0,1.533,0V154.916A5.784,5.784,0,0,0,195.915,149Zm-5.732,2.82-5.119,5.426v-2.33a4.383,4.383,0,0,1,4.383-4.383h3.372A4.232,4.232,0,0,0,190.182,151.82Z" transform="translate(-131.144 -103.326)"/>
        <path id="Trazado_974406" data-name="Trazado 974406" d="M19.9,152.433a2.691,2.691,0,0,1,3.311.429l6.131,6.529a2.111,2.111,0,0,0,.4.337.78.78,0,0,0,1.073-.184.732.732,0,0,0,.153-.429v-4.2A5.9,5.9,0,0,0,25.053,149H18.616a5.92,5.92,0,0,0-5.916,5.916V170.3a.766.766,0,0,0,1.533,0V154.916a4.383,4.383,0,0,1,4.383-4.383h2.268a4.182,4.182,0,0,0-3.77,4.537,4.085,4.085,0,0,0,1.073,2.422l7.694,8.368a4.152,4.152,0,0,0,3,1.287h.521V170.3a.766.766,0,0,0,1.533,0V166.38a.759.759,0,0,0-.766-.766H28.885a2.55,2.55,0,0,1-1.87-.8l-7.694-8.338a2.657,2.657,0,0,1,.153-3.74,3.721,3.721,0,0,1,.429-.307Zm5.15-1.9a4.383,4.383,0,0,1,4.383,4.383v2.33l-5.119-5.426a4.234,4.234,0,0,0-2.667-1.287Z" transform="translate(-12.7 -103.326)"/>
        <path id="Trazado_974407" data-name="Trazado 974407" d="M45.562,46.052l-6.1-6.1a3.865,3.865,0,0,0-5.885,4.966H19.292a3.862,3.862,0,1,0-.061,7.725H33.577a3.863,3.863,0,0,0,5.885,4.966l6.1-6.1a3.867,3.867,0,0,0,0-5.456Zm-1.073,4.383-6.1,6.1a2.341,2.341,0,0,1-3.311-3.311l.8-.8a.751.751,0,0,0-.552-1.287H19.292a2.33,2.33,0,0,1-.061-4.659H35.324a.759.759,0,0,0,.766-.766.881.881,0,0,0-.215-.552l-.8-.8a2.341,2.341,0,1,1,3.28-3.341l.031.031,6.1,6.1A2.3,2.3,0,0,1,44.489,50.435Z" transform="translate(-14.571 -26.924)"/>
        <path id="Trazado_974408" data-name="Trazado 974408" d="M165.852,44.919H151.568a3.877,3.877,0,0,0-5.916-4.966l-6.1,6.1a3.867,3.867,0,0,0,0,5.456l6.1,6.1a3.865,3.865,0,0,0,5.885-4.966h14.284a3.862,3.862,0,0,0,.061-7.725h-.031Zm0,6.192H149.79a.759.759,0,0,0-.766.766.881.881,0,0,0,.215.552l.8.8a2.341,2.341,0,1,1-3.311,3.311l-6.1-6.1a2.331,2.331,0,0,1,0-3.311l6.131-6.1a2.341,2.341,0,0,1,3.311,3.311l-.8.8a.751.751,0,0,0,.552,1.287h16.062a2.33,2.33,0,1,1,.061,4.659.237.237,0,0,1-.092.031Z" transform="translate(-99.886 -26.925)"/>
        <path id="Trazado_974409" data-name="Trazado 974409" d="M141.667,20.661a.756.756,0,0,0-1.042.276l-1.563,2.728a.762.762,0,1,0,1.318.766l1.563-2.728A.756.756,0,0,0,141.667,20.661Z" transform="translate(-100.254 -14.255)"/>
        <path id="Trazado_974410" data-name="Trazado 974410" d="M126.266,16.1a.759.759,0,0,0-.766.766v3.157a.766.766,0,0,0,1.533,0V16.866A.779.779,0,0,0,126.266,16.1Z" transform="translate(-90.923 -11.165)"/>
        <path id="Trazado_974411" data-name="Trazado 974411" d="M110.043,23.665l-1.563-2.728a.762.762,0,0,0-1.318.766l1.563,2.728a.756.756,0,0,0,1.042.276A.776.776,0,0,0,110.043,23.665Z" transform="translate(-78.132 -14.255)"/>
        <path id="Trazado_974412" data-name="Trazado 974412" d="M141.943,111.265l-1.563-2.728a.762.762,0,1,0-1.318.766l1.563,2.728a.762.762,0,1,0,1.318-.766Z" transform="translate(-100.254 -75.002)"/>
        <path id="Trazado_974413" data-name="Trazado 974413" d="M126.266,111.2a.759.759,0,0,0-.766.766v3.157a.766.766,0,0,0,1.533,0v-3.157A.759.759,0,0,0,126.266,111.2Z" transform="translate(-90.923 -77.113)"/>
        <path id="Trazado_974414" data-name="Trazado 974414" d="M109.667,108.261a.756.756,0,0,0-1.042.276l-1.563,2.728a.762.762,0,1,0,1.318.766l1.563-2.728A.756.756,0,0,0,109.667,108.261Z" transform="translate(-78.063 -75.002)"/>
        <path id="Trazado_974415" data-name="Trazado 974415" d="M102.366,182.441A4.131,4.131,0,0,0,99.24,181H96.266a.881.881,0,0,0-.552.215.739.739,0,0,0-.215.552V188.6a.759.759,0,0,0,.766.766h2.881a4.163,4.163,0,0,0,3.219-6.928Zm-.521,3.127a2.731,2.731,0,0,1-2.7,2.268H97.033v-5.3l2.207.031a2.636,2.636,0,0,1,2.636,2.636c0,.092-.031.215-.031.368Z" transform="translate(-70.119 -125.517)"/>
        <path id="Trazado_974416" data-name="Trazado 974416" d="M142.394,181.215a.739.739,0,0,0-.552-.215l-2.973.031A4.173,4.173,0,0,0,134.7,185.2a3.71,3.71,0,0,0,.031.582,4.256,4.256,0,0,0,4.23,3.586h2.881a.759.759,0,0,0,.766-.766v-6.836A.64.64,0,0,0,142.394,181.215Zm-1.287,6.59h-2.115a2.68,2.68,0,0,1-2.7-2.268,2.605,2.605,0,0,1,2.207-2.973,1.492,1.492,0,0,1,.368-.031l2.207-.031Z" transform="translate(-97.303 -125.517)"/>
      </g>
    </g>
  </g>
</svg>
