<svg xmlns="http://www.w3.org/2000/svg" xmlns:xlink="http://www.w3.org/1999/xlink" width="184" height="149" viewBox="0 0 184 149">
  <defs>
    <clipPath id="clip-path">
      <rect id="Rectángulo_416733" data-name="Rectángulo 416733" width="155.559" height="128.579" fill="none"/>
    </clipPath>
  </defs>
  <g id="Grupo_1117976" data-name="Grupo 1117976" transform="translate(-1147.711 -7215)">
    <rect id="Rectángulo_416006" data-name="Rectángulo 416006" width="184" height="149" transform="translate(1147.711 7215)" fill="#8bc34a"/>
    <g id="Grupo_1119343" data-name="Grupo 1119343" transform="translate(1161.932 7225.21)">
      <g id="Grupo_1119343-2" data-name="Grupo 1119343" clip-path="url(#clip-path)">
        <path id="Trazado_970250" data-name="Trazado 970250" d="M85.529,120.356l-83.541.484C-6.592,85.648,19,74.725,17.325,50.915,13.318-5.771,98.871-5.771,114.286,27.449c11.768,25.352,5.544,23.377,25.856,38.459,28.051,20.835,10.841,45.786.464,55.118Z" transform="translate(0.146 3.19)" fill="#d6f2e7"/>
        <path id="Trazado_970251" data-name="Trazado 970251" d="M143.255,75.589c0,2.57-5.873,5.879-62.9,5.879S0,79.45,0,76.88s23.337-4.722,80.358-4.722,62.9.858,62.9,3.431" transform="translate(0 47.11)" fill="#bee4d7"/>
        <path id="Trazado_970252" data-name="Trazado 970252" d="M36.737,47.293c.562-1.6,1.43-4.329,5.894-3.532s13.449-4.654,12.5-13.785,4.522-8.306,2.57-14.327c-1.415-4.36-8.1-5.44-10.783-2.64s-8.8.843-9.013,8.154c-.258,8.775-13.511,7.145-6.631,17.165,3.086,4.494,2.018,10.595-1.643,18.221l2.05,1.626s4.392-8.982,5.053-10.883" transform="translate(19.129 7.485)" fill="#0d5d42"/>
        <path id="Trazado_970253" data-name="Trazado 970253" d="M40.688,47.124c.972-1.4,2.531-3.793,6.625-1.833s14.2-.894,15.73-9.944,14.218-8.226,9.572-14.985-9.778-1.347-13.106.631-5.425-.021-10.716,1.256c-8.532,2.063-12.749,9.578-10.972,14.773,1.762,5.162-.886,10.754-6.445,17.122l1.534,2.114s6.635-7.483,7.777-9.135" transform="translate(20.485 11.14)" fill="#0a3c33"/>
        <path id="Trazado_970254" data-name="Trazado 970254" d="M39.635,46.2c1.311-1.086,3.387-3.2,6.8-.218S57.229,53.3,61.13,44.99,77.036,40.88,74.373,33.116s-9.059-3.916-12.8-2.9-6.026-4.532-10.658-1.666-6.506,4.731-9.269,9.479-2.512,6.8-9.582,11.438l1.064,1.464s4.959-3.448,6.5-4.734" transform="translate(20.935 18.095)" fill="#0d5d42"/>
        <path id="Trazado_970255" data-name="Trazado 970255" d="M43.794,51.647s2.545-9.585-10.307-14.175c-3.145-1.124-9.727-2.112-9.838,9.016s1.673,8.709-.112,11.127,3.3-2.378,5.359-2.117,12.744,6.289,14.9-3.851" transform="translate(15.123 24.039)" fill="#da2222"/>
        <path id="Trazado_970256" data-name="Trazado 970256" d="M77.546,35.7s1.656-8.572-12.3-8.22S53.109,40.472,55.335,50.9,62.18,68.791,70.48,68.781c5.992-.01,9.112-26.6,7.066-33.077" transform="translate(35.13 17.937)" fill="#ffc001"/>
        <path id="Trazado_970257" data-name="Trazado 970257" d="M68.25,35.7s1.656-8.572-12.3-8.22S43.812,40.472,46.038,50.9s6.838,17.892,15.145,17.882c5.988-.01,9.112-26.6,7.066-33.077" transform="translate(29.06 17.937)" fill="#fec746"/>
        <path id="Trazado_970258" data-name="Trazado 970258" d="M56.364,39.224s-1.426-8.61,12.509-7.892S80.669,44.637,78.167,55,70.859,72.7,62.559,72.475c-5.985-.164-8.407-26.826-6.195-33.251" transform="translate(36.272 20.428)" fill="#e8a603"/>
        <path id="Trazado_970259" data-name="Trazado 970259" d="M65.744,40.031s1.659-8.572-12.3-8.223S41.31,44.8,43.536,55.223s7.474,16.939,15.78,16.927c5.988-.01,8.478-25.646,6.428-32.119" transform="translate(27.427 20.76)" fill="#e8a603"/>
        <path id="Trazado_970260" data-name="Trazado 970260" d="M53.207,31.618s-3.1,1.459-1.256,2.046,1.066,2.387,6.34,2.2,10.1-2.149,7.6-3.4a17.089,17.089,0,0,0-12.684-.84" transform="translate(33.536 20.099)" fill="#a6b900"/>
        <path id="Trazado_970261" data-name="Trazado 970261" d="M49.3,40.563s-1.188-8.707,12.752-7.993S76.462,43.422,73.956,53.786,65.378,73.8,59.662,72.012,47.08,46.981,49.3,40.563" transform="translate(31.906 21.237)" fill="#ffc001"/>
        <path id="Trazado_970262" data-name="Trazado 970262" d="M55.076,36.453A18.174,18.174,0,0,1,62.43,24.666s-.1,1.243,1.721,1.063-10.1,8.048-7.6,10.724Z" transform="translate(35.958 16.104)" fill="#a6b900"/>
        <path id="Trazado_970263" data-name="Trazado 970263" d="M17.224,32.131s-6.7-5.9-4.64-9.426c0,0,1.564.871,2.218-.255s1.4,7.851,3.977,7.517Z" transform="translate(7.959 14.593)" fill="#795144"/>
        <path id="Trazado_970264" data-name="Trazado 970264" d="M15.429,32.9s4.914-8.109,11.6-3.421S36.368,40.069,47.288,41.4,66.675,45.424,69.1,55.318c2.321,9.443-.859,21.491-22.23,19.058C28.713,72.307,8.221,49.566,15.429,32.9" transform="translate(9.106 18.293)" fill="#fca09f"/>
        <path id="Trazado_970265" data-name="Trazado 970265" d="M46.859,72.578c21.223,2.415,24.5-9.443,22.276-18.859-4.111,7.021-12.795,9.369-17.73,7.96C43.38,59.39,46,56.043,48.821,50.959s-6.342-4.311-16.489-2.666-13.9-17.52-13.9-17.52a11.6,11.6,0,0,1-3.2.817C8.626,48.212,28.884,70.525,46.859,72.578" transform="translate(9.112 20.09)" fill="#ea8b8b"/>
        <path id="Trazado_970266" data-name="Trazado 970266" d="M19.468,26.394c-2.382.992-6.14,3.212-5.616,8.664s.783,8.532-1.334,10.448,6.392-1.479,8.474-7.193,4.064,3.526,4.074,4.711,3.289-4.071,3.025-6.909,4.288,1.617,9.488-.084c0,0-6.909-3.493-8.355-6.327s-6.253-4.765-9.755-3.309" transform="translate(7.953 16.907)" fill="#0a3c33"/>
        <path id="Trazado_970267" data-name="Trazado 970267" d="M13.851,34.491c.519,5.45.785,8.534-1.334,10.448-2.076,1.876,6.051-1.347,8.339-6.846-1.278-4.307,1.845-7.051,2.821-8.843,1.056-1.924-2.937.288-5.64,1.23-1.527.532-1.084-1.691-.413-3.714a7.62,7.62,0,0,0-3.774,7.726" transform="translate(7.952 17.474)" fill="#0d5d42"/>
        <path id="Trazado_970268" data-name="Trazado 970268" d="M61.583,60.484S59.2,57.158,61.1,54.793s3.6-3.616,3.554-5.7,2.98-4.342,4.327-3.9,5.59,3.15,4.251,7.739,1.256,8.431-1.421,9.633-4.479,1.152-5.58-.355-2.39.281-4.65-1.721" transform="translate(39.411 29.466)" fill="#5e9a20"/>
        <path id="Trazado_970269" data-name="Trazado 970269" d="M63.611,51.219,78.436,56.09l-.342-2.317L64.467,48.029Z" transform="translate(41.53 31.357)" fill="#5e9a20"/>
        <path id="Trazado_970270" data-name="Trazado 970270" d="M85.648,57.068c-.174-1.334-3.526-1.988-4.684-2.689-3.831-2.327-12.509-12.851-12.509-12.851l-1.24,2.266L78.644,54.715,67.511,48.639l-.355,2.615,10.676,6.97-.055,1.507L70.695,58l0,2.945,7.329.783-.375,1.221-16.5-2.479-.261,3S75.6,65.926,81.956,65.756c2.359-.064,4.489-2.722,3.693-8.688" transform="translate(39.75 27.113)" fill="#0d5d42"/>
        <path id="Trazado_970271" data-name="Trazado 970271" d="M59.115,56.8s-4.359-1.488-2.673-3.6-1.514-5.064-.782-6.734,4.392-4.445,6.167-2.967,1.646-.02,2.988-1.6,4.033-2.256,5.337-.564,2.666,7.253.264,10.4-5,3.331-4.007,5.749-.5,5.172-3.7,4.491-3.691-2.722-3.6-5.172" transform="translate(36.267 26.337)" fill="#0a3c33"/>
        <path id="Trazado_970272" data-name="Trazado 970272" d="M61.813,52.58S59.3,59.3,65.229,58.443c2.825-.407,4.78.993,4.382-1.534s3.838,0,1.552-6.081c-.532-1.4,1.775-1.347,2.319-2.339,1.088-1.992.874-3.3.238-5.258s-3.952-5.621-5.8-3.167-3.788,5.084-2.228,6.4S62.231,50.3,61.813,52.58" transform="translate(40.011 25.622)" fill="#0d5d42"/>
        <path id="Trazado_970273" data-name="Trazado 970273" d="M60.313,63.934s-2.7-3.083-1.02-5.62,3.241-3.939,3-6.015,2.547-4.6,3.932-4.3,7.454,3.038,6.557,7.732.464,7.845-2.089,9.294-4.349,1.572-5.588.179-2.349.506-4.787-1.273" transform="translate(38.352 31.323)" fill="#0a3c33"/>
        <path id="Trazado_970274" data-name="Trazado 970274" d="M32.913,56.948a6.986,6.986,0,0,1,3.177,1.362c1.253.937,6.564,1.767,6.086-1.517s-3.509-2.253-6.19-1.63c-6.426,1.494-10.188-2.676-10.826-2.519a14.512,14.512,0,0,0,7.754,4.3" transform="translate(16.426 34.367)" fill="#e3f0d1"/>
        <path id="Trazado_970275" data-name="Trazado 970275" d="M39.655,62.508s-9.307-1.42-13.669-14.388c0,0-3.621-8.165-9.922-1.155S29.141,64,39.655,62.508" transform="translate(9.683 28.807)" fill="#0a3c33"/>
        <rect id="Rectángulo_416731" data-name="Rectángulo 416731" width="64.275" height="41.502" transform="translate(21.509 80.446)" fill="#788eef"/>
        <rect id="Rectángulo_416732" data-name="Rectángulo 416732" width="50.657" height="41.502" transform="translate(72.441 80.446)" fill="#5a70e0"/>
        <path id="Trazado_970276" data-name="Trazado 970276" d="M44.076,48.67h0L55.4,62.3l38.907-.071L94.143,48.67Z" transform="translate(28.776 31.775)" fill="#3e59c6"/>
        <path id="Trazado_970277" data-name="Trazado 970277" d="M94.143,48.67,106.93,58.977H54.565L44.076,48.67Z" transform="translate(28.776 31.775)" fill="#788eef"/>
        <path id="Trazado_970278" data-name="Trazado 970278" d="M63.943,48.67,60.3,62.3H13.014V48.67Z" transform="translate(8.497 31.775)" fill="#3e59c6"/>
        <path id="Trazado_970279" data-name="Trazado 970279" d="M18.152,48.67,5.143,58.977H58.415L69.081,48.67Z" transform="translate(3.358 31.775)" fill="#5a70e0"/>
        <path id="Trazado_970280" data-name="Trazado 970280" d="M85.9,60.409a1.24,1.24,0,0,1-1.314,1.149H49.742a1.162,1.162,0,1,1,0-2.3H84.588A1.24,1.24,0,0,1,85.9,60.409" transform="translate(31.618 38.686)" fill="#3e59c6"/>
        <path id="Trazado_970281" data-name="Trazado 970281" d="M84.666,60.409a1.243,1.243,0,0,0-1.317-1.155H49.742a1.162,1.162,0,1,0,0,2.3H83.348a1.243,1.243,0,0,0,1.317-1.149" transform="translate(31.618 38.686)" fill="#788eef"/>
        <path id="Trazado_970282" data-name="Trazado 970282" d="M85.9,63.036a1.24,1.24,0,0,1-1.314,1.149H49.742a1.162,1.162,0,1,1,0-2.3H84.588A1.238,1.238,0,0,1,85.9,63.036" transform="translate(31.618 40.401)" fill="#3e59c6"/>
        <path id="Trazado_970283" data-name="Trazado 970283" d="M84.666,63.036a1.241,1.241,0,0,0-1.317-1.155H49.742a1.162,1.162,0,1,0,0,2.3H83.348a1.243,1.243,0,0,0,1.317-1.149" transform="translate(31.618 40.401)" fill="#788eef"/>
        <path id="Trazado_970284" data-name="Trazado 970284" d="M60.819,30.6s-20.352,8.2-25.868-8.729C31.165,10.259,29.915,6.79,23.8,0c0,0,44.727.684,37.018,30.6" transform="translate(15.539)" fill="#519d45"/>
        <path id="Trazado_970285" data-name="Trazado 970285" d="M61.344,64.13s-21.162,5.8-24.692-11.648C34.23,40.506,33.393,36.912,28.1,29.466c0,0,44.353,5.836,33.248,34.664" transform="translate(18.343 19.238)" fill="#519d45"/>
        <path id="Trazado_970286" data-name="Trazado 970286" d="M54.373,48.5s-7.34-20.671,9.795-25.477c11.767-3.3,15.283-4.4,22.324-10.225,0,0-2.554,44.657-32.119,35.7" transform="translate(34.479 8.358)" fill="#519d45"/>
        <path id="Trazado_970287" data-name="Trazado 970287" d="M52.92,107.96S74.408,19.992,31.742,7.68c0,0,19.135,1.1,27.828,23.663,6.828,17.724,8.24,60.735,3.159,76.617Z" transform="translate(20.724 5.014)" fill="#0d5d42"/>
        <path id="Trazado_970288" data-name="Trazado 970288" d="M29.463,81.366s3.241-8.284,9.527-9.088,9.826-8.335,14.7-6.564A70.272,70.272,0,0,0,70.975,69.7c5.764.443,14.808,8.236,13.917,11.339s-29.725,4.845-55.429.326" transform="translate(19.236 42.728)" fill="#39021f"/>
        <path id="Trazado_970289" data-name="Trazado 970289" d="M49.836,59.4S51.6,30.651,73.813,25.125c0,0-19.163,11.554-19.945,35.818Z" transform="translate(32.537 16.404)" fill="#0d5d42"/>
        <path id="Trazado_970290" data-name="Trazado 970290" d="M58.757,69.518S57,40.764,34.787,35.237c0,0,19.157,11.557,19.94,35.821Z" transform="translate(22.712 23.005)" fill="#0d5d42"/>
        <path id="Trazado_970291" data-name="Trazado 970291" d="M82.045,39.977a2.19,2.19,0,0,0-3.174.926c-1.491,2.312-2.712,8.264-6.117,9.995s-5.565.331-7.142-.418-1.85-1.787-2.812-2.126-1.314.823.917,2.628c1.068.863,5.833,5.754,10.269,4.443C79.8,53.7,84.94,41.914,82.045,39.977" transform="translate(40.513 25.871)" fill="#e67052"/>
        <path id="Trazado_970292" data-name="Trazado 970292" d="M47.36,44.809c-.236.509.362,1.76,1.762,1.37a3.9,3.9,0,0,1,2-.226s-2.75-3.3-3.757-1.144" transform="translate(30.887 28.779)" fill="#5a70e0"/>
        <path id="Trazado_970293" data-name="Trazado 970293" d="M46.537,48.652a1.259,1.259,0,0,0,2.033-.917,3.887,3.887,0,0,1,.737-1.866s-4.2.883-2.77,2.783" transform="translate(30.189 29.947)" fill="#5a70e0"/>
        <path id="Trazado_970294" data-name="Trazado 970294" d="M63.742,45.163s-1.6-5.491-4.84-4.383S54.209,44.73,55.924,48l1.4-.6s-1.752-3.583.871-4.714,4.124,2.879,4.124,2.879Z" transform="translate(36.037 26.528)" fill="#c7e0ef"/>
        <path id="Trazado_970295" data-name="Trazado 970295" d="M62.014,45.5s6.321-7.319,9.888-1.4,3.782,11.6-4.838,13.324l-.456-1.076s7.977-2.307,5.812-7.428-3.851-7.056-10-2.463Z" transform="translate(40.488 27.286)" fill="#c7e0ef"/>
        <path id="Trazado_970296" data-name="Trazado 970296" d="M66.523,43.7C63.8,42.116,55.268,44.28,54.5,47.468c-.85,3.512,1.539,12,2.321,14.259s12.61-1.288,15.889-3.4c3.183-2.059-2.76-12.62-6.188-14.618" transform="translate(35.465 28.185)" fill="#c7e0ef"/>
        <path id="Trazado_970297" data-name="Trazado 970297" d="M59.76,52.092l-.162-.159-6.388-6.22-3.547,2.43L60,57.887Z" transform="translate(32.424 29.845)" fill="#c7e0ef"/>
        <path id="Trazado_970298" data-name="Trazado 970298" d="M53.2,44.74s.8.329.8.939a3.988,3.988,0,0,1-1.626,2.428c-.674.284-2.2,1.531-3.083.707s2.6-3.878,3.912-4.074" transform="translate(32.086 29.21)" fill="#c7e0ef"/>
        <path id="Trazado_970299" data-name="Trazado 970299" d="M48.823,51.635a1.259,1.259,0,0,0,.745-2.1,3.87,3.87,0,0,1-.843-1.825s-2.266,3.648.1,3.926" transform="translate(31.173 31.148)" fill="#5a70e0"/>
        <path id="Trazado_970300" data-name="Trazado 970300" d="M47.141,54.285a1.263,1.263,0,0,0,.745-2.1,3.887,3.887,0,0,1-.846-1.821s-2.263,3.648.1,3.926" transform="translate(30.074 32.878)" fill="#5a70e0"/>
        <path id="Trazado_970301" data-name="Trazado 970301" d="M49.961,55.978a1.263,1.263,0,0,0-.094-2.231,3.866,3.866,0,0,1-1.461-1.375s-.744,4.23,1.555,3.607" transform="translate(31.528 34.192)" fill="#5a70e0"/>
        <path id="Trazado_970302" data-name="Trazado 970302" d="M47.416,58.39a1.262,1.262,0,0,0,.846-2.066,3.872,3.872,0,0,1-.752-1.863S45.072,58,47.416,58.39" transform="translate(30.292 35.556)" fill="#5a70e0"/>
        <path id="Trazado_970303" data-name="Trazado 970303" d="M69.465,72.564c.522,7.364,3.251,18.811,3.635,25.01.03.43.091.509-1.478.871-1.815.417-.417,1.286,2.426,1.259,2.668-.02,3.861-11.618,4.117-17.752.071-1.724-.6-6.942.316-11.858.109,1.84.268,3.929.5,6.226.678,6.712,8.689,15.512,9.288,21.158.048.436-.007.6-1.415,1.04s-.041,1.25,2.4,1.182.949-11.75-.317-17.223c-1.107-4.783-1.765-9.311-3.187-21.955l.017-.007-.017,0c-.012-.116-.025-.22-.035-.336-.251-4.453-.593-7.3,1.626-11.235,3.19-5.643-1.3-7.367-4-8.481s-10.253-2.154-11.053,2.208c-.674,3.689,2.621,9.121.512,14.788a28.22,28.22,0,0,0-3.334,15.1" transform="translate(45.309 25.785)" fill="#f27851"/>
        <path id="Trazado_970304" data-name="Trazado 970304" d="M75.019,75.078s-2.124.927-3.431,0c0,0-2.388.355-.888,1s4.41,1.17,4.319-1" transform="translate(45.835 49.017)" fill="#7585f8"/>
        <path id="Trazado_970305" data-name="Trazado 970305" d="M83.937,75.2s-2.121.929-3.428,0c0,0-2.392.359-.884,1s4.407,1.17,4.312-1" transform="translate(51.66 49.1)" fill="#7585f8"/>
        <path id="Trazado_970306" data-name="Trazado 970306" d="M72.074,51.25c4.851,3.57,11.1,2.459,13.749,1.9.717,6.364,1.24,10.947,1.731,14.228a28,28,0,0,1-8.573,1.259c-.23-2.293-.388-4.378-.5-6.218A34.1,34.1,0,0,0,78,68.635c-3.464-.056-6.727-.626-8.345-1.851-.081-.651-.145-1.291-.19-1.894a27.885,27.885,0,0,1,2.608-13.64" transform="translate(45.31 33.46)" fill="#ffc001"/>
        <path id="Trazado_970307" data-name="Trazado 970307" d="M83.2,45.756s2.577-7.312-5.669-.484c-1.21,1-.688,5.823-.688,5.823l3.423,1.8Z" transform="translate(50.095 27.655)" fill="#e67052"/>
        <path id="Trazado_970308" data-name="Trazado 970308" d="M83.8,40.791S80.5,47.775,75.65,46.715c-1.458-.316-2.6-2.377,1.869-7.347l-1.617.364a32,32,0,0,0-5.7,12.681c-1.387,7.319-.012,10.658-.012,10.658s1.474,1.261,8.164,1.859a19.8,19.8,0,0,0,7.729-.631s-.937-8.39-.4-11.249c0,0-3.962,0-3.549-5.3A9.389,9.389,0,0,1,85.093,41.3Z" transform="translate(45.43 25.702)" fill="#ff2e56"/>
        <path id="Trazado_970309" data-name="Trazado 970309" d="M79.625,37.742s-1.559,2.012-.241,3.56c1.342,1.592-5.706,3.529-5.256,2.255.58-1.653,1.666-2.461,1.278-4.6Z" transform="translate(48.382 24.641)" fill="#e67052"/>
        <path id="Trazado_970310" data-name="Trazado 970310" d="M77.32,34.834c-1.744,1.036-4.63,6.663-3.412,8.316.532.724,3.388.684,5.7-1.555a5.129,5.129,0,0,0,1.63-5.023c-.284-1.033-1.883-2.942-3.916-1.737" transform="translate(48.063 22.491)" fill="#f27851"/>
        <path id="Trazado_970311" data-name="Trazado 970311" d="M81.037,56.045c.362-1.081-.18-1.747-1.978-1.982-2.661-.355-6.79-2.2-4.569-1.775a22.006,22.006,0,0,0,7.81,0c2.527-.514,3.147-4.643,3.147-4.643-.539,2.859.4,11.251.4,11.251a19.865,19.865,0,0,1-7.729.631c-6.688-.6-8.164-1.863-8.164-1.863,8.848,1.321,10.785-.719,11.086-1.62" transform="translate(45.669 31.106)" fill="#ed2051"/>
        <path id="Trazado_970312" data-name="Trazado 970312" d="M74.971,35.463c-.488.674-.43.868,1.747,1.717s2.6.788,2.246,1.276c-1.026,1.43.65,1.474-.593,3.178s.9.975,2.076-.377A4.373,4.373,0,0,0,81.4,37.09c-.669-3.025-4.633-4.112-6.428-1.626" transform="translate(48.784 22.255)" fill="#39021f"/>
        <path id="Trazado_970313" data-name="Trazado 970313" d="M79.2,39.428s-.455.468-1.579,0-2.666-2.018-3.3-1.957-1.425,3.339-.284,4.124,4.577.012,5.721-1.378c.245-.294-.559-.788-.559-.788" transform="translate(47.959 24.463)" fill="#39021f"/>
        <path id="Trazado_970314" data-name="Trazado 970314" d="M75.656,39.454s-.281-1.053-1.036-1.274-.82.726-.722,1.074,1.129,1.21,1.759,1.013.142-.441,0-.813" transform="translate(48.222 24.906)" fill="#f27851"/>
        <path id="Trazado_970315" data-name="Trazado 970315" d="M80.97,37.085a4.309,4.309,0,0,1-.952,4.167,7.279,7.279,0,0,1-3.225,2.3c-.149.078.929-.613.787-1.071-.16-.552,1.321-.417,1.215-1.835s.833-1.5.881-2.7-.859-1.17-3.312-2.131c-1-.393-1.107-.831-.891-1.23a3.8,3.8,0,0,1,5.5,2.5" transform="translate(49.213 22.26)" fill="#39021f"/>
        <path id="Trazado_970316" data-name="Trazado 970316" d="M89.352,42.111a2.442,2.442,0,0,0-3.407.159c-2.149,1.917-3.45,8.668-7.134,10.337s-5.975.142-7.638-.691S69.224,50,68.2,49.616s-1.423.8.931,2.75c1.129.934,6.137,6.175,10.911,4.975,6.263-1.578,12.372-13.114,9.311-15.231" transform="translate(43.998 27.09)" fill="#e67052"/>
      </g>
    </g>
  </g>
</svg>
