<svg xmlns="http://www.w3.org/2000/svg" width="85" height="85" viewBox="0 0 85 85">
  <g id="Grupo_1118013" data-name="Grupo 1118013" transform="translate(-199.282 -497)">
    <rect id="Rectángulo_412256" data-name="Rectángulo 412256" width="85" height="85" rx="5" transform="translate(199.282 497)" fill="#8bc34a"/>
    <g id="Grupo_1118899" data-name="Grupo 1118899" transform="translate(215.783 513.5)">
      <g id="Grupo_1118888" data-name="Grupo 1118888">
        <g id="Grupo_1118856" data-name="Grupo 1118856">
          <g id="Grupo_1118854" data-name="Grupo 1118854">
            <path id="Trazado_969165" data-name="Trazado 969165" d="M34.346,12.43V46.461a2.574,2.574,0,0,1-2.57,2.579H5A2.575,2.575,0,0,1,2.42,46.461V12.43A2.581,2.581,0,0,1,5,9.852H31.776a2.579,2.579,0,0,1,2.57,2.579Z" fill="#e4f1ff"/>
          </g>
          <g id="Grupo_1118855" data-name="Grupo 1118855" opacity="0.03">
            <path id="Trazado_969166" data-name="Trazado 969166" d="M34.346,12.42V46.461a2.574,2.574,0,0,1-2.57,2.579H5A2.575,2.575,0,0,1,2.42,46.461v-.868a28.419,28.419,0,0,0,20.141-8.338A28.418,28.418,0,0,0,30.9,17.114V9.85h.877a2.572,2.572,0,0,1,2.57,2.57Z"/>
          </g>
        </g>
        <g id="Grupo_1118863" data-name="Grupo 1118863">
          <g id="Grupo_1118857" data-name="Grupo 1118857">
            <path id="Trazado_969167" data-name="Trazado 969167" d="M27.026,7.371H24.147l-.383-.882A5.867,5.867,0,0,0,13,6.489l-.383.882H9.74a.8.8,0,0,0-.8.8v3.555a.8.8,0,0,0,.8.8H27.026a.8.8,0,0,0,.8-.8V8.173a.8.8,0,0,0-.8-.8Z" fill="#828fff"/>
          </g>
          <g id="Grupo_1118858" data-name="Grupo 1118858" opacity="0.07">
            <path id="Trazado_969168" data-name="Trazado 969168" d="M27.825,8.168v3.558a.8.8,0,0,1-.8.8H9.737a.8.8,0,0,1-.8-.8v-1.4H21.27A4.355,4.355,0,0,0,25.4,7.368h1.629a.8.8,0,0,1,.8.8Z"/>
          </g>
          <g id="Grupo_1118860" data-name="Grupo 1118860">
            <g id="Grupo_1118859" data-name="Grupo 1118859">
              <path id="Trazado_969169" data-name="Trazado 969169" d="M21.272,7.961H15.491a.36.36,0,0,1-.331-.5l.131-.3A3.371,3.371,0,0,1,19.2,5.227a3.458,3.458,0,0,1,2.316,2.029l.087.209a.36.36,0,0,1-.331.5Z" fill="#fff"/>
            </g>
          </g>
          <g id="Grupo_1118862" data-name="Grupo 1118862" opacity="0.07">
            <g id="Grupo_1118861" data-name="Grupo 1118861">
              <path id="Trazado_969170" data-name="Trazado 969170" d="M21.27,7.958H15.493a.355.355,0,0,1-.33-.49l.04-.1H20.27a.365.365,0,0,0,.34-.5l-.09-.21a3.54,3.54,0,0,0-.969-1.319,3.5,3.5,0,0,1,1.969,1.919l.08.21a.355.355,0,0,1-.33.49Z"/>
            </g>
          </g>
        </g>
        <g id="Grupo_1118887" data-name="Grupo 1118887">
          <g id="Grupo_1118868" data-name="Grupo 1118868">
            <g id="Grupo_1118864" data-name="Grupo 1118864">
              <path id="Trazado_969171" data-name="Trazado 969171" d="M24.662,15.766v4.8a.477.477,0,0,0,.483.483h4.8a.477.477,0,0,0,.483-.483v-4.8a.477.477,0,0,0-.483-.483h-4.8a.477.477,0,0,0-.483.483Z" fill="#f6c560"/>
            </g>
            <g id="Grupo_1118867" data-name="Grupo 1118867">
              <g id="Grupo_1118865" data-name="Grupo 1118865">
                <path id="Trazado_969172" data-name="Trazado 969172" d="M6.338,16.8v2.743a.413.413,0,0,0,.418.406H21.734a.4.4,0,0,0,.406-.406V16.8a.413.413,0,0,0-.406-.418H6.756a.423.423,0,0,0-.418.418Z" fill="#c7d6e5"/>
              </g>
              <g id="Grupo_1118866" data-name="Grupo 1118866" opacity="0.05">
                <path id="Trazado_969173" data-name="Trazado 969173" d="M22.146,16.808v2.743a.418.418,0,0,1-.424.4H6.745a.407.407,0,0,1-.412-.4V18.539H17.718A3.153,3.153,0,0,0,20.7,16.4h1.024a.428.428,0,0,1,.424.412Z"/>
              </g>
            </g>
          </g>
          <g id="Grupo_1118873" data-name="Grupo 1118873">
            <g id="Grupo_1118869" data-name="Grupo 1118869">
              <path id="Trazado_969174" data-name="Trazado 969174" d="M24.662,24.177v4.8a.477.477,0,0,0,.483.483h4.8a.477.477,0,0,0,.483-.483v-4.8a.477.477,0,0,0-.483-.483h-4.8A.477.477,0,0,0,24.662,24.177Z" fill="#f6c560"/>
            </g>
            <g id="Grupo_1118872" data-name="Grupo 1118872">
              <g id="Grupo_1118870" data-name="Grupo 1118870">
                <path id="Trazado_969175" data-name="Trazado 969175" d="M6.338,25.213v2.743a.413.413,0,0,0,.418.406H21.734a.4.4,0,0,0,.406-.406V25.213a.413.413,0,0,0-.406-.418H6.756a.423.423,0,0,0-.418.418Z" fill="#c7d6e5"/>
              </g>
              <g id="Grupo_1118871" data-name="Grupo 1118871" opacity="0.05">
                <path id="Trazado_969176" data-name="Trazado 969176" d="M22.146,25.219v2.743a.418.418,0,0,1-.424.4H6.745a.407.407,0,0,1-.412-.4V26.95H17.718A3.153,3.153,0,0,0,20.7,24.807h1.024a.428.428,0,0,1,.424.412Z"/>
              </g>
            </g>
          </g>
          <g id="Grupo_1118878" data-name="Grupo 1118878">
            <g id="Grupo_1118874" data-name="Grupo 1118874">
              <path id="Trazado_969177" data-name="Trazado 969177" d="M24.662,41v4.8a.477.477,0,0,0,.483.483h4.8a.477.477,0,0,0,.483-.483V41a.477.477,0,0,0-.483-.483h-4.8A.477.477,0,0,0,24.662,41Z" fill="#f6c560"/>
            </g>
            <g id="Grupo_1118877" data-name="Grupo 1118877">
              <g id="Grupo_1118875" data-name="Grupo 1118875">
                <path id="Trazado_969178" data-name="Trazado 969178" d="M6.338,42.035v2.743a.413.413,0,0,0,.418.406H21.734a.4.4,0,0,0,.406-.406V42.035a.413.413,0,0,0-.406-.418H6.756a.423.423,0,0,0-.418.418Z" fill="#c7d6e5"/>
              </g>
              <g id="Grupo_1118876" data-name="Grupo 1118876" opacity="0.05">
                <path id="Trazado_969179" data-name="Trazado 969179" d="M22.146,42.04v2.743a.418.418,0,0,1-.424.4H6.745a.407.407,0,0,1-.412-.4V43.771H17.718A3.153,3.153,0,0,0,20.7,41.628h1.024a.428.428,0,0,1,.424.412Z"/>
              </g>
            </g>
          </g>
          <g id="Grupo_1118879" data-name="Grupo 1118879">
            <path id="Trazado_969180" data-name="Trazado 969180" d="M24.662,32.588v4.8a.477.477,0,0,0,.483.483h4.8a.477.477,0,0,0,.483-.483v-4.8a.477.477,0,0,0-.483-.483h-4.8A.477.477,0,0,0,24.662,32.588Z" fill="#f6c560"/>
          </g>
          <g id="Grupo_1118880" data-name="Grupo 1118880" opacity="0.05">
            <path id="Trazado_969181" data-name="Trazado 969181" d="M30.434,15.768v4.8a.475.475,0,0,1-.48.48h-4.8a.478.478,0,0,1-.49-.48v-.9h.288a4.087,4.087,0,0,0,4.09-4.09v-.288h.912a.475.475,0,0,1,.48.48Z"/>
          </g>
          <g id="Grupo_1118881" data-name="Grupo 1118881" opacity="0.05">
            <path id="Trazado_969182" data-name="Trazado 969182" d="M30.434,24.178v4.8a.478.478,0,0,1-.48.49h-4.8a.48.48,0,0,1-.49-.49v-.9h.288a4.087,4.087,0,0,0,4.09-4.09V23.7h.912a.475.475,0,0,1,.48.48Z"/>
          </g>
          <g id="Grupo_1118882" data-name="Grupo 1118882" opacity="0.05">
            <path id="Trazado_969183" data-name="Trazado 969183" d="M30.434,41v4.81a.475.475,0,0,1-.48.48h-4.8a.478.478,0,0,1-.49-.48v-.912h.288a4.087,4.087,0,0,0,4.09-4.09v-.288h.912a.475.475,0,0,1,.48.48Z"/>
          </g>
          <g id="Grupo_1118883" data-name="Grupo 1118883" opacity="0.05">
            <path id="Trazado_969184" data-name="Trazado 969184" d="M30.434,32.587v4.8a.478.478,0,0,1-.48.49h-4.8a.48.48,0,0,1-.49-.49v-.9h.288a4.087,4.087,0,0,0,4.09-4.09v-.288h.912a.475.475,0,0,1,.48.48Z"/>
          </g>
          <g id="Grupo_1118886" data-name="Grupo 1118886">
            <g id="Grupo_1118884" data-name="Grupo 1118884">
              <path id="Trazado_969185" data-name="Trazado 969185" d="M6.338,33.624v2.743a.413.413,0,0,0,.418.406H21.734a.4.4,0,0,0,.406-.406V33.624a.413.413,0,0,0-.406-.418H6.756a.423.423,0,0,0-.418.418Z" fill="#c7d6e5"/>
            </g>
            <g id="Grupo_1118885" data-name="Grupo 1118885" opacity="0.05">
              <path id="Trazado_969186" data-name="Trazado 969186" d="M22.146,33.63v2.743a.418.418,0,0,1-.424.4H6.745a.407.407,0,0,1-.412-.4V35.36H17.718A3.153,3.153,0,0,0,20.7,33.217h1.024a.428.428,0,0,1,.424.412Z"/>
            </g>
          </g>
        </g>
      </g>
      <g id="Grupo_1118897" data-name="Grupo 1118897">
        <g id="Grupo_1118896" data-name="Grupo 1118896">
          <g id="Grupo_1118889" data-name="Grupo 1118889">
            <path id="Trazado_969187" data-name="Trazado 969187" d="M39.763,20.944a10.073,10.073,0,1,1-14.213-.888,10.067,10.067,0,0,1,14.213.888Z" fill="#fff"/>
          </g>
          <g id="Grupo_1118892" data-name="Grupo 1118892">
            <g id="Grupo_1118890" data-name="Grupo 1118890">
              <path id="Trazado_969188" data-name="Trazado 969188" d="M48.5,46.088a3.189,3.189,0,0,1-1.17.665,2.26,2.26,0,0,1-.359.083,3.175,3.175,0,0,1-3.142-1.207L39,39.274l-2-2.634a11.751,11.751,0,0,0,1.946-1.387,4.306,4.306,0,0,0,.382-.364A9.746,9.746,0,0,0,40.547,33.5l2.37,2.325,5.7,5.582a3.2,3.2,0,0,1-.12,4.686Z" fill="#e5a35a"/>
            </g>
            <g id="Grupo_1118891" data-name="Grupo 1118891" opacity="0.05">
              <path id="Trazado_969189" data-name="Trazado 969189" d="M48.5,46.088a3.189,3.189,0,0,1-1.17.665,2.26,2.26,0,0,1-.359.083l-.156.019a3.193,3.193,0,0,0,.036-4.6l-5.324-5.215-2.2-2.154A9.746,9.746,0,0,0,40.547,33.5l2.37,2.325,5.7,5.582A3.2,3.2,0,0,1,48.5,46.088Z"/>
            </g>
            <path id="Trazado_969190" data-name="Trazado 969190" d="M43.134,35.4l-.266.24-1.419,1.247-2.585,2.28-.26.227a.86.86,0,0,1-1.224-.069l-1.951-2.2a11.673,11.673,0,0,0,1.391-.648,12,12,0,0,0,1.988-1.417,4.4,4.4,0,0,0,.39-.372,9.954,9.954,0,0,0,1.25-1.422,11.112,11.112,0,0,0,.817-1.285l1.942,2.205a.851.851,0,0,1-.072,1.215Z" fill="#ff5975"/>
          </g>
          <g id="Grupo_1118893" data-name="Grupo 1118893" opacity="0.05">
            <path id="Trazado_969191" data-name="Trazado 969191" d="M39.765,20.945A10.076,10.076,0,0,1,28.219,36.858a10.072,10.072,0,0,0,4.015-19.32,10.021,10.021,0,0,1,7.531,3.407Z"/>
          </g>
          <g id="Grupo_1118894" data-name="Grupo 1118894">
            <path id="Trazado_969192" data-name="Trazado 969192" d="M37.18,33.24a7.509,7.509,0,1,1,.662-10.6A7.515,7.515,0,0,1,37.18,33.24Z" fill="#59de9b"/>
          </g>
          <g id="Grupo_1118895" data-name="Grupo 1118895" opacity="0.05">
            <path id="Trazado_969193" data-name="Trazado 969193" d="M37.18,33.24a7.515,7.515,0,0,1-10.6-.662,4.057,4.057,0,0,1-.317-.394A7.5,7.5,0,0,0,36.787,21.662a7.788,7.788,0,0,1,1.056.979,7.506,7.506,0,0,1-.662,10.6Z"/>
          </g>
          <path id="Trazado_969194" data-name="Trazado 969194" d="M49.292,40.716l-5.157-5.05a1.788,1.788,0,0,0,.249-.788,1.816,1.816,0,0,0-.457-1.329L42.4,31.817a11,11,0,0,0-7.1-14.787v-4.6a3.538,3.538,0,0,0-3.531-3.539H28.789V8.173A1.764,1.764,0,0,0,27.026,6.41H24.777A6.907,6.907,0,0,0,18.383,2a6.824,6.824,0,0,0-6.262,4.107l-.132.3H9.74A1.764,1.764,0,0,0,7.978,8.173v.719H5A3.542,3.542,0,0,0,1.46,12.43V46.461A3.543,3.543,0,0,0,5,50H31.775a3.539,3.539,0,0,0,3.531-3.539V38.432l1.355,1.529a1.818,1.818,0,0,0,2.026.49l4.375,5.755a4.163,4.163,0,1,0,6.23-5.49ZM9.9,8.331H12.62a.959.959,0,0,0,.88-.578c.136-.178,1.074-3.832,4.883-3.832,3.794,0,4.767,3.68,4.883,3.832a.959.959,0,0,0,.88.578h2.722v3.24H9.9ZM33.386,46.461a1.617,1.617,0,0,1-1.611,1.619H5A1.62,1.62,0,0,1,3.38,46.461V12.43A1.62,1.62,0,0,1,5,10.812H7.978v.916A1.764,1.764,0,0,0,9.74,13.49H27.026a1.764,1.764,0,0,0,1.763-1.762v-.916h2.987a1.617,1.617,0,0,1,1.611,1.619v4.209a11.035,11.035,0,1,0,0,21.931ZM32.21,36.719a9.112,9.112,0,1,1,9.1-8.545A9.325,9.325,0,0,1,32.21,36.719Zm5.824,1.9-.975-1.1a10.941,10.941,0,0,0,4.384-3.879l.979,1.113Zm9.824,6.759a2.235,2.235,0,0,1-3.265-.327L40.2,39.267l2.562-2.259,5.189,5.08a2.241,2.241,0,0,1-.091,3.286Z"/>
        </g>
      </g>
      <g id="Grupo_1118898" data-name="Grupo 1118898">
        <path id="Trazado_969195" data-name="Trazado 969195" d="M30.273,32.488a.959.959,0,0,1-.679-.281l-2.452-2.452A.96.96,0,0,1,28.5,28.4l1.773,1.773,5.652-5.652a.96.96,0,0,1,1.357,1.358l-6.331,6.331a.959.959,0,0,1-.679.281Z" fill="#fff"/>
      </g>
    </g>
  </g>
</svg>
