<svg xmlns="http://www.w3.org/2000/svg" width="85" height="85" viewBox="0 0 85 85">
  <g id="Grupo_1118066" data-name="Grupo 1118066" transform="translate(-199.282 -497)">
    <rect id="Rectángulo_412256" data-name="Rectángulo 412256" width="85" height="85" rx="5" transform="translate(199.282 497)" fill="#8bc34a"/>
    <g id="Grupo_1121439" data-name="Grupo 1121439" transform="translate(211.18 508.898)">
      <g id="Grupo_1121437" data-name="Grupo 1121437" transform="translate(0.911 0.897)">
        <path id="Trazado_974502" data-name="Trazado 974502" d="M91.793,427.833l-1.113,5.258,1.113,2.859h4.662l.706-3.436-.706-5.871Z" transform="translate(-80.752 -376.54)" fill="#685e68"/>
        <path id="Trazado_974503" data-name="Trazado 974503" d="M15.151,440.628l1.893.868h8.248v-8.554a12.659,12.659,0,0,0-7.052,2.278c-2.066,1.492-2.585,3-3.09,5.408Z" transform="translate(-14.251 -382.085)" fill="#f2f0f3"/>
        <g id="Grupo_1121436" data-name="Grupo 1121436" transform="translate(19.624 48.968)">
          <path id="Trazado_974504" data-name="Trazado 974504" d="M368.077,418.341l.833,5.805-.833,3.436h-4.662l-1.3-3.436,1.3-7.007Z" transform="translate(-339.363 -417.14)" fill="#685e68"/>
          <path id="Trazado_974505" data-name="Trazado 974505" d="M295.113,425.51l1.111,6.583-1.111,2.859h-4.662l-.618-2.212.618-3.506c.039-.028.08-.053.12-.079A39.905,39.905,0,0,0,295.113,425.51Z" transform="translate(-275.722 -424.509)" fill="#685e68"/>
          <path id="Trazado_974506" data-name="Trazado 974506" d="M177.191,428.445l.606,3.359-.606,1.942h-4.662l-.743-2.167.743-7.439A24.589,24.589,0,0,0,177.191,428.445Z" transform="translate(-171.786 -423.303)" fill="#685e68"/>
        </g>
        <path id="Trazado_974507" data-name="Trazado 974507" d="M138.99,422.682v9.78h4.663V423.5A13.928,13.928,0,0,0,138.99,422.682Z" transform="translate(-123.287 -373.051)" fill="#f2f0f3"/>
        <path id="Trazado_974508" data-name="Trazado 974508" d="M100.1,417.15l1.034,1.225-1.034,1.491L96.1,420.9l-.656.169-.618-1.2.618-1.515Z" transform="translate(-84.398 -368.181)" fill="#554e56"/>
        <path id="Trazado_974509" data-name="Trazado 974509" d="M143.653,416.02v.525a15.877,15.877,0,0,1-3.021.932l-1.642.423v-2.716c.324-.09.676-.178,1.034-.267a6.617,6.617,0,0,0,2.207.069C142.7,415.564,143.169,415.462,143.653,416.02Z" transform="translate(-123.287 -366.216)" fill="#e2dee2"/>
        <path id="Trazado_974510" data-name="Trazado 974510" d="M177.884,324.425c2.51,1.076,4.542-.717,6.575-2.032,2.449-1.633,3.474-3.544,5.529-5.354-.7-.184-.81-.3-.909-.982a4.5,4.5,0,0,1-1.519-3.371V310.25l-.61-2.132.61-3.865H172.572v8.432c0,1.875-1.236,5.031-3.257,4.917C171.816,320.7,174.128,322.923,177.884,324.425Z" transform="translate(-149.987 -268.779)" fill="#fedecf"/>
        <path id="Trazado_974511" data-name="Trazado 974511" d="M422.555,436.432H411.99V427.19l4.868,1.254a8.247,8.247,0,0,1,6.175,7.476A.48.48,0,0,1,422.555,436.432Z" transform="translate(-363.652 -377.021)" fill="#f2f0f3"/>
        <path id="Trazado_974512" data-name="Trazado 974512" d="M338.661,415.186v10.443H334v-9.442c.638-.571.954-.7,1.594-1.264.042.011.083.023.123.032l1.913-.034Z" transform="translate(-294.985 -366.218)" fill="#f2f0f3"/>
        <path id="Trazado_974513" data-name="Trazado 974513" d="M226.324,456.66v5.719H217v-5.3a15.017,15.017,0,0,0,2.869,1.536C222.33,459.668,224.331,457.965,226.324,456.66Z" transform="translate(-191.971 -402.968)" fill="#f2f0f3"/>
        <path id="Trazado_974514" data-name="Trazado 974514" d="M125.315,31.362v-11c0-7.1,5.26-12.729,12.365-12.729l3.207-.135h3.678a12.864,12.864,0,0,1,12.864,12.864v11H125.315Z" transform="translate(-111.246 -7.5)" fill="#c38678"/>
        <path id="Trazado_974515" data-name="Trazado 974515" d="M136.308,7.5a12.864,12.864,0,0,0-12.865,12.864v2.893L124.4,27.5l-.959,3.859H119.32v-11A12.864,12.864,0,0,1,132.185,7.5Z" transform="translate(-105.968 -7.5)" fill="#b56e5a"/>
        <path id="Trazado_974516" data-name="Trazado 974516" d="M141.727,189.376h2.1a2.83,2.83,0,0,1,2.83,2.83v1.228a3.859,3.859,0,0,1-2.982,3.758l-1.976.461H117.254l-1.976-.461a3.859,3.859,0,0,1-2.982-3.758v-1.228a2.83,2.83,0,0,1,2.83-2.83h26.6Z" transform="translate(-99.784 -167.635)" fill="#fdd0bf"/>
        <path id="Trazado_974517" data-name="Trazado 974517" d="M189.737,304.25v6l-1.365,1.194a7.777,7.777,0,0,1-5.12,1.923h-2.8a7.774,7.774,0,0,1-3.183-.682.478.478,0,0,0-.678.4,7.273,7.273,0,0,1-2.488,5.018,4.578,4.578,0,0,1-1.249.852c-.6-.674-.5-1.206-1.07-1.91.5-.195.66-.984.66-.984a4.5,4.5,0,0,0,1.523-3.376V304.25Z" transform="translate(-152.162 -268.777)" fill="#fdd0bf"/>
        <path id="Trazado_974518" data-name="Trazado 974518" d="M175.606,126.268l-4.793,4.194a5.146,5.146,0,0,1-3.388,1.273h-2.8a5.146,5.146,0,0,1-3.388-1.273l-4.793-4.194a7.719,7.719,0,0,1-2.636-5.809V105.534a4.581,4.581,0,0,1,6.42-4.2,14.44,14.44,0,0,0,11.592,0,4.581,4.581,0,0,1,6.42,4.2V120.46A7.718,7.718,0,0,1,175.606,126.268Z" transform="translate(-136.336 -89.777)" fill="#fedecf"/>
        <path id="Trazado_974519" data-name="Trazado 974519" d="M187.661,404.421l-1.6-.411c-.041-.01-.081-.022-.123-.032a4.5,4.5,0,0,1-1.831-.982l-9.1,7.292a.478.478,0,0,1-.6,0l-7.035-5.63-1.93-.142c-.505,1-.731.632-1.773,1.088l.573.874,10.464,8.651Z" transform="translate(-145.016 -355.718)" fill="#554e56"/>
        <path id="Trazado_974520" data-name="Trazado 974520" d="M153.26,404.689c-.132.133-.27.261-.414.384a6.507,6.507,0,0,1-2.717,1.437l-2.489-2.057a7.981,7.981,0,0,0,3.547-1.421Z" transform="translate(-130.903 -355.749)" fill="#443f43"/>
        <path id="Trazado_974521" data-name="Trazado 974521" d="M18.665,427.2v2.715L14.456,431l-.195.055a5.217,5.217,0,0,0-3.612,4.1l-.232,1.286H8.1a.48.48,0,0,1-.477-.512,8.248,8.248,0,0,1,6.175-7.476Z" transform="translate(-7.624 -377.029)" fill="#e2dee2"/>
      </g>
      <g id="Grupo_1121438" data-name="Grupo 1121438" transform="translate(0 0)">
        <path id="Trazado_974522" data-name="Trazado 974522" d="M294.236,197.9v1.793a.9.9,0,0,0,1.793,0V197.9a.9.9,0,0,0-1.793,0Z" transform="translate(-259.063 -173.451)"/>
        <path id="Trazado_974523" data-name="Trazado 974523" d="M203.661,197a.9.9,0,0,0-.9.9v1.793a.9.9,0,0,0,1.793,0V197.9A.9.9,0,0,0,203.661,197Z" transform="translate(-178.526 -173.451)"/>
        <path id="Trazado_974524" data-name="Trazado 974524" d="M235.26,248.387a.9.9,0,0,0,.392,1.206,4.421,4.421,0,0,0,4,0,.9.9,0,1,0-.814-1.6,2.623,2.623,0,0,1-2.374,0A.9.9,0,0,0,235.26,248.387Z" transform="translate(-207.051 -218.264)"/>
        <path id="Trazado_974525" data-name="Trazado 974525" d="M218.869,289.246a6.98,6.98,0,0,0,8.226,0,.9.9,0,1,0-1.054-1.451,5.192,5.192,0,0,1-6.118,0,.9.9,0,1,0-1.054,1.451Z" transform="translate(-192.38 -253.242)"/>
        <path id="Trazado_974526" data-name="Trazado 974526" d="M280.5,171.517a.9.9,0,0,0-.249-1.243,5.267,5.267,0,0,0-4.616-.618l-1.541.514a.9.9,0,1,0,.567,1.7l1.541-.514a3.483,3.483,0,0,1,3.054.409A.9.9,0,0,0,280.5,171.517Z" transform="translate(-240.788 -149.133)"/>
        <path id="Trazado_974527" data-name="Trazado 974527" d="M184.821,171.916a.9.9,0,0,0,.283-1.747l-1.541-.514a5.266,5.266,0,0,0-4.615.618.9.9,0,1,0,.995,1.492,3.483,3.483,0,0,1,3.054-.409l1.541.514A.9.9,0,0,0,184.821,171.916Z" transform="translate(-157.206 -149.133)"/>
        <path id="Trazado_974528" data-name="Trazado 974528" d="M55.765,51.947a9.2,9.2,0,0,0-1.425-.495L42.183,48.32l-.018,0A3.594,3.594,0,0,1,39.382,44.8V39.279l1.39-1.216a8.614,8.614,0,0,0,2.941-6.434l1.29-.3A4.736,4.736,0,0,0,48.677,26.7V25.468a3.7,3.7,0,0,0-.687-2.152V13.761A13.776,13.776,0,0,0,34.229,0h-7.1a13.708,13.708,0,0,0-7.495,2.218.9.9,0,1,0,.978,1.5,11.92,11.92,0,0,1,6.517-1.928h7.1A11.981,11.981,0,0,1,46.2,13.761v8.2a3.71,3.71,0,0,0-1.246-.215H43.714V16.653a5.451,5.451,0,0,0-1.4-3.664.9.9,0,0,0-1.33,1.2,3.612,3.612,0,0,1,.94,2.462V31.579a6.822,6.822,0,0,1-2.33,5.134L34.8,40.907A4.247,4.247,0,0,1,32,41.958H29.2a4.247,4.247,0,0,1-2.8-1.051l-4.793-4.194a6.822,6.822,0,0,1-2.33-5.134V16.653a3.673,3.673,0,0,1,1.669-3.084,3.626,3.626,0,0,1,3.494-.29,15.379,15.379,0,0,0,12.312,0,3.7,3.7,0,0,1,1.172-.3.9.9,0,0,0-.154-1.787,5.506,5.506,0,0,0-1.737.446,13.58,13.58,0,0,1-10.872,0,5.477,5.477,0,0,0-7.676,5.017v5.088H16.254a3.712,3.712,0,0,0-1.094.164V13.761A11.842,11.842,0,0,1,17.738,6.34a.9.9,0,1,0-1.406-1.113,13.618,13.618,0,0,0-2.965,8.534v9.354a3.709,3.709,0,0,0-.84,2.353V26.7A4.736,4.736,0,0,0,16.2,31.327l1.29.3a8.614,8.614,0,0,0,2.941,6.434l1.39,1.216V44.8a3.6,3.6,0,0,1-2.782,3.512l-.018,0L6.863,51.452A9.143,9.143,0,0,0,0,60.308a.9.9,0,1,0,1.793,0,7.35,7.35,0,0,1,5.518-7.119l3.746-.965v8.084a.9.9,0,0,0,1.793,0V51.761l2.869-.739v9.285a.9.9,0,1,0,1.793,0V50.649l2.869,2.372v7.287a.9.9,0,0,0,1.793,0V54.5l2.869,2.372v3.432a.9.9,0,0,0,1.793,0v-1.95L30.031,61a.9.9,0,0,0,1.143,0l3.194-2.64v1.949a.9.9,0,0,0,1.793,0V56.876L39.029,54.5v5.8a.9.9,0,0,0,1.793,0V53.022l2.869-2.372v9.657a.9.9,0,0,0,1.793,0V51.022l2.869.739v8.547a.9.9,0,0,0,1.793,0V52.223l3.747.965a7.4,7.4,0,0,1,1.146.4.9.9,0,1,0,.726-1.64ZM44.95,23.534a1.936,1.936,0,0,1,1.934,1.934V26.7a2.951,2.951,0,0,1-2.289,2.885l-.881.206V23.534ZM14.32,26.7V25.468a1.921,1.921,0,0,1,.35-1.106.9.9,0,0,0,.408-.425,1.922,1.922,0,0,1,1.176-.4H17.49v6.253l-.881-.206A2.951,2.951,0,0,1,14.32,26.7ZM30.6,59.145,19.575,50.028a5.42,5.42,0,0,0,1.61-.711L23.665,51.3a.9.9,0,1,0,1.12-1.4l-2.274-1.82a5.39,5.39,0,0,0,1.1-3.28V40.848l1.61,1.409A6.041,6.041,0,0,0,29.2,43.752H32a6.04,6.04,0,0,0,3.979-1.495l1.61-1.409V44.8a5.39,5.39,0,0,0,1.1,3.276L30.6,54.557,28.029,52.5a.9.9,0,1,0-1.12,1.4l3.134,2.508a.9.9,0,0,0,1.121,0l8.852-7.091a5.423,5.423,0,0,0,1.614.714Z" transform="translate(0 0)"/>
        <path id="Trazado_974529" data-name="Trazado 974529" d="M484.542,455.6a.9.9,0,1,0-1.427,1.085,7.293,7.293,0,0,1,1.5,4.449.9.9,0,0,0,1.793,0A9.073,9.073,0,0,0,484.542,455.6Z" transform="translate(-425.203 -400.825)"/>
      </g>
    </g>
  </g>
</svg>
