<svg xmlns="http://www.w3.org/2000/svg" width="120" height="120" viewBox="0 0 120 120">
  <g id="Grupo_1116048" data-name="Grupo 1116048" transform="translate(-64 -6445)">
    <rect id="Rect치ngulo_402033" data-name="Rect치ngulo 402033" width="120" height="120" rx="8" transform="translate(64 6445)" fill="#0042db"/>
    <g id="Rect치ngulo_412110" data-name="Rect치ngulo 412110" transform="translate(69 6450)" fill="none" stroke="#fff" stroke-width="1">
      <rect width="110" height="110" rx="6" stroke="none"/>
      <rect x="0.5" y="0.5" width="109" height="109" rx="5.5" fill="none"/>
    </g>
    <g id="Grupo_1121405" data-name="Grupo 1121405" transform="translate(86.688 6466.611)">
      <g id="Grupo_1121403" data-name="Grupo 1121403" transform="translate(2.203 2.203)">
        <g id="Grupo_1121370" data-name="Grupo 1121370" transform="translate(52.373 45.698)">
          <path id="Trazado_974352" data-name="Trazado 974352" d="M49.7,40l.9,2.706v.012a11.865,11.865,0,0,0-5.051,2.525L47.294,40Z" transform="translate(-45.55 -40)" fill="#e6e9ed"/>
        </g>
        <g id="Grupo_1121371" data-name="Grupo 1121371" transform="translate(52.168 40.888)">
          <path id="Trazado_974353" data-name="Trazado 974353" d="M51.682,37.888,49.733,40.81H47.328L45.38,37.888,48.531,36Z" transform="translate(-45.38 -36)" fill="#ccd1d9"/>
        </g>
        <g id="Grupo_1121372" data-name="Grupo 1121372" transform="translate(56.522 38.327)">
          <path id="Trazado_974354" data-name="Trazado 974354" d="M63.311,41.326a34.748,34.748,0,0,1-2.189,5.845H61.11a11.988,11.988,0,0,0-8.5-3.524,11.815,11.815,0,0,0-2.706.313v-.012L49,41.242l1.948-2.922,2.862,1.72,2.056-6.169a15.1,15.1,0,0,1,7.444,7.456Z" transform="translate(-49 -33.87)" fill="#ff826e"/>
        </g>
        <g id="Grupo_1121373" data-name="Grupo 1121373" transform="translate(39.914 42.776)">
          <path id="Trazado_974355" data-name="Trazado 974355" d="M44.727,39.434a3.719,3.719,0,0,0,.4-.469l2.321-1.4,1.948,2.922-1.744,5.243a12.019,12.019,0,0,0-4.269,9.188V55a14.718,14.718,0,0,0-3.957-2.622l-3.259-1.058-.974-3.908a7.208,7.208,0,0,0,5.135-6.314l.048-.6h1.8A3.6,3.6,0,0,0,44.727,39.434Z" transform="translate(-35.19 -37.57)" fill="#ff826e"/>
        </g>
        <g id="Grupo_1121374" data-name="Grupo 1121374" transform="translate(55.319 37.28)">
          <path id="Trazado_974356" data-name="Trazado 974356" d="M48,36.608,52.81,33a14.743,14.743,0,0,1,3.259,1.046l-2.056,6.169L51.151,38.5Z" transform="translate(-48 -33)" fill="#fc6e51"/>
        </g>
        <g id="Grupo_1121375" data-name="Grupo 1121375" transform="translate(49.595 37.28)">
          <path id="Trazado_974357" data-name="Trazado 974357" d="M43.252,35.417l.517-2.08a2.094,2.094,0,0,0,.06-.265h.012c.1-.024.2-.048.313-.072l4.81,3.608L45.814,38.5l-2.321,1.4a5.229,5.229,0,0,0,.661-2.08,3.517,3.517,0,0,0-.914-2.381Z" transform="translate(-43.24 -33)" fill="#fc6e51"/>
        </g>
        <g id="Grupo_1121376" data-name="Grupo 1121376" transform="translate(1.251 39.878)">
          <path id="Trazado_974358" data-name="Trazado 974358" d="M20.983,38.575a10.36,10.36,0,0,0,.938-2.9L22,35.16a1.992,1.992,0,0,0,.445.168,9.074,9.074,0,0,1,1.371.433,3.464,3.464,0,0,0-.385,1.611,3.613,3.613,0,0,0,3.608,3.608h1.8l.048.6A7.208,7.208,0,0,0,34.031,47.9L33.057,51.8A15.4,15.4,0,0,0,29.8,52.85a15,15,0,0,0-8.454,10.571,34.5,34.5,0,0,1-5.123-3.2V48.2H11.41v4.81H9A35.612,35.612,0,0,1,3.04,40.764a10.84,10.84,0,0,1,6.951-5.436,1.993,1.993,0,0,0,.445-.168l.084.517a10.822,10.822,0,0,0,1.924,4.534,10.638,10.638,0,0,0,3.776,3.175A10.6,10.6,0,0,0,20.983,38.575Z" transform="translate(-3.04 -35.16)" fill="#4fc1e9"/>
        </g>
        <g id="Grupo_1121377" data-name="Grupo 1121377" transform="translate(32.53 64.94)">
          <path id="Trazado_974359" data-name="Trazado 974359" d="M33.8,56l2.345,7.047c-1.167.108-2.345.168-3.548.168a34.515,34.515,0,0,1-3.548-.18L31.4,56Z" transform="translate(-29.05 -56)" fill="#ff826e"/>
        </g>
        <g id="Grupo_1121378" data-name="Grupo 1121378" transform="translate(32.927 60.129)">
          <path id="Trazado_974360" data-name="Trazado 974360" d="M29.38,53.888,32.531,52l3.151,1.888L33.733,56.81H31.328Z" transform="translate(-29.38 -52)" fill="#fc6e51"/>
        </g>
        <g id="Grupo_1121379" data-name="Grupo 1121379" transform="translate(37.28 57.58)">
          <path id="Trazado_974361" data-name="Trazado 974361" d="M47.347,60.932v.012a35.971,35.971,0,0,1-12,3.343L33,57.24l1.948-2.922,2.862,1.72,2.056-6.157A14.718,14.718,0,0,1,43.823,52.5,11.991,11.991,0,0,0,47.347,60.932Z" transform="translate(-33 -49.88)" fill="#b4dd7f"/>
        </g>
        <g id="Grupo_1121380" data-name="Grupo 1121380" transform="translate(19.554 57.568)">
          <path id="Trazado_974362" data-name="Trazado 974362" d="M31.633,54.32l1.948,2.922-2.345,7.035A35.621,35.621,0,0,1,18.26,60.453v-.012A15,15,0,0,1,26.714,49.87l2.056,6.169Z" transform="translate(-18.26 -49.87)" fill="#b4dd7f"/>
        </g>
        <g id="Grupo_1121381" data-name="Grupo 1121381" transform="translate(36.078 56.522)">
          <path id="Trazado_974363" data-name="Trazado 974363" d="M36.81,49l3.259,1.058-2.056,6.157L35.151,54.5,32,52.608Z" transform="translate(-32 -49)" fill="#a0d468"/>
        </g>
        <g id="Grupo_1121382" data-name="Grupo 1121382" transform="translate(28.008 56.522)">
          <path id="Trazado_974364" data-name="Trazado 974364" d="M28.549,49l4.81,3.608L30.209,54.5l-2.862,1.72L25.29,50.046A15.4,15.4,0,0,1,28.549,49Z" transform="translate(-25.29 -49)" fill="#a0d468"/>
        </g>
        <g id="Grupo_1121383" data-name="Grupo 1121383" transform="translate(9.669 43.293)">
          <path id="Trazado_974365" data-name="Trazado 974365" d="M10.04,38h9.525A10.6,10.6,0,0,1,14.8,42.81,10.472,10.472,0,0,1,10.04,38Z" transform="translate(-10.04 -38)" fill="#e6e9ed"/>
        </g>
        <g id="Grupo_1121384" data-name="Grupo 1121384" transform="translate(21.647 21.647)">
          <path id="Trazado_974366" data-name="Trazado 974366" d="M48.477,35.97l-.517,2.08-.012.012a3.523,3.523,0,0,0-2.694-1.227h-1.2v-.1a2.312,2.312,0,0,0-2.285-2.309H35.754a7.462,7.462,0,0,1-5.688-2.622l-3.271,1.623a3.6,3.6,0,0,0-1.984,3.223v.18h-1.2a3.523,3.523,0,0,0-2.694,1.227l-.012-.012-.866-6.915v-.024A3.666,3.666,0,0,1,20,30.535a4.612,4.612,0,0,1,.866-2.694,4.315,4.315,0,0,1,1.383-1.251,3.868,3.868,0,0,1,.9-.421l.457-.156A7.449,7.449,0,0,1,26.193,21.7a7.305,7.305,0,0,1,1.022-.7v-.012A7.566,7.566,0,0,1,30.944,20h5.075a12.535,12.535,0,0,1,3.307.433,12.9,12.9,0,0,1,9.537,12.411,13.806,13.806,0,0,1-.325,2.862,2.094,2.094,0,0,1-.06.265Z" transform="translate(-20 -20)" fill="#b27946"/>
        </g>
        <g id="Grupo_1121385" data-name="Grupo 1121385" transform="translate(15.742 9.861)">
          <path id="Trazado_974367" data-name="Trazado 974367" d="M23.4,23.861a2.4,2.4,0,0,0-1.816-2.333,11.167,11.167,0,0,1-5.171-2.922l-.722-.722a2.685,2.685,0,0,0-.6-.445l2.381-2.381-2-2c.144-.337.144-.361.289-.7H18.59V10.2A12.037,12.037,0,0,1,28.21,21.985v1a7.305,7.305,0,0,0-1.022.7A7.449,7.449,0,0,0,24.6,28l-.457.156a3.868,3.868,0,0,0-.9.421l-.012-.012A9.475,9.475,0,0,0,23.4,26.8Z" transform="translate(-15.09 -10.2)" fill="#656d78"/>
        </g>
        <g id="Grupo_1121386" data-name="Grupo 1121386" transform="translate(38.483 4.81)">
          <path id="Trazado_974368" data-name="Trazado 974368" d="M38.257,6h7.769A12.026,12.026,0,0,0,44.1,16.583l-.9.445a3.6,3.6,0,0,0-1.984,3.223v.18h-1.2a3.578,3.578,0,0,0-2.946,1.527l-.914-.457a3.882,3.882,0,0,1,0-6.951l.253-.132-1.154-1.154A4.252,4.252,0,0,1,38.257,6Z" transform="translate(-34 -6)" fill="#656d78"/>
        </g>
        <g id="Grupo_1121387" data-name="Grupo 1121387" transform="translate(64.339 20.528)">
          <path id="Trazado_974369" data-name="Trazado 974369" d="M57.3,25H55.5l.277-3.271a12.072,12.072,0,0,0,4.017-2.658h.012c.409.842.77,1.7,1.094,2.574A3.594,3.594,0,0,1,57.3,25Z" transform="translate(-55.5 -19.07)" fill="#f0d0b4"/>
        </g>
        <g id="Grupo_1121388" data-name="Grupo 1121388" transform="translate(50.509 33.372)">
          <path id="Trazado_974370" data-name="Trazado 974370" d="M52.647,29.75l.974,3.908-4.81,3.608L44,33.658l.974-3.908a7.268,7.268,0,0,0,2.056.3h3.56A7.268,7.268,0,0,0,52.647,29.75Z" transform="translate(-44 -29.75)" fill="#f0d0b4"/>
        </g>
        <g id="Grupo_1121389" data-name="Grupo 1121389" transform="translate(45.698 15.393)">
          <path id="Trazado_974371" data-name="Trazado 974371" d="M44.714,32.37a12.731,12.731,0,0,0-4.245-8.093l-.457-5.448a.91.91,0,0,1-.012-.18v-.18a3.6,3.6,0,0,1,1.984-3.223l.9-.445a12.031,12.031,0,0,0,16.031,7.793l-.277,3.271-.048.6A7.223,7.223,0,0,1,51.4,33.079h-3.56a7.268,7.268,0,0,1-2.056-.3,7.579,7.579,0,0,1-1.07-.409Z" transform="translate(-40 -14.8)" fill="#f0d0b4"/>
        </g>
        <g id="Grupo_1121390" data-name="Grupo 1121390" transform="translate(40.972 19.241)">
          <path id="Trazado_974372" data-name="Trazado 974372" d="M40.808,18.18l.457,5.448a12.745,12.745,0,0,0-5.2-2.79A3.608,3.608,0,0,1,39.594,18h1.2A.91.91,0,0,0,40.808,18.18Z" transform="translate(-36.07 -18)" fill="#f0d0b4"/>
        </g>
        <g id="Grupo_1121391" data-name="Grupo 1121391" transform="translate(45.097 38.483)">
          <path id="Trazado_974373" data-name="Trazado 974373" d="M41.3,34a3.638,3.638,0,0,1,3.608,3.608,5.229,5.229,0,0,1-.661,2.08,3.718,3.718,0,0,1-.4.469A3.6,3.6,0,0,1,41.3,41.216H39.5l.589-7.119A.234.234,0,0,0,40.1,34Z" transform="translate(-39.5 -34)" fill="#f0d0b4"/>
        </g>
        <g id="Grupo_1121392" data-name="Grupo 1121392" transform="translate(31.267 52.613)">
          <path id="Trazado_974374" data-name="Trazado 974374" d="M36.647,45.75l.974,3.908-4.81,3.608L28,49.658l.974-3.908a7.268,7.268,0,0,0,2.056.3h3.56A7.268,7.268,0,0,0,36.647,45.75Z" transform="translate(-28 -45.75)" fill="#f0d0b4"/>
        </g>
        <g id="Grupo_1121393" data-name="Grupo 1121393" transform="translate(26.457 33.456)">
          <path id="Trazado_974375" data-name="Trazado 974375" d="M43.241,34.751v.1a.339.339,0,0,1-.012.1l-.589,7.119-.048.6A7.223,7.223,0,0,1,35.4,49.278h-3.56a7.223,7.223,0,0,1-7.191-6.614l-.048-.6-.589-7.035a.91.91,0,0,1-.012-.18v-.18a3.6,3.6,0,0,1,1.984-3.223l3.271-1.623a7.462,7.462,0,0,0,5.688,2.622h6.013A2.312,2.312,0,0,1,43.241,34.751Z" transform="translate(-24 -29.82)" fill="#f0d0b4"/>
        </g>
        <g id="Grupo_1121394" data-name="Grupo 1121394" transform="translate(21.647 38.483)">
          <path id="Trazado_974376" data-name="Trazado 974376" d="M24.822,34.18l.589,7.035h-1.8A3.613,3.613,0,0,1,20,37.608,3.464,3.464,0,0,1,20.385,36a3.028,3.028,0,0,1,.529-.77A3.523,3.523,0,0,1,23.608,34h1.2a.91.91,0,0,0,.012.18Z" transform="translate(-20 -34)" fill="#f0d0b4"/>
        </g>
        <g id="Grupo_1121395" data-name="Grupo 1121395" transform="translate(8.647 35.332)">
          <path id="Trazado_974377" data-name="Trazado 974377" d="M20.759,35.926l-.084.517a10.36,10.36,0,0,1-.938,2.9H10.212a10.766,10.766,0,0,1-.938-2.9l-.084-.517a2.436,2.436,0,0,0,1.335-1.611l.734-2.934a9.633,9.633,0,0,0,7.432,0l.734,2.934A2.436,2.436,0,0,0,20.759,35.926Z" transform="translate(-9.19 -31.38)" fill="#f0d0b4"/>
        </g>
        <g id="Grupo_1121396" data-name="Grupo 1121396" transform="translate(4.81 16.127)">
          <path id="Trazado_974378" data-name="Trazado 974378" d="M22.872,32.066a9.467,9.467,0,0,1-3.536,2.549A9.615,9.615,0,0,1,6,25.74V17.346c.108-.192.228-.373.337-.565L7.708,15.41c.337.132.361.144.7.289v2.826h4.81V15.7c.337-.144.361-.144.7-.289l2,2,1.022-1.022a2.685,2.685,0,0,1,.6.445l.722.722a11.167,11.167,0,0,0,5.171,2.922,2.4,2.4,0,0,1,1.816,2.333V25.74a9.476,9.476,0,0,1-.168,1.768l.012.012A4.315,4.315,0,0,0,23.7,28.771a4.612,4.612,0,0,0-.866,2.694,3.666,3.666,0,0,0,.036.577Z" transform="translate(-6 -15.41)" fill="#f0d0b4"/>
        </g>
        <g id="Grupo_1121397" data-name="Grupo 1121397" transform="translate(48.104)">
          <path id="Trazado_974379" data-name="Trazado 974379" d="M62.528,22.528A12.025,12.025,0,0,1,44.405,6.81a12.8,12.8,0,0,1,1.118-1.287,12.024,12.024,0,1,1,17,17Z" transform="translate(-42 -2)" fill="#69d6f4"/>
        </g>
        <g id="Grupo_1121398" data-name="Grupo 1121398" transform="translate(48.104 48.104)">
          <path id="Trazado_974380" data-name="Trazado 974380" d="M62.528,45.524A12.024,12.024,0,1,1,42,54.1v-.072a12.019,12.019,0,0,1,4.269-9.188A12.09,12.09,0,0,1,54.026,42,11.988,11.988,0,0,1,62.528,45.524Z" transform="translate(-42 -42)" fill="#fcd770"/>
        </g>
        <g id="Grupo_1121399" data-name="Grupo 1121399" transform="translate(9.621 52.914)">
          <path id="Trazado_974381" data-name="Trazado 974381" d="M14.81,58.026v7.216H10V46h4.81Z" transform="translate(-10 -46)" fill="#ff826e"/>
        </g>
        <g id="Grupo_1121400" data-name="Grupo 1121400" transform="translate(4.81 57.724)">
          <path id="Trazado_974382" data-name="Trazado 974382" d="M10.81,50V64.431H6V50h4.81Z" transform="translate(-6 -50)" fill="#ff826e"/>
        </g>
        <g id="Grupo_1121401" data-name="Grupo 1121401" transform="translate(0 62.535)">
          <path id="Trazado_974383" data-name="Trazado 974383" d="M2,54H6.81v9.621H2Z" transform="translate(-2 -54)" fill="#ff826e"/>
        </g>
        <g id="Grupo_1121402" data-name="Grupo 1121402" transform="translate(0 0)">
          <path id="Trazado_974384" data-name="Trazado 974384" d="M17.742,19.1,16.72,20.123l-2-2c-.337.144-.361.144-.7.289v2.826H9.216V18.415c-.337-.144-.361-.156-.7-.289L7.147,19.5l-.625.625-3.4-3.4,2-2c-.132-.337-.144-.361-.289-.7H2V9.216H4.826c.144-.337.144-.361.289-.7l-2-2,3.4-3.4,2,2c.337-.144.361-.144.7-.289V2h4.81V4.826c.337.144.361.144.7.289l2-2,3.4,3.4-.625.625L18.127,8.518c.144.337.144.361.289.7h2.826v4.81H18.415c-.144.337-.144.361-.289.7l2,2Zm-3.716-7.48a2.405,2.405,0,1,0-2.405,2.405A2.412,2.412,0,0,0,14.026,11.621Z" transform="translate(-2 -2)" fill="#fcd770"/>
        </g>
      </g>
      <g id="Grupo_1121404" data-name="Grupo 1121404" transform="translate(1 1)">
        <path id="Trazado_974385" data-name="Trazado 974385" d="M53.81,47.626V45H51.405v2.405H49v3.608a3.612,3.612,0,0,0,3.608,3.608,1.2,1.2,0,0,1,1.2,1.2v1.2h-1.2a1.2,1.2,0,0,1-1.2-1.2v-1.2H49v1.2a3.6,3.6,0,0,0,2.405,3.386v2.626H53.81V59.431h2.405V55.823a3.612,3.612,0,0,0-3.608-3.608,1.2,1.2,0,0,1-1.2-1.2v-1.2h1.2a1.2,1.2,0,0,1,1.2,1.2v1.2h2.405v-1.2A3.6,3.6,0,0,0,53.81,47.626Z" transform="translate(8.724 7.914)"/>
        <path id="Trazado_974386" data-name="Trazado 974386" d="M10.608,14.216A3.608,3.608,0,1,0,7,10.608,3.612,3.612,0,0,0,10.608,14.216Zm0-4.81a1.2,1.2,0,1,1-1.2,1.2A1.2,1.2,0,0,1,10.608,9.405Z" transform="translate(0.216 0.216)"/>
        <path id="Trazado_974387" data-name="Trazado 974387" d="M72.256,22.946A13.207,13.207,0,0,0,53.614,4.3a37.211,37.211,0,0,0-32.9,1.1L16.925,1.619,15.431,3.113V1H8.216V3.113L6.722,1.619l-5.1,5.1L3.114,8.216H1v7.216H3.113L1.619,16.926,5.41,20.715A37.184,37.184,0,0,0,7.125,58.724H5.81v4.81H1V75.561H17.836V69.436a37.2,37.2,0,0,0,35.778,2.82A13.207,13.207,0,0,0,72.256,53.614a37.228,37.228,0,0,0,0-30.668ZM62.332,49.1a13.215,13.215,0,0,0-1.889.15l-.392-1.175.985-1.478L64.2,48.5l2.078-6.237a13.781,13.781,0,0,1,5.465,5.859A34.826,34.826,0,0,1,70.4,51.872,13.153,13.153,0,0,0,62.332,49.1ZM8.216,22.647h7.216V20.534l1.494,1.494,1.1-1.1.391.391a12.327,12.327,0,0,0,5.726,3.242,1.2,1.2,0,0,1,.912,1.167V28.66a8.368,8.368,0,0,1-.078,1.082,5.8,5.8,0,0,0-2.327,4.643c0,.058,0,.1,0,.147A8.407,8.407,0,0,1,8.216,28.66Zm12.317-7.216h2.114V13.652a10.855,10.855,0,0,1,7.216,10.2v.366a8.719,8.719,0,0,0-2.405,2.515v-1a3.6,3.6,0,0,0-2.732-3.5,9.92,9.92,0,0,1-4.608-2.608l-.391-.391,2.3-2.3Zm2.448,21.987.47,3.752c-.1-.028-.195-.07-.295-.1a1.236,1.236,0,0,1-.9-.9l-.5-2A10.651,10.651,0,0,0,22.981,37.418Zm-2.37,6.875H12.657a9.365,9.365,0,0,1-.483-1.679,3.6,3.6,0,0,0,1.17-1.856l.42-1.675a10.469,10.469,0,0,0,5.74,0l.42,1.679a3.62,3.62,0,0,0,1.171,1.857A9.381,9.381,0,0,1,20.611,44.293ZM19.2,46.7a9.368,9.368,0,0,1-2.571,2.24,9.368,9.368,0,0,1-2.571-2.24Zm8.252-4.81h.1l.4,4.81h-.5a2.405,2.405,0,1,1,0-4.81Zm.119-2.405h-.119a4.764,4.764,0,0,0-1.751.342l-.629-5.014a2.846,2.846,0,0,1-.025-.426,3.4,3.4,0,0,1,2.328-3.23l1.121-.374.136-.684a6.293,6.293,0,0,1,6.155-5.045h5.071a11.649,11.649,0,0,1,11.3,14.473l-.1.386a4.76,4.76,0,0,0-1.961-.428h-.2a3.5,3.5,0,0,0-3.294-2.4v0a6.294,6.294,0,0,1-6.155-5.046L37.1,32.5a8.645,8.645,0,0,0,2.529,4.575H39.6a6.294,6.294,0,0,1-6.155-5.046l-2.358.471a8.626,8.626,0,0,0,1.033,2.7l-2.014,1.007a4.758,4.758,0,0,0-2.53,3.271Zm15.2-26.061a3.05,3.05,0,0,1,2.156-5.206h5.627a13.123,13.123,0,0,0-1.175,8.736l-.04.019a4.757,4.757,0,0,0-2.531,3.271H46.7A4.805,4.805,0,0,0,43.486,21.5l-.112-.055a2.689,2.689,0,0,1,0-4.81l1.746-.873ZM62.332,4.371l1.141,1.712a14.676,14.676,0,0,1,1.173,2.132H60.018a14.676,14.676,0,0,1,1.173-2.132Zm3.151,6.25a14.47,14.47,0,0,1,0,7.216h-6.3a14.47,14.47,0,0,1,0-7.216Zm7.673,3.608a10.747,10.747,0,0,1-.631,3.608H67.958a17,17,0,0,0,0-7.216h4.566A10.747,10.747,0,0,1,73.155,14.228ZM70.707,25.441a2.4,2.4,0,0,1-2.362,2.016h-.5l.106-1.271a13.183,13.183,0,0,0,2.446-1.5Q70.558,25.064,70.707,25.441ZM58.081,46.7H56.962l-.89-1.336,1.449-.869,1.449.869Zm-9.074-4.81h.1a2.405,2.405,0,0,1,0,4.81h-.5Zm4.1-.248.075-.3,2.184,1.638-1.5.9a4.775,4.775,0,0,0-.761-2.237Zm6.563,1.338,2.916-2.188a13.759,13.759,0,0,1,1.5.447l-1.219,3.656ZM60.972,39l-3.45,2.587L54.071,39l.5-2.012a8.372,8.372,0,0,0,1.169.09H59.3a8.15,8.15,0,0,0,1.168-.093ZM59.3,34.673H55.742a5.944,5.944,0,0,1-2.047-.361,14.019,14.019,0,0,0-4.165-7.784l-.416-5c-.007-.087-.011-.176-.011-.265a2.36,2.36,0,0,1,1.023-1.934,13.254,13.254,0,0,0,11,8.071v.061a2.408,2.408,0,0,1-2.405,2.405h-4.81v2.405h4.81a4.815,4.815,0,0,0,4.81-4.81V27.4a13.129,13.129,0,0,0,1.933-.331l-.174,2.093A6.049,6.049,0,0,1,59.3,34.673ZM46.795,22.647l.162,1.943a14.027,14.027,0,0,0-2.138-1.023,2.407,2.407,0,0,1,1.88-.92Zm15.537,1.439-1.141-1.712a14.855,14.855,0,0,1-1.173-2.132h4.628a14.676,14.676,0,0,1-1.173,2.132Zm-3.142-.378.7,1.056a10.849,10.849,0,0,1-6.554-4.523h4.076a17.034,17.034,0,0,0,1.774,3.467Zm5.581,1.056.7-1.056a17.1,17.1,0,0,0,1.775-3.467h4.076A10.855,10.855,0,0,1,64.771,24.764Zm-8.065-6.928H52.14a10.624,10.624,0,0,1,0-7.216h4.566a17,17,0,0,0,0,7.216ZM31.184,38.363l2.479-1.239a8.68,8.68,0,0,0,5.94,2.358h5.99a1.127,1.127,0,0,1,1.1,1.2L46.051,48.4a6.048,6.048,0,0,1-5.993,5.514H36.5A6.047,6.047,0,0,1,30.509,48.4l-.636-7.633c-.007-.089-.011-.177-.011-.266a2.377,2.377,0,0,1,1.322-2.138ZM40.432,62.22l2.911-2.184a13.991,13.991,0,0,1,1.5.435l-1.222,3.664Zm-3.93-5.9H40.06a8.136,8.136,0,0,0,1.168-.093l.5,2.014-3.45,2.588-3.45-2.588.5-2.014a8.166,8.166,0,0,0,1.169.093Zm-3.3,3.705,2.928,2.2-3.194,1.917-1.225-3.675a13.726,13.726,0,0,1,1.491-.438Zm-3.682,1.465L31.6,67.743l3.166-1.9.985,1.478-1.846,5.538a34.36,34.36,0,0,1-10.75-3.168,13.705,13.705,0,0,1,6.36-8.2Zm8.2,4.451-.89-1.336,1.449-.869,1.449.869-.89,1.336Zm4.073-.1,3.166,1.9,2.076-6.228A13.739,13.739,0,0,1,49.138,63a13.146,13.146,0,0,0,2.735,7.4,34.377,34.377,0,0,1-9.211,2.476l-1.852-5.555Zm7.514-5.753a16.139,16.139,0,0,0-5.23-2.375l-.542-2.167A8.466,8.466,0,0,0,48.38,49.1H49.1a4.781,4.781,0,0,0,3.71-1.786l1.194-.717.985,1.478-1.472,4.414a13.213,13.213,0,0,0-4.213,7.6ZM57.185,49.1h.672l.236.708a13.2,13.2,0,0,0-1.323.533Zm15.357-4.318a16.2,16.2,0,0,0-9.221-6.312l-.542-2.167a8.466,8.466,0,0,0,4.844-6.443h.723a4.79,4.79,0,0,0,3.4-1.43,34.75,34.75,0,0,1,1.412,9.848,35.2,35.2,0,0,1-.613,6.5ZM71.325,8.216H67.249a17.1,17.1,0,0,0-1.775-3.467l-.7-1.056A10.848,10.848,0,0,1,71.325,8.216ZM59.893,3.693l-.7,1.056a17.156,17.156,0,0,0-1.774,3.467H53.339a10.849,10.849,0,0,1,6.554-4.523ZM51.007,5.81H44.937a5.456,5.456,0,0,0-3.857,9.313l.109.108a5.093,5.093,0,0,0-.143,7.475c-.391-.032-.784-.06-1.185-.06H34.79a8.592,8.592,0,0,0-2.559.405,13.26,13.26,0,0,0-9.585-11.926V8.216H20.614A34.857,34.857,0,0,1,51.007,5.81ZM5.832,13.026H3.405V10.621H5.832l.906-2.183L5.02,6.721l1.7-1.7L8.438,6.736l2.183-.9V3.405h2.405V5.832l2.183.9L16.925,5.02l1.7,1.7L16.909,8.438l.906,2.183h2.427v2.405H17.815l-.906,2.183,1.717,1.716-1.7,1.7-1.716-1.716-2.183.906v2.427H10.621V17.812l-2.181-.9L6.722,18.625l-1.7-1.7L6.736,15.21ZM5.81,25.589v3.07a10.833,10.833,0,0,0,5.7,9.529l-.5,1.987a1.238,1.238,0,0,1-.9.9,12.015,12.015,0,0,0-6.079,3.706A34.5,34.5,0,0,1,5.81,25.589ZM3.405,65.94H5.81v7.216H3.405Zm4.81,7.216V61.129h2.405V73.155Zm7.216,0H13.026V56.319h2.405Zm-4.81-19.241v4.81h-.575A34.556,34.556,0,0,1,4.757,47.853a9.625,9.625,0,0,1,5.19-4.214A11.792,11.792,0,0,0,16.1,51.381l.538.269.538-.269a11.8,11.8,0,0,0,5.6-6.029A4.812,4.812,0,0,0,27.457,49.1h.723a8.469,8.469,0,0,0,4.845,6.443l-.541,2.167A16.114,16.114,0,0,0,20.993,68.547a35.16,35.16,0,0,1-3.156-2.032v-12.6ZM36.366,73.08l1.578-4.735h.672L40.2,73.1q-.956.052-1.922.053c-.642,0-1.278-.042-1.915-.076Zm25.966.076A10.823,10.823,0,1,1,73.155,62.332,10.835,10.835,0,0,1,62.332,73.155Z" transform="translate(-1 -1)"/>
        <path id="Trazado_974388" data-name="Trazado 974388" d="M38.621,39H36.216a2.408,2.408,0,0,1-2.405,2.405H29V43.81h4.81A4.815,4.815,0,0,0,38.621,39Z" transform="translate(4.673 6.698)"/>
        <path id="Trazado_974389" data-name="Trazado 974389" d="M20.621,25H18.216a2.408,2.408,0,0,1-2.405,2.405H11V29.81h4.81A4.815,4.815,0,0,0,20.621,25Z" transform="translate(1.026 3.862)"/>
      </g>
    </g>
  </g>
</svg>
