<svg xmlns="http://www.w3.org/2000/svg" xmlns:xlink="http://www.w3.org/1999/xlink" width="295" height="400" viewBox="0 0 295 400">
  <defs>
    <clipPath id="clip-path">
      <rect id="Rectángulo_417767" data-name="Rectángulo 417767" width="295" height="349" transform="translate(179.711 6326)" fill="#fff" stroke="#707070" stroke-width="1"/>
    </clipPath>
    <linearGradient id="linear-gradient" x1="0.5" x2="0.5" y2="1" gradientUnits="objectBoundingBox">
      <stop offset="0" stop-color="#fdfdfd"/>
      <stop offset="0.479" stop-color="#fbfdfd"/>
      <stop offset="0.652" stop-color="#f4fbfd"/>
      <stop offset="0.775" stop-color="#e9f8fe"/>
      <stop offset="0.874" stop-color="#d8f4fe"/>
      <stop offset="0.958" stop-color="#c2efff"/>
      <stop offset="1" stop-color="#b4ecff"/>
    </linearGradient>
  </defs>
  <g id="Grupo_1121466" data-name="Grupo 1121466" transform="translate(-179.711 -6294)">
    <path id="Trazado_974583" data-name="Trazado 974583" d="M20,0H275a20,20,0,0,1,20,20V400H0V20A20,20,0,0,1,20,0Z" transform="translate(179.711 6294)" fill="#0042db"/>
    <rect id="Rectángulo_416260" data-name="Rectángulo 416260" width="295" height="91" transform="translate(179.711 6603)" fill="#99b3f1"/>
    <g id="Enmascarar_grupo_1098999" data-name="Enmascarar grupo 1098999" clip-path="url(#clip-path)">
      <g id="Grupo_1121461" data-name="Grupo 1121461" transform="translate(193.037 6361.657)" opacity="0.45">
        <path id="Trazado_974584" data-name="Trazado 974584" d="M1068.84,1345.009h0c0-22.843,19.861-41.361,44.36-41.361h9.254a18.5,18.5,0,0,1-7.07-14.406h0c0-10.522,9.148-19.051,20.433-19.051h30.8a13.232,13.232,0,0,1-5.095-10.327c0-7.528,6.546-13.631,14.62-13.631h77.333c8.074,0,14.62,6.1,14.62,13.631s-6.546,13.631-14.62,13.631h-28.956a18.714,18.714,0,0,0-8.932,15.747h0a18.5,18.5,0,0,0,7.07,14.406h47.622c24.5,0,44.36,18.518,44.36,41.361h0c0,22.843-19.861,41.361-44.36,41.361h63.088c11.285,0,20.432,8.53,20.432,19.051s-9.148,19.051-20.432,19.051h25.705c28.085,0,51.4,18.984,56.026,43.937h9c17.512,0,31.707,13.236,31.707,29.563v2.995c0,16.327-14.2,29.563-31.707,29.563H1125.715c-31.411,0-56.875-23.741-56.875-53.029h0c0-29.287,25.464-53.028,56.875-53.028h99.57c-11.285,0-20.433-8.53-20.433-19.051s9.148-19.051,20.433-19.051H1113.2C1088.7,1386.37,1068.84,1367.85,1068.84,1345.009Z" transform="translate(-1068.84 -1246.234)" fill="#abe9ff"/>
        <ellipse id="Elipse_13714" data-name="Elipse 13714" cx="13.282" cy="13.631" rx="13.282" ry="13.631" transform="translate(212.785 0)" fill="#abe9ff"/>
      </g>
    </g>
    <g id="Grupo_1119325" data-name="Grupo 1119325" transform="translate(8147.014 9697.864)">
      <ellipse id="Elipse_13677" data-name="Elipse 13677" cx="135.307" cy="6.412" rx="135.307" ry="6.412" transform="translate(-7953.27 -3057.9)" fill="#231f20" opacity="0.15"/>
      <g id="Grupo_1119082" data-name="Grupo 1119082" transform="translate(-7956.658 -3088.242)">
        <g id="Grupo_1119077" data-name="Grupo 1119077" transform="translate(14.756 14.743)">
          <path id="Trazado_969591" data-name="Trazado 969591" d="M1107.408,1822.957c.424-.309,1.284.061,4.078-1.1,4.076-1.7,5.667-10.469,5.667-10.469-6.2-.777-5.81,8.16-8.21,9.688a4.546,4.546,0,0,0-1.827,1.883Z" transform="translate(-1107.117 -1811.338)" fill="#66e8c4"/>
          <path id="Trazado_969592" data-name="Trazado 969592" d="M1117.782,1814.1c-1.275,2.6-2.78,6.433-5.32,7.656a5.946,5.946,0,0,0-1.614,1.107,11.493,11.493,0,0,0,3.191-.907c4.076-1.7,5.667-10.469,5.667-10.469S1119.06,1811.5,1117.782,1814.1Z" transform="translate(-1109.671 -1811.441)" fill="#3fd2c5"/>
        </g>
        <g id="Grupo_1119078" data-name="Grupo 1119078" transform="translate(4.836 4.592)">
          <path id="Trazado_969593" data-name="Trazado 969593" d="M1083.267,1800.93h.672c.437-.929.577-2.675-.883-5.881-2.7-5.932-4.067-13.626-2.184-15.889,0,0-6.451,4.6-4.984,9.38C1077.264,1793.031,1084.195,1796.018,1083.267,1800.93Z" transform="translate(-1075.671 -1779.16)" fill="#35bfe6"/>
          <path id="Trazado_969594" data-name="Trazado 969594" d="M1088.3,1800.93h.4c.437-.929.577-2.674-.884-5.881-2.7-5.932-4.067-13.626-2.184-15.889,0,0-4.258,4.735-2.642,9.269C1084.585,1792.9,1089.5,1795.236,1088.3,1800.93Z" transform="translate(-1080.431 -1779.16)" fill="#0a88d2"/>
        </g>
        <g id="Grupo_1119079" data-name="Grupo 1119079" transform="translate(0 15.669)">
          <path id="Trazado_969595" data-name="Trazado 969595" d="M1066.4,1822.459c2.455,1,3.505,1.665,4.19,2.508h.862c-.644-1.948-1.028-4.031-2.541-5.606-1.717-1.789-8.334-4.733-8.561-5.074S1063.089,1821.109,1066.4,1822.459Z" transform="translate(-1060.342 -1814.274)" fill="#49d3d5"/>
          <path id="Trazado_969596" data-name="Trazado 969596" d="M1070.723,1824.448c.051.156.126.345.215.551h.542c-.645-1.948-1.029-4.031-2.541-5.606-1.717-1.789-8.334-4.732-8.561-5.074a25.564,25.564,0,0,0,6.784,5.868A6.786,6.786,0,0,1,1070.723,1824.448Z" transform="translate(-1060.368 -1814.304)" fill="#0fa1b8"/>
        </g>
        <g id="Grupo_1119081" data-name="Grupo 1119081" transform="translate(10.501 0)">
          <path id="Trazado_969597" data-name="Trazado 969597" d="M1097.422,1788.152a9.241,9.241,0,0,1-.63,2.813h.469c1.611-2.08,4.09-6.118,3.626-10.833-.678-6.89-1.416-15.528-1.416-15.528s-9.069,6.877-4.607,14.5C1097.09,1782.912,1097.579,1785.944,1097.422,1788.152Z" transform="translate(-1093.63 -1764.604)" fill="#66e8c7"/>
          <g id="Grupo_1119080" data-name="Grupo 1119080" transform="translate(3.718 0.001)">
            <path id="Trazado_969598" data-name="Trazado 969598" d="M1105.951,1775.444c.92,5.71.932,12.1-.534,14.808.267-.189.553-.388.845-.59a15.006,15.006,0,0,0,2.694-9.528c-.678-6.89-1.416-15.527-1.416-15.527S1104.755,1768.012,1105.951,1775.444Z" transform="translate(-1105.417 -1764.607)" fill="#3fd2c5"/>
          </g>
        </g>
        <path id="Trazado_969599" data-name="Trazado 969599" d="M1096.959,1846.84h-10.323a1.474,1.474,0,0,0-1.453,1.727l1.319,7.6a2.287,2.287,0,0,0,2.246,1.86h6.1a2.286,2.286,0,0,0,2.246-1.86l1.319-7.6A1.477,1.477,0,0,0,1096.959,1846.84Z" transform="translate(-1077.332 -1820.898)" fill="#cadbf9"/>
        <path id="Trazado_969600" data-name="Trazado 969600" d="M1098.428,1848.371a1.474,1.474,0,0,0-1.472-1.525h-10.323a1.474,1.474,0,0,0-1.472,1.525Z" transform="translate(-1077.331 -1820.902)" fill="#a1b7eb"/>
        <path id="Trazado_969601" data-name="Trazado 969601" d="M1111.747,1846.84h-2.87a1.474,1.474,0,0,1,1.453,1.727l-1.319,7.6a2.286,2.286,0,0,1-2.246,1.86h2.871a2.286,2.286,0,0,0,2.246-1.86l1.319-7.6A1.478,1.478,0,0,0,1111.747,1846.84Z" transform="translate(-1092.12 -1820.898)" fill="#a1b7eb"/>
      </g>
      <g id="Grupo_1119088" data-name="Grupo 1119088" transform="translate(-7709.577 -3088.242)">
        <g id="Grupo_1119083" data-name="Grupo 1119083" transform="translate(14.759 14.743)">
          <path id="Trazado_969602" data-name="Trazado 969602" d="M1890.658,1822.957c.424-.309,1.284.061,4.078-1.1,4.076-1.7,5.667-10.469,5.667-10.469-6.2-.777-5.81,8.16-8.21,9.688a4.546,4.546,0,0,0-1.827,1.883Z" transform="translate(-1890.367 -1811.338)" fill="#66e8c4"/>
          <path id="Trazado_969603" data-name="Trazado 969603" d="M1901.032,1814.1c-1.275,2.6-2.78,6.433-5.321,7.656a5.947,5.947,0,0,0-1.614,1.107,11.492,11.492,0,0,0,3.191-.907c4.076-1.7,5.667-10.469,5.667-10.469S1902.307,1811.5,1901.032,1814.1Z" transform="translate(-1892.921 -1811.441)" fill="#3fd2c5"/>
        </g>
        <g id="Grupo_1119084" data-name="Grupo 1119084" transform="translate(4.836 4.592)">
          <path id="Trazado_969604" data-name="Trazado 969604" d="M1866.507,1800.93h.672c.437-.929.577-2.675-.883-5.881-2.7-5.932-4.067-13.626-2.184-15.889,0,0-6.451,4.6-4.984,9.38C1860.5,1793.031,1867.435,1796.018,1866.507,1800.93Z" transform="translate(-1858.911 -1779.16)" fill="#35bfe6"/>
          <path id="Trazado_969605" data-name="Trazado 969605" d="M1871.542,1800.93h.4c.437-.929.577-2.674-.884-5.881-2.7-5.932-4.067-13.626-2.184-15.889,0,0-4.258,4.735-2.642,9.269C1867.825,1792.9,1872.74,1795.236,1871.542,1800.93Z" transform="translate(-1863.671 -1779.16)" fill="#0a88d2"/>
        </g>
        <g id="Grupo_1119085" data-name="Grupo 1119085" transform="translate(0 15.669)">
          <path id="Trazado_969606" data-name="Trazado 969606" d="M1849.645,1822.459c2.455,1,3.505,1.665,4.189,2.508h.862c-.644-1.948-1.029-4.031-2.541-5.606-1.717-1.789-8.334-4.733-8.561-5.074S1846.329,1821.109,1849.645,1822.459Z" transform="translate(-1843.582 -1814.274)" fill="#49d3d5"/>
          <path id="Trazado_969607" data-name="Trazado 969607" d="M1853.963,1824.448c.051.156.126.345.215.551h.542c-.645-1.948-1.029-4.031-2.541-5.606-1.717-1.789-8.334-4.732-8.561-5.074a25.565,25.565,0,0,0,6.784,5.868A6.775,6.775,0,0,1,1853.963,1824.448Z" transform="translate(-1843.608 -1814.304)" fill="#0fa1b8"/>
        </g>
        <g id="Grupo_1119087" data-name="Grupo 1119087" transform="translate(10.504 0)">
          <path id="Trazado_969608" data-name="Trazado 969608" d="M1880.671,1788.152a9.237,9.237,0,0,1-.63,2.813h.469c1.611-2.08,4.09-6.118,3.626-10.833-.678-6.89-1.416-15.528-1.416-15.528s-9.069,6.877-4.607,14.5C1880.337,1782.912,1880.826,1785.944,1880.671,1788.152Z" transform="translate(-1876.879 -1764.604)" fill="#66e8c7"/>
          <g id="Grupo_1119086" data-name="Grupo 1119086" transform="translate(3.716 0.001)">
            <path id="Trazado_969609" data-name="Trazado 969609" d="M1889.191,1775.444c.92,5.71.932,12.1-.534,14.808.267-.189.553-.388.845-.59a15.007,15.007,0,0,0,2.694-9.528c-.678-6.89-1.416-15.527-1.416-15.527S1888,1768.012,1889.191,1775.444Z" transform="translate(-1888.657 -1764.607)" fill="#3fd2c5"/>
          </g>
        </g>
        <path id="Trazado_969610" data-name="Trazado 969610" d="M1880.2,1846.84h-10.323a1.474,1.474,0,0,0-1.453,1.727l1.319,7.6a2.287,2.287,0,0,0,2.246,1.86h6.1a2.287,2.287,0,0,0,2.246-1.86l1.319-7.6A1.476,1.476,0,0,0,1880.2,1846.84Z" transform="translate(-1860.572 -1820.898)" fill="#cadbf9"/>
        <path id="Trazado_969611" data-name="Trazado 969611" d="M1881.668,1848.371a1.474,1.474,0,0,0-1.472-1.525h-10.323a1.474,1.474,0,0,0-1.472,1.525Z" transform="translate(-1860.571 -1820.902)" fill="#a1b7eb"/>
        <path id="Trazado_969612" data-name="Trazado 969612" d="M1894.986,1846.84h-2.87a1.475,1.475,0,0,1,1.453,1.727l-1.319,7.6a2.286,2.286,0,0,1-2.246,1.86h2.871a2.286,2.286,0,0,0,2.246-1.86l1.319-7.6A1.476,1.476,0,0,0,1894.986,1846.84Z" transform="translate(-1875.359 -1820.898)" fill="#a1b7eb"/>
      </g>
      <g id="Grupo_1119094" data-name="Grupo 1119094" transform="translate(-7928.692 -3186.072)">
        <g id="Grupo_1119093" data-name="Grupo 1119093" transform="translate(0 0)">
          <g id="Grupo_1119090" data-name="Grupo 1119090">
            <path id="Trazado_969613" data-name="Trazado 969613" d="M1227.819,1563.52h-67.146a11.681,11.681,0,0,1-11.681-11.681v-85.673a11.681,11.681,0,0,1,11.681-11.681h68.859a3.256,3.256,0,0,1,3.256,3.255v100.809A4.97,4.97,0,0,1,1227.819,1563.52Z" transform="translate(-1148.992 -1454.486)" fill="#691336"/>
            <path id="Trazado_969614" data-name="Trazado 969614" d="M1185.86,1513.96v90.271h67.268a4.971,4.971,0,0,0,4.894-5.044V1513.96Z" transform="translate(-1174.23 -1495.198)" fill="#7e1f3f"/>
            <path id="Trazado_969615" data-name="Trazado 969615" d="M1242.805,1595.2h-55.8V1513.96h62.88v74.164A7.082,7.082,0,0,1,1242.805,1595.2Z" transform="translate(-1175.013 -1495.198)" fill="#8b254d"/>
            <path id="Trazado_969616" data-name="Trazado 969616" d="M1241.685,1479.775h-71.573a7.98,7.98,0,0,1-8.08-7.877h0a7.98,7.98,0,0,1,8.08-7.877h71.573a.01.01,0,0,1,.01.01v15.734A.009.009,0,0,1,1241.685,1479.775Z" transform="translate(-1157.918 -1461.014)" fill="#f8d6cd"/>
            <path id="Trazado_969617" data-name="Trazado 969617" d="M1170.117,1464.02a7.98,7.98,0,0,0-8.08,7.877h0a7.7,7.7,0,0,0,.121,1.313,8.041,8.041,0,0,0,7.043,4.085h70.272a.047.047,0,0,0,.047-.046V1464.02h-69.4Z" transform="translate(-1157.922 -1461.012)" fill="#fff"/>
          </g>
          <path id="Trazado_969618" data-name="Trazado 969618" d="M1275.3,1637.235h-.5l-4.115-8.421a.4.4,0,1,0-.63-.4,16.153,16.153,0,0,1-4.064-.862c-2.189-.8-4.6.662-4.6.662l-.459-2.812a.4.4,0,1,0-.213-.008l-.46,2.82s-2.415-1.464-4.6-.662a16.1,16.1,0,0,1-4.036.86.4.4,0,1,0-.61.417l-4.343,8.407h-.308a.091.091,0,0,0-.067.153h0v0h0a9.069,9.069,0,0,0,1.469,1.263q.208.141.414.262a6.317,6.317,0,0,0,1.021.482,5.649,5.649,0,0,0,.795.226c.131.027.26.048.389.065q.1.013.192.022.191.018.378.023a5.458,5.458,0,0,0,.553-.014c.121-.009.24-.022.358-.038l.176-.027a6.28,6.28,0,0,0,.841-.2q.243-.077.473-.168a7.723,7.723,0,0,0,.727-.334l.136-.073q.134-.073.261-.149c.169-.1.329-.2.479-.306.075-.051.147-.1.216-.153.243-.177.454-.347.627-.5.149-.129.269-.242.36-.33a.117.117,0,0,0,.034-.063.119.119,0,0,0-.117-.14h-.5l-4.113-8.417a.4.4,0,0,0,.069-.064h8.678a.065.065,0,0,0-.051.061v.107a.068.068,0,0,0,.068.068h.232l-.223,13.411a.077.077,0,0,0-.077.077v.142a1.116,1.116,0,0,0-1.11,1.116v.3h-2.145a.834.834,0,0,0-.833.834v.861h-.355a.4.4,0,0,0-.4.4v.333h11.073v-.333a.4.4,0,0,0-.4-.4h-.352v-.861a.834.834,0,0,0-.833-.834h-2.144v-.3a1.116,1.116,0,0,0-1.116-1.116h-.029v-.141a.078.078,0,0,0-.077-.077l-.223-13.411h.233a.068.068,0,0,0,.068-.068v-.107a.065.065,0,0,0-.051-.061h8.692a.408.408,0,0,0,.09.077l-4.342,8.4h-.308a.091.091,0,0,0-.067.153h0v0h0a9.357,9.357,0,0,0,1.261,1.117,7.209,7.209,0,0,0,.829.524q.206.111.409.2t.405.165q.2.073.4.13a5.448,5.448,0,0,0,1.353.206h.186c.061,0,.123,0,.184,0,.122-.005.243-.014.363-.027q.269-.029.527-.081a6.29,6.29,0,0,0,.668-.172c.216-.068.424-.146.624-.231.15-.063.3-.131.437-.2.094-.047.186-.095.275-.144q.2-.11.386-.225.123-.076.24-.153c.077-.051.152-.1.224-.153s.142-.1.208-.151c.2-.15.376-.293.525-.422s.27-.242.361-.33a.118.118,0,0,0,.034-.063A.121.121,0,0,0,1275.3,1637.235Zm-20.136,0h-8.114l4.107-8.348a.34.34,0,0,0,.133,0Zm15.23-8.347a.387.387,0,0,0,.051.005.416.416,0,0,0,.082-.009l3.874,8.351h-8.114Z" transform="translate(-1215.575 -1570.943)" fill="#d376a3"/>
          <g id="Grupo_1119092" data-name="Grupo 1119092" transform="translate(23.919 27.458)">
            <g id="Grupo_1119091" data-name="Grupo 1119091">
              <path id="Trazado_969619" data-name="Trazado 969619" d="M1226.948,1553.315H1234l-.464,2.134h-8.724v-13.92h2.134Z" transform="translate(-1224.814 -1541.529)" fill="#d376a3"/>
              <path id="Trazado_969620" data-name="Trazado 969620" d="M1272.149,1552.182h-6.292l-1.466,3.267h-2.339l6.255-13.92h1.392l6.255,13.92h-2.339Zm-.965-2.132-2.172-4.845-2.19,4.845Z" transform="translate(-1250.305 -1541.528)" fill="#d376a3"/>
              <path id="Trazado_969621" data-name="Trazado 969621" d="M1323.4,1541.53l-5.067,13.92h-1.392l-2-5.512-2,5.512h-1.392l-5.067-13.92h2.283l3.471,9.67,2.71-7.5,2.692,7.5,3.489-9.67Z" transform="translate(-1280.712 -1541.529)" fill="#d376a3"/>
            </g>
          </g>
        </g>
        <path id="Trazado_969622" data-name="Trazado 969622" d="M1211.261,1479.118h-28.68a.569.569,0,0,1-.569-.569v-.859a.569.569,0,0,1,.569-.569h28.68a.569.569,0,0,1,.569.569v.859A.571.571,0,0,1,1211.261,1479.118Z" transform="translate(-1171.596 -1469.981)" fill="#f8d6cd"/>
        <path id="Trazado_969623" data-name="Trazado 969623" d="M1194.3,1478.7a5.514,5.514,0,0,0-.652,2.756,16.888,16.888,0,0,1-.869,4.175l-1.882-2.171-2.027,2.171a24.023,24.023,0,0,0,.652-4.092,5.757,5.757,0,0,1,1.014-2.839h3.765Z" transform="translate(-1176.288 -1471.062)" fill="#022fa0"/>
      </g>
      <g id="Grupo_1119119" data-name="Grupo 1119119" transform="translate(-7851.753 -3228.291)">
        <g id="Grupo_1119097" data-name="Grupo 1119097" transform="translate(0 0)">
          <g id="Grupo_1119095" data-name="Grupo 1119095" transform="translate(0 10.115)">
            <path id="Trazado_969624" data-name="Trazado 969624" d="M1517.729,1516.95h-119.5a5.34,5.34,0,0,1-5.34-5.34V1358.058a5.34,5.34,0,0,1,5.34-5.34h119.5a5.34,5.34,0,0,1,5.34,5.34V1511.61A5.34,5.34,0,0,1,1517.729,1516.95Z" transform="translate(-1392.887 -1352.717)" fill="#1a90e8"/>
            <path id="Trazado_969625" data-name="Trazado 969625" d="M1773.6,1384.08l2.792.041-2.786,92.159Z" transform="translate(-1653.5 -1374.185)" fill="#1378d1"/>
            <path id="Trazado_969626" data-name="Trazado 969626" d="M1395.5,1508.042V1361.474a9.15,9.15,0,0,1,6.514-8.76h-3.788a5.34,5.34,0,0,0-5.34,5.34v153.552a5.34,5.34,0,0,0,5.34,5.34h4.35A9.148,9.148,0,0,1,1395.5,1508.042Z" transform="translate(-1392.885 -1352.714)" fill="#3ba9dd"/>
            <path id="Trazado_969627" data-name="Trazado 969627" d="M1801.025,1470.324l.22-4.561V1360.63a5.328,5.328,0,0,0-1.988-4.154Z" transform="translate(-1671.063 -1355.289)" fill="#1378d1"/>
          </g>
          <path id="Trazado_969628" data-name="Trazado 969628" d="M1534.772,1525.943H1424.856a.071.071,0,0,1-.071-.071V1384.147a.071.071,0,0,1,.071-.071h109.916a.071.071,0,0,1,.071.071v141.726A.072.072,0,0,1,1534.772,1525.943Z" transform="translate(-1414.722 -1364.068)" fill="url(#linear-gradient)"/>
          <path id="Trazado_969629" data-name="Trazado 969629" d="M1534.821,1390.49H1424.794a.015.015,0,0,1-.015-.015v-6.389a.015.015,0,0,1,.015-.015h110.027a.015.015,0,0,1,.015.015v6.389A.014.014,0,0,1,1534.821,1390.49Z" transform="translate(-1414.718 -1364.065)" fill="#99cff8"/>
          <g id="Grupo_1119096" data-name="Grupo 1119096" transform="translate(45.438)">
            <path id="Trazado_969630" data-name="Trazado 969630" d="M1575.89,1328.234h-9.613a1.216,1.216,0,0,0,.157-.59v-5.015a1.979,1.979,0,0,0-1.979-1.979H1550.8a1.979,1.979,0,0,0-1.979,1.979v5.015a1.217,1.217,0,0,0,.157.59h-9.613a2.444,2.444,0,0,0-2.444,2.444v7.385a3.923,3.923,0,0,0,3.924,3.924h33.564a3.924,3.924,0,0,0,3.924-3.924v-7.385A2.447,2.447,0,0,0,1575.89,1328.234Z" transform="translate(-1536.922 -1320.651)" fill="#f5d420"/>
            <path id="Trazado_969631" data-name="Trazado 969631" d="M1629.438,1328.234h-9.613a1.217,1.217,0,0,0,.157-.59v-5.015a1.979,1.979,0,0,0-1.979-1.979h-2.856c1.227.811,2.6,2.084,2.693,3.77.172,3.084-1.028,6.684.343,7.2s10.625-1.714,10.454,2.742c-.1,2.679-.392,5.665-.606,7.623a3.922,3.922,0,0,0,3.851-3.92v-7.385A2.447,2.447,0,0,0,1629.438,1328.234Z" transform="translate(-1590.469 -1320.651)" fill="#eac00f"/>
          </g>
        </g>
        <g id="Grupo_1119098" data-name="Grupo 1119098" transform="translate(15.962 50.486)">
          <path id="Trazado_969632" data-name="Trazado 969632" d="M1467,1480.69h-21.761a1.759,1.759,0,0,0-1.758,1.758v21.761a1.758,1.758,0,0,0,1.758,1.758H1467a1.759,1.759,0,0,0,1.759-1.758v-21.761A1.76,1.76,0,0,0,1467,1480.69Z" transform="translate(-1443.483 -1480.69)" fill="#80d3fb"/>
          <path id="Trazado_969633" data-name="Trazado 969633" d="M1471.451,1505.262h-.354l-2.9-5.926a.282.282,0,1,0-.443-.282,11.353,11.353,0,0,1-2.86-.607,4.27,4.27,0,0,0-3.24.466l-.323-1.979a.284.284,0,1,0-.15-.006l-.324,1.985a4.269,4.269,0,0,0-3.24-.466,11.341,11.341,0,0,1-2.84.605.283.283,0,1,0-.43.293l-3.057,5.916h-.217a.064.064,0,0,0-.047.107h0a6.393,6.393,0,0,0,1.034.889q.146.1.292.184a4.473,4.473,0,0,0,.718.339,3.969,3.969,0,0,0,.559.159c.092.019.183.034.273.046l.135.015c.09.008.178.014.266.016q.2,0,.389-.01c.085-.006.169-.015.252-.027l.124-.019a4.408,4.408,0,0,0,.592-.144q.171-.054.333-.118a5.463,5.463,0,0,0,.512-.235l.1-.051q.094-.052.184-.105c.119-.071.232-.143.337-.215.053-.036.1-.072.152-.107.171-.124.319-.245.441-.35.1-.09.189-.17.254-.232a.083.083,0,0,0-.058-.143h-.354l-2.894-5.923a.3.3,0,0,0,.049-.045h6.106a.046.046,0,0,0-.036.043v.075a.048.048,0,0,0,.048.048H1461l-.157,9.437a.054.054,0,0,0-.054.054v.1a.785.785,0,0,0-.781.785v.212H1458.5a.586.586,0,0,0-.586.586v.606h-.25a.279.279,0,0,0-.279.279v.234h7.792v-.234a.279.279,0,0,0-.279-.279h-.248v-.606a.587.587,0,0,0-.587-.586h-1.509v-.212a.786.786,0,0,0-.786-.786h-.02v-.1a.054.054,0,0,0-.054-.054l-.157-9.437h.164a.048.048,0,0,0,.048-.048v-.075a.046.046,0,0,0-.036-.043h6.116a.289.289,0,0,0,.063.054l-3.055,5.914h-.217a.064.064,0,0,0-.047.107h0a6.559,6.559,0,0,0,.887.786,5.114,5.114,0,0,0,.583.369q.145.078.288.142t.285.116q.142.052.282.091a3.834,3.834,0,0,0,.952.145h.131l.13,0q.129-.005.255-.019c.126-.014.25-.033.371-.057a4.45,4.45,0,0,0,.47-.121c.152-.048.3-.1.439-.162.105-.045.208-.092.307-.142.066-.033.131-.067.193-.1q.142-.078.272-.158.087-.053.168-.108c.054-.036.107-.072.158-.108s.1-.071.147-.107c.141-.105.265-.207.369-.3s.189-.17.254-.232a.083.083,0,0,0-.058-.143Zm-14.167,0h-5.709l2.89-5.874a.29.29,0,0,0,.04,0,.274.274,0,0,0,.053-.005Zm10.716-5.874a.293.293,0,0,0,.036,0,.28.28,0,0,0,.058-.006l2.726,5.876h-5.709Z" transform="translate(-1448.638 -1491.429)" fill="#fff"/>
        </g>
        <g id="Grupo_1119100" data-name="Grupo 1119100" transform="translate(27.806 35.042)">
          <g id="Grupo_1119099" data-name="Grupo 1119099" transform="translate(15.899)">
            <path id="Trazado_969634" data-name="Trazado 969634" d="M1538.315,1432.16v8.454h-.845l-4.746-5.828v5.828h-1.3v-8.454h.845l4.745,5.816v-5.816Z" transform="translate(-1531.428 -1432.025)" fill="#3ebde5"/>
            <path id="Trazado_969635" data-name="Trazado 969635" d="M1556.83,1436.094a3.9,3.9,0,1,1,3.878,4.362A4.139,4.139,0,0,1,1556.83,1436.094Zm6.47,0a2.629,2.629,0,1,0-2.593,3.066A2.861,2.861,0,0,0,1563.3,1436.094Z" transform="translate(-1548.817 -1431.732)" fill="#3ebde5"/>
            <path id="Trazado_969636" data-name="Trazado 969636" d="M1589.883,1432.16v1.3h-2.874v7.158h-1.3v-7.158h-2.875v-1.3Z" transform="translate(-1566.62 -1432.025)" fill="#3ebde5"/>
            <path id="Trazado_969637" data-name="Trazado 969637" d="M1609.264,1438.63h-3.821l-.891,1.984h-1.42l3.8-8.454h.845l3.8,8.454h-1.42Zm-.587-1.3-1.319-2.942-1.33,2.942Z" transform="translate(-1580.512 -1432.025)" fill="#3ebde5"/>
            <path id="Trazado_969638" data-name="Trazado 969638" d="M1636.922,1440.614l-1.567-3.089a4.374,4.374,0,0,1-.688.045h-.868v3.043h-1.3v-8.454h2.491c2.57,0,2.964,1.409,2.964,2.592a2.7,2.7,0,0,1-1.353,2.378l1.77,3.483h-1.454Zm-2.177-4.341c1.454,0,1.916-.756,1.916-1.522,0-.958-.642-1.3-1.668-1.3h-1.2v2.818Z" transform="translate(-1600.618 -1432.025)" fill="#3ebde5"/>
            <path id="Trazado_969639" data-name="Trazado 969639" d="M1660.583,1432.16l-3.133,5.106v3.348h-1.3v-3.348l-3.145-5.106h1.522l2.266,3.663,2.277-3.663Z" transform="translate(-1614.655 -1432.025)" fill="#3ebde5"/>
          </g>
          <rect id="Rectángulo_416714" data-name="Rectángulo 416714" width="11.093" height="1.164" transform="translate(0 3.782)" fill="#3ebde5"/>
          <rect id="Rectángulo_416715" data-name="Rectángulo 416715" width="11.093" height="1.164" transform="translate(64.581 3.782)" fill="#3ebde5"/>
        </g>
        <g id="Grupo_1119103" data-name="Grupo 1119103" transform="translate(46.779 54.467)">
          <g id="Grupo_1119101" data-name="Grupo 1119101" transform="translate(0.001)">
            <path id="Trazado_969640" data-name="Trazado 969640" d="M1556.659,1493.31h-14.9a.584.584,0,0,0-.584.584v2.593a.584.584,0,0,0,.584.584h14.9a.584.584,0,0,0,.584-.584v-2.593A.585.585,0,0,0,1556.659,1493.31Z" transform="translate(-1541.175 -1493.31)" fill="#80d3fb"/>
            <path id="Trazado_969641" data-name="Trazado 969641" d="M1603.163,1493.31h19.673a.584.584,0,0,1,.584.584v2.593a.584.584,0,0,1-.584.584h-19.673a.584.584,0,0,1-.584-.584v-2.593A.585.585,0,0,1,1603.163,1493.31Z" transform="translate(-1583.208 -1493.31)" fill="#80d3fb"/>
            <path id="Trazado_969642" data-name="Trazado 969642" d="M1677.553,1493.31h10.777a.584.584,0,0,1,.584.584v2.593a.584.584,0,0,1-.584.584h-10.777a.584.584,0,0,1-.584-.584v-2.593A.585.585,0,0,1,1677.553,1493.31Z" transform="translate(-1634.131 -1493.31)" fill="#80d3fb"/>
          </g>
          <g id="Grupo_1119102" data-name="Grupo 1119102" transform="translate(0 7.666)">
            <path id="Trazado_969643" data-name="Trazado 969643" d="M1551.828,1517.61h-10.071a.584.584,0,0,0-.584.584v2.593a.584.584,0,0,0,.584.584h10.071a.584.584,0,0,0,.584-.584v-2.593A.585.585,0,0,0,1551.828,1517.61Z" transform="translate(-1541.173 -1517.61)" fill="#80d3fb"/>
            <path id="Trazado_969644" data-name="Trazado 969644" d="M1605.589,1517.61h-17.555a.584.584,0,0,0-.584.584v2.593a.584.584,0,0,0,.584.584h17.555a.584.584,0,0,0,.584-.584v-2.593A.585.585,0,0,0,1605.589,1517.61Z" transform="translate(-1572.851 -1517.61)" fill="#80d3fb"/>
            <path id="Trazado_969645" data-name="Trazado 969645" d="M1667.53,1517.61h-12.9a.584.584,0,0,0-.584.584v2.593a.584.584,0,0,0,.584.584h12.9a.584.584,0,0,0,.584-.584v-2.593A.583.583,0,0,0,1667.53,1517.61Z" transform="translate(-1618.442 -1517.61)" fill="#80d3fb"/>
            <path id="Trazado_969646" data-name="Trazado 969646" d="M1717.609,1517.61h-5.49a.552.552,0,0,0-.552.552v2.657a.552.552,0,0,0,.552.552h5.49a.552.552,0,0,0,.552-.552v-2.657A.55.55,0,0,0,1717.609,1517.61Z" transform="translate(-1657.814 -1517.61)" fill="#80d3fb"/>
          </g>
        </g>
        <g id="Grupo_1119106" data-name="Grupo 1119106" transform="translate(15.96 110.244)">
          <path id="Trazado_969647" data-name="Trazado 969647" d="M1466.552,1670.12H1444.2a.723.723,0,0,0-.723.723v2.315a.723.723,0,0,0,.723.723h22.35a.723.723,0,0,0,.723-.723v-2.315A.723.723,0,0,0,1466.552,1670.12Z" transform="translate(-1443.479 -1670.12)" fill="#80d3fb"/>
          <path id="Trazado_969648" data-name="Trazado 969648" d="M1545.18,1670.12h-14.13a.723.723,0,0,0-.723.723v2.316a.723.723,0,0,0,.723.723h14.129a.723.723,0,0,0,.723-.723v-2.316A.722.722,0,0,0,1545.18,1670.12Z" transform="translate(-1502.93 -1670.12)" fill="#80d3fb"/>
          <g id="Grupo_1119104" data-name="Grupo 1119104" transform="translate(0 7.811)">
            <path id="Trazado_969649" data-name="Trazado 969649" d="M1473.343,1694.88H1444.2a.723.723,0,0,0-.723.723v2.315a.723.723,0,0,0,.723.723h29.143a.723.723,0,0,0,.723-.723V1695.6A.723.723,0,0,0,1473.343,1694.88Z" transform="translate(-1443.478 -1694.88)" fill="#80d3fb"/>
            <path id="Trazado_969650" data-name="Trazado 969650" d="M1632.8,1694.88h-48.953a.64.64,0,0,0-.64.64V1698a.64.64,0,0,0,.64.64H1632.8a.64.64,0,0,0,.64-.64v-2.481A.64.64,0,0,0,1632.8,1694.88Z" transform="translate(-1539.125 -1694.88)" fill="#80d3fb"/>
            <path id="Trazado_969651" data-name="Trazado 969651" d="M1560.75,1694.88h-8.678a.723.723,0,0,0-.723.723v2.315a.723.723,0,0,0,.723.723h8.678a.723.723,0,0,0,.723-.723V1695.6A.725.725,0,0,0,1560.75,1694.88Z" transform="translate(-1517.32 -1694.88)" fill="#80d3fb"/>
          </g>
          <g id="Grupo_1119105" data-name="Grupo 1119105" transform="translate(0.001 15.625)">
            <path id="Trazado_969652" data-name="Trazado 969652" d="M1466.553,1719.65H1444.2a.723.723,0,0,0-.723.723v2.315a.723.723,0,0,0,.723.723h22.35a.723.723,0,0,0,.723-.723v-2.315A.723.723,0,0,0,1466.553,1719.65Z" transform="translate(-1443.48 -1719.65)" fill="#80d3fb"/>
            <path id="Trazado_969653" data-name="Trazado 969653" d="M1664.043,1719.65h-19.112a.67.67,0,0,0-.67.67v2.421a.67.67,0,0,0,.67.67h19.112a.67.67,0,0,0,.67-.67v-2.421A.667.667,0,0,0,1664.043,1719.65Z" transform="translate(-1580.923 -1719.65)" fill="#80d3fb"/>
            <path id="Trazado_969654" data-name="Trazado 969654" d="M1563.959,1719.65h-32.573a.723.723,0,0,0-.723.723v2.315a.723.723,0,0,0,.723.723h32.573a.723.723,0,0,0,.723-.723v-2.315A.721.721,0,0,0,1563.959,1719.65Z" transform="translate(-1503.16 -1719.65)" fill="#80d3fb"/>
            <path id="Trazado_969655" data-name="Trazado 969655" d="M1727.867,1719.65h-7.285a.688.688,0,0,0-.688.688v2.385a.688.688,0,0,0,.688.688h7.285a.688.688,0,0,0,.688-.688v-2.385A.688.688,0,0,0,1727.867,1719.65Z" transform="translate(-1632.696 -1719.65)" fill="#80d3fb"/>
          </g>
        </g>
        <g id="Grupo_1119110" data-name="Grupo 1119110" transform="translate(15.96 82.599)">
          <g id="Grupo_1119107" data-name="Grupo 1119107" transform="translate(0 7.81)">
            <path id="Trazado_969656" data-name="Trazado 969656" d="M1482.6,1611.009h-38.4a.723.723,0,0,1-.723-.723v-2.315a.723.723,0,0,1,.723-.723h38.4a.723.723,0,0,1,.723.723v2.315A.723.723,0,0,1,1482.6,1611.009Z" transform="translate(-1443.477 -1607.248)" fill="#80d3fb"/>
            <path id="Trazado_969657" data-name="Trazado 969657" d="M1595.993,1611.01h-9.848a.722.722,0,0,1-.722-.722v-2.316a.722.722,0,0,1,.722-.722h9.848a.722.722,0,0,1,.722.722v2.317A.721.721,0,0,1,1595.993,1611.01Z" transform="translate(-1540.645 -1607.249)" fill="#80d3fb"/>
          </g>
          <g id="Grupo_1119108" data-name="Grupo 1119108" transform="translate(0 15.622)">
            <path id="Trazado_969658" data-name="Trazado 969658" d="M1464.235,1635.77H1444.2a.723.723,0,0,1-.723-.723v-2.315a.723.723,0,0,1,.723-.723h20.036a.723.723,0,0,1,.723.723v2.315A.723.723,0,0,1,1464.235,1635.77Z" transform="translate(-1443.477 -1632.009)" fill="#80d3fb"/>
            <path id="Trazado_969659" data-name="Trazado 969659" d="M1641.984,1635.77h-20.036a.723.723,0,0,1-.723-.723v-2.315a.723.723,0,0,1,.723-.723h20.036a.723.723,0,0,1,.723.723v2.315A.724.724,0,0,1,1641.984,1635.77Z" transform="translate(-1565.153 -1632.009)" fill="#80d3fb"/>
            <path id="Trazado_969660" data-name="Trazado 969660" d="M1549.858,1635.77H1526.9a.723.723,0,0,1-.723-.723v-2.315a.723.723,0,0,1,.723-.723h22.956a.723.723,0,0,1,.723.723v2.315A.723.723,0,0,1,1549.858,1635.77Z" transform="translate(-1500.09 -1632.009)" fill="#80d3fb"/>
            <path id="Trazado_969661" data-name="Trazado 969661" d="M1710.859,1635.77h-8.679a.723.723,0,0,1-.723-.723v-2.315a.723.723,0,0,1,.723-.723h8.679a.723.723,0,0,1,.723.723v2.315A.725.725,0,0,1,1710.859,1635.77Z" transform="translate(-1620.075 -1632.009)" fill="#80d3fb"/>
          </g>
          <g id="Grupo_1119109" data-name="Grupo 1119109" transform="translate(0.001)">
            <path id="Trazado_969662" data-name="Trazado 969662" d="M1468.392,1586.25H1444.2a.723.723,0,0,1-.723-.723v-2.315a.723.723,0,0,1,.723-.723h24.189a.723.723,0,0,1,.723.723v2.315A.724.724,0,0,1,1468.392,1586.25Z" transform="translate(-1443.48 -1582.489)" fill="#80d3fb"/>
            <path id="Trazado_969663" data-name="Trazado 969663" d="M1603.334,1586.25h-57.092a.723.723,0,0,1-.723-.723v-2.315a.723.723,0,0,1,.723-.723h57.092a.723.723,0,0,1,.723.723v2.315A.725.725,0,0,1,1603.334,1586.25Z" transform="translate(-1513.33 -1582.489)" fill="#80d3fb"/>
          </g>
        </g>
        <g id="Grupo_1119114" data-name="Grupo 1119114" transform="translate(94.394 137.201)">
          <g id="Grupo_1119111" data-name="Grupo 1119111" transform="translate(0 16.251)">
            <path id="Trazado_969664" data-name="Trazado 969664" d="M1697.348,1819.552l-1.629-2.909a.079.079,0,0,0-.073-.04l-3.451.181a.086.086,0,0,1-.072-.133l5.119-9.511a.09.09,0,0,1,.12-.043l5.223,2.811a.09.09,0,0,1,.03.124l-5.118,9.508A.087.087,0,0,1,1697.348,1819.552Z" transform="translate(-1692.111 -1807.087)" fill="#ff6c3c"/>
            <path id="Trazado_969665" data-name="Trazado 969665" d="M1708.716,1809.91l-5.223-2.811a.09.09,0,0,0-.12.043l-2.309,4.29c1.061.26,3.446,1,3.862,2.419.456,1.561-.985,4.781-1.432,5.721a.085.085,0,0,0,.134-.029l5.118-9.509A.091.091,0,0,0,1708.716,1809.91Z" transform="translate(-1698.24 -1807.089)" fill="#ef542b"/>
          </g>
          <g id="Grupo_1119112" data-name="Grupo 1119112" transform="translate(12.858 16.251)">
            <path id="Trazado_969666" data-name="Trazado 969666" d="M1738.15,1819.552l1.629-2.909a.079.079,0,0,1,.073-.04l3.451.181a.086.086,0,0,0,.072-.133l-5.119-9.511a.09.09,0,0,0-.12-.043l-5.223,2.811a.09.09,0,0,0-.03.124l5.118,9.508A.086.086,0,0,0,1738.15,1819.552Z" transform="translate(-1732.869 -1807.087)" fill="#ff6c3c"/>
            <path id="Trazado_969667" data-name="Trazado 969667" d="M1732.916,1809.91l5.223-2.811a.09.09,0,0,1,.12.043l2.309,4.29c-1.061.26-3.446,1-3.862,2.419-.456,1.561.985,4.781,1.432,5.721a.085.085,0,0,1-.134-.029l-5.118-9.509A.088.088,0,0,1,1732.916,1809.91Z" transform="translate(-1732.872 -1807.089)" fill="#ef542b"/>
          </g>
          <path id="Trazado_969668" data-name="Trazado 969668" d="M1715.653,1766.055l1.428-2.477a.387.387,0,0,0-.141-.528l-2.412-1.394a.387.387,0,0,1-.193-.335v-2.666a.387.387,0,0,0-.387-.387h-2.783a.387.387,0,0,1-.335-.194l-1.331-2.309a.387.387,0,0,0-.529-.142l-2.243,1.3a.386.386,0,0,1-.387,0l-2.243-1.3a.387.387,0,0,0-.529.142l-1.331,2.309a.387.387,0,0,1-.335.194h-2.783a.387.387,0,0,0-.387.387v2.666a.387.387,0,0,1-.193.335l-2.412,1.394a.387.387,0,0,0-.141.528l1.428,2.477a.388.388,0,0,1,0,.386l-1.428,2.477a.387.387,0,0,0,.141.528l2.412,1.394a.386.386,0,0,1,.193.335v2.667a.386.386,0,0,0,.387.386h2.783a.387.387,0,0,1,.335.194l1.331,2.308a.387.387,0,0,0,.528.142l2.243-1.3a.388.388,0,0,1,.387,0l2.244,1.3a.387.387,0,0,0,.528-.142l1.331-2.308a.386.386,0,0,1,.335-.194h2.783a.387.387,0,0,0,.387-.386v-2.667a.386.386,0,0,1,.193-.335l2.411-1.394a.386.386,0,0,0,.141-.528l-1.428-2.477A.384.384,0,0,1,1715.653,1766.055Z" transform="translate(-1694.729 -1755.573)" fill="#fec625"/>
          <g id="Grupo_1119113" data-name="Grupo 1119113" transform="translate(13.985 0.002)">
            <path id="Trazado_969669" data-name="Trazado 969669" d="M1737.77,1758.08a.387.387,0,0,0,.335.194h.789a.387.387,0,0,1-.335-.194l-1.331-2.308a.387.387,0,0,0-.528-.142l-.257.148Z" transform="translate(-1736.443 -1755.578)" fill="#e2a305"/>
            <path id="Trazado_969670" data-name="Trazado 969670" d="M1737.771,1814.9l-1.327,2.3.257.149a.387.387,0,0,0,.528-.142l1.331-2.308a.387.387,0,0,1,.335-.194h-.789A.385.385,0,0,0,1737.771,1814.9Z" transform="translate(-1736.444 -1796.053)" fill="#e2a305"/>
            <path id="Trazado_969671" data-name="Trazado 969671" d="M1753.029,1772.3a.386.386,0,0,1,0-.386l1.428-2.477a.387.387,0,0,0-.141-.528l-2.411-1.394a.386.386,0,0,1-.193-.335v-2.666a.387.387,0,0,0-.387-.387h-.789a.387.387,0,0,1,.387.387v2.666a.386.386,0,0,0,.193.335l2.411,1.394a.387.387,0,0,1,.141.528l-1.428,2.477a.386.386,0,0,0,0,.386l1.428,2.477a.387.387,0,0,1-.141.528l-2.411,1.394a.386.386,0,0,0-.193.335v2.667a.387.387,0,0,1-.387.386h.789a.387.387,0,0,0,.387-.386v-2.667a.386.386,0,0,1,.193-.335l2.411-1.394a.386.386,0,0,0,.141-.528Z" transform="translate(-1746.09 -1761.429)" fill="#e2a305"/>
          </g>
          <path id="Trazado_969672" data-name="Trazado 969672" d="M1721.68,1774.838a6.71,6.71,0,1,1-6.71-6.72A6.715,6.715,0,0,1,1721.68,1774.838Z" transform="translate(-1703.166 -1764.161)" fill="#fdeec3"/>
          <path id="Trazado_969673" data-name="Trazado 969673" d="M1715.294,1783.582a6.717,6.717,0,0,1-3.885-12.193,6.712,6.712,0,1,0,7.448,11.159A6.662,6.662,0,0,1,1715.294,1783.582Z" transform="translate(-1703.169 -1766.4)" fill="#f9f6ed"/>
          <path id="Trazado_969674" data-name="Trazado 969674" d="M1721.027,1768.11a6.666,6.666,0,0,0-3.918,1.272,6.712,6.712,0,0,1,7.231,11.286,6.719,6.719,0,0,0-3.313-12.559Z" transform="translate(-1709.223 -1764.155)" fill="#efd89e"/>
        </g>
        <g id="Grupo_1119118" data-name="Grupo 1119118" transform="translate(64.716 138.496)">
          <g id="Grupo_1119115" data-name="Grupo 1119115">
            <path id="Trazado_969675" data-name="Trazado 969675" d="M1600.71,1771.906a22.493,22.493,0,0,1-2.521-.463.205.205,0,0,1,.1-.4,22.019,22.019,0,0,0,7.137.54,1.808,1.808,0,0,0,1.436-.591,1.888,1.888,0,0,0,.193-.873c.209-3.4.371-6.842.482-10.244a.2.2,0,1,1,.409.013c-.11,3.406-.273,6.856-.482,10.256a2.229,2.229,0,0,1-.254,1.064,2.175,2.175,0,0,1-1.748.783A22.223,22.223,0,0,1,1600.71,1771.906Z" transform="translate(-1598.032 -1759.678)" fill="#027bb7"/>
          </g>
          <g id="Grupo_1119116" data-name="Grupo 1119116" transform="translate(5.435 4.007)">
            <path id="Trazado_969676" data-name="Trazado 969676" d="M1615.441,1778.45a.205.205,0,0,1-.129-.338,13.037,13.037,0,0,1,4.044-3.234,8.167,8.167,0,0,1,5.115-.767,2.8,2.8,0,0,1,1.185.479,3.354,3.354,0,0,1,.936,1.466,3.857,3.857,0,0,0,.633,1.149,2.375,2.375,0,0,0,2.128.617,6.017,6.017,0,0,0,2.209-.969c2.154-1.368,3.328-2.872,3.49-4.473l.409.027-.082,2.387a.689.689,0,0,1,.793-.406.8.8,0,0,1,.431.543l.85,2.418,3.925-1.375a.2.2,0,0,1,.171-.221l.881-.144.1.4-5.328,1.866-.986-2.8c-.048-.136-.1-.265-.182-.294-.113-.041-.277.149-.364.348a4.425,4.425,0,0,0-.351,1.424l-.012.36-.41-.006c0-.125,0-.251.013-.376l.087-2.539a8.594,8.594,0,0,1-3.215,3.213,6.377,6.377,0,0,1-2.364,1.027,2.784,2.784,0,0,1-2.5-.745,4.209,4.209,0,0,1-.708-1.267,3.01,3.01,0,0,0-.809-1.3,2.427,2.427,0,0,0-1.014-.4,7.752,7.752,0,0,0-4.855.734,12.642,12.642,0,0,0-3.914,3.135A.2.2,0,0,1,1615.441,1778.45Z" transform="translate(-1615.262 -1772.381)" fill="#027bb7"/>
          </g>
          <g id="Grupo_1119117" data-name="Grupo 1119117" transform="translate(12.612 10.455)">
            <path id="Trazado_969677" data-name="Trazado 969677" d="M1638.19,1794.657a.205.205,0,0,1-.015-.4,94.841,94.841,0,0,1,9.678-1.43.2.2,0,0,1,.039.408,94.432,94.432,0,0,0-9.636,1.424A.159.159,0,0,1,1638.19,1794.657Z" transform="translate(-1638.011 -1792.821)" fill="#027bb7"/>
          </g>
        </g>
      </g>
      <g id="Grupo_1119126" data-name="Grupo 1119126" transform="translate(-7933.699 -3102.813)">
        <g id="Grupo_1119123" data-name="Grupo 1119123" transform="translate(0 0)">
          <g id="Grupo_1119120" data-name="Grupo 1119120" transform="translate(4.201 28.45)">
            <path id="Trazado_969678" data-name="Trazado 969678" d="M1237.831,1811.782V1808.6h-83.612c-4.3,0-7.781,4.556-7.781,10.177v.063c0,5.621,3.483,10.177,7.781,10.177h83.612v-3.178A22.287,22.287,0,0,1,1237.831,1811.782Z" transform="translate(-1146.437 -1808.603)" fill="#f85427"/>
            <path id="Trazado_969679" data-name="Trazado 969679" d="M1154.216,1808.6h33.761a6.593,6.593,0,0,1,.206,1.625v9.292c0,3.283-2.381,5.944-5.318,5.944H1148.31a12.118,12.118,0,0,1-1.874-6.621v-.063C1146.437,1813.158,1149.92,1808.6,1154.216,1808.6Z" transform="translate(-1146.436 -1808.6)" fill="#ff6c3c"/>
            <path id="Trazado_969680" data-name="Trazado 969680" d="M1333.677,1808.6h-41c-3.436,0-6.221,3.643-6.221,8.137v4.142c0,4.494,2.785,8.137,6.221,8.137h41v-3.179a22.269,22.269,0,0,1,0-14.059Z" transform="translate(-1242.284 -1808.6)" fill="#d83a21"/>
            <path id="Trazado_969681" data-name="Trazado 969681" d="M1298.264,1818.68c-2.366,0-4.284,2.509-4.284,5.6v2.853c0,3.095,1.918,5.6,4.284,5.6h40.564a25.44,25.44,0,0,1,0-14.059h-40.564Z" transform="translate(-1247.436 -1815.5)" fill="#edf0ef"/>
            <path id="Trazado_969682" data-name="Trazado 969682" d="M1338.831,1818.68h-40.564c-2.366,0-4.284,2.509-4.284,5.6v1.426h43.838A26.278,26.278,0,0,1,1338.831,1818.68Z" transform="translate(-1247.438 -1815.5)" fill="#dee1de" opacity="0.83"/>
          </g>
          <g id="Grupo_1119121" data-name="Grupo 1119121" transform="translate(6.416)">
            <path id="Trazado_969683" data-name="Trazado 969683" d="M1153.46,1720.425v-2.012h65.811a6.288,6.288,0,0,1,6.124,6.44v.04a6.288,6.288,0,0,1-6.124,6.44H1153.46v-2.011A11.512,11.512,0,0,0,1153.46,1720.425Z" transform="translate(-1153.46 -1718.413)" fill="#fab001"/>
            <path id="Trazado_969684" data-name="Trazado 969684" d="M1304.064,1718.42H1277.49a3.4,3.4,0,0,0-.162,1.028v5.881a3.991,3.991,0,0,0,4.186,3.761h27.2a6.612,6.612,0,0,0,1.475-4.19v-.04A6.289,6.289,0,0,0,1304.064,1718.42Z" transform="translate(-1238.252 -1718.418)" fill="#ffc71f"/>
            <path id="Trazado_969685" data-name="Trazado 969685" d="M1306.118,1718.42h-4.756a7.506,7.506,0,0,1,3.3,6.438v.045a7.5,7.5,0,0,1-3.3,6.438h4.756c3.382,0,5.361-2.916,5.361-6.472v-.067C1311.481,1721.243,1309.5,1718.42,1306.118,1718.42Z" transform="translate(-1254.704 -1718.418)" fill="#231f20" opacity="0.15"/>
            <path id="Trazado_969686" data-name="Trazado 969686" d="M1153.46,1718.42h32.273a5.028,5.028,0,0,1,4.9,5.149v2.621a5.028,5.028,0,0,1-4.9,5.149H1153.46v-2.011a11.51,11.51,0,0,0,0-8.9Z" transform="translate(-1153.46 -1718.418)" fill="#ea9d03"/>
            <path id="Trazado_969687" data-name="Trazado 969687" d="M1185.387,1724.79a3.462,3.462,0,0,1,3.372,3.546v1.805a3.462,3.462,0,0,1-3.372,3.546h-31.928a13.1,13.1,0,0,0,0-8.9Z" transform="translate(-1153.459 -1722.778)" fill="#edf0ef"/>
            <path id="Trazado_969688" data-name="Trazado 969688" d="M1153.46,1724.79h31.928a3.462,3.462,0,0,1,3.372,3.546v.9h-34.5A13.78,13.78,0,0,0,1153.46,1724.79Z" transform="translate(-1153.46 -1722.778)" fill="#dee1de" opacity="0.83"/>
          </g>
          <g id="Grupo_1119122" data-name="Grupo 1119122" transform="translate(0 12.923)">
            <path id="Trazado_969689" data-name="Trazado 969689" d="M1133.12,1761.788v-2.411h79.562c4.089,0,6.7,3.475,6.7,7.738v.048c0,4.263-2.614,7.7-6.7,7.7H1133.12v-2.411A13.68,13.68,0,0,0,1133.12,1761.788Z" transform="translate(-1133.12 -1759.377)" fill="#4796eb"/>
            <path id="Trazado_969690" data-name="Trazado 969690" d="M1321.919,1767.118v.048a8.8,8.8,0,0,1-1.243,4.637h-33.767a4.257,4.257,0,0,1-4.005-4.471v-7.951h32.313C1319.3,1759.38,1321.919,1762.853,1321.919,1767.118Z" transform="translate(-1235.653 -1759.379)" fill="#60abef"/>
            <path id="Trazado_969691" data-name="Trazado 969691" d="M1317.682,1759.38h-5.75a8.974,8.974,0,0,1,3.994,7.716v.054a8.973,8.973,0,0,1-3.994,7.716h5.75a7.566,7.566,0,0,0,7.4-7.719v-.048A7.565,7.565,0,0,0,1317.682,1759.38Z" transform="translate(-1255.523 -1759.379)" fill="#231f20" opacity="0.15"/>
            <path id="Trazado_969692" data-name="Trazado 969692" d="M1133.12,1759.38h39.016a6.049,6.049,0,0,1,5.92,6.172v3.142a6.049,6.049,0,0,1-5.92,6.172H1133.12v-2.411a13.687,13.687,0,0,0,0-10.664Z" transform="translate(-1133.12 -1759.379)" fill="#5384cc"/>
            <path id="Trazado_969693" data-name="Trazado 969693" d="M1171.722,1767.02a4.166,4.166,0,0,1,4.076,4.25v2.164a4.166,4.166,0,0,1-4.076,4.25h-38.6a15.574,15.574,0,0,0,0-10.664h38.6Z" transform="translate(-1133.122 -1764.609)" fill="#edf0ef"/>
            <path id="Trazado_969694" data-name="Trazado 969694" d="M1133.12,1767.02h38.6a4.166,4.166,0,0,1,4.076,4.25v1.082h-41.714A16.286,16.286,0,0,0,1133.12,1767.02Z" transform="translate(-1133.12 -1764.609)" fill="#dee1de" opacity="0.83"/>
            <path id="Trazado_969695" data-name="Trazado 969695" d="M1243.532,1778.94a3.136,3.136,0,0,0-.441,1.686,9.508,9.508,0,0,1-.588,2.555l-1.275-1.329-1.373,1.329a13.417,13.417,0,0,0,.441-2.5,3.336,3.336,0,0,1,.686-1.738h2.549Z" transform="translate(-1206.185 -1772.768)" fill="#022fa0"/>
          </g>
        </g>
        <g id="Grupo_1119125" data-name="Grupo 1119125" transform="translate(14.746 34.308)">
          <g id="Grupo_1119124" data-name="Grupo 1119124">
            <path id="Trazado_969696" data-name="Trazado 969696" d="M1181.031,1833.612h3.852l-.253,1.166h-4.764v-7.6h1.166Z" transform="translate(-1179.865 -1827.173)" fill="#f9bcac"/>
            <path id="Trazado_969697" data-name="Trazado 969697" d="M1205.714,1832.994h-3.436l-.8,1.784H1200.2l3.416-7.6h.76l3.416,7.6h-1.277Zm-.527-1.167-1.186-2.646-1.2,2.646Z" transform="translate(-1193.785 -1827.173)" fill="#f9bcac"/>
            <path id="Trazado_969698" data-name="Trazado 969698" d="M1233.708,1827.17l-2.768,7.6h-.76l-1.095-3.01-1.094,3.01h-.76l-2.767-7.6h1.247l1.9,5.281,1.48-4.1,1.47,4.1,1.906-5.281Z" transform="translate(-1210.394 -1827.17)" fill="#f9bcac"/>
          </g>
        </g>
      </g>
      <g id="Grupo_1119140" data-name="Grupo 1119140" transform="translate(-7909.457 -3214.183)">
        <path id="Trazado_969699" data-name="Trazado 969699" d="M1264.134,1424.123a3.353,3.353,0,0,0,3.127,1.511h0l-1.09,2.546c-2.788.784-5.356-1.845-5.356-1.845-2.073-2.024-2.633-12.755-2.633-12.755C1261.478,1414.483,1263.232,1422.4,1264.134,1424.123Z" transform="translate(-1242.973 -1398.374)" fill="#e55daa"/>
        <g id="Grupo_1119127" data-name="Grupo 1119127" transform="translate(16.849 63.718)">
          <path id="Trazado_969700" data-name="Trazado 969700" d="M1264.888,1567.374a6.237,6.237,0,0,0-.192,1.551l-1.049-.246.063-1.321Z" transform="translate(-1263.563 -1567.357)" fill="#e2a36a"/>
          <path id="Trazado_969701" data-name="Trazado 969701" d="M1266.792,1572.326c-.017.212-3.391.042-3.391.042l.078-.827,1.064.015S1266.811,1572.115,1266.792,1572.326Z" transform="translate(-1263.395 -1570.221)" fill="#e2a36a"/>
          <path id="Trazado_969702" data-name="Trazado 969702" d="M1263.38,1573.071l.053-.461s.2.26,1.226.275c.909.013,1.015-.311,1.015-.311.848.256,1.323.3,1.2.478A18.278,18.278,0,0,1,1263.38,1573.071Z" transform="translate(-1263.38 -1570.928)" fill="#2d313d"/>
          <path id="Trazado_969703" data-name="Trazado 969703" d="M1263.742,1567.36l-.05,1.106a1.083,1.083,0,0,1,1.046.015,8.384,8.384,0,0,1,.182-1.1Z" transform="translate(-1263.594 -1567.359)" fill="#d38753"/>
        </g>
        <g id="Grupo_1119128" data-name="Grupo 1119128" transform="translate(21.77 63.787)">
          <path id="Trazado_969704" data-name="Trazado 969704" d="M1280.5,1567.594a6.232,6.232,0,0,0-.192,1.551l-1.049-.246.063-1.321Z" transform="translate(-1279.169 -1567.577)" fill="#e2a36a"/>
          <path id="Trazado_969705" data-name="Trazado 969705" d="M1282.4,1572.546c-.017.212-3.391.042-3.391.042l.078-.827,1.064.015S1282.418,1572.335,1282.4,1572.546Z" transform="translate(-1279.002 -1570.441)" fill="#e2a36a"/>
          <path id="Trazado_969706" data-name="Trazado 969706" d="M1278.98,1573.291l.053-.461s.2.26,1.227.274c.908.013,1.015-.311,1.015-.311.848.256,1.323.3,1.2.478A18.53,18.53,0,0,1,1278.98,1573.291Z" transform="translate(-1278.98 -1571.148)" fill="#2d313d"/>
          <path id="Trazado_969707" data-name="Trazado 969707" d="M1279.342,1567.58l-.05,1.106a1.083,1.083,0,0,1,1.045.015,8.4,8.4,0,0,1,.182-1.1Z" transform="translate(-1279.194 -1567.579)" fill="#d38753"/>
        </g>
        <path id="Trazado_969708" data-name="Trazado 969708" d="M1250.708,1475.46s-6.611,1.874-5.726,7.951l17.018.239s.532-2.609-.534-3.8S1250.708,1475.46,1250.708,1475.46Z" transform="translate(-1233.881 -1440.732)" fill="#476291"/>
        <path id="Trazado_969709" data-name="Trazado 969709" d="M1282.978,1500.257s-2.337,6.666-4.847,21.478l-1.712-.024s-1.059-11.093-.756-14.079,2.559-7.676,2.559-7.676S1281.477,1499.263,1282.978,1500.257Z" transform="translate(-1254.902 -1457.34)" fill="#476291"/>
        <path id="Trazado_969710" data-name="Trazado 969710" d="M1262.856,1492.812l6.426.052s-2.331,4.7-2.492,7.48.756,14.079.756,14.079l.713.01s-.4-11.975-.174-13.9,2.822-8.234,2.7-8.661-8.136-2.8-8.136-2.8Z" transform="translate(-1246.029 -1450.052)" fill="#3e5c87"/>
        <path id="Trazado_969711" data-name="Trazado 969711" d="M1234.135,1475.049l-13.445-.189,9.543,4.984Z" transform="translate(-1217.308 -1440.321)" fill="#3e5c87"/>
        <path id="Trazado_969712" data-name="Trazado 969712" d="M1218.393,1474.86a10.413,10.413,0,0,0-.539,8.024l19.924.279s.441-2.657-.674-3.8C1235.551,1477.762,1224.005,1476.273,1218.393,1474.86Z" transform="translate(-1215.011 -1440.321)" fill="#5775aa"/>
        <path id="Trazado_969713" data-name="Trazado 969713" d="M1266.724,1500.188s-2.173,4.787-4.344,21.484l-1.718-.024s-1.255-11.1-1.011-14.083a30.393,30.393,0,0,1,2.2-7.446S1265.2,1499.192,1266.724,1500.188Z" transform="translate(-1243.956 -1457.344)" fill="#5775aa"/>
        <path id="Trazado_969714" data-name="Trazado 969714" d="M1217.868,1490.839l15.046.211s-2.026,4.9-2.195,7.446c-.214,3.224,1.011,14.083,1.011,14.083l.638.009s-.76-11.146-.433-13.938,2.8-8.169,2.4-8.747-10.908-1.3-16.945-3.424A11.516,11.516,0,0,0,1217.868,1490.839Z" transform="translate(-1215.026 -1448.275)" fill="#476291"/>
        <path id="Trazado_969715" data-name="Trazado 969715" d="M1231.014,1422.4c-.041,2.928.889,4.752,3.072,8.079a22.752,22.752,0,0,1-13.8-.193,22.812,22.812,0,0,1,4.432-7.124l.039-.044.053-.059.037-.041c.935-1.637-1.864-3.567-2.934-6.786-1.09-3.281-.569-4.978-.569-4.978,4.142-1.787,6.562-2.179,11.219-.2l.136,2.841s1.239,2.234,1.082,3.226S1231.036,1420.841,1231.014,1422.4Z" transform="translate(-1217.029 -1395.741)" fill="#ff77c4"/>
        <g id="Grupo_1119133" data-name="Grupo 1119133" transform="translate(7.56 8.984)">
          <g id="Grupo_1119132" data-name="Grupo 1119132">
            <path id="Trazado_969716" data-name="Trazado 969716" d="M1233.935,1408.078c-.074,1.083,1.611,1.871,2.513,1.933s2.532-.5,2.606-1.583-1.085-.97-2.5-1.066S1234.011,1407,1233.935,1408.078Z" transform="translate(-1233.932 -1403.031)" fill="#feb48c"/>
            <g id="Grupo_1119131" data-name="Grupo 1119131" transform="translate(0.868)">
              <g id="Grupo_1119129" data-name="Grupo 1119129">
                <path id="Trazado_969717" data-name="Trazado 969717" d="M1238.361,1400.589h0a1.8,1.8,0,0,0,1.919-1.672l.215-3.142a1.805,1.805,0,0,0-1.673-1.919h0a1.806,1.806,0,0,0-1.919,1.673l-.215,3.142A1.8,1.8,0,0,0,1238.361,1400.589Z" transform="translate(-1236.684 -1393.852)" fill="#feb48c"/>
              </g>
              <g id="Grupo_1119130" data-name="Grupo 1119130" transform="translate(0.121 0.001)">
                <path id="Trazado_969718" data-name="Trazado 969718" d="M1240.608,1397.952c.063-.923.149-2.173.149-2.173a1.8,1.8,0,1,0-3.591-.246l-.1,1.429a3.319,3.319,0,0,0,1.557,1.141A3.23,3.23,0,0,0,1240.608,1397.952Z" transform="translate(-1237.068 -1393.856)" fill="#ba6549"/>
              </g>
            </g>
          </g>
        </g>
        <path id="Trazado_969719" data-name="Trazado 969719" d="M1234.087,1446.463c-.395-1.394-3.136-3.557-3.072-8.079.026-1.813,2.606-3.916,2.765-5.3-.974.4-4.991,1.594-11.342.359,1.181,3.244,2.687,4.132,2.407,5.561l-.037.041-.053.059-.039.044a22.8,22.8,0,0,0-4.432,7.124,26.665,26.665,0,0,0,6.9,1.162A22.364,22.364,0,0,0,1234.087,1446.463Z" transform="translate(-1217.03 -1411.722)" fill="#ed65b2"/>
        <path id="Trazado_969720" data-name="Trazado 969720" d="M1246.87,1429.985a16.766,16.766,0,0,1,.445-2.385,18.725,18.725,0,0,0,.638-3.917,37.959,37.959,0,0,0-1.489-5.488l-.184.063a38.864,38.864,0,0,1,1.479,5.439,18.758,18.758,0,0,1-.634,3.861,16.307,16.307,0,0,0-.45,2.427,16.8,16.8,0,0,0,1.578,7.091c.068-.009.137-.011.2-.021A16.618,16.618,0,0,1,1246.87,1429.985Z" transform="translate(-1234.825 -1401.532)" fill="#db52a3"/>
        <g id="Grupo_1119134" data-name="Grupo 1119134" transform="translate(10.113 17.242)">
          <path id="Trazado_969721" data-name="Trazado 969721" d="M1251.346,1420.03l-9.32,16.989s7.531,1.6,11.18,1.069l8.424-16.487Z" transform="translate(-1242.026 -1420.03)" fill="#f2f2f2"/>
          <path id="Trazado_969722" data-name="Trazado 969722" d="M1251.347,1420.03l1.63.249c-1.7,2.884-4.5,7.824-4.651,9.318-.13,1.306-1.606,4.967-2.973,8.02-1.905-.3-3.325-.6-3.325-.6Z" transform="translate(-1242.027 -1420.03)" fill="#e0e0ee"/>
          <path id="Trazado_969723" data-name="Trazado 969723" d="M1262.761,1455.615c.678-1.322,3.591-6.679,3.591-6.679s-.879,2.6-1.955,6.225a20.016,20.016,0,0,0-.7,2.816c-1.016-.02-2.123-.11-3.205-.233C1261.042,1456.947,1262.2,1456.707,1262.761,1455.615Z" transform="translate(-1254.665 -1439.817)" fill="#e0e0ee"/>
        </g>
        <g id="Grupo_1119137" data-name="Grupo 1119137" transform="translate(0 15.544)">
          <g id="Grupo_1119136" data-name="Grupo 1119136" transform="translate(13.442 15.769)">
            <g id="Grupo_1119135" data-name="Grupo 1119135" transform="translate(1.205 0.838)">
              <path id="Trazado_969724" data-name="Trazado 969724" d="M1257.354,1467.427c.765.5,1.781.957,1.753,1.365-.06.888-1.375,1.032-1.923.651a3.305,3.305,0,0,1-.787-1.47S1256.6,1466.929,1257.354,1467.427Z" transform="translate(-1256.398 -1467.293)" fill="#f4be84"/>
              <path id="Trazado_969725" data-name="Trazado 969725" d="M1265.305,1472.49c.124-.045-.18-1.005-.311-1.18-.106-.14-.2-.323-1.4-1.028l.253.88a8.406,8.406,0,0,1,.869.4C1264.816,1471.651,1264.889,1472.37,1265.305,1472.49Z" transform="translate(-1261.327 -1469.34)" fill="#f4be84"/>
              <path id="Trazado_969726" data-name="Trazado 969726" d="M1263.388,1474.856c.185.035.2-.922.155-1.145a7.731,7.731,0,0,0-.441-1.815l-.351.82s.4.963.417,1.1S1263.148,1474.632,1263.388,1474.856Z" transform="translate(-1260.747 -1470.443)" fill="#f4be84"/>
              <path id="Trazado_969727" data-name="Trazado 969727" d="M1261.4,1474.943c.177.033.188-.885.148-1.1a7.391,7.391,0,0,0-.423-1.743l-.337.787s.381.925.4,1.054S1261.172,1474.731,1261.4,1474.943Z" transform="translate(-1259.405 -1470.584)" fill="#f4be84"/>
              <path id="Trazado_969728" data-name="Trazado 969728" d="M1259.387,1474.03c.15.029.159-.749.126-.93a6.263,6.263,0,0,0-.358-1.475l-.285.666s.322.782.339.892S1259.191,1473.851,1259.387,1474.03Z" transform="translate(-1258.09 -1470.258)" fill="#f4be84"/>
            </g>
            <path id="Trazado_969729" data-name="Trazado 969729" d="M1253.894,1466.249l-1.316-.261.328-1.353a14.829,14.829,0,0,1,1.835.973Z" transform="translate(-1252.578 -1464.635)" fill="#f4be84"/>
          </g>
          <path id="Trazado_969730" data-name="Trazado 969730" d="M1214.364,1414.649c-2.586.088-5.579,14.58-3.906,16.452,2.165,2.729,9.349,1.04,13.324,1.094a3.27,3.27,0,0,0,.819-1.5c-2.82-1.635-10.194-1.772-10.834-2.083S1216.941,1414.564,1214.364,1414.649Z" transform="translate(-1209.972 -1414.649)" fill="#ff77c4"/>
          <path id="Trazado_969731" data-name="Trazado 969731" d="M1210.8,1433.031c-1.313-1.469.251-10.69,2.234-14.641-2.141,3.482-3.972,13.719-2.582,15.274,2.165,2.729,9.349,1.04,13.324,1.094a4.637,4.637,0,0,0,.461-.622C1220.237,1434.116,1212.947,1435.731,1210.8,1433.031Z" transform="translate(-1209.969 -1417.21)" fill="#e55daa"/>
        </g>
        <path id="Trazado_969732" data-name="Trazado 969732" d="M1231.68,1411.37l3.029,3.095.905-1.278.839.738.577-.839.994,1.063.088-2.83-1.808.18Z" transform="translate(-1224.831 -1396.826)" fill="#db52a3"/>
        <path id="Trazado_969733" data-name="Trazado 969733" d="M1231.68,1406.928l1.407-2.1,3.218,2.227-1.486,2.221Z" transform="translate(-1224.831 -1392.383)" fill="#ed65b2"/>
        <path id="Trazado_969734" data-name="Trazado 969734" d="M1247.043,1406.59l-.7,1.672,1.577,1.959.23-2.139Z" transform="translate(-1234.866 -1393.588)" fill="#ed65b2"/>
        <g id="Grupo_1119139" data-name="Grupo 1119139" transform="translate(4.758)">
          <path id="Trazado_969735" data-name="Trazado 969735" d="M1231.482,1365.379a4.779,4.779,0,0,0-4.327,2.4,7.775,7.775,0,0,0-.993,2.968c.023,1.175-.248,1.331-.248,1.331a1.83,1.83,0,0,0-.8,1.984,2.221,2.221,0,0,1,.243-1.174,2.585,2.585,0,0,0,.094,1.879,2.323,2.323,0,0,1,.107-1.315,7.485,7.485,0,0,0,.1,1c.086.488-.067,2.411,1.2,3.248a2.775,2.775,0,0,1-.458-1.029s.273.367.489.7-.044,1.607.335,2.541a8.86,8.86,0,0,1-.115-2,4.493,4.493,0,0,0,1.156,1.76,9.665,9.665,0,0,1-.905-1.55,3.781,3.781,0,0,0,.954.177s-.858-.14-1.058-.626a5.645,5.645,0,0,1-.129-2.168.7.7,0,0,0,.381.43,4.5,4.5,0,0,1-.059.93.614.614,0,0,0,.241-.338,2.292,2.292,0,0,1,0,.823,1.316,1.316,0,0,0,.179-.572,5.607,5.607,0,0,1,.73.627l5.288-10.026S1233.845,1365.489,1231.482,1365.379Z" transform="translate(-1225.05 -1365.374)"/>
          <path id="Trazado_969736" data-name="Trazado 969736" d="M1234.173,1378.351s1.65-2.342,1.533-3.762a5.527,5.527,0,0,1-.1,1.967,1.86,1.86,0,0,0,.4-1.235,3.554,3.554,0,0,1-.516,3.617,1.756,1.756,0,0,0,.647-.543,4.363,4.363,0,0,1-.461.961,2.342,2.342,0,0,0,.759-1.187,3.25,3.25,0,0,1-.263,1.085,15.4,15.4,0,0,1,.437-4.879,2.131,2.131,0,0,1-.088.954,2.377,2.377,0,0,0,.314-2.094,1.876,1.876,0,0,0,.182-.681,9.469,9.469,0,0,1,.023,1.153,3.688,3.688,0,0,0,.109-.771,2.261,2.261,0,0,1,.015.75,2.216,2.216,0,0,0,0-1.208,1.944,1.944,0,0,0-.211-1.387c-.4-.6-1.515-2.057-1.515-2.057s.883.623,1,1.042a2.652,2.652,0,0,0-.37-.725.912.912,0,0,1,.344.3s.029-.33-.995-.878a1.244,1.244,0,0,0-.814-.735s-.274-1.276-2.48-1.379a4.467,4.467,0,0,0-4.044,2.24,3.607,3.607,0,0,0-1.166,2.183,6.07,6.07,0,0,1-.162,1.706,2.033,2.033,0,0,0-.583,1.983,2.072,2.072,0,0,1,.228-1.1,2.417,2.417,0,0,0,.088,1.756,2.17,2.17,0,0,1,.1-1.229,7.016,7.016,0,0,0,.089.932c.08.456-.062,2.253,1.126,3.035a2.589,2.589,0,0,1-.427-.962s.256.343.457.65-.042,1.5.313,2.374a8.288,8.288,0,0,1-.108-1.865,4.2,4.2,0,0,0,1.081,1.645,9.043,9.043,0,0,1-.846-1.448,3.52,3.52,0,0,0,.892.166s-.8-.13-.989-.585a5.1,5.1,0,0,1-.111-2.049,2.557,2.557,0,0,0,.345.359,4.473,4.473,0,0,1-.053.935.572.572,0,0,0,.225-.315,2.134,2.134,0,0,1,0,.769,1.229,1.229,0,0,0,.167-.534.9.9,0,0,0,.328.776C1229.464,1378.43,1230.971,1375.578,1234.173,1378.351Z" transform="translate(-1225.77 -1366.254)"/>
          <path id="Trazado_969737" data-name="Trazado 969737" d="M1259.69,1377.15c.016.042.025.068.025.068A.584.584,0,0,0,1259.69,1377.15Z" transform="translate(-1248.762 -1373.435)" fill="#f6f7f4"/>
          <g id="Grupo_1119138" data-name="Grupo 1119138" transform="translate(4.082 1.79)">
            <path id="Trazado_969738" data-name="Trazado 969738" d="M1245.608,1375.351a2.534,2.534,0,0,0-.4-1.33c-.414-.591-1.368-2.085-1.368-2.085a3.686,3.686,0,0,1,1,.967,2.242,2.242,0,0,0-.355-.653.927.927,0,0,1,.353.3s.03-.328-1.022-.87a2.436,2.436,0,0,0-1.074-.635h0l-4.749,9.83c.384.346.817.7.817.7l-.061-.142a3.623,3.623,0,0,0,2.628.509h0l.072-.018h0l.066-.021a2.54,2.54,0,0,0,.792-.51c.033-.03.067-.06.1-.092l.066-.065h0c.083-.084.164-.171.239-.261l.014-.017a2.39,2.39,0,0,0,.487-.847,5.407,5.407,0,0,0,.9-2.667,5.291,5.291,0,0,1-.108,1.951,1.81,1.81,0,0,0,.415-1.225,3.424,3.424,0,0,1-.532,3.588,1.8,1.8,0,0,0,.665-.54,4.257,4.257,0,0,1-.474.954,2.33,2.33,0,0,0,.781-1.177,3.131,3.131,0,0,1-.271,1.076,3.919,3.919,0,0,0,.218-3.8,3.875,3.875,0,0,0,.235-1.04,2.042,2.042,0,0,1-.091.946,2.294,2.294,0,0,0,.325-2.076,1.814,1.814,0,0,0,.188-.675,9.041,9.041,0,0,1,.022,1.144,3.533,3.533,0,0,0,.113-.765,2.155,2.155,0,0,1,.015.744A2.168,2.168,0,0,0,1245.608,1375.351Z" transform="translate(-1237.99 -1371.047)"/>
          </g>
          <path id="Trazado_969739" data-name="Trazado 969739" d="M1238.924,1376.778a5.851,5.851,0,0,0,1.034,1.112s.2,1.407.33,2.441a9.624,9.624,0,0,1-.348,3.2,5.286,5.286,0,0,1-1.712,2,2.855,2.855,0,0,1-2.841-.218l-.346-.219a3.579,3.579,0,0,1-1.4-2.127l-.127-1.178a.629.629,0,0,1-.254-.456,5.687,5.687,0,0,1,.076-.942,32.638,32.638,0,0,1,3.94-3.571,1.569,1.569,0,0,1,1.523-.107l.485-.259A1.741,1.741,0,0,0,1238.924,1376.778Z" transform="translate(-1230.665 -1372.959)" fill="#feb48c"/>
          <path id="Trazado_969740" data-name="Trazado 969740" d="M1229.18,1377.824a3.065,3.065,0,0,0,2.46-.711c1.033-.975,1.529-1.427,1.529-1.427a2.42,2.42,0,0,0-.689.438,4.83,4.83,0,0,1,1.628-1.394,8.105,8.105,0,0,1,2.112-.322,4.8,4.8,0,0,0-1.248-.068s1.261-.3,1.784.058a2.342,2.342,0,0,0-2.435-.358c-1.532.547-2.61,2.064-3.527,2.377a2.809,2.809,0,0,0,1.082-.391s-1.178,1.1-1.861,1.12a2.792,2.792,0,0,0,1.958-.919A3.291,3.291,0,0,1,1229.18,1377.824Z" transform="translate(-1227.877 -1371.185)" fill="#6d3c12"/>
          <path id="Trazado_969741" data-name="Trazado 969741" d="M1232.31,1372.748s2.434-2.374,4.924-2.349a4.591,4.591,0,0,0-1.316-.048,3.394,3.394,0,0,1,1.094-.206,2.621,2.621,0,0,0-2.145.43,3.08,3.08,0,0,1,2.355-.785s-1.666-1.02-4.2.876c0,0,1.787-.944,2.367-.748a4.637,4.637,0,0,0-1.765.9,3.457,3.457,0,0,1,.89-.368,9.9,9.9,0,0,0-2.216,1.853,8.136,8.136,0,0,1,1.512-1.045A10.9,10.9,0,0,0,1232.31,1372.748Z" transform="translate(-1230.014 -1368.209)" fill="#6d3c12"/>
          <path id="Trazado_969742" data-name="Trazado 969742" d="M1231.919,1392.717s-.488-.193-.4.082.589.4.412.552-.258.24-.063.3,0-.083-.115.08.241.683.447.582.157-.468-.013-.668C1232.187,1393.641,1232.184,1392.846,1231.919,1392.717Z" transform="translate(-1229.471 -1384.046)" fill="#d6a183"/>
          <path id="Trazado_969743" data-name="Trazado 969743" d="M1253.58,1375.917a2.765,2.765,0,0,1,.8,1.028,2.594,2.594,0,0,0-.115-.52s.42.144.614,1.468a1.666,1.666,0,0,0,.043-.82,2.106,2.106,0,0,1,.688,1.378,3.656,3.656,0,0,0-.735-1.986,5.257,5.257,0,0,1-.967-1.408,3.034,3.034,0,0,0,.261.865s-.338-.359-.34-.48l.094.364-.2-.292a2.6,2.6,0,0,0,.219.535A1.19,1.19,0,0,0,1253.58,1375.917Z" transform="translate(-1244.58 -1372.003)" fill="#6d3c12"/>
        </g>
        <path id="Trazado_969744" data-name="Trazado 969744" d="M1286.359,1444.7a.224.224,0,0,0-.376.144.96.96,0,0,0,.113.54c.261.5.285,1.07.167,1.07s-.452-1.07-.856-.987.428,1.344.309,1.51-.571-.88-.785-.69.5,1.284.428,1.427-.547-.452-.595-.238.068.642.784,1.094c0,0,1.072.761,1.595.19A3.384,3.384,0,0,0,1286.359,1444.7Z" transform="translate(-1261.162 -1419.634)" fill="#fdc596"/>
      </g>
      <g id="Grupo_1119143" data-name="Grupo 1119143" transform="translate(-7794.007 -3089.273)">
        <g id="Grupo_1119141" data-name="Grupo 1119141" transform="translate(0 28.69)">
          <path id="Trazado_969745" data-name="Trazado 969745" d="M1609.092,1853.625H1581.8v-.578a.766.766,0,0,1,.766-.766h25.763a.766.766,0,0,1,.766.766v.578Z" transform="translate(-1579.95 -1852.281)" fill="#ffad35"/>
          <path id="Trazado_969746" data-name="Trazado 969746" d="M1605.616,1856.54h-28.358a1.317,1.317,0,0,0-1.317,1.317v3.977h30.992v-3.977A1.319,1.319,0,0,0,1605.616,1856.54Z" transform="translate(-1575.941 -1855.197)" fill="#c96828"/>
        </g>
        <g id="Grupo_1119142" data-name="Grupo 1119142" transform="translate(3.502 0)">
          <path id="Trazado_969747" data-name="Trazado 969747" d="M1609.564,1780.677a12.676,12.676,0,0,0-.27-4.907c-1.052-3.83-4.137-4.365-3.672-8.333.453-3.866,2.405-5.646,4.066-5.907,2.432-.383,3.611-.45,5.753,2.379s1.449,5.556.221,6.966a7.793,7.793,0,0,0-1.792,4.359,53.473,53.473,0,0,0,.45,5.456Z" transform="translate(-1599.728 -1761.337)" fill="#ff6c3c"/>
          <path id="Trazado_969748" data-name="Trazado 969748" d="M1621.979,1763.9c-1.737-2.294-2.841-2.684-4.492-2.545a5.9,5.9,0,0,1,2.189,3.186c-2.074-.363-4.55,1.1-4.55,1.1s3.927-1.162,6.217.395-1.528,6.024-1.263,8.47-.369,3.227-.369,3.227c-1.356.031-3.005,1.738-3.536,2.329q-.011.125-.022.226l3.339.389,1.367,0a53.437,53.437,0,0,1-.45-5.455,7.8,7.8,0,0,1,1.792-4.359C1623.43,1769.462,1624.121,1766.733,1621.979,1763.9Z" transform="translate(-1606.267 -1761.334)" fill="#ef542b"/>
          <path id="Trazado_969749" data-name="Trazado 969749" d="M1616.983,1820.041l-3.48-.009a2.884,2.884,0,0,0-2.817,2.945l-.006,2.311,9.1.024.006-2.311A2.886,2.886,0,0,0,1616.983,1820.041Z" transform="translate(-1603.223 -1801.515)" fill="#3a1614"/>
          <path id="Trazado_969750" data-name="Trazado 969750" d="M1618.618,1821.85l0,1.3a.979.979,0,0,1-.956,1l-6.971-.018c0,.03,0,.06,0,.09l-.006,2.311,9.1.024.006-2.311A2.989,2.989,0,0,0,1618.618,1821.85Z" transform="translate(-1603.221 -1802.759)" opacity="0.2"/>
          <path id="Trazado_969751" data-name="Trazado 969751" d="M1611.205,1831.9l-17.193-.044a1.768,1.768,0,0,0-1.772,1.763l0,1.752,20.729.054,0-1.752A1.772,1.772,0,0,0,1611.205,1831.9Z" transform="translate(-1590.597 -1809.611)" fill="#612d2a"/>
          <path id="Trazado_969752" data-name="Trazado 969752" d="M1611.818,1832.25a2.294,2.294,0,0,1,.195.939h0a1.446,1.446,0,0,1-1.287,1.563l-18.487-.048,0,.937,20.729.054,0-1.567A1.945,1.945,0,0,0,1611.818,1832.25Z" transform="translate(-1590.597 -1809.879)" opacity="0.2"/>
          <path id="Trazado_969753" data-name="Trazado 969753" d="M1609.827,1842.319l-21.563-.056a1.209,1.209,0,0,0-1.212,1.206l-.005,1.918,23.981.062.005-1.918A1.209,1.209,0,0,0,1609.827,1842.319Z" transform="translate(-1587.045 -1816.733)" fill="#8b5957"/>
          <path id="Trazado_969754" data-name="Trazado 969754" d="M1609.938,1842.44h-.054a1.544,1.544,0,0,1,.187.751,1.653,1.653,0,0,1-1.471,1.787l-21.555-.056,0,.585,23.981.062,0-1.791A1.231,1.231,0,0,0,1609.938,1842.44Z" transform="translate(-1587.042 -1816.854)" opacity="0.2"/>
        </g>
      </g>
      <g id="Grupo_1119146" data-name="Grupo 1119146" transform="translate(-7767.552 -3099.593)">
        <g id="Grupo_1119144" data-name="Grupo 1119144" transform="translate(12.11 0)">
          <path id="Trazado_969755" data-name="Trazado 969755" d="M1714.816,1817.667l1.43-2.089a2.323,2.323,0,0,0-.6-3.229l-12.385-8.48a2.323,2.323,0,0,0-3.229.6l-1.43,2.089a2.323,2.323,0,0,0,.6,3.229l12.385,8.48A2.325,2.325,0,0,0,1714.816,1817.667Z" transform="translate(-1698.192 -1779.854)" fill="#4796eb"/>
          <path id="Trazado_969756" data-name="Trazado 969756" d="M1767.426,1742.827l1.43-2.089a2.323,2.323,0,0,0-.6-3.229l-12.385-8.48a2.323,2.323,0,0,0-3.229.6l-1.43,2.089a2.323,2.323,0,0,0,.6,3.229l12.385,8.48A2.325,2.325,0,0,0,1767.426,1742.827Z" transform="translate(-1734.206 -1728.622)" fill="#4796eb"/>
          <rect id="Rectángulo_416716" data-name="Rectángulo 416716" width="21.681" height="14.295" transform="translate(5.369 24.232) rotate(-55.598)" fill="#cacada"/>
          <rect id="Rectángulo_416717" data-name="Rectángulo 416717" width="6.85" height="26.982" transform="translate(22.455 26.933) rotate(-55.598)" fill="#5384cc"/>
          <path id="Trazado_969757" data-name="Trazado 969757" d="M1772.041,1791.41l-5.889,8.6.487.333a1.421,1.421,0,0,0,1.974-.369l4.284-6.257a1.42,1.42,0,0,0-.37-1.974Z" transform="translate(-1744.713 -1771.603)" fill="#4796eb"/>
          <path id="Trazado_969758" data-name="Trazado 969758" d="M1847.237,1845.841l-3.634,5.308a2,2,0,0,1-2.774.519l-.762-.521a2,2,0,0,1-.519-2.774l3.634-5.307a2,2,0,0,1,2.773-.519l.762.522A2,2,0,0,1,1847.237,1845.841Z" transform="translate(-1794.717 -1806.369)" fill="#4796eb"/>
          <rect id="Rectángulo_416718" data-name="Rectángulo 416718" width="14.355" height="16.975" transform="translate(6.332 20.453) rotate(-55.598)" fill="#dddced"/>
          <rect id="Rectángulo_416719" data-name="Rectángulo 416719" width="14.354" height="2.68" transform="translate(18.127 28.531) rotate(-55.598)" fill="#a6a4be"/>
          <rect id="Rectángulo_416720" data-name="Rectángulo 416720" width="14.354" height="1.966" transform="translate(16.505 27.419) rotate(-55.598)" fill="#cacada"/>
          <path id="Trazado_969759" data-name="Trazado 969759" d="M1758.889,1760.033h0a1.341,1.341,0,0,0-.349-1.863l-13.417-9.187a1.34,1.34,0,0,0-1.863.349h0a1.341,1.341,0,0,0,.349,1.863l13.417,9.187A1.342,1.342,0,0,0,1758.889,1760.033Z" transform="translate(-1728.883 -1742.4)" fill="#5384cc"/>
          <path id="Trazado_969760" data-name="Trazado 969760" d="M1728.388,1804.583h0a1.341,1.341,0,0,0-.349-1.863l-13.417-9.187a1.341,1.341,0,0,0-1.863.349h0a1.34,1.34,0,0,0,.349,1.863l13.417,9.187A1.337,1.337,0,0,0,1728.388,1804.583Z" transform="translate(-1708.004 -1772.896)" fill="#5384cc"/>
        </g>
        <g id="Grupo_1119145" data-name="Grupo 1119145" transform="translate(0 39.574)">
          <path id="Trazado_969761" data-name="Trazado 969761" d="M1690.973,1858.6h-29.908a1.262,1.262,0,0,0-1.262,1.262v3.384h32.431v-3.384A1.262,1.262,0,0,0,1690.973,1858.6Z" transform="translate(-1659.803 -1857.171)" fill="#5384cc"/>
          <rect id="Rectángulo_416721" data-name="Rectángulo 416721" width="27.339" height="1.429" transform="translate(2.545)" fill="#a6a4be"/>
        </g>
      </g>
      <g id="Grupo_1119158" data-name="Grupo 1119158" transform="translate(-7860.178 -3133.03)">
        <g id="Grupo_1119154" data-name="Grupo 1119154" transform="translate(23.173 0)">
          <g id="Grupo_1119147" data-name="Grupo 1119147" transform="translate(0 14.153)">
            <path id="Trazado_969762" data-name="Trazado 969762" d="M1445.15,1712.593s-.863.6-1.368.438a4.683,4.683,0,0,1-.489-.167c-.066-.027-.2-.069-.2-.069s-1.241-.416-1.529-.128-.109.605.585.706.7,1.168-.417,1.285-2.354.612-2.049.954,1.221.083,1.221.083.016.047-.221.1-.863-.056-.79.1a1.988,1.988,0,0,0,2,1.193,3.161,3.161,0,0,0,2.481-1.1,5.421,5.421,0,0,1,2.115-1.055S1446.008,1712.52,1445.15,1712.593Z" transform="translate(-1439.639 -1698.347)" fill="#fbcd9b"/>
            <path id="Trazado_969763" data-name="Trazado 969763" d="M1456.75,1711.41l-1.051.489,1,2.918,1.076-.385Z" transform="translate(-1450.633 -1697.555)" fill="#deebf4"/>
            <path id="Trazado_969764" data-name="Trazado 969764" d="M1470.017,1667.49a5.157,5.157,0,0,0-3.518,3.5c-1.13,3.1-2.074,5.834-2.074,5.834l-8.244,4.777,1.178,3.109s8.913-3.2,10.259-5.486C1468.519,1678.417,1472.8,1673.042,1470.017,1667.49Z" transform="translate(-1450.963 -1667.49)" fill="#4484e0"/>
            <path id="Trazado_969765" data-name="Trazado 969765" d="M1459.15,1704.018l.245.648s8.122-2.917,10.027-5.171h0a4.753,4.753,0,0,0-.521-2.86C1468.046,1700.273,1461.942,1702.967,1459.15,1704.018Z" transform="translate(-1452.995 -1687.44)" fill="#286bce"/>
          </g>
          <g id="Grupo_1119149" data-name="Grupo 1119149" transform="translate(13.17 38.56)">
            <path id="Trazado_969766" data-name="Trazado 969766" d="M1503.752,1860.044l.219,2.218s-2.17.925-2.555.485-.65-.324-.65-.324l-.184-2.806Z" transform="translate(-1494.527 -1823.417)" fill="#22313b"/>
            <path id="Trazado_969767" data-name="Trazado 969767" d="M1533.467,1857.985l-.136,2.129-2.826-.145-.334-2.369Z" transform="translate(-1514.781 -1822.035)" fill="#22313b"/>
            <path id="Trazado_969768" data-name="Trazado 969768" d="M1505.665,1744.9s.158,5.568-.166,8.761-.927,11.171-.445,13.546c.443,2.182,1.8,11.734,2.049,14.5a.536.536,0,0,1-.547.572c-1.246,0-3.24.21-3.58-.4-.437-.784-3.681-12.919-4.164-15.294a22.965,22.965,0,0,0-1.368-4.339,52.735,52.735,0,0,0-.257,5.579l.4,14.069a.588.588,0,0,1-.653.589,21.378,21.378,0,0,1-3.443-.388s-1.485-9.354-2.024-13.718-1.377-20.241-.235-22.07S1505.665,1744.9,1505.665,1744.9Z" transform="translate(-1487.737 -1744.861)" fill="#3f4752"/>
            <g id="Grupo_1119148" data-name="Grupo 1119148" transform="translate(6.085 0.006)">
              <path id="Trazado_969769" data-name="Trazado 969769" d="M1532.017,1781.727a.536.536,0,0,1-.547.572c-.271,0-.618,0-1-.011-.642-4.469-2.906-17.221-3.342-19.957-.377-2.368.759-12.483,1.358-17.449,1.261.011,2.089.037,2.089.037s.158,5.568-.166,8.761-.927,11.171-.445,13.545C1530.411,1769.4,1531.764,1778.957,1532.017,1781.727Z" transform="translate(-1518.735 -1744.881)" fill="#2f3740"/>
              <path id="Trazado_969770" data-name="Trazado 969770" d="M1503.009,1771.72c.46,1.579,1.483,9.376,1.483,9.376h0c-.117-.29-.192-.458-.192-.458a52.7,52.7,0,0,0-.256,5.579l.4,14.069a.588.588,0,0,1-.653.589,30.141,30.141,0,0,1-3.113-.357,3.7,3.7,0,0,0,2.282-1.334c.392-.807-.855-15.5-.855-15.5C1502.854,1780.878,1503.009,1771.72,1503.009,1771.72Z" transform="translate(-1500.677 -1763.253)" fill="#2f3740"/>
            </g>
            <path id="Trazado_969771" data-name="Trazado 969771" d="M1527.677,1864.275s-3.088-1.042-3.841-.645a1.841,1.841,0,0,1-.35,1.14c-.371.387-2.6,2.712-2.206,3.077s4.223.633,6.494-.185Z" transform="translate(-1508.664 -1826.101)" fill="#2d313d"/>
            <path id="Trazado_969772" data-name="Trazado 969772" d="M1490.865,1864.817a.225.225,0,0,1,.249.215l.081,2.847s.355.333-1.719.392-7.605.216-7.961-.117-.02-.686,1.689-1.421a15.7,15.7,0,0,0,4.248-2.7s1.383-.039,1.066,1C1488.518,1865.035,1488.84,1865.026,1490.865,1864.817Z" transform="translate(-1481.389 -1826.442)" fill="#2d313d"/>
          </g>
          <path id="Trazado_969773" data-name="Trazado 969773" d="M1511.857,1658.409l-.5-2.024-4.377.026-.311,2.578S1508.875,1662.2,1511.857,1658.409Z" transform="translate(-1485.522 -1645.735)" fill="#e9ae74"/>
          <path id="Trazado_969774" data-name="Trazado 969774" d="M1504.348,1660.125s.771,2.359.363,2.631-2.313,1.27-2.313,1.27a5.29,5.29,0,0,1,1,2c0,.68-7.3,9.531-7.3,9.531s-2.043-9.576-1.589-10.03,1.222-1.27,1.222-1.27-.638-1.905,0-2.359a10.817,10.817,0,0,1,2.5-.907l.862.726,4.355-2.313Z" transform="translate(-1477.151 -1647.799)" fill="#f5f5f5"/>
          <path id="Trazado_969775" data-name="Trazado 969775" d="M1490.419,1689.6c0-.544-.272-9.8-.272-9.8s-1-6.714.091-9.072a5.261,5.261,0,0,1,1.749-2.071,4.76,4.76,0,0,0,.244,1.934s-.768.817-1.222,1.27,1.589,10.03,1.589,10.03l1.042,10.9-.635,3.214a3.793,3.793,0,0,1-3.674-1.607S1490.419,1690.142,1490.419,1689.6Z" transform="translate(-1473.655 -1654.137)" fill="#4484e0"/>
          <path id="Trazado_969776" data-name="Trazado 969776" d="M1495.187,1711.59s-.533-10.955-.964-12.86a7.507,7.507,0,0,1,.17-3.112c.448,2.409.943,4.728.943,4.728l1.042,10.9-.635,3.214a3.6,3.6,0,0,1-2.41-.469A7.076,7.076,0,0,0,1495.187,1711.59Z" transform="translate(-1476.394 -1672.592)" fill="#286bce"/>
          <path id="Trazado_969777" data-name="Trazado 969777" d="M1503.423,1661l.862.726,4.355-2.313.152.122h0l-3.089,3.507-1.327-.964-1.531.749-.812-1.417C1502.723,1661.166,1503.423,1661,1503.423,1661Z" transform="translate(-1482.35 -1647.805)" fill="#9bd4df"/>
          <path id="Trazado_969778" data-name="Trazado 969778" d="M1501.411,1669.414l-.319-.9,1.353-.662,1.164.845-1.1,1.2-.714,5.4-2.1,5.632-.341.415s-.057-.268-.149-.71Z" transform="translate(-1480.42 -1653.583)" fill="#de3d73"/>
          <g id="Grupo_1119150" data-name="Grupo 1119150" transform="translate(17.288 12.576)">
            <path id="Trazado_969779" data-name="Trazado 969779" d="M1500.77,1677.253h0a64.159,64.159,0,0,1,7.99-14.763h0c.184.612.612,2.164.286,2.382-.408.272-2.314,1.27-2.314,1.27a5.288,5.288,0,0,1,1,2C1507.729,1668.73,1502.208,1675.5,1500.77,1677.253Z" transform="translate(-1498.774 -1662.49)" fill="#68a9ea"/>
            <path id="Trazado_969780" data-name="Trazado 969780" d="M1494.508,1669.854c.453-.454,1.222-1.27,1.222-1.27s-.638-1.905,0-2.359a4.864,4.864,0,0,1,1.107-.5h0c-.029,2.223-1.016,12.827-1.017,12.828C1495.277,1675.91,1494.161,1670.2,1494.508,1669.854Z" transform="translate(-1494.442 -1664.705)" fill="#68a9ea"/>
          </g>
          <path id="Trazado_969781" data-name="Trazado 969781" d="M1498.893,1677.132h0s7.3-8.85,7.3-9.531a5.288,5.288,0,0,0-1-2s1.905-1,2.313-1.27-.363-2.631-.363-2.631a24.2,24.2,0,0,1,5.035,2.9l-.592,11.885-.851,5.178,1.134,8.691s-7.312,1.553-11.394.6c0,0-2.313-12.043-1.905-13C1498.622,1677.849,1498.732,1677.555,1498.893,1677.132Z" transform="translate(-1479.949 -1649.377)" fill="#4484e0"/>
          <path id="Trazado_969782" data-name="Trazado 969782" d="M1521.85,1709.009l1.852-4.042s2.54-6.623,2.54-7.711-1.624-9.459-1.624-9.459l2.978,5.723-.041.833-.851,5.178,1.443,9.156S1525.443,1708.744,1521.85,1709.009Z" transform="translate(-1495.916 -1667.238)" fill="#286bce"/>
          <g id="Grupo_1119151" data-name="Grupo 1119151" transform="translate(17.559 39.867)">
            <path id="Trazado_969783" data-name="Trazado 969783" d="M1513.123,1767.984h-16.095a1.153,1.153,0,0,1-1.153-1.153V1756.6a1.153,1.153,0,0,1,1.153-1.153h16.095a1.153,1.153,0,0,1,1.153,1.153v10.231A1.152,1.152,0,0,1,1513.123,1767.984Z" transform="translate(-1495.694 -1753.414)" fill="#65260f"/>
            <path id="Trazado_969784" data-name="Trazado 969784" d="M1520.112,1751.46h-.651v.557h.569v1.291h-4.757v-1.291h.747v-.557h-.829a.475.475,0,0,0-.474.474v1.455a.475.475,0,0,0,.474.474h4.922a.475.475,0,0,0,.474-.474v-1.455A.475.475,0,0,0,1520.112,1751.46Z" transform="translate(-1508.592 -1750.685)" fill="#752c15"/>
            <path id="Trazado_969785" data-name="Trazado 969785" d="M1514.74,1755.609h-1.392v-.215a.127.127,0,0,1,.127-.126h1.138a.127.127,0,0,1,.126.126Z" transform="translate(-1507.656 -1753.291)" fill="#fde86b"/>
            <path id="Trazado_969786" data-name="Trazado 969786" d="M1531.5,1755.609h-1.392v-.215a.126.126,0,0,1,.126-.126h1.139a.127.127,0,0,1,.126.126Z" transform="translate(-1519.129 -1753.291)" fill="#fde86b"/>
            <path id="Trazado_969787" data-name="Trazado 969787" d="M1512.226,1768.884h-15.781a1.142,1.142,0,0,1-1.143-1.142v-10.253a1.142,1.142,0,0,1,1.143-1.143h15.781a1.142,1.142,0,0,1,1.143,1.143v10.253A1.143,1.143,0,0,1,1512.226,1768.884Z" transform="translate(-1495.303 -1754.029)" fill="#b15226"/>
            <path id="Trazado_969788" data-name="Trazado 969788" d="M1513.368,1758.682a1.145,1.145,0,0,0-1.177-1.109h-15.713a1.144,1.144,0,0,0-1.176,1.109v1.481l8.8,2.788a1.747,1.747,0,0,0,1.066,0l8.2-2.67Z" transform="translate(-1495.302 -1754.869)" fill="#65260f"/>
            <path id="Trazado_969789" data-name="Trazado 969789" d="M1513.368,1757.452a1.145,1.145,0,0,0-1.177-1.109h-15.713a1.144,1.144,0,0,0-1.176,1.109v1.481l8.8,2.788a1.745,1.745,0,0,0,1.066,0l8.2-2.67Z" transform="translate(-1495.302 -1754.027)" fill="#c96828"/>
            <path id="Trazado_969790" data-name="Trazado 969790" d="M1496.409,1756.684h15.947a1.212,1.212,0,0,1,1.038.562,1.16,1.16,0,0,0-1.155-.9h-15.713a1.16,1.16,0,0,0-1.155.9A1.211,1.211,0,0,1,1496.409,1756.684Z" transform="translate(-1495.349 -1754.029)" fill="#eb7c44"/>
            <path id="Trazado_969791" data-name="Trazado 969791" d="M1522.716,1772.977h-1.974a.221.221,0,0,1-.221-.221v-1.246a.221.221,0,0,1,.221-.221h1.974a.221.221,0,0,1,.221.221v1.246A.22.22,0,0,1,1522.716,1772.977Z" transform="translate(-1512.565 -1764.258)" fill="#ffad35"/>
            <path id="Trazado_969792" data-name="Trazado 969792" d="M1522.71,1771.29h-1.961a.221.221,0,0,0-.228.215v.763h2.416v-.763A.219.219,0,0,0,1522.71,1771.29Z" transform="translate(-1512.566 -1764.259)" fill="#fde86b"/>
            <path id="Trazado_969793" data-name="Trazado 969793" d="M1521.335,1749.415a4.439,4.439,0,0,0-3.708,0,.557.557,0,0,0,.073,1.026.566.566,0,0,0,.177.029.552.552,0,0,0,.247-.058,3.364,3.364,0,0,1,2.72,0,.556.556,0,0,0,.745-.253A.558.558,0,0,0,1521.335,1749.415Z" transform="translate(-1510.374 -1749.002)" fill="#65260f"/>
            <path id="Trazado_969794" data-name="Trazado 969794" d="M1512.232,1756.35h-.344c.726,3.251,2.047,10.3.092,11.2-2.317,1.074-14.446.382-16.669.244a1.141,1.141,0,0,0,1.14,1.089h15.781a1.143,1.143,0,0,0,1.143-1.143v-10.252A1.142,1.142,0,0,0,1512.232,1756.35Z" transform="translate(-1495.308 -1754.032)" fill="#231f20" opacity="0.15"/>
            <path id="Trazado_969795" data-name="Trazado 969795" d="M1521.789,1775.042a.075.075,0,1,1-.074-.063A.069.069,0,0,1,1521.789,1775.042Z" transform="translate(-1513.332 -1766.784)" fill="#fff"/>
            <ellipse id="Elipse_13678" data-name="Elipse 13678" cx="0.296" cy="1.535" rx="0.296" ry="1.535" transform="translate(1.429 8.417)" fill="#c96828"/>
          </g>
          <g id="Grupo_1119152" data-name="Grupo 1119152" transform="translate(24.783 15.232)">
            <path id="Trazado_969796" data-name="Trazado 969796" d="M1519.669,1742.678s-.09-1.406,1.816-1.163c.439.056.718-.343.917-1.013l1.807.649a22.835,22.835,0,0,1-1.915,3.467c-.724.7-1.122.654-1.537.371-.649-.442-1.161.169-1.374-.457s-1.233.209-1.182-.532S1519.669,1742.678,1519.669,1742.678Z" transform="translate(-1518.199 -1718.548)" fill="#fbc0a4"/>
            <path id="Trazado_969797" data-name="Trazado 969797" d="M1531.293,1740.741l-.532,1.117a5.683,5.683,0,0,1-2.734-1.294l.5-1.044Z" transform="translate(-1524.927 -1717.877)" fill="#f8e8d8"/>
            <path id="Trazado_969798" data-name="Trazado 969798" d="M1532.163,1670.91s5.262,11.975,4.9,14.334-6.169,9.435-6.169,9.435l-3.175-1.27,5.035-9.118S1523.816,1674.311,1532.163,1670.91Z" transform="translate(-1524.715 -1670.91)" fill="#4484e0"/>
            <path id="Trazado_969799" data-name="Trazado 969799" d="M1542.617,1691.86c1.429-2.994.476-4.523.476-4.523.272-1.6-1.971-11.393-1.973-11.4,1.41,3.335,4.5,10.921,4.218,12.746-.288,1.874-4.011,6.724-5.529,8.638C1540.554,1695.945,1541.721,1693.743,1542.617,1691.86Z" transform="translate(-1532.992 -1674.352)" fill="#286bce"/>
          </g>
          <g id="Grupo_1119153" data-name="Grupo 1119153" transform="translate(16.474)">
            <path id="Trazado_969800" data-name="Trazado 969800" d="M1498.9,1636.889s.1,2.428.223,3.586.378,3.812,2.736,3.947a5.918,5.918,0,0,0,4.353-1.732s2.518-2.724,2.049-3.453-1.107-3-3.422-2.752S1498.9,1636.889,1498.9,1636.889Z" transform="translate(-1496.679 -1632.099)" fill="#fbcd9b"/>
            <path id="Trazado_969801" data-name="Trazado 969801" d="M1496.826,1623.917c.51-.266,1.016-.541,1.489-.814a3.424,3.424,0,0,1,2.638-.356,4.173,4.173,0,0,1,2.545,2.131l.855.688c.855.688.649,3.039-.193,4.341a14.079,14.079,0,0,1-2.87,3.409c-.1.011-.1-.065-.054-.189a1.934,1.934,0,0,0-.053-.91c1.7-.6,1.716-2.213.988-2.4s-1.207,1.206-1.207,1.206l-.143-.464a5.453,5.453,0,0,1,.268-2.682s-.04.026-.114.067c0,.006,0,.011-.008.016a2.243,2.243,0,0,1-1.543.838s.141-.143.319-.336a6.041,6.041,0,0,1-2.9.184,6.153,6.153,0,0,0,1.31-.418,18.351,18.351,0,0,1-2.488-.335c-3.171-.437-3.806-2.3-3.806-2.3A16.017,16.017,0,0,0,1496.826,1623.917Z" transform="translate(-1491.861 -1622.626)" fill="#221e52"/>
          </g>
        </g>
        <g id="Grupo_1119157" data-name="Grupo 1119157" transform="translate(0 1.041)">
          <path id="Trazado_969802" data-name="Trazado 969802" d="M1406.394,1798.04s-.919,17.444-1.531,21.182c0,0,.368.989,2.532,1.622s3.431,1.266,2.573,2.294c0,0-8.169.2-8.823-.277s-.409-1.226.531-3.006c0,0-1.348-20.055-.572-21.815h5.29Z" transform="translate(-1389.864 -1743.745)" fill="#e8b795"/>
          <path id="Trazado_969803" data-name="Trazado 969803" d="M1377.6,1798.04a26.684,26.684,0,0,1-1.715,8.643c-1.593,3.521-4.615,10.6-4.615,11.748v2.848a1.8,1.8,0,0,1-2.737-.831s.409-3.046.776-5.419,1.8-9.651,2.328-11.906a32.509,32.509,0,0,0,.654-5.083h5.309Z" transform="translate(-1367.793 -1743.745)" fill="#e8b795"/>
          <path id="Trazado_969804" data-name="Trazado 969804" d="M1407.585,1869.023c2.05.615,3.223,1.24,2.39,2.239,0,0-8.169.2-8.823-.277-.607-.441-.438-1.122.342-2.643C1401.5,1868.344,1405.6,1870.187,1407.585,1869.023Z" transform="translate(-1389.869 -1791.869)" fill="#2d313d"/>
          <path id="Trazado_969805" data-name="Trazado 969805" d="M1369.659,1869.907s1.225,1.058.582,2.186-3.615.319-3.982-.286.664-2.731.664-2.731Z" transform="translate(-1366.18 -1792.372)" fill="#2d313d"/>
          <path id="Trazado_969806" data-name="Trazado 969806" d="M1382.977,1627.038s-1.518-.786-2.675,2.278a20.743,20.743,0,0,0-.8,9.468s-3.359,3.616-.614,5.979c0,0,3.782,3.978,4.031,5,.1-.24,1.72-3.162,4.351-3.325s9.111-6.971,5.655-8.029c0,0,.258,1.1-.922.836s-.436-4.325-.448-5.762-.877-4.975-3.392-6.477S1382.753,1625.615,1382.977,1627.038Z" transform="translate(-1374.141 -1625.927)" fill="#1c1715"/>
          <path id="Trazado_969807" data-name="Trazado 969807" d="M1397.367,1658.874a8.611,8.611,0,0,0,.9,2.294s.358.933-.7,3.571-3.725,1.165-4.152.445-1.37-2.1-.51-3.467a2.335,2.335,0,0,0,.563-2.714S1397.181,1658.253,1397.367,1658.874Z" transform="translate(-1384.238 -1648.311)" fill="#eba97a"/>
          <path id="Trazado_969808" data-name="Trazado 969808" d="M1391.069,1640.72s1.787,1.386,3.249.852a5.413,5.413,0,0,0,3.157-3.364,7.037,7.037,0,0,0-1.233-5.263c-.983-1.01-4.636-1.673-5.662-.358S1389.157,1639.21,1391.069,1640.72Z" transform="translate(-1382.296 -1629.984)" fill="#fdc596"/>
          <path id="Trazado_969809" data-name="Trazado 969809" d="M1374.65,1739.32s-3.888,2.093-4.1,3.148l4.285-1.371Z" transform="translate(-1369.17 -1703.549)" fill="#e55daa"/>
          <path id="Trazado_969810" data-name="Trazado 969810" d="M1391.008,1742.94s1.562,11.394.046,18.656c0,0-10.987.868-13.051-.286,0,0-.69-12.5.162-18.305Z" transform="translate(-1374.093 -1706.027)" fill="#476291"/>
          <path id="Trazado_969811" data-name="Trazado 969811" d="M1378.355,1760.6a19.687,19.687,0,0,0-.1-2.165,9,9,0,0,0,6.11,1.242c4.254-.685,5.231-9.521,4.73-13.677a12.371,12.371,0,0,0-1.294-4.1l3.558.327s1.562,11.394.046,18.656C1391.406,1760.885,1380.418,1761.752,1378.355,1760.6Z" transform="translate(-1374.446 -1705.315)" fill="#3e5c87"/>
          <path id="Trazado_969812" data-name="Trazado 969812" d="M1383.8,1665.843s3.2,1.4,4.744-.2c0,0,6.7,6.712,2.9,24.321,0,0-12.779.659-13.032.7s.918-3.819,2.412-4.89,10.061-6,2.946-19.656C1383.715,1666.032,1383.724,1665.978,1383.8,1665.843Z" transform="translate(-1374.525 -1653.116)" fill="#f6f6f6"/>
          <path id="Trazado_969813" data-name="Trazado 969813" d="M1391.652,1690.42c10.114-2.3,6.987-12.639,7.333-14.711.287-1.724-2.568-7.427-3.539-9.3a2.864,2.864,0,0,0,2.15-.763s6.7,6.713,2.9,24.321c0,0-5.078.262-8.9.467C1391.617,1690.429,1391.633,1690.423,1391.652,1690.42Z" transform="translate(-1383.579 -1653.115)" fill="#dce2ea"/>
          <g id="Grupo_1119155" data-name="Grupo 1119155" transform="translate(15.004 13.077)">
            <path id="Trazado_969814" data-name="Trazado 969814" d="M1428.277,1734.777a15.371,15.371,0,0,1-.873,2.26c-.36.6-.362,1.095,0,1.4s.316-.939.51-.868-.176,1.6.617,1.728,1.586.25,1.749-.172.48-1.473.006-2.078a3.2,3.2,0,0,1-.626-2.049C1429.737,1734.553,1428.277,1734.777,1428.277,1734.777Z" transform="translate(-1422.908 -1713.477)" fill="#ffddb5"/>
            <path id="Trazado_969815" data-name="Trazado 969815" d="M1414.835,1667.38s3.715.179,5.287,9.5a75.248,75.248,0,0,1,.758,12.741l-2.443-.127s-.618-10.947-3.7-17.137C1414.737,1672.361,1412.432,1668.642,1414.835,1667.38Z" transform="translate(-1413.741 -1667.38)" fill="#ff77c4"/>
          </g>
          <path id="Trazado_969816" data-name="Trazado 969816" d="M1414.692,1683.43l-.093-.084c1.527-13.44-1.093-16.843-2.858-17.613-.432-.088-1.087-.026-1.476-.082,0,0,3.333,12.7,3.105,22.372a4.535,4.535,0,0,0-.1,1.948,12.926,12.926,0,0,1,2.156,1.225c1.251.837-.484-6.332-.779-7.519C1414.664,1683.594,1414.677,1683.512,1414.692,1683.43Z" transform="translate(-1396.358 -1653.119)" fill="#ff77c4"/>
          <path id="Trazado_969817" data-name="Trazado 969817" d="M1377.8,1666.15a12.016,12.016,0,0,0-1.99.434c-.463.142-3.591,1.284-3.378,6.257.23,5.369.718,9.9-.055,11.74s-2.535,4.911-2.63,8.218c3.986-3.214,8.806-6.666,11.446-12.213C1384.859,1672.873,1377.8,1666.15,1377.8,1666.15Z" transform="translate(-1368.619 -1653.461)" fill="#ff77c4"/>
          <path id="Trazado_969818" data-name="Trazado 969818" d="M1374.929,1668.84c-1.069.664-2.649,2.259-2.5,5.842.23,5.369.718,9.9-.055,11.74s-2.535,4.911-2.63,8.218c0,0,1.725-5.519,4.537-8.407C1374.286,1686.231,1372.027,1674.619,1374.929,1668.84Z" transform="translate(-1368.623 -1655.302)" fill="#e55daa"/>
          <g id="Grupo_1119156" data-name="Grupo 1119156" transform="translate(4.543 14.893)">
            <path id="Trazado_969819" data-name="Trazado 969819" d="M1432.772,1711.428s.919.5,1.41.343a4.864,4.864,0,0,0,.475-.161c.063-.025.193-.067.193-.067s1.207-.4,1.521-.158.163.527-.524.636-.6,1.045.532,1.115,2.415.466,2.139.775-1.217.109-1.217.109-.012.041.23.079.86-.075.8.063-.374,1.061-1.9,1.106a3.6,3.6,0,0,1-2.585-.889,6.234,6.234,0,0,0-2.213-.861S1431.908,1711.393,1432.772,1711.428Z" transform="translate(-1415.53 -1699.266)" fill="#ffddb5"/>
            <path id="Trazado_969820" data-name="Trazado 969820" d="M1383.493,1673.25a2.07,2.07,0,0,0-2.721,2.682c1.547,3.295,4.285,8.833,5.613,9.739,1.911,1.3,11.888,2.5,11.888,2.5l.7-2.8-10.3-2.914S1388.073,1674.657,1383.493,1673.25Z" transform="translate(-1380.581 -1673.135)" fill="#ff77c4"/>
            <path id="Trazado_969821" data-name="Trazado 969821" d="M1387.007,1688.221c-1.125-.743-5.231-6.49-6.379-8.115a1.986,1.986,0,0,0,.175.6c.255.543.542,1.147.851,1.782l0,0,.094.194,0,.01.092.189.008.015.1.2v0l.2.4.033.066.065.131.044.088.055.109.049.1.05.1.054.108.043.084.06.119.04.077.062.12.038.074.065.126.026.051q.177.344.357.685l.014.026.078.149.024.044.076.143.025.047.077.143.023.043.078.145.021.039.08.147.016.03c.156.284.31.562.464.83l.013.023.078.136.022.038.074.127.026.045.071.12.028.047.07.118.026.044.071.118.024.039.073.119.011.017q.125.2.246.391l.02.032.061.094.033.051.056.084.037.056.053.078.039.058.051.074.04.056.05.07.04.055.048.066.042.057.044.059.048.062.057.074.061.077.035.042.048.057.036.042.045.052.035.039.043.048.034.036.043.045.033.033.042.041.031.03.043.039.029.025.046.037.024.019.067.049h0c.042.029.089.057.138.086l.032.019c.049.028.1.056.156.083l.029.014.158.074.036.016c.062.027.126.054.193.08l.05.02.194.073.025.009c.073.026.148.052.225.078l.066.022.235.075.054.016.211.063.074.021.253.071.083.022.22.058.069.018.269.067.1.025.262.062.091.021.23.052.107.024.281.061.106.022.223.047.1.021.288.058.116.023.255.05.111.021.252.047.113.021.294.054.1.017.243.043.091.016.3.052.088.015.28.047.039.007.315.051.063.01.317.05h.006l.325.051.016,0c.779.12,1.471.216,1.993.286-1.481-.441-3.833-1.16-5.775-1.833C1387.433,1689.782,1387.007,1688.221,1387.007,1688.221Z" transform="translate(-1380.613 -1677.907)" fill="#e55daa"/>
          </g>
          <path id="Trazado_969822" data-name="Trazado 969822" d="M1394.23,1666.14l2.833,2.341.454-1.669-2.274-.64Z" transform="translate(-1385.381 -1653.454)" fill="#9cd6e2"/>
          <path id="Trazado_969823" data-name="Trazado 969823" d="M1406.65,1665.65l-1.663.762,1.572,1.808S1407.326,1666.369,1406.65,1665.65Z" transform="translate(-1392.745 -1653.119)" fill="#9cd6e2"/>
          <path id="Trazado_969824" data-name="Trazado 969824" d="M1382,1643.613a2.041,2.041,0,0,1-2.3-.564c-.833-1.131.565-1.812.565-1.812s-.909,1.145.416,1.288,1.333-2.081.868-3.309a8.511,8.511,0,0,1,.057-7.146,7.682,7.682,0,0,1,1.729-2.2l.757-.422.525,1.287a16.018,16.018,0,0,0-1.437,2.8,6.309,6.309,0,0,0,.443,5.3C1384.752,1641.065,1385.036,1643.251,1382,1643.613Z" transform="translate(-1375.253 -1628.338)" fill="#442b19"/>
          <path id="Trazado_969825" data-name="Trazado 969825" d="M1387.419,1630.54l-.525-1.287h0s-1.518-.786-2.675,2.278a12.815,12.815,0,0,0-.69,3.587c.519,1.905,1.991,4.1,2.792,5.967,1.011,2.355-2.083,1.726-2.083,1.726a1.614,1.614,0,0,0,2.582.4c1.705-1.478.218-3.918-.433-5.195a6.974,6.974,0,0,1,.083-5.072A23.89,23.89,0,0,0,1387.419,1630.54Z" transform="translate(-1378.056 -1628.141)" fill="#513826"/>
          <path id="Trazado_969826" data-name="Trazado 969826" d="M1394.693,1628.325s3.464-.918,5.2,3.276-.757,6.126-.318,7.419,1.619,1.479,2.632.148c0,0-1.245.8-1.431-.1s1.883-2.234,1.7-5.693a15.136,15.136,0,0,0-.49-3.107,6.828,6.828,0,0,0-2.631-3.255c-2.515-1.5-5.411-1.4-5.186.028Z" transform="translate(-1385.33 -1625.926)" fill="#442b19"/>
        </g>
      </g>
    </g>
  </g>
</svg>
