<svg xmlns="http://www.w3.org/2000/svg" width="40" height="45.737" viewBox="0 0 40 45.737">
  <g id="Grupo_1119348" data-name="Grupo 1119348" transform="translate(-32.108)">
    <g id="Grupo_1119347" data-name="Grupo 1119347" transform="translate(32.108 0)">
      <g id="Grupo_1119346" data-name="Grupo 1119346" transform="translate(0)">
        <path id="Trazado_970418" data-name="Trazado 970418" d="M386.624,26.043a1.137,1.137,0,0,0,1.132-1.238l-.325-3.655a2.987,2.987,0,0,0-1.84-2.511,3.034,3.034,0,0,0,.595-2.675v-3.6h.439a1.137,1.137,0,0,0,1.132-1.238l-.325-3.655a2.987,2.987,0,0,0-1.84-2.511,3.038,3.038,0,1,0-4.7,0,3.009,3.009,0,0,0-1.8,2.191.67.67,0,1,0,1.315.26,1.666,1.666,0,0,1,1.631-1.34h2.394A1.655,1.655,0,0,1,386.1,7.592l.306,3.434h-.886a.67.67,0,0,0-.67.67v2.441a3.02,3.02,0,0,0-.934-.384v-2.1a.67.67,0,1,0-1.34,0v2.1a3.021,3.021,0,0,0-.934.384V11.7a.67.67,0,0,0-.67-.67h-.885l.048-.539a.67.67,0,0,0-1.335-.118l-.067.757a1.136,1.136,0,0,0,1.132,1.239h.438v3.6a3.035,3.035,0,0,0,.6,2.673,2.987,2.987,0,0,0-1.84,2.511l-.325,3.654a1.136,1.136,0,0,0,1.132,1.239h.438v3.6a3.034,3.034,0,0,0,.6,2.674,2.986,2.986,0,0,0-1.84,2.511l-.326,3.656a1.137,1.137,0,0,0,1.132,1.237h.438v4.413a1.605,1.605,0,0,0,1.6,1.6h2.681a1.605,1.605,0,0,0,1.6-1.6V39.721h.438a1.137,1.137,0,0,0,1.132-1.237l-.325-3.656a2.986,2.986,0,0,0-1.84-2.511,3.034,3.034,0,0,0,.595-2.676v-3.6Zm-3.382-24.7a1.7,1.7,0,0,1,.007,3.4h-.014a1.7,1.7,0,0,1,.007-3.4Zm0,13.677a1.7,1.7,0,0,1,0,3.4h-.009a1.7,1.7,0,0,1,0-3.4ZM380.083,24.7l.306-3.434a1.655,1.655,0,0,1,1.657-1.516h2.394a1.655,1.655,0,0,1,1.657,1.516L386.4,24.7h-.886a.67.67,0,0,0-.67.67v2.441a3.02,3.02,0,0,0-.934-.384v-2.1a.67.67,0,1,0-1.34,0v2.1a3.022,3.022,0,0,0-.934.384V25.373a.67.67,0,0,0-.67-.67Zm3.159,3.991a1.7,1.7,0,1,1-1.7,1.7A1.7,1.7,0,0,1,383.242,28.694Zm3.16,9.686h-.886a.67.67,0,0,0-.67.67v5.083a.264.264,0,0,1-.263.263h-.671v-5.39a.67.67,0,1,0-1.34,0V44.4H381.9a.264.264,0,0,1-.263-.263V39.05a.67.67,0,0,0-.67-.67h-.886l.306-3.434a1.655,1.655,0,0,1,1.657-1.516h2.394a1.655,1.655,0,0,1,1.657,1.516Z" transform="translate(-347.76 0)" fill="#0042db"/>
        <path id="Trazado_970419" data-name="Trazado 970419" d="M41.141,317.346l-.325-3.656a2.987,2.987,0,0,0-1.84-2.511,3.038,3.038,0,1,0-4.7,0,2.986,2.986,0,0,0-1.84,2.511l-.325,3.656a1.137,1.137,0,0,0,1.132,1.238h.438V323a1.605,1.605,0,0,0,1.6,1.6h2.681a1.605,1.605,0,0,0,1.6-1.6v-4.413h.438a1.137,1.137,0,0,0,1.132-1.237Zm-4.514-9.789a1.7,1.7,0,1,1-1.7,1.7A1.7,1.7,0,0,1,36.627,307.557Zm2.274,9.686a.67.67,0,0,0-.67.67V323a.264.264,0,0,1-.263.263H37.3v-5.39a.67.67,0,0,0-1.34,0v5.39h-.671a.264.264,0,0,1-.263-.263v-5.083a.67.67,0,0,0-.67-.67h-.886l.306-3.434a1.655,1.655,0,0,1,1.657-1.516h2.394a1.655,1.655,0,0,1,1.657,1.516l.306,3.434Z" transform="translate(-32.108 -278.863)" fill="#0042db"/>
        <path id="Trazado_970420" data-name="Trazado 970420" d="M156.593,316.364a.67.67,0,1,0-1.335.119l.068.762h-.886a.67.67,0,0,0-.67.67V323a.264.264,0,0,1-.263.263h-.671v-5.39a.67.67,0,1,0-1.34,0v5.39h-.671a.264.264,0,0,1-.263-.263v-5.083a.67.67,0,0,0-.67-.67h-.886l.306-3.434a1.655,1.655,0,0,1,1.657-1.516h2.394a1.674,1.674,0,0,1,1.592,1.181.67.67,0,0,0,1.283-.388,3.02,3.02,0,0,0-1.727-1.9,3.038,3.038,0,1,0-4.693-.006,2.986,2.986,0,0,0-1.84,2.511l-.326,3.656a1.137,1.137,0,0,0,1.132,1.237h.438V323a1.605,1.605,0,0,0,1.6,1.6h2.681a1.605,1.605,0,0,0,1.6-1.6v-4.413h.438a1.137,1.137,0,0,0,1.132-1.237Zm-4.426-8.8a1.7,1.7,0,1,1-1.7,1.7A1.7,1.7,0,0,1,152.167,307.559Z" transform="translate(-137.327 -278.865)" fill="#0042db"/>
        <path id="Trazado_970421" data-name="Trazado 970421" d="M271.891,174.259a2.986,2.986,0,0,0-1.84-2.511,3.034,3.034,0,0,0,.595-2.676v-3.6h.439a1.137,1.137,0,0,0,1.132-1.238l-.325-3.655a2.987,2.987,0,0,0-1.84-2.511,3.038,3.038,0,1,0-4.7,0,2.987,2.987,0,0,0-1.84,2.511l-.325,3.656a1.136,1.136,0,0,0,1.132,1.237h.438v3.6a3.034,3.034,0,0,0,.6,2.673,2.986,2.986,0,0,0-1.84,2.511l-.326,3.656a1.137,1.137,0,0,0,1.132,1.237h.438v4.413a1.605,1.605,0,0,0,1.6,1.6h2.681a1.605,1.605,0,0,0,1.6-1.6v-4.413h.438a1.137,1.137,0,0,0,1.132-1.237Zm-4.189-6.133a1.7,1.7,0,1,1-1.7,1.7A1.7,1.7,0,0,1,267.7,168.126Zm0-13.677a1.7,1.7,0,0,1,0,3.4H267.7a1.7,1.7,0,0,1,0-3.4Zm-3.159,9.686.305-3.434a1.655,1.655,0,0,1,1.657-1.516H268.9a1.655,1.655,0,0,1,1.657,1.516l.305,3.434h-.886a.67.67,0,0,0-.67.67v2.44a3.019,3.019,0,0,0-.934-.384v-2.19a.67.67,0,1,0-1.34,0v2.19a3.018,3.018,0,0,0-.934.384v-2.441a.67.67,0,0,0-.67-.67Zm5.433,13.677a.67.67,0,0,0-.67.67v5.083a.264.264,0,0,1-.263.263h-.671v-5.39a.67.67,0,1,0-1.34,0v5.39h-.671a.264.264,0,0,1-.263-.263v-5.083a.67.67,0,0,0-.67-.67h-.886l.306-3.434a1.655,1.655,0,0,1,1.657-1.516H268.9a1.655,1.655,0,0,1,1.657,1.516l.306,3.434Z" transform="translate(-242.542 -139.432)" fill="#0042db"/>
        <path id="Trazado_970422" data-name="Trazado 970422" d="M109.765,33.232A.67.67,0,1,0,111,32.705l-.875-2.047a.67.67,0,0,0-.879-.353l-2.047.875a.67.67,0,1,0,.527,1.232l.589-.252a38.216,38.216,0,0,1-12.74,14.46,38.265,38.265,0,0,1-8.041,4.308.67.67,0,1,0,.44,1.266,38.775,38.775,0,0,0,8.323-4.444A39.553,39.553,0,0,0,109.538,32.7Z" transform="translate(-82.169 -27.549)" fill="#0042db"/>
        <path id="Trazado_970423" data-name="Trazado 970423" d="M59.8,35.38a7.689,7.689,0,0,0,6.68-11.5.67.67,0,0,0-1.164.665,6.344,6.344,0,1,1-1.953-2.113.67.67,0,0,0,.753-1.108A7.69,7.69,0,1,0,59.8,35.38Z" transform="translate(-50.322 -18.213)" fill="#0042db"/>
        <path id="Trazado_970424" data-name="Trazado 970424" d="M95.083,67.626h.933a1.565,1.565,0,0,0,1.563-1.563v-.59h.59a1.565,1.565,0,0,0,1.563-1.563v-.933a1.565,1.565,0,0,0-1.563-1.563h-.59v-.59a1.565,1.565,0,0,0-1.563-1.563h-.933a1.565,1.565,0,0,0-1.563,1.563v.59h-.59a1.565,1.565,0,0,0-1.563,1.563v.933a1.565,1.565,0,0,0,1.563,1.563h.59v.59A1.565,1.565,0,0,0,95.083,67.626Zm-2.153-3.493a.224.224,0,0,1-.223-.223v-.933a.224.224,0,0,1,.223-.223h1.26a.67.67,0,0,0,.67-.67v-1.26a.224.224,0,0,1,.223-.223h.933a.224.224,0,0,1,.223.223v1.26a.67.67,0,0,0,.67.67h1.26a.224.224,0,0,1,.223.223v.933a.224.224,0,0,1-.223.223h-1.26a.67.67,0,0,0-.67.67v1.26a.224.224,0,0,1-.223.223h-.933a.224.224,0,0,1-.223-.223V64.8a.67.67,0,0,0-.67-.67Z" transform="translate(-86.073 -53.966)" fill="#0042db"/>
      </g>
    </g>
  </g>
</svg>
