<svg xmlns="http://www.w3.org/2000/svg" width="120" height="120" viewBox="0 0 120 120">
  <g id="Grupo_1116047" data-name="Grupo 1116047" transform="translate(-64 -6445)">
    <rect id="Rect치ngulo_402033" data-name="Rect치ngulo 402033" width="120" height="120" rx="8" transform="translate(64 6445)" fill="#0042db"/>
    <g id="Rect치ngulo_412110" data-name="Rect치ngulo 412110" transform="translate(69 6450)" fill="none" stroke="#fff" stroke-width="1">
      <rect width="110" height="110" rx="6" stroke="none"/>
      <rect x="0.5" y="0.5" width="109" height="109" rx="5.5" fill="none"/>
    </g>
    <g id="Grupo_1121369" data-name="Grupo 1121369" transform="translate(83.692 6457.811)">
      <g id="Grupo_1121368" data-name="Grupo 1121368" transform="translate(1.183 9.35)">
        <path id="Trazado_974327" data-name="Trazado 974327" d="M190.511,324.372h10.181c3.321,1,6.2,2.941,6.2,5.182v13.3h-22.58v-13.3C184.311,327.313,187.185,325.367,190.511,324.372Z" transform="translate(-156.473 -275.767)" fill="#ebd2ff" fill-rule="evenodd"/>
        <path id="Trazado_974328" data-name="Trazado 974328" d="M270.279,329.554v13.3H274.1v-13.3c0-2.241-2.879-4.187-6.2-5.182h-3.82C267.4,325.367,270.279,327.313,270.279,329.554Z" transform="translate(-223.682 -275.767)" fill="#d7bef0" fill-rule="evenodd"/>
        <path id="Trazado_974329" data-name="Trazado 974329" d="M94.281,432.8H100.3l4.919-.687,4.878.687h19.3l4.8-.942,4.994.942h6.021v9.212H94.281Z" transform="translate(-80.619 -366.332)" fill="#d09080" fill-rule="evenodd"/>
        <path id="Trazado_974330" data-name="Trazado 974330" d="M7.512,357.381V337.787A4.4,4.4,0,0,1,11.9,333.4h7.24c.125,0,.25,0,.37.013a3.369,3.369,0,0,1,3.008,1.317l5.892,7.8a1.337,1.337,0,0,0,1.2.6h7.378a3.356,3.356,0,1,1,0,6.713h-9.8a3.347,3.347,0,0,1-2.674-1.335l-1-1.321v11.868H9.186a2.069,2.069,0,0,1-1.674-1.678Z" transform="translate(-7.512 -283.376)" fill="#ff6978" fill-rule="evenodd"/>
        <path id="Trazado_974331" data-name="Trazado 974331" d="M328.807,357.381V337.787a4.4,4.4,0,0,0-4.387-4.383h-7.235q-.188,0-.375.013a3.369,3.369,0,0,0-3.008,1.317l-5.887,7.8a1.357,1.357,0,0,1-1.2.6h-7.378a3.356,3.356,0,1,0,0,6.713h9.792a3.356,3.356,0,0,0,2.678-1.335l1-1.321v11.868h14.332A2.08,2.08,0,0,0,328.807,357.381Z" transform="translate(-250.552 -283.376)" fill="#ccf49f" fill-rule="evenodd"/>
        <path id="Trazado_974332" data-name="Trazado 974332" d="M204.692,95.418H223.92l4.865,4.865c.388.384.83.161.83-.348V95.418a4.52,4.52,0,0,0,4.5-4.508V79.537a4.516,4.516,0,0,0-4.5-4.5H204.692a4.52,4.52,0,0,0-4.508,4.5V90.91a4.524,4.524,0,0,0,4.508,4.508Z" transform="translate(-169.847 -65.688)" fill="#ecf4ff" fill-rule="evenodd"/>
        <path id="Trazado_974333" data-name="Trazado 974333" d="M23.3,40.865H43.526a6,6,0,0,0,5.981-5.981V21.655a6,6,0,0,0-5.981-5.976H17.6a6,6,0,0,0-5.981,5.976V34.884A6,6,0,0,0,17.6,40.865v4.521a.466.466,0,0,0,.83.344Z" transform="translate(-10.975 -15.679)" fill="#ecf4ff" fill-rule="evenodd"/>
        <path id="Trazado_974334" data-name="Trazado 974334" d="M228.268,247.149a6.374,6.374,0,0,1-12.747,0V240.32a3.577,3.577,0,0,1,3.571-3.566h8.226a.853.853,0,0,1,.951.946Z" transform="translate(-182.769 -201.945)" fill="#ffcbbe" fill-rule="evenodd"/>
        <path id="Trazado_974335" data-name="Trazado 974335" d="M215.521,240.318v2.058h12.747V237.7a.853.853,0,0,0-.951-.946h-8.226A3.578,3.578,0,0,0,215.521,240.318Z" transform="translate(-182.769 -201.943)" fill="#ffe5a0" fill-rule="evenodd"/>
        <path id="Trazado_974336" data-name="Trazado 974336" d="M17.858,247.149a6.374,6.374,0,0,0,12.747,0V240.32a3.577,3.577,0,0,0-3.571-3.566h-5.61a3.576,3.576,0,0,0-3.566,3.566v6.829Z" transform="translate(-16.229 -201.945)" fill="#ffcbbe" fill-rule="evenodd"/>
        <path id="Trazado_974337" data-name="Trazado 974337" d="M425.956,247.149a6.371,6.371,0,1,1-12.743,0V240.32a3.573,3.573,0,0,1,3.566-3.566h5.61a3.573,3.573,0,0,1,3.566,3.566Z" transform="translate(-349.334 -201.945)" fill="#c68b87" fill-rule="evenodd"/>
        <path id="Trazado_974338" data-name="Trazado 974338" d="M449.814,266.231a6.391,6.391,0,0,1-6.369,6.373,6.484,6.484,0,0,1-1.915-.294,6.406,6.406,0,0,0,4.432-5.459,8.529,8.529,0,0,0,3.847-.4l0-7.052Z" transform="translate(-373.192 -221.027)" fill="#bd7d79" fill-rule="evenodd"/>
        <path id="Trazado_974339" data-name="Trazado 974339" d="M30.605,240.319V242.8a4.784,4.784,0,0,1-4.133-.37c-.669-.379-.786-.384-.866.232-.232,1.79-1.04,6.731-7.739,4.709l-.009-7.052a3.576,3.576,0,0,1,3.566-3.566h5.611A3.577,3.577,0,0,1,30.605,240.319Z" transform="translate(-16.229 -201.944)" fill="#c68b87" fill-rule="evenodd"/>
        <path id="Trazado_974340" data-name="Trazado 974340" d="M413.212,240.319V242.8a4.776,4.776,0,0,0,4.128-.37c.674-.379.786-.384.866.232.232,1.79,1.04,6.731,7.744,4.709l0-7.052a3.571,3.571,0,0,0-3.566-3.566h-5.611A3.573,3.573,0,0,0,413.212,240.319Z" transform="translate(-349.333 -201.944)" fill="#477b9e" fill-rule="evenodd"/>
        <path id="Trazado_974341" data-name="Trazado 974341" d="M450.794,240.318v6.829a5.788,5.788,0,0,1-.031.62,8.528,8.528,0,0,0,3.847-.4l0-7.052a3.575,3.575,0,0,0-3.316-3.557,2.325,2.325,0,0,0-.25-.009h-3.821A3.574,3.574,0,0,1,450.794,240.318Z" transform="translate(-377.993 -201.943)" fill="#365e7d" fill-rule="evenodd"/>
        <path id="Trazado_974342" data-name="Trazado 974342" d="M50.669,278.411a6.4,6.4,0,0,1-4.463,6.079,6.37,6.37,0,0,0,8.284-6.079v-4.347a4.719,4.719,0,0,1-3.821-.205v4.552Z" transform="translate(-40.114 -233.208)" fill="#f7beaf" fill-rule="evenodd"/>
        <path id="Trazado_974343" data-name="Trazado 974343" d="M51.875,236.753a3.577,3.577,0,0,1,3.571,3.566V242.6a4.719,4.719,0,0,0,3.821.205v-2.482a3.577,3.577,0,0,0-3.571-3.566Z" transform="translate(-44.89 -201.944)" fill="#bd7d79" fill-rule="evenodd"/>
        <path id="Trazado_974344" data-name="Trazado 974344" d="M248.331,277.241a6.4,6.4,0,0,1-4.463,6.079,6.369,6.369,0,0,0,8.284-6.079V272.47h-3.821v4.771Z" transform="translate(-206.653 -232.037)" fill="#f7beaf" fill-rule="evenodd"/>
        <path id="Trazado_974345" data-name="Trazado 974345" d="M267.128,237.7v4.677h3.821V237.7a.853.853,0,0,0-.951-.946h-3.82a.853.853,0,0,1,.951.946Z" transform="translate(-225.449 -201.944)" fill="#f2ce7e" fill-rule="evenodd"/>
        <path id="Trazado_974346" data-name="Trazado 974346" d="M85.364,392.159a.255.255,0,0,0-.464.156v16.157h3.82V396.6Z" transform="translate(-72.715 -332.789)" fill="#cf4351" fill-rule="evenodd"/>
        <path id="Trazado_974347" data-name="Trazado 974347" d="M471.271,337.94v19.594a2.08,2.08,0,0,1-1.678,1.678h3.821a2.08,2.08,0,0,0,1.678-1.678V337.94a4.4,4.4,0,0,0-3.888-4.356,6.327,6.327,0,0,1-1.54.973A4.382,4.382,0,0,1,471.271,337.94Z" transform="translate(-396.837 -283.529)" fill="#b3e59f" fill-rule="evenodd"/>
        <path id="Trazado_974348" data-name="Trazado 974348" d="M200.5,91.788a4.522,4.522,0,0,0,4.459,3.87h19.228l4.865,4.865c.388.384.83.161.83-.348V95.657a4.52,4.52,0,0,0,4.5-4.508V79.777a4.518,4.518,0,0,0-3.865-4.459,4.311,4.311,0,0,1,.045.638V87.329a4.517,4.517,0,0,1-4.5,4.5H201.135A4.285,4.285,0,0,1,200.5,91.788Z" transform="translate(-170.111 -65.928)" fill="#ddeafb" fill-rule="evenodd"/>
        <path id="Trazado_974349" data-name="Trazado 974349" d="M47.287,32.64a5.994,5.994,0,0,1-5.981,5.981H15.383a5.954,5.954,0,0,1-1.861-.3,6,6,0,0,0,5.682,4.12v4.521a.466.466,0,0,0,.83.344L24.9,42.441H45.127a6,6,0,0,0,5.981-5.981V23.232a6.011,6.011,0,0,0-4.119-5.682,6,6,0,0,1,.3,1.861V32.64Z" transform="translate(-12.576 -17.255)" fill="#ddeafb" fill-rule="evenodd"/>
        <path id="Trazado_974350" data-name="Trazado 974350" d="M378.571,437.843h3.821v9.212h-3.821Z" transform="translate(-320.147 -371.372)" fill="#be694f" fill-rule="evenodd"/>
      </g>
      <path id="Trazado_974351" data-name="Trazado 974351" d="M4.312,56.334a5.192,5.192,0,0,0,10.065-1.781V51.666a5.947,5.947,0,0,1-2.8-.455,9.661,9.661,0,0,1-.241.955,6.212,6.212,0,0,1-1.973,3.093,5.759,5.759,0,0,1-4.066,1.178,8.893,8.893,0,0,1-.982-.1ZM34.9,48.6H45.285V45.337H37.291A2.4,2.4,0,0,0,34.9,47.725Zm10.381,2.361H34.9v3.593a5.191,5.191,0,0,0,10.381,0V50.961Zm32.359,7.882a5.623,5.623,0,0,1,1.651,1.33,5.532,5.532,0,0,1,1.321,3.588v7.962a1.181,1.181,0,0,1-2.361,0V63.761a3.189,3.189,0,0,0-.759-2.066,3.243,3.243,0,0,0-1.634-1.035,7.514,7.514,0,0,1-8.989-.094,2.26,2.26,0,0,0-.7.2,2.162,2.162,0,0,0-.8.656l-6.342,8.4a1.186,1.186,0,0,1-.942.473H49.962a2.176,2.176,0,1,0,0,4.352H59.67a2.123,2.123,0,0,0,1.058-.228,7,7,0,0,0,1.8-2.013l4.2-5.557a1.177,1.177,0,1,1,1.879,1.419l-3.995,5.293V83.85H78.255V77.07a1.181,1.181,0,0,1,2.361,0v7.962a1.177,1.177,0,0,1-1.178,1.178H1.183A1.181,1.181,0,0,1,0,85.033V77.07a1.181,1.181,0,0,1,2.361,0v6.78H16.01V73.558l-4-5.293a1.179,1.179,0,0,1,1.884-1.419L18,72.282c.375.5.75,1,1.125,1.5a2.173,2.173,0,0,0,.768.638,2.066,2.066,0,0,0,.987.228h9.779a2.176,2.176,0,1,0,0-4.352H22.526a1.179,1.179,0,0,1-.942-.473l-6.342-8.4a2.183,2.183,0,0,0-1.5-.852,7.523,7.523,0,0,1-8.989.1,3.236,3.236,0,0,0-1.616,1.009,3.2,3.2,0,0,0-.777,2.089v7.962a1.181,1.181,0,0,1-2.361,0V63.761a5.548,5.548,0,0,1,1.357-3.629,5.684,5.684,0,0,1,1.62-1.29,7.489,7.489,0,0,1-1.343-4.289V47.725a4.754,4.754,0,0,1,4.745-4.749h5.61a4.755,4.755,0,0,1,4.749,4.749v6.829a7.5,7.5,0,0,1-1.223,4.111A4.572,4.572,0,0,1,17.126,60l5.985,7.927h4.726V63.136a4.925,4.925,0,0,1,1.884-3.624,12.407,12.407,0,0,1,3.4-2.057,7.5,7.5,0,0,1-.58-2.9V47.725a4.755,4.755,0,0,1,4.749-4.749h9.176a1.185,1.185,0,0,1,1.183,1.183V54.554a7.55,7.55,0,0,1-.522,2.754,12.85,12.85,0,0,1,3.651,2.1,5,5,0,0,1,2,3.731v4.789H57.5L63.49,60a4.521,4.521,0,0,1,1.616-1.33,7.5,7.5,0,0,1-1.228-4.115V47.725a4.755,4.755,0,0,1,4.749-4.749h5.61a4.754,4.754,0,0,1,4.749,4.749v6.829a7.522,7.522,0,0,1-1.343,4.289ZM76.3,56.334a8.783,8.783,0,0,1-.982.1,5.756,5.756,0,0,1-4.062-1.178,6.188,6.188,0,0,1-1.977-3.093,9.645,9.645,0,0,1-.237-.955,5.97,5.97,0,0,1-2.807.455v2.888A5.192,5.192,0,0,0,76.3,56.334ZM66.24,49.3a3.849,3.849,0,0,0,2.932-.87,1.192,1.192,0,0,1,.768-.33,1.174,1.174,0,0,1,1.232,1.12,9.4,9.4,0,0,0,.366,2.254,3.91,3.91,0,0,0,1.2,1.95,3.542,3.542,0,0,0,2.477.661,8.5,8.5,0,0,0,1.415-.205V47.724a2.408,2.408,0,0,0-2.388-2.388h-5.61a2.408,2.408,0,0,0-2.388,2.388Zm-51.863,0V47.725a2.4,2.4,0,0,0-2.388-2.388H6.378a2.4,2.4,0,0,0-2.384,2.388v6.155a8.4,8.4,0,0,0,1.41.205,3.542,3.542,0,0,0,2.477-.661,3.949,3.949,0,0,0,1.2-1.95,9.185,9.185,0,0,0,.362-2.254,1.181,1.181,0,0,1,1.991-.8A3.851,3.851,0,0,0,14.376,49.3ZM34.385,59.485a10.259,10.259,0,0,0-3.1,1.781,2.7,2.7,0,0,0-1.089,1.87v4.789h.46a4.538,4.538,0,0,1,3.981,6.717H45.976a4.543,4.543,0,0,1,3.986-6.717h.455V63.136a2.781,2.781,0,0,0-1.169-1.942,10.981,10.981,0,0,0-3.339-1.834c-.152.183-.312.362-.478.527a7.526,7.526,0,0,1-10.672,0Q34.566,59.693,34.385,59.485ZM9.842,16.91a1.181,1.181,0,0,1,0-2.361H31.7a1.181,1.181,0,0,1,0,2.361Zm0,12.426a1.183,1.183,0,0,1,0-2.366H20.772a1.183,1.183,0,1,1,0,2.366Zm0-6.213a1.181,1.181,0,0,1,0-2.361H31.7a1.181,1.181,0,0,1,0,2.361ZM32.912,35.714a3.264,3.264,0,0,0,.763,1.2,3.3,3.3,0,0,0,2.352.977h6.94a1.181,1.181,0,0,1,0,2.361h-6.94a5.641,5.641,0,0,1-4.022-1.678,5.739,5.739,0,0,1-1.544-2.865H14L8.65,41.061a1.184,1.184,0,0,1-2.022-.83V35.616A7.185,7.185,0,0,1,.652,28.555V15.326A7.178,7.178,0,0,1,7.811,8.167H33.734a7.178,7.178,0,0,1,7.159,7.159v2.187H60.951A5.7,5.7,0,0,1,66.637,23.2V34.572a5.7,5.7,0,0,1-4.508,5.561v4.642a1.178,1.178,0,0,1-2.013.835l-5.352-5.351H48.315a1.181,1.181,0,1,1,0-2.361h6.94a1.166,1.166,0,0,1,.839.353l3.673,3.673V39.08A1.182,1.182,0,0,1,60.951,37.9a3.337,3.337,0,0,0,3.325-3.325V23.2a3.337,3.337,0,0,0-3.325-3.325H40.893v8.681a7.178,7.178,0,0,1-7.159,7.159h-.821ZM13.506,33.353H33.734a4.815,4.815,0,0,0,4.8-4.8V15.326a4.815,4.815,0,0,0-4.8-4.8H7.811a4.816,4.816,0,0,0-4.8,4.8V28.555a4.815,4.815,0,0,0,4.8,4.8,1.181,1.181,0,0,1,1.178,1.183v2.843L12.671,33.7a1.173,1.173,0,0,1,.835-.348ZM62.25,77H18.371V83.85H62.25V77Z" transform="translate(0 0)"/>
    </g>
  </g>
</svg>
