<svg xmlns="http://www.w3.org/2000/svg" width="40" height="40.003" viewBox="0 0 40 40.003">
  <g id="Grupo_1119350" data-name="Grupo 1119350" transform="translate(0.007)">
    <path id="Trazado_970428" data-name="Trazado 970428" d="M274.773,377H259.148A2.152,2.152,0,0,0,257,379.148v6.25a2.152,2.152,0,0,0,2.148,2.148h15.625a2.152,2.152,0,0,0,2.148-2.148v-6.25A2.152,2.152,0,0,0,274.773,377Zm.977,8.4a.978.978,0,0,1-.977.977H259.148a.978.978,0,0,1-.977-.977v-6.25a.978.978,0,0,1,.977-.977h15.625a.978.978,0,0,1,.977.977Z" transform="translate(-236.928 -347.547)" fill="#0042db"/>
    <path id="Trazado_970429" data-name="Trazado 970429" d="M305.867,457H292.586a.586.586,0,0,0,0,1.172h13.281a.586.586,0,1,0,0-1.172Z" transform="translate(-269.194 -421.297)" fill="#0042db"/>
    <path id="Trazado_970430" data-name="Trazado 970430" d="M353.417,417h-9.251a.586.586,0,1,0,0,1.172h9.251a.586.586,0,1,0,0-1.172Z" transform="translate(-316.745 -384.422)" fill="#0042db"/>
    <path id="Trazado_970431" data-name="Trazado 970431" d="M292.586,418.172h2.025a.586.586,0,1,0,0-1.172h-2.025a.586.586,0,1,0,0,1.172Z" transform="translate(-269.194 -384.422)" fill="#0042db"/>
    <path id="Trazado_970432" data-name="Trazado 970432" d="M26.126,27.741a13.868,13.868,0,1,0-6.3-26.222A2.152,2.152,0,0,0,17.767,0H2.142A2.152,2.152,0,0,0-.006,2.148V8.4a2.152,2.152,0,0,0,2.148,2.148H12.665a13.855,13.855,0,0,0,.66,8.664L11.9,20.634a2.151,2.151,0,0,0,0,3.038l.827.829-2.145,2.144-.55-.552a1.76,1.76,0,0,0-2.486,0l-1.382,1.38a.585.585,0,0,0,0,.828l.966.967-6.394,6.4a2.541,2.541,0,0,0,3.594,3.594l6.4-6.4.964.965a.584.584,0,0,0,.828,0l1.38-1.382a1.76,1.76,0,0,0,0-2.486l-.552-.552,2.145-2.142.83.827a2.151,2.151,0,0,0,3.038,0l1.415-1.416a13.844,13.844,0,0,0,5.351,1.066Zm-8.98-17.194h.621A2.152,2.152,0,0,0,19.915,8.4V6.586a9.526,9.526,0,1,1-2.769,3.961ZM1.165,8.4V2.148a.978.978,0,0,1,.977-.977H17.767a.978.978,0,0,1,.977.977V8.4a.978.978,0,0,1-.977.977H2.142A.978.978,0,0,1,1.165,8.4Zm14.74,2.148A10.748,10.748,0,1,0,19.915,5.1V2.8a12.7,12.7,0,1,1-6.041,7.748ZM3.5,38.427a1.367,1.367,0,1,1-1.933-1.933l6.4-6.4L9.9,32.031Zm9.573-6.81-.969.966L7.41,27.89l.966-.969a.586.586,0,0,1,.829,0l3.866,3.866A.586.586,0,0,1,13.072,31.617Zm-.552-3.038-1.1-1.1,2.144-2.144,1.1,1.1Zm6.011-1.313a.976.976,0,0,1-1.38,0l-4.422-4.422a.976.976,0,0,1,0-1.38l1.125-1.126a13.953,13.953,0,0,0,5.8,5.806Z" fill="#0042db"/>
    <path id="Trazado_970433" data-name="Trazado 970433" d="M48.867,80H35.586a.586.586,0,0,0,0,1.172H48.867a.586.586,0,0,0,0-1.172Z" transform="translate(-32.272 -73.75)" fill="#0042db"/>
    <path id="Trazado_970434" data-name="Trazado 970434" d="M96.417,40H87.166a.586.586,0,0,0,0,1.172h9.251a.586.586,0,0,0,0-1.172Z" transform="translate(-79.822 -36.875)" fill="#0042db"/>
    <path id="Trazado_970435" data-name="Trazado 970435" d="M35.586,41.172h2.025a.586.586,0,0,0,0-1.172H35.586a.586.586,0,0,0,0,1.172Z" transform="translate(-32.272 -36.875)" fill="#0042db"/>
    <path id="Trazado_970436" data-name="Trazado 970436" d="M246.226,116.782a1.914,1.914,0,0,0,2.779,0l6.921-7.3a1.914,1.914,0,0,0-2.78-2.633l-5.531,5.838L245.3,110.24a1.914,1.914,0,1,0-2.78,2.633Zm-2.823-5.765a.736.736,0,0,1,.509-.2h.021a.74.74,0,0,1,.519.234l2.74,2.891a.587.587,0,0,0,.851,0L254,107.652a.742.742,0,0,1,1.078,1.02l-6.921,7.3a.741.741,0,0,1-1.077,0l-3.7-3.906a.741.741,0,0,1,.029-1.049Z" transform="translate(-223.097 -97.946)" fill="#0042db"/>
  </g>
</svg>
