<svg xmlns="http://www.w3.org/2000/svg" width="80" height="80" viewBox="0 0 80 80">
  <g id="Grupo_1115224" data-name="Grupo 1115224" transform="translate(-210 -517)">
    <rect id="Image_Place_Holder" data-name="Image Place Holder" width="80" height="80" transform="translate(210 517)" fill="#0042db"/>
    <g id="Grupo_1117437" data-name="Grupo 1117437" transform="translate(209 516)">
      <path id="Trazado_959610" data-name="Trazado 959610" d="M42.784,208.333a8.266,8.266,0,0,0-.631-1.486L44,205l-3.333-3.333-1.847,1.847a8.265,8.265,0,0,0-1.486-.631V200h-5v2.882a8.265,8.265,0,0,0-1.486.631L29,201.667,25.667,205l1.847,1.847a8.265,8.265,0,0,0-.631,1.486H24v5h2.882a8.265,8.265,0,0,0,.631,1.486l-1.847,1.847L29,220l1.847-1.847a8.267,8.267,0,0,0,1.486.631v2.882h5v-2.882a8.267,8.267,0,0,0,1.486-.631L40.667,220,44,216.667l-1.847-1.847a8.265,8.265,0,0,0,.631-1.486h2.882v-5Z" transform="translate(-7.167 -164.833)" fill="#3397e8"/>
      <circle id="Elipse_13617" data-name="Elipse 13617" cx="5.692" cy="5.692" r="5.692" transform="translate(22.025 40.241)" fill="#e9eef2"/>
      <circle id="Elipse_13618" data-name="Elipse 13618" cx="2.656" cy="2.656" r="2.656" transform="translate(25.061 43.277)" fill="#2978b8"/>
      <path id="Trazado_959611" data-name="Trazado 959611" d="M169.333,72.333A3.333,3.333,0,0,0,172.667,69V24H136V72.333Z" transform="translate(-107.5 -7.167)" fill="#e9eef2"/>
      <path id="Trazado_959612" data-name="Trazado 959612" d="M45.3,39.875a6.667,6.667,0,0,0-1.718-2.96L31.55,24.884A3.018,3.018,0,0,0,29.417,24h0a3.018,3.018,0,0,0-2.134.884l-2.4,2.4a3.018,3.018,0,0,0,0,4.268L36.915,43.582a6.667,6.667,0,0,0,2.96,1.718l7.458,2.034Z" transform="translate(-7.167 -7.167)" fill="#fbe9d8"/>
      <path id="Trazado_959613" data-name="Trazado 959613" d="M27.283,24.884l-2.4,2.4A3.018,3.018,0,0,0,24,29.417h0a3.018,3.018,0,0,0,.884,2.134L27.333,34,34,27.333l-2.449-2.449A3.018,3.018,0,0,0,29.417,24h0a3.018,3.018,0,0,0-2.134.884Z" transform="translate(-7.167 -7.167)" fill="#eb423f"/>
      <path id="Trazado_959614" data-name="Trazado 959614" d="M104,408h33.333v5a3.333,3.333,0,0,0,3.333,3.333H107.333A3.333,3.333,0,0,1,104,413Z" transform="translate(-78.833 -351.167)" fill="#dadcde"/>
      <rect id="Rectángulo_416275" data-name="Rectángulo 416275" width="7.59" height="15.18" transform="translate(52.385 22.025)" fill="#dadcde"/>
      <path id="Trazado_959615" data-name="Trazado 959615" d="M197.72,201.528l5.237,1.429-1.429-5.237Z" transform="translate(-162.791 -162.791)" fill="#414649"/>
      <path id="Trazado_959616" data-name="Trazado 959616" d="M56,62.667l9.581,9.581,0,0,6.667-6.667,0,0L62.667,56Z" transform="translate(-35.833 -35.833)" fill="#3397e8"/>
      <rect id="Rectángulo_416276" data-name="Rectángulo 416276" width="3.536" height="14.142" transform="translate(21.833 24.333) rotate(-45)" fill="#2978b8"/>
      <circle id="Elipse_13619" data-name="Elipse 13619" cx="1.897" cy="1.897" r="1.897" transform="translate(44.795 44.795)" fill="#3397e8"/>
      <rect id="Rectángulo_416277" data-name="Rectángulo 416277" width="8.349" height="6.831" transform="translate(33.41 43.277)" fill="#eb423f"/>
      <rect id="Rectángulo_416278" data-name="Rectángulo 416278" width="8.349" height="6.831" transform="translate(51.626 43.277)" fill="#3dc285"/>
      <rect id="Rectángulo_416279" data-name="Rectángulo 416279" width="8.349" height="3.795" transform="translate(42.518 53.144)" fill="#ffd33a"/>
      <rect id="Rectángulo_416280" data-name="Rectángulo 416280" width="9.428" height="2.357" transform="translate(18.5 25.167) rotate(-45)" fill="#ffd33a"/>
      <path id="Trazado_959617" data-name="Trazado 959617" d="M65.167,16H28.5a.833.833,0,0,0-.833.833v2.988l-2.693-2.693a3.851,3.851,0,0,0-5.446,0l-2.4,2.4a3.851,3.851,0,0,0,0,5.446l9.36,9.36H25.167a.833.833,0,0,0-.833.833v2.292q-.247.1-.489.207l-1.422-1.422a.833.833,0,0,0-1.179,0l-3.333,3.333a.833.833,0,0,0,0,1.179l1.423,1.422q-.111.241-.207.489H16.833A.833.833,0,0,0,16,43.5v5a.833.833,0,0,0,.833.833h2.292q.1.247.207.489l-1.422,1.422a.833.833,0,0,0,0,1.179l3.333,3.333a.833.833,0,0,0,1.179,0l1.422-1.422q.241.111.489.207v7.292A4.171,4.171,0,0,0,28.5,66H61.833A4.171,4.171,0,0,0,66,61.833v-45A.833.833,0,0,0,65.167,16ZM35.238,29.75l-.9.9-8.4-8.4.9-.9Zm3.741,9.229-2.446-.667,1.779-1.779Zm-4.3-1.172-1.754-.478a5.844,5.844,0,0,1-1.956-.955l5.4-5.4a5.844,5.844,0,0,1,.955,1.956l.478,1.754Zm-15-12.64,5.488-5.488.488.488-5.488,5.488Zm5.071-1.738,8.4,8.4-1.321,1.321-8.4-8.4Zm-6.443-2.723,2.4-2.4a2.184,2.184,0,0,1,3.089,0l.194.194L18.5,23.988l-.193-.193A2.184,2.184,0,0,1,18.307,20.705Zm3.943,5.223,8.4,8.4-.9.9-8.4-8.4Zm5.417,21.738a1.667,1.667,0,1,1,0-3.333Zm0-5a3.333,3.333,0,0,0,0,6.667V51a5,5,0,1,1,0-10Zm-3.587,9.922a.833.833,0,0,0-.988.142l-1.258,1.258-2.155-2.155,1.258-1.258a.833.833,0,0,0,.142-.988,7.436,7.436,0,0,1-.568-1.336.833.833,0,0,0-.8-.584H17.667V44.333h2.049a.833.833,0,0,0,.8-.584,7.436,7.436,0,0,1,.568-1.336.833.833,0,0,0-.142-.988l-1.258-1.258,2.155-2.155,1.258,1.258a.833.833,0,0,0,.988.142,7.443,7.443,0,0,1,1.337-.568.833.833,0,0,0,.584-.8V36h1.667v3.333a6.667,6.667,0,1,0,0,13.333V56H26V53.951a.833.833,0,0,0-.584-.8,7.443,7.443,0,0,1-1.337-.568ZM28.5,64.333a2.5,2.5,0,0,1-2.5-2.5V57.667H57.667v4.167a4.145,4.145,0,0,0,.835,2.5ZM46,46.833a.833.833,0,1,1,.833.833A.833.833,0,0,1,46,46.833Zm4.167,7.5V56H43.5V54.333Zm14.167,7.5a2.5,2.5,0,0,1-5,0v-5A.833.833,0,0,0,58.5,56H51.833V53.5A.833.833,0,0,0,51,52.667H47.667V49.19a2.512,2.512,0,0,0,1.523-1.523H51v2.5a.833.833,0,0,0,.833.833h8.333A.833.833,0,0,0,61,50.167V43.5a.833.833,0,0,0-.833-.833H51.833A.833.833,0,0,0,51,43.5V46H49.19a2.5,2.5,0,0,0-4.713,0h-1.81V43.5a.833.833,0,0,0-.833-.833H33.5a.833.833,0,0,0-.833.833v6.667A.833.833,0,0,0,33.5,51h8.333a.833.833,0,0,0,.833-.833v-2.5h1.81A2.512,2.512,0,0,0,46,49.19v3.477H42.667a.833.833,0,0,0-.833.833V56h-12.5V37.173a7.514,7.514,0,0,0,3.156,1.764l7.458,2.034a.83.83,0,0,0,.219.029H53.5a.833.833,0,0,0,.833-.833v-2.5h5.833A.833.833,0,0,0,61,36.833v-15A.833.833,0,0,0,60.167,21H53.5a.833.833,0,0,0-.833.833v17.5H40.8L39.894,36H48.5a.833.833,0,0,0,0-1.667H39.439l-.455-1.667H48.5A.833.833,0,0,0,48.5,31H38.352a7.512,7.512,0,0,0-1.179-1.667h2.994a.833.833,0,1,0,0-1.667H36.833a.833.833,0,0,0-.78.542l-6.72-6.72V17.667h35Zm-11.667-12.5v-5h6.667v5ZM41,44.333v5H34.333v-5ZM54.333,36V22.667h5V36Z"/>
      <path id="Trazado_959618" data-name="Trazado 959618" d="M224.833,65.667h3.333a.833.833,0,0,0,0-1.667h-3.333a.833.833,0,0,0,0,1.667Z" transform="translate(-186.333 -43)"/>
      <path id="Trazado_959619" data-name="Trazado 959619" d="M208.833,97.667H220.5a.833.833,0,0,0,0-1.667H208.833a.833.833,0,0,0,0,1.667Z" transform="translate(-172 -71.667)"/>
      <path id="Trazado_959620" data-name="Trazado 959620" d="M288.833,65.667h3.333a.833.833,0,1,0,0-1.667h-3.333a.833.833,0,1,0,0,1.667Z" transform="translate(-243.667 -43)"/>
      <path id="Trazado_959621" data-name="Trazado 959621" d="M277.833,128h-5a.833.833,0,0,0,0,1.667h5a.833.833,0,0,0,0-1.667Z" transform="translate(-229.333 -100.333)"/>
    </g>
  </g>
</svg>
