<svg xmlns="http://www.w3.org/2000/svg" width="40" height="32.672" viewBox="0 0 40 32.672">
  <g id="Grupo_1118952" data-name="Grupo 1118952" transform="translate(0 -46.899)">
    <g id="Grupo_1118947" data-name="Grupo 1118947" transform="translate(26.228 69.896)">
      <g id="Grupo_1118946" data-name="Grupo 1118946" transform="translate(0 0)">
        <path id="Trazado_969344" data-name="Trazado 969344" d="M337.068,341.481a.781.781,0,0,0-1.1.011l-.022.023a.781.781,0,0,0,1.116,1.094l.022-.023A.781.781,0,0,0,337.068,341.481Z" transform="translate(-335.718 -341.258)" fill="#0042db"/>
      </g>
    </g>
    <g id="Grupo_1118949" data-name="Grupo 1118949" transform="translate(29.486 59.071)">
      <g id="Grupo_1118948" data-name="Grupo 1118948" transform="translate(0 0)">
        <path id="Trazado_969345" data-name="Trazado 969345" d="M383.922,205.559h-2.076v-2.076a.781.781,0,1,0-1.562,0v2.076h-2.076a.781.781,0,0,0,0,1.563h2.076V209.2a.781.781,0,0,0,1.563,0v-2.076h2.076a.781.781,0,0,0,0-1.562Z" transform="translate(-377.426 -202.702)" fill="#0042db"/>
      </g>
    </g>
    <g id="Grupo_1118951" data-name="Grupo 1118951" transform="translate(0 46.899)">
      <g id="Grupo_1118950" data-name="Grupo 1118950" transform="translate(0 0)">
        <path id="Trazado_969346" data-name="Trazado 969346" d="M35.679,56.327A10.767,10.767,0,0,0,25.09,46.9a10.442,10.442,0,0,0-7.2,2.853,10.442,10.442,0,0,0-7.2-2.853A10.833,10.833,0,0,0,0,57.845a9.581,9.581,0,0,0,1.04,4H.781a.781.781,0,1,0,0,1.563H1.872A44.257,44.257,0,0,0,8.785,71.82a100.7,100.7,0,0,0,8.631,7.59.781.781,0,0,0,.949,0c.033-.025,3.34-2.561,7-6.016A.781.781,0,1,0,24.3,72.257c-2.795,2.635-5.375,4.724-6.407,5.541a100.148,100.148,0,0,1-8.015-7.1,46.47,46.47,0,0,1-6.168-7.289H10.7a.781.781,0,0,0,.751-.566l1.365-4.758L16.6,70.2a.781.781,0,0,0,1.491,0l2.093-6.709h3.488a.781.781,0,1,0,0-1.562H19.608a.781.781,0,0,0-.746.549l-1.519,4.868L13.532,55.133a.781.781,0,0,0-1.5.017l-1.922,6.7H2.783a8.884,8.884,0,0,1-1.221-4,9.269,9.269,0,0,1,9.129-9.384,8.933,8.933,0,0,1,6.625,2.928.781.781,0,0,0,1.148,0,8.933,8.933,0,0,1,6.625-2.928,9.186,9.186,0,0,1,8.932,7.432,6.877,6.877,0,1,0,1.658.434Zm-2.554,11.7a5.313,5.313,0,1,1,5.313-5.313A5.319,5.319,0,0,1,33.125,68.022Z" transform="translate(0 -46.899)" fill="#0042db"/>
      </g>
    </g>
  </g>
</svg>
