<svg xmlns="http://www.w3.org/2000/svg" width="120" height="120" viewBox="0 0 120 120">
  <g id="Grupo_1117896" data-name="Grupo 1117896" transform="translate(-64 -6445)">
    <rect id="Rect치ngulo_402033" data-name="Rect치ngulo 402033" width="120" height="120" rx="8" transform="translate(64 6445)" fill="#0042db"/>
    <g id="Rect치ngulo_412110" data-name="Rect치ngulo 412110" transform="translate(69 6450)" fill="none" stroke="#fff" stroke-width="1">
      <rect width="110" height="110" rx="6" stroke="none"/>
      <rect x="0.5" y="0.5" width="109" height="109" rx="5.5" fill="none"/>
    </g>
    <g id="Grupo_1118840" data-name="Grupo 1118840" transform="translate(141.007 6522.445)">
      <g id="Grupo_1118833" data-name="Grupo 1118833" transform="translate(-6.159 -6.503)">
        <path id="Trazado_969068" data-name="Trazado 969068" d="M341.053,341.856a7.622,7.622,0,0,1-10.671,0l-14.814-14.814,10.671-10.671,14.814,14.814A7.546,7.546,0,0,1,341.053,341.856Z" transform="translate(-315.568 -316.371)" fill="#eab7a2"/>
      </g>
      <g id="Grupo_1118834" data-name="Grupo 1118834" transform="translate(-62.496 -63.042)">
        <circle id="Elipse_13669" data-name="Elipse 13669" cx="26.293" cy="26.293" r="26.293" transform="translate(0 37.178) rotate(-45)" fill="#b7bcce"/>
      </g>
      <g id="Grupo_1118835" data-name="Grupo 1118835" transform="translate(-44.899 -45.459)">
        <path id="Trazado_969069" data-name="Trazado 969069" d="M75.182,94.138A19.6,19.6,0,1,1,89.037,60.686a19.778,19.778,0,0,1,0,27.713A19.467,19.467,0,0,1,75.182,94.138Z" transform="translate(-55.595 -54.947)" fill="#bedaff"/>
      </g>
      <g id="Grupo_1118836" data-name="Grupo 1118836" transform="translate(-10.555 -10.913)">
        <path id="Trazado_969070" data-name="Trazado 969070" d="M299.243,293.081l-6.846,6.844-6.332-6.333a26.461,26.461,0,0,0,6.876-6.813Z" transform="translate(-286.066 -286.779)" fill="#fff"/>
      </g>
      <g id="Grupo_1118837" data-name="Grupo 1118837" transform="translate(-38.83 -32.344)">
        <path id="Trazado_969071" data-name="Trazado 969071" d="M109.9,142.962c-8.018,0-13.577,6.834-13.577,6.834s5.558,6.834,13.577,6.834,13.577-6.834,13.577-6.834S117.918,142.962,109.9,142.962Z" transform="translate(-96.323 -142.962)" fill="#fff"/>
      </g>
      <g id="Grupo_1118838" data-name="Grupo 1118838" transform="translate(-30.905 -31.162)">
        <circle id="Elipse_13670" data-name="Elipse 13670" cx="5.652" cy="5.652" r="5.652" transform="translate(0 0)" fill="#868eaf"/>
      </g>
      <g id="Grupo_1118839" data-name="Grupo 1118839" transform="translate(-53.064 -53.647)">
        <path id="Trazado_969072" data-name="Trazado 969072" d="M81.583,87.07a21.283,21.283,0,0,0,0-29.821,20.889,20.889,0,0,0-8-5.02,1.491,1.491,0,0,0-.975,2.818,17.928,17.928,0,0,1,6.864,4.311,18.1,18.1,0,1,1-25.6,0,17.933,17.933,0,0,1,6.817-4.294,1.491,1.491,0,1,0-.983-2.815,20.893,20.893,0,0,0-7.943,5A21.087,21.087,0,0,0,81.583,87.07Z" transform="translate(-38.921 -44.376)"/>
        <path id="Trazado_969073" data-name="Trazado 969073" d="M74.248,60.9,59.434,46.09a1.506,1.506,0,0,0-2.108,0l-.837.837L52.1,42.543A28.032,28.032,0,0,0,48.2,8.137a27.784,27.784,0,0,0-39.292,0,27.733,27.733,0,0,0,0,39.292,28.03,28.03,0,0,0,34.2,4.028l4.422,4.423-.881.881a1.491,1.491,0,0,0,0,2.108L61.469,73.684A9.036,9.036,0,1,0,74.248,60.9ZM11.017,45.321a25.033,25.033,0,0,1,0-35.075,24.8,24.8,0,0,1,35.075,0,25.023,25.023,0,0,1,2.879,31.629,27.666,27.666,0,0,1-6.536,6.47,25.024,25.024,0,0,1-31.418-3.024ZM45.6,49.728a30.372,30.372,0,0,0,4.755-4.718l4.025,4.025-4.737,4.737ZM72.14,71.576a6.11,6.11,0,0,1-8.562,0l-13.76-13.76,8.562-8.562,13.76,13.76A6.11,6.11,0,0,1,72.14,71.576Z" transform="translate(-0.804)"/>
        <path id="Trazado_969074" data-name="Trazado 969074" d="M86.653,140.341a1.491,1.491,0,0,0,0,1.881c.245.3,6.105,7.384,14.733,7.384s14.488-7.083,14.733-7.384a1.491,1.491,0,0,0,0-1.881c-.245-.3-6.105-7.384-14.733-7.384S86.9,140.04,86.653,140.341Zm14.733,5.1a4.161,4.161,0,1,1,4.161-4.161A4.166,4.166,0,0,1,101.386,145.443Zm-5.949-8.109a7.124,7.124,0,0,0,0,7.9,20.672,20.672,0,0,1-5.588-3.948A20.674,20.674,0,0,1,95.437,137.334Zm11.9,7.9a7.124,7.124,0,0,0,0-7.9,20.671,20.671,0,0,1,5.588,3.948A20.672,20.672,0,0,1,107.335,145.229Z" transform="translate(-73.576 -113.144)"/>
        <path id="Trazado_969075" data-name="Trazado 969075" d="M175.279,173.832a1.49,1.49,0,1,0-.807,1.947A1.5,1.5,0,0,0,175.279,173.832Z" transform="translate(-146.841 -147.148)"/>
        <path id="Trazado_969076" data-name="Trazado 969076" d="M177.164,47.025a1.49,1.49,0,1,0,.807-1.947A1.506,1.506,0,0,0,177.164,47.025Z" transform="translate(-150.79 -38.266)"/>
      </g>
    </g>
  </g>
</svg>
