<svg xmlns="http://www.w3.org/2000/svg" width="40" height="37.807" viewBox="0 0 40 37.807">
  <g id="garbage_bin-garbage-waste-trash-recycle_bin" data-name="garbage bin-garbage-waste-trash-recycle bin" transform="translate(-2 -4.29)">
    <path id="Trazado_971143" data-name="Trazado 971143" d="M30.333,40a3.333,3.333,0,1,0,3.333,3.333A3.333,3.333,0,0,0,30.333,40Zm0,5.333a2,2,0,1,1,2-2A2,2,0,0,1,30.333,45.333Z" transform="translate(-8.333 -11.903)" fill="#0042db"/>
    <path id="Trazado_971144" data-name="Trazado 971144" d="M40.667,22.1h-.12L39.427,16.5A1.333,1.333,0,0,0,38.12,15.43h-2.7l.5-4h.747V10.1H34V6.763H32.667V10.1H30V11.43h.747l.5,4h-2.7a1.347,1.347,0,0,0-.88.333,1.347,1.347,0,0,0-.88-.333h-.12V9.7a1.322,1.322,0,0,0-.393-.94L23.807,6.29l-.947.947,1.533,1.527H19.607L23.14,5.237l-.947-.947L17.727,8.763a1.322,1.322,0,0,0-.393.94V12.1h1.333v-2H20V11.43a1.337,1.337,0,0,0,1.333,1.333h1.333A1.337,1.337,0,0,0,24,11.43V10.1h1.333V15.43H18.667v-2H17.333v2h-.12a1.333,1.333,0,0,0-.88.333,1.347,1.347,0,0,0-.88-.333h-2.24a2,2,0,0,0,.12-.667V9.743a1.981,1.981,0,0,0-.213-.893l-.453-.913V6.763a2,2,0,1,0-4,0V7.937l-.453.913A1.981,1.981,0,0,0,8,9.743v5.02a2,2,0,0,0,.12.667H5.88A1.333,1.333,0,0,0,4.573,16.5L3.747,20.63l1.307.26.827-4.127h1.6l.413,1.653A1.327,1.327,0,0,0,9.187,19.43h2.96a1.327,1.327,0,0,0,1.293-1.013l.413-1.653h1.6L16.52,22.1H3.333A1.337,1.337,0,0,0,2,23.43v1.333A1.337,1.337,0,0,0,3.333,26.1h.08L5.267,40.93A1.333,1.333,0,0,0,6.587,42.1h8.16a1.333,1.333,0,0,0,1.32-1.167l.267-2.127.267,2.12A1.333,1.333,0,0,0,17.92,42.1h8.16a1.333,1.333,0,0,0,1.32-1.173l.267-2.12.267,2.12a1.333,1.333,0,0,0,1.32,1.173h8.16a1.333,1.333,0,0,0,1.32-1.173l1.68-13.44-1.32-.167-1.68,13.447h-8.16L28.34,33.43l.913-7.333H40.667A1.337,1.337,0,0,0,42,24.763V23.43A1.337,1.337,0,0,0,40.667,22.1Zm-18-10.667H21.333V10.1h1.333ZM10,6.763a.667.667,0,1,1,1.333,0V7.43H10Zm-.667,2.98a.637.637,0,0,1,.073-.293l.34-.687h1.84l.34.687A.637.637,0,0,1,12,9.743V10.1H9.333Zm0,1.687H12v1.333H9.333Zm0,2.667H12v.667a.667.667,0,0,1-.667.667H10a.667.667,0,0,1-.667-.667Zm2.813,4H9.187l-.333-1.333H12.48ZM34.58,11.43l-.5,4H32.587l-.5-4Zm.567,5.333L34.813,18.1h-2.96l-.333-1.333Zm-11.333,0L23.48,18.1H20.52l-.333-1.333Zm-6.6,0h1.6l.413,1.653A1.327,1.327,0,0,0,20.52,19.43h2.96a1.327,1.327,0,0,0,1.293-1.013l.413-1.653h1.6L27.853,22.1H17.88l-.867-4.333Zm-2.467,24H6.587L4.753,26.1H16.58Zm-11.413-16V23.43H18v1.333Zm22.747,16H17.92l-.913-7.333L17.92,26.1h9.993Zm3.253-16h-10V23.43h10Zm-.12-2.667-.867-4.333.2-1h1.6l.413,1.653a1.327,1.327,0,0,0,1.293,1.013h2.96a1.327,1.327,0,0,0,1.293-1.013l.413-1.653h1.6L39.187,22.1Zm11.453,2.667h-10V23.43h10Z" fill="#0042db"/>
    <path id="Trazado_971145" data-name="Trazado 971145" d="M44,43.333A3.333,3.333,0,1,0,47.333,40,3.333,3.333,0,0,0,44,43.333Zm5.333,0a2,2,0,1,1-2-2A2,2,0,0,1,49.333,43.333Z" transform="translate(-14 -11.903)" fill="#0042db"/>
    <path id="Trazado_971146" data-name="Trazado 971146" d="M17.2,44.176a2,2,0,0,1-1.449,2.387l.333,1.292A3.339,3.339,0,0,0,18.5,43.879Z" transform="translate(-4.584 -13.196)" fill="#0042db"/>
    <path id="Trazado_971147" data-name="Trazado 971147" d="M16.258,41.146a3.333,3.333,0,0,0-5.03,0l1,.876a2,2,0,0,1,3.019,0Z" transform="translate(-3.076 -11.903)" fill="#0042db"/>
    <path id="Trazado_971148" data-name="Trazado 971148" d="M11.333,44.626a2,2,0,0,1,.051-.45l-1.3-.3a3.333,3.333,0,0,0,2.577,4.013l.267-1.306a2.005,2.005,0,0,1-1.6-1.959Z" transform="translate(-2.666 -13.196)" fill="#0042db"/>
  </g>
</svg>
