<svg xmlns="http://www.w3.org/2000/svg" width="84.854" height="84.854" viewBox="0 0 84.854 84.854">
  <g id="Grupo_1117963" data-name="Grupo 1117963" transform="translate(-210 -517)">
    <rect id="Image_Place_Holder" data-name="Image Place Holder" width="84.854" height="84.854" rx="10" transform="translate(210 517)" fill="#0042db"/>
    <g id="Grupo_1119339" data-name="Grupo 1119339" transform="translate(223.252 529.366)">
      <g id="Grupo_1119328" data-name="Grupo 1119328" transform="translate(21.368 2.14)">
        <path id="Trazado_970176" data-name="Trazado 970176" d="M195.307,11a7.829,7.829,0,0,0-7.8,7.805V20.85c4.284-6.2,7.717-.023,15.609,0V18.805A7.827,7.827,0,0,0,195.307,11Z" transform="translate(-187.502 -11)" fill="#ffcd69" fill-rule="evenodd"/>
      </g>
      <g id="Grupo_1119329" data-name="Grupo 1119329" transform="translate(21.369 9.228)">
        <path id="Trazado_970177" data-name="Trazado 970177" d="M203.112,75.961c-7.892-.023-11.326-6.2-15.609,0v2.775c0,1.77,1.218,3.479,2.794,4.752a6.92,6.92,0,0,0,10.024,0c1.573-1.273,2.791-2.982,2.791-4.752V75.961Z" transform="translate(-187.503 -73.199)" fill="#ffdcd5" fill-rule="evenodd"/>
      </g>
      <g id="Grupo_1119330" data-name="Grupo 1119330" transform="translate(21.369 19.517)">
        <path id="Trazado_970178" data-name="Trazado 970178" d="M190.3,163.485l-2.794,2.856,5.111,4.714,2.694-5.421A8.914,8.914,0,0,1,190.3,163.485Z" transform="translate(-187.502 -163.485)" fill="#ebddd9" fill-rule="evenodd"/>
      </g>
      <g id="Grupo_1119331" data-name="Grupo 1119331" transform="translate(16.164 21.666)">
        <path id="Trazado_970179" data-name="Trazado 970179" d="M152.152,187.758l-5.11-4.714c-4.5,2.084-5.2,4.959-5.2,11.989h26.018c0-7.03-.7-9.905-5.2-11.989l-5.11,4.714-2.694-5.421Z" transform="translate(-141.837 -182.337)" fill="#ff7b79" fill-rule="evenodd"/>
      </g>
      <g id="Grupo_1119332" data-name="Grupo 1119332" transform="translate(29.173 19.517)">
        <path id="Trazado_970180" data-name="Trazado 970180" d="M261,163.485a8.923,8.923,0,0,1-5.014,2.148l2.694,5.421,5.11-4.714Z" transform="translate(-255.986 -163.485)" fill="#ebddd9" fill-rule="evenodd"/>
      </g>
      <g id="Grupo_1119333" data-name="Grupo 1119333" transform="translate(1.288 34.362)">
        <path id="Trazado_970181" data-name="Trazado 970181" d="M26.18,293.745H13.035A1.883,1.883,0,0,0,11.3,294.9v3.424a1.883,1.883,0,0,0,1.731,1.15h52.31a1.884,1.884,0,0,0,1.88-1.88v-1.964a1.886,1.886,0,0,0-1.88-1.88H26.18Z" transform="translate(-11.304 -293.745)" fill="#ffcd69" fill-rule="evenodd"/>
      </g>
      <g id="Grupo_1119334" data-name="Grupo 1119334" transform="translate(5.3 40.087)">
        <path id="Trazado_970182" data-name="Trazado 970182" d="M94.259,343.979H46.51l4.358,17.058c.139.549.3.837.8.837H89.1c.5,0,.659-.287.8-.837ZM57.991,354.921v-3.99a1.455,1.455,0,0,1,1.454-1.451h21.88a1.457,1.457,0,0,1,1.454,1.451v3.99a1.458,1.458,0,0,1-1.454,1.454H59.445a1.456,1.456,0,0,1-1.454-1.454Z" transform="translate(-46.51 -343.979)" fill="#ffe6b4" fill-rule="evenodd"/>
      </g>
      <g id="Grupo_1119335" data-name="Grupo 1119335" transform="translate(16.781 45.589)">
        <path id="Trazado_970183" data-name="Trazado 970183" d="M170.584,392.256H148.7a1.455,1.455,0,0,0-1.454,1.451v3.99a1.456,1.456,0,0,0,1.454,1.454h21.88a1.458,1.458,0,0,0,1.454-1.454v-3.99A1.457,1.457,0,0,0,170.584,392.256Z" transform="translate(-147.251 -392.256)" fill="#ebddd9" fill-rule="evenodd"/>
      </g>
      <g id="Grupo_1119336" data-name="Grupo 1119336" transform="translate(7.087 18.711)">
        <path id="Trazado_970184" data-name="Trazado 970184" d="M63.843,157.32l-1.063,1.266a2.55,2.55,0,1,0,3.909,3.276l1.063-1.266a2.55,2.55,0,1,0-3.909-3.276Z" transform="translate(-62.189 -156.41)" fill="#ebddd9" fill-rule="evenodd"/>
      </g>
      <g id="Grupo_1119337" data-name="Grupo 1119337" transform="translate(45.107 18.711)">
        <path id="Trazado_970185" data-name="Trazado 970185" d="M396.7,157a2.559,2.559,0,0,0-.313,3.592l1.06,1.266a2.55,2.55,0,1,0,3.909-3.276L400.3,157.32A2.556,2.556,0,0,0,396.7,157Z" transform="translate(-395.797 -156.41)" fill="#ebddd9" fill-rule="evenodd"/>
      </g>
      <g id="Grupo_1119338" data-name="Grupo 1119338" transform="translate(0 1)">
        <path id="Trazado_970186" data-name="Trazado 970186" d="M137.251,384.845v3.99a2.6,2.6,0,0,0,2.593,2.594h21.879a2.6,2.6,0,0,0,2.593-2.594v-3.99a2.6,2.6,0,0,0-2.593-2.59H139.844A2.6,2.6,0,0,0,137.251,384.845Zm24.787,0v3.99a.318.318,0,0,1-.314.314H139.844a.314.314,0,0,1-.314-.314v-3.99a.317.317,0,0,1,.314-.311h21.879A.317.317,0,0,1,162.038,384.845Z" transform="translate(-121.609 -338.806)"/>
        <path id="Trazado_970187" data-name="Trazado 970187" d="M55.33,33.223h-.572V28.368a.529.529,0,0,0-.018-.185,1.132,1.132,0,0,0-.248-.536l-2.651-3.165a3.7,3.7,0,0,0-.3-4.328l-1.061-1.264a3.7,3.7,0,0,0-5.2-.46h0a3.693,3.693,0,0,0-.454,5.2l1.06,1.267a3.664,3.664,0,0,0,2.5,1.3q.167.015.332.015a3.664,3.664,0,0,0,1.372-.265l2.384,2.846v4.429H43.314c-.091-6.4-1.054-9.58-5.66-11.789l-1.829-1.871a7.036,7.036,0,0,0,2.293-4.8V9.945a8.944,8.944,0,1,0-17.889,0v4.82a7.037,7.037,0,0,0,2.294,4.8l-1.83,1.87c-4.606,2.209-5.569,5.388-5.66,11.789H5.868V28.793l2.384-2.846a3.666,3.666,0,0,0,1.373.265q.167,0,.336-.015a3.654,3.654,0,0,0,2.5-1.3l1.062-1.266a3.69,3.69,0,0,0-5.654-4.742L6.8,20.157a3.7,3.7,0,0,0-.3,4.325L3.855,27.648a1.134,1.134,0,0,0-.262.654c0,.018,0,.037,0,.059,0,0,0,.009,0,.014s0,0,0,0v4.844H3.019A3.023,3.023,0,0,0,0,36.243v1.964a3.023,3.023,0,0,0,3.02,3.02h1.4l4.138,16.2a1.937,1.937,0,0,0,1.906,1.7H47.89A1.945,1.945,0,0,0,49.8,57.427l4.139-16.2h1.4a3.023,3.023,0,0,0,3.02-3.02V36.243a3.023,3.023,0,0,0-3.02-3.02Zm-5.71-9.617a1.416,1.416,0,0,1-1.986-.174l-1.061-1.268a1.406,1.406,0,0,1,1.205-2.307,1.393,1.393,0,0,1,.955.5l1.062,1.266A1.412,1.412,0,0,1,49.62,23.606ZM8.551,21.62l1.064-1.267a1.4,1.4,0,0,1,.957-.5q.064-.006.128-.006a1.411,1.411,0,0,1,1.077,2.313l-1.065,1.269a1.416,1.416,0,0,1-1.984.174,1.417,1.417,0,0,1-.177-1.988ZM29.173,3.279a6.673,6.673,0,0,1,6.665,6.666V10.8a20.679,20.679,0,0,1-5.847-1.565,12.884,12.884,0,0,0-4.446-1.148,4.958,4.958,0,0,0-2.979.975,6.676,6.676,0,0,1,6.607-5.783ZM22.508,14.765V12.354c2.03-2.772,3.52-2.2,6.666-.991a22.516,22.516,0,0,0,6.665,1.723v1.68c0,2.8-4.334,5.761-6.665,5.761s-6.665-2.961-6.665-5.761Zm12.835,7.566-3.131,2.888-1.33-2.676a11.254,11.254,0,0,0,3.18-1.523Zm-7.878.212-1.33,2.676L23,22.331l1.282-1.31A11.248,11.248,0,0,0,27.464,22.543Zm-6.293,1.2,4.535,4.183a1.14,1.14,0,0,0,1.793-.331l1.674-3.368,1.674,3.368a1.14,1.14,0,0,0,1.793.331l4.535-4.183c2.94,1.562,3.772,3.627,3.859,9.481H17.312c.088-5.854.919-7.918,3.859-9.481Zm34.9,14.465a.741.741,0,0,1-.74.741H34.287a1.14,1.14,0,0,0,0,2.279H51.582L47.593,56.842H10.757L6.768,41.227H24.05a1.14,1.14,0,1,0,0-2.279H3.02a.75.75,0,0,1-.74-.741V36.243a.75.75,0,0,1,.74-.741H55.33a.75.75,0,0,1,.74.741Z" transform="translate(0 -1)"/>
        <path id="Trazado_970188" data-name="Trazado 970188" d="M247.1,336.258h0a1.14,1.14,0,1,0-1.143-1.14A1.138,1.138,0,0,0,247.1,336.258Z" transform="translate(-217.926 -296.031)"/>
      </g>
    </g>
  </g>
</svg>
