<svg xmlns="http://www.w3.org/2000/svg" width="46.844" height="29.976" viewBox="0 0 46.844 29.976">
  <g id="Grupo_1118979" data-name="Grupo 1118979" transform="translate(0 -92.184)">
    <g id="Grupo_1118974" data-name="Grupo 1118974" transform="translate(13.202 92.184)">
      <g id="Grupo_1118973" data-name="Grupo 1118973" transform="translate(0 0)">
        <path id="Trazado_969370" data-name="Trazado 969370" d="M162.583,109.071,158.6,107.3a.781.781,0,0,1-.464-.713V105.49a5.811,5.811,0,0,0,2.2-4.552V99.4a1.422,1.422,0,0,0,.733-1.243V98a5.827,5.827,0,0,0-5.82-5.82h-1.467a5.827,5.827,0,0,0-5.82,5.82v1.357a1.439,1.439,0,0,0,.548,1.153,1.337,1.337,0,0,0,.186.12v.3a5.811,5.811,0,0,0,2.2,4.552v1.1a.781.781,0,0,1-.464.713l-3.987,1.772a3.623,3.623,0,0,0-2.15,3.308v9.095a.686.686,0,0,0,1.372,0v-9.095a2.243,2.243,0,0,1,.014-.236l1.837,1.837a1.5,1.5,0,0,1,.443,1.071v6.423a.686.686,0,1,0,1.372,0V115.05a2.867,2.867,0,0,0-.845-2.041l-2.19-2.19a2.241,2.241,0,0,1,.7-.494l3.92-1.742,2.907,2.907v9.983a.686.686,0,0,0,1.372,0V111.49l2.907-2.907,3.92,1.742a2.24,2.24,0,0,1,.7.494l-2.19,2.19a2.867,2.867,0,0,0-.845,2.041v6.423a.686.686,0,1,0,1.372,0V115.05a1.5,1.5,0,0,1,.443-1.071l1.837-1.837a2.239,2.239,0,0,1,.014.236v9.095a.686.686,0,1,0,1.372,0v-9.095A3.624,3.624,0,0,0,162.583,109.071Zm-8.071,1.164-2.551-2.551a2.149,2.149,0,0,0,.3-1.1v-.279a5.815,5.815,0,0,0,4.495,0v.279a2.149,2.149,0,0,0,.3,1.1Zm0-4.85a4.453,4.453,0,0,1-4.448-4.448v-.309a4.057,4.057,0,0,0,1.246-.809.686.686,0,0,0-.931-1.009,2.465,2.465,0,0,1-1.019.608l-.018,0a.139.139,0,0,1-.012-.062V98a4.453,4.453,0,0,1,4.448-4.448h1.467A4.453,4.453,0,0,1,159.694,98v.15a.044.044,0,0,1-.031.045c-4.109.812-6.17-.718-6.865-1.413a.686.686,0,1,0-.97.97c2.131,2.131,5.24,2.169,7.133,1.942v1.24A4.453,4.453,0,0,1,154.512,105.385Z" transform="translate(-144.292 -92.184)" fill="#0042db"/>
      </g>
    </g>
    <g id="Grupo_1118976" data-name="Grupo 1118976" transform="translate(0 95.851)">
      <g id="Grupo_1118975" data-name="Grupo 1118975" transform="translate(0 0)">
        <path id="Trazado_969371" data-name="Trazado 969371" d="M12.374,141.752v-1.467a5.086,5.086,0,0,0-2.332-4.273,2.886,2.886,0,1,0-5.509,0A5.085,5.085,0,0,0,2.2,140.285v1.467a5.084,5.084,0,0,0,2.2,4.185v1.509a.776.776,0,0,1-.431.7L1.6,149.331A2.871,2.871,0,0,0,0,151.913v5.974a.686.686,0,0,0,1.372,0V152.21l1.118,1.118a1.5,1.5,0,0,1,.443,1.071v3.489a.686.686,0,0,0,1.372,0V154.4a2.868,2.868,0,0,0-.845-2.041L1.9,150.8l-.023-.021a1.53,1.53,0,0,1,.328-.222l2.373-1.187a2.186,2.186,0,0,0,.34-.212L6.6,150.837v7.05a.686.686,0,0,0,1.372,0v-7.05l1.678-1.678a2.175,2.175,0,0,0,.34.212l.654.327a.686.686,0,1,0,.614-1.227l-.654-.327a.776.776,0,0,1-.432-.7v-1.509A5.084,5.084,0,0,0,12.374,141.752Zm-5.087-8.115A1.516,1.516,0,0,1,8.8,135.151a1.538,1.538,0,0,1-.024.27,5.086,5.086,0,0,0-2.978,0,1.5,1.5,0,0,1,1.488-1.784Zm0,2.934A3.719,3.719,0,0,1,11,140.285v.249a4.308,4.308,0,0,1-4.632-1.394.686.686,0,0,0-1.034-.073,4.489,4.489,0,0,1-1.76,1.123A3.718,3.718,0,0,1,7.287,136.571Zm0,13.012L5.7,148a2.173,2.173,0,0,0,.072-.551v-.838a5.1,5.1,0,0,0,3.028,0v.838a2.172,2.172,0,0,0,.072.551Zm0-4.116a3.719,3.719,0,0,1-3.714-3.714v-.142a5.5,5.5,0,0,0,2.2-1.1,6.192,6.192,0,0,0,1.272.926,5.458,5.458,0,0,0,2.622.677A5.749,5.749,0,0,0,11,141.956,3.719,3.719,0,0,1,7.287,145.466Z" transform="translate(0 -132.265)" fill="#0042db"/>
      </g>
    </g>
    <g id="Grupo_1118978" data-name="Grupo 1118978" transform="translate(33.003 97.318)">
      <g id="Grupo_1118977" data-name="Grupo 1118977" transform="translate(0 0)">
        <path id="Trazado_969372" data-name="Trazado 969372" d="M372.971,162.43l-3.84-1.92a.776.776,0,0,1-.431-.7v-.972a4.343,4.343,0,0,0,1.467-3.255V154.8h.047a.686.686,0,0,0,.686-.686v-1.467a4.358,4.358,0,0,0-4.353-4.353h-1.467a4.358,4.358,0,0,0-4.353,4.353v1.467a.686.686,0,0,0,.686.686h.047v.782a4.343,4.343,0,0,0,1.467,3.255v.972a.776.776,0,0,1-.432.7.686.686,0,1,0,.614,1.228,2.188,2.188,0,0,0,.34-.212l1.678,1.678v9.25a.686.686,0,0,0,1.372,0V163.2l1.678-1.678a2.173,2.173,0,0,0,.34.212l3.716,1.858-1.127,1.127a2.868,2.868,0,0,0-.845,2.041v5.689a.686.686,0,0,0,1.372,0v-5.689a1.5,1.5,0,0,1,.443-1.071l1.068-1.068a1.53,1.53,0,0,1,.05.386v7.441a.686.686,0,0,0,1.372,0v-7.441A2.87,2.87,0,0,0,372.971,162.43Zm-10.873-9.14v-.64h0a2.984,2.984,0,0,1,2.981-2.981h1.467a2.984,2.984,0,0,1,2.981,2.981v.762a10.5,10.5,0,0,1-4.8-1.333.686.686,0,0,0-.866.086A4.494,4.494,0,0,1,362.1,153.291Zm3.714,8.658-1.586-1.586a2.173,2.173,0,0,0,.072-.551v-.146a4.35,4.35,0,0,0,3.028,0v.146a2.169,2.169,0,0,0,.072.551Zm0-3.383a2.984,2.984,0,0,1-2.981-2.981v-1.106h0a5.808,5.808,0,0,0,1.61-.983,12.191,12.191,0,0,0,4.351,1.237v.852A2.984,2.984,0,0,1,365.813,158.566Z" transform="translate(-360.726 -148.298)" fill="#0042db"/>
      </g>
    </g>
  </g>
</svg>
