<svg xmlns="http://www.w3.org/2000/svg" width="40" height="45.029" viewBox="0 0 40 45.029">
  <path id="Trazado_970167" data-name="Trazado 970167" d="M56.744,37.628a15.437,15.437,0,0,1,4.826-4.7.682.682,0,0,1,.714,1.162,14.076,14.076,0,0,0-4.4,4.281.682.682,0,0,1-1.143-.745ZM76.6,33.152a.682.682,0,0,1,.938-.224,15.427,15.427,0,0,1,4.826,4.7.682.682,0,1,1-1.144.745,14.062,14.062,0,0,0-4.4-4.281.684.684,0,0,1-.224-.938ZM87.157,49.946v.479h-9.99v-.479c0-1.018.8-2.249,3.041-2.365,1.171-.06,1.823-1.518.638-2.847a1.73,1.73,0,1,1,2.633,0c-1.185,1.33-.533,2.788.637,2.848,2.244.117,3.041,1.347,3.041,2.365ZM76.735,44.469a.208.208,0,0,0,.205.205H79.2a2.791,2.791,0,0,1,.023-2.276,3.257,3.257,0,0,1,2.716-1.875h.438A3.257,3.257,0,0,1,85.1,42.4a2.79,2.79,0,0,1,.023,2.276h2.264a.208.208,0,0,0,.2-.205V40.442a.208.208,0,0,0-.2-.2H76.941a.208.208,0,0,0-.205.2Zm10.648,1.569a1.57,1.57,0,0,0,1.568-1.569V40.442a1.57,1.57,0,0,0-1.568-1.569H76.941a1.571,1.571,0,0,0-1.569,1.569v4.027a1.57,1.57,0,0,0,1.569,1.569h3.137a.418.418,0,0,1,.031.182c-2.974.166-4.306,1.989-4.306,3.726v1.162a.682.682,0,0,0,.682.682H87.839a.682.682,0,0,0,.682-.682V49.946c0-1.737-1.331-3.559-4.306-3.726a.413.413,0,0,1,.031-.182ZM54.528,49.352a.012.012,0,0,1-.009.009H53.057a.011.011,0,0,1-.009-.009v-8.29a.01.01,0,0,1,.009-.009H54.52a.011.011,0,0,1,.009.009v8.29Zm-3.906-2.494a.31.31,0,0,1-.306-.3V43.861a.309.309,0,0,1,.306-.3h1.062v3.3Zm9-5.8a.011.011,0,0,1,.009-.009H61.1s.01,0,.01.009v8.29s-.007.009-.01.009H59.635a.012.012,0,0,1-.009-.009Zm3.907,2.494a.308.308,0,0,1,.3.3v2.692a.308.308,0,0,1-.3.3H62.472v-3.3ZM58.261,45.87v3.482a1.375,1.375,0,0,0,1.374,1.374H61.1a1.376,1.376,0,0,0,1.375-1.374v-1.13h1.061a1.671,1.671,0,0,0,1.67-1.669V43.861a1.671,1.671,0,0,0-1.67-1.67H62.472V41.062A1.376,1.376,0,0,0,61.1,39.689H59.635a1.375,1.375,0,0,0-1.374,1.374v3.443l-2.368.039V41.062a1.375,1.375,0,0,0-1.374-1.374H53.057a1.374,1.374,0,0,0-1.374,1.374v1.129H50.622a1.672,1.672,0,0,0-1.67,1.67v2.692a1.672,1.672,0,0,0,1.67,1.669h1.062v1.13a1.374,1.374,0,0,0,1.374,1.374h1.462a1.375,1.375,0,0,0,1.374-1.374V45.909Zm7.115-14.98a2.152,2.152,0,0,1,1.52-.673,3.4,3.4,0,0,1,2.183,1.073.685.685,0,0,0,.945,0c.77-.739,2.274-1.775,3.7-.4,1.218,1.17-.321,5.368-1.873,7.631a.784.784,0,0,1-1.181.137,1.622,1.622,0,0,0-2.243,0,.783.783,0,0,1-1.184-.132,15.537,15.537,0,0,1-2-4.321C64.8,32.607,64.849,31.4,65.377,30.891Zm5.114-5.439a2.258,2.258,0,0,1,1.447-.4,2.346,2.346,0,0,1-2.351,1.605A2.266,2.266,0,0,1,70.491,25.452ZM67.785,40.234a2.093,2.093,0,0,0,1.59-.585.262.262,0,0,1,.36,0,2.15,2.15,0,0,0,3.245-.355c1.427-2.079,3.833-7.331,1.693-9.387a3.532,3.532,0,0,0-4.546-.416,11.792,11.792,0,0,0-.291-1.47,3.637,3.637,0,0,0,3.54-3.5.683.683,0,0,0-.43-.628,3.627,3.627,0,0,0-4.365,1.664,2.323,2.323,0,0,0-.734-.5.682.682,0,1,0-.525,1.259c.664.277,1.169,1.6,1.405,3.027a3.5,3.5,0,0,0-4.3.559c-2.154,2.071.261,7.322,1.694,9.4A2.109,2.109,0,0,0,67.785,40.234Zm1.77,18.233a2.1,2.1,0,1,1,2.1-2.1A2.1,2.1,0,0,1,69.555,58.467Zm0-5.561a3.463,3.463,0,1,0,3.463,3.463A3.467,3.467,0,0,0,69.555,52.905ZM79.8,54.722a.708.708,0,0,0-1.152-.824l-4.287,5.985A5.718,5.718,0,0,1,69.6,62.329h-.092a5.718,5.718,0,0,1-4.761-2.446L60.461,53.9a.708.708,0,0,0-1.152.824l6,8.375a5.318,5.318,0,0,1,1.029,3.2V67.34h6.439V66.3A5.325,5.325,0,0,1,73.8,63.1Zm.63-2.1a2.078,2.078,0,0,0-2.892.477l-4.286,5.986a4.581,4.581,0,0,1-7.4,0L61.57,53.1A2.072,2.072,0,0,0,58.2,55.517l6,8.374a3.949,3.949,0,0,1,.773,2.407v1.725a.682.682,0,0,0,.682.682h7.8a.682.682,0,0,0,.682-.682V66.3a3.946,3.946,0,0,1,.774-2.407l6-8.374a2.074,2.074,0,0,0-.478-2.891Z" transform="translate(-48.952 -23.675)" fill="#29542a" fill-rule="evenodd"/>
</svg>
